<?xml version="1.0" encoding="utf-8"?>
<!-- Generator: Adobe Illustrator 25.1.0, SVG Export Plug-In . SVG Version: 6.00 Build 0)  -->
<svg version="1.1" id="Layer_1" xmlns="http://www.w3.org/2000/svg" xmlns:xlink="http://www.w3.org/1999/xlink" x="0px" y="0px"
	 viewBox="0 0 1463.42 808.1" style="enable-background:new 0 0 1463.42 808.1;" xml:space="preserve">
<style type="text/css">
	.st0{fill-rule:evenodd;clip-rule:evenodd;fill:#0F0F0F;}
	.st1{fill-rule:evenodd;clip-rule:evenodd;fill:#121212;}
	.st2{fill-rule:evenodd;clip-rule:evenodd;fill:#1A1A1A;}
	.st3{fill-rule:evenodd;clip-rule:evenodd;fill:#FFFFFF;}
	.st4{fill-rule:evenodd;clip-rule:evenodd;fill:#989898;}
	.st5{fill-rule:evenodd;clip-rule:evenodd;fill:#666666;}
	.st6{fill-rule:evenodd;clip-rule:evenodd;fill:#323232;}
	.st7{fill-rule:evenodd;clip-rule:evenodd;fill:#B2B2B2;}
	.st8{fill-rule:evenodd;clip-rule:evenodd;fill:none;stroke:#B2B2B2;stroke-width:1.7008;stroke-miterlimit:22.9256;}
	.st9{fill-rule:evenodd;clip-rule:evenodd;fill:#4D4D4D;}
	.st10{fill-rule:evenodd;clip-rule:evenodd;fill:url(#SVGID_1_);}
	.st11{fill-rule:evenodd;clip-rule:evenodd;fill:#2E333D;}
	.st12{fill-rule:evenodd;clip-rule:evenodd;fill:url(#SVGID_2_);}
	.st13{fill-rule:evenodd;clip-rule:evenodd;fill:#333333;}
	.st14{fill-rule:evenodd;clip-rule:evenodd;fill:#FF0000;}
	.st15{fill-rule:evenodd;clip-rule:evenodd;fill:#404040;}
	.st16{fill-rule:evenodd;clip-rule:evenodd;fill:#808080;}
	.st17{fill-rule:evenodd;clip-rule:evenodd;fill:#E5E5E5;}
</style>
<g id="_x32_">
	<path class="st0" d="M112.25,708.68h1214.82c3.08,0,5.6,2.52,5.6,5.6l0,0c0,3.08-2.64,5.6-5.6,5.6H112.25
		c-2.96,0-5.61-2.52-5.61-5.6l0,0C106.65,711.2,109.18,708.68,112.25,708.68L112.25,708.68z M51.75,708.68h22.87
		c3.08,0,5.6,2.52,5.6,5.6l0,0c0,3.08-2.63,5.6-5.6,5.6H51.75c-2.97,0-5.6-2.52-5.6-5.6l0,0C46.15,711.2,48.68,708.68,51.75,708.68
		L51.75,708.68z M1363.63,708.68h24.89c3.08,0,5.6,2.52,5.6,5.6l0,0c0,3.08-2.64,5.6-5.6,5.6h-24.89c-2.96,0-5.6-2.52-5.6-5.6l0,0
		C1358.03,711.2,1360.54,708.68,1363.63,708.68z"/>
	<rect x="92.36" y="437.96" class="st1" width="898.78" height="174.26"/>
	<g>
		<path class="st1" d="M606.91,714.04h47.12c40.01,0,72.44-50.04,72.44-111.76c0-61.72-32.43-111.76-72.44-111.76h-47.12
			C563.34,490.52,561.92,714.04,606.91,714.04z"/>
		<ellipse class="st1" cx="606.91" cy="602.28" rx="72.44" ry="111.76"/>
		<path class="st1" d="M1220.34,714.04h47.12c40.01,0,72.44-50.04,72.44-111.76c0-61.72-32.43-111.76-72.44-111.76h-47.12
			C1176.76,490.52,1175.34,714.04,1220.34,714.04z"/>
		<ellipse class="st1" cx="1220.33" cy="602.28" rx="72.44" ry="111.76"/>
	</g>
	<g>
		<g>
			<path class="st0" d="M214.34,714.04h47.12c40.01,0,72.44-50.04,72.44-111.76c0-61.72-32.43-111.76-72.44-111.76h-47.12
				C170.76,490.52,169.34,714.04,214.34,714.04z"/>
			<ellipse class="st2" cx="214.34" cy="602.28" rx="72.45" ry="111.76"/>
			<g>
				<path class="st3" d="M214.34,681.16c28.11,0,51.04-35.37,51.04-78.74c0-43.37-22.92-78.74-51.04-78.74
					c-28.11,0-51.04,35.37-51.04,78.74C163.29,645.79,186.22,681.16,214.34,681.16z"/>
				<path class="st4" d="M214.34,669.96c24.11,0,43.78-30.34,43.78-67.54c0-37.2-19.67-67.54-43.78-67.54
					c-24.11,0-43.78,30.34-43.78,67.54C170.56,639.62,190.22,669.96,214.34,669.96z"/>
				<path class="st2" d="M222.8,668.7c20.13-6.08,35.31-33.44,35.31-66.27c0-32.83-15.19-60.19-35.31-66.27
					c-20.13,6.08-35.32,33.44-35.32,66.27C187.48,635.25,202.67,662.61,222.8,668.7z"/>
				<path class="st5" d="M223.4,668.51c11.69-3.8,21.65-14.78,27.88-29.81c-2.86-3.28-4.49-10.05-0.72-20.14
					c2.31-6.18,4.94-9.02,7.37-9.8c0.13-2.08,0.19-4.19,0.19-6.33c0-2.14-0.07-4.25-0.19-6.33c-2.44-0.78-5.06-3.63-7.37-9.8
					c-3.78-10.1-2.14-16.87,0.72-20.14c-6.22-15.04-16.19-26.02-27.88-29.82c-19.82,6.44-34.71,33.58-34.71,66.09
					C188.69,634.93,203.57,662.07,223.4,668.51L223.4,668.51z M232.45,570.16c-14.23,0-12.22-19.74-7.41-21.33
					c4.94-1.62,9.88-1.68,14.82,0C244.7,550.48,246.64,570.16,232.45,570.16L232.45,570.16z M214.35,586.29
					c-7.11,19.02-17.19,6.46-15.67-0.76c1.56-7.42,4-14.05,7.41-19.82C209.43,560.07,221.44,567.33,214.35,586.29L214.35,586.29z
					 M214.35,618.55c7.11,19.02-4.97,26.21-8.26,20.57c-3.38-5.79-5.88-12.37-7.41-19.81C197.18,612.02,207.25,599.59,214.35,618.55
					L214.35,618.55z M232.45,634.68c14.23,0,12.22,19.74,7.41,21.33c-4.94,1.62-9.88,1.68-14.82,0
					C220.2,654.37,218.26,634.68,232.45,634.68z"/>
				<path class="st3" d="M220.18,669.36c12.49-2.57,23.32-13.28,30.18-28.55c-4.52,1.48-12.24-6.18-6.23-22.26
					c4.61-12.33,10.47-11.39,13.61-7.23c0.25-2.91,0.38-5.88,0.38-8.9c0-3.02-0.13-5.99-0.38-8.9c-3.13,4.16-9,5.09-13.61-7.23
					c-6.02-16.1,1.71-23.72,6.23-22.26c-6.85-15.27-17.68-25.97-30.17-28.55c-21.4,4.41-37.91,32.7-37.91,66.94
					S198.78,664.95,220.18,669.36L220.18,669.36z M226.03,570.16c-14.23,0-12.22-19.74-7.41-21.33c4.94-1.62,9.88-1.68,14.82,0
					C238.28,550.48,240.22,570.16,226.03,570.16L226.03,570.16z M207.93,586.29c-7.11,19.02-17.19,6.46-15.67-0.76
					c1.56-7.42,4-14.05,7.41-19.82C203.01,560.07,215.02,567.33,207.93,586.29L207.93,586.29z M207.93,618.55
					c7.11,19.02-4.97,26.21-8.26,20.57c-3.38-5.79-5.88-12.37-7.41-19.81C190.76,612.02,200.83,599.59,207.93,618.55L207.93,618.55z
					 M226.03,634.68c14.23,0,12.22,19.74,7.41,21.33c-4.94,1.62-9.88,1.68-14.82,0C213.77,654.37,211.84,634.68,226.03,634.68z"/>
				<path class="st5" d="M226.44,588.62c-5.21,0-9.44,6.52-9.44,14.56c0,8.04,4.23,14.56,9.44,14.56c5.21,0,9.44-6.52,9.44-14.56
					C235.88,595.14,231.65,588.62,226.44,588.62z"/>
			</g>
		</g>
		<g>
			<path class="st0" d="M827.76,714.04h47.12c40.01,0,72.44-50.04,72.44-111.76c0-61.72-32.43-111.76-72.44-111.76h-47.12
				C784.19,490.52,782.76,714.04,827.76,714.04z"/>
			<ellipse class="st2" cx="827.76" cy="602.28" rx="72.45" ry="111.76"/>
			<g>
				<path class="st3" d="M827.76,681.16c28.11,0,51.04-35.37,51.04-78.74c0-43.37-22.93-78.74-51.04-78.74
					c-28.11,0-51.04,35.37-51.04,78.74C776.72,645.79,799.64,681.16,827.76,681.16z"/>
				<path class="st4" d="M827.76,669.96c24.11,0,43.78-30.34,43.78-67.54c0-37.2-19.67-67.54-43.78-67.54
					c-24.11,0-43.78,30.34-43.78,67.54C783.98,639.62,803.64,669.96,827.76,669.96z"/>
				<path class="st2" d="M836.22,668.7c20.13-6.08,35.31-33.44,35.31-66.27c0-32.83-15.19-60.19-35.31-66.27
					c-20.13,6.08-35.32,33.44-35.32,66.27C800.91,635.25,816.09,662.61,836.22,668.7z"/>
				<path class="st5" d="M836.82,668.51c11.69-3.8,21.65-14.78,27.88-29.81c-2.86-3.28-4.49-10.05-0.72-20.14
					c2.31-6.18,4.94-9.02,7.37-9.8c0.13-2.08,0.19-4.19,0.19-6.33c0-2.14-0.07-4.25-0.19-6.33c-2.44-0.78-5.06-3.63-7.37-9.8
					c-3.78-10.1-2.14-16.87,0.72-20.14c-6.22-15.04-16.19-26.02-27.88-29.82c-19.82,6.44-34.71,33.58-34.71,66.09
					C802.11,634.93,816.99,662.07,836.82,668.51L836.82,668.51z M845.87,570.16c-14.23,0-12.22-19.74-7.41-21.33
					c4.94-1.62,9.88-1.68,14.82,0C858.12,550.48,860.06,570.16,845.87,570.16L845.87,570.16z M827.77,586.29
					c-7.11,19.02-17.19,6.46-15.67-0.76c1.56-7.42,4-14.05,7.41-19.82C822.85,560.07,834.86,567.33,827.77,586.29L827.77,586.29z
					 M827.77,618.55c7.11,19.02-4.97,26.21-8.26,20.57c-3.38-5.79-5.88-12.37-7.41-19.81C810.6,612.02,820.68,599.59,827.77,618.55
					L827.77,618.55z M845.87,634.68c14.23,0,12.22,19.74,7.41,21.33c-4.94,1.62-9.88,1.68-14.82,0
					C833.62,654.37,831.69,634.68,845.87,634.68z"/>
				<path class="st3" d="M833.6,669.36c12.49-2.57,23.32-13.28,30.17-28.55c-4.52,1.48-12.24-6.18-6.23-22.26
					c4.61-12.33,10.47-11.39,13.61-7.23c0.25-2.91,0.38-5.88,0.38-8.9c0-3.02-0.13-5.99-0.38-8.9c-3.14,4.16-9,5.09-13.61-7.23
					c-6.02-16.1,1.71-23.72,6.23-22.26c-6.85-15.27-17.68-25.97-30.17-28.55c-21.4,4.41-37.91,32.7-37.91,66.94
					S812.2,664.95,833.6,669.36L833.6,669.36z M839.45,570.16c-14.23,0-12.22-19.74-7.41-21.33c4.94-1.62,9.88-1.68,14.83,0
					C851.7,550.48,853.64,570.16,839.45,570.16L839.45,570.16z M821.35,586.29c-7.11,19.02-17.19,6.46-15.67-0.76
					c1.56-7.42,4-14.05,7.41-19.82C816.43,560.07,828.44,567.33,821.35,586.29L821.35,586.29z M821.35,618.55
					c7.11,19.02-4.97,26.21-8.26,20.57c-3.38-5.79-5.88-12.37-7.41-19.81C804.18,612.02,814.25,599.59,821.35,618.55L821.35,618.55z
					 M839.45,634.68c14.23,0,12.22,19.74,7.41,21.33c-4.94,1.62-9.88,1.68-14.82,0C827.2,654.37,825.26,634.68,839.45,634.68z"/>
				<path class="st5" d="M839.86,588.62c-5.21,0-9.44,6.52-9.44,14.56c0,8.04,4.23,14.56,9.44,14.56s9.44-6.52,9.44-14.56
					C849.3,595.14,845.07,588.62,839.86,588.62z"/>
			</g>
		</g>
	</g>
	<path class="st6" d="M1034.33,73.73c-306.1-14.06-611.36-14.56-915.67,0c-19.64,0.94-32.52,12.06-36.36,32.21
		c-15.58,81.79-35.11,163.59-39.96,245.38l-2.98,13l0.44,141.32l-6.56,17.5c-0.04,24.77,3.3,49.13,6.56,72.98
		c0.88,6.46,3.67,16.1,12.1,16.1h59.4c9.1,0,12.63-7.75,12.82-15.41c1.76-70.64,42.61-127.1,92.66-127.1
		c50.07,0,90.88,56.51,92.66,127.19c0.24,9.38,7.94,15.33,13.82,15.33h399.91c9.03,0,13.83-7.27,14.03-15.3
		c1.7-70.69,42.59-127.22,92.66-127.22c50.08,0,90.97,56.52,92.66,127.21c0.3,12.34,9.92,15.31,17.37,15.31h442.02
		c8.47,0,14.77-8.13,16.06-16.1c3.81-23.46,5.66-47.64,3.75-72.49l-6.51-17.99l-1.74-13.17c-1.07-8.11-2.49-11.67-6.64-18.38
		l-8.77-14.21c-0.56-22.35-3.49-59.47-10.91-77.73c-6.32-15.55-15.61-29.85-29.87-40.82c-26.41-20.31-53.61-39.59-80.41-59.38
		l-130.46-163.32C1104.02,90.57,1072.19,75.46,1034.33,73.73z"/>
	<path class="st7" d="M183.5,317.01c2.8,0,5.07,2.27,5.07,5.07c0,2.8-2.27,5.07-5.07,5.07H94.23c-0.73,0-1.5-0.06-2.3-0.17
		c-3.8-0.53-7.22-2.35-9.7-5c-0.11-0.11-0.2-0.23-0.29-0.35c-2.37-2.69-3.81-6.14-3.81-9.93c0-0.64,0.05-1.35,0.16-2.1l25.08-179.89
		c0.61-4.44,2.78-8.51,5.92-11.43c3.13-2.92,7.22-4.73,11.72-4.73h133.33c2.8,0,5.07,2.27,5.07,5.07c0,2.8-2.27,5.07-5.07,5.07H121
		c-1.82,0-3.51,0.77-4.83,2c-1.47,1.37-2.5,3.3-2.79,5.41L88.3,310.99c-0.03,0.19-0.04,0.44-0.04,0.72c0,1.21,0.44,2.31,1.17,3.18
		l0.2,0.21c0.92,0.98,2.22,1.66,3.68,1.87c0.25,0.04,0.56,0.05,0.92,0.05H183.5L183.5,317.01z M404.74,124.71
		c-3.36,0-6.08-2.73-6.08-6.08c0-3.36,2.73-6.08,6.08-6.08h145.65c0.5,0,1.1,0.03,1.74,0.07l0.02,0v0
		c5.53,0.43,10.72,2.87,14.52,6.54c3.94,3.81,6.44,8.97,6.44,14.71c0,0.46-0.02,0.97-0.07,1.53l-0.01,0.13l-0.15,1.9
		c-4.45,56.97-8,102.33-8.01,168.42c0,6.17-2.57,11.79-6.69,15.83c-4.11,4.04-9.77,6.55-15.98,6.55h-118.3
		c-3.36,0-6.08-2.73-6.08-6.08c0-3.36,2.73-6.08,6.08-6.08h118.3c2.92,0,5.56-1.17,7.47-3.03c1.9-1.86,3.08-4.41,3.08-7.18
		c0.02-66.99,3.56-112.36,8.01-169.32l0.15-1.94l0.01-0.13c0.01-0.14,0.02-0.34,0.02-0.58c0-2.27-1.06-4.39-2.74-6.01
		c-1.81-1.75-4.3-2.92-6.96-3.13v0c-0.22-0.01-0.51-0.02-0.86-0.02H404.74L404.74,124.71z M401.88,316.06h-11.4
		c-3.36,0-6.08,2.73-6.08,6.08c0,3.36,2.73,6.08,6.08,6.08h11.4c3.36,0,6.08-2.73,6.08-6.08
		C407.97,318.79,405.24,316.06,401.88,316.06L401.88,316.06z M275.03,123.69c-2.8,0-5.07-2.27-5.07-5.07c0-2.8,2.27-5.07,5.07-5.07
		h23.77c2.8,0,5.07,2.27,5.07,5.07c0,2.8-2.27,5.07-5.07,5.07H275.03z"/>
	<path class="st2" d="M65.06,201.09c-2.59,13.22-5.12,26.45-7.49,39.67L198.9,421.95c2.98,3.82,7.44,5.82,11.94,5.83v0.05h553.49
		c8.4,0,15.21-6.81,15.21-15.21c0-8.4-6.81-15.21-15.21-15.21H218.2L65.06,201.09L65.06,201.09z M51.99,273.76l101.04,129.53
		c5.15,6.6,3.98,16.12-2.61,21.27c-6.6,5.15-16.12,3.98-21.27-2.61l-82.92-106.3C47.85,301.69,49.81,287.72,51.99,273.76z"/>
	<path class="st4" d="M1378.06,459.18c2.13-18.38,0.28-45.41-7.01-64.28l-1.84,0.37c-4.57,0.96-7.26,4.1-6.61,9.52l5.02,42.18
		C1368.18,451.66,1372.82,457.09,1378.06,459.18z"/>
	<path class="st8" d="M373.61,95.63h200.7c10.07,0,19.07,8.11,18.3,17.96c-11.99,152.92-13.05,305.84,0,458.76
		c0.84,9.84-8.23,17.96-18.3,17.96h-200.7c-10.06,0-17.26-8.13-18.3-17.96c-16.19-153.86-14.21-306.66,0-458.76
		C356.23,103.76,363.54,95.63,373.61,95.63z"/>
	<path class="st9" d="M39.8,505.65l-6.56,17.5c-0.04,24.77,3.3,49.13,6.56,72.98c0.88,6.46,3.67,16.1,12.1,16.1h59.4
		c9.1,0,12.63-7.75,12.82-15.41c0.89-35.9,11.89-68.13,29.05-91.16H39.8L39.8,505.65z M280.36,505.65
		c13.19,17.71,22.75,40.87,26.87,66.94h432.15c4.11-26.08,13.66-49.24,26.87-66.94H280.36L280.36,505.65z M893.48,505.65
		c17.19,23.05,28.19,55.32,29.05,91.26c0.3,12.34,9.92,15.31,17.37,15.31h442.02c8.47,0,14.77-8.13,16.06-16.1
		c3.81-23.46,5.66-47.64,3.75-72.49l-6.51-17.99H893.48z"/>
	<linearGradient id="SVGID_1_" gradientUnits="userSpaceOnUse" x1="339.2763" y1="627.3384" x2="6.5111" y2="282.75">
		<stop  offset="0" style="stop-color:#D4D1D2"/>
		<stop  offset="1" style="stop-color:#ECECEC"/>
	</linearGradient>
	<path class="st10" d="M153.2,505.65c16.6-22.28,38.97-35.94,63.58-35.94c24.61,0,46.98,13.66,63.58,35.94h30.43
		c-21.01-41.6-55.28-68.7-94.01-68.7c-38.73,0-73.01,27.1-94.01,68.7H153.2z"/>
	<path class="st1" d="M1256.88,281.95c-42.99-55.78-86.48-110.2-130.46-163.32H764.08c-5.88,0-9.36,3.79-5.02,11.64l77.75,140.55
		c3.95,7.15,10.82,10.77,20.16,11.14C994.69,287.34,1136.18,297.35,1256.88,281.95z"/>
	<path class="st11" d="M1245.53,277.19l4.61-0.66c-39.62-51.26-80.06-101.88-121.31-151.82H764.08c-0.18,0-0.49,0.01-0.79,0.05
		c0.23,0.88,0.82,2.07,1.1,2.56l77.75,140.55c3.2,5.78,8.7,7.75,15.08,8c21.24,0.83,42.48,1.77,63.72,2.71
		c57.78,2.55,115.62,5.15,173.46,5.46C1144.66,284.31,1195.49,282.93,1245.53,277.19z"/>
	<path class="st2" d="M1245.53,277.19l4.61-0.66l-17.13-22.06c-113.98-33.65-276.31-68.44-431.83-60.64l40.96,74.04
		c3.2,5.78,8.7,7.75,15.08,8c21.24,0.83,42.48,1.77,63.72,2.71c57.78,2.55,115.62,5.15,173.46,5.46
		C1144.66,284.31,1195.49,282.93,1245.53,277.19z"/>
	<linearGradient id="SVGID_2_" gradientUnits="userSpaceOnUse" x1="884.6671" y1="554.8094" x2="559.3309" y2="229.4733">
		<stop  offset="0" style="stop-color:#D4D1D2"/>
		<stop  offset="1" style="stop-color:#ECECEC"/>
	</linearGradient>
	<path class="st12" d="M766.28,505.65c16.6-22.28,38.97-35.94,63.58-35.94c24.61,0,47,13.66,63.61,35.94h30.41
		c-21.01-41.6-55.29-68.7-94.02-68.7c-38.73,0-73.01,27.1-94.01,68.7H766.28z"/>
	<path class="st13" d="M33.24,523.64c0.01,24.6,3.33,48.79,6.56,72.49c0.88,6.46,3.67,16.1,12.1,16.1h59.4
		c9.1,0,12.63-7.75,12.82-15.41c0.68-27.33,7.21-52.53,17.87-73.17H33.24L33.24,523.64z M1401.73,523.64H904.67
		c10.67,20.66,17.21,45.9,17.86,73.27c0.3,12.34,9.92,15.31,17.37,15.31h442.02c8.47,0,14.77-8.13,16.06-16.1
		C1401.79,572.66,1403.64,548.48,1401.73,523.64L1401.73,523.64z M755.07,523.64H291.54c7.42,14.38,12.85,30.97,15.69,48.95h432.15
		C742.22,554.61,747.65,538.01,755.07,523.64z"/>
	<path class="st14" d="M42.34,351.32c-0.99,4.33-1.99,8.67-2.98,13c-2.39,38.02-2.17,76.04,0.35,114.07h4.08
		c6.79,0,10.59-6.86,10.59-14.09c0-33.59,0-67.18,0-100.77c0-6.84-4.73-12.21-11.08-12.21C40.49,351.32,45.15,351.32,42.34,351.32z"
		/>
	<path class="st9" d="M1118.29,397.76c84.34,8.95,150.5,13.27,217.83,2.54c10.2-1.63,17.13,4.91,18,13.69l4.51,45.63
		c0.7,7.11-2.67,13.85-10.97,16.35c-61.13,18.41-125.33,13.83-210.62,0.04c-9.75-1.58-18.79-6.66-21.34-16.58l-11.88-46.24
		C1101.5,404.13,1109.15,396.79,1118.29,397.76z"/>
	<path class="st2" d="M1330.37,401.17c5.14,2.11,8.41,6.96,8.99,12.82l4.51,45.63c0.7,7.11-2.67,13.86-10.97,16.35
		c-66.52,20.03-128.41,10.94-195.87,0.04c-9.75-1.57-18.79-6.66-21.34-16.58l-11.88-46.24c-1.71-6.67,1.99-12.42,7.72-14.59
		C1185.51,406.2,1256.49,411.91,1330.37,401.17z"/>
	<path class="st1" d="M630.06,118.62h59.01c17.81,0,30.65,14.24,38.93,29.58l70.04,129.63c7.01,12.98,2.37,26-11,26H623.18
		c-9.97,0-15.43-5.65-15.83-16.19c-1.92-50.25-0.31-101.06,5.35-152.44C613.81,125.09,619.05,118.62,630.06,118.62z"/>
	<path class="st11" d="M630.05,124.71c-7.63,0-10.52,3.91-11.31,11.16c-5.54,50.29-7.25,100.99-5.32,151.54
		c0.26,6.8,2.71,10.34,9.75,10.34h163.86c10.13,0,9.27-10.32,5.65-17.02l-70.04-129.63c-6.82-12.62-17.92-26.39-33.58-26.39H630.05z
		"/>
	<path class="st2" d="M613.3,210.68c-0.91,25.56-0.85,51.17,0.12,76.73c0.26,6.8,2.71,10.34,9.75,10.34h163.86
		c10.13,0,9.27-10.32,5.65-17.02l-19.46-36.01C727.9,231.54,663.61,220.14,613.3,210.68z"/>
	<path class="st15" d="M1134.71,540.31h231.41c8.1,0,13.43,4.66,14.52,11.73l4.5,29.25c1.26,8.2-3.95,14.26-11.39,14.26H1086.5
		c-7.27,0-12.18-7.75-7.56-12.62l32.1-33.78C1116.8,543.09,1125.48,540.31,1134.71,540.31z"/>
	<path class="st2" d="M1134.71,540.31h216.65c8.1,0,13.43,4.66,14.52,11.73l4.5,29.25c1.26,8.2-3.95,14.26-11.39,14.26H1086.5
		c-7.27,0-12.18-7.75-7.56-12.62l32.1-33.78C1116.8,543.09,1125.48,540.31,1134.71,540.31z"/>
	<path class="st2" d="M613.64,351.32h31.63c3.44,0,6.25,2.81,6.25,6.25l0,0c0,3.44-2.81,6.25-6.25,6.25h-31.63
		c-3.44,0-6.25-2.81-6.25-6.25l0,0C607.39,354.13,610.2,351.32,613.64,351.32z"/>
	<path class="st16" d="M1078.46,460.03l-100.6-8.84c-6.09-0.54-13.08-5.26-15.74-10.91l-22.47-47.66
		c-4.47-9.47,1.36-14.3,8.71-13.65c27.79,2.44,100.43,12.19,121.43,16.32c4.9,0.96,8.69,4.1,9.94,9.52l9.72,42.18
		C1090.87,453.16,1085.65,460.66,1078.46,460.03z"/>
	<path class="st9" d="M1070.81,459.36l-92.95-8.17c-6.09-0.54-13.08-5.26-15.74-10.91l-22.47-47.66
		c-3.27-6.94-1.02-11.39,3.32-13.01c31.33,3.18,95.26,11.85,114.75,15.68c4.9,0.96,8.69,4.1,9.94,9.52l9.72,42.18
		C1078.48,451.79,1075.56,457.41,1070.81,459.36z"/>
	<path class="st2" d="M95.71,351.32H309.8c3.44,0,6.25,2.81,6.25,6.25l0,0c0,3.44-2.81,6.25-6.25,6.25H95.71
		c-3.44,0-6.25-2.81-6.25-6.25l0,0C89.46,354.13,92.28,351.32,95.71,351.32z"/>
	<path class="st17" d="M1047.84,414.08c-10.19-2.8-19.78-3.82-28.81-3.24c-3.03,0.19-6,1.94-5.49,4.94l2.03,11.98
		c0.51,3,2.55,5.47,5.49,6.18c9.72,2.34,19.32,3.36,28.81,3.24c3.03-0.04,6-1.93,5.49-4.95l-2.03-11.98
		C1052.82,417.24,1050.77,414.89,1047.84,414.08z"/>
	<path class="st17" d="M998.88,407.04c-10.19-2.8-19.78-3.82-28.81-3.24c-3.03,0.19-6,1.94-5.49,4.94l2.03,11.98
		c0.51,3,2.55,5.47,5.49,6.18c9.72,2.34,19.32,3.36,28.81,3.24c3.03-0.04,6-1.93,5.49-4.95l-2.03-11.98
		C1003.86,410.2,1001.81,407.84,998.88,407.04z"/>
	<g>
		<path class="st0" d="M1256.21,439.57h-32.04c-4.06,0-7.38,3.32-7.38,7.38l0,0c0,4.06,3.32,7.38,7.38,7.38h32.04
			c4.06,0,7.38-3.32,7.38-7.38l0,0C1263.6,442.89,1260.27,439.57,1256.21,439.57z"/>
		<path class="st7" d="M1263.63,439.57h-32.04c-4.06,0-7.38,3.32-7.38,7.38l0,0c0,4.06,3.32,7.38,7.38,7.38h32.04
			c4.06,0,7.38-3.32,7.38-7.38l0,0C1271.01,442.89,1267.69,439.57,1263.63,439.57z"/>
	</g>
	<g>
		<path class="st17" d="M778.28,304.62H751c-10.35,0-10.35-29.29,0-29.29h27.27C788.63,275.33,788.63,304.62,778.28,304.62z"/>
		<path class="st7" d="M744.82,310.12h-32.09c-7.87,0-14.32-6.44-14.32-14.32v-71.67c0-7.88,6.44-14.32,14.32-14.32h32.09
			c7.87,0,14.32,6.44,14.32,14.32v71.67C759.14,303.68,752.7,310.12,744.82,310.12z"/>
		<path class="st17" d="M747.73,310.12h-25.57c-6.28,0-11.41-5.13-11.41-11.41v-77.48c0-6.28,5.13-11.41,11.41-11.41h25.57
			c6.28,0,11.41,5.14,11.41,11.41v77.48C759.14,304.99,754.01,310.12,747.73,310.12z"/>
	</g>
	<path class="st15" d="M1028.21,542.28h42.09c5.37,0,8.91,6.25,4.95,10.32l-11.17,11.46c-5.48,5.62-12.07,7.72-18.76,7.72h-34.88
		c-5.47,0-9.8-5.43-5.82-10.72l8.16-10.86C1016.51,545.22,1021.77,542.28,1028.21,542.28z"/>
	<path class="st2" d="M1028.21,542.28h27.74c5.37,0,8.91,6.25,4.95,10.32l-11.17,11.46c-5.48,5.62-12.07,7.72-18.76,7.72h-20.53
		c-5.47,0-9.8-5.43-5.82-10.72l8.16-10.86C1016.51,545.22,1021.77,542.28,1028.21,542.28z"/>
	<path class="st2" d="M523.31,351.32h31.63c3.44,0,6.25,2.81,6.25,6.25l0,0c0,3.44-2.81,6.25-6.25,6.25h-31.63
		c-3.44,0-6.25-2.81-6.25-6.25l0,0C517.06,354.13,519.87,351.32,523.31,351.32z"/>
</g>
</svg>
