<?xml version="1.0" encoding="utf-8"?>
<!-- Generator: Adobe Illustrator 25.1.0, SVG Export Plug-In . SVG Version: 6.00 Build 0)  -->
<svg version="1.1" xmlns="http://www.w3.org/2000/svg" xmlns:xlink="http://www.w3.org/1999/xlink" x="0px" y="0px"
	 viewBox="0 0 2200 1195.14" style="enable-background:new 0 0 2200 1195.14;" xml:space="preserve">
<style type="text/css">
	.st0{display:none;fill:#ECE3DF;}
	.st1{display:none;}
	.st2{display:inline;fill:#E7DEDA;}
	.st3{fill:#C8C1BF;}
	.st4{display:inline;fill:#EEF8FD;}
	.st5{display:inline;fill:#E3F0F6;}
	.st6{display:inline;fill:#D9E9F2;}
	.st7{fill:#454547;}
	.st8{fill:#77787B;}
	.st9{fill:#D0D2D3;}
	.st10{fill:#E6E7E8;}
	.st11{fill:#F9A51A;}
	.st12{fill:#FFF0E1;}
	.st13{fill:#898B8D;}
	.st14{fill:#EC1C24;}
	.st15{fill:#FDE6DC;}
	.st16{fill:#F1F1F2;}
	.st17{fill:#F48120;}
	.st18{fill:#D6E7F0;}
	.st19{fill:#A7B6BE;}
	.st20{fill:#B97C0F;}
	.st21{fill:#E2ECF1;}
	.st22{fill:#FFCB4E;}
	.st23{fill:#231F20;}
</style>
<g id="bg">
	<g>
		<g>
			<path class="st0" d="M145.85,1083.67c-65.03-3.7,95.53-140.89,214.92-141.36c83.13-0.33,1384.07,1.35,1486.48,7.73
				c58.65,3.65,148.27,104.31,108.45,114.48c-141.97,36.25-487.93,11.5-828.08,2.86C712.7,1056.84,162.67,1084.63,145.85,1083.67z"
				/>
		</g>
		<g class="st1">
			<path class="st2" d="M1558.56,957.11c39.57-4.7,80.88-2.66,119.38,3c36.32,5.34,107.6-7.1,142.32-0.25
				c22.87,4.51,107.17,85.79,81.91,90.64c-29.02,5.57-316.95,5.76-352.86,7.76c-63.66,3.54-613.1,3.35-697.19,8.44
				c-280.85,16.98-484.75-21.39-505.5-24.55c-61.17-9.34-14.35-87.65,55.2-92.53c81.31-5.7,163.13-1.92,245.08-0.53
				C720.23,950.33,1558.56,957.11,1558.56,957.11z"/>
		</g>
		<g>
			<path class="st3" d="M1553.33,961.1c45.59-2.5,155.16-2.27,182.06,22.83c57.94,54.08,60.57,58.33,14.03,59.54
				c-74.57,1.95-937.54-14.97-1060.42-8.32c-41.98,2.28-225.88,4.2-267.36,0.12c-22.58-2.22,32.73-73.31,58.89-76.67
				c68.05-8.74,72.4-5.03,141.9-5.08C782.42,953.43,1463.6,966.02,1553.33,961.1z"/>
		</g>
		<g class="st1">
			<path class="st4" d="M1534.45,611.02c85.75,10.7,189.91,27.6,278.65,13.69c66.12-10.37,149.23-15.55,202.64-37.66
				c85.79-35.51,46.64-48.28-23.9-68.44c-89.18-25.48,6.32-47.87,39.2-81.75c43.37-44.69-56.95-64.89-125.43-85.42
				c-90.76-27.21-144.28-56.4-196.2-98.64c-49.64-40.39-103.83-78.97-179-111.32c-55.51-23.89-176.86-49.17-261.01-38.06
				c-33.66,4.45-56.58,16.76-96.73,20.37c-44.84,4.03-91.79,3.54-137.01,6.13c-118.66,6.8-232.5,28.44-351.48,26.72
				c-69.71-1.01-603.92-31.29-583.67,19.49c5.64,14.14,48.9,17.61,66.74,27c23.23,12.23,34.15,23.94,35.28,40.76
				c1.03,15.23-6.3,22.9-24.04,36.04c-31.18,23.1-64.07,17.6-22.79,42.76c37.39,22.78,125.14,26.77,100.59,64.04
				c-23.46,35.63-141.04,226.17-54.72,249.79c151.93,41.57,493.03,37.38,664.36,58.77C1105.7,725.21,1297.24,578.32,1534.45,611.02z
				"/>
		</g>
		<g class="st1">
			<path class="st5" d="M555.71,89.5c-70.74,0-159.05-4.95-216.99,26.83c-43.17,23.68-102.23,43.48-128.71,80.08
				c-42.54,58.8-5.42,68.83,59.71,83.27c82.34,18.26,24.51,61.9,20.59,110.23c-5.17,63.74,82.29,73.51,146.1,88.75
				c84.57,20.21,202.25,27.57,207.15,94.33c13.93,189.43,87.41,201.43,202.02,113.19c44.17-34,162.46,34.47,218.67,6.97
				c22.48-11,32.12-30.31,59.98-41.28c31.11-12.25,66.57-19.07,98.84-29.55c84.69-27.49,156.7-73.1,246.83-89.8
				c52.81-9.78,471.26-56.09,425.08-117.46c-12.86-17.09-47.37-14.64-66.46-23.75c-24.87-11.87-40.19-25.04-51.32-46.26
				c-10.07-19.22-9.27-30.13-4.01-49.66c9.23-34.34,37.22-32.57-9.06-58.01c-41.91-23.04-110.04-14.19-114.44-65.49
				c-4.2-49.05,35.65-64.29-43.4-80.63c-139.15-28.76-316.54-12.01-457.88-12.02C950.62,79.24,753.3,93.44,555.71,89.5z"/>
		</g>
		<g class="st1">
			<path class="st6" d="M1768.79,229.93c72.75-2.17,243.3-32.19,294.84,15.65c72.66,67.45-90.41,70.43-148.23,71.74
				c-1.26,53.12,17.73,98.41-68.46,124.88c-66.22,20.33-170.2,12.41-241.77,19.33c-187.77,18.15-378.5,32.36-564.73,56.47
				c-53.16,6.88-451.19,105.85-458.07,25.24c-3.18-37.21,197.36-82.97,238.23-98.57c-92.95-53.18-231.74-41.4-345.03-49.66
				c-78.83-5.75-246.09-5.69-296.56-52.02C51.94,226.34,581.6,194.25,663.75,191.59c214.82-6.97,443.68-35.13,658.48-24.89
				c105.92,5.05,130.5,48.64,219.82,66.34C1604.84,245.49,1703.41,231.87,1768.79,229.93z"/>
		</g>
	</g>
</g>
<g id="Layer_1">
	<g>
		<path class="st7" d="M1882.48,885.97c-33.86,5.2-432.17,13.67-451.76,5.9c-9.14-3.63-16.61-13.99-18.09-22.02
			c-2.02-10.92-267.41-11.49-273.18-1.62c-17.92,30.68-48.79,26.73-48.79,26.73s-660.38-9.18-671.29-14.15
			c-2.89-1.31-11.63-7.18-11.48-15.03c0.82-42.36,2.73-159.15,2.73-159.15l1404.6-5.1c0,0,123.9,121.47,109.77,151.79"/>
	</g>
	<g>
		<g>
			<path class="st8" d="M484.92,900.6c-2.88-29.23,13.14-115.9,77.76-126.05c0,0,44.59-0.91,85.24-0.91
				c33.71,0,70.58,32.5,87.39,87.81c21.13,69.54-30.96,142.31-101.86,157.98c-81.83,18.09-139.66-36.08-148.53-108.16V900.6z"/>
		</g>
		<g>
			<path class="st9" d="M530.89,892.18c-3.82-38.72,44.89-80.67,80.25-80.78c37.02-0.12,72.43,32.33,80.25,76.88
				c6.05,34.44-22.82,79.58-68.89,84.15c-72.63,7.2-78.44-34.25-90.91-69.69L530.89,892.18z"/>
		</g>
		<g>
			<path class="st10" d="M599.13,961.61c-33.87-2.59-62.55-50.83-57.29-81.24c5.51-31.85,38.77-57.37,78.26-57.34
				c30.53,0.02,64.97,31.69,61.91,71.99c-4.82,63.54-41.34,62.25-73.7,67.6L599.13,961.61z"/>
		</g>
		<g>
			<path class="st11" d="M665.84,912.92c-6.96,27.17-50.3,43.58-74.28,34.94c-25.11-9.05-41.09-39.76-35.41-71.87
				c4.4-24.82,35.09-48.29,67.42-40.02c50.98,13.03,44.69,42.54,44.4,69.63L665.84,912.92z"/>
		</g>
		<g>
			<path class="st12" d="M634.43,899.85c-2.92,11.41-21.13,18.3-31.2,14.67c-10.55-3.8-17.26-16.7-14.87-30.18
				c1.85-10.43,14.74-20.28,28.32-16.81c21.41,5.47,18.77,17.87,18.65,29.24L634.43,899.85z"/>
		</g>
		<g>
			<path class="st13" d="M724.92,856.53c-26.04-62.98-101.8-99.27-162.63-68.4c-48.39,24.56-66.22,63.46-66.93,95.09
				c-0.77,34.56,3.52,49.33,3.52,49.33c19.91,58.08,113.85,88.07,140.39,80.64l9.87-1.74C714.34,991.51,754.98,929.22,724.92,856.53
				z M656.96,975.53c0,0-10.21,5.02-35.47,8.9c-23.13,3.55-53.74-4.44-77.84-36.53c-30.29-40.33-13.59-100.16,28.93-127.21
				c49.08-31.22,99.65-9.62,122.54,35.28l2.54,6.97C706.47,881.32,696.69,953.57,656.96,975.53z"/>
		</g>
	</g>
	<g>
		<path class="st11" d="M264.8,690.17c-11.68,3.24-8.63-1.55-10.08-9.14c-0.6-3.12-2.24-23.95,0-26.11
			C268.31,641.82,264.8,685.99,264.8,690.17z"/>
	</g>
	<g>
		<path class="st14" d="M267.89,690.17c-8.41,0-10.2-1.56-13.17,3.57c-0.69,1.19-1.49,23.24,0,24.73
			c4.42,4.42,12.13-1.76,13.17-3.57C270.75,709.94,267.89,696.11,267.89,690.17z"/>
	</g>
	<g>
		<path class="st15" d="M267.89,718.48c-12.23,0-10.13-2.14-13.17,6.81c-1.01,2.96-1.56,23.41,0,24.7c5.3,4.39,11.64-0.7,13.17-3.28
			C271.09,741.33,267.89,725.06,267.89,718.48z"/>
	</g>
	<g>
		<path class="st14" d="M251.33,749.98c3.75,0,10.84-1.03,12.79,1.06c1.13,1.22,0.96,17.14,0,18.16
			c-1.66,1.77-11.85-0.05-12.79-1.06C249.54,766.21,251.33,752.72,251.33,749.98z"/>
	</g>
	<g>
		<g>
			<path class="st8" d="M1474.43,900.6c-2.88-29.23,13.14-115.9,77.76-126.05c0,0,26.22-8.31,66.86-8.31
				c33.71,0,88.95,39.9,105.77,95.22c21.13,69.54-30.96,142.31-101.86,157.98c-81.83,18.09-139.66-36.08-148.53-108.16V900.6z"/>
		</g>
		<g>
			<path class="st9" d="M1520.39,892.18c-3.82-38.72,44.89-80.67,80.25-80.78c37.02-0.12,72.43,32.33,80.25,76.88
				c6.05,34.44-22.82,79.58-68.89,84.15c-72.63,7.2-78.44-34.25-90.91-69.69L1520.39,892.18z"/>
		</g>
		<g>
			<path class="st10" d="M1588.63,961.61c-33.87-2.59-62.55-50.83-57.29-81.24c5.51-31.85,38.77-57.37,78.26-57.34
				c30.53,0.02,64.97,31.69,61.91,71.99c-4.82,63.54-41.34,62.25-73.7,67.6L1588.63,961.61z"/>
		</g>
		<g>
			<path class="st11" d="M1653.75,912.3c-6.75,26.37-48.82,42.29-72.09,33.91c-24.37-8.78-39.88-38.58-34.36-69.74
				c4.27-24.09,34.05-46.86,65.43-38.84c49.47,12.65,43.37,41.29,43.09,67.57L1653.75,912.3z"/>
		</g>
		<g>
			<path class="st12" d="M1623.94,899.85c-2.92,11.41-21.13,18.3-31.2,14.67c-10.55-3.8-17.26-16.7-14.87-30.18
				c1.85-10.43,14.74-20.28,28.32-16.81c21.41,5.47,18.77,17.87,18.65,29.24L1623.94,899.85z"/>
		</g>
		<g>
			<path class="st13" d="M1716.05,856.53c-26.04-62.98-101.8-99.27-162.63-68.4c-48.39,24.56-66.22,63.46-66.93,95.09
				c-0.77,34.56,3.52,49.33,3.52,49.33c19.91,58.08,113.85,88.07,140.39,80.64l9.87-1.74
				C1705.47,991.51,1746.11,929.22,1716.05,856.53z M1648.09,975.53c0,0-10.2,5.02-35.47,8.9c-23.13,3.55-53.74-4.44-77.84-36.53
				c-30.29-40.33-13.59-100.16,28.93-127.21c49.08-31.22,99.65-9.62,122.54,35.28l2.54,6.97
				C1697.6,881.32,1687.82,953.57,1648.09,975.53z"/>
		</g>
	</g>
	<g>
		<path class="st11" d="M1757.95,872.64c-15.21-14.57-23.45-67.78-34.81-86.57c-29.1-48.16-38.22-60.94-91.14-65.5
			c-43.14-3.72-95.8,1.65-129.49,31.59c-16.79,14.92-23.67,45.58-30.26,66.35c-5.54,17.48-12.15,34.43-12.15,34.43
			c-7.88,10.44-137.49,4.25-170.61,5.87c-65.23,3.21-382.97,3.2-448.05,0.11c-53.38-2.53-53.38-2.53-55.54-11.75
			c-21.36-44.86-39.52-77.97-104.28-77.97c-24.94,0-182.1,5.14-198.07,13.06c-17.06,8.45-34.09,29.67-34.67,52.01
			c-0.92,35.76-31.26,32.55-65.13,30.95c-27.63-1.31-78.72-0.02-104.49-12.67c-22.61-11.11-8.56-35.08-11.39-59.85
			c-5.51-48.17-7.74-94.74-3.7-133.97c2-19.38,9.57-30.52,11.1-51.85c1.97-27.43,3.38-57.44,6.19-87.69
			c0.93-10.02-6.53-20.07-5.21-30.06c0.65-4.98,9.91-9.94,10.68-14.88c13.48-85.92,35.12-164.46,42.53-180.79
			c17.82-39.27,100.98-50.74,175.5-58.46c44.41-4.6,549.47-11.85,597.12-11.85c61.49,0,452.38,3.87,507.29,6.6
			c29.6,1.48,158.81,13.3,181.57,18.23c58.74,12.73,35.26,41.75,35.26,41.75c65.8,83.53,103.05,178.59,119.06,197.31
			c0,0,10.93-3.14,18.79,10.67c21.11,37.1,32,131.72,25.95,182.48c-5.82,48.84,13.78,106.73-5.94,150.95
			c-9.39,21.05-12.54,46.16-64.6,49.32"/>
	</g>
	<g>
		<path class="st12" d="M1992.65,756.2c0,0-48.35-7.29-52.39-107.69c-4.04-100.4,38.02-122.84,38.02-122.84l11.74,84.06
			L1992.65,756.2z"/>
	</g>
	<g>
		<path class="st12" d="M1901.69,484.7c-20.9-13.05-90.79-168-86.17-186.09c-4.06,3.05-1353.6-3.01-1486.04-5.15
			c-4.98,0-11.06,32.14-19.46,60.43c-12.83,43.19-20.77,119.46-23.07,120.36c0,0-7.67,5.24-7.66,20.37
			c0.01,11.3,1.53,16.82,7.74,16.82c232.85,0,1568.42,1.41,1682.7,3.55c-8.31-27.97-26.06-26.85-24.45-27.95
			C1942.59,483.44,1901.69,484.7,1901.69,484.7z"/>
	</g>
	<g>
		<path class="st9" d="M361.36,836.84c1.75,9.6,3.35,45.92-8.98,46.33c-31.41,1.61-55.82,3.27-87.63,2.99
			c-37.96-0.34-36.8-14.48-34.62-51.46c-0.53-15.49,79.57-13.35,120.69-8.54C350.83,826.14,359.61,827.23,361.36,836.84z"/>
	</g>
	<g>
		<path class="st7" d="M346,843.11c1.61,5.16,3.09,24.69-8.27,24.91c-28.94,0.87-51.43,1.76-80.74,1.61
			c-34.98-0.18-33.91-7.78-31.89-27.67c-0.49-8.33,73.32-7.18,111.21-4.59C336.3,837.37,344.39,837.95,346,843.11z"/>
	</g>
	<g>
		<path class="st9" d="M1947.17,816.98c-21,56.53,40.31,42.73,78.06,40.52c12.28-25.1,9.08-50.35-5.34-51.95
			c-17.19-1.91-43.14,0.71-59.53,1.8C1943.96,808.44,1947.17,816.98,1947.17,816.98z"/>
	</g>
	<g>
		<path class="st7" d="M1964.33,824.87c-18.21,28.18,39.97,18.49,72.7,17.39c10.65-12.51,3.2-21.78,0-21.78
			c-14.93,0-47.06-0.95-61.27-0.41C1961.55,820.61,1964.33,824.87,1964.33,824.87z"/>
	</g>
	<g>
		<path class="st7" d="M431.24,313.57c-6.7,48.7-23.65,141.13-32.55,140.91c-16.04,0.97-51.27-1.57-51.27-1.57
			c-6.86-5.44-0.35-16.94,7.83-47.56c6.09-22.8,20.8-106.17,44.01-95.95L431.24,313.57z"/>
	</g>
	<g>
		<path class="st16" d="M1973.53,628.59c-4.16,29.34-3.8,71.55,2.2,89.15c4.38,1.31,10.97-5.2,15.32-6.56
			c13.69-26.48,11.07-71.92-8.2-83.52L1973.53,628.59z"/>
	</g>
	<g>
		<path class="st17" d="M1974.75,541.72c1.53,7.74-0.05,30.43,1.54,38.33c7.35,0,17.08-27.87,5.39-37.37L1974.75,541.72z"/>
	</g>
	<g>
		<path class="st18" d="M1828.73,292.68c-52.59-11.09,24.42,122.65,35.39,139.44c11.38,17.43,15.99,42.8,32.59,50.35
			c23.8,10.82,32.6,12.86,48.59,4.58c0,0-27.19-59.23-50.35-94.94C1871.79,356.41,1828.73,292.68,1828.73,292.68z"/>
	</g>
	<g>
		<path class="st19" d="M1468.39,332.26c-0.12,35.21-11.24,92.18,1.07,126.03c9.29,25.55,1.4,16.39,27.77,23.91
			c27.35,7.8,230.42,0.06,258.48,0.27c46.04,0.35,74.84,24.08,85.5-23.71c4.76-21.33-35.38-103.99-48.93-122.07
			c-24.66-32.9-67.41-24.58-104.92-24.53C1643.35,312.23,1498.08,295.72,1468.39,332.26z"/>
	</g>
	<g>
		<path class="st18" d="M1470.74,435.56c1.59,18.15,2.57,24,11.77,26.98c1.26,0.41,61.17,0.83,81.66,1.05
			c40.01,0.44,49.71-0.09,91.57-0.09c20.27,0,91.78-1.73,113.75,0c12.41,0.98,2.06-13.5,1.17-29.67
			c-1.83-33.45-44.33-115.15-60.35-116.22c-25.54-1.7-60.63,4.68-87.75,3.37c-27.01-1.3-89.47-1.67-145.09,3.21
			c0,0-6.21,2.74-6.43,7.44C1470.14,351.18,1468.04,404.61,1470.74,435.56z"/>
	</g>
	<g>
		<path class="st7" d="M1761.66,486.96c47.25-29.11,54.86-38.99,56.08-41.52c-7.15-1.55-24.74,10.3-32.31,15.41
			c-1.55,1.04-2.88,1.94-3.94,2.62c-8.29,5.32-26.34,20.13-28.88,21.88c-3.51,2.43-17.37,1.89-17.37,1.89
			c6.06-4.04,12.15-8.28,18.04-12.39c8.04-5.6,16.35-11.39,24.74-16.78c1.02-0.66,2.32-1.53,3.82-2.54
			c13.6-9.17,28.86-18.74,37.92-16.19c3.53,0.99,4.37,3.36,4.55,4.68c0.43,3.06,5.66,9.95-44.03,41.52
			C1776.88,487.71,1761.66,486.96,1761.66,486.96z"/>
	</g>
	<g>
		<path class="st20" d="M1518.79,583.82c-1.5,12.79-18.47,19.42-29.51,20.19c-11.04,0.78-11.04,0.78-17.38-12.09
			c-6.34-12.87,1.98-21.45,17.38-24.18C1504.68,565.02,1520.3,571.04,1518.79,583.82z"/>
	</g>
	<g>
		<path class="st20" d="M1393.9,581.9c-1.5,12.79-18.47,19.42-29.51,20.19c-11.04,0.78-11.04,0.78-17.38-12.09
			c-6.34-12.87,1.98-21.45,17.38-24.18C1379.78,563.09,1395.4,569.11,1393.9,581.9z"/>
	</g>
	<g>
		<path class="st21" d="M1525.38,584.39c-2.1,8.95-24.42,4.49-39.88,5.03c-15.46,0.54-24.28,8.61-33.15-0.4
			c-8.87-9.01,6.61-9.09,28.17-11C1502.06,576.11,1527.48,575.43,1525.38,584.39z"/>
	</g>
	<g>
		<path class="st21" d="M1400.48,582.46c-2.1,8.95-19.86,7.24-35.32,7.78s-29.73,5.11-38.6-3.9c-8.87-9.01,1.16-6.83,22.72-8.74
			C1370.83,575.69,1402.58,573.51,1400.48,582.46z"/>
	</g>
	<g>
		<path class="st7" d="M1515.72,484.93h-28.07l-6.07-64.98c0-5.31,4.3-9.61,9.61-9.61h8.9c5.31,0,7.41,23.28,7.41,28.59
			L1515.72,484.93z"/>
	</g>
	<g>
		<polygon class="st7" points="1964.52,470.03 1954.91,453.2 1961.56,480.83 1957.54,488.66 1961.56,493.97 1967.9,487.4 		"/>
	</g>
	<g>
		<path class="st22" d="M1713.57,281.15c-41.24,0-1194.32-2.45-1242.74-2.45s-54.48-28.61-54.48-28.61s-43.82-23.84,631.42-27.64
			c675.25-3.8,695.66,25.35,695.66,25.35S1754.81,281.15,1713.57,281.15z"/>
	</g>
	<g>
		<path class="st22" d="M1955.24,551.82h-354.31c0,0-309.12-8.48-557.71,0c-248.59,8.48-759.76,0-759.76,0s-9.53-40.25,6.65-40.37
			c16.17-0.12,1668.69-13.12,1680.65,1.11C1982.71,526.78,1955.24,551.82,1955.24,551.82z"/>
	</g>
</g>
<g id="Strokes">
	<g>
		<path class="st23" d="M1922.32,854.56l-1.42-0.02c-1-0.01-100.71-1.07-128.15-1.07c-27.78,0-35.85-34.92-36.43-37.63l-21.72-53.3
			c-0.04-0.13-3.91-12.9-15.2-25.48c-15.1-16.82-35.61-25.35-60.95-25.35c-25.3,0-167.19-2.08-210.07-2.72
			c-5.51-0.08-9.99-4.63-9.99-10.15V499.41c0-6.49,1.16-11.17,3.46-13.9c0.94-1.13,1.92-1.73,2.71-2.05l0.39-182.55l3.2,0.01
			l-0.4,185.39l-1.6,0c0.01,0-4.56,0.51-4.56,13.11v199.43c0,3.77,3.07,6.89,6.83,6.94c42.88,0.64,184.74,2.72,210.03,2.72
			c32.82,0,52.61,14.42,63.43,26.52c11.38,12.72,15.4,25.29,15.77,26.52l21.75,53.36l0.03,0.15c0.07,0.35,7.21,35.21,33.32,35.21
			c25.66,0,114.43,0.92,126.77,1.05c22.99-175.81-10.46-331.83-30.84-350.74c-14.33-13.3-19.89-14.29-19.94-14.3l-0.95-0.15
			l-0.36-0.92c-0.5-1.46-50.72-146.69-78.3-185.52l2.61-1.86c27.06,38.1,73.92,172.48,78.43,185.51c2.35,0.74,8.57,3.64,20.69,14.88
			c12.21,11.33,25.44,59.59,32.93,120.09c9.29,75.05,8.83,158.44-1.28,234.83L1922.32,854.56z"/>
	</g>
	<g>
		<path class="st23" d="M1943.67,487.74c-3.79-7.58-7.15-14.55-10.41-21.3c-18.22-37.75-33.95-70.35-108.35-176.41l2.62-1.84
			c74.55,106.27,90.33,138.98,108.61,176.86c3.25,6.74,6.61,13.7,10.39,21.26L1943.67,487.74z"/>
	</g>
	<g>
		<path class="st23" d="M1988.43,635.2l-0.22-5.53c-0.93-22.98-2.85-70.78-5.94-82.07c-0.65-2.37-1.27-4.93-1.93-7.65
			c-2.39-9.86-5.67-23.36-10.59-23.36v-3.2c7.44,0,10.63,13.12,13.71,25.81c0.65,2.69,1.27,5.23,1.91,7.55
			c3.19,11.64,5.05,57.92,6.05,82.78l0.22,5.53L1988.43,635.2z"/>
	</g>
	<g>
		
			<rect x="1942.27" y="753.29" transform="matrix(1.716280e-03 -1 1 1.716280e-03 1234.2573 2746.1624)" class="st23" width="100.6" height="3.2"/>
	</g>
	<g>
		<path class="st23" d="M1976.28,581.65h-1.54l-1.71-42.7h1.67c7.12,0,13.51,5.51,13.95,12.04l1.58,16.84
			c0.23,3.32-0.99,6.57-3.43,9.18C1984.08,579.91,1980.15,581.65,1976.28,581.65z M1976.37,542.29l1.44,36.04
			c2.48-0.37,4.88-1.63,6.64-3.51c1.82-1.95,2.74-4.34,2.58-6.73l-1.58-16.84C1985.16,546.89,1981.1,543.04,1976.37,542.29z"/>
	</g>
	<g>
		<path class="st23" d="M351.13,883.59h-103c-16.13,0-16.32-16.16-16.32-16.32h3.2c0,0.59,0.24,13.11,13.11,13.11h103
			c12.96,0,13.11-12.58,13.11-13.11v-29.43c0-0.53-0.22-13.11-13.59-13.11c-4.55,0-15.05,0.04-27.74,0.1
			c-27.32,0.11-64.74,0.27-74.8,0.12c-3.88-0.05-6.99,1.02-9.21,3.2c-3.84,3.78-3.88,9.63-3.88,9.69h-3.2
			c0-0.29,0.06-7.27,4.84-11.98c2.85-2.81,6.72-4.21,11.5-4.12c10.03,0.15,47.43-0.01,74.74-0.12c12.7-0.05,23.2-0.1,27.76-0.1
			c16.61,0,16.8,16.15,16.8,16.32v29.43C367.45,867.43,367.26,883.59,351.13,883.59z M235.02,867.27h-1.6H235.02
			C235.02,867.26,235.02,867.27,235.02,867.27L235.02,867.27z"/>
	</g>
	<g>
		<path class="st23" d="M1919.49,488.63c-31.14,0-46.15-34.54-55.11-55.18l-1.22-2.82c-4.76-13.48-11.39-26.8-17.8-39.69
			c-3.97-7.98-8.08-16.24-11.59-24.26c-0.64-1.39-1.46-3.11-2.4-5.06c-8.37-17.45-23.95-49.94-15.97-65.58
			c2.24-4.39,6.17-7.13,11.67-8.12c1.34-0.24,2.26-1.54,2.07-2.89c-3.41-23.81-37.29-31.55-80.17-41.35l-0.34-0.08
			c-128.83-29.44-1036.32-15.62-1045.47-15.48c-1.71,0.01-3.68,0-5.97-0.01c-29.86-0.07-109.19-0.27-187.63,8.02
			c-98.45,10.39-158.59,30-178.76,58.27c-13.25,18.57-36.71,136.94-42.16,179.5l-3.18-0.41c4.86-37.93,28.26-160.67,42.73-180.96
			c31.58-44.27,156.82-67.64,362.33-67.64c2.22,0,4.44,0,6.68,0.01c2.3,0.01,4.28,0.01,5.94,0.01c9.13-0.14,917-13.97,1046.21,15.56
			l0.34,0.08c44.08,10.07,78.9,18.03,82.63,44.02c0.43,3.04-1.66,5.95-4.67,6.5c-4.52,0.82-7.59,2.92-9.38,6.43
			c-7.26,14.22,8.45,46.99,16,62.73c0.94,1.97,1.77,3.7,2.43,5.13c3.49,7.98,7.4,15.83,11.54,24.15
			c6.44,12.95,13.11,26.35,17.93,39.99l1.16,2.66c9.22,21.21,23.14,53.25,52.18,53.25V488.63z"/>
	</g>
	<g>
		<path class="st23" d="M266.59,823.3c-6.07-56.62-7.41-139.47-2.76-170.49c0.97-6.47,6.23-10.61,8.22-11.96
			c1.18-19.08,10.75-122.1,12.07-129.67l3.16,0.55c-1.33,7.65-11.15,113.45-12.07,130.12l-0.05,0.86l-0.75,0.43
			c-0.06,0.04-6.46,3.84-7.4,10.14c-4.62,30.81-3.26,113.27,2.78,169.68L266.59,823.3z"/>
	</g>
	<g>
		<path class="st23" d="M1488.48,602.7c-14.09,0-16.93-11.96-16.96-12.08l3.13-0.7c0.09,0.39,2.36,9.58,13.83,9.58
			c15.26,0,23.33-5.64,25.79-10.91l2.9,1.36C1513.44,597.93,1502.71,602.7,1488.48,602.7z"/>
	</g>
	<g>
		<path class="st23" d="M1513.27,578.33c-4.03-5.83-13.06-9.18-24.8-9.18c-11.48,0-13.75,8.2-13.84,8.55l-3.11-0.78
			c0.03-0.11,2.89-10.97,16.95-10.97c12.8,0,22.8,3.85,27.43,10.57L1513.27,578.33z"/>
	</g>
	<g>
		<path class="st23" d="M1455.81,591.84c-0.02,0-0.04,0-0.04,0c-5.26-0.3-7.54-4.45-7.43-8.18c0.11-3.95,2.93-7.96,8.09-7.96
			c14.49,0.25,61.69,1.08,62.03,1.1c5.24,0.3,7.53,3.89,7.43,7.1c-0.1,3.43-2.91,6.9-8.09,6.9
			C1490.16,591.28,1457.19,591.84,1455.81,591.84z M1456.39,578.9c-3.25,0-4.79,2.43-4.85,4.85c-0.07,2.29,1.26,4.69,4.37,4.89
			c1.52-0.01,41.02-0.68,61.86-1.04c3.31,0,4.86-1.96,4.91-3.79c0.05-1.64-1.08-3.62-4.42-3.81
			C1517.37,579.97,1457.01,578.92,1456.39,578.9z"/>
	</g>
	<g>
		<path class="st23" d="M1364.67,602.7c-14.08,0-16.93-11.96-16.96-12.08l3.13-0.7c0.09,0.38,2.36,9.58,13.83,9.58
			c12.62,0,22.18-3.92,25.59-10.49l2.85,1.47C1389.14,598.13,1378.51,602.7,1364.67,602.7z"/>
	</g>
	<g>
		<path class="st23" d="M1389.89,578.99c-3.71-6.16-13.13-9.84-25.22-9.84c-11.48,0-13.75,8.2-13.84,8.55l-3.11-0.78
			c0.03-0.11,2.89-10.97,16.95-10.97c13.42,0,23.61,4.15,27.97,11.39L1389.89,578.99z"/>
	</g>
	<g>
		<path class="st23" d="M1332,591.84c-0.02,0-0.04,0-0.04,0c-5.26-0.3-7.54-4.45-7.43-8.18c0.11-3.95,2.93-7.96,8.09-7.96
			c14.49,0.25,61.69,1.08,62.03,1.1c5.24,0.3,7.53,3.89,7.44,7.1c-0.1,3.43-2.91,6.9-8.09,6.9
			C1366.35,591.28,1333.38,591.84,1332,591.84z M1332.59,578.9c-3.25,0-4.79,2.43-4.85,4.85c-0.07,2.29,1.26,4.69,4.37,4.89
			c1.52-0.01,41.02-0.68,61.86-1.04c3.31,0,4.86-1.96,4.91-3.79c0.05-1.64-1.08-3.62-4.42-3.81
			C1393.57,579.97,1333.2,578.92,1332.59,578.9z"/>
	</g>
	<g>
		<path class="st23" d="M1818.52,486.3h-334.39c-16.13,0-16.32-16.15-16.32-16.32V327.86c0-0.16,0.19-16.32,16.32-16.32h267.32
			c0.96-0.04,25.06-0.73,41.9,23.66c5.05,7.31,43.41,99.36,45.04,103.28c0.41,1.07,9.62,25.35,0.25,39
			C1834.62,483.33,1827.85,486.3,1818.52,486.3z M1751.8,314.74c-0.18,0-0.27,0-0.29,0l-267.39,0c-12.9,0-13.11,12.58-13.11,13.12
			v142.12c0,0.53,0.21,13.11,13.11,13.11h334.39c8.21,0,14.09-2.5,17.48-7.43c8.41-12.26-0.49-35.77-0.58-36
			c-13.75-33.02-40.81-97.02-44.7-102.65C1775.82,315.46,1754.53,314.74,1751.8,314.74z"/>
	</g>
	<g>
		<path class="st23" d="M1704.84,280.3H454.13c-26.96,0-38.08-15.88-42.66-29.19l3.03-1.04c4.24,12.33,14.57,27.03,39.63,27.03
			h1250.71c41.96,0,42.54-32.97,42.54-34.37l3.2,0C1750.58,243.1,1750.06,280.3,1704.84,280.3z"/>
	</g>
	<g>
		<path class="st23" d="M1980.58,719.34h-6.11l-0.29-1.23c-0.04-0.18-4.35-18.46-4.35-46.1c0-27.65,4.12-44.07,4.3-44.75l0.31-1.21
			h5.99c4.79,0,9.18,2.82,11.18,7.18c3.27,7.13,6.76,21.06,6.76,38.77c0,17.86-3.08,29.68-6.1,38.88
			C1990.6,715.95,1985.91,719.34,1980.58,719.34z M1977.02,716.14h3.56c3.94,0,7.4-2.51,8.62-6.24c2.94-8.97,5.94-20.48,5.94-37.89
			c0-17.21-3.48-30.93-6.46-37.44c-1.48-3.23-4.72-5.31-8.26-5.31h-3.47c-0.94,4.28-3.92,19.7-3.92,42.75
			C1973.03,695.2,1976.09,711.65,1977.02,716.14z"/>
	</g>
	<g>
		
			<rect x="1938.68" y="671.54" transform="matrix(8.768308e-03 -1 1 8.768308e-03 1292.733 2650.4104)" class="st23" width="89.12" height="3.2"/>
	</g>
	<g>
		<path class="st23" d="M1932.35,882.42l-0.22-0.01l-164.16-4.26c-15.67,0-23.05-22.91-23.36-23.89l-20.84-61.95
			c-0.07-0.22-5.24-17.08-19.2-33.69c-18.66-22.2-43.32-33.45-73.29-33.45h-58.85c-37.39,0-58.44,15.77-69.51,29
			c-11.99,14.32-15.19,28.74-15.22,28.89l-0.07,0.24l-21.38,55.24c-0.98,5.11-4.53,20.96-11.04,20.96
			c-6.09,0-115.38,0.18-241.92,0.4c-176.9,0.3-397.05,0.67-414.29,0.67c-15.24,0-30.6-34.71-31.9-37.72l-19.96-28.22
			c-0.13-0.17-14.62-19.38-42.83-19.38H527.7c-30.5,0-53.41,9.36-66.26,27.07c-9.71,13.39-10.37,26.99-10.38,27.13
			c-0.71,7.62-3.61,32.19-11.65,32.19h-73.57v-3.2h73.57c3.43,0,7.14-15.1,8.45-29.2c0.02-0.5,0.66-14.49,10.88-28.66
			c9.38-13.02,28.97-28.53,68.95-28.53h176.57c29.89,0,44.81,19.87,45.43,20.71l20.24,28.68c4.28,10,17.83,35.94,29.02,35.94
			c17.23,0,237.39-0.37,414.28-0.67c126.54-0.21,235.83-0.4,241.92-0.4c2.65,0,6.23-9.56,7.92-18.49l0.08-0.28l21.39-55.27
			c0.36-1.6,3.85-15.78,15.87-30.14c11.51-13.75,33.35-30.15,71.97-30.15h58.85c38.62,0,62.55,18.86,75.82,34.69
			c14.35,17.11,19.51,33.98,19.72,34.69l20.83,61.93c0.08,0.25,7,21.68,20.36,21.68l163.97,4.25c2.59-0.7,27.97-7.85,36.57-20.04
			l2.62,1.85c-9.7,13.75-37.42,21.05-38.6,21.35L1932.35,882.42z"/>
	</g>
	<g>
		<path class="st23" d="M2017.87,859.74h-58.86c-16.13,0-16.32-16.15-16.32-16.32v-23.26c0-0.16,0.19-16.26,16.25-16.91
			c9.28-0.37,24.49-0.04,37.91,0.25c8,0.17,15.55,0.34,21.02,0.34c16.12,0,16.31,15.09,16.31,15.25h-3.2h1.6l-1.6,0
			c0-0.49-0.22-12.05-13.11-12.05c-5.5,0-13.07-0.16-21.08-0.34c-13.37-0.29-28.53-0.62-37.71-0.25
			c-13.03,0.52-13.18,13.17-13.18,13.7v23.26c0,0.53,0.21,13.11,13.11,13.11h58.86c12.96,0,13.11-12.58,13.11-13.11h3.2
			C2034.18,843.58,2033.99,859.74,2017.87,859.74z"/>
	</g>
	<g>
		
			<rect x="1070.9" y="-446.98" transform="matrix(3.463353e-03 -1 1 3.463353e-03 772.7497 1367.5062)" class="st23" width="3.2" height="1486.05"/>
	</g>
	<g>
		<path class="st23" d="M1992.27,757.79c-23.01-2.88-53.61-19.9-53.61-134.02c0-45.36,13.36-79.72,38.64-99.37l1.97,2.53
			c-24.47,19.02-37.4,52.5-37.4,96.84c0,111.58,28.99,128.11,50.8,130.84L1992.27,757.79z"/>
	</g>
	<g>
		<path class="st23" d="M453.63,879.97c-7.3,0-14.22-0.31-18.9-1.34c-8.27-1.82-11.21-16.25-11.33-16.86l3.14-0.62
			c0.72,3.61,3.71,13.22,8.88,14.36c8.44,1.86,25.04,1.25,37.16,0.81c4.41-0.16,8.22-0.3,10.97-0.3v3.2c-2.7,0-6.48,0.14-10.86,0.3
			C466.91,879.73,460.12,879.97,453.63,879.97z"/>
	</g>
	<g>
		<path class="st23" d="M1085.66,895.37c-5.63,0-10.93-0.32-15.56-0.61c-3.84-0.23-7.16-0.44-9.98-0.44
			c-35.93,0-319.18-2.38-322.04-2.4l0.03-3.2c2.86,0.02,286.1,2.4,322.01,2.4c2.92,0,6.28,0.21,10.18,0.44
			c22.16,1.35,55.64,3.4,70.89-28.64l2.89,1.38C1131.37,891.02,1106.31,895.37,1085.66,895.37z"/>
	</g>
	<g>
		<path class="st23" d="M1475.2,893.79c-5.09-0.44-10.29-0.61-15.33-0.77c-24.97-0.8-48.55-1.56-55-34.43l3.14-0.62
			c5.95,30.36,27.27,31.05,51.96,31.84c5.08,0.16,10.33,0.33,15.5,0.78L1475.2,893.79z"/>
	</g>
	<g>
		<path class="st23" d="M1809.61,892.79c-17.71,0-37.25-0.57-56.23-1.23c-11.32-0.39-20.25-0.7-24.4-0.59l-0.09-3.2
			c4.24-0.11,13.22,0.2,24.59,0.59c37.51,1.3,107.32,3.73,117.27-5.88c0.57-0.55,0.85-1.09,0.85-1.66h3.2
			c0,1.46-0.62,2.79-1.83,3.96C1866.54,891.01,1840.96,892.79,1809.61,892.79z"/>
	</g>
	<g>
		<path class="st23" d="M924.54,834.8h-3.2c0-84.68,3.21-534.75,3.24-539.28l3.2,0.02C927.75,300.07,924.54,750.13,924.54,834.8z"/>
	</g>
	<g>
		<path class="st23" d="M1424.07,837.17l-1.59,0c-4.4,0-440.74-0.26-499.55-0.78l0.03-3.2c56.99,0.5,468.79,0.76,497.93,0.77
			l4.26-535.37l3.2,0.03L1424.07,837.17z"/>
	</g>
	<g>
		<path class="st23" d="M334.82,869.79H234.07c-6.18,0-11.22-5.03-11.22-11.22v-8.9c0-6.18,5.03-11.22,11.22-11.22h100.75
			c6.18,0,11.22,5.03,11.22,11.22v8.9C346.04,864.76,341.01,869.79,334.82,869.79z M234.07,841.66c-4.42,0-8.01,3.59-8.01,8.01v8.9
			c0,4.42,3.59,8.01,8.01,8.01h100.75c4.42,0,8.01-3.59,8.01-8.01v-8.9c0-4.42-3.59-8.01-8.01-8.01H234.07z"/>
	</g>
	<g>
		<path class="st23" d="M264.13,770.81h-1.47c-5.26,0-9.55-4.28-9.55-9.55v-98.4c0-5.29,6.39-9.55,11.68-9.55v3.2
			c-3.7,0-8.48,3.07-8.48,6.34v98.4c0,3.5,2.84,6.34,6.34,6.34h1.47V770.81z"/>
	</g>
	<g>
		<path class="st23" d="M463.35,614.87h-46.64c-5.01,0-9.08-4.07-9.08-9.08v-55.54c0-5.01,4.07-9.08,9.08-9.08h46.64
			c5.01,0,9.08,4.07,9.08,9.08v55.54C472.43,610.8,468.35,614.87,463.35,614.87z M416.71,544.38c-3.24,0-5.87,2.64-5.87,5.87v55.54
			c0,3.24,2.64,5.87,5.87,5.87h46.64c3.24,0,5.87-2.64,5.87-5.87v-55.54c0-3.24-2.64-5.87-5.87-5.87H416.71z"/>
	</g>
	<g>
		<path class="st23" d="M397.84,456.09h-47.35c-2.97,0-4.57-1.32-5.38-2.44c-2.55-3.5-0.87-9.34-0.59-10.24l24.22-99.26
			c0.26-1.31,6.99-33.59,24.47-33.59h34.89c1.93,0,2.9,0.83,3.37,1.52c1.03,1.52,0.48,3.52,0.06,4.57
			c-0.09,0.22-0.15,0.43-0.19,0.64l-27.33,132.5C403.82,452.04,402.33,456.09,397.84,456.09z M393.21,313.76
			c-14.88,0-21.28,30.77-21.35,31.08l-24.27,99.49c-0.42,1.32-1.29,5.51,0.11,7.43c0.55,0.75,1.46,1.12,2.79,1.12h47.35
			c2.65,0,2.95-3.07,2.98-3.42l0.03-0.21l27.35-132.6c0.08-0.39,0.2-0.78,0.35-1.18c0.34-0.86,0.34-1.46,0.26-1.59l0,0
			c-0.01,0-0.18-0.11-0.72-0.11H393.21z"/>
	</g>
	<g>
		<rect x="376.48" y="323.64" class="st23" width="52.34" height="3.2"/>
	</g>
	<g>
		<rect x="370.07" y="340.73" class="st23" width="54.47" height="3.2"/>
	</g>
	<g>
		<rect x="365.8" y="355.69" class="st23" width="56.61" height="3.2"/>
	</g>
	<g>
		<rect x="362.59" y="371.71" class="st23" width="56.61" height="3.2"/>
	</g>
	<g>
		<rect x="359.39" y="387.73" class="st23" width="55.54" height="3.2"/>
	</g>
	<g>
		<rect x="356.18" y="403.75" class="st23" width="56.61" height="3.2"/>
	</g>
	<g>
		<rect x="350.84" y="419.77" class="st23" width="57.68" height="3.2"/>
	</g>
	<g>
		<rect x="346.57" y="436.86" class="st23" width="58.74" height="3.2"/>
	</g>
	<g>
		<path class="st23" d="M1971.88,516.6l-2.14,0c-16.77-0.04-1677.36-3.54-1684.04-3.54c-1.41,0-2.72-0.58-3.79-1.67
			c-4.36-4.45-4.25-17.13-4.22-18.56c-0.01-0.48-0.2-13.16,4.64-18.09c1.35-1.38,2.97-2.08,4.79-2.08
			c14.62,0.12,1462.53,11.51,1652.44,12.45c15.15,0.08,24.84,5.91,28.04,16.86L1971.88,516.6z M287.1,475.86
			c-0.94,0-1.76,0.37-2.49,1.12c-3.24,3.3-3.79,12.56-3.72,15.85c-0.07,3.58,0.4,13.36,3.31,16.32c0.62,0.63,1.15,0.7,1.5,0.7
			c6.58,0,1613.19,3.4,1681.91,3.54l-3.07-10.52c-2.8-9.59-11.21-14.49-24.98-14.56C1749.62,487.37,301.7,475.97,287.1,475.86z"/>
	</g>
	<g>
		<path class="st23" d="M611.13,916.42c-13.37,0-24.25-10.88-24.25-24.25c0-13.37,10.88-24.25,24.25-24.25
			c13.37,0,24.25,10.88,24.25,24.25C635.38,905.55,624.5,916.42,611.13,916.42z M611.13,871.14c-11.6,0-21.04,9.44-21.04,21.04
			c0,11.6,9.44,21.04,21.04,21.04c11.6,0,21.04-9.44,21.04-21.04C632.18,880.58,622.74,871.14,611.13,871.14z"/>
	</g>
	<g>
		<path class="st23" d="M1601.84,916.42c-13.37,0-24.25-10.88-24.25-24.25c0-13.37,10.88-24.25,24.25-24.25
			c13.37,0,24.25,10.88,24.25,24.25C1626.08,905.55,1615.2,916.42,1601.84,916.42z M1601.84,871.14c-11.6,0-21.04,9.44-21.04,21.04
			c0,11.6,9.44,21.04,21.04,21.04c11.6,0,21.04-9.44,21.04-21.04C1622.88,880.58,1613.44,871.14,1601.84,871.14z"/>
	</g>
	<g>
		<path class="st23" d="M611.13,950.39c-32.1,0-58.21-26.11-58.21-58.21c0-32.1,26.11-58.21,58.21-58.21
			c32.1,0,58.21,26.11,58.21,58.21C669.34,924.28,643.23,950.39,611.13,950.39z M611.13,837.17c-30.33,0-55.01,24.68-55.01,55.01
			c0,30.33,24.68,55.01,55.01,55.01c30.33,0,55.01-24.68,55.01-55.01C666.14,861.85,641.46,837.17,611.13,837.17z"/>
	</g>
	<g>
		<path class="st23" d="M611.13,964.27c-39.75,0-72.1-32.34-72.1-72.1c0-39.75,32.34-72.1,72.1-72.1c39.75,0,72.1,32.34,72.1,72.1
			C683.23,931.93,650.89,964.27,611.13,964.27z M611.13,823.29c-37.99,0-68.89,30.9-68.89,68.89c0,37.99,30.9,68.89,68.89,68.89
			c37.99,0,68.89-30.9,68.89-68.89C680.03,854.19,649.12,823.29,611.13,823.29z"/>
	</g>
	<g>
		<path class="st23" d="M611.13,1020.88c-70.97,0-128.7-57.74-128.7-128.7c0-26.47,7.97-51.89,23.06-73.52
			c14.74-21.14,35.18-37.22,59.11-46.51l1.16,2.99c-47.92,18.59-80.12,65.63-80.12,117.05c0,69.2,56.3,125.5,125.5,125.5
			c69.2,0,125.5-56.3,125.5-125.5c0-51.42-32.2-98.46-80.13-117.05l1.16-2.99c23.93,9.28,44.38,25.37,59.12,46.51
			c15.08,21.63,23.06,47.06,23.06,73.53C739.84,963.15,682.1,1020.88,611.13,1020.88z"/>
	</g>
	<g>
		<path class="st23" d="M611.13,974.03c-45.13,0-81.85-36.72-81.85-81.85s36.72-81.85,81.85-81.85c45.13,0,81.85,36.72,81.85,81.85
			S656.27,974.03,611.13,974.03z M611.13,813.53c-43.36,0-78.64,35.28-78.64,78.64c0,43.36,35.28,78.64,78.64,78.64
			c43.36,0,78.64-35.28,78.64-78.64C689.78,848.81,654.5,813.53,611.13,813.53z"/>
	</g>
	<g>
		<path class="st23" d="M1601.84,950.39c-32.1,0-58.21-26.11-58.21-58.21c0-32.1,26.11-58.21,58.21-58.21
			c32.1,0,58.21,26.11,58.21,58.21C1660.05,924.28,1633.93,950.39,1601.84,950.39z M1601.84,837.17
			c-30.33,0-55.01,24.68-55.01,55.01c0,30.33,24.68,55.01,55.01,55.01c30.33,0,55.01-24.68,55.01-55.01
			C1656.84,861.85,1632.17,837.17,1601.84,837.17z"/>
	</g>
	<g>
		<path class="st23" d="M1601.84,964.27c-39.75,0-72.09-32.34-72.09-72.1c0-39.75,32.34-72.1,72.09-72.1
			c39.75,0,72.1,32.34,72.1,72.1C1673.93,931.93,1641.59,964.27,1601.84,964.27z M1601.84,823.29c-37.99,0-68.89,30.9-68.89,68.89
			c0,37.99,30.9,68.89,68.89,68.89c37.99,0,68.89-30.9,68.89-68.89C1670.73,854.19,1639.82,823.29,1601.84,823.29z"/>
	</g>
	<g>
		<path class="st23" d="M1601.84,1020.88c-70.97,0-128.7-57.74-128.7-128.7c0-70.97,57.74-128.7,128.7-128.7
			c70.97,0,128.7,57.74,128.7,128.7C1730.54,963.15,1672.8,1020.88,1601.84,1020.88z M1601.84,766.68
			c-69.2,0-125.5,56.3-125.5,125.5s56.3,125.5,125.5,125.5c69.2,0,125.5-56.3,125.5-125.5S1671.04,766.68,1601.84,766.68z"/>
	</g>
	<g>
		<path class="st23" d="M1601.84,974.03c-45.13,0-81.85-36.72-81.85-81.85s36.72-81.85,81.85-81.85c45.13,0,81.85,36.72,81.85,81.85
			S1646.97,974.03,1601.84,974.03z M1601.84,813.53c-43.36,0-78.64,35.28-78.64,78.64c0,43.36,35.28,78.64,78.64,78.64
			c43.36,0,78.64-35.28,78.64-78.64C1680.48,848.81,1645.2,813.53,1601.84,813.53z"/>
	</g>
	<g>
		<path class="st23" d="M2037.03,843.86h-70.97c-2.65,0-4.81-2.16-4.81-4.81v-15.38c0-2.65,2.16-4.81,4.81-4.81h70.97
			c2.65,0,4.81,2.16,4.81,4.81v15.38C2041.83,841.71,2039.68,843.86,2037.03,843.86z M1966.06,822.08c-0.88,0-1.6,0.72-1.6,1.6
			v15.38c0,0.88,0.72,1.6,1.6,1.6h70.97c0.88,0,1.6-0.72,1.6-1.6v-15.38c0-0.88-0.72-1.6-1.6-1.6H1966.06z"/>
	</g>
	<g>
		<path class="st23" d="M1934.24,463.79c-6.15-13.17-42.95-19.59-43.32-19.65l0.54-3.16c1.58,0.27,38.84,6.78,45.69,21.45
			L1934.24,463.79z"/>
	</g>
	<g>
		<path class="st23" d="M1964.13,495.5l-2.64-1.82l4.84-7.02c-0.3-3.62-2.6-24.8-15.54-35.94c-6.26-5.39-14.17-7.67-23.49-6.78
			l-0.31-3.19c10.23-0.98,18.94,1.57,25.89,7.55c15.15,13.05,16.62,37.67,16.68,38.71l0.03,0.55L1964.13,495.5z"/>
	</g>
	<g>
		<path class="st23" d="M1957.72,491.22l-2.64-1.82l4.87-7.06c-0.11-3.18-1.2-21.18-12.35-31.31c-6.07-5.51-14.18-7.83-24.12-6.88
			l-0.31-3.19c10.89-1.04,19.82,1.56,26.59,7.71c13.25,12.05,13.4,33.26,13.4,34.15v0.5L1957.72,491.22z"/>
	</g>
	<g>
		
			<rect x="1896.01" y="441.81" transform="matrix(1 -8.112817e-03 8.112817e-03 1 -3.5345 15.5089)" class="st23" width="27.68" height="3.2"/>
	</g>
	<g>
		
			<rect x="1928.09" y="441.63" transform="matrix(0.8554 -0.518 0.518 0.8554 44.2774 1065.02)" class="st23" width="3.2" height="23.15"/>
	</g>
	<g>
		<rect x="1741.82" y="312.16" class="st23" width="3.2" height="173.51"/>
	</g>
	<g>
		<path class="st23" d="M1730.16,466.41l-216.86-1.72l0.03-3.2l216.77,1.72l33.07-1.58c6.12-0.29,10.91-5.51,10.68-11.64
			c-0.08-2.12-0.25-4.26-0.5-6.35c-0.71-6.04-2.11-12.01-4.17-17.75c-1.97-4.46-4.3-10.04-7-16.5
			c-12.46-29.83-31.29-74.91-45.7-83.77c-6.07-3.73-82.72-5.25-227.81-4.51c-18.66,0.1-18.66,0.09-19.1-0.13l1.44-2.86l-0.72,1.43
			l0.15-1.59c0.63,0.04,8.01,0,18.21-0.05c94.26-0.48,220.6-0.49,229.5,4.98c15.29,9.4,34.36,55.05,46.97,85.26
			c2.7,6.47,5.03,12.05,7,16.49l0.04,0.11c2.15,5.98,3.61,12.21,4.35,18.51c0.26,2.18,0.43,4.4,0.52,6.61
			c0.3,7.88-5.86,14.59-13.73,14.96L1730.16,466.41z"/>
	</g>
	<g>
		
			<rect x="1475.72" y="455.24" transform="matrix(7.944132e-03 -1 1 7.944132e-03 1002.7997 1936.4011)" class="st23" width="3.2" height="15.12"/>
	</g>
	<g>
		<rect x="1697.81" y="322.84" class="st23" width="3.2" height="141.72"/>
	</g>
	<g>
		<rect x="1746.1" y="312.16" class="st23" width="3.2" height="173.51"/>
	</g>
	<g>
		<path class="st23" d="M1750.03,486.23l-1.21-1.76l1.53-1.06c5.74-3.98,23.21-16.11,30.58-20.84c1.05-0.67,2.38-1.57,3.91-2.61
			c0.23-0.16,23.24-15.59,32.76-15.59c0.06,0,0.11,0,0.16,0c1.51,0.03,2.4,0.53,2.67,1.49c0.69,2.51-2.95,7.65-54.55,39.75
			l-1.13-1.81c34.51-21.47,52.52-33.99,53.56-37.23c-0.12-0.03-0.31-0.05-0.59-0.06c-6.48-0.1-22.86,9.27-31.69,15.23
			c-1.55,1.05-2.9,1.95-3.96,2.63c-7.34,4.71-24.78,16.82-30.51,20.8L1750.03,486.23z"/>
	</g>
	<g>
		<path class="st23" d="M1784.07,486.44l-1.14-1.8c44.43-28.23,41.69-36.28,40.65-39.32c-0.13-0.39-0.26-0.77-0.31-1.15
			c-0.18-1.3-0.98-3.01-3.79-3.8c-8.62-2.42-23.63,7.02-37.03,16.05l-0.19,0.13c-1.42,0.96-2.66,1.79-3.64,2.42
			c-8.38,5.38-16.68,11.16-24.71,16.76c-4.96,3.46-10.09,7.03-15.26,10.52l-1.19-1.77c5.16-3.48,10.28-7.05,15.24-10.51
			c8.04-5.6,16.36-11.4,24.78-16.8c0.97-0.62,2.19-1.45,3.6-2.4l0.19-0.13c13.8-9.3,29.31-19,38.8-16.34
			c4.27,1.2,5.15,4.29,5.32,5.56c0.02,0.18,0.12,0.45,0.22,0.75C1827.01,448.75,1829.93,457.31,1784.07,486.44z"/>
	</g>
	<g>
		<rect x="1702.08" y="322.84" class="st23" width="3.2" height="141.72"/>
	</g>
	<g>
		<path class="st23" d="M1486.03,484.87l-7.19-69.19c0-6.18,5.03-11.22,11.22-11.22h8.9c7.75,0,8.93,27.65,9.01,30.03l8.2,48.97
			l-3.16,0.53l-8.24-49.34c0-2.37-0.5-9.49-1.69-16c-1.65-8.97-3.57-10.99-4.12-10.99h-8.9c-4.39,0-7.97,3.55-8.01,7.93l7.17,68.94
			L1486.03,484.87z"/>
	</g>
</g>
</svg>
