<?xml version="1.0" encoding="utf-8"?>
<!-- Generator: Adobe Illustrator 25.1.0, SVG Export Plug-In . SVG Version: 6.00 Build 0)  -->
<svg version="1.1" id="Layer_1" xmlns="http://www.w3.org/2000/svg" xmlns:xlink="http://www.w3.org/1999/xlink" x="0px" y="0px"
	 viewBox="0 0 469.08 360" style="enable-background:new 0 0 469.08 360;" xml:space="preserve">
<style type="text/css">
	.st0{fill:#181C1C;}
	.st1{fill:url(#SVGID_1_);}
	.st2{fill:#D1604A;}
	.st3{fill:#84E3EF;}
	.st4{fill:#680D0D;}
	.st5{fill:#960E0E;}
	.st6{fill:url(#SVGID_2_);}
	.st7{fill:url(#SVGID_3_);}
	.st8{fill:url(#SVGID_4_);}
	.st9{fill:url(#SVGID_5_);}
	.st10{fill:#893F36;}
	.st11{fill:#C6594A;}
	.st12{fill:#603630;}
	.st13{fill:#0C0F0F;}
	.st14{fill:#3F3F3F;}
	.st15{fill:#E4F2F4;}
</style>
<g>
	<path class="st0" d="M54.84,97.33h166.72c2.06,0,4.04,0.83,5.48,2.3l9.95,10.11l-12.94-0.29l-3.7-7.11
		c-1.21-1.27-2.89-1.99-4.64-1.99H60.06c-2.38,0-4.57,4.53-5.67,6.64l0,0l-10.24,1.94l3.87-7.45
		C49.34,98.93,51.97,97.33,54.84,97.33z"/>
	
		<linearGradient id="SVGID_1_" gradientUnits="userSpaceOnUse" x1="917.0612" y1="390.1873" x2="917.0612" y2="250.5415" gradientTransform="matrix(-1 0 0 1 1154.6804 -146.8376)">
		<stop  offset="0.1099" style="stop-color:#D1604A"/>
		<stop  offset="0.3706" style="stop-color:#D5705C"/>
		<stop  offset="0.5762" style="stop-color:#D1604A"/>
	</linearGradient>
	<path class="st1" d="M10.31,229.61c0.11,3.68,2.92,6.7,6.58,7.06l59.06,6.04l6.34,0.64h248.89l69.11-0.71l54.5-0.56
		c2.89-0.02,5.38-2.02,6.02-4.83c2.47-10.85,4.88-33.54,4.51-38.34c-0.53-6.95-9.1-25.35-12.32-29.95
		c-4.96-7.1-12.67-11.75-21.26-12.91c-30.46-4.06-98.57-9.62-98.57-9.62c-18.43-17.93-23.38-21.8-37.56-32.39
		c-2.41-1.8-5.01-3.31-7.74-4.5c-4.88-2.17-10.18-3.32-15.56-3.37L48.3,103.71c-4.48-0.05-8.94,0.4-13.33,1.32l-0.77,0.16
		c-1.17,0.26-1.96,1.28-1.96,2.41c0,0.29,0.05,0.58,0.16,0.87c0.35,0.96,1.27,1.61,2.3,1.61h3.64l-20.41,43.48
		c0,0-6.25,34.01-7.42,38.41C9.46,195.94,9.97,218.37,10.31,229.61z"/>
	<path class="st2" d="M428.09,240.42c0.02,0.67,0.03,1.32,0.06,1.93l26.64-0.27c2.89-0.02,5.38-2.02,6.02-4.83
		c2.3-10.1,4.53-30.38,4.54-37.06l-17.21,2.97c-6.42,1.11-11.98,5.2-14.77,11.08C431.02,219.16,427.91,233.69,428.09,240.42z"/>
	<path class="st3" d="M452.12,167.77h-24.87c-1.8,0-3.35,1.25-3.73,3.01l-0.66,3.06c-0.23,1.07,0.08,2.19,0.82,3l5.98,6.48
		c1.59,1.72,3.75,2.81,6.07,3.08l26.99,3.04C462.73,189.43,460.4,175.19,452.12,167.77z"/>
	<path class="st4" d="M12.51,182.38l15.3-0.07c1.02,0,1.9-0.7,2.13-1.7l3.82-16.7c0.31-1.37-0.73-2.67-2.13-2.67H16.51L12.51,182.38
		z"/>
	<path class="st5" d="M24.18,175.32l0.96-4.29c0.33-1.47-0.79-2.87-2.3-2.86l-7.64,0.02l1.32-6.96h15.12c1.4,0,2.44,1.3,2.13,2.67
		l-3.82,16.7c-0.23,0.99-1.11,1.7-2.13,1.7l-15.3,0.07l0.99-5.22h8.39C22.98,177.16,23.94,176.4,24.18,175.32z"/>
	
		<linearGradient id="SVGID_2_" gradientUnits="userSpaceOnUse" x1="849.4235" y1="300.1806" x2="849.4235" y2="263.2472" gradientTransform="matrix(-1 0 0 1 1154.6804 -146.8376)">
		<stop  offset="2.100000e-07" style="stop-color:#000000"/>
		<stop  offset="0.906" style="stop-color:#490B0B"/>
	</linearGradient>
	<path class="st6" d="M278.05,114.67l34.23,33.64c0.83,0.83,1.99,1.27,3.16,1.2c3.92-0.19,13.02-0.88,17.73-3.08
		c-18.43-17.93-23.38-21.8-37.56-32.39c-2.41-1.8-5.01-3.31-7.74-4.5c-3.53,0-6.55,0.47-8.9,1.2
		C277.29,111.29,276.78,113.42,278.05,114.67z"/>
	
		<linearGradient id="SVGID_3_" gradientUnits="userSpaceOnUse" x1="987.2687" y1="300.1807" x2="987.2687" y2="263.2473" gradientTransform="matrix(-1 0 0 1 1154.6804 -146.8376)">
		<stop  offset="2.100000e-07" style="stop-color:#000000"/>
		<stop  offset="0.906" style="stop-color:#490B0B"/>
	</linearGradient>
	<path class="st7" d="M135.53,117.03l-8.5,26.55c-0.94,2.94,1.25,5.94,4.33,5.94h72.1c2.51,0,4.55-2.04,4.55-4.55v-26.55
		c0-2.51-2.04-4.55-4.55-4.55h-63.6C137.89,113.87,136.14,115.15,135.53,117.03z"/>
	
		<linearGradient id="SVGID_4_" gradientUnits="userSpaceOnUse" x1="1074.3971" y1="300.1807" x2="1074.3971" y2="263.2473" gradientTransform="matrix(-1 0 0 1 1154.6804 -146.8376)">
		<stop  offset="2.100000e-07" style="stop-color:#000000"/>
		<stop  offset="0.906" style="stop-color:#490B0B"/>
	</linearGradient>
	<path class="st8" d="M39.09,149.52h73.87c1.98,0,3.73-1.28,4.33-3.16l8.51-26.55c0.94-2.94-1.25-5.94-4.33-5.94H50.45
		c-1.82,0-3.47,1.09-4.18,2.76l-11.36,26.55C33.62,146.18,35.83,149.52,39.09,149.52z"/>
	
		<linearGradient id="SVGID_5_" gradientUnits="userSpaceOnUse" x1="898.6396" y1="300.1806" x2="898.6396" y2="263.2473" gradientTransform="matrix(-1 0 0 1 1154.6804 -146.8376)">
		<stop  offset="2.100000e-07" style="stop-color:#000000"/>
		<stop  offset="0.906" style="stop-color:#490B0B"/>
	</linearGradient>
	<path class="st9" d="M219.79,113.87h44.99c1.18,0,2.31,0.46,3.16,1.28l27.5,26.55c2.94,2.84,0.93,7.82-3.16,7.82h-72.5
		c-2.51,0-4.55-2.04-4.55-4.55v-26.55C215.24,115.91,217.27,113.87,219.79,113.87z"/>
	<path class="st10" d="M211.63,233.02c0.03-0.53,2.77-52.83,0-81.41v-42.86h51.16c4.7,0,9.22,1.99,12.4,5.46l33.77,36.85l0.14,0.15
		l0.05,0.2c0.11,0.43,10.37,43.14,0,81.85l-0.16,0.6h-97.4L211.63,233.02z M307.63,151.99L274,115.29
		c-2.88-3.14-6.96-4.94-11.22-4.94h-49.55l0,41.17c2.59,26.63,0.39,73.84,0.05,80.73h94.47
		C317.39,195.45,308.37,155.16,307.63,151.99z"/>
	<path class="st10" d="M154.39,233.86h58.03v-1.61h-56.37c0.47-16.19-3.4-28.55-11.5-36.75c-8.95-9.06-20.15-10.08-23.28-10.18
		l0.22-35.67l12.53-35.11c0.9-2.51,3.29-4.2,5.96-4.2h72.45v-1.61h-72.45c-3.34,0-6.34,2.12-7.47,5.27l-12.62,35.5l-0.23,37.43
		l0.83-0.02c0.14,0.01,13.15-0.2,22.95,9.73c7.9,8.01,11.6,20.25,10.99,36.37L154.39,233.86z"/>
	<path class="st10" d="M220.05,167.26h15.32c0.88,0,1.61-0.72,1.61-1.61v-3.81c0-0.88-0.72-1.61-1.61-1.61h-15.32
		c-0.88,0-1.61,0.72-1.61,1.61v3.81C218.45,166.54,219.17,167.26,220.05,167.26z"/>
	<path class="st10" d="M127.64,167.26h15.32c0.88,0,1.61-0.72,1.61-1.61v-3.81c0-0.88-0.72-1.61-1.61-1.61h-15.32
		c-0.88,0-1.61,0.72-1.61,1.61v3.81C126.03,166.54,126.75,167.26,127.64,167.26z"/>
	<path class="st10" d="M298.33,144.58l-6.39-4.64c-2.53-1.84-5.44-3.08-8.52-3.63l0,0c-1.79-0.32-3.45,0.98-3.59,2.8
		c-0.18,2.46-0.16,5.89,0.83,9c0.76,2.37,3.05,3.92,5.54,3.96c2.7,0.04,12.13,0.03,12.13,0.03S304.91,151.02,298.33,144.58z"/>
	<path class="st11" d="M428.09,240.42c0.02,0.67,0.03,1.32,0.06,1.93l26.64-0.27c2.89-0.02,5.38-2.02,6.02-4.83
		c2.3-10.1,4.53-30.38,4.54-37.06l-17.21,2.97c-6.42,1.11-11.98,5.2-14.77,11.08C431.02,219.16,427.91,233.69,428.09,240.42z"/>
	<path class="st12" d="M461.34,234.7c-0.18,0.9-0.36,1.76-0.54,2.55c-0.64,2.81-3.13,4.82-6.02,4.83l-54.5,0.56l-69.11,0.71H82.29
		l-6.34-0.64l-59.06-6.04c-1.66-0.17-3.13-0.9-4.27-1.97H461.34z"/>
	<path class="st13" d="M326.96,229.15v14.19h4.22l69.11-0.71v-13.49c0-20.17-16.51-36.66-36.67-36.66
		c-10.07,0-19.24,4.13-25.88,10.77C331.08,209.9,326.96,219.07,326.96,229.15z"/>
	<path class="st13" d="M75.95,221.32v21.39l6.34,0.64h66.97v-22.03c0-15.85-12.97-28.82-28.82-28.82h-15.67
		C88.92,192.5,75.95,205.47,75.95,221.32z"/>
	<g>
		<circle class="st14" cx="363.62" cy="230.28" r="32.44"/>
		
			<ellipse transform="matrix(0.7071 -0.7071 0.7071 0.7071 -56.3328 324.5682)" class="st15" cx="363.62" cy="230.28" rx="18.63" ry="18.63"/>
		
			<ellipse transform="matrix(0.2298 -0.9732 0.9732 0.2298 55.9552 531.2701)" class="st13" cx="363.62" cy="230.28" rx="17.22" ry="17.22"/>
		<path class="st15" d="M346.61,230.28c-0.71,0.96-1.05,2.06-0.86,3.15c0.19,1.09,0.88,2.01,1.89,2.67
			c-0.34,1.15-0.28,2.3,0.27,3.25c0.55,0.96,1.53,1.57,2.7,1.85c0.07,1.2,0.5,2.26,1.35,2.98c0.85,0.71,1.97,0.95,3.17,0.82
			c0.48,1.1,1.25,1.96,2.29,2.34c1.04,0.38,2.18,0.24,3.25-0.3c0.83,0.87,1.85,1.39,2.95,1.39c1.11,0,2.13-0.52,2.95-1.39
			c1.07,0.54,2.21,0.68,3.25,0.3c1.04-0.38,1.81-1.23,2.29-2.34c1.19,0.14,2.32-0.1,3.17-0.82c0.85-0.71,1.28-1.78,1.35-2.98
			c1.17-0.28,2.14-0.89,2.7-1.85c0.55-0.96,0.61-2.1,0.27-3.25c1-0.66,1.69-1.58,1.89-2.67c0.19-1.09-0.15-2.19-0.86-3.15
			c0.71-0.96,1.05-2.06,0.86-3.15c-0.19-1.09-0.88-2.01-1.89-2.67c0.34-1.15,0.28-2.3-0.27-3.26c-0.55-0.96-1.53-1.57-2.7-1.85
			c-0.07-1.2-0.5-2.26-1.35-2.98c-0.85-0.71-1.97-0.95-3.17-0.82c-0.48-1.1-1.25-1.96-2.29-2.34c-1.04-0.38-2.18-0.24-3.25,0.3
			c-0.83-0.87-1.85-1.39-2.95-1.39c-1.11,0-2.13,0.52-2.95,1.39c-1.07-0.54-2.21-0.68-3.25-0.3c-1.04,0.38-1.81,1.23-2.29,2.34
			c-1.19-0.14-2.32,0.1-3.17,0.82c-0.85,0.71-1.28,1.78-1.35,2.98c-1.17,0.28-2.14,0.89-2.7,1.85c-0.55,0.96-0.61,2.1-0.27,3.26
			c-1,0.66-1.69,1.58-1.89,2.67C345.56,228.22,345.9,229.32,346.61,230.28z M348.09,225.58c0.43,0.81,1.05,1.6,1.83,2.29
			c-0.98,0.38-1.83,0.91-2.51,1.52c-0.42-0.65-0.63-1.35-0.5-2.05C347.04,226.64,347.48,226.05,348.09,225.58z M351.31,233.12
			c0.15,0.03,0.29,0.07,0.45,0.1c2.42,0.43,4.7-0.09,6.16-1.22c0.12,0.07,0.23,0.15,0.35,0.24c-0.03,0.14-0.06,0.27-0.11,0.41
			c-1.84,0.08-3.92,1.14-5.5,3.02c-0.1,0.12-0.17,0.24-0.26,0.36c-1.22,0.09-2.36-0.07-3.29-0.45
			C349.56,234.69,350.33,233.83,351.31,233.12z M356.02,240.35c0.13-0.07,0.27-0.12,0.4-0.19c2.12-1.23,3.54-3.09,3.94-4.89
			c0.14-0.03,0.28-0.03,0.42-0.04c0.06,0.12,0.13,0.25,0.17,0.38c-1.36,1.24-2.27,3.4-2.27,5.85c0,0.15,0.01,0.3,0.02,0.46
			c-0.87,0.85-1.85,1.45-2.8,1.75C355.68,242.69,355.72,241.53,356.02,240.35z M360.94,245.5c-0.54-0.84-0.9-1.94-1.02-3.16
			c0.1-0.11,0.21-0.2,0.31-0.32c1.58-1.88,2.26-4.11,2.02-5.94c0.12-0.08,0.25-0.13,0.38-0.18c0.1,0.1,0.21,0.19,0.3,0.3
			c-0.85,1.63-0.97,3.97-0.13,6.27c0.05,0.14,0.11,0.28,0.17,0.42C362.44,243.99,361.73,244.89,360.94,245.5z M364.28,242.9
			c0.06-0.14,0.12-0.28,0.17-0.42c0.84-2.3,0.72-4.64-0.13-6.27c0.09-0.11,0.19-0.21,0.3-0.3c0.13,0.06,0.26,0.11,0.38,0.18
			c-0.24,1.83,0.44,4.06,2.02,5.94c0.1,0.12,0.21,0.21,0.31,0.32c-0.12,1.22-0.48,2.32-1.02,3.16
			C365.52,244.89,364.81,243.99,364.28,242.9z M374.85,236.02c-0.09-0.12-0.16-0.24-0.26-0.36c-1.58-1.88-3.65-2.94-5.5-3.02
			c-0.05-0.14-0.08-0.27-0.11-0.41c0.11-0.08,0.22-0.17,0.35-0.24c1.46,1.12,3.74,1.64,6.16,1.22c0.15-0.03,0.3-0.06,0.45-0.1
			c0.99,0.71,1.75,1.57,2.21,2.45C377.22,235.95,376.07,236.11,374.85,236.02z M375.93,227.45c-0.15-0.03-0.29-0.07-0.45-0.1
			c-2.41-0.43-4.7,0.09-6.16,1.22c-0.12-0.07-0.23-0.15-0.35-0.24c0.03-0.14,0.06-0.27,0.11-0.41c1.84-0.08,3.92-1.14,5.5-3.02
			c0.1-0.12,0.17-0.24,0.26-0.36c1.22-0.09,2.36,0.07,3.29,0.45C377.68,225.88,376.92,226.74,375.93,227.45z M371.22,220.22
			c-0.13,0.07-0.27,0.12-0.4,0.19c-2.12,1.23-3.54,3.09-3.94,4.89c-0.14,0.03-0.28,0.03-0.42,0.04c-0.06-0.12-0.13-0.25-0.17-0.38
			c1.36-1.24,2.27-3.4,2.27-5.85c0-0.15-0.01-0.3-0.02-0.46c0.87-0.85,1.85-1.45,2.8-1.75
			C371.56,217.88,371.52,219.03,371.22,220.22z M366.3,215.07c0.54,0.84,0.9,1.94,1.02,3.16c-0.1,0.11-0.21,0.2-0.31,0.32
			c-1.58,1.88-2.26,4.11-2.02,5.94c-0.12,0.08-0.25,0.13-0.38,0.18c-0.1-0.1-0.21-0.19-0.3-0.3c0.85-1.63,0.97-3.97,0.13-6.27
			c-0.05-0.14-0.11-0.28-0.17-0.42C364.81,216.58,365.52,215.68,366.3,215.07z M362.97,217.67c-0.06,0.14-0.12,0.28-0.17,0.42
			c-0.84,2.3-0.72,4.64,0.13,6.27c-0.09,0.11-0.19,0.21-0.3,0.3c-0.13-0.06-0.26-0.11-0.38-0.18c0.24-1.83-0.44-4.06-2.02-5.94
			c-0.1-0.12-0.21-0.21-0.31-0.32c0.12-1.22,0.48-2.32,1.02-3.16C361.73,215.68,362.44,216.58,362.97,217.67z M352.39,224.55
			c0.09,0.12,0.16,0.24,0.26,0.36c1.58,1.88,3.65,2.94,5.5,3.02c0.05,0.13,0.08,0.27,0.11,0.41c-0.11,0.08-0.22,0.17-0.35,0.24
			c-1.46-1.12-3.74-1.64-6.16-1.22c-0.15,0.03-0.3,0.06-0.45,0.1c-0.99-0.71-1.75-1.57-2.21-2.45
			C350.03,224.62,351.17,224.46,352.39,224.55z M356.39,229.01c-1.03,0.1-2.21-0.09-3.4-0.6
			C354.28,228.34,355.46,228.56,356.39,229.01z M354.28,224.89c1.23,0.37,2.26,0.99,2.99,1.72
			C356.26,226.36,355.22,225.77,354.28,224.89z M351.79,220.35c1-0.04,2.13,0.19,3.24,0.7c0.04,0.14,0.07,0.28,0.12,0.42
			c0.84,2.3,2.43,4.02,4.13,4.72c0,0.14-0.02,0.28-0.03,0.42c-0.13,0.04-0.26,0.08-0.41,0.1c-0.99-1.56-2.95-2.82-5.37-3.25
			c-0.15-0.03-0.3-0.04-0.45-0.06C352.34,222.4,351.92,221.34,351.79,220.35z M356.69,222.02c1.03,0.77,1.79,1.7,2.22,2.64
			C358.05,224.08,357.27,223.17,356.69,222.02z M355.9,216.9c0.95,0.3,1.92,0.9,2.8,1.75c-0.01,0.15-0.02,0.3-0.02,0.46
			c0,2.45,0.9,4.61,2.27,5.85c-0.05,0.13-0.11,0.26-0.17,0.38c-0.14-0.01-0.28-0.01-0.42-0.04c-0.4-1.8-1.81-3.66-3.94-4.89
			c-0.13-0.08-0.26-0.12-0.4-0.19C355.72,219.03,355.68,217.88,355.9,216.9z M359.93,220.14c0.71,1.08,1.1,2.21,1.18,3.24
			C360.51,222.55,360.08,221.42,359.93,220.14z M363.62,219.49c0.3,1.25,0.28,2.45,0,3.45
			C363.34,221.95,363.33,220.75,363.62,219.49z M367.31,220.14c-0.15,1.28-0.58,2.4-1.18,3.24
			C366.21,222.35,366.61,221.22,367.31,220.14z M370.56,222.02c-0.58,1.15-1.36,2.06-2.22,2.64
			C368.77,223.72,369.53,222.79,370.56,222.02z M372.21,221.05c1.12-0.5,2.25-0.74,3.24-0.7c-0.13,0.99-0.56,2.05-1.24,3.06
			c-0.15,0.02-0.3,0.04-0.45,0.06c-2.42,0.43-4.38,1.69-5.37,3.25c-0.14-0.02-0.27-0.06-0.41-0.1c-0.02-0.14-0.04-0.27-0.03-0.42
			c1.7-0.7,3.29-2.42,4.13-4.72C372.14,221.33,372.17,221.19,372.21,221.05z M372.97,224.89c-0.94,0.88-1.99,1.47-2.99,1.72
			C370.7,225.87,371.73,225.26,372.97,224.89z M374.25,228.41c-1.18,0.51-2.37,0.7-3.4,0.6
			C371.78,228.56,372.96,228.34,374.25,228.41z M376.16,228.74c1.17,0.33,2.18,0.88,2.91,1.55c-0.73,0.67-1.74,1.21-2.91,1.55
			c-0.13-0.08-0.25-0.16-0.39-0.24c-2.12-1.23-4.44-1.52-6.2-0.96c-0.1-0.11-0.17-0.23-0.25-0.35c0.08-0.12,0.15-0.24,0.25-0.35
			c1.76,0.56,4.07,0.27,6.2-0.96C375.9,228.9,376.03,228.82,376.16,228.74z M374.25,232.16c-1.29,0.07-2.46-0.15-3.39-0.6
			C371.88,231.46,373.07,231.65,374.25,232.16z M372.97,235.68c-1.23-0.37-2.26-0.99-2.99-1.72
			C370.98,234.21,372.03,234.8,372.97,235.68z M375.46,240.21c-1,0.04-2.13-0.19-3.24-0.7c-0.04-0.14-0.07-0.28-0.12-0.42
			c-0.84-2.3-2.43-4.02-4.13-4.72c0-0.14,0.02-0.28,0.03-0.42c0.13-0.04,0.26-0.08,0.41-0.1c0.99,1.56,2.95,2.82,5.37,3.25
			c0.15,0.03,0.3,0.04,0.45,0.06C374.9,238.16,375.33,239.23,375.46,240.21z M370.56,238.55c-1.03-0.77-1.79-1.7-2.22-2.64
			C369.19,236.49,369.98,237.4,370.56,238.55z M371.35,243.66c-0.95-0.3-1.92-0.9-2.8-1.75c0.01-0.15,0.02-0.3,0.02-0.46
			c0-2.45-0.9-4.61-2.27-5.85c0.05-0.14,0.11-0.26,0.17-0.38c0.14,0.01,0.28,0.01,0.42,0.04c0.4,1.8,1.81,3.66,3.94,4.89
			c0.13,0.08,0.26,0.12,0.4,0.19C371.52,241.53,371.56,242.69,371.35,243.66z M367.31,240.42c-0.71-1.08-1.1-2.21-1.18-3.24
			C366.74,238.02,367.16,239.14,367.31,240.42z M363.62,241.07c-0.3-1.25-0.28-2.45,0-3.45
			C363.9,238.62,363.92,239.82,363.62,241.07z M359.93,240.42c0.15-1.28,0.58-2.4,1.18-3.24
			C361.03,238.21,360.64,239.35,359.93,240.42z M356.69,238.55c0.58-1.15,1.36-2.06,2.22-2.64
			C358.48,236.85,357.72,237.78,356.69,238.55z M355.03,239.52c-1.12,0.5-2.25,0.74-3.24,0.7c0.13-0.99,0.56-2.05,1.24-3.06
			c0.15-0.02,0.3-0.04,0.45-0.06c2.41-0.43,4.38-1.69,5.37-3.25c0.14,0.02,0.27,0.06,0.41,0.1c0.02,0.14,0.04,0.28,0.03,0.42
			c-1.7,0.7-3.29,2.42-4.13,4.72C355.1,239.23,355.08,239.37,355.03,239.52z M354.28,235.68c0.94-0.88,1.99-1.47,2.99-1.72
			C356.54,234.69,355.51,235.31,354.28,235.68z M353,232.16c1.18-0.51,2.37-0.7,3.39-0.6C355.46,232.01,354.28,232.23,353,232.16z
			 M351.09,231.83c-1.17-0.33-2.18-0.88-2.91-1.55c0.73-0.67,1.74-1.21,2.91-1.55c0.13,0.08,0.25,0.16,0.39,0.24
			c2.12,1.23,4.44,1.52,6.2,0.96c0.1,0.11,0.17,0.23,0.25,0.35c-0.08,0.12-0.15,0.24-0.25,0.35c-1.76-0.56-4.07-0.27-6.2,0.96
			C351.34,231.66,351.21,231.75,351.09,231.83z M350.65,220.55c0.12,0.91,0.44,1.86,0.95,2.78c-1.05,0.02-2.04,0.22-2.9,0.57
			c-0.17-0.76-0.12-1.49,0.23-2.1C349.29,221.18,349.91,220.77,350.65,220.55z M354.77,216.7c-0.2,0.91-0.22,1.91-0.06,2.96
			c-1-0.34-2-0.49-2.92-0.45c0.09-0.78,0.39-1.45,0.94-1.91C353.27,216.83,353.99,216.66,354.77,216.7z M359.93,214.49
			c-0.49,0.78-0.86,1.72-1.07,2.75c-0.82-0.66-1.7-1.14-2.58-1.42c0.35-0.7,0.86-1.23,1.54-1.48
			C358.49,214.1,359.22,214.18,359.93,214.49z M365.56,214.18c-0.73,0.56-1.39,1.31-1.94,2.2c-0.54-0.89-1.21-1.64-1.94-2.2
			c0.57-0.53,1.22-0.85,1.93-0.85C364.33,213.32,364.99,213.65,365.56,214.18z M370.96,215.82c-0.88,0.28-1.76,0.76-2.58,1.42
			c-0.21-1.04-0.58-1.97-1.07-2.75c0.71-0.3,1.44-0.38,2.11-0.14C370.09,214.59,370.61,215.12,370.96,215.82z M375.46,219.2
			c-0.93-0.04-1.92,0.11-2.92,0.45c0.16-1.05,0.14-2.05-0.06-2.96c0.78-0.04,1.5,0.13,2.05,0.59
			C375.07,217.75,375.37,218.43,375.46,219.2z M378.54,223.91c-0.86-0.35-1.84-0.55-2.9-0.57c0.5-0.92,0.82-1.87,0.95-2.78
			c0.75,0.23,1.36,0.64,1.72,1.26C378.66,222.42,378.71,223.15,378.54,223.91z M379.82,229.39c-0.68-0.62-1.53-1.14-2.51-1.52
			c0.79-0.69,1.41-1.48,1.83-2.29c0.62,0.47,1.05,1.06,1.17,1.76C380.45,228.04,380.24,228.74,379.82,229.39z M379.15,234.99
			c-0.43-0.81-1.05-1.6-1.83-2.29c0.98-0.38,1.83-0.91,2.51-1.52c0.42,0.65,0.63,1.35,0.5,2.05
			C380.2,233.93,379.77,234.52,379.15,234.99z M376.59,240.02c-0.12-0.91-0.44-1.86-0.95-2.78c1.05-0.02,2.04-0.22,2.9-0.57
			c0.17,0.76,0.13,1.49-0.23,2.1C377.95,239.38,377.34,239.79,376.59,240.02z M372.48,243.87c0.2-0.91,0.22-1.91,0.06-2.96
			c1,0.34,2,0.49,2.92,0.45c-0.09,0.78-0.39,1.45-0.94,1.91C373.98,243.74,373.26,243.91,372.48,243.87z M367.31,246.08
			c0.49-0.78,0.86-1.72,1.07-2.75c0.82,0.66,1.7,1.14,2.58,1.42c-0.35,0.7-0.86,1.23-1.54,1.48
			C368.76,246.46,368.03,246.39,367.31,246.08z M361.69,246.39c0.73-0.56,1.39-1.31,1.94-2.2c0.54,0.89,1.21,1.64,1.94,2.2
			c-0.57,0.53-1.23,0.85-1.94,0.85C362.91,247.24,362.25,246.92,361.69,246.39z M356.29,244.74c0.88-0.28,1.76-0.76,2.58-1.42
			c0.21,1.03,0.57,1.97,1.07,2.75c-0.71,0.3-1.44,0.38-2.11,0.14C357.15,245.98,356.64,245.44,356.29,244.74z M351.78,241.36
			c0.93,0.04,1.92-0.11,2.92-0.45c-0.16,1.05-0.14,2.05,0.06,2.96c-0.78,0.04-1.5-0.13-2.05-0.59
			C352.17,242.82,351.87,242.14,351.78,241.36z M348.7,236.66c0.86,0.35,1.84,0.55,2.9,0.57c-0.5,0.92-0.82,1.87-0.95,2.78
			c-0.75-0.23-1.36-0.64-1.72-1.26C348.58,238.15,348.53,237.42,348.7,236.66z M347.42,231.18c0.68,0.62,1.53,1.14,2.51,1.52
			c-0.79,0.69-1.41,1.48-1.83,2.29c-0.62-0.47-1.05-1.06-1.17-1.76C346.8,232.53,347,231.83,347.42,231.18z"/>
		<path class="st13" d="M359.12,230.28c0-2.48,2.02-4.5,4.5-4.5s4.5,2.02,4.5,4.5c0,2.48-2.02,4.5-4.5,4.5
			S359.12,232.77,359.12,230.28z M360.3,230.28c0,1.83,1.49,3.32,3.32,3.32c1.83,0,3.32-1.49,3.32-3.32s-1.49-3.32-3.32-3.32
			C361.79,226.97,360.3,228.45,360.3,230.28z"/>
	</g>
	<g>
		<circle class="st14" cx="112.61" cy="230.28" r="32.44"/>
		
			<ellipse transform="matrix(0.3784 -0.9257 0.9257 0.3784 -143.163 247.3862)" class="st15" cx="112.61" cy="230.28" rx="18.63" ry="18.63"/>
		
			<ellipse transform="matrix(0.3787 -0.9255 0.9255 0.3787 -143.169 247.2969)" class="st13" cx="112.61" cy="230.28" rx="17.22" ry="17.22"/>
		<path class="st15" d="M95.6,230.28c-0.71,0.96-1.05,2.06-0.86,3.15c0.19,1.09,0.88,2.01,1.89,2.67c-0.34,1.15-0.28,2.3,0.27,3.25
			c0.56,0.96,1.53,1.57,2.7,1.85c0.07,1.2,0.5,2.26,1.35,2.98c0.85,0.71,1.97,0.95,3.17,0.82c0.48,1.1,1.25,1.96,2.29,2.34
			c1.04,0.38,2.18,0.24,3.25-0.3c0.83,0.87,1.85,1.39,2.95,1.39c1.11,0,2.13-0.52,2.95-1.39c1.07,0.54,2.21,0.68,3.25,0.3
			c1.04-0.38,1.81-1.23,2.29-2.34c1.19,0.14,2.32-0.1,3.17-0.82c0.85-0.71,1.28-1.78,1.35-2.98c1.17-0.28,2.14-0.89,2.7-1.85
			c0.55-0.96,0.61-2.1,0.27-3.25c1-0.66,1.69-1.58,1.89-2.67c0.19-1.09-0.15-2.19-0.86-3.15c0.71-0.96,1.05-2.06,0.86-3.15
			c-0.19-1.09-0.88-2.01-1.89-2.67c0.34-1.15,0.28-2.3-0.27-3.26c-0.55-0.96-1.53-1.57-2.7-1.85c-0.07-1.2-0.5-2.26-1.35-2.98
			c-0.85-0.71-1.97-0.95-3.17-0.82c-0.48-1.1-1.25-1.96-2.29-2.34c-1.04-0.38-2.18-0.24-3.25,0.3c-0.83-0.87-1.85-1.39-2.95-1.39
			c-1.11,0-2.13,0.52-2.95,1.39c-1.07-0.54-2.21-0.68-3.25-0.3c-1.04,0.38-1.81,1.23-2.29,2.34c-1.19-0.14-2.32,0.1-3.17,0.82
			c-0.85,0.71-1.28,1.78-1.35,2.98c-1.17,0.28-2.14,0.89-2.7,1.85c-0.55,0.96-0.61,2.1-0.27,3.26c-1,0.66-1.69,1.58-1.89,2.67
			C94.54,228.22,94.88,229.32,95.6,230.28z M97.08,225.58c0.43,0.81,1.05,1.6,1.83,2.29c-0.98,0.38-1.83,0.91-2.51,1.52
			c-0.42-0.65-0.63-1.35-0.5-2.05C96.03,226.64,96.46,226.05,97.08,225.58z M100.3,233.12c0.15,0.03,0.29,0.07,0.45,0.1
			c2.42,0.43,4.7-0.09,6.16-1.22c0.12,0.07,0.23,0.15,0.35,0.24c-0.03,0.14-0.06,0.27-0.11,0.41c-1.84,0.08-3.92,1.14-5.5,3.02
			c-0.1,0.12-0.17,0.24-0.26,0.36c-1.22,0.09-2.36-0.07-3.29-0.45C98.55,234.69,99.31,233.83,100.3,233.12z M105.01,240.35
			c0.13-0.07,0.27-0.12,0.4-0.19c2.12-1.23,3.54-3.09,3.94-4.89c0.14-0.03,0.28-0.03,0.42-0.04c0.06,0.12,0.13,0.25,0.17,0.38
			c-1.36,1.24-2.27,3.4-2.27,5.85c0,0.15,0.01,0.3,0.02,0.46c-0.87,0.85-1.85,1.45-2.8,1.75
			C104.67,242.69,104.71,241.53,105.01,240.35z M109.92,245.5c-0.54-0.84-0.9-1.94-1.02-3.16c0.1-0.11,0.21-0.2,0.31-0.32
			c1.58-1.88,2.26-4.11,2.02-5.94c0.12-0.08,0.25-0.13,0.38-0.18c0.1,0.1,0.21,0.19,0.3,0.3c-0.85,1.63-0.97,3.97-0.13,6.27
			c0.05,0.14,0.11,0.28,0.17,0.42C111.42,243.99,110.71,244.89,109.92,245.5z M113.26,242.9c0.06-0.14,0.12-0.28,0.17-0.42
			c0.84-2.3,0.72-4.64-0.13-6.27c0.09-0.11,0.19-0.21,0.3-0.3c0.13,0.06,0.26,0.11,0.38,0.18c-0.24,1.83,0.44,4.06,2.02,5.94
			c0.1,0.12,0.21,0.21,0.31,0.32c-0.12,1.22-0.48,2.32-1.02,3.16C114.5,244.89,113.79,243.99,113.26,242.9z M123.84,236.02
			c-0.09-0.12-0.16-0.24-0.26-0.36c-1.58-1.88-3.65-2.94-5.5-3.02c-0.05-0.14-0.08-0.27-0.11-0.41c0.11-0.08,0.22-0.17,0.35-0.24
			c1.46,1.12,3.74,1.64,6.16,1.22c0.15-0.03,0.3-0.06,0.45-0.1c0.99,0.71,1.75,1.57,2.21,2.45
			C126.2,235.95,125.06,236.11,123.84,236.02z M124.92,227.45c-0.15-0.03-0.29-0.07-0.45-0.1c-2.42-0.43-4.7,0.09-6.16,1.22
			c-0.12-0.07-0.23-0.15-0.35-0.24c0.03-0.14,0.06-0.27,0.11-0.41c1.84-0.08,3.92-1.14,5.5-3.02c0.1-0.12,0.17-0.24,0.26-0.36
			c1.22-0.09,2.36,0.07,3.29,0.45C126.66,225.88,125.9,226.74,124.92,227.45z M120.21,220.22c-0.13,0.07-0.27,0.12-0.4,0.19
			c-2.12,1.23-3.54,3.09-3.93,4.89c-0.14,0.03-0.28,0.03-0.42,0.04c-0.06-0.12-0.13-0.25-0.17-0.38c1.36-1.24,2.27-3.4,2.27-5.85
			c0-0.15-0.01-0.3-0.02-0.46c0.87-0.85,1.85-1.45,2.8-1.75C120.55,217.88,120.51,219.03,120.21,220.22z M115.29,215.07
			c0.54,0.84,0.9,1.94,1.02,3.16c-0.1,0.11-0.21,0.2-0.31,0.32c-1.58,1.88-2.26,4.11-2.02,5.94c-0.12,0.08-0.25,0.13-0.38,0.18
			c-0.1-0.1-0.21-0.19-0.3-0.3c0.85-1.63,0.97-3.97,0.13-6.27c-0.05-0.14-0.11-0.28-0.17-0.42
			C113.79,216.58,114.5,215.68,115.29,215.07z M111.95,217.67c-0.06,0.14-0.12,0.28-0.17,0.42c-0.84,2.3-0.72,4.64,0.13,6.27
			c-0.09,0.11-0.19,0.21-0.3,0.3c-0.13-0.06-0.26-0.11-0.38-0.18c0.24-1.83-0.44-4.06-2.02-5.94c-0.1-0.12-0.21-0.21-0.31-0.32
			c0.12-1.22,0.48-2.32,1.02-3.16C110.71,215.68,111.42,216.58,111.95,217.67z M101.38,224.55c0.09,0.12,0.16,0.24,0.26,0.36
			c1.58,1.88,3.65,2.94,5.5,3.02c0.05,0.13,0.08,0.27,0.11,0.41c-0.11,0.08-0.22,0.17-0.35,0.24c-1.46-1.12-3.74-1.64-6.16-1.22
			c-0.15,0.03-0.3,0.06-0.45,0.1c-0.99-0.71-1.75-1.57-2.21-2.45C99.01,224.62,100.16,224.46,101.38,224.55z M105.38,229.01
			c-1.03,0.1-2.21-0.09-3.4-0.6C103.27,228.34,104.45,228.56,105.38,229.01z M103.26,224.89c1.23,0.37,2.26,0.99,2.99,1.72
			C105.25,226.36,104.2,225.77,103.26,224.89z M100.77,220.35c1-0.04,2.13,0.19,3.25,0.7c0.04,0.14,0.07,0.28,0.12,0.42
			c0.84,2.3,2.43,4.02,4.13,4.72c0,0.14-0.02,0.28-0.03,0.42c-0.13,0.04-0.26,0.08-0.41,0.1c-0.99-1.56-2.95-2.82-5.37-3.25
			c-0.15-0.03-0.3-0.04-0.45-0.06C101.33,222.4,100.9,221.34,100.77,220.35z M105.67,222.02c1.03,0.77,1.79,1.7,2.22,2.64
			C107.04,224.08,106.25,223.17,105.67,222.02z M104.88,216.9c0.95,0.3,1.92,0.9,2.8,1.75c-0.01,0.15-0.02,0.3-0.02,0.46
			c0,2.45,0.9,4.61,2.27,5.85c-0.05,0.13-0.11,0.26-0.17,0.38c-0.14-0.01-0.28-0.01-0.42-0.04c-0.4-1.8-1.81-3.66-3.93-4.89
			c-0.13-0.08-0.26-0.12-0.4-0.19C104.71,219.03,104.67,217.88,104.88,216.9z M108.92,220.14c0.71,1.08,1.1,2.21,1.18,3.24
			C109.49,222.55,109.07,221.42,108.92,220.14z M112.61,219.49c0.3,1.25,0.28,2.45,0,3.45
			C112.33,221.95,112.31,220.75,112.61,219.49z M116.3,220.14c-0.15,1.28-0.58,2.4-1.18,3.24
			C115.2,222.35,115.59,221.22,116.3,220.14z M119.54,222.02c-0.58,1.15-1.36,2.06-2.22,2.64
			C117.75,223.72,118.51,222.79,119.54,222.02z M121.2,221.05c1.12-0.5,2.25-0.74,3.25-0.7c-0.13,0.99-0.56,2.05-1.24,3.06
			c-0.15,0.02-0.3,0.04-0.45,0.06c-2.42,0.43-4.38,1.69-5.37,3.25c-0.14-0.02-0.27-0.06-0.41-0.1c-0.02-0.14-0.04-0.27-0.03-0.42
			c1.7-0.7,3.29-2.42,4.13-4.72C121.13,221.33,121.15,221.19,121.2,221.05z M121.95,224.89c-0.94,0.88-1.99,1.47-2.99,1.72
			C119.69,225.87,120.72,225.26,121.95,224.89z M123.23,228.41c-1.18,0.51-2.37,0.7-3.4,0.6
			C120.77,228.56,121.95,228.34,123.23,228.41z M125.14,228.74c1.17,0.33,2.18,0.88,2.91,1.55c-0.73,0.67-1.74,1.21-2.91,1.55
			c-0.13-0.08-0.25-0.16-0.39-0.24c-2.12-1.23-4.44-1.52-6.2-0.96c-0.1-0.11-0.17-0.23-0.25-0.35c0.08-0.12,0.15-0.24,0.25-0.35
			c1.76,0.56,4.07,0.27,6.2-0.96C124.89,228.9,125.02,228.82,125.14,228.74z M123.23,232.16c-1.29,0.07-2.46-0.15-3.39-0.6
			C120.87,231.46,122.05,231.65,123.23,232.16z M121.95,235.68c-1.23-0.37-2.26-0.99-2.99-1.72
			C119.97,234.21,121.01,234.8,121.95,235.68z M124.44,240.21c-1,0.04-2.13-0.19-3.25-0.7c-0.04-0.14-0.07-0.28-0.12-0.42
			c-0.84-2.3-2.43-4.02-4.13-4.72c0-0.14,0.02-0.28,0.03-0.42c0.13-0.04,0.26-0.08,0.41-0.1c0.99,1.56,2.95,2.82,5.37,3.25
			c0.15,0.03,0.3,0.04,0.45,0.06C123.89,238.16,124.31,239.23,124.44,240.21z M119.54,238.55c-1.03-0.77-1.79-1.7-2.22-2.64
			C118.18,236.49,118.96,237.4,119.54,238.55z M120.33,243.66c-0.95-0.3-1.92-0.9-2.8-1.75c0.01-0.15,0.02-0.3,0.02-0.46
			c0-2.45-0.9-4.61-2.27-5.85c0.05-0.14,0.11-0.26,0.17-0.38c0.14,0.01,0.28,0.01,0.42,0.04c0.4,1.8,1.81,3.66,3.93,4.89
			c0.13,0.08,0.26,0.12,0.4,0.19C120.51,241.53,120.55,242.69,120.33,243.66z M116.3,240.42c-0.71-1.08-1.1-2.21-1.18-3.24
			C115.72,238.02,116.15,239.14,116.3,240.42z M112.61,241.07c-0.3-1.25-0.28-2.45,0-3.45C112.89,238.62,112.9,239.82,112.61,241.07
			z M108.92,240.42c0.15-1.28,0.58-2.4,1.18-3.24C110.02,238.21,109.62,239.35,108.92,240.42z M105.67,238.55
			c0.58-1.15,1.36-2.06,2.22-2.64C107.46,236.85,106.7,237.78,105.67,238.55z M104.02,239.52c-1.12,0.5-2.25,0.74-3.25,0.7
			c0.13-0.99,0.56-2.05,1.24-3.06c0.15-0.02,0.3-0.04,0.45-0.06c2.42-0.43,4.38-1.69,5.37-3.25c0.14,0.02,0.27,0.06,0.41,0.1
			c0.02,0.14,0.04,0.28,0.03,0.42c-1.7,0.7-3.29,2.42-4.13,4.72C104.09,239.23,104.06,239.37,104.02,239.52z M103.26,235.68
			c0.94-0.88,1.99-1.47,2.99-1.72C105.53,234.69,104.5,235.31,103.26,235.68z M101.98,232.16c1.18-0.51,2.37-0.7,3.4-0.6
			C104.45,232.01,103.27,232.23,101.98,232.16z M100.07,231.83c-1.17-0.33-2.18-0.88-2.91-1.55c0.73-0.67,1.74-1.21,2.91-1.55
			c0.13,0.08,0.25,0.16,0.39,0.24c2.12,1.23,4.44,1.52,6.2,0.96c0.1,0.11,0.17,0.23,0.25,0.35c-0.08,0.12-0.15,0.24-0.25,0.35
			c-1.76-0.56-4.07-0.27-6.2,0.96C100.33,231.66,100.2,231.75,100.07,231.83z M99.64,220.55c0.12,0.91,0.44,1.86,0.95,2.78
			c-1.05,0.02-2.04,0.22-2.9,0.57c-0.17-0.76-0.13-1.49,0.23-2.1C98.28,221.18,98.89,220.77,99.64,220.55z M103.75,216.7
			c-0.2,0.91-0.22,1.91-0.06,2.96c-1-0.34-2-0.49-2.92-0.45c0.09-0.78,0.39-1.45,0.94-1.91
			C102.25,216.83,102.97,216.66,103.75,216.7z M108.92,214.49c-0.49,0.78-0.86,1.72-1.07,2.75c-0.82-0.66-1.7-1.14-2.58-1.42
			c0.35-0.7,0.86-1.23,1.54-1.48C107.47,214.1,108.2,214.18,108.92,214.49z M114.54,214.18c-0.73,0.56-1.39,1.31-1.94,2.2
			c-0.54-0.89-1.21-1.64-1.94-2.2c0.57-0.53,1.22-0.85,1.94-0.85C113.32,213.32,113.98,213.65,114.54,214.18z M119.94,215.82
			c-0.88,0.28-1.76,0.76-2.58,1.42c-0.21-1.04-0.57-1.97-1.07-2.75c0.71-0.3,1.44-0.38,2.11-0.14
			C119.08,214.59,119.59,215.12,119.94,215.82z M124.45,219.2c-0.93-0.04-1.92,0.11-2.92,0.45c0.16-1.05,0.14-2.05-0.06-2.96
			c0.78-0.04,1.5,0.13,2.05,0.59C124.06,217.75,124.35,218.43,124.45,219.2z M127.52,223.91c-0.86-0.35-1.84-0.55-2.9-0.57
			c0.5-0.92,0.82-1.87,0.95-2.78c0.75,0.23,1.36,0.64,1.72,1.26C127.65,222.42,127.7,223.15,127.52,223.91z M128.81,229.39
			c-0.68-0.62-1.53-1.14-2.51-1.52c0.79-0.69,1.41-1.48,1.83-2.29c0.62,0.47,1.05,1.06,1.17,1.76
			C129.43,228.04,129.23,228.74,128.81,229.39z M128.13,234.99c-0.43-0.81-1.05-1.6-1.83-2.29c0.98-0.38,1.83-0.91,2.51-1.52
			c0.42,0.65,0.63,1.35,0.5,2.05C129.19,233.93,128.75,234.52,128.13,234.99z M125.57,240.02c-0.12-0.91-0.44-1.86-0.95-2.78
			c1.05-0.02,2.04-0.22,2.9-0.57c0.17,0.76,0.12,1.49-0.23,2.1C126.94,239.38,126.32,239.79,125.57,240.02z M121.46,243.87
			c0.2-0.91,0.22-1.91,0.06-2.96c1,0.34,2,0.49,2.92,0.45c-0.09,0.78-0.39,1.45-0.94,1.91
			C122.96,243.74,122.24,243.91,121.46,243.87z M116.3,246.08c0.49-0.78,0.86-1.72,1.07-2.75c0.82,0.66,1.7,1.14,2.58,1.42
			c-0.35,0.7-0.86,1.23-1.53,1.48C117.74,246.46,117.01,246.39,116.3,246.08z M110.67,246.39c0.73-0.56,1.39-1.31,1.94-2.2
			c0.54,0.89,1.21,1.64,1.93,2.2c-0.57,0.53-1.22,0.85-1.94,0.85C111.9,247.24,111.24,246.92,110.67,246.39z M105.27,244.74
			c0.88-0.28,1.76-0.76,2.58-1.42c0.21,1.03,0.57,1.97,1.07,2.75c-0.71,0.3-1.44,0.38-2.11,0.14
			C106.13,245.98,105.62,245.44,105.27,244.74z M100.77,241.36c0.93,0.04,1.92-0.11,2.92-0.45c-0.16,1.05-0.14,2.05,0.06,2.96
			c-0.78,0.04-1.5-0.13-2.05-0.59C101.16,242.82,100.86,242.14,100.77,241.36z M97.69,236.66c0.86,0.35,1.84,0.55,2.9,0.57
			c-0.5,0.92-0.82,1.87-0.95,2.78c-0.75-0.23-1.36-0.64-1.72-1.26C97.57,238.15,97.52,237.42,97.69,236.66z M96.41,231.18
			c0.68,0.62,1.53,1.14,2.51,1.52c-0.79,0.69-1.41,1.48-1.83,2.29c-0.62-0.47-1.05-1.06-1.17-1.76
			C95.78,232.53,95.99,231.83,96.41,231.18z"/>
		<path class="st13" d="M108.1,230.28c0-2.48,2.02-4.5,4.5-4.5c2.48,0,4.5,2.02,4.5,4.5c0,2.48-2.02,4.5-4.5,4.5
			C110.12,234.79,108.1,232.77,108.1,230.28z M109.29,230.28c0,1.83,1.49,3.32,3.32,3.32c1.83,0,3.32-1.49,3.32-3.32
			s-1.49-3.32-3.32-3.32C110.78,226.97,109.29,228.45,109.29,230.28z"/>
	</g>
</g>
</svg>
