<?xml version="1.0" encoding="utf-8"?>
<!-- Generator: Adobe Illustrator 25.1.0, SVG Export Plug-In . SVG Version: 6.00 Build 0)  -->
<svg version="1.1" id="Layer_1" xmlns="http://www.w3.org/2000/svg" xmlns:xlink="http://www.w3.org/1999/xlink" x="0px" y="0px"
	 viewBox="0 0 1471.48 636.88" style="enable-background:new 0 0 1471.48 636.88;" xml:space="preserve">
<style type="text/css">
	.st0{fill-rule:evenodd;clip-rule:evenodd;fill:#121212;}
	.st1{fill-rule:evenodd;clip-rule:evenodd;fill:#1A1A1A;}
	.st2{fill-rule:evenodd;clip-rule:evenodd;fill:#FFFFFF;}
	.st3{fill-rule:evenodd;clip-rule:evenodd;fill:#989898;}
	.st4{fill-rule:evenodd;clip-rule:evenodd;fill:#666666;}
	.st5{fill-rule:evenodd;clip-rule:evenodd;fill:#098A6D;}
	.st6{fill-rule:evenodd;clip-rule:evenodd;fill:#2C2F36;}
	.st7{fill-rule:evenodd;clip-rule:evenodd;fill:#097A61;}
	.st8{fill-rule:evenodd;clip-rule:evenodd;fill:#1C1C1C;}
	.st9{fill-rule:evenodd;clip-rule:evenodd;fill:#FF0000;}
	.st10{fill-rule:evenodd;clip-rule:evenodd;fill:#050505;}
	.st11{fill-rule:evenodd;clip-rule:evenodd;fill:#CBCBCB;}
	.st12{fill-rule:evenodd;clip-rule:evenodd;fill:#E5E5E5;}
	.st13{fill-rule:evenodd;clip-rule:evenodd;fill:url(#SVGID_1_);}
	.st14{fill-rule:evenodd;clip-rule:evenodd;fill:#3378C1;}
</style>
<g id="_x38_">
	<path class="st0" d="M1341.78,584.57H154.3c-3.2,0-5.82,2.62-5.82,5.82l0,0c0,3.2,2.77,5.82,5.82,5.82h1187.48
		c3.05,0,5.82-2.62,5.82-5.82l0,0C1347.6,587.19,1344.98,584.57,1341.78,584.57L1341.78,584.57z M1434.16,584.57h-44.84
		c-3.2,0-5.82,2.62-5.82,5.82l0,0c0,3.2,2.72,5.82,5.82,5.82h44.84c3.11,0,5.82-2.62,5.82-5.82l0,0
		C1439.98,587.19,1437.36,584.57,1434.16,584.57L1434.16,584.57z M105.77,584.57H60.93c-3.2,0-5.82,2.62-5.82,5.82l0,0
		c0,3.2,2.73,5.82,5.82,5.82h44.84c3.1,0,5.82-2.62,5.82-5.82l0,0C111.6,587.19,108.98,584.57,105.77,584.57z"/>
	<path class="st0" d="M609.1,589.89h48.97c41.57,0,75.28-52,75.28-116.14c0-64.14-33.7-116.13-75.28-116.13H609.1
		c-41.58,0-75.28,51.99-75.28,116.13C533.83,537.9,567.53,589.89,609.1,589.89L609.1,589.89z M1237.77,357.62
		c-41.58,0-75.28,52-75.28,116.13c0,64.14,33.7,116.14,75.28,116.14h48.97c41.57,0,75.28-52,75.28-116.14
		c0-64.14-33.7-116.13-75.28-116.13H1237.77z"/>
	<polygon class="st0" points="1099.2,523.89 322.87,523.89 109.09,505.9 71.8,494.87 96.05,330.52 1099.2,335.44 	"/>
	<g>
		<path class="st0" d="M208.5,589.89h48.96c41.58,0,75.28-52,75.28-116.14c0-64.14-33.7-116.13-75.28-116.13H208.5
			C163.22,357.62,161.74,589.89,208.5,589.89z"/>
		<ellipse class="st1" cx="208.5" cy="473.76" rx="75.28" ry="116.13"/>
		<g>
			<path class="st2" d="M208.5,555.72c29.21,0,53.03-36.75,53.03-81.82c0-45.06-23.82-81.82-53.03-81.82
				c-29.21,0-53.04,36.76-53.04,81.82C155.46,518.97,179.29,555.72,208.5,555.72z"/>
			<path class="st3" d="M208.5,544.09c25.06,0,45.49-31.53,45.49-70.19c0-38.65-20.44-70.18-45.49-70.18S163,435.25,163,473.9
				C163,512.56,183.44,544.09,208.5,544.09z"/>
			<path class="st1" d="M217.29,542.77c20.91-6.32,36.7-34.75,36.7-68.87c0-34.12-15.78-62.55-36.7-68.87
				c-20.92,6.32-36.7,34.75-36.7,68.87C180.59,508.02,196.38,536.45,217.29,542.77z"/>
			<path class="st4" d="M217.91,542.58c12.14-3.94,22.5-15.35,28.97-30.98c-2.97-3.41-4.67-10.45-0.75-20.93
				c2.4-6.42,5.13-9.37,7.66-10.19c0.13-2.16,0.2-4.36,0.2-6.57c0-2.22-0.07-4.41-0.2-6.58c-2.53-0.81-5.26-3.77-7.66-10.18
				c-3.93-10.5-2.22-17.53,0.75-20.93c-6.46-15.62-16.82-27.04-28.97-30.98c-20.6,6.69-36.06,34.89-36.06,68.67
				C181.85,507.68,197.31,535.89,217.91,542.58L217.91,542.58z M227.32,440.38c-14.78,0-12.7-20.51-7.7-22.16
				c5.14-1.69,10.27-1.74,15.4,0C240.05,419.92,242.07,440.38,227.32,440.38L227.32,440.38z M208.51,457.14
				c-7.39,19.76-17.86,6.72-16.29-0.79c1.62-7.71,4.16-14.6,7.7-20.59C203.4,429.9,215.88,437.44,208.51,457.14L208.51,457.14z
				 M208.51,490.67c7.39,19.76-5.16,27.23-8.58,21.37c-3.52-6.02-6.11-12.85-7.7-20.59C190.67,483.87,201.14,470.96,208.51,490.67
				L208.51,490.67z M227.32,507.43c14.79,0,12.7,20.51,7.7,22.16c-5.14,1.69-10.27,1.75-15.41,0
				C214.59,527.88,212.58,507.43,227.32,507.43z"/>
			<path class="st2" d="M214.57,543.46c12.98-2.67,24.24-13.8,31.36-29.67c-4.7,1.54-12.72-6.42-6.47-23.13
				c4.79-12.82,10.88-11.83,14.14-7.51c0.26-3.03,0.39-6.11,0.39-9.25c0-3.14-0.14-6.22-0.39-9.25c-3.26,4.32-9.35,5.29-14.14-7.51
				c-6.25-16.73,1.78-24.65,6.47-23.13c-7.12-15.87-18.37-26.99-31.35-29.66c-22.24,4.58-39.4,33.98-39.4,69.56
				S192.33,538.88,214.57,543.46L214.57,543.46z M220.65,440.38c-14.78,0-12.7-20.51-7.7-22.16c5.14-1.69,10.27-1.74,15.4,0
				C233.38,419.92,235.39,440.38,220.65,440.38L220.65,440.38z M201.84,457.14c-7.39,19.76-17.86,6.72-16.29-0.79
				c1.62-7.71,4.16-14.6,7.7-20.59C196.73,429.9,209.21,437.44,201.84,457.14L201.84,457.14z M201.84,490.67
				c7.39,19.76-5.16,27.23-8.58,21.37c-3.52-6.02-6.11-12.85-7.7-20.59C184,483.87,194.47,470.96,201.84,490.67L201.84,490.67z
				 M220.65,507.43c14.79,0,12.7,20.51,7.7,22.16c-5.14,1.69-10.27,1.75-15.4,0C207.92,527.88,205.9,507.43,220.65,507.43z"/>
			<path class="st4" d="M221.07,459.56c-5.42,0-9.81,6.77-9.81,15.13c0,8.35,4.39,15.13,9.81,15.13s9.81-6.77,9.81-15.13
				C230.88,466.33,226.49,459.56,221.07,459.56z"/>
		</g>
	</g>
	<g>
		<path class="st0" d="M837.15,589.89h48.96c41.58,0,75.28-52,75.28-116.14c0-64.14-33.7-116.13-75.28-116.13h-48.96
			C791.87,357.62,790.39,589.89,837.15,589.89z"/>
		<ellipse class="st1" cx="837.15" cy="473.76" rx="75.28" ry="116.13"/>
		<g>
			<ellipse class="st2" cx="837.15" cy="473.9" rx="53.04" ry="81.82"/>
			<path class="st3" d="M837.15,544.09c25.06,0,45.49-31.53,45.49-70.19c0-38.65-20.44-70.18-45.49-70.18
				c-25.06,0-45.5,31.53-45.5,70.18C791.66,512.56,812.09,544.09,837.15,544.09z"/>
			<path class="st1" d="M845.94,542.77c20.92-6.32,36.7-34.75,36.7-68.87c0-34.12-15.78-62.55-36.7-68.87
				c-20.91,6.32-36.7,34.75-36.7,68.87C809.25,508.02,825.03,536.45,845.94,542.77z"/>
			<path class="st4" d="M846.56,542.58c12.15-3.94,22.5-15.35,28.97-30.98c-2.97-3.41-4.67-10.45-0.75-20.93
				c2.4-6.42,5.13-9.37,7.66-10.19c0.13-2.16,0.2-4.36,0.2-6.57c0-2.22-0.07-4.41-0.2-6.58c-2.53-0.81-5.26-3.77-7.66-10.18
				c-3.92-10.5-2.22-17.53,0.75-20.93c-6.46-15.62-16.82-27.04-28.97-30.98c-20.6,6.69-36.06,34.89-36.06,68.67
				C810.5,507.68,825.97,535.89,846.56,542.58L846.56,542.58z M855.97,440.38c-14.78,0-12.7-20.51-7.7-22.16
				c5.14-1.69,10.27-1.74,15.4,0C868.7,419.92,870.72,440.38,855.97,440.38L855.97,440.38z M837.16,457.14
				c-7.39,19.76-17.86,6.72-16.29-0.79c1.62-7.71,4.16-14.6,7.7-20.59C832.05,429.9,844.53,437.44,837.16,457.14L837.16,457.14z
				 M837.16,490.67c7.39,19.76-5.16,27.23-8.58,21.37c-3.52-6.02-6.11-12.85-7.7-20.59C819.32,483.87,829.79,470.96,837.16,490.67
				L837.16,490.67z M855.97,507.43c14.79,0,12.7,20.51,7.7,22.16c-5.13,1.69-10.27,1.75-15.41,0
				C843.24,527.88,841.23,507.43,855.97,507.43z"/>
			<path class="st2" d="M843.22,543.46c12.98-2.67,24.23-13.8,31.36-29.67c-4.7,1.54-12.72-6.42-6.47-23.13
				c4.79-12.82,10.88-11.83,14.14-7.51c0.26-3.03,0.39-6.11,0.39-9.25c0-3.14-0.14-6.22-0.39-9.25c-3.26,4.32-9.35,5.29-14.14-7.51
				c-6.26-16.73,1.78-24.65,6.47-23.13c-7.12-15.87-18.37-26.99-31.35-29.66c-22.24,4.58-39.4,33.98-39.4,69.56
				S820.98,538.88,843.22,543.46L843.22,543.46z M849.3,440.38c-14.78,0-12.7-20.51-7.7-22.16c5.13-1.69,10.27-1.74,15.4,0
				C862.03,419.92,864.04,440.38,849.3,440.38L849.3,440.38z M830.49,457.14c-7.39,19.76-17.86,6.72-16.29-0.79
				c1.62-7.71,4.16-14.6,7.7-20.59C825.38,429.9,837.86,437.44,830.49,457.14L830.49,457.14z M830.49,490.67
				c7.39,19.76-5.16,27.23-8.58,21.37c-3.52-6.02-6.11-12.85-7.7-20.59C812.65,483.87,823.12,470.96,830.49,490.67L830.49,490.67z
				 M849.3,507.43c14.78,0,12.7,20.51,7.7,22.16c-5.13,1.69-10.27,1.75-15.4,0C836.57,527.88,834.56,507.43,849.3,507.43z"/>
			<path class="st4" d="M849.73,459.56c-5.42,0-9.81,6.77-9.81,15.13c0,8.35,4.39,15.13,9.81,15.13c5.42,0,9.81-6.77,9.81-15.13
				C859.53,466.33,855.14,459.56,849.73,459.56z"/>
		</g>
	</g>
	<path class="st5" d="M1441.19,394.84l-12.4-32.66l-22.18-49.88c-24.46-31.82-115.78-57.74-197.44-78.91
		c-75.06-51.66-185.66-124.03-234.23-137.04C863.84,66.58,747.83,58.54,628.61,55.52c-150.94-3.83-317.34,15.37-443.79,44.8
		c-9.89,2.3-16.09,7.19-20.47,12.1c-43.08,48.31-81.01,97.53-111.06,147.54c-5.03,17.5-13.58,43.03,0.11,57.31l-16.07,54.56
		c-2.06,7-3.11,14.44-2.44,21.6l6.15,66.06c0.51,5.53,1.59,9.68,3.9,13.45l7.61,12.4c2.26,3.68,5.65,6.52,9.63,7.63l44.91,12.5
		c8.11,2.27,13.2-2.01,12.89-10.14c-0.56-14.54-0.47-34.7,0.22-44.76c4-57.76,38.09-107.61,90.49-107.61
		c52.4,0,78.72,47.98,90.49,107.61c3.47,17.6,6.89,35.05,10.64,52.46c1.49,6.92,10.45,20.88,17.94,20.88h414.73
		c8.53,0,10.76-4.33,8.97-13.52c-3.79-19.35-4.88-39.61-3.46-59.82c4.04-57.77,38.09-107.61,90.49-107.61
		c52.4,0,78.7,47.96,90.49,107.61c3.48,17.62,6.86,35.04,10.64,52.46c1.5,6.94,10.45,20.88,17.94,20.88h467.12
		c8.68,0,18.6-12.81,18.56-23.47l-6.18-26.55c-1.56-6.7,6.04-6.77,6.04-13.26l-0.16-46.29
		C1444.92,407.47,1443.55,401.06,1441.19,394.84z"/>
	<path class="st0" d="M1209.17,233.39l-0.14-0.1l-0.14-0.1l-0.14-0.1l-0.14-0.1l-0.14-0.1l-0.14-0.1l-0.14-0.1l-0.14-0.1l-0.14-0.1
		l-0.14-0.1l-0.14-0.1l-0.14-0.1l-0.14-0.1l-0.14-0.1l-0.14-0.1l-0.14-0.1l-0.14-0.1l-0.14-0.1l-0.14-0.1l-0.14-0.1l-0.14-0.1
		l-0.14-0.1l-0.14-0.1l-0.14-0.1l-0.13-0.09l-0.01-0.01l-0.14-0.1l-0.14-0.1l-0.14-0.1l-0.15-0.1l-0.14-0.1l-0.14-0.1l-0.15-0.1
		l-0.14-0.1l-0.14-0.1l-0.14-0.1l-0.14-0.1l-0.15-0.1l-0.14-0.1l-0.15-0.1l-0.14-0.1l-0.15-0.1l-0.15-0.1l-0.15-0.1l-0.14-0.1
		l-0.15-0.1l-0.14-0.1l-0.15-0.1l-0.15-0.1l-0.14-0.1l-0.11-0.08l-0.03-0.02l-0.15-0.1l-0.15-0.1l-0.15-0.1l-0.15-0.1l-0.15-0.1
		l-0.15-0.1l-0.15-0.1l-0.14-0.1l-0.15-0.1l-0.14-0.1l-0.15-0.1l-0.14-0.1l-0.15-0.1l-0.14-0.1
		c-72.59-49.66-172.73-114.58-221.06-129.57l-0.06-0.02l-0.06-0.02l-0.06-0.02l-0.06-0.02l-0.06-0.02l-0.06-0.02l-0.06-0.02
		l-0.06-0.02l-0.06-0.02l-0.06-0.02l-0.06-0.02l-0.06-0.02l-0.06-0.02l-0.06-0.02l-0.06-0.02l-0.06-0.02l-0.06-0.02l-0.06-0.02
		l-0.06-0.02l-0.06-0.02l-0.06-0.02l-0.06-0.02l-0.44-0.13l-0.06-0.02l-0.06-0.02l-0.06-0.02l-0.06-0.02
		c-0.57-0.17-1.14-0.33-1.7-0.48l-0.06-0.02L975,96.37l-0.06-0.02c-6.73-1.8-13.47-3.53-20.23-5.17H944.6H683.14
		c-6.11,0-8.23,5.02-4.45,8.09l156.62,127.12c5.8,4.71,12.01,7.01,18.67,7.01h351.04H1209.17z"/>
	<path class="st6" d="M1196.22,227.07H853.98c-5.59,0-10.37-2.1-14.69-5.6L686.54,97.5h284.53l3.32,0.88
		c21.37,5.73,46.48,19.3,65.82,30.01c29.27,16.2,57.88,34,85.99,52.12C1149.77,195.7,1173.08,211.26,1196.22,227.07z"/>
	<path class="st1" d="M1191.98,227.07h-338c-5.59,0-10.37-2.1-14.69-5.6l-88.96-72.2c21.11-1.27,42.62-1.93,64.46-1.93
		C964.25,147.34,1098.69,178.08,1191.98,227.07z"/>
	<path class="st7" d="M48.06,308.67c1.17,3.15,2.9,6.05,5.34,8.59l-16.07,54.56l-0.1,0.33c-1.63,5.65-2.6,11.57-2.54,17.4
		l9.33,78.28l14.4,23.47l50.03,14.48c7.31,1.44,11.83-2.8,11.53-10.46c-0.24-6.34-0.37-13.75-0.37-20.92
		c-0.03-8.16,0.13-15.97,0.47-21.84l0.03-0.52l0-0.07l0.03-0.44l0.02-0.28l0.01-0.21l0.03-0.48c0.06-0.9,0.13-1.8,0.21-2.7h0
		c0.08-0.9,0.16-1.8,0.25-2.69c0.09-0.9,0.19-1.78,0.3-2.67v0c0.11-0.89,0.22-1.77,0.34-2.66h0c0.12-0.88,0.25-1.77,0.38-2.64l0,0
		c0.13-0.88,0.27-1.76,0.42-2.63h0c0.15-0.87,0.3-1.74,0.47-2.61l0,0c0.16-0.87,0.33-1.73,0.51-2.59l0,0
		c0.18-0.86,0.36-1.72,0.55-2.57l0,0c0.19-0.85,0.39-1.7,0.59-2.55l0,0c0.2-0.85,0.41-1.69,0.63-2.53l0,0
		c0.22-0.84,0.44-1.68,0.67-2.51h0c0.23-0.83,0.47-1.66,0.72-2.49l0,0c0.49-1.65,1.01-3.28,1.55-4.9l0,0
		c0.27-0.81,0.55-1.61,0.84-2.41l0,0c0.29-0.8,0.58-1.59,0.88-2.38l0,0c0.3-0.79,0.6-1.57,0.91-2.36l0,0
		c0.31-0.78,0.63-1.56,0.95-2.33l0,0c0.32-0.77,0.66-1.54,0.99-2.3l0,0c1.02-2.28,2.09-4.52,3.22-6.71l0,0
		c0.38-0.73,0.76-1.45,1.15-2.17l0,0c0.39-0.72,0.78-1.43,1.18-2.13l0,0c0.8-1.41,1.63-2.8,2.48-4.16l0,0
		c0.85-1.36,1.73-2.7,2.63-4.01l0,0c0.45-0.65,0.91-1.31,1.37-1.95l0,0c0.46-0.64,0.93-1.28,1.4-1.9l0,0
		c0.95-1.26,1.92-2.49,2.92-3.69l0,0c0.5-0.6,1-1.19,1.51-1.78l0,0c0.51-0.59,1.02-1.16,1.54-1.73l0,0
		c0.52-0.57,1.05-1.13,1.58-1.69h0c0.53-0.56,1.07-1.1,1.61-1.64l0,0c0.54-0.54,1.09-1.07,1.65-1.6h0c0.56-0.52,1.12-1.04,1.68-1.55
		v0c0.57-0.51,1.14-1.01,1.72-1.5l0,0c0.58-0.49,1.16-0.98,1.75-1.45l0,0c0.59-0.47,1.18-0.94,1.78-1.4v0
		c0.6-0.46,1.21-0.91,1.82-1.35l0,0c0.61-0.44,1.23-0.87,1.85-1.29c0.62-0.42,1.25-0.84,1.88-1.24c0.63-0.4,1.27-0.8,1.91-1.19h0
		c0.64-0.39,1.29-0.77,1.94-1.13h0c0.65-0.37,1.31-0.72,1.97-1.07l0,0c0.66-0.35,1.33-0.69,2.01-1.02h0
		c0.67-0.33,1.35-0.65,2.04-0.96v0c0.69-0.31,1.38-0.61,2.07-0.9c0.7-0.29,1.4-0.57,2.1-0.84c0.71-0.27,1.41-0.53,2.13-0.78h0
		c0.71-0.25,1.43-0.49,2.16-0.71c0.72-0.23,1.45-0.44,2.19-0.65c0.74-0.21,1.47-0.4,2.22-0.59c0.74-0.19,1.5-0.36,2.25-0.52
		c0.75-0.16,1.51-0.31,2.28-0.45c0.76-0.14,1.53-0.27,2.3-0.39c0.77-0.12,1.55-0.23,2.34-0.32c0.78-0.09,1.57-0.18,2.36-0.25
		c0.79-0.07,1.59-0.13,2.39-0.18c0.8-0.05,1.61-0.08,2.42-0.11c0.81-0.02,1.62-0.04,2.44-0.04c52.4,0,78.72,47.98,90.49,107.61
		c3.47,17.6,6.89,35.05,10.64,52.46c1.49,6.92,10.45,20.88,17.94,20.88h414.73c8.39,0,10.69-4.18,9.06-13.05l-0.01-0.04l-0.08-0.39
		l-0.01-0.03l-0.17-0.91l-0.17-0.88l-0.01-0.03l-0.16-0.88l0-0.03l-0.16-0.88l0-0.03l-0.16-0.88l0-0.03l-0.15-0.88l0-0.03
		l-0.15-0.89l0-0.03l-0.29-1.8l0-0.03l-0.14-0.89l0-0.03l-0.27-1.81l0-0.03l-0.13-0.89l0-0.03l-0.12-0.9l0-0.03l-0.24-1.83l0-0.03
		c-0.27-2.15-0.5-4.31-0.71-6.48v-0.02l-0.09-0.91v-0.02l-0.08-0.91v-0.02l-0.08-0.91v-0.02l-0.08-0.92v-0.02l-0.07-0.92v-0.02
		l-0.07-0.92v-0.02l-0.06-0.92v-0.02l-0.06-0.92v-0.02l-0.05-0.92v-0.02l-0.1-1.86v-0.02l-0.04-0.92v-0.01l-0.04-0.93v-0.01
		l-0.04-0.93v-0.01l-0.06-1.87v-0.01l-0.03-0.93v-0.01l-0.02-0.93v-0.01l-0.03-1.88v-0.01c-0.01-0.94-0.02-1.89-0.02-2.83v-0.94
		l0-0.01l0-0.94l0-0.01l0.01-0.94v-0.01l0.01-0.94v-0.01l0.01-0.94l0-0.01l0.02-0.94v-0.01l0.02-0.94l0-0.01l0.03-0.94l0-0.01
		l0.03-0.94l0,0l0.03-0.94v0l0.04-0.94l0,0l0.04-0.94l0,0l0.04-0.94l0,0l0.05-0.95v0l0.05-0.94v0l0.06-0.95l0,0l0.06-0.95l0.07-0.95
		c0.06-0.9,0.13-1.8,0.21-2.7c0.08-0.9,0.16-1.8,0.26-2.69h0c0.09-0.89,0.19-1.79,0.3-2.68c0.11-0.89,0.22-1.78,0.34-2.66
		c0.12-0.89,0.25-1.77,0.39-2.65c0.13-0.88,0.28-1.75,0.43-2.63c0.15-0.87,0.3-1.74,0.47-2.61h0c0.16-0.87,0.33-1.73,0.51-2.59
		c0.18-0.86,0.36-1.72,0.55-2.57c0.19-0.86,0.39-1.71,0.59-2.55c0.2-0.85,0.42-1.69,0.64-2.53c0.22-0.84,0.44-1.68,0.68-2.51h0
		c0.23-0.83,0.47-1.66,0.72-2.49h0c0.25-0.83,0.5-1.65,0.76-2.47c0.26-0.82,0.53-1.63,0.8-2.44c0.27-0.81,0.55-1.61,0.84-2.41
		c0.29-0.8,0.58-1.59,0.88-2.38c0.3-0.79,0.6-1.58,0.92-2.36h0c0.31-0.78,0.63-1.56,0.95-2.33h0c0.32-0.77,0.66-1.54,0.99-2.3
		c0.34-0.76,0.68-1.52,1.03-2.27c0.35-0.75,0.71-1.5,1.07-2.24c0.36-0.74,0.73-1.47,1.11-2.2s0.76-1.45,1.15-2.17h0
		c0.39-0.72,0.78-1.43,1.18-2.13c0.4-0.71,0.81-1.41,1.22-2.1c0.41-0.69,0.83-1.39,1.26-2.07c0.43-0.68,0.86-1.36,1.3-2.03h0
		c0.44-0.67,0.88-1.33,1.33-1.99h0c0.45-0.65,0.9-1.3,1.37-1.95h0c0.46-0.64,0.93-1.28,1.41-1.91c0.47-0.63,0.96-1.25,1.44-1.87
		c0.49-0.61,0.98-1.22,1.48-1.82c0.5-0.6,1-1.19,1.51-1.78c0.51-0.59,1.02-1.17,1.55-1.74h0c0.52-0.57,1.05-1.14,1.58-1.69
		c0.53-0.56,1.07-1.1,1.62-1.64c0.54-0.54,1.09-1.07,1.65-1.6c0.56-0.52,1.12-1.04,1.68-1.55c0.57-0.51,1.14-1.01,1.72-1.5
		c0.58-0.49,1.16-0.98,1.75-1.45c0.59-0.47,1.18-0.94,1.78-1.4c0.6-0.46,1.21-0.91,1.82-1.35c0.61-0.44,1.23-0.87,1.85-1.3
		c0.62-0.42,1.25-0.84,1.88-1.24h0c0.63-0.4,1.27-0.8,1.91-1.19c0.64-0.39,1.29-0.76,1.94-1.13c0.65-0.37,1.31-0.72,1.98-1.07
		c0.66-0.35,1.33-0.69,2.01-1.02c0.67-0.33,1.36-0.65,2.04-0.96c0.69-0.31,1.37-0.61,2.07-0.9c0.7-0.29,1.39-0.57,2.1-0.84
		c0.71-0.27,1.42-0.53,2.13-0.78c0.71-0.25,1.43-0.49,2.16-0.71c0.72-0.23,1.45-0.44,2.19-0.65c0.74-0.21,1.47-0.4,2.22-0.59
		c0.74-0.19,1.49-0.36,2.25-0.52c0.75-0.16,1.51-0.31,2.28-0.45c0.76-0.14,1.53-0.27,2.31-0.39c0.77-0.12,1.55-0.23,2.33-0.32
		c0.78-0.09,1.57-0.18,2.36-0.25c0.79-0.07,1.59-0.13,2.39-0.18c0.8-0.05,1.61-0.08,2.42-0.11c0.81-0.02,1.62-0.04,2.44-0.04
		c52.4,0,78.7,47.96,90.49,107.61c3.48,17.62,6.86,35.04,10.64,52.46c1.5,6.94,10.45,20.88,17.94,20.88h176.05
		c32.53-32.72,45.55-67.73,27.38-106.41c-3.8-8.08-14.83-16.7-27.08-21c-58.56-20.57-122.52-42.45-149.8-69.73
		c-12.26-12.26-35.21-18.9-53.69-18.88L48.06,308.67z"/>
	<path class="st2" d="M1428.79,362.18l-21.94-49.34l-9.35,6.9c-2.98,2.2-4.67,6.12-3.94,10.46l6.87,40.74
		c0.89,5.27,6.44,7.32,10.03,4.68L1428.79,362.18z"/>
	<path class="st0" d="M777.48,243.88H157.41c-3.99,0-6.13-1.75-7.46-5.06l-13.31-33.1c-1.67-4.16-0.84-7.34,1.26-10.61l38.34-59.85
		c2.29-3.58,7.06-7.87,13.14-9.31c125.73-29.88,205.42-39.8,347.69-35.97c41.37,1.11,97.08,10.74,123.02,34.34l121.33,110.35
		C785.86,238.69,784.15,243.88,777.48,243.88z"/>
	<path class="st6" d="M775.21,237.55H516.93c0.19-22.72,1.97-46.15,4.83-69.61h0.01c3.01-24.64,7.11-48.72,11.76-71.74l3.39,0.09
		c34.66,0.93,92.76,8.88,118.94,32.69L775.21,237.55L775.21,237.55z M485.43,237.55H329.62c1.65-21.4,4.83-43.01,8.82-64.51
		c4.33-23.33,9.84-47.4,15.39-71.02c49.23-5.44,98.28-6.91,147.67-6.41c-4.45,22.56-8.32,45.61-11.11,68.5v0.06
		C487.44,188.43,485.61,213.07,485.43,237.55L485.43,237.55z M298,237.55H157.41c-0.23,0-0.85-0.01-1.07-0.12
		c-0.19-0.17-0.43-0.75-0.52-0.97l-13.31-33.1c-0.8-1.99-0.41-3.08,0.71-4.84l38.34-59.85c1.97-3.08,5.74-5.73,9.28-6.57
		c42.91-10.2,85.95-19.38,129.56-25.76c-4.58,19.74-9.06,40.03-12.96,61.03C303.11,190.74,299.68,214.26,298,237.55z"/>
	<path class="st1" d="M775.21,237.55H516.93c0.19-22.72,1.97-46.15,4.83-69.61h0.01c0.78-6.43,1.64-12.83,2.57-19.17
		c65.36,3.37,127.02,12.64,182.6,26.68L775.21,237.55L775.21,237.55z M469.09,147.34c-43.88,0-86.47,2.65-127.1,7.64
		c-1.25,6.06-2.43,12.09-3.54,18.07c-3.99,21.49-7.17,43.11-8.82,64.51h155.81c0.17-24.48,2.01-49.12,4.96-73.38v-0.06
		c0.67-5.5,1.4-11,2.19-16.51C484.8,147.43,476.97,147.34,469.09,147.34L469.09,147.34z M308.92,159.63
		c-61.4,9.71-117.64,24.83-166.22,44.21l13.12,32.63c0.09,0.22,0.34,0.81,0.52,0.97c0.22,0.11,0.84,0.12,1.07,0.12H298
		c1.68-23.29,5.11-46.81,9.45-70.19C307.93,164.77,308.42,162.19,308.92,159.63z"/>
	<path class="st2" d="M1002.94,307.81c-6.24-0.26-9.4,6.38-6,10.33l0,0c10.31,12.01,52.71,38.79,102.26,48.09l66.98,12.58
		c7.4,1.39,10.8-5.02,7.3-11.25c-26.64-47.37-53.14-54.9-91.21-56.47L1002.94,307.81z"/>
	<path class="st8" d="M1191.12,327.38c59.82-6.25,118.61-4.58,180.28,3.1c4.95,0.62,8.08,3.56,8.59,7.71l6.84,55.35
		c0.78,6.32-0.48,15.01-7.41,17.21c-43.27,13.73-88.93,12.92-137.18,0c-9.19-2.46-15.6-9.88-20.4-17.21l-36.2-55.35
		C1182.23,332.95,1184.5,328.07,1191.12,327.38z"/>
	<path class="st0" d="M1191.12,327.38c22.17-2.32,44.21-3.55,66.3-3.78c32.22,0.34,64.67,2.74,97.96,6.88
		c4.95,0.62,8.08,3.56,8.59,7.71l6.84,55.35c0.78,6.32-0.48,15.01-7.41,17.21c-18.78,5.96-38.01,9.18-57.7,9.86
		c-20.64-0.7-41.78-4.05-63.45-9.86c-9.19-2.46-15.6-9.88-20.4-17.21l-36.2-55.35C1182.23,332.95,1184.5,328.07,1191.12,327.38z"/>
	<path class="st8" d="M1400.12,467.11h-188.14c-5.71,0-10.58,1.87-14.46,5.6l-14.05,13.49c-3.95,3.79-4.16,8.4,0.56,11.14l12.56,7.3
		c5.04,2.92,10.05,3.93,15.08,3.93h191.01c3.26,0,6.13-1.73,7.85-4.36l4.65-7.14c1.89-2.91,1.86-6.24,0.65-9.3l-5.11-12.95
		C1408.91,470.24,1405.27,467.11,1400.12,467.11z"/>
	<path class="st0" d="M1387.03,467.11h-175.05c-5.71,0-10.58,1.87-14.46,5.6l-14.05,13.49c-3.95,3.79-4.16,8.4,0.56,11.14l12.56,7.3
		c4.96,2.88,9.9,3.9,14.84,3.93h0.24h177.92c3.26,0,6.13-1.73,7.85-4.36l4.65-7.14c1.89-2.91,1.86-6.24,0.65-9.3l-5.11-12.95
		C1395.82,470.24,1392.19,467.11,1387.03,467.11z"/>
	<path class="st8" d="M1173.91,467.11h-52.62c-6.06,0-11.3,1.78-15.04,5.41l-13.83,13.45c-4.25,4.13-2.48,9.74,4.1,9.74h52.58
		c5.29,0,9.42-1.7,12.19-4.32l16.42-15.56C1180.53,473.16,1179.33,467.11,1173.91,467.11z"/>
	<path class="st0" d="M1159.97,467.11h-38.69c-6.06,0-11.3,1.78-15.04,5.41l-13.83,13.45c-4.25,4.13-2.48,9.74,4.1,9.74h38.65
		c5.29,0,9.42-1.7,12.19-4.32l16.42-15.56C1166.59,473.16,1165.39,467.11,1159.97,467.11z"/>
	<path class="st0" d="M438.68,276.76h34.33c3.3,0,6,2.7,6,6v0c0,3.3-2.7,6-6,6h-34.33c-3.3,0-6-2.7-6-6v0
		C432.68,279.45,435.38,276.76,438.68,276.76z"/>
	<path class="st0" d="M106.47,276.76h198.47c3.31,0,6,2.7,6,6v0c0,3.3-2.69,6-6,6H106.47c-3.3,0-6-2.7-6-6v0
		C100.47,279.45,103.18,276.76,106.47,276.76z"/>
	<path class="st0" d="M529.28,276.76h34.33c3.3,0,6,2.7,6,6v0c0,3.3-2.7,6-6,6h-34.33c-3.3,0-6-2.7-6-6v0
		C523.28,279.45,525.98,276.76,529.28,276.76z"/>
	<path class="st9" d="M53.29,259.95c3.09-7.82,7.68-15.55,14.49-23.13l4.69,42.64l-19.06,37.8
		C39.76,303.02,47.89,279.01,53.29,259.95z"/>
	<path class="st10" d="M1314.65,365.81h-34.9c-4.2,0-7.63,3.43-7.63,7.63v0c0,4.2,3.43,7.64,7.63,7.64h34.9
		c4.2,0,7.63-3.43,7.63-7.64v0C1322.28,369.24,1318.85,365.81,1314.65,365.81z"/>
	<path class="st11" d="M1322.6,365.81h-34.9c-4.2,0-7.63,3.43-7.63,7.63v0c0,4.2,3.43,7.64,7.63,7.64h34.9
		c4.2,0,7.63-3.43,7.63-7.64v0C1330.23,369.24,1326.8,365.81,1322.6,365.81z"/>
	<path class="st12" d="M1124.2,492.32c4.49,0,8.15-4.9,8.15-10.92s-3.66-10.91-8.15-10.91s-8.15,4.9-8.15,10.91
		S1119.71,492.32,1124.2,492.32z"/>
	<path class="st8" d="M1426.69,467.11h-4.71c-3.36,0-5.82,2.87-4.6,6.1l6.22,16.42c1.22,3.23,4.24,6.1,7.59,6.1h2.52
		c3.36,0,5.43-2.74,4.6-6.1l-4.03-16.42C1433.46,469.85,1430.05,467.11,1426.69,467.11z"/>
	<g>
		<linearGradient id="SVGID_1_" gradientUnits="userSpaceOnUse" x1="710.845" y1="192.4399" x2="709.3844" y2="234.267">
			<stop  offset="0" style="stop-color:#3D7EC1"/>
			<stop  offset="1" style="stop-color:#2B6DB5"/>
		</linearGradient>
		<path class="st13" d="M671.69,192.27c1.13-3.32,5.44-6.26,10.61-6.63c10.61-0.75,28.2-1.77,34.15,0.76
			c6.19,2.64,31.19,31.64,34.45,41.29c1.84,5.44-0.38,11.21-11.21,11.19l-56.36-0.05c-4.58,0-9.79-1.65-11.27-5.38
			C666.87,220.29,667.01,206.06,671.69,192.27z"/>
		<path class="st14" d="M671.69,192.27c0.23-0.66,0.58-1.33,1.05-1.98l6.97-0.33c6.27-0.3,7.11,3.47,7.95,8.07l4.84,26.53
			c0.84,4.6-3.61,8.62-9.88,8.92l-10.32,0.49c-0.08-0.17-0.16-0.34-0.23-0.51C666.86,220.29,667.01,206.06,671.69,192.27z"/>
	</g>
	<path class="st11" d="M1426.7,471.49c1.72,0,4.18,4.44,5.5,9.93c1.32,5.48,0.99,9.92-0.73,9.92s-4.18-4.44-5.5-9.92
		C1424.66,475.93,1424.98,471.49,1426.7,471.49z"/>
</g>
</svg>
