<?xml version="1.0" encoding="utf-8"?>
<!-- Generator: Adobe Illustrator 25.1.0, SVG Export Plug-In . SVG Version: 6.00 Build 0)  -->
<svg version="1.1" id="Layer_1" xmlns="http://www.w3.org/2000/svg" xmlns:xlink="http://www.w3.org/1999/xlink" x="0px" y="0px"
	 viewBox="0 0 1422.51 591.72" style="enable-background:new 0 0 1422.51 591.72;" xml:space="preserve">
<style type="text/css">
	.st0{fill-rule:evenodd;clip-rule:evenodd;fill:#0F0F0F;}
	.st1{fill-rule:evenodd;clip-rule:evenodd;fill:#808080;}
	.st2{fill-rule:evenodd;clip-rule:evenodd;fill:#1A1A1A;}
	.st3{fill-rule:evenodd;clip-rule:evenodd;fill:#FFFFFF;}
	.st4{fill-rule:evenodd;clip-rule:evenodd;fill:#989898;}
	.st5{fill-rule:evenodd;clip-rule:evenodd;fill:#666666;}
	.st6{fill-rule:evenodd;clip-rule:evenodd;fill:#368023;}
	.st7{fill-rule:evenodd;clip-rule:evenodd;fill:#121212;}
	.st8{fill-rule:evenodd;clip-rule:evenodd;fill:#2E333D;}
	.st9{fill-rule:evenodd;clip-rule:evenodd;fill:#333333;}
	.st10{fill-rule:evenodd;clip-rule:evenodd;fill:#E5E5E5;}
	.st11{fill-rule:evenodd;clip-rule:evenodd;fill:#292929;}
	.st12{fill-rule:evenodd;clip-rule:evenodd;fill:#2E6C1E;}
	.st13{fill-rule:evenodd;clip-rule:evenodd;fill:#418D2E;}
	.st14{fill-rule:evenodd;clip-rule:evenodd;fill:#4D4D4D;}
	.st15{fill-rule:evenodd;clip-rule:evenodd;fill:#CBCBCB;}
	.st16{fill-rule:evenodd;clip-rule:evenodd;fill:#B2B2B2;}
</style>
<g id="_x39_">
	<path class="st0" d="M549.96,529.55h47.81c40.59,0,73.51-50.6,73.51-113.01c0-62.41-32.91-113.01-73.51-113.01h-47.81
		c-40.59,0-73.51,50.6-73.51,113.01C476.46,478.95,509.37,529.55,549.96,529.55z"/>
	<path class="st0" d="M1179.46,529.55h47.81c40.59,0,73.51-50.6,73.51-113.01c0-62.41-32.91-113.01-73.51-113.01h-47.81
		c-40.59,0-73.51,50.6-73.51,113.01C1105.95,478.95,1138.87,529.55,1179.46,529.55z"/>
	<path class="st0" d="M1269.24,523.96H151.28c-2.8,0-5.1,2.28-5.1,5.08l0,0c0,2.79,2.37,5.08,5.1,5.08h1117.97
		c2.73,0,5.1-2.28,5.1-5.08l0,0C1274.34,526.24,1272.05,523.96,1269.24,523.96L1269.24,523.96z M1350.08,523.96h-39.24
		c-2.81,0-5.09,2.28-5.09,5.08l0,0c0,2.79,2.36,5.08,5.09,5.08h39.24c2.73,0,5.09-2.28,5.09-5.08l0,0
		C1355.17,526.24,1352.88,523.96,1350.08,523.96L1350.08,523.96z M108.81,523.96H69.58c-2.8,0-5.1,2.28-5.1,5.08l0,0
		c0,2.79,2.35,5.08,5.1,5.08h39.24c2.75,0,5.1-2.28,5.1-5.08l0,0C113.91,526.24,111.62,523.96,108.81,523.96z"/>
	<polygon class="st0" points="1027.38,443.8 283.73,443.8 112.45,418.87 78.44,368.04 89.58,248.47 1027.38,248.47 	"/>
	<rect x="948.02" y="418.87" class="st1" width="332.74" height="24.94"/>
	<g>
		<path class="st0" d="M837.26,529.55h47.81c40.6,0,73.51-50.6,73.51-113.01c0-62.41-32.91-113.01-73.51-113.01h-47.81
			C793.05,303.53,791.6,529.55,837.26,529.55z"/>
		<path class="st2" d="M837.26,529.55c-40.48,0-73.5-50.77-73.5-113.01c0-62.24,33.02-113.01,73.5-113.01
			c40.49,0,73.51,50.77,73.51,113.01C910.76,478.78,877.74,529.55,837.26,529.55z"/>
		<g>
			<path class="st3" d="M837.26,496.3c-28.52,0-51.79-35.77-51.79-79.62c0-43.86,23.26-79.62,51.79-79.62
				c28.52,0,51.79,35.77,51.79,79.62C889.04,460.53,865.78,496.3,837.26,496.3z"/>
			<path class="st4" d="M837.26,484.97c-24.47,0-44.42-30.68-44.42-68.3c0-37.61,19.95-68.29,44.42-68.29s44.42,30.68,44.42,68.29
				C881.68,454.29,861.72,484.97,837.26,484.97z"/>
			<path class="st2" d="M845.85,483.69c20.42-6.15,35.83-33.81,35.83-67.01c0-33.2-15.41-60.86-35.83-67.02
				c-20.42,6.15-35.83,33.81-35.83,67.02C810.01,449.88,825.42,477.54,845.85,483.69z"/>
			<path class="st5" d="M846.45,483.51c11.86-3.84,21.97-14.94,28.28-30.15c-2.9-3.32-4.56-10.17-0.73-20.37
				c2.34-6.25,5.01-9.12,7.48-9.91c0.13-2.11,0.2-4.24,0.2-6.4c0-2.16-0.07-4.3-0.2-6.4c-2.47-0.79-5.14-3.67-7.48-9.91
				c-3.83-10.21-2.17-17.05,0.73-20.37c-6.31-15.21-16.42-26.31-28.28-30.15c-20.11,6.51-35.21,33.96-35.21,66.83
				C811.24,449.55,826.34,476.99,846.45,483.51L846.45,483.51z M855.64,384.06c-14.44,0-12.4-19.96-7.52-21.56
				c5.01-1.64,10.03-1.7,15.04,0C868.07,364.15,870.03,384.06,855.64,384.06L855.64,384.06z M837.27,400.37
				c-7.22,19.23-17.44,6.54-15.9-0.76c1.58-7.5,4.06-14.21,7.52-20.04C832.28,373.86,844.47,381.19,837.27,400.37L837.27,400.37z
				 M837.27,432.99c7.22,19.23-5.04,26.5-8.38,20.8c-3.43-5.85-5.97-12.51-7.52-20.04C819.85,426.38,830.07,413.82,837.27,432.99
				L837.27,432.99z M855.64,449.3c14.43,0,12.4,19.96,7.52,21.57c-5.01,1.64-10.03,1.7-15.04,0
				C843.21,469.2,841.24,449.3,855.64,449.3z"/>
			<path class="st3" d="M843.19,484.37c12.68-2.6,23.66-13.43,30.62-28.87c-4.59,1.5-12.42-6.25-6.32-22.5
				c4.68-12.47,10.62-11.51,13.81-7.31c0.25-2.95,0.39-5.95,0.39-9c0-3.05-0.13-6.06-0.39-9c-3.18,4.21-9.13,5.14-13.81-7.31
				c-6.11-16.28,1.74-23.99,6.32-22.51c-6.95-15.44-17.94-26.27-30.62-28.87c-21.72,4.46-38.47,33.06-38.47,67.69
				C804.72,451.3,821.47,479.91,843.19,484.37L843.19,484.37z M849.12,384.06c-14.44,0-12.4-19.96-7.52-21.56
				c5.01-1.64,10.03-1.7,15.04,0C861.55,364.15,863.52,384.06,849.12,384.06L849.12,384.06z M830.75,400.37
				c-7.22,19.23-17.44,6.54-15.9-0.76c1.58-7.5,4.06-14.21,7.52-20.04C825.76,373.86,837.95,381.19,830.75,400.37L830.75,400.37z
				 M830.75,432.99c7.22,19.23-5.04,26.5-8.38,20.8c-3.43-5.85-5.97-12.51-7.52-20.04C813.33,426.38,823.56,413.82,830.75,432.99
				L830.75,432.99z M849.12,449.3c14.44,0,12.4,19.96,7.52,21.57c-5.01,1.64-10.03,1.7-15.04,0
				C836.69,469.2,834.72,449.3,849.12,449.3z"/>
			<path class="st5" d="M849.54,402.72c-5.29,0-9.58,6.59-9.58,14.72c0,8.13,4.29,14.72,9.58,14.72c5.29,0,9.58-6.59,9.58-14.72
				C859.12,409.31,854.83,402.72,849.54,402.72z"/>
		</g>
	</g>
	<g>
		<path class="st0" d="M197.97,529.55h47.81c40.59,0,73.51-50.6,73.51-113.01c0-62.41-32.91-113.01-73.51-113.01h-47.81
			C153.76,303.53,152.32,529.55,197.97,529.55z"/>
		<ellipse class="st2" cx="197.97" cy="416.54" rx="73.51" ry="113.01"/>
		<g>
			<path class="st3" d="M197.97,496.3c-28.52,0-51.79-35.77-51.79-79.62c0-43.86,23.26-79.62,51.79-79.62
				c28.52,0,51.79,35.77,51.79,79.62C249.76,460.53,226.49,496.3,197.97,496.3z"/>
			<path class="st4" d="M197.97,484.97c-24.47,0-44.42-30.68-44.42-68.3c0-37.61,19.95-68.29,44.42-68.29s44.42,30.68,44.42,68.29
				C242.39,454.29,222.43,484.97,197.97,484.97z"/>
			<path class="st2" d="M206.56,483.69c20.42-6.15,35.83-33.81,35.83-67.01c0-33.2-15.41-60.86-35.83-67.02
				c-20.42,6.15-35.83,33.81-35.83,67.02C170.73,449.88,186.14,477.54,206.56,483.69z"/>
			<path class="st5" d="M207.16,483.51c11.86-3.84,21.97-14.94,28.28-30.15c-2.9-3.32-4.56-10.17-0.73-20.37
				c2.35-6.25,5.01-9.12,7.48-9.91c0.13-2.11,0.2-4.24,0.2-6.4c0-2.16-0.07-4.3-0.2-6.4c-2.47-0.79-5.14-3.67-7.48-9.91
				c-3.83-10.21-2.17-17.05,0.73-20.37c-6.31-15.21-16.42-26.31-28.28-30.15c-20.12,6.51-35.21,33.96-35.21,66.83
				C171.95,449.55,187.05,476.99,207.16,483.51L207.16,483.51z M216.35,384.06c-14.44,0-12.4-19.96-7.52-21.56
				c5.01-1.64,10.02-1.7,15.04,0C228.78,364.15,230.75,384.06,216.35,384.06L216.35,384.06z M197.99,400.37
				c-7.22,19.23-17.44,6.54-15.9-0.76c1.58-7.5,4.06-14.21,7.52-20.04C192.99,373.86,205.18,381.19,197.99,400.37L197.99,400.37z
				 M197.99,432.99c7.21,19.23-5.04,26.5-8.38,20.8c-3.44-5.85-5.97-12.51-7.52-20.04C180.56,426.38,190.79,413.82,197.99,432.99
				L197.99,432.99z M216.35,449.3c14.44,0,12.4,19.96,7.52,21.57c-5.01,1.64-10.02,1.7-15.04,0
				C203.92,469.2,201.96,449.3,216.35,449.3z"/>
			<path class="st3" d="M203.9,484.37c12.68-2.6,23.66-13.43,30.62-28.87c-4.59,1.5-12.42-6.25-6.32-22.5
				c4.68-12.47,10.63-11.51,13.81-7.31c0.25-2.95,0.38-5.95,0.38-9c0-3.05-0.13-6.06-0.38-9c-3.18,4.21-9.13,5.14-13.81-7.31
				c-6.11-16.28,1.74-23.99,6.32-22.51c-6.95-15.44-17.94-26.27-30.62-28.87c-21.72,4.46-38.47,33.06-38.47,67.69
				C165.43,451.3,182.19,479.91,203.9,484.37L203.9,484.37z M209.83,384.06c-14.43,0-12.4-19.96-7.52-21.56
				c5.01-1.64,10.03-1.7,15.04,0C222.27,364.15,224.23,384.06,209.83,384.06L209.83,384.06z M191.47,400.37
				c-7.22,19.23-17.44,6.54-15.9-0.76c1.58-7.5,4.06-14.21,7.52-20.04C186.48,373.86,198.66,381.19,191.47,400.37L191.47,400.37z
				 M191.47,432.99c7.21,19.23-5.04,26.5-8.38,20.8c-3.43-5.85-5.97-12.51-7.52-20.04C174.05,426.38,184.27,413.82,191.47,432.99
				L191.47,432.99z M209.83,449.3c14.44,0,12.4,19.96,7.52,21.57c-5.01,1.64-10.02,1.7-15.04,0
				C197.4,469.2,195.44,449.3,209.83,449.3z"/>
			<path class="st5" d="M210.25,402.72c-5.29,0-9.58,6.59-9.58,14.72c0,8.13,4.29,14.72,9.58,14.72c5.29,0,9.58-6.59,9.58-14.72
				C219.83,409.31,215.54,402.72,210.25,402.72z"/>
		</g>
	</g>
	<path class="st6" d="M1273.75,177.54c-46.31-9.67-117.2-16.13-179.59-19.92c-49.08-41.28-97.68-77.08-154-104.99
		c-42.62-21.13-101.99-20.91-164.08-22.2c-99.95-2.08-202.27-1.67-306.4,2.61c-22.62,0.93-43.96,4.49-63.13,10.42
		c-9.19,2.85-16.21,9.02-19.92,16.55c-18.33,37.22-30.84,75.32-41.25,115.77l-264.5,0.22c-6.54,0-11.17,3.33-13.17,8.19l-11.64,28.2
		c-6.59,45.81-11.9,96.76-6.78,136.09l10.21,70.4h53.27c-0.81-6.32-3.64-21.53-1.25-48.84c3.72-42.57,41.54-90.33,86.5-90.33
		c53.58,0,97.02,57.11,97.02,127.56c0,3.92-0.14,7.79-0.4,11.61h456.7c-0.81-6.32-5.47-21.54-3.09-48.84
		c3.71-42.56,43.38-92.17,88.34-92.17c53.58,0,117.3,58.95,117.3,129.4c0,3.92-0.14,7.79-0.4,11.61h18.05h386.04
		c7.75,0,11.45-7.37,11.53-14.76l0.97-88.26c-0.76-7.86-2.45-14.47-11.27-16.75l-6.04-71.91c-11.39-19.13-22.26-15.23-30.61-25.42
		c-2.97-3.63-6.41-7.38-10.21-10.89C1305.83,185.23,1283.61,179.6,1273.75,177.54z"/>
	<path class="st7" d="M434.02,56.31l140.42-2.25c35.12,0.92,76.75,2.62,93.62,20.32c22.76,23.22,46.16,45.8,63.94,73.21
		c8.71,13.43,2.49,28.18-14.05,28.18H438.12c-18.3,0-41.03-14.09-51.52-24.55c-2.73-2.72-4.11-5.49-2.63-10.13l21.99-68.84
		C409.99,59.64,416.77,56.59,434.02,56.31z"/>
	<path class="st7" d="M1094.15,157.61c-48.25-40.57-96.03-75.86-151.14-103.56H698.58c-3.78,0-4.8,2.44-2.78,4.7l84.58,94.67
		c2.29,2.57,6.14,4.19,9.92,4.19H1094.15z"/>
	<path class="st8" d="M1084.68,152.1H790.29c-2,0-4.44-0.84-5.78-2.34l-80.57-90.19h245.81
		C998.58,85.05,1042.36,117.04,1084.68,152.1L1084.68,152.1z M574.42,59.58l-14.69,0.23c-9.71,36.68-17.24,73.49-22.45,110.45
		h180.68c12.32,0,15.61-10.1,9.4-19.68c-17.51-27-41-49.38-63.27-72.38C647.29,60.87,598.33,60.2,574.42,59.58L574.42,59.58z
		 M499.07,170.26h-60.96c-15.55,0-36.88-12.25-47.6-22.93c-1.6-1.59-1.98-2.34-1.27-4.56l21.99-68.84
		c3.79-11.86,11.32-11.93,22.88-12.12l95-1.52C516.94,96.39,507.03,133.94,499.07,170.26z"/>
	<path class="st2" d="M1084.68,152.1H790.29c-2,0-4.44-0.84-5.78-2.34l-37.43-41.89c19.4-0.83,39.08-1.26,59.01-1.26
		c90.67,0,176.35,8.78,252.35,24.36C1067.27,137.86,1076.01,144.92,1084.68,152.1L1084.68,152.1z M708.25,125.09
		c6.85,8.12,13.31,16.56,19.11,25.5c6.21,9.57,2.92,19.68-9.4,19.68H537.28c2.44-17.28,5.38-34.52,8.82-51.74
		c8.55-0.16,17.15-0.25,25.8-0.25C618.91,118.28,664.57,120.65,708.25,125.09L708.25,125.09z M511.33,119.6
		c-40.79,1.78-80.29,5.35-118.04,10.5l-4.05,12.67c-0.71,2.21-0.33,2.96,1.27,4.56c10.72,10.68,32.06,22.93,47.6,22.93h60.96
		C502.73,153.55,506.81,136.58,511.33,119.6z"/>
	<path class="st9" d="M345.39,175.77l-9.35,0.01c-7.23,41.32-11.59,82.26-11.98,122.66c-0.38,40.24,3.2,81.58,11.86,120.43h9.42
		c-8.82-38.75-12.47-80.13-12.09-120.35C333.62,258.27,338.06,217.28,345.39,175.77z"/>
	<path class="st10" d="M1358.56,296.11c4.93,0,1.32-58.49-4.92-58.49c-5.83,0.93-10.41,6.55-9.88,11.69l4.03,38.23
		c0.52,4.91,3.39,8.69,7.95,8.62L1358.56,296.11z"/>
	<path class="st11" d="M750.35,418.87h1c-0.81-6.32-3.64-21.53-1.25-48.84c3.72-42.57,41.54-90.33,86.5-90.33
		c34.14,0,64.17,23.18,81.45,58.23c2.97,6.01,7.55,10.95,12.75,10.95l16.18-0.35c6.98,0,6.59-7.62,5.52-10.67
		c-19.94-56.75-63.65-96.12-114.33-96.12c-58.35,0-106.9,61.83-104.82,117.22C734.52,390.3,746.72,409.21,750.35,418.87z"/>
	<path class="st11" d="M112.45,418.87h0.33c-0.81-6.32-3.64-21.53-1.25-48.84c3.72-42.57,41.54-90.33,86.5-90.33
		c53.58,0,97.02,57.11,97.02,127.56c0,3.92-0.14,7.79-0.4,11.61l23.38-70.33C300,286.1,254.08,241.72,200.27,241.72
		c-58.35,0-106.9,61.83-104.82,117.22C96.63,390.3,108.82,409.21,112.45,418.87z"/>
	<path class="st2" d="M527,202.86h37.06c3.11,0,5.65,2.53,5.65,5.63v0c0,3.1-2.54,5.63-5.65,5.63H527c-3.11,0-5.65-2.53-5.65-5.63v0
		C521.35,205.39,523.89,202.86,527,202.86z"/>
	<path class="st2" d="M365.06,202.86h37.06c3.11,0,5.65,2.53,5.65,5.63v0c0,3.1-2.54,5.63-5.65,5.63h-37.06
		c-3.11,0-5.65-2.53-5.65-5.63v0C359.41,205.39,361.95,202.86,365.06,202.86z"/>
	<path class="st11" d="M1367.93,418.87h-422.3c-6.24,0-10.4-5.16-11.35-11.31l-7.37-47.79c-0.95-6.15,5.12-11.31,11.35-11.31h429.68
		c6.23,0,11.35,5.1,11.35,11.31v7.01h-6.36v33.77h6.36v7.01C1379.27,413.77,1374.17,418.87,1367.93,418.87z"/>
	<path class="st2" d="M1374.51,366.78v33.77h-18.17c-2.36,0-4.29-1.92-4.29-4.27v-25.23c0-2.35,1.93-4.27,4.29-4.27H1374.51z"/>
	<g>
		<path class="st12" d="M645.97,120.11h39.88c23.58,0,23.58,47.94,0,47.94h-39.88c-9.33,0-16.96-7.6-16.96-16.9v-14.13
			C629.01,127.72,636.64,120.11,645.97,120.11z"/>
		<path class="st6" d="M693.24,144.84l24.61,1.64c5.68,0.38,10.33,2.15,10.81,8.67c0.89,12.02-11.58,18.86-22.47,16.14l-15.55-3.89
			c-3.37-0.84-7.19-2.94-6.31-6.29l2.61-9.98C687.8,147.78,689.78,144.61,693.24,144.84z"/>
		<path class="st13" d="M636.77,129.29L636.77,129.29c4.26,0,7.75,3.49,7.75,7.73v18.13c0,3.49,2.1,5.36,5.46,5.36h36.95
			c7.09,0,7.11,7.53,0,7.53h-40.96c-10.28,0-16.96-7.76-16.96-17.41v-13.62C629.01,132.77,632.5,129.29,636.77,129.29z"/>
	</g>
	<polygon class="st9" points="318.03,348.46 733.55,348.46 751.35,418.87 294.65,418.87 	"/>
	<polygon class="st11" points="746.47,399.59 751.35,418.87 294.65,418.87 301.05,399.59 	"/>
	<polygon class="st14" points="318.03,348.46 733.55,348.46 739.9,373.61 309.67,373.61 	"/>
	<path class="st9" d="M1103.64,220.67h206.75c8.89,0,16.99,7.25,17.98,16.12l9.03,80.67c0.99,8.86-5.47,16.12-14.37,16.12h-236.14
		c-11.27,0-19.69-8.13-17.12-20.68l15.56-76.11C1087.11,228.05,1094.74,220.67,1103.64,220.67z"/>
	<path class="st2" d="M1103.64,220.67h192.03c8.89,0,16.99,7.25,17.98,16.12l9.03,80.67c0.99,8.86-5.47,16.12-14.37,16.12h-221.42
		c-11.27,0-19.69-8.13-17.12-20.68l15.56-76.11C1087.11,228.05,1094.74,220.67,1103.64,220.67z"/>
	<path class="st3" d="M1044.29,237.49l-98.89-0.79c-8.72-0.07-8.82,6.05-5.13,10.21l36.21,40.79c2.88,3.25,8.38,7.63,12.92,7.7
		l46.99,0.76c4.55,0.07,7.9-3.71,9.04-8.62l8.84-38.23C1055.57,243.71,1050.85,237.54,1044.29,237.49z"/>
	<rect x="1072.36" y="261.15" class="st12" width="268.93" height="31.95"/>
	<path class="st15" d="M1272.27,443.8h-226.54h-14.37l56.47-37.09c7.16-4.73,13.21-6.16,21.77-6.16h221.11
		c8.63,0,11.23,11.6,3.52,15.38l-41.35,20.26C1285.7,440.92,1277.02,443.8,1272.27,443.8z"/>
	<polygon class="st12" points="1237.58,268.25 1213.3,268.25 1203.08,272.47 1203.08,283.45 1225.44,288.43 1236.11,288.43 	"/>
	<path class="st16" d="M1283.4,443.8h-237.67l45.79-30.32c7.16-4.73,13.21-6.16,17.96-6.16h224.51c4.75,0,7.4,3.87,0.24,8.61
		l-29.16,19.27C1297.9,439.93,1288.16,443.8,1283.4,443.8z"/>
	<polygon class="st16" points="1256.64,272.47 1246.41,268.26 1222.13,268.26 1211.9,272.47 1211.9,283.45 1234.27,288.43 
		1256.64,283.45 	"/>
	<path class="st1" d="M1282.02,420.15l-17.02,10.83c-6.48,4.12-31.46,8.42-18.23,0l17.02-10.83
		C1270.26,416.03,1295.27,411.72,1282.02,420.15L1282.02,420.15z M1219.36,420.15l-17.02,10.83c-6.48,4.12-31.46,8.42-18.23,0
		l17.02-10.83C1207.6,416.03,1232.61,411.72,1219.36,420.15L1219.36,420.15z M1156.7,420.15l-17.02,10.83
		c-6.48,4.12-31.46,8.42-18.23,0l17.02-10.83C1144.94,416.03,1169.95,411.72,1156.7,420.15z"/>
	<path class="st9" d="M1316.88,366.78h-197.61c-3.93,0-7.15,3.21-7.15,7.12v19.53c0,3.91,3.22,7.12,7.15,7.12h197.61
		c3.92,0,7.15-3.21,7.15-7.12V373.9C1324.02,369.98,1320.81,366.78,1316.88,366.78z"/>
	<path class="st2" d="M1305.15,366.78h-185.89c-3.93,0-7.15,3.21-7.15,7.12v19.53c0,3.91,3.22,7.12,7.15,7.12h185.89
		c3.92,0,7.15-3.21,7.15-7.12V373.9C1312.3,369.98,1309.09,366.78,1305.15,366.78z"/>
	<path class="st9" d="M1050.38,366.78h-60.52c-3.93,0-7.15,3.21-7.15,7.12v19.53c0,3.91,3.23,7.12,7.15,7.12h60.52
		c3.92,0,7.15-3.21,7.15-7.12V373.9C1057.53,369.98,1054.32,366.78,1050.38,366.78z"/>
	<path class="st2" d="M1038.66,366.78h-48.8c-3.93,0-7.15,3.21-7.15,7.12v19.53c0,3.91,3.23,7.12,7.15,7.12h48.8
		c3.92,0,7.15-3.21,7.15-7.12V373.9C1045.81,369.98,1042.59,366.78,1038.66,366.78z"/>
	<path class="st16" d="M672.06,418.87H338.91c-3.76,0-6.83,3.06-6.83,6.8v0c0,3.75,3.07,6.8,6.83,6.8h333.14
		c3.75,0,6.83-3.06,6.83-6.8v0C678.88,421.93,675.81,418.87,672.06,418.87z"/>
	<path class="st1" d="M716.75,418.87h-41.8c-3.76,0-6.83,3.06-6.83,6.8l0,0c0,3.74,3.11,6.81,6.83,6.81h34.97
		c3.72,0,6.83-3.06,6.83-6.81L716.75,418.87z"/>
	<path class="st11" d="M72.88,418.87h-19.8c-6.5,0-15.13-16.91-15.13-19.28v-30.63c0-5.33,6.01-20.49,11.35-20.49h9.92
		c4.76,5.24,8,11.76,9.51,19.75l10.23,35.01C78.67,409.1,76.59,414.29,72.88,418.87z"/>
	<polygon class="st12" points="56.08,212.38 63.13,212.38 67.57,218.88 63.97,247.02 50.76,254.35 46.28,246.43 50.22,217.99 	"/>
	<path class="st12" d="M734.27,278.13c1.73-3.09,0.61-7-2.5-8.72c-3.1-1.72-7.02-0.6-8.75,2.49l-23.9,42.8l-308.19-0.04
		l-36.87-53.16c-2.02-2.91-6.03-3.64-8.95-1.63c-2.92,2.01-3.66,6.01-1.64,8.92l38.79,55.92l0,0c1.16,1.67,3.1,2.77,5.29,2.77
		l315.09,0.04c2.35,0.09,4.67-1.1,5.89-3.29L734.27,278.13z"/>
	<path class="st15" d="M1024.11,374.34c5.22,0,9.45,4.21,9.45,9.42c0,5.2-4.23,9.42-9.45,9.42c-5.22,0-9.45-4.21-9.45-9.42
		C1014.66,378.55,1018.89,374.34,1024.11,374.34L1024.11,374.34z M998.35,374.34c5.22,0,9.45,4.21,9.45,9.42
		c0,5.2-4.23,9.42-9.45,9.42c-5.22,0-9.45-4.21-9.45-9.42C988.9,378.55,993.13,374.34,998.35,374.34z"/>
</g>
</svg>
