<?xml version="1.0" encoding="utf-8"?>
<!-- Generator: Adobe Illustrator 25.1.0, SVG Export Plug-In . SVG Version: 6.00 Build 0)  -->
<svg version="1.1" id="Layer_1" xmlns="http://www.w3.org/2000/svg" xmlns:xlink="http://www.w3.org/1999/xlink" x="0px" y="0px"
	 viewBox="0 0 4680 3120" style="enable-background:new 0 0 4680 3120;" xml:space="preserve">
<style type="text/css">
	.st0{fill:#7D99A0;}
	.st1{opacity:0.1;}
	.st2{fill:#4B4F5E;}
	.st3{fill:#7FBFBF;}
	.st4{fill:#B8E3E8;}
	.st5{clip-path:url(#SVGID_2_);}
	.st6{opacity:0.5;}
	.st7{fill:#FFFFFF;}
	.st8{opacity:0.2;}
	.st9{fill:#E4F5F8;}
	.st10{fill:#963809;}
	.st11{fill:#D66F36;}
	.st12{fill:#E9F2F2;}
	.st13{fill:#A5AFAE;}
	.st14{fill:#B6C6C5;}
	.st15{fill:#9B2929;}
	.st16{fill:#CE3C3C;}
	.st17{fill:#61A3A1;}
	.st18{fill:#95DBD9;}
	.st19{opacity:0.3;}
	.st20{fill:#252526;}
	.st21{fill:#FFCB6E;}
	.st22{opacity:0.4;}
	.st23{fill:#E07E27;}
	.st24{fill:#E29E24;}
	.st25{fill:#4F4F4F;}
	.st26{fill:#707070;}
	.st27{fill:#F4B942;}
	.st28{fill:#63270C;}
	.st29{fill:#B6FFFB;}
	.st30{fill:#4A8B88;}
	.st31{fill:#FFFFE6;}
	.st32{fill:#FFE3A4;}
	.st33{fill:#FCDB7E;}
</style>
<rect y="1792.75" class="st0" width="4679.87" height="1327.25"/>
<g class="st1">
	<g>
		<polygon class="st2" points="1006.93,1841.53 976.59,1841.53 332.63,3120 362.98,3120 		"/>
		<polygon class="st2" points="2355.36,1841.53 2325.02,1841.53 2120.7,3120 2151.04,3120 		"/>
		<polygon class="st2" points="3703.79,1841.53 3673.45,1841.53 3909.77,3120 3940.11,3120 		"/>
		<rect x="0.13" y="2756.72" class="st2" width="4679.87" height="44.26"/>
	</g>
	<rect y="1895.05" class="st2" width="4677.31" height="88.91"/>
</g>
<g>
	<g id="_08">
		<ellipse class="st3" cx="632.4" cy="2542.95" rx="141.94" ry="17.67"/>
		<ellipse class="st3" cx="3983.15" cy="2748.06" rx="131.81" ry="11.46"/>
		<polygon class="st4" points="4097.13,1759.1 4121.07,393.33 281.15,393.33 309.99,1759.1 		"/>
		<g>
			<defs>
				<polygon id="SVGID_1_" points="4103.14,1771.13 4127.08,405.35 287.16,405.35 316,1771.13 				"/>
			</defs>
			<clipPath id="SVGID_2_">
				<use xlink:href="#SVGID_1_"  style="overflow:visible;"/>
			</clipPath>
			<g class="st5">
				<g class="st6">
					<path class="st7" d="M1254.1,914.48c0,0,27.82-52.71,86.38-48.32S1443,914.48,1443,914.48s48.41-154.56,203.56-144.63
						s164.12,144.63,164.12,144.63s110.12-40.17,168.18-22s71.61,57.1,71.61,57.1S2183,906.51,2231,934.49s55.35,38.65,55.35,38.65
						H1087.19c0,0-2.93-9.53,55.64-45.07S1254.1,914.48,1254.1,914.48z"/>
				</g>
				<g class="st6">
					<path class="st7" d="M3114.71,1179.1c0,0,27.82-22.69,86.38-20.8s102.49,20.8,102.49,20.8s48.41-66.55,203.56-62.27
						s164.13,62.27,164.13,62.27s110.11-17.3,168.17-9.46s71.61,24.59,71.61,24.59s132.55-18.56,180.51-6.52
						s55.35,16.64,55.35,16.64H2947.8c0,0-2.93-4.1,55.64-19.4S3114.71,1179.1,3114.71,1179.1z"/>
				</g>
				<g class="st6">
					<path class="st7" d="M2308.59,972.91c0,0,76.13-32.52,133.23-22.16s105.42,21.58,105.42,21.58L2308.59,972.91z"/>
				</g>
				<g class="st6">
					<path class="st7" d="M3248.1,590.34c0,0-30.91-134.46-154.54-140.49S2995.21,585,2995.21,585s-165.78-123.69-272.56-84.69
						s-106.77,106.36-106.77,106.36s-191.07-123-311.9-93.78s-133.47,87.9-133.47,87.9s-105.37-15.12-164.38-2.37
						c-63.93,13.81-139.08,22.92-139.08,22.92s-43.56-74.11-130.66-72.45s-109.59,71.19-109.59,71.19l1938.82,10.19
						c0,0-30.91-95.56-148.93-125.58S3248.1,590.34,3248.1,590.34z"/>
				</g>
				<g class="st6">
					<path class="st7" d="M1792.21,1174.06c0,0,58-41.92,105-30.86s66.33,30.86,66.33,30.86s34.51-65.41,99.47-65.41
						c64.96,0,121.61,65.41,121.61,65.41s85.67-49.75,127.13-32.7s56.65,32.7,56.65,32.7s98.11-21.65,154.76,0
						s67.71,32.7,67.71,32.7s70.47-33.16,100.87-26.25s35.92,26.25,35.92,26.25H1669.9c0,0-20-34.54,25.58-48.36
						S1792.21,1174.06,1792.21,1174.06z"/>
				</g>
				<path class="st3" d="M2357.72,1675.77l-119.67-4.85l-1.44-15.26l-106.45-13v-1.32l1.26-46.42l36.78-10.9l1.6-7.3l0,0l0.9-4.12
					l0.3-1.36l-4.94,1.39l-34.29,9.65l1.28-47.37l18.21-5.65v-0.8l-13.13-5l0,0l-4.72-1.81l8.06-298h-7.26l-26.72-1.72l0,0
					l-5.21-0.34l0,0l-107.22-6.89l-9.06,1.3l9.4-311.13l-5.71-4.8l-0.69-9l-3.7-8.94l-11.67,2.39l-11.67-7.81l0,0l-1.62-13.69
					l-7.49-10.66l-16.93,1.94l-27.32-22.43l-142.6,37.6l0.18,5.28l0,0l5.14,147.33l-134.85,21.31v772.38v116.84h801.37
					L2357.72,1675.77z M1989,897.16l-0.14,2.22l-0.13-0.11l0.09-2.54L1989,897.16z M1960.15,868.65l-0.21,6.42l0,0L1960.15,868.65z"
					/>
				<polygon class="st3" points="1814.5,744.29 1810.88,738.63 1810.88,857.66 1817.99,855.79 				"/>
				<path class="st3" d="M4200.76,2011.56h0.23l-0.23-8.22V1815l0,0V961.64l0,0v-11.07l0,0v-60.74l-77.32,17.73V743.7l-5.09-2.32
					l-3.14,168.07l-11.92,2.73l-4.5,1l0,0l-10.67,2.45l-3-19l0,0l-1.95-12.5l0,0l-6.11-39.07l-70.16-4l-2.23-48.76h-7.1v48.23
					l-51.82-2.94l-127.51,18.14l2.12,28.47v8.49l0.63-0.06l17.45,234.37v-0.16l4.44,59.48h-0.08l0.48,6.45h0.08l3.58,48
					l-54.39-14.36l-130.76,26l11.33,7.54v4.86h0.47l9.79,101.14l0,0l52.29,540.35l16.83,16.42l0.84,0.82l10,9.78l32.88,32.08
					l0.81,0.79l0,0l9.32,9.09l2.23,33.4h0.81l-0.68,0.46l77.19,10.34l4,58.07l89.15,10.62l16.4,19.61l18.62,14.6l10.64-5.75l58,63
					l0,0l6,6.49l21.69,23.54h90.3v-101.94l0.23-75h-0.23L4200.76,2011.56z M3813.21,2006.56l-0.6-25.29l6.48,6.32l65.62,13.54
					l0.64,9.33L3813.21,2006.56z M3897.8,2073l-1.45-52.23l15.55,2.08l43.91,56.34L3897.8,2073z M3896.08,2011l-0.21-7.61l15,3.09
					l-6.54-7.81l11.19,13.38L3896.08,2011z"/>
				<path class="st3" d="M1447.71,1876.29h0.26l-0.26-9.27v-212.37l0,0v-962.4l0,0v-12.48l0,0v-68.51l-87.2,20v-184.8l-5.75-2.61
					l-3.53,189.53l-13.44,3.09l-5.08,1.16l0,0l-12,2.76l-3.36-21.48l0,0l-2.21-14.09l0,0l-6.88-44.06l-79.13-4.49l-2.52-55h-8v54.4
					l-58.44-3.32l-143.8,20.45l2.39,32.12v9.56l0.71-0.06l19.66,264.32l0.05-0.18l5,67.08h-0.09l0.54,7.27h0.1l4,54.13l-61.33-16.18
					l-147.47,29.28l12.78,8.5v5.48h0.53l11,114.06l0,0l59,609.38l19,18.52l0.94,0.92l11.31,11l37.08,36.17l0.92,0.9l0,0l10.5,10.25
					l2.52,37.66h0.91l-0.76,0.53l87.05,11.65l4.49,65.49l100.54,12l18.49,22.11l21,16.47l12-6.48l65.44,71l0,0l6.75,7.32
					l24.46,26.54h101.84v-114.88l0.26-84.59h-0.26L1447.71,1876.29z M1010.64,1870.64l-0.67-28.52l7.31,7.13l74,15.27L1092,1875
					L1010.64,1870.64z M1106.04,1945.64l-1.64-58.91l17.54,2.35l49.52,63.53L1106.04,1945.64z M1104.1,1875.7l-0.24-8.58l16.89,3.49
					l-7.36-8.81l12.62,15.09L1104.1,1875.7z"/>
				<path class="st3" d="M2689.75,1676.76L2689.75,1676.76L2714,1455l-11.84-5.47l0,0l-0.9-0.42l-25.67-11.87l0,0l-2.87-1.34l0,0
					l-22.61-10.45L2583.7,1481l2.19-45.09l0,0l4.3-88.62l-5.29-15.85l-91.1-20.19l-26.42,2.56l-0.91,13.89l-13.53,205.73l0,0
					l25.74-391.48l-73.31-36.47l0,0l-16.27-8.09l0,0l-30.93-15.39l-288.3,87.44l-61.78,687.14l239.24,9.29l-0.24,2.5l185.3,3.26
					v-1.08l103.2,1.37l0,0h1.61l9.78,0.13h0.94l16.73,0.22l0.18-3.54l65.27,4.36l13.64-13.33l0,0l3.14-3.08l14.85-14.52l0,0
					l1.84-1.82l0,0l9.24-9l6.13-56h0.23v-2.11l0,0l3.69-33.71l0.07-0.63l0,0l6.79-62L2689.75,1676.76z M2452.51,1539.93l-3.65,55.51
					l0,0v-0.18l3.63-55.33H2452.51z"/>
				<path class="st3" d="M942.41,1608.1L942.41,1608.1l24.25-221.79l-11.83-5.47l0,0l-0.9-0.42l-25.67-11.88l0,0l-2.88-1.33l0,0
					l-22.6-10.46l-66.42,55.55l2.19-45.09l0,0l4.3-88.63l-5.29-15.84l-91.1-20.19l-26.46,2.56l-0.91,13.89l-13.49,205.73l0,0
					l25.74-391.48L658,1036.78l0,0l-16.27-8.09l0,0l-30.93-15.39l-288.3,87.45l-61.78,687.14l239.28,9.29l-0.24,2.5l185.3,3.25
					v-1.07l103.19,1.37l0,0h1.61l9.78,0.13h0.94l16.73,0.22l0.18-3.54l65.27,4.36l13.64-13.34l0,0l3.14-3.07l14.85-14.52l0,0
					l1.84-1.81l0,0l9.24-9l6.13-56l0.23-0.05v-2.11l0,0l3.69-33.71l0.07-0.63l0,0l6.78-62L942.41,1608.1z M705.17,1471.27
					l-3.65,55.51l0,0v-0.18l3.64-55.33H705.17z"/>
				<path class="st7" d="M1603.78,2012.33c0,0-24.07-34.22-68.42-29.45s-54.79,44-54.79,44s-25-105.4-65.24-115.93
					s-48.63,69.38-48.63,69.38s-47.78-103.52-111.67-109.41s-14.33,107.48-14.33,107.48s-57.18-44.62-114.7-25.82
					c-43.43,14.2-9.61,85.33-9.61,85.33s-59.47-73.27-131.68-74.37s-15.78,72.12-15.78,72.12s-65.76-30.73-138.68-18.72
					S735,2087.5,735,2087.5l867.63,0.25L1603.78,2012.33z"/>
				<path d="M1604.6,2089.75h-2l-870.53-0.25l1-2.71c0.23-0.61,5.89-15.19,20.67-31.43c13.62-15,37.89-34.13,76.12-40.43
					c59.47-9.79,114.8,8.88,133.32,16.16c-7.84-11.65-23.31-38.16-14.82-55.08c5-9.92,17.19-14.78,36.32-14.5
					c37.85,0.58,72.07,21,94.11,38c11.13,8.63,21.57,18.09,31.25,28.32c-5.38-14.62-12.72-40.85-4.78-59.33
					c3.75-8.73,10.5-14.75,20.06-17.87c30.29-9.9,60.39-2.25,80.3,5.91c10.68,4.39,20.92,9.82,30.55,16.19
					c-7.25-18.4-25.63-70.9-9.28-93.54c5.8-8,15.31-11.5,28.26-10.31c33.74,3.11,62.79,33.1,81.21,57.71
					c10.99,14.84,20.75,30.56,29.18,47c2.28-14.37,9.43-48.23,27.61-60.8c6.75-4.68,14.37-6,22.63-3.79
					c35.65,9.34,59,88.16,65.11,111.23c5.13-11.53,19.84-35.62,54.19-39.32c45-4.84,70,29.94,70.28,30.29l0.37,0.53L1604.6,2089.75z
					 M738.06,2085.5l862.6,0.25l1.11-72.77c-3.19-4.14-26.51-32.38-66.2-28.11c-42.41,4.56-52.66,41-53.07,42.5l-2,7.63l-1.83-7.69
					c-0.25-1-25.17-104.35-63.79-114.46c-7.18-1.88-13.51-0.83-19.35,3.2c-21.33,14.76-26.74,64-26.79,64.46l-0.76,7.22l-3-6.59
					c-0.47-1-48-102.54-110-108.26c-11.43-1.05-19.73,1.86-24.65,8.67c-18.24,25.26,12,95.32,12.34,96l3.16,7.23l-6.22-4.85
					c-0.56-0.44-57-43.74-112.85-25.5c-8.42,2.75-14.35,8-17.62,15.65c-10.62,24.71,9,66.51,9.19,66.93l7.17,15.08l-10.53-13
					c-0.59-0.73-59.73-72.56-130.15-73.64c-17.47-0.3-28.46,3.87-32.69,12.29c-9.77,19.49,18.24,56.24,18.52,56.61l5,6.51
					l-7.44-3.48c-0.65-0.3-66.07-30.32-137.51-18.56c-37,6.09-60.51,24.59-73.69,39C749.37,2066.07,742.99,2075.39,738.06,2085.5z"
					/>
				<g class="st6">
					<polygon class="st7" points="1342.03,2087.68 1235.26,1874.29 1241.39,1871.76 1345.76,2087.68 					"/>
					<path d="M1349,2089.68h-8.15l-0.56-1.11l-107.73-215.31l9.86-4.06L1349,2089.68z M1238,1875.32l84.73,169.33l-82.33-170.32
						L1238,1875.32z"/>
					<polygon class="st7" points="1407.61,1910 1417.13,2087.7 1420.47,2087.75 1409.91,1910.04 					"/>
					<polygon points="1422.6,2089.78 1415.24,2089.67 1405.49,1907.97 1411.8,1908.06 					"/>
					<polygon class="st7" points="1547.41,1982.51 1533.94,2087.73 1539.87,2087.82 1551.53,1982.58 					"/>
					<path d="M1541.65,2089.85l-10-0.15l14-109.21l8.11,0.12L1541.65,2089.85z M1536.21,2085.77h1.87l11.22-101.26h-0.14
						L1536.21,2085.77z"/>
					<polygon class="st7" points="1126,1952.55 1219.07,2087.64 1225.84,2087.64 1129.92,1951.38 					"/>
					<path d="M1229.69,2089.64H1218l-95.23-138.22l7.94-2.36L1229.69,2089.64z M1220.13,2085.64h1.87l-87.44-124.22L1220.13,2085.64
						z"/>
					<polygon class="st7" points="969.18,1964.72 1033.74,2087.59 1038.68,2087.66 972.28,1964.19 					"/>
					<path d="M1042.05,2089.71l-9.53-0.14l-0.55-1.05l-65.84-125.31l7.23-1.23L1042.05,2089.71z M1034.96,2085.61h0.34l-15-27.88
						L1034.96,2085.61z"/>
					<polygon class="st7" points="1043.1,1979.1 1017.6,2048.46 1017.5,2054.51 1045.54,1980.35 					"/>
					<polygon points="1015.33,2065.93 1015.6,2048.09 1015.72,2047.77 1042,1976.29 1048.04,1979.38 					"/>
					<polygon class="st7" points="954.42,2011.51 997.46,2015.16 998.26,2016.32 955.05,2012.87 					"/>
					<polygon points="1002.3,2018.65 953.73,2014.77 951.14,2009.22 998.57,2013.24 					"/>
					<polygon class="st7" points="1110.34,2022.37 1195.67,2049.35 1197.7,2051.02 1111.41,2025.5 					"/>
					<polygon points="1206.53,2055.72 1109.85,2027.12 1107.16,2019.27 1196.65,2047.56 					"/>
					<polygon class="st7" points="1192.46,1953.9 1181.43,2028.62 1184.44,2032.98 1194.91,1954.7 					"/>
					<polygon points="1185.74,2038.38 1179.34,2029.11 1190.83,1951.27 1197.11,1953.31 					"/>
					<polygon class="st7" points="1279.97,2086.73 1240.7,1978.37 1237.92,1976.35 1274.74,2086.65 					"/>
					<path d="M1282.84,2088.77l-9.55-0.14l-39.24-117.58l8.32,6.07l0.21,0.57L1282.84,2088.77z M1276.19,2084.67h0.91l-11.47-31.67
						L1276.19,2084.67z"/>
					<polygon class="st7" points="1342.45,1938.49 1323.73,2042.11 1323.6,2050.84 1345.19,1942.58 					"/>
					<polygon points="1325.56,2051.23 1321.6,2050.81 1321.76,2041.76 1341.36,1933.28 1347.32,1942.15 					"/>
					<polygon class="st7" points="1471.82,1996.79 1415.68,2060.6 1415.88,2064.38 1472.8,1999.77 					"/>
					<polygon points="1414.15,2069.38 1413.64,2059.9 1472.63,1992.84 1475.06,2000.24 					"/>
					<polygon class="st7" points="1368.59,1968.22 1415.87,2048 1415.93,2044.46 1369.28,1964.81 					"/>
					<polygon points="1417.76,2055.11 1366.48,1968.58 1368.35,1959.27 1417.93,2043.94 					"/>
					<polygon class="st7" points="1536.22,2069.88 1595.45,2003.24 1597.65,2005.34 1537.58,2077.53 					"/>
					<path d="M1536.36,2082.13l-2.27-12.86l61.24-68.91l5.05,4.82L1536.36,2082.13z M1538.36,2070.48l0.44,2.46l38.43-46.19
						L1538.36,2070.48z"/>
					<polygon class="st7" points="1497.21,2000.15 1542.68,2038.46 1542.61,2043.38 1495.64,2001.71 					"/>
					<polygon points="1544.54,2047.77 1492.73,2001.8 1497.1,1997.43 1544.7,2037.54 					"/>
					<polygon class="st7" points="873.99,2087.54 806.68,2022.89 809.43,2021.95 879.96,2087.54 					"/>
					<path d="M885,2089.54h-11.82l-70.25-67.48l7-2.39L885,2089.54z M874.75,2085.54h0.08l-2.34-2.17L874.75,2085.54z"/>
					<polygon class="st7" points="925.84,2087.56 942.4,2025.97 944.9,2026.74 930.65,2087.56 					"/>
					<path d="M932.24,2089.56h-9l17.78-66.1l6.27,1.91L932.24,2089.56z M928.45,2085.56h0.62l4.19-17.89L928.45,2085.56z"/>
				</g>
				<path class="st7" d="M1224.44,2085.69c0,0-43.5-82.16-5.42-106.88s71.92,23.64,71.92,23.64s-3.38-94.49,94.09-124
					s80.35,106.1,80.35,106.1s99.78-84.1,177.63-75.12s29.86,151.77,29.86,151.77s80.47-58.61,177.65-29.88
					c76.34,22.57,94.84,55.17,94.84,55.17L1224.44,2085.69z"/>
				<path d="M1948.79,2088.46h-3.43l-722.13-0.76l-0.56-1.06c-7.23-14.25-12.98-29.19-17.16-44.61
					c-8.23-31.83-3.94-54.27,12.42-64.89s34.44-9.69,52.45,2.58c6.95,4.83,13.23,10.58,18.66,17.07c0.91-15.82,4.47-31.37,10.55-46
					c10.51-25.33,33.76-58.76,84.86-74.25c24.63-7.47,44.33-5.18,58.54,6.81c28.61,24.15,26.3,79.76,24.86,96.62
					c17.78-14.03,36.55-26.76,56.16-38.08c31.89-18.31,78.47-39.15,119.22-34.45c15.52,1.79,27.34,8.9,35.11,21.14
					c23.17,36.47,4.27,107.49-1.86,127.82c15.12-9.41,31.26-17.06,48.12-22.81c29.72-10.18,75.78-19.18,126.49-4.19
					c76.23,22.54,95.23,54.74,96,56.1L1948.79,2088.46z M1225.66,2083.69l715.82,0.76c-6.67-8.48-30.45-33.2-91.52-51.25
					c-49.65-14.68-94.8-5.88-123.93,4.09c-31.65,10.83-51.79,25.34-52,25.49l-5.07,3.69l2-5.94c0.3-0.89,29.61-89.52,4-129.85
					c-7.09-11.17-17.92-17.66-32.18-19.31c-76.08-8.79-175.12,73.83-176.11,74.67l-3.91,3.29l0.64-5.07
					c0.08-0.71,8.56-71.26-23-97.89c-13.1-11.06-31.54-13.09-54.79-6c-49.53,15-72.08,47.33-82.27,71.8
					c-6.68,15.92-10.21,32.99-10.4,50.25l0.23,6.74l-3.87-5.52c-5.93-7.98-13.1-14.95-21.25-20.64
					c-16.79-11.4-32.92-12.23-47.94-2.47C1186.26,2002.46,1220.82,2074.08,1225.66,2083.69z"/>
				<g class="st6">
					<path class="st7" d="M1338.79,2085.81c0,0,9.7-67.58,23.68-120.63s45.57-90.91,45.57-90.91l7,0.12c0,0-29.11,35-41.91,84.39
						s-26.34,127.46-26.34,127.46L1338.79,2085.81z"/>
					<path d="M1348.5,2088.34l-12-0.65l0.31-2.16c0.09-0.68,9.87-68.3,23.73-120.86c13.94-52.88,45.65-91.29,46-91.68l0.61-0.73
						l12.17,0.2l-2.67,3.21c-0.29,0.35-29,35.22-41.5,83.61c-12.62,48.79-26.18,126.53-26.31,127.31L1348.5,2088.34z
						 M1341.09,2083.93l4.08,0.22c2.09-11.85,14.47-81,26.08-125.87c10.55-40.79,32.4-72.15,39.8-82h-2.06
						c-4.4,5.52-31.93,41.4-44.58,89.4C1352,2012.73,1342.87,2072,1341.09,2083.93L1341.09,2083.93z"/>
					<path class="st7" d="M1643,1909.39c-24.58,22.91-47.2,47.83-67.63,74.5c-33.55,43.89-59.66,102.11-59.66,102.11h8.71
						c0,0,26.57-61.62,59.31-102.6c20.59-25.59,42.73-49.9,66.3-72.77L1643,1909.39z"/>
					<path d="M1525.75,2088h-13.12l1.26-2.81c0.27-0.59,26.59-58.94,59.9-102.51c20.53-26.75,43.23-51.76,67.88-74.77l0.72-0.65
						l11.9,2.11l-2.88,2.73c-23.49,22.83-45.56,47.06-66.11,72.57c-32.19,40.3-58.77,101.53-59,102.14L1525.75,2088z M1518.84,2084
						h4.29c3.92-8.87,29-64.29,59-101.84c19.85-24.62,41.1-48.08,63.65-70.25l-2.2-0.39c-24.15,22.69-46.41,47.29-66.58,73.58
						C1548.11,2022.85,1524.51,2071.85,1518.84,2084z"/>
					<path class="st7" d="M1457.05,1906.54c0,0-20.34,11.37-49.88,33.79s-43,40.33-43,40.33l-0.17,11.56
						c0,0,17.13-24.35,46.58-48.09s48-33.47,48-33.47L1457.05,1906.54z"/>
					<path d="M1362,1998.67l0.28-18.69l0.39-0.52c0.56-0.74,13.92-18.4,43.34-40.73s49.91-33.82,50.11-33.93l2-1.12l3.14,7.91
						l-1.59,0.84c-0.19,0.1-18.81,10-47.73,33.26c-17.32,13.91-32.84,29.93-46.2,47.68L1362,1998.67z M1366.26,1981.36l-0.07,4.79
						c12.78-16.06,27.28-30.67,43.23-43.58c24.44-19.7,41.68-29.92,46.8-32.81l-0.13-0.33c-16.48,9.93-32.4,20.77-47.66,32.49
						c-26.28,19.9-39.82,36.4-42.22,39.44H1366.26z"/>
					<polygon class="st7" points="1349.77,1894.2 1377.75,1926.74 1379.28,1920.5 1352.69,1892.41 					"/>
					<path d="M1378.77,1931l-32-37.27l6.31-3.86l28.45,30.06L1378.77,1931z M1360.17,1903.24l16.57,19.26l0.34-1.41L1360.17,1903.24
						z"/>
					<path class="st7" d="M1527.26,2073.74c0,0-0.69-49,1.39-91.17s10.61-46.78,10.61-46.78l-8.53,4.57c0,0-4.27,18.58-7,51.38
						s-1.31,85.37-1.31,85.37L1527.26,2073.74z"/>
					<path d="M1520.56,2080.89l-0.1-3.73c0-0.52-1.36-53,1.31-85.58s7-51.48,7-51.67l0.2-0.88l9.34-5l1.88,3.52
						c0.04-0.01,0.08-0.03,0.11-0.06c-0.08,0.06-7.73,5.79-9.66,45.18c-2.05,41.66-1.4,90.55-1.39,91v1.06L1520.56,2080.89z
						 M1526.7,1981.63c-0.33,3.25-0.65,6.68-0.94,10.27c-2.24,27.29-1.63,68.83-1.38,81.42l0.86-0.61
						c-0.08-7.38-0.48-51.86,1.41-90.24C1526.67,1982.19,1526.68,1981.91,1526.7,1981.63L1526.7,1981.63z M1532.48,1941.69
						c-0.2,1-0.57,2.76-1,5.3c0.44-1.55,0.91-3,1.41-4.34c0.19-0.52,0.39-1,0.58-1.47L1532.48,1941.69z"/>
					<polygon class="st7" points="1682.47,1941.92 1591.63,1968.68 1587.58,1970.82 1682.42,1945.27 					"/>
					<polygon points="1570.84,1977.4 1591.06,1966.76 1684.52,1939.23 1684.4,1946.8 					"/>
					<polygon class="st7" points="1560.96,1925.47 1559.66,2010.9 1556.66,2010.85 1557.95,1926.79 					"/>
					<polygon points="1561.63,2012.93 1554.63,2012.82 1555.97,1925.48 1563.01,1922.39 					"/>
					<polygon class="st7" points="1224.94,1975.56 1285.24,2086.38 1291.09,2085.76 1228.14,1974.23 					"/>
					<path d="M1284.12,2088.5l-62-113.93l6.89-2.87l65.32,115.73L1284.12,2088.5z M1243.81,2006.05l42.55,78.2l1.49-0.16
						L1243.81,2006.05z"/>
					<polygon class="st7" points="1206.84,2039.03 1257.28,2034.99 1262.48,2039.88 1206.79,2042.72 					"/>
					<path d="M1204.75,2044.83l0.12-7.65l53.13-4.25l9.27,8.71L1204.75,2044.83z M1256.55,2037.06l-38.78,3.1l39.92-2
						L1256.55,2037.06z"/>
					<polygon class="st7" points="1271.38,1982.91 1250.46,2013.78 1250.37,2020.04 1274.05,1984.9 					"/>
					<polygon points="1248.26,2026.73 1248.47,2013.15 1270.9,1980.06 1276.78,1984.44 					"/>
					<polygon class="st7" points="1700.99,2086.19 1857.01,2033.27 1865.37,2036.04 1716.6,2086.87 					"/>
					<path d="M1716.89,2088.88l-26.65-1.15l166.76-56.57l14.64,4.85L1716.89,2088.88z M1711.75,2084.66l4.56,0.19l142.79-48.78
						l-2.09-0.69L1711.75,2084.66z"/>
					<polygon class="st7" points="1745.62,2029.49 1744.96,2072.48 1751.33,2072.58 1748.82,2028.74 					"/>
					<path d="M1753.45,2074.61l-10.52-0.16l0.72-46.55l7-1.66L1753.45,2074.61z M1747,2070.51h2.21l-1.75-30.55L1747,2070.51z"/>
					<polygon class="st7" points="1596.15,2086.75 1685.12,2007.96 1685.04,2012.82 1603.7,2085.77 					"/>
					<path d="M1589.94,2089.57l97.25-86.11l-0.16,10.26l-82.45,74L1589.94,2089.57z M1634.79,2055.2l-32.44,28.73l0.48-0.06
						L1634.79,2055.2z"/>
					<polygon class="st7" points="1447.27,2086.42 1465.15,1938.6 1465.82,1944.97 1451.17,2085.93 					"/>
					<polygon points="1444.97,2088.73 1465.29,1920.78 1467.83,1944.97 1467.81,1945.18 1453,2087.72 					"/>
					<polygon class="st7" points="1307.21,1939.43 1317.03,2085.79 1320.89,2085.79 1311.38,1932.31 					"/>
					<path d="M1323,2087.79h-7.86l-10-148.84l7.79-13.33L1323,2087.79z M1309.23,1939.91l7.88,117.56l-7.32-118.47L1309.23,1939.91z
						"/>
					<polygon class="st7" points="1351.27,2061.81 1461.95,1982.15 1457.49,1988.78 1347.14,2066.4 					"/>
					<polygon points="1333.81,2078.22 1350.1,2060.19 1469.87,1973.99 1458.94,1990.2 					"/>
					<polygon class="st7" points="1335.38,1904.68 1314.09,2010.34 1313.99,2016.75 1344.25,1897.87 					"/>
					<path d="M1311.73,2033.74l0.4-23.8l21.44-106.39l14-10.79L1311.73,2033.74z M1337.19,1905.81l-11.29,56l15-58.88
						L1337.19,1905.81z"/>
				</g>
				<g class="st8">
					<path class="st7" d="M4072.07,1976.61c12.59-3.22,20.17-7.36,20.17-11.89c0-10.24-38.72-18.54-86.48-18.54
						s-86.49,8.3-86.49,18.54c0,2.41,2.18,4.72,6.11,6.84c-106.51-3.25-221.74-6-323.43-8.29c66.19-5.63,110-15.38,110-26.47
						c0-17.44-108.18-31.58-241.64-31.58s-241.63,14.14-241.63,31.58c0,8.56,26.08,16.31,68.38,22c-73.91-0.61-150.92-0.93-230-0.93
						c-107.38,0-210.84,0.59-308,1.69c0.23-0.46,0.36-0.97,0.36-1.49c0-8-30.44-14.44-68-14.44s-68,6.47-68,14.44
						c0.14,1.35,0.85,2.58,1.95,3.38c-339,5.81-572.75,18.12-572.75,32.36c0,19.85,454.17,35.94,1014.42,35.94
						s1219.08-16.59,1219.08-36.44C4286.08,1987.19,4196.72,1981.54,4072.07,1976.61z"/>
					<path d="M3067,2031.75c-271,0-525.75-3.74-717.37-10.53c-299.05-10.59-299.05-22.81-299.05-27.41c0-3.4,3.37-7.43,43.59-12.23
						c26.92-3.22,66.47-6.28,117.56-9.11c100.72-5.58,242.39-10.06,409.87-13c-0.15-0.47-0.22-0.95-0.22-1.44
						c0-12.06,41.86-16.44,70-16.44c27.72,0,68.75,4.25,70,15.9c98.62-1.1,201.44-1.66,305.65-1.66c68.48,0,136.79,0.24,203.46,0.72
						c-29.1-5.53-43.8-12.17-43.8-19.79c0-9.84,24.39-18,72.51-24.31c45.72-6,106.5-9.27,171.12-9.27s125.4,3.29,171.13,9.27
						c48.11,6.29,72.51,14.47,72.51,24.31c0,6.66-10.08,12.13-31.71,17.23c-12.61,3-28.87,5.66-47.94,8
						c107.65,2.43,203.33,4.91,284.9,7.38c-1.18-1.26-1.86-2.92-1.91-4.65c0-6.17,9.06-11.24,26.91-15.06
						c16.47-3.53,38.34-5.48,61.58-5.48s45.1,2,61.57,5.48c17.86,3.82,26.91,8.89,26.91,15.06c0,3.88-3.64,7.35-10.85,10.34
						c204.71,8.3,204.69,14.27,204.69,18.25c0,2.85-2.38,5.7-31.15,9.25c-18.71,2.3-46.44,4.59-82.42,6.81
						c-68,4.19-167.52,8.2-287.82,11.6C3647.71,2027.72,3341.29,2031.75,3067,2031.75z M2054.73,1993.81
						c1.68,1.75,12.95,6.79,83.69,12.48c52.14,4.19,125.61,8,218.36,11.18c190.75,6.63,443,10.28,710.22,10.28
						c270.19,0,573.22-3.94,810.61-10.53c343.77-9.54,398-19.89,405.64-23.76c-7.07-3-46-8.32-211.26-14.85l-13.69-0.54l13.27-3.4
						c13.77-3.52,18.67-7.45,18.67-10c0-6.91-32.14-16.54-84.48-16.54s-84.49,9.63-84.49,16.54c0,1.52,1.8,3.32,5.06,5.08l7.46,4
						l-8.47-0.26c-90.91-2.78-199.72-5.56-323.41-8.29l-0.13-4c74.71-6.36,108.15-16.88,108.15-24.48c0-1.89-3.33-11.76-69-20.34
						c-45.56-6-106.15-9.24-170.61-9.24s-125,3.28-170.6,9.24c-65.7,8.58-69,18.45-69,20.34s3.21,11.49,66.64,20l-0.28,4
						c-75-0.62-152.41-0.93-230-0.93c-105,0-208.64,0.57-307.95,1.69h-3.23l1.4-2.9c0.1-0.19,0.16-0.4,0.16-0.62
						c0-5.07-25.71-12.44-66-12.44s-66,7.37-66,12.44c0,0.49,0.45,1.15,1.27,1.88l3.86,3.41l-5.15,0.09
						c-165.89,2.84-307,7.24-408,12.72C2076.46,1983.81,2057.06,1991.31,2054.73,1993.81z"/>
				</g>
			</g>
		</g>
		<g class="st6">
			<polygon class="st9" points="4102.64,1759.02 4126.58,393.24 286.66,393.24 315.5,1759.02 			"/>
		</g>
		<path class="st3" d="M3548.91,360h-3297l38.45,1427.31l534.1,27.26v0.18l24.79-0.17v-0.17l513-3.42v3.76l24.79-0.17v-3.76
			l513-3.42l0.06,7.35l24.78-0.17l0.06-7.34l512.88-3.42l0.1,10.93l24.79-0.17l0.07-10.93l512.83-3.42l0.13,14.52l24.78-0.17
			l0.11-14.51l512.77-3.42l0.16,18.1l24.79-0.17l0.13-18.1l576.83-3.84L4156.42,360H3548.91z M3500.47,393.74l3.09,335.94H3008.4
			l2.45-335.94H3500.47z M2962.65,393.74l3.09,335.94h-495.16l2.42-335.94H2962.65z M2424.83,393.74l3.09,335.94h-495.16
			l2.45-335.94H2424.83z M1887.01,393.74l3.09,335.94h-495.16l2.45-335.94H1887.01z M1349.19,393.74l3.09,335.94H857.12l2.45-335.94
			H1349.19z M282.19,393.74h529.18l3.09,335.94H289.25L282.19,393.74z M311,1759.52L290.33,781h524.6l9,978.49L311,1759.52z
			 M849.63,1759.52L856.75,781h496l9,978.49L849.63,1759.52z M1387.45,1759.52l7.12-978.52h496l9,978.49L1387.45,1759.52z
			 M1925.27,1759.52l7.12-978.52h496l9,978.49L1925.27,1759.52z M2463.09,1759.52l7.12-978.52h496l9,978.49L2463.09,1759.52z
			 M3000.91,1759.52L3008,781h496l9,978.49L3000.91,1759.52z M4098.14,1759.52h-559.42l7.13-978.52h569.43L4098.14,1759.52z
			 M3546.22,729.68l2.45-335.94h573.4l-5.89,335.94H3546.22z"/>
		<path class="st10" d="M1595.9,1200.01l40.87,313.11c2.59,19.82-11.15,35.92-30.7,35.92h-221.14c-19.54,0-37.65-16.1-40.45-35.92
			l-44.25-313.11c-2.8-19.82,10.99-35.92,30.81-35.92h224.29C1575.15,1164.12,1593.31,1180.18,1595.9,1200.01z"/>
		<path class="st11" d="M1595.9,1200.01l40.87,313.11c2.59,19.82-11.15,35.92-30.7,35.92h-176.02c-19.54,0-37.63-16.1-40.4-35.92
			l-43.72-313.11c-2.77-19.82,11.05-35.92,30.88-35.92h178.52C1575.15,1164.12,1593.31,1180.18,1595.9,1200.01z"/>
		<path class="st10" d="M1518.73,1145.28c2.23,16.73-9.52,30.29-26.24,30.29H1397c-16.73,0-32.2-13.62-34.48-30.29
			c-1.24-7.66,0.92-15.48,5.91-21.43c5.11-5.79,12.51-9.03,20.23-8.87h95.69C1501.1,1114.99,1516.5,1128.55,1518.73,1145.28z"/>
		<path class="st11" d="M1518.73,1145.28c2.23,16.73-9.52,30.29-26.24,30.29h-67.55c-16.71,0-32.13-13.62-34.43-30.29
			c-1.23-7.66,0.94-15.48,5.93-21.43c5.11-5.78,12.5-9.03,20.21-8.87h67.7C1501.1,1114.99,1516.5,1128.55,1518.73,1145.28z"/>
		<rect x="679.18" y="1443" class="st12" width="1636.19" height="583.81"/>
		<rect x="672.07" y="1410.62" class="st13" width="441.41" height="619.17"/>
		<rect x="632.4" y="1363.44" class="st12" width="1788.7" height="99.45"/>
		<rect x="632.4" y="1363.44" class="st14" width="603.86" height="99.45"/>
		<rect x="1107.66" y="1462.89" class="st13" width="1208.07" height="42.22"/>
		<rect x="849.12" y="1234.38" class="st15" width="33.81" height="121.8"/>
		<rect x="857.94" y="1235.84" class="st16" width="26.47" height="121.8"/>
		<polygon class="st15" points="952.31,1290.14 850.31,1290.14 826.9,1127.1 930.18,1127.1 		"/>
		<polygon class="st16" points="956.46,1290.14 854.46,1290.14 831.1,1127.1 934.38,1127.1 		"/>
		<path class="st10" d="M3128.24,1164.09h224.29c19.83,0,33.61,16.1,30.81,35.92l-44.25,313.11c-2.8,19.82-20.91,35.92-40.45,35.92
			h-221.14c-19.56,0-33.29-16.1-30.7-35.92l40.87-313.11C3090.25,1180.18,3108.41,1164.12,3128.24,1164.09z"/>
		<path class="st11" d="M3128.24,1164.09h178.52c19.83,0,33.65,16.1,30.88,35.92l-43.72,313.11c-2.77,19.82-20.86,35.92-40.4,35.92
			h-176.02c-19.56,0-33.29-16.1-30.7-35.92l40.87-313.11C3090.25,1180.18,3108.41,1164.12,3128.24,1164.09z"/>
		<path class="st10" d="M3199.22,1114.99h95.69c7.72-0.16,15.12,3.08,20.23,8.87c4.99,5.95,7.14,13.77,5.91,21.43
			c-2.28,16.67-17.75,30.29-34.48,30.29h-95.48c-16.72,0-28.47-13.56-26.24-30.29C3167.06,1128.55,3182.46,1114.99,3199.22,1114.99z
			"/>
		<path class="st11" d="M3199.22,1114.99h67.7c7.71-0.16,15.11,3.08,20.21,8.87c5,5.94,7.16,13.76,5.93,21.43
			c-2.3,16.67-17.72,30.29-34.43,30.29h-67.55c-16.72,0-28.47-13.56-26.24-30.29C3167.06,1128.55,3182.46,1114.99,3199.22,1114.99z"
			/>
		<rect x="2545.24" y="1446.37" class="st12" width="1271.3" height="583.81"/>
		<rect x="3479.09" y="1413.99" class="st13" width="342.97" height="619.17"/>
		<rect x="2463.09" y="1366.8" class="st12" width="1389.8" height="99.45"/>
		<rect x="3383.7" y="1366.8" class="st14" width="469.19" height="99.45"/>
		<rect x="2544.95" y="1466.26" class="st13" width="938.66" height="42.22"/>
		<rect x="3457.23" y="1253.07" class="st15" width="33.81" height="121.8"/>
		<rect x="3455.75" y="1254.53" class="st16" width="26.47" height="121.8"/>
		<polygon class="st15" points="3409.98,1145.79 3513.26,1145.79 3489.85,1308.83 3387.85,1308.83 		"/>
		<polygon class="st16" points="3405.78,1145.79 3509.06,1145.79 3485.7,1308.83 3383.7,1308.83 		"/>
		<polygon class="st7" points="852.36,1150.59 853.07,1155.54 881.86,1155.54 881.16,1150.59 		"/>
		<polygon class="st7" points="899.99,1150.59 900.68,1155.54 920.33,1155.54 919.65,1150.59 		"/>
		<polygon class="st7" points="854.65,1166.69 855.36,1171.64 884.1,1171.64 883.41,1166.69 		"/>
		<polygon class="st7" points="902.21,1166.69 902.9,1171.64 922.52,1171.64 921.85,1166.69 		"/>
		<polygon class="st7" points="856.95,1182.78 857.65,1187.73 886.35,1187.73 885.66,1182.78 		"/>
		<polygon class="st7" points="904.44,1182.78 905.12,1187.73 924.71,1187.73 924.04,1182.78 		"/>
		<polygon class="st7" points="859.24,1198.87 859.55,1201.02 888.21,1201.02 887.91,1198.87 		"/>
		<polygon class="st7" points="923.75,1198.87 906.66,1198.87 906.95,1201.02 924.04,1201.02 		"/>
		<polygon class="st7" points="860.24,1205.84 860.54,1207.99 889.19,1207.99 888.89,1205.84 		"/>
		<polygon class="st7" points="924.7,1205.84 907.62,1205.84 907.92,1207.99 925,1207.99 		"/>
		<polygon class="st7" points="861.23,1212.82 861.54,1214.96 890.16,1214.96 889.86,1212.82 		"/>
		<polygon class="st7" points="925.65,1212.82 908.58,1212.82 908.88,1214.96 925.95,1214.96 		"/>
		<polygon class="st7" points="930.13,1235.29 865.5,1235.29 866.05,1239.16 930.65,1239.16 		"/>
		<polygon class="st7" points="927.6,1261.06 875.21,1261.06 875.66,1264.21 928.03,1264.21 		"/>
		<rect x="837.21" y="1315.42" class="st16" width="75.96" height="16.59"/>
		<rect x="871.62" y="1315.42" class="st16" width="75.96" height="16.59"/>
		<path class="st17" d="M1934.37,2349.41c0,26.43-86.79,50.51-229.23,68.65c-45.51,5.79-96.69,11-152.55,15.44
			c-39.51,3.17-81.35,6-125.17,8.36c-29.16,1.58-59.16,2.99-90,4.22c-90.07,3.58-186.72,5.51-287.28,5.51
			c-488.33,0-884.21-45.75-884.21-102.18c0.07-2.84,0.97-5.59,2.61-7.91V2145h1763.2v196.5
			C1933.39,2343.81,1934.3,2346.57,1934.37,2349.41z"/>
		<path class="st3" d="M1705.14,2145v273c-45.51,5.79-96.69,11-152.55,15.44V2145H1705.14z"/>
		<g class="st6">
			<path class="st3" d="M1427.42,2145v296.84c-29.16,1.58-59.16,2.99-90,4.22V2145H1427.42z"/>
		</g>
		<ellipse class="st18" cx="1054.08" cy="2146.45" rx="884.21" ry="62.6"/>
		<path class="st3" d="M1859.87,2144c0,15.13-361.64,27.39-807.75,27.39s-807.75-12.3-807.75-27.39s361.64-27.38,807.75-27.38
			S1859.87,2128.84,1859.87,2144z"/>
		<g class="st19">
			<polygon class="st7" points="3324.07,1791.88 3324.09,1791.88 3324.07,1791.88 			"/>
			<polygon points="3324.23,1791.88 3324.09,1789.88 3322.07,1789.88 3322.09,1794.19 3324.37,1793.86 3324.23,1791.88 
				3326.07,1791.88 			"/>
		</g>
		<path class="st20" d="M3915,2083.41c-7.5,0-13.57,11.41-13.57,25.49s6.07,25.5,13.57,25.5s13.57-11.41,13.57-25.5
			S3922.53,2083.41,3915,2083.41z"/>
		<path class="st20" d="M1036.89,1823.2h-90.54c-52.27,0-94.65,72.43-94.65,161.78c-0.01,11.34,0.69,22.67,2.09,33.93
			c8.91,71.3,45.31,125.18,89.32,127.71v0.12h93.77c67-5,85.08-55.17,92.57-127.83c1.28-11.27,1.97-22.59,2.08-33.93
			C1131.54,1895.63,1089.17,1823.2,1036.89,1823.2z"/>
		<path class="st20" d="M1737.11,1825.13h-90.55c-52.26,0-94.64,72.42-94.64,161.77c-0.01,11.35,0.69,22.68,2.09,33.94
			c8.9,71.3,45.31,125.18,89.32,127.7v0.13h93.77c45.46,0,83.44-54.79,92.57-127.83c1.39-11.26,2.09-22.59,2.08-33.93
			C1831.76,1897.56,1789.39,1825.13,1737.11,1825.13z"/>
		<path class="st21" d="M1566.64,1690.78c-1.71-6.52-4.93-12.56-9.4-17.61c-4.77-5.24-10.46-8.28-15.71-7.74l-28.44,2.93
			c-9.79,1-24,9.16-31.52,18.12l-8.49,10.07c-7.55,9-5.61,17.43,4.3,18.81l81.58,11.35c5.46,0.75,9.37-2.26,11.11-7.62
			c1.43-4.38,1.41-10.33-0.4-17L1566.64,1690.78z"/>
		<g class="st22">
			<path class="st7" d="M1566.64,1690.78c-1.71-6.52-4.93-12.56-9.4-17.61l-17.23,1.77c-7.53,0.78-18.44,7-24.24,13.94l-6.53,7.75
				c-5.8,6.89-4.31,13.4,3.31,14.46l57.52,8c1.43-4.38,1.41-10.33-0.4-17L1566.64,1690.78z"/>
		</g>
		<path class="st23" d="M741.14,1786.61l-441-2.54c-6.55,0-35.59,105.11-35.59,111.65l1.14,100.6c0.02,6.57,5.33,11.88,11.9,11.9
			h463.55c6.57-0.02,11.88-5.33,11.9-11.9v-197.81C753.02,1791.94,747.71,1786.63,741.14,1786.61z"/>
		<g class="st19">
			<polygon class="st7" points="758.06,1733.02 863.9,1735.4 758.01,1733.02 			"/>
			<polygon points="757.88,1735.01 863.85,1737.4 863.94,1733.4 758.06,1731.02 			"/>
		</g>
		<g class="st19">
			<polygon class="st7" points="889.72,1735.98 889.72,1735.98 889.7,1735.98 			"/>
			<polygon points="889.7,1733.98 889.7,1737.98 889.72,1737.98 889.94,1734 889.71,1735.92 			"/>
		</g>
		<path class="st24" d="M1858.94,1782.73c-77.73-69.41-257.41-64.63-329.45-64.63c-147.67,0-23.37,11.24-237.88,3.71
			c-137.51-4.82-242.54,5-300.22-2V1846c27.9,33.39,46.17,88.25,46.17,150.19c0,3.86-0.21,8.46-0.21,13.35
			c0,15.83,2.8,75.56,31.05,75.56l494.85-22.27c16.2,0,236.67,2.9,253.72,2.9c3.24,0,17.59-36.31,18.52-39.32
			c0.79-2.55,3.5-12.09,7.09-26.06c4-15.48,9-36.42,13.78-59.26c2.44-11.78,4.8-24.07,6.88-36.38c0.67-3.82,1.28-7.63,1.85-11.43
			c0.67-4.28,1.28-8.53,1.83-12.75c0.95-7.13,1.77-14.16,2.4-21c0.51-5.47,0.9-10.81,1.16-16c0.16-3.28,0.27-6.49,0.32-9.6v-2.24
			c0-1.67,0-3.31,0-4.93C1870.48,1806.12,1867.09,1790,1858.94,1782.73z"/>
		<path class="st23" d="M454,1822.93v262.62c-0.03,6.54,5.22,11.87,11.76,11.94h792.68V1811H465.76
			C459.23,1811.07,453.97,1816.4,454,1822.93z"/>
		<path class="st20" d="M1187.23,1823.19h-90.55l-8.37,166.28l5.15,157.26h93.77c45.47,0,83.44-54.79,92.57-127.83
			c1.4-11.26,2.09-22.59,2.09-33.93C1281.89,1895.62,1239.51,1823.19,1187.23,1823.19z"/>
		<g>
			<path class="st25" d="M1096.68,1823.19c-52.26,0-94.64,72.43-94.64,161.78c-0.01,11.34,0.69,22.67,2.09,33.93
				c9.12,73,47.1,127.83,92.55,127.83s83.45-54.79,92.57-127.83c1.4-11.26,2.1-22.59,2.09-33.93
				C1191.34,1895.62,1149,1823.19,1096.68,1823.19z"/>
		</g>
		<g>
			<path class="st20" d="M1095.58,1867.73c-37.87,0-68.58,52.48-68.58,117.23c-0.01,8.22,0.5,16.43,1.51,24.59
				c6.61,52.93,34.13,92.63,67.07,92.63s60.47-39.7,67.08-92.62c1.01-8.16,1.52-16.37,1.51-24.59
				C1164.17,1920.22,1133.46,1867.74,1095.58,1867.73z"/>
			<path class="st7" d="M1124.34,1874.1c-9.07-6.56-18.74-9.88-28.76-9.89s-19.69,3.33-28.76,9.88c-8.56,6.2-16.22,15-22.77,26.2
				c-13.27,22.67-20.57,52.74-20.57,84.67c0,8.36,0.51,16.71,1.54,25c3.3,26.4,11.92,50.47,24.29,67.77
				c6.26,8.77,13.32,15.63,21,20.38c7.55,4.87,16.33,7.49,25.31,7.56v-7c-30.36,0-57.1-37.66-63.58-89.55
				c-0.99-8.01-1.48-16.08-1.48-24.15c0-30.7,7-59.5,19.6-81.11c12.3-21,28.44-32.6,45.46-32.6s33.17,11.58,45.46,32.6
				c12.65,21.61,19.61,50.42,19.61,81.12c0,8.07-0.49,16.14-1.49,24.15c-6.48,51.88-33.22,89.54-63.58,89.54v7
				c8.98-0.07,17.76-2.7,25.31-7.56c7.64-4.75,14.7-11.61,21-20.38c12.36-17.3,21-41.36,24.29-67.77c1.03-8.29,1.54-16.64,1.54-25
				c0-31.93-7.3-62-20.57-84.68C1140.57,1889.1,1132.91,1880.29,1124.34,1874.1z"/>
		</g>
		<path class="st26" d="M1154.85,1956.73c-1.16-8.71-3.1-17.3-5.8-25.66c-2.24-6.98-5.2-13.7-8.81-20.08l0,0
			c-4.57-7.94-8.59-11.94-9.6-12.47c-1.74,0-3.47,0.24-5.15,0.69c-9.1,2.45-17.16,11.21-23.5,23.37
			c-2.53,4.92-4.69,10.03-6.46,15.27c-4.34,12.95-6.94,26.43-7.72,40.07c-0.16,2.77-0.24,5.52-0.24,8.27c0,2,0,3.89,0.11,5.81
			c0.17,4.57,0.53,9,1.08,13.41c1.27,9.74,3.61,19.32,7,28.54c1.89,5.21,4.14,10.28,6.74,15.17c6.45,12,14.48,21.13,22.89,23.88
			c1.69,0.57,3.46,0.86,5.25,0.87c1.07-0.55,5.09-5.7,9.65-15l0,0c4.71-9.81,8.37-20.09,10.91-30.67
			c1.86-7.64,3.23-15.38,4.11-23.19c0.47-4.17,0.83-8.51,1-13c0.15-3.18,0.23-6.44,0.23-9.78c0-1.45,0-2.89,0-4.3
			C1156.39,1970.84,1155.82,1963.76,1154.85,1956.73z"/>
		<g>
			<path class="st7" d="M1066.92,1977.92V1992h89.38c0.15-3.18,0.23-6.44,0.23-9.78c0-1.45,0-2.89,0-4.3L1066.92,1977.92z"/>
			<path d="M1158.44,1975.92h-93.52V1994h93.28l0.09-1.91c0.16-3.26,0.24-6.58,0.24-9.87c0-1.47,0-2.92,0-4.34L1158.44,1975.92z
				 M1154.38,1990h-85.46v-10.08h85.59c0,0.76,0,1.53,0,2.3C1154.53,1984.81,1154.48,1987.42,1154.38,1990L1154.38,1990z"/>
		</g>
		<g>
			<path class="st7" d="M1145.47,1985.5l-0.5-1l0.21-0.61l0,0l2.13-6l7.54-21.19c-1.16-8.71-3.1-17.3-5.8-25.66l-6.65,18.66
				l-7.14,20.08l-2.9,8.11l-2.14,6l-0.53,1.49l0.51,1l2.8,5.62l3.45,6.87l6.45,12.86l8.27,16.47c1.86-7.64,3.23-15.38,4.11-23.19
				l-6.53-13L1145.47,1985.5z"/>
			<path d="M1156.9,1956.94l-0.06-0.48c-1.19-8.82-3.16-17.53-5.89-26l-1.83-5.56l-21.6,60.68l24.27,48.38l1.3-5.27
				c1.88-7.72,3.27-15.55,4.16-23.45l0.06-0.59l-10.17-20.28L1156.9,1956.94z M1153.21,2005.37c-0.67,5.75-1.6,11.43-2.77,17
				l-18.58-37l17-47.83c1.72,6.24,3.03,12.59,3.92,19l-7.38,20.73l-2.63,7.39L1153.21,2005.37z"/>
		</g>
		<g>
			<g>
				<path class="st7" d="M1133.22,1952.83c-10.39,0-18.82,14.39-18.81,32.16c0,2.25,0.13,4.5,0.41,6.74
					c1.81,14.52,9.37,25.41,18.4,25.41s16.59-10.89,18.4-25.41c0.28-2.24,0.41-4.49,0.41-6.74
					C1152,1967.23,1143.61,1952.83,1133.22,1952.83z"/>
				<path d="M1133.22,1950.83c-5.77,0-11.11,3.7-15,10.41c-3.73,6.37-5.78,14.81-5.78,23.75c-0.01,2.34,0.14,4.68,0.43,7
					c2,16,10.38,27.16,20.38,27.16s18.39-11.17,20.39-27.16c0.28-2.32,0.42-4.66,0.42-7
					C1154,1965.84,1144.89,1950.83,1133.22,1950.83z M1149.64,1991.49c-1.71,13.7-8.62,23.65-16.42,23.65s-14.7-10-16.42-23.65
					c-0.26-2.16-0.39-4.33-0.39-6.5c0-8.24,1.86-16,5.23-21.73c3.18-5.44,7.29-8.43,11.58-8.43c9.11,0,16.81,13.81,16.81,30.16
					C1150.03,1987.16,1149.9,1989.33,1149.64,1991.49z"/>
			</g>
		</g>
		<path d="M1134.34,1962.79c-5.83,0-10.56,8.88-10.56,19.84s4.73,19.83,10.56,19.83s10.56-8.88,10.56-19.83
			S1140.17,1962.79,1134.34,1962.79z"/>
		<path class="st20" d="M482.84,1823.19h-90.55l-8.37,166.28l5.14,157.26h93.78c45.46,0,83.44-54.79,92.57-127.83
			c1.39-11.26,2.09-22.59,2.08-33.93C577.49,1895.62,535.12,1823.19,482.84,1823.19z"/>
		<g>
			<path class="st25" d="M392.29,1823.19c-52.27,0-94.64,72.43-94.64,161.78c-0.01,11.34,0.69,22.67,2.09,33.93
				c9.12,73,47.1,127.83,92.55,127.83s83.44-54.79,92.57-127.83c1.42-11.24,2.13-22.57,2.14-33.9
				C487,1895.62,444.57,1823.19,392.29,1823.19z"/>
		</g>
		<g>
			<path class="st20" d="M391.19,1867.73c-37.88,0-68.59,52.48-68.59,117.23c-0.01,8.22,0.5,16.43,1.52,24.59
				c6.61,52.93,34.12,92.63,67.06,92.63s60.47-39.7,67.08-92.62c1.01-8.16,1.52-16.37,1.52-24.59
				C459.78,1920.22,429.07,1867.74,391.19,1867.73z"/>
			<path class="st7" d="M420,1874.1c-9.07-6.56-18.75-9.88-28.76-9.89s-19.69,3.33-28.76,9.88c-8.57,6.2-16.23,15-22.78,26.2
				C326.39,1923,319.08,1953,319.08,1985c0,8.36,0.51,16.71,1.55,25c3.29,26.4,11.92,50.47,24.28,67.77
				c6.27,8.77,13.33,15.63,21,20.38c7.55,4.87,16.33,7.49,25.31,7.56v-7c-30.35,0-57.09-37.66-63.57-89.55
				c-1-8.01-1.49-16.08-1.49-24.15c0-30.7,7-59.5,19.61-81.11c12.3-21,28.44-32.6,45.46-32.6s33.16,11.58,45.46,32.6
				c12.65,21.61,19.61,50.42,19.61,81.12c0,8.07-0.49,16.14-1.49,24.15c-6.48,51.88-33.22,89.54-63.58,89.54v7
				c8.98-0.07,17.75-2.7,25.3-7.56c7.65-4.75,14.71-11.61,21-20.38c12.37-17.3,21-41.36,24.3-67.77c1.03-8.29,1.54-16.64,1.54-25
				c0-31.93-7.31-62-20.57-84.68C436.18,1889.1,428.52,1880.29,420,1874.1z"/>
		</g>
		<path class="st26" d="M450.46,1956.73c-1.16-8.71-3.11-17.3-5.81-25.66c-2.24-6.98-5.19-13.71-8.81-20.08l0,0
			c-4.58-7.94-8.59-11.94-9.6-12.47c-1.74,0-3.48,0.24-5.16,0.69c-9.09,2.45-17.16,11.21-23.49,23.37
			c-2.53,4.92-4.69,10.03-6.46,15.27c-4.35,12.95-6.94,26.43-7.72,40.07c-0.16,2.77-0.24,5.52-0.24,8.27c0,2,0,3.89,0.11,5.81
			c0.16,4.57,0.53,9,1.07,13.41c1.27,9.74,3.61,19.32,7,28.54c1.88,5.21,4.14,10.28,6.74,15.17c6.44,12,14.48,21.13,22.89,23.88
			c1.69,0.57,3.46,0.86,5.25,0.87c1.07-0.55,5.08-5.7,9.64-15l0,0c4.72-9.8,8.38-20.09,10.91-30.67c1.87-7.63,3.24-15.38,4.12-23.19
			c0.47-4.17,0.8-8.51,1-13c0.15-3.18,0.23-6.44,0.23-9.78c0-1.45,0-2.89,0-4.3C451.98,1970.84,451.43,1963.76,450.46,1956.73z"/>
		<g>
			<path class="st7" d="M362.52,1977.92V1992h89.38c0.15-3.18,0.23-6.44,0.23-9.78c0-1.45,0-2.89,0-4.3L362.52,1977.92z"/>
			<path d="M454.05,1975.92h-93.53V1994h93.29l0.09-1.91c0.16-3.27,0.23-6.59,0.23-9.87c0-1.47,0-2.92,0-4.34L454.05,1975.92z
				 M450,1990h-85.48v-10.08h85.6c0,0.76,0,1.53,0,2.3C450.13,1984.8,450.09,1987.41,450,1990z"/>
		</g>
		<g>
			<path class="st7" d="M441.08,1985.5l-0.51-1l0.22-0.61l0,0l2.13-6l7.54-21.19c-1.16-8.71-3.11-17.3-5.81-25.66l-6.65,18.69
				l-7.15,20.08l-2.89,8.11l-2.14,6l-0.53,1.49l0.5,1l2.79,5.55l3.45,6.87l6.45,12.86l8.26,16.47c1.87-7.63,3.24-15.38,4.12-23.19
				l-6.53-13L441.08,1985.5z"/>
			<path d="M452.51,1956.94l-0.07-0.48c-1.18-8.83-3.15-17.53-5.89-26l-1.82-5.56l-21.6,60.68L447.4,2034l1.3-5.27
				c1.88-7.72,3.27-15.55,4.16-23.45l0.06-0.59l-10.18-20.28L452.51,1956.94z M448.81,2005.37c-0.67,5.75-1.59,11.43-2.77,17
				l-18.57-37l17-47.83c1.71,6.24,3.02,12.59,3.91,19l-10,28.11L448.81,2005.37z"/>
		</g>
		<g>
			<g>
				<path class="st7" d="M428.82,1952.83c-10.38,0-18.81,14.39-18.8,32.16c0,2.25,0.13,4.5,0.41,6.74
					c1.81,14.52,9.36,25.41,18.4,25.41s16.59-10.89,18.4-25.41c0.28-2.24,0.41-4.49,0.41-6.74
					C447.64,1967.23,439.22,1952.83,428.82,1952.83z"/>
				<path d="M428.82,1950.83c-5.76,0-11.1,3.7-15,10.41c-3.73,6.37-5.79,14.81-5.78,23.75c0,2.34,0.14,4.68,0.42,7
					c2,16,10.38,27.16,20.39,27.16s18.37-11.15,20.37-27.15c0.28-2.32,0.42-4.66,0.42-7
					C449.64,1965.84,440.5,1950.83,428.82,1950.83z M445.25,1991.49c-1.72,13.7-8.62,23.65-16.42,23.65s-14.71-10-16.42-23.65
					c-0.26-2.16-0.39-4.33-0.39-6.5c0-8.24,1.85-16,5.23-21.73c3.18-5.44,7.29-8.43,11.57-8.43c9.12,0,16.82,13.81,16.82,30.16
					C445.64,1987.16,445.51,1989.33,445.25,1991.49z"/>
			</g>
		</g>
		<path d="M430,1962.79c-5.83,0-10.56,8.88-10.56,19.84s4.73,19.83,10.56,19.83s10.56-8.88,10.56-19.83S435.78,1962.79,430,1962.79z
			"/>
		<path class="st21" d="M1357.14,1723.44c0,0-327.25-3.66-365.75-3.66L820.94,1722l194.28,49.72l250.67,80.08
			c0,0,263,45.15,385.94,44c83.14-0.75,152-0.8,176.12-16.25C1934.84,1811.14,1676.85,1691.69,1357.14,1723.44z"/>
		<path class="st27" d="M1304.93,1817.6c-49.87-106-170.11-96.77-412.15-97.33h-17.69c-129.52,0.14-127.49,5.23-266.84-4.33
			l-7.93-0.55c-55.43-6.64-95.43-19.53-81.86-44.38l0,0l0.6-1l0.92-1.54l0,0c0.1-0.16,0.19-0.32,0.28-0.48
			c-9.63,15.62-39.86,23.84-33.89,34.66c-116.06-10.24-156.82,4.78-156.82,4.78c-71,0-65,114.2-65.06,155.44c0,18.26,0,14.71,0,33
			v36.8h24.15c15.4-70.27,55.54-120.51,102.51-120.51c60.24,0,109.25,82.6,109.25,184.13c0,3.86-0.21,8.46-0.21,13.35v0.13
			c0,15.75-2,24.75,26.23,24.75H974c16.19,0,19-7.67,19-35.74c0-0.92,0-1.84,0-2.77c0-0.45,0-0.91,0-1.36
			c0-100.39,48.45-182.07,108-182.07s118.06,81.68,118.06,182.07c0,0.16-0.36,28.44-0.84,65.74c0,2.69-0.07,5.43-0.1,8.21v28.17
			h82.25c-0.43-11.36-3.39-23.8-1.52-36.38C1307.6,2001.76,1315.35,1839.75,1304.93,1817.6z"/>
		<path class="st21" d="M590.8,1753.4l-22.72-1.74c-11.78-0.9-23.11,4.67-25.18,12.39s5.87,14.77,17.65,15.67l22.73,1.74
			c11.78,0.9,23.11-4.68,25.18-12.39S602.58,1754.3,590.8,1753.4z"/>
		<path class="st7" d="M871.92,1719.78c-0.58,0.36-14.34,9-20.34,21c-6.23,12.47-18.63,60.31-22.35,98.31v177h3.52v-176.7
			c3.81-38.75,16.53-86.07,22-97c5.56-11.12,18.92-19.48,19-19.56l1.5-0.93l-1.85-3L871.92,1719.78z"/>
		<path class="st7" d="M519.14,1671.43c-7.61,17.99-14.09,36.45-19.4,55.25c-8.69,30.75-13.08,58.7-13.05,83.07v1.76h3.52v-1.76
			c-0.06-57.37,24.61-119.31,32.17-136.93l0.69-1.62l-3.23-1.39L519.14,1671.43z"/>
		<path class="st21" d="M1249.43,2092.67l-0.41-28.05l-0.07-4.38l-1-65.73c0-53.29-14.76-104.7-41.57-144.74
			c-28.16-42.06-66.56-66.19-105.35-66.19c-39.4,0-75.32,24-101.15,67.52c-23,38.81-35.71,89.74-35.71,143.4
			c-0.42,18.07-7.94,19.33-30.53,19.33H734.22c-48.81,0-152.21,8-189.29-30.43c-0.23-17.35-7.25-74.88-7.25-74.88
			s5.22-87.46-107.56-117.92s-150.44,99.87-150.44,141.92h9c15.39-70.27,55.53-120.52,102.5-120.52
			c60.24,0,109.25,82.6,109.25,184.13c0,1.93-0.05,4-0.11,6.29s-0.1,4.61-0.1,7.06c0,15.83-2,24.88,26.22,24.88H974
			c16.2,0,19-7.67,19-35.74c0-0.92,0-1.84,0-2.77c0-0.45,0-0.91,0-1.36c0-2.32,0.05-4.62,0.1-6.91l0,0
			c2.16-97.2,49.75-175.16,107.93-175.16c59.57,0,118.06,81.68,118.06,182.07l-0.61,65.74l-0.34,36.38l31.32,0.4v-0.4
			L1249.43,2092.67z"/>
		<path class="st7" d="M407.73,1786.18C447.13,1798.8,496,1820.73,522,1902c3.8,7,6.18,16.33,8.66,31.11c0,0,3.69,18.29,5,27.79
			c5.25,19.85,15,37,51.91,44.12C578.59,1763.25,415.85,1783.58,407.73,1786.18z"/>
		<path class="st21" d="M971.38,1802.16h-22.19c-5.63,0-10.23,3.08-10.23,6.84v7.06c0,3.76,4.6,6.84,10.23,6.84h22.19
			c5.63,0,10.24-3.08,10.24-6.84V1809C981.62,1805.24,977,1802.16,971.38,1802.16z"/>
		<path class="st23" d="M1824.58,2060.24h-566.37c-7,0-12.71,6-12.71,13.42v9.54c0,7.38,5.72,13.42,12.71,13.42h144.33
			c7,0,17.32-3.58,23-8l2.11-1.64c5.63-4.38,16-8,23-8h286.19c7,0,15.19,4,18.23,8.78s11.24,8.78,18.23,8.78h51.38
			c7,0,12.72-6,12.72-13.42v-9.54C1837.3,2066.28,1831.58,2060.24,1824.58,2060.24z"/>
		<path class="st27" d="M1279.71,2060.24h-61.19l-0.34,36.38h61.53c6.92-0.02,12.53-5.62,12.55-12.54v-11.3
			C1292.23,2065.86,1286.63,2060.26,1279.71,2060.24z"/>
		<path class="st7" d="M1298.92,1883.66c28.78,57.29,223.78,16,223.78,16l-241.46-120.09
			C1281.24,1779.57,1270.14,1826.37,1298.92,1883.66z"/>
		<path class="st24" d="M1332.53,1865.16c16.16,32.17,125.66,9,125.66,9l-135.59-67.43C1322.6,1806.73,1316.37,1833,1332.53,1865.16
			z"/>
		<path class="st7" d="M1774.83,1894.13c30.08,1.42,60.21,1.12,90.26-0.9c0.67-4.28,1.28-8.53,1.83-12.75
			c0.95-7.13,1.77-14.16,2.4-21c0.51-5.47,0.9-10.81,1.16-16c0.16-3.28,0.27-6.49,0.32-9.6v-2.24c0-1.67,0-3.31,0-4.93
			L1774.83,1894.13z"/>
		<path class="st24" d="M1869.32,1859.5c0.51-5.47,0.9-10.81,1.16-16c0.16-3.28,0.27-6.49,0.32-9.6l-36,25.28
			C1834.8,1859.18,1849.77,1860.08,1869.32,1859.5z"/>
		<path class="st21" d="M1341.28,1940.54v57.87c50.86,5.81,155.87,12.42,272,12.42c7.15,0,14.35-0.02,21.6-0.07
			c57.67-0.42,125.74-2.62,191.77-8.87c5.33-0.5,10.63-1.03,15.88-1.59c4-15.48,9-36.42,13.78-59.26
			c-62.07,7.48-136.66,11.64-221.85,12.26C1506.29,1954.21,1389.43,1946.65,1341.28,1940.54z"/>
		<path class="st7" d="M1341.28,1958.2v40.21c50.86,5.81,155.87,12.42,272,12.42c7.15,0,14.35-0.02,21.6-0.07
			c57.67-0.42,125.74-2.62,191.77-8.87c3.24-13.21,6.85-28.78,10.29-45.36c-62.07,7.49-136.66,11.65-221.85,12.26
			C1501.74,1969.6,1397.24,1963.78,1341.28,1958.2z"/>
		<path class="st7" d="M1614.87,1745.93c0,0,236.32,116.23,184,63.92S1614.87,1745.93,1614.87,1745.93z"/>
		<path class="st11" d="M829,1574c-107.12-21.54-214.93-12.15-322.39,5.49c-36.93,6.06-70.51,13.32-104.28,28.25
			c-32.4,14.33-31.29,35.41-15.21,46.63l552.54,11.06C921.89,1618.35,887.31,1585.74,829,1574z"/>
		<path class="st10" d="M1007.12,1659.17c-9.52-8.81-129.79-13.59-140.89-13.75c-10-0.14-467.28,6-479.15,9
			c-10.36,2.57,17.07,47.45,9.82,50l137.73,16c54.32,11.41,111.22,11.39,166.43,15.74c39.82,3.13,85.9,16.31,125.19,10.94
			c23-3.15,44.14-12.17,65.18-22.06c7.91-3.72,153.32-0.59,156.5-9.33C1051.27,1706.54,1016.37,1667.72,1007.12,1659.17z"/>
		<path class="st28" d="M1354.68,1635.91c-23,0-44.65,10.51-61,29.59c-8.76,10.34-15.43,22.29-19.65,35.17H1290
			c11.83-27.58,36.4-46.58,64.73-46.58s52.9,19,64.74,46.58h15.89c-4.22-12.89-10.89-24.83-19.66-35.17
			C1399.34,1646.42,1377.69,1635.91,1354.68,1635.91z"/>
		<path class="st10" d="M1482.75,1678.41c-63.47-16.49-383.82-10.5-431,32.38l477.59,8.1
			C1514.44,1700.75,1507.19,1684.77,1482.75,1678.41z"/>
		<path class="st27" d="M1542.65,1719.9l-0.16-0.13l-0.2-0.18c-72-60.35-214.74-174.68-265.33-179.11h-0.59h-0.59h-0.43H992.76
			c-20.14,0.17-88.26-0.89-99,19.12c-0.52,0.97-0.98,1.98-1.39,3l-0.15,0.4c-0.08,0.2-0.16,0.41-0.23,0.62
			c-0.04,0.1-0.08,0.2-0.11,0.3c-0.22,0.6-0.4,1.2-0.58,1.82c-0.06,0.18-0.11,0.37-0.16,0.56s-0.12,0.46-0.17,0.68
			s-0.1,0.37-0.14,0.55s-0.09,0.42-0.14,0.63s0,0.29-0.09,0.44c-0.07,0.33-0.13,0.67-0.18,1c0,0.12,0,0.24-0.07,0.36
			c-0.11,0.68-0.2,1.38-0.28,2.07l-0.09,1v0.32c0,0.15,0,0.3,0,0.45s0,0.37,0,0.56v0.59c0,0.19,0,0.38,0,0.56c0,0.92,0,1.84,0,2.77
			c0,0.25,0,0.49,0,0.74l0.06,1.38v0.36v0.13c0,0.32,0,0.65,0.07,1c0,0.08,0,0.17,0,0.25c0,0.18,0,0.35,0,0.53s0,0.53,0.08,0.79
			c0,0.08,0,0.17,0,0.25c0.06,0.59,0.13,1.2,0.21,1.79c0,0.37,0.1,0.73,0.16,1.1s0.12,0.8,0.18,1.2s0.08,0.55,0.13,0.82
			s0.1,0.6,0.17,0.91s0.07,0.38,0.1,0.57c0.12,0.66,0.26,1.32,0.4,2c0.01,0.1,0.03,0.21,0.06,0.31c0.05,0.22,0.09,0.43,0.14,0.63
			c0,0.07,0,0.14,0,0.21c0.07,0.33,0.15,0.66,0.23,1c0.39,1.68,0.82,3.36,1.28,5c0.09,0.35,0.2,0.7,0.29,1s0.21,0.73,0.32,1.1
			c0.26,0.9,0.53,1.79,0.81,2.67v0.11c0.09,0.31,0.19,0.61,0.29,0.92c0.29,0.93,0.59,1.83,0.89,2.74c0.1,0.29,0.19,0.59,0.3,0.88
			s0.19,0.58,0.29,0.86s0.12,0.37,0.19,0.55c0.47,1.4,1,2.77,1.42,4.09c0.13,0.34,0.25,0.67,0.37,1l0.18,0.51l0.93,2.61l0.46,1.32
			c0,0.09,0.06,0.18,0.1,0.26l0.69,2l0.81,2.3c0.2,0.59,0.4,1.19,0.61,1.78c1.43,4.12,2.87,8.33,4.34,12.59
			c0.12,0.33,0.23,0.66,0.34,1l0,0c0.15,0.41,0.29,0.83,0.44,1.24c0.65,1.89,1.31,3.76,2,5.65c0.39,1.13,0.8,2.26,1.2,3.38
			c0.28,0.75,0.54,1.51,0.82,2.26l0.82,2.25l0.72,1.94c0,0.1,0.07,0.2,0.11,0.31c0.22,0.56,0.43,1.13,0.64,1.7l0.63,1.66
			c0,0.11,0.08,0.22,0.13,0.33l0.72,1.89l0.87,2.2c0.24,0.62,0.48,1.24,0.73,1.85s0.52,1.31,0.79,2s0.45,1.12,0.68,1.67
			s0.42,1,0.62,1.48s0.47,1.11,0.71,1.65s0.47,1.1,0.7,1.64l0.72,1.63c0.22,0.49,0.44,1,0.67,1.48s0.56,1.24,0.84,1.85
			c0.21,0.45,0.42,0.89,0.62,1.33c0.09,0.17,0.17,0.34,0.25,0.5c0.57,1.21,1.16,2.41,1.75,3.59l0.89,1.75
			c0.23,0.43,0.45,0.87,0.68,1.31l0.37,0.7l0.47,0.86l0.54,1c0.23,0.43,0.47,0.84,0.7,1.26c0.16,0.27,0.31,0.55,0.48,0.82
			s0.31,0.55,0.47,0.82s0.32,0.54,0.48,0.81l0.47,0.8c0.17,0.27,0.33,0.55,0.51,0.81c0.31,0.52,0.63,1,0.95,1.54l1,1.57l0.47,0.7
			c0.36,0.54,0.73,1,1.09,1.57c0.14,0.21,0.29,0.41,0.43,0.61l0.53,0.73l0.54,0.71c0.53,0.71,1.07,1.4,1.61,2.08l0.55,0.67
			c0.19,0.23,0.37,0.45,0.56,0.66l0.56,0.66l0.62,0.7l0.43,0.48l0.14,0.16l0.39,0.41l0.47,0.5c0.21,0.23,0.42,0.44,0.63,0.65
			s0.42,0.42,0.64,0.63s0.43,0.42,0.64,0.63l0.64,0.6l1.31,1.15c0.44,0.38,0.89,0.75,1.34,1.09s0.9,0.7,1.36,1
			c0.22,0.17,0.45,0.33,0.68,0.49c0.46,0.32,0.92,0.63,1.39,0.92c0.93,0.59,1.89,1.14,2.85,1.64c0.49,0.25,1,0.48,1.46,0.7l0.91,0.4
			l0.55,0.22h0.08l0.54,0.21c0.76,0.28,1.53,0.53,2.31,0.75c0.18,0.06,0.36,0.1,0.54,0.15h0.15l0.56,0.13
			c0.7,0.18,1.4,0.32,2.11,0.43l0.76,0.12l0.82,0.1l0.76,0.07l0.65,0.05h0.35c0.24,0,0.48,0,0.73,0s0.55,0,0.84,0h0.12l2.52,0.38
			l61,9.37c9.69,0,24.58,0,43.26-0.07c52.91-0.15,136.22-0.45,218.09-0.66h13.42c41.29-0.1,81.77-0.18,117.3-0.19h13.42
			c32.28,0,59.69-0.62,78.75-2.08C1536.46,1726.81,1547.36,1724.09,1542.65,1719.9z M1492.2,1707.26
			c-14.22,0.14-32.21,0.25-52.54,0.32l-12.48,0.05c-38.13,0.1-82.94,0.08-126.21-0.11c-4.18,0-8.35,0-12.49-0.06
			c-54.72-0.29-105.67-0.87-135.76-1.84c-41-1.32-89.85-2.42-113.39-2.93l-7-0.15l-7.09-0.15l-50.24-1.82c-0.43,0-0.87,0-1.3,0
			c-23.37-1.24-33.74-36-46.23-72.34l-2.44-7.06c-1.08-3.14-2.16-6.2-3.24-9.22c-2.81-7.86-7.2-20.1-8-31.23
			c-0.46-6,0.11-11.7,2.54-16.2c0.4-0.74,4.77-7.4,34.05-11c18.75-2.34,39.16-2.43,51.35-2.47h4.31h276c0.51,0,1.06,0,1.65,0.07
			c11.79,0.85,42,11,116.84,64.6c46.16,33,82.09,61.64,118,91.41C1515.84,1707.29,1510.73,1707.07,1492.2,1707.26L1492.2,1707.26z"
			/>
		<g class="st6">
			<path class="st29" d="M1283.64,1551c-0.59,0-1.14-0.07-1.65-0.07H1006h-4.31c-12.19,0-32.6,0.13-51.35,2.47
				c-29.28,3.65-33.65,10.31-34.05,11c-2.43,4.5-3,10.19-2.54,16.2c0.85,11.13,5.24,23.37,8,31.23c1.08,3,2.16,6.08,3.24,9.22
				l2.44,7.06c12.49,36.29,22.86,71.1,46.23,72.34c0.43,0,0.87,0,1.3,0l50.26,1.82l7.09,0.15l7,0.15
				c23.54,0.51,72.36,1.61,113.39,2.93c30.09,1,81,1.55,135.76,1.84c4.14,0,8.31,0,12.49,0.06c43.27,0.19,88.08,0.21,126.21,0.11
				l12.48-0.05c20.33-0.07,38.32-0.18,52.54-0.32c18.53-0.19,23.64,0,26.23-0.25c-35.86-29.77-71.79-58.39-118-91.41
				C1325.62,1562.05,1295.43,1551.85,1283.64,1551z"/>
		</g>
		<path class="st24" d="M889.06,1736.72l-45.75-13.21l-8.32,9.33c0,0,29.34,25.39,35.55,31.79
			C882.77,1777.24,915.91,1746.2,889.06,1736.72z"/>
		<path class="st21" d="M889.06,1736.72l-5.69-1.65c5.13,5.48-7.54,15.45-16.24,12.5s-27-18.84-27-18.84l-2.57,6.34
			c7.27,6.32,27.89,24.31,33,29.56C882.77,1777.24,915.91,1746.2,889.06,1736.72z"/>
		<path class="st21" d="M859.93,1711.15c-7.55-9-21.74-17.11-31.52-18.12L800,1690.1c-5.25-0.54-11,2.5-15.71,7.75
			c-4.47,5.05-7.69,11.08-9.4,17.6l-3,11.26c-1.81,6.73-1.83,12.67-0.4,17.06c1.75,5.35,5.66,8.37,11.11,7.61l81.51-11.38
			c9.92-1.37,11.85-9.84,4.3-18.8L859.93,1711.15z"/>
		<g class="st22">
			<path class="st7" d="M825.72,1713.56c-5.8-6.9-16.71-13.17-24.23-13.94l-17.23-1.77c-4.47,5.05-7.69,11.08-9.4,17.6l-3,11.26
				c-1.81,6.73-1.83,12.67-0.4,17.06l57.52-8c7.63-1,9.12-7.56,3.31-14.46L825.72,1713.56z"/>
			<path d="M827.25,1712.27c-6.1-7.25-17.57-13.82-25.56-14.64l-18.23-1.88l-0.68,0.75c-4.68,5.29-8.05,11.6-9.85,18.43l-3,11.26
				c-1.84,6.84-2,13.3-0.37,18.2L770,1746l59.18-8.23c4-0.56,6.89-2.52,8-5.52c1.36-3.53,0.09-8-3.48-12.22L827.25,1712.27z
				 M833.53,1730.79c-0.78,2-3.07,2.75-4.86,3l-55.78,7.76c-0.87-4-0.57-9,0.87-14.31l3-11.26c1.55-5.88,4.38-11.34,8.29-16
				l16.2,1.67c7,0.72,17.48,6.78,22.91,13.24l6.53,7.74C833.28,1725.63,834.33,1728.7,833.53,1730.79z"/>
		</g>
		<rect x="671.21" y="1961.44" class="st30" width="17.11" height="588.21"/>
		<rect x="636.99" y="2537.89" class="st30" width="111.23" height="21.39"/>
		<rect x="686.18" y="2537.89" class="st30" width="111.23" height="21.39"/>
		<path class="st30" d="M607.72,1853.81h167.61c3.92,0,7.1,3.18,7.1,7.1v186.08c0,3.92-3.18,7.1-7.1,7.1H607.72
			c-3.92,0-7.1-3.18-7.1-7.1v-186.08C600.62,1856.99,603.8,1853.81,607.72,1853.81z"/>
		<path class="st31" d="M627.94,1870.31h140.01c3.28,0,5.93,2.66,5.93,5.93v155.43c0,3.28-2.65,5.93-5.93,5.93H627.94
			c-3.28,0-5.93-2.66-5.93-5.93v-155.43C622.01,1872.97,624.66,1870.31,627.94,1870.31z"/>
		<rect x="657.11" y="1881.67" class="st30" width="87.7" height="3.92"/>
		<rect x="681.15" y="1911.42" class="st30" width="39.61" height="5.39"/>
		<rect x="637.92" y="1894.05" class="st30" width="126.07" height="5.64"/>
		<path class="st30" d="M701,1933.63c-23,0-41.71,19.64-41.71,43.85s18.67,43.85,41.71,43.85s41.71-19.63,41.71-43.85
			S724,1933.63,701,1933.63z"/>
		<rect x="2024.31" y="381.34" class="st30" width="14.21" height="578.91"/>
		<rect x="2869.88" y="381.34" class="st30" width="14.21" height="578.91"/>
		<rect x="1907.23" y="775.89" class="st31" width="1093.94" height="475.08"/>
		<path class="st30" d="M1896,1262.2h1116.42V764.66H1896V1262.2z M1918.5,787.12h1071.42v452.62H1918.48L1918.5,787.12z"/>
		<rect x="1981.55" y="1111.25" class="st32" width="203.67" height="16.55"/>
		<g class="st6">
			<rect x="1981.55" y="1066.92" class="st30" width="264.06" height="16.55"/>
		</g>
		<rect x="1981.55" y="988.24" class="st30" width="264.06" height="44.48"/>
		<g class="st6">
			<rect x="1981.55" y="956.33" class="st30" width="264.06" height="17.88"/>
		</g>
		<rect x="1981.55" y="912" class="st32" width="115.07" height="17.88"/>
		<g class="st6">
			<rect x="2372.3" y="1111.25" class="st30" width="44.03" height="16.55"/>
		</g>
		<g class="st6">
			<rect x="2480.26" y="1111.25" class="st30" width="95.71" height="16.55"/>
		</g>
		<g class="st6">
			<rect x="2372.3" y="1066.92" class="st30" width="44.03" height="16.55"/>
		</g>
		<g class="st6">
			<rect x="2480.26" y="1066.92" class="st30" width="156.09" height="16.55"/>
		</g>
		<rect x="2372.3" y="988.24" class="st30" width="44.03" height="44.48"/>
		<rect x="2480.26" y="988.24" class="st32" width="156.09" height="44.48"/>
		<rect x="2372.3" y="956.33" class="st32" width="44.03" height="17.88"/>
		<g class="st6">
			<rect x="2480.26" y="956.33" class="st30" width="156.09" height="17.88"/>
		</g>
		<rect x="2372.3" y="912" class="st32" width="44.03" height="17.88"/>
		<rect x="1981.55" y="846.96" class="st30" width="939.62" height="33.1"/>
		<ellipse class="st30" cx="2838.58" cy="1002.24" rx="82.59" ry="82.45"/>
		<ellipse class="st32" cx="2838.58" cy="1157.38" rx="35.52" ry="35.46"/>
		<rect x="3880.28" y="2018.19" class="st33" width="21.23" height="729.86"/>
		<rect x="3805.97" y="2733.46" class="st33" width="138.01" height="26.54"/>
		<rect x="3744.93" y="2733.46" class="st33" width="138.01" height="26.54"/>
		<path class="st33" d="M3772.32,1884.65h207.97c4.87,0,8.81,3.94,8.81,8.81v230.89c0,4.87-3.94,8.81-8.81,8.81h-207.97
			c-4.87,0-8.81-3.94-8.81-8.81v-230.89C3763.51,1888.59,3767.45,1884.65,3772.32,1884.65z"/>
		<path class="st31" d="M3781.48,1905.12h173.72c4.06,0,7.36,3.3,7.36,7.36v192.86c0,4.06-3.3,7.36-7.36,7.36h-173.72
			c-4.06,0-7.36-3.3-7.36-7.36v-192.86C3774.12,1908.42,3777.42,1905.12,3781.48,1905.12z"/>
		<rect x="3810.19" y="1919.22" class="st30" width="108.82" height="4.86"/>
		<rect x="3840.03" y="1956.13" class="st30" width="49.15" height="6.69"/>
		<rect x="3786.39" y="1934.58" class="st30" width="156.43" height="6.99"/>
		<path class="st30" d="M3864.6,1983.69c-28.58,0-51.75,24.36-51.75,54.41c0,30.05,23.17,54.41,51.75,54.41s51.76-24.36,51.76-54.41
			S3893.19,1983.69,3864.6,1983.69z"/>
	</g>
</g>
</svg>
