<?xml version="1.0" encoding="utf-8"?>
<!-- Generator: Adobe Illustrator 25.1.0, SVG Export Plug-In . SVG Version: 6.00 Build 0)  -->
<svg version="1.1" id="Layer_1" xmlns="http://www.w3.org/2000/svg" xmlns:xlink="http://www.w3.org/1999/xlink" x="0px" y="0px"
	 viewBox="0 0 470.53 257.23" style="enable-background:new 0 0 470.53 257.23;" xml:space="preserve">
<style type="text/css">
	.st0{fill:#649E46;}
	.st1{fill:#578E38;}
	.st2{fill:#416B28;}
	.st3{fill:#0A1111;}
	.st4{fill:#3F3F3F;}
	.st5{fill:#E4F2F4;}
	.st6{fill:url(#SVGID_1_);}
	.st7{fill:#ED7B2E;}
	.st8{fill:url(#SVGID_2_);}
	.st9{fill:#2B2C24;}
	.st10{fill:#AA2727;}
	.st11{fill:#F2B1B1;}
</style>
<g>
	<path class="st0" d="M455.13,188.15c-3.84,2.1-26.26,3.5-37.58,4.08c-3.94,0.21-6.55,0.31-6.55,0.31H66.94l-10.76-0.9l-39.71-3.36
		c-1.12-0.1-2.11-0.82-2.49-1.89c-6.32-17.68-4.53-37.65-4.53-37.65c0.54-10.44,7.63-24.96,7.63-24.96
		c6.72-42.5,21.23-61.24,17.71-62.93c-6.81-3.27,3.81-5.72,3.81-5.72c68.65-16.35,236.46-2.18,269.69,4.36
		c33.24,6.54,79.52,53.12,79.52,53.12c46.9,11.26,64.55,27.57,68.55,31.88c0.6,0.64,0.92,1.49,0.89,2.36
		c-0.07,3.12-0.05,11.05,1.68,14.51C461.13,165.72,460.31,185.33,455.13,188.15z"/>
	<path class="st1" d="M455.68,187.78c2.53-2.08,3.9-8.4,4.28-14.44h-32.54c-1.6,0-2.7,1.62-2.11,3.11l4.63,11.71L455.68,187.78z"/>
	<path class="st2" d="M11.87,179.26c0.2,0.59,1.39,4.54,2.15,6.99c0.35,1.13,1.35,1.93,2.54,2.03l39.62,3.36l10.76,0.9H411
		c0,0,2.6-0.1,6.55-0.31c11.32-0.58,33.75-1.97,37.58-4.08c0.82-0.44,1.52-1.31,2.13-2.46H66.76L11.87,179.26z"/>
	<path class="st3" d="M417.55,182.6v9.63c-3.94,0.21-6.55,0.31-6.55,0.31h-72.32v-9.94c0-21.7,17.75-39.44,39.44-39.44
		c10.84,0,20.7,4.43,27.85,11.58C413.12,161.89,417.55,171.75,417.55,182.6z"/>
	<g>
		
			<ellipse transform="matrix(0.9809 -0.1948 0.1948 0.9809 -28.6203 77.1639)" class="st4" cx="378.12" cy="184.13" rx="35.39" ry="35.39"/>
		
			<ellipse transform="matrix(0.2702 -0.9628 0.9628 0.2702 98.6646 498.4335)" class="st3" cx="378.12" cy="184.13" rx="21.53" ry="21.53"/>
		<path class="st5" d="M358.82,174.59c-5.28,10.66-0.92,23.57,9.74,28.85c6.01,2.98,12.74,2.89,18.42,0.33c0,0,0,0,0,0
			c2.14-0.96,4.13-2.28,5.88-3.91c0-0.01,0-0.01-0.01-0.02c1.82-1.71,3.38-3.77,4.55-6.14c1.18-2.39,1.88-4.88,2.13-7.38
			c0.01-0.01,0.03-0.01,0.04-0.01c0.24-2.37,0.08-4.76-0.45-7.04c-0.01,0-0.03-0.01-0.04-0.01c-1.16-4.94-4.05-9.44-8.34-12.54
			c0-0.01,0.01-0.03,0.01-0.04c-0.94-0.68-1.96-1.29-3.04-1.83c-1.08-0.53-2.18-0.97-3.29-1.31c-0.01,0.01-0.01,0.01-0.02,0.02
			C374.49,160.52,363.57,165.01,358.82,174.59z M360.09,175.22c1.06-2.13,2.44-3.99,4.06-5.55l7.48,11.25l-13.49,0.86
			C358.41,179.55,359.05,177.34,360.09,175.22z M369.73,168.27l6.37,10.11c0.36,0.58,0.2,1.36-0.38,1.74l-0.34,0.23
			c-0.57,0.38-1.36,0.24-1.75-0.33l-6.87-9.77c-0.41-0.58-0.26-1.4,0.33-1.79l0.85-0.56C368.54,167.49,369.35,167.67,369.73,168.27z
			 M372.33,185.99l-11.9,1.06c-0.71,0.07-1.34-0.48-1.38-1.19l-0.06-1.01c-0.05-0.71,0.51-1.32,1.22-1.35l11.93-0.46
			c0.69-0.02,1.28,0.5,1.32,1.2l0.02,0.4C373.52,185.32,373.01,185.93,372.33,185.99z M383.66,164.82l-5.98,12.07l-7.48-11.23
			C374.38,163.88,379.13,163.51,383.66,164.82z M370.08,201.55l-0.91-0.45c-0.64-0.32-0.89-1.1-0.56-1.74l5.57-10.56
			c0.32-0.61,1.08-0.85,1.7-0.55l0.36,0.18c0.62,0.31,0.88,1.05,0.59,1.68l-5.02,10.83C371.51,201.59,370.73,201.87,370.08,201.55z
			 M384.49,167.32c0.3-0.65,1.08-0.92,1.72-0.6l0.91,0.45c0.64,0.32,0.9,1.1,0.56,1.74l-5.58,10.57c-0.32,0.61-1.07,0.86-1.69,0.55
			l-0.36-0.18c-0.62-0.31-0.88-1.05-0.59-1.68L384.49,167.32z M397.61,179.26l-13.42,0.85l5.97-12.06
			C393.94,170.87,396.51,174.87,397.61,179.26z M392.12,198.58l-7.47-11.22l13.43-0.86c-0.26,2.23-0.9,4.45-1.95,6.57
			C395.09,195.18,393.72,197.02,392.12,198.58z M386.57,200l-6.36-10.11c-0.37-0.59-0.2-1.36,0.37-1.74l0.34-0.22
			c0.57-0.38,1.35-0.24,1.75,0.33l6.87,9.77c0.41,0.58,0.26,1.4-0.34,1.79l-0.84,0.56C387.75,200.78,386.95,200.61,386.57,200z
			 M383.97,182.28l11.9-1.07c0.72-0.06,1.34,0.48,1.39,1.19l0.07,1.01c0.04,0.72-0.51,1.33-1.23,1.36l-11.94,0.46
			c-0.69,0.03-1.28-0.5-1.32-1.19l-0.03-0.41C382.77,182.94,383.29,182.34,383.97,182.28z M372.61,203.49l6-12.1l7.47,11.22
			C381.91,204.4,377.16,204.78,372.61,203.49z M358.61,189.02l13.49-0.86l-6,12.11C362.3,197.44,359.71,193.43,358.61,189.02z"/>
		<path class="st3" d="M375.34,182.76c-0.76,1.53-0.13,3.39,1.4,4.15c1.53,0.76,3.39,0.13,4.15-1.4c0.76-1.53,0.13-3.39-1.4-4.15
			C377.96,180.6,376.1,181.22,375.34,182.76z"/>
	</g>
	<path class="st3" d="M135.05,182.6v9.94H66.94l-10.76-0.9v-9.03c0-21.7,17.75-39.44,39.44-39.44c10.84,0,20.7,4.43,27.85,11.58
		C130.62,161.89,135.05,171.75,135.05,182.6z"/>
	<g>
		
			<ellipse transform="matrix(0.436 -0.8999 0.8999 0.436 -111.782 189.8974)" class="st4" cx="95.62" cy="184.13" rx="35.39" ry="35.39"/>
		<path class="st3" d="M76.33,174.58c5.28-10.65,18.19-15.01,28.85-9.73c10.65,5.28,15.01,18.19,9.73,28.85
			c-5.28,10.65-18.19,15.01-28.85,9.73C75.41,198.15,71.05,185.23,76.33,174.58z"/>
		<path class="st5" d="M76.32,174.59c-5.28,10.66-0.92,23.57,9.74,28.85c6.01,2.98,12.74,2.89,18.42,0.33c0,0,0,0,0,0
			c2.14-0.96,4.13-2.28,5.88-3.91c0-0.01,0-0.01-0.01-0.02c1.82-1.71,3.38-3.77,4.55-6.14c1.18-2.39,1.88-4.88,2.13-7.38
			c0.01-0.01,0.03-0.01,0.04-0.01c0.24-2.37,0.08-4.76-0.45-7.04c-0.01,0-0.03-0.01-0.04-0.01c-1.16-4.94-4.05-9.44-8.34-12.54
			c0-0.01,0.01-0.03,0.01-0.04c-0.94-0.68-1.96-1.29-3.04-1.83c-1.08-0.53-2.18-0.97-3.29-1.31c-0.01,0.01-0.01,0.01-0.02,0.02
			C91.99,160.52,81.07,165.01,76.32,174.59z M77.6,175.22c1.06-2.13,2.44-3.99,4.06-5.55l7.48,11.25l-13.49,0.86
			C75.91,179.55,76.55,177.34,77.6,175.22z M87.23,168.27l6.37,10.11c0.36,0.58,0.2,1.36-0.38,1.74l-0.34,0.23
			c-0.57,0.38-1.36,0.24-1.75-0.33l-6.87-9.77c-0.41-0.58-0.26-1.4,0.33-1.79l0.85-0.56C86.04,167.49,86.85,167.67,87.23,168.27z
			 M89.83,185.99l-11.9,1.06c-0.71,0.07-1.34-0.48-1.38-1.19l-0.06-1.01c-0.04-0.71,0.51-1.32,1.22-1.35l11.93-0.46
			c0.69-0.02,1.28,0.5,1.32,1.2l0.02,0.4C91.03,185.32,90.51,185.93,89.83,185.99z M101.17,164.82l-5.98,12.07l-7.48-11.23
			C91.88,163.88,96.63,163.51,101.17,164.82z M87.59,201.55l-0.91-0.45c-0.64-0.32-0.89-1.1-0.56-1.74l5.57-10.56
			c0.32-0.61,1.08-0.85,1.7-0.55l0.36,0.18c0.62,0.31,0.88,1.05,0.59,1.68l-5.02,10.83C89.01,201.59,88.23,201.87,87.59,201.55z
			 M101.99,167.32c0.3-0.65,1.08-0.92,1.72-0.6l0.91,0.45c0.64,0.32,0.9,1.1,0.56,1.74l-5.58,10.57c-0.32,0.61-1.07,0.86-1.69,0.55
			l-0.36-0.18c-0.62-0.31-0.88-1.05-0.59-1.68L101.99,167.32z M115.12,179.26l-13.42,0.85l5.97-12.06
			C111.44,170.87,114.01,174.87,115.12,179.26z M109.62,198.58l-7.47-11.22l13.43-0.86c-0.26,2.23-0.9,4.45-1.95,6.57
			C112.59,195.18,111.22,197.02,109.62,198.58z M104.07,200l-6.36-10.11c-0.37-0.59-0.2-1.36,0.37-1.74l0.34-0.22
			c0.57-0.38,1.35-0.24,1.75,0.33l6.87,9.77c0.41,0.58,0.26,1.4-0.33,1.79l-0.84,0.56C105.26,200.78,104.45,200.61,104.07,200z
			 M101.48,182.28l11.9-1.07c0.72-0.06,1.34,0.48,1.39,1.19l0.07,1.01c0.04,0.72-0.51,1.33-1.23,1.36l-11.94,0.46
			c-0.69,0.03-1.28-0.5-1.32-1.19l-0.03-0.41C100.27,182.94,100.79,182.34,101.48,182.28z M90.12,203.49l6-12.1l7.47,11.22
			C99.41,204.4,94.66,204.78,90.12,203.49z M76.11,189.02l13.49-0.86l-6,12.11C79.8,197.44,77.21,193.43,76.11,189.02z"/>
		<path class="st3" d="M92.84,182.76c-0.76,1.53-0.13,3.39,1.4,4.15c1.53,0.76,3.39,0.13,4.15-1.4c0.76-1.53,0.13-3.39-1.4-4.15
			C95.46,180.6,93.6,181.22,92.84,182.76z"/>
	</g>
	
		<linearGradient id="SVGID_1_" gradientUnits="userSpaceOnUse" x1="313.1861" y1="287.5858" x2="349.3817" y2="287.5858" gradientTransform="matrix(1 0 0 1 103.1624 -146.8376)">
		<stop  offset="0" style="stop-color:#1C1A3A"/>
		<stop  offset="0.9202" style="stop-color:#4F4E66"/>
	</linearGradient>
	<path class="st6" d="M452.53,147.66c0.09-0.97-0.33-1.91-1.13-2.47c-4.27-2.99-18.4-12.46-30.04-15.43
		c-13.89-3.54,5.36,9.08,7.08,12.99c1.17,2.65,1.75,4.21,1.98,5.59c0.19,1.18,1.17,2.06,2.36,2.2l16.55,1.82
		c1.5,0.16,2.84-0.93,2.98-2.43L452.53,147.66z"/>
	<path class="st7" d="M451.53,181.61h-18.81c-1.01,0-1.83-0.82-1.83-1.83v-2.23c0-1.01,0.82-1.83,1.83-1.83h18.81
		c1.01,0,1.83,0.82,1.83,1.83v2.23C453.36,180.79,452.54,181.61,451.53,181.61z"/>
	
		<linearGradient id="SVGID_2_" gradientUnits="userSpaceOnUse" x1="111.1657" y1="256.1986" x2="113.3096" y2="206.3533" gradientTransform="matrix(1 0 0 1 103.1624 -146.8376)">
		<stop  offset="0" style="stop-color:#1C1A3A"/>
		<stop  offset="0.9202" style="stop-color:#4F4E66"/>
	</linearGradient>
	<path class="st8" d="M369.35,119.96c-47.52-4.83-194.64-18.79-308.89-19.09c-4.53-0.01-7.77-4.36-6.49-8.7l9.01-30.66
		c0.77-2.61,3-4.51,5.7-4.83c17.25-2.06,85.79-7.89,225.92,6.96c0,0,24.61,2.91,37.58,13.17c7.36,5.82,28.11,22.07,41.32,33.53
		C377.55,113.86,374.69,120.51,369.35,119.96z"/>
	<path class="st9" d="M147.99,53.96c-3.23-0.05-8.05-0.09-11.08-0.11l-17.84,48.19c4.6,0.16,9.22,0.33,13.85,0.52L147.99,53.96z"/>
	<path class="st9" d="M230.22,57.83c-4.94-0.36-9.76-0.7-14.45-1.01l7.55,50.74c4.18,0.29,8.32,0.58,12.43,0.87L230.22,57.83z"/>
	<path class="st9" d="M294.59,63.65c-3.56-0.38-7.07-0.74-10.53-1.09l34.74,52.58c5.25,0.47,10.25,0.93,15,1.37L294.59,63.65z"/>
	<path class="st10" d="M15.87,173.58l0.49,2.42c0.14,0.69,0.69,1.22,1.39,1.33l13.82,2.19c1.04,0.17,1.98-0.66,1.95-1.72l0,0
		c-0.02-0.71-0.49-1.33-1.17-1.55l-14.31-4.61C16.81,171.24,15.61,172.31,15.87,173.58z"/>
	<g>
		<path class="st2" d="M327.76,183.58h-98.77l0.04-0.58c1.5-21.88,3.46-64.68,0.08-70.02l-0.07-0.11l-6.26-58.43l59.96,5.03
			c2.44,0.25,4.64,1.44,6.19,3.33c8.57,10.43,36.69,45.36,38.87,57.14c2.76,14.89,2.76,42.05,0,63.17L327.76,183.58z M230.16,182.49
			h96.65c2.94-22.98,2.29-49.69-0.06-62.36c-2.13-11.52-30.12-46.27-38.64-56.64c-1.37-1.67-3.31-2.71-5.46-2.94l-58.63-4.89
			l6.09,56.85C234.22,119.71,230.61,175.73,230.16,182.49z"/>
		<path class="st2" d="M229.57,183.58H151.7c-2.2,0-4.04-1.65-4.27-3.84c-0.93-8.71-5.22-29.88-24.86-38.5l-0.33-0.14l0-0.36
			c0-0.24,0.29-23.87,2.56-34.34c2.8-12.94,9.54-33.72,16.04-49.41c1.75-4.22,4.58-6.5,7.98-6.36l74.61,3.88l-0.04,1.09l-74.61-3.88
			c-0.08,0-0.15,0-0.23,0c-3.59,0-5.62,3.08-6.7,5.7c-6.47,15.64-13.19,36.34-15.98,49.22c-2.09,9.67-2.48,30.76-2.53,33.77
			c19.88,8.93,24.23,30.39,25.18,39.23c0.18,1.63,1.55,2.86,3.19,2.86h77.87V183.58z"/>
	</g>
	<path class="st2" d="M243.66,121.51l13.86,1.04c1.55,0.12,2.42,1.82,1.62,3.15l0,0c-0.35,0.58-0.96,0.95-1.63,0.99l-13.98,0.96
		c-0.55,0.04-1.09-0.14-1.51-0.51c-1-0.87-2.35-2.71,0.03-5.06C242.47,121.68,243.07,121.47,243.66,121.51z"/>
	<path class="st2" d="M140.32,116.92l13.86,1.04c1.55,0.12,2.42,1.82,1.62,3.15l0,0c-0.35,0.58-0.96,0.95-1.63,0.99l-13.98,0.96
		c-0.55,0.04-1.09-0.14-1.51-0.51c-1-0.87-2.35-2.71,0.03-5.06C139.14,117.08,139.73,116.88,140.32,116.92z"/>
	<path class="st10" d="M21.46,102.56l12.88,7.15c0.79,0.44,1.32,1.25,1.39,2.16l0.97,12.24c0.14,1.79-1.46,3.22-3.23,2.87
		l-16.38-3.21C17.09,123.76,15.48,111.49,21.46,102.56z"/>
	<path class="st11" d="M31.44,125.49l-11.85-2.28c-0.84-0.16-1.39-0.97-1.23-1.81l0.44-2.31c0.16-0.84,0.97-1.39,1.81-1.23
		l11.85,2.28c0.84,0.16,1.39,0.97,1.23,1.81l-0.44,2.31C33.09,125.1,32.28,125.65,31.44,125.49z"/>
	<path class="st0" d="M376.95,113.78c-0.28,0-10.03,1.63-11.6-0.73c-1.57-2.36-3.21,2.54-3.21,2.54s8.17,4.75,9.26,5.92
		C372.5,122.67,376.95,113.78,376.95,113.78z"/>
	<path class="st1" d="M361.33,118.3l-6-1.27c-1.51-0.32-2.55-1.7-2.44-3.24l0.34-4.99c0.11-1.62,1.46-2.88,3.09-2.88h5.65
		c1.71,0,3.09,1.38,3.09,3.09v6.26C365.06,117.24,363.25,118.71,361.33,118.3z"/>
</g>
</svg>
