<?xml version="1.0" encoding="utf-8"?>
<!-- Generator: Adobe Illustrator 25.1.0, SVG Export Plug-In . SVG Version: 6.00 Build 0)  -->
<svg version="1.1" id="Layer_1" xmlns="http://www.w3.org/2000/svg" xmlns:xlink="http://www.w3.org/1999/xlink" x="0px" y="0px"
	 viewBox="0 0 1190.3 508.28" style="enable-background:new 0 0 1190.3 508.28;" xml:space="preserve">
<style type="text/css">
	.st0{fill-rule:evenodd;clip-rule:evenodd;fill:#1A1A1A;}
	.st1{fill-rule:evenodd;clip-rule:evenodd;fill:#BA2525;}
	.st2{fill-rule:evenodd;clip-rule:evenodd;fill:#121212;}
	.st3{fill-rule:evenodd;clip-rule:evenodd;fill:#FFFFFF;}
	.st4{fill-rule:evenodd;clip-rule:evenodd;fill:#989898;}
	.st5{fill-rule:evenodd;clip-rule:evenodd;fill:#808080;}
	.st6{fill-rule:evenodd;clip-rule:evenodd;fill:#666666;}
	.st7{fill-rule:evenodd;clip-rule:evenodd;fill:#991F1F;}
	.st8{fill-rule:evenodd;clip-rule:evenodd;fill:#9E2E2E;}
	.st9{fill-rule:evenodd;clip-rule:evenodd;fill:#CE1111;}
	.st10{fill-rule:evenodd;clip-rule:evenodd;fill:#2E333D;}
	.st11{fill-rule:evenodd;clip-rule:evenodd;fill:url(#SVGID_1_);}
	.st12{fill-rule:evenodd;clip-rule:evenodd;fill:#333333;}
	.st13{fill-rule:evenodd;clip-rule:evenodd;fill:url(#SVGID_2_);}
	.st14{fill-rule:evenodd;clip-rule:evenodd;fill:#FF0000;}
	.st15{fill-rule:evenodd;clip-rule:evenodd;fill:#B2B2B2;}
	.st16{fill-rule:evenodd;clip-rule:evenodd;fill:#C61414;}
	.st17{fill-rule:evenodd;clip-rule:evenodd;fill:#B20D0D;}
</style>
<g id="_x37_">
	<path class="st0" d="M1147.93,384.32v-31.16c-3.14,3.14-6.17,9.14-6.17,15.58C1141.76,375.18,1144.54,380.87,1147.93,384.32z"/>
	<path class="st1" d="M254.32,77.03c-25.32,4.03-72.28,9.36-89.55,12.49c-13.45,5.45-5.69,14.89-6.27,22.85l53.52-15.05
		L254.32,77.03z"/>
	<polygon class="st2" points="696.85,260.25 97.15,256.33 58.62,305.63 61.47,390.84 76.98,390.85 211.06,410.86 818.11,410.86 	"/>
	<g>
		<path class="st2" d="M458.87,465.1h41.42c35.17,0,63.69-43.99,63.69-98.25c0-54.26-28.52-98.25-63.69-98.25h-41.42
			C420.57,268.6,419.32,465.1,458.87,465.1z"/>
		<path class="st2" d="M458.87,465.1c35.08,0,63.69-44.14,63.69-98.25c0-54.11-28.61-98.25-63.69-98.25
			c-35.08,0-63.69,44.14-63.69,98.25C395.19,420.97,423.8,465.1,458.87,465.1z"/>
		<path class="st2" d="M970.13,465.1h41.42c35.17,0,63.69-43.99,63.69-98.25c0-54.26-28.51-98.25-63.69-98.25h-41.42
			C931.83,268.6,930.57,465.1,970.13,465.1z"/>
		<path class="st2" d="M970.13,465.1c35.08,0,63.69-44.14,63.69-98.25c0-54.11-28.61-98.25-63.69-98.25
			c-35.08,0-63.69,44.14-63.69,98.25C906.44,420.97,935.06,465.1,970.13,465.1z"/>
	</g>
	<g>
		<g>
			<path class="st2" d="M136.79,465.1h41.42c35.17,0,63.69-43.99,63.69-98.25c0-54.26-28.51-98.25-63.69-98.25h-41.42
				C98.48,268.6,97.23,465.1,136.79,465.1z"/>
			<path class="st0" d="M136.79,465.1c35.08,0,63.69-44.14,63.69-98.25c0-54.11-28.61-98.25-63.69-98.25S73.1,312.74,73.1,366.85
				C73.1,420.97,101.71,465.1,136.79,465.1z"/>
			<path class="st3" d="M136.79,435.99c24.68,0,44.81-31.06,44.81-69.14c0-38.08-20.13-69.13-44.81-69.13
				c-24.68,0-44.81,31.06-44.81,69.13C91.97,404.93,112.11,435.99,136.79,435.99z"/>
			<path class="st4" d="M136.79,426.15c21.17,0,38.44-26.64,38.44-59.3c0-32.66-17.27-59.3-38.44-59.3
				c-21.17,0-38.44,26.64-38.44,59.3C98.35,399.51,115.61,426.15,136.79,426.15z"/>
			<path class="st0" d="M144.22,425.04c17.67-5.34,31.01-29.36,31.01-58.19c0-28.83-13.34-52.85-31.01-58.19
				c-17.67,5.34-31.01,29.36-31.01,58.19C113.21,395.68,126.55,419.7,144.22,425.04z"/>
			<path class="st5" d="M148.31,423.44c2-1.07,3.93-2.09,5.77-3.63l-0.19-29.09c0.74-0.22,1.46-0.51,2.16-0.88l13.23,8.7
				c0.62-1.48,1.18-2.99,1.69-4.54l-7.42-12.51c0.49-1,0.94-2.07,1.33-3.18l8.96,4.37c0.49-2.86,0.9-5.78,1.11-8.79l-8.33-4.06
				c0.08-0.97,0.12-1.96,0.12-2.97c0-0.15,0-0.29,0-0.43l8.43-2.65l-0.05-1.35l-3.13-15.12l-8.11,5.61c-0.48-1.04-1-2.01-1.57-2.92
				l6.95-14.87c-1.05-2.7-1.65-3.85-2.96-6.25l-8.7,15.95c-0.67-0.48-1.37-0.89-2.08-1.23l1.5-20.78l1.72-4.65
				c-1.42-1.48-2.84-2.86-4.26-3.97l-10.53-5.27c-1.3,0.37-2.59,0.83-3.84,1.39l4.65,12.49l1.5,20.77c-0.8,0.37-1.56,0.84-2.3,1.39
				l-13.72-28.47h-5.74l14.8,33.75c-0.51,0.83-0.98,1.72-1.4,2.66l-12.44-8.6l-6.31-10.63h-5.75l-6.66,31.42h5.75l9.18-2.92
				l13.36,4.24c0,0.15,0,0.29,0,0.43c0,1.14,0.05,2.26,0.15,3.36l-21.9,11.19l-3.93,8.42h5.75l21.91-11.19
				c0.36,1,0.77,1.96,1.22,2.87l-9.18,15.47l-8.55,5.91l11.69,19.43h5.74l1.03-14.3l6.76-18.16c0.77,0.41,1.58,0.73,2.4,0.95
				L148.31,423.44z"/>
			<path class="st3" d="M142.53,425.5c1.98-0.46,3.91-1.15,5.78-2.06l-0.16-32.72c0.74-0.22,1.46-0.51,2.16-0.88l6.76,18.15
				l0.62,8.63c4.66-4.67,8.62-10.85,11.59-18.09l-2.3-1.59l-9.18-15.46c0.49-1,0.94-2.07,1.33-3.18l14.22,6.89
				c0.59-2.8,1.05-5.7,1.37-8.67l-13.83-6.71c0.08-0.97,0.12-1.96,0.12-2.97c0-0.15,0-0.29,0-0.43l13.36-4.24l0.76,0.24
				c-0.34-7.14-1.51-13.92-3.34-20.14l-1.21,2.03l-12.43,8.6c-0.48-1.04-1-2.01-1.57-2.92l9.8-21c-1.25-2.33-2.62-4.5-4.09-6.51
				l-10.42,22.34c-0.67-0.48-1.37-0.89-2.08-1.23l1.49-20.78l3.21-8.62c-3.77-3.02-7.92-5.11-12.3-6.06
				c-2.69,0.32-5.31,1.06-7.82,2.18l4.65,12.49l1.5,20.77c-0.8,0.37-1.56,0.84-2.3,1.39l-13.72-28.47l-4.66,5.29l13.71,28.46
				c-0.51,0.83-0.98,1.72-1.4,2.66l-12.44-8.6l-6.31-10.63c-4.01,8.99-6.44,19.78-6.66,31.42l9.18-2.92l13.36,4.24
				c0,0.15,0,0.29,0,0.43c0,1.14,0.05,2.26,0.15,3.36l-21.9,11.19l1.82,8.42l21.91-11.19c0.36,1,0.77,1.96,1.22,2.87l-9.18,15.47
				l-8.55,5.91c4.44,8.8,10.48,15.6,17.44,19.43l1.03-14.3l6.76-18.16c0.77,0.41,1.58,0.73,2.4,0.95L142.53,425.5z"/>
			<path class="st6" d="M143.47,380.38c4.87,0,8.83-6.08,8.83-13.54c0-7.45-3.97-13.53-8.83-13.53c-4.86,0-8.83,6.08-8.83,13.53
				C134.63,374.3,138.6,380.38,143.47,380.38z"/>
		</g>
		<g>
			<path class="st2" d="M649.04,465.1h41.42c35.17,0,63.69-43.99,63.69-98.25c0-54.26-28.52-98.25-63.69-98.25h-41.42
				C610.74,268.6,609.48,465.1,649.04,465.1z"/>
			<path class="st0" d="M649.04,465.1c35.08,0,63.69-44.14,63.69-98.25c0-54.11-28.61-98.25-63.69-98.25
				c-35.08,0-63.69,44.14-63.69,98.25C585.35,420.97,613.96,465.1,649.04,465.1z"/>
			<path class="st3" d="M649.04,435.99c24.68,0,44.81-31.06,44.81-69.14c0-38.08-20.13-69.13-44.81-69.13
				c-24.68,0-44.82,31.06-44.82,69.13C604.23,404.93,624.36,435.99,649.04,435.99z"/>
			<path class="st4" d="M649.04,426.15c21.17,0,38.44-26.64,38.44-59.3c0-32.66-17.26-59.3-38.44-59.3
				c-21.17,0-38.44,26.64-38.44,59.3C610.6,399.51,627.87,426.15,649.04,426.15z"/>
			<path class="st0" d="M656.47,425.04c17.67-5.34,31.01-29.36,31.01-58.19c0-28.83-13.33-52.85-31.01-58.19
				c-17.67,5.34-31.01,29.36-31.01,58.19C625.47,395.68,638.8,419.7,656.47,425.04z"/>
			<path class="st5" d="M660.57,423.44c2-1.07,3.93-2.09,5.77-3.63l-0.19-29.09c0.74-0.22,1.46-0.51,2.16-0.88l13.23,8.7
				c0.62-1.48,1.18-2.99,1.69-4.54l-7.42-12.51c0.49-1,0.94-2.07,1.33-3.18l8.96,4.37c0.49-2.86,0.9-5.78,1.11-8.79l-8.33-4.06
				c0.08-0.97,0.12-1.96,0.12-2.97c0-0.15,0-0.29,0-0.43l8.43-2.65l-0.05-1.35l-3.13-15.12l-8.11,5.61c-0.48-1.04-1-2.01-1.57-2.92
				l6.95-14.87c-1.05-2.7-1.65-3.85-2.96-6.25l-8.7,15.95c-0.67-0.48-1.37-0.89-2.08-1.23l1.5-20.78l1.72-4.65
				c-1.42-1.48-2.84-2.86-4.26-3.97l-10.54-5.27c-1.3,0.37-2.58,0.83-3.84,1.39l4.65,12.49l1.5,20.77c-0.8,0.37-1.56,0.84-2.3,1.39
				l-13.72-28.47h-5.74l14.8,33.75c-0.51,0.83-0.98,1.72-1.4,2.66l-12.44-8.6l-6.31-10.63h-5.74l-6.66,31.42h5.74l9.18-2.92
				l13.36,4.24c0,0.15,0,0.29,0,0.43c0,1.14,0.05,2.26,0.15,3.36l-21.9,11.19l-3.93,8.42h5.75l21.91-11.19
				c0.36,1,0.77,1.96,1.22,2.87l-9.18,15.47l-8.55,5.91l11.69,19.43h5.74l1.03-14.3l6.76-18.16c0.78,0.41,1.58,0.73,2.4,0.95
				L660.57,423.44z"/>
			<path class="st3" d="M654.79,425.5c1.98-0.46,3.91-1.15,5.78-2.06l-0.16-32.72c0.74-0.22,1.46-0.51,2.16-0.88l6.76,18.15
				l0.62,8.63c4.66-4.67,8.62-10.85,11.59-18.09l-2.3-1.59l-9.18-15.46c0.5-1,0.94-2.07,1.33-3.18l14.22,6.89
				c0.59-2.8,1.05-5.7,1.37-8.67l-13.83-6.71c0.08-0.97,0.12-1.96,0.12-2.97c0-0.15,0-0.29,0-0.43l13.36-4.24l0.76,0.24
				c-0.34-7.14-1.51-13.92-3.34-20.14l-1.21,2.03l-12.43,8.6c-0.48-1.04-1-2.01-1.57-2.92l9.8-21c-1.25-2.33-2.62-4.5-4.09-6.51
				l-10.42,22.34c-0.67-0.48-1.37-0.89-2.08-1.23l1.49-20.78l3.21-8.62c-3.77-3.02-7.92-5.11-12.3-6.06
				c-2.69,0.32-5.31,1.06-7.82,2.18l4.65,12.49l1.5,20.77c-0.8,0.37-1.57,0.84-2.3,1.39l-13.72-28.47l-4.66,5.29l13.71,28.46
				c-0.51,0.83-0.98,1.72-1.41,2.66l-12.43-8.6l-6.31-10.63c-4.01,8.99-6.44,19.78-6.66,31.42l9.18-2.92l13.36,4.24
				c0,0.15,0,0.29,0,0.43c0,1.14,0.05,2.26,0.15,3.36l-21.9,11.19l1.82,8.42l21.91-11.19c0.36,1,0.77,1.96,1.22,2.87l-9.18,15.47
				l-8.55,5.91c4.44,8.8,10.47,15.6,17.44,19.43l1.03-14.3l6.76-18.16c0.77,0.41,1.58,0.73,2.4,0.95L654.79,425.5z"/>
			<path class="st6" d="M655.72,380.38c4.86,0,8.83-6.08,8.83-13.54c0-7.45-3.97-13.53-8.83-13.53c-4.87,0-8.84,6.08-8.84,13.53
				C646.89,374.3,650.86,380.38,655.72,380.38z"/>
		</g>
	</g>
	<path class="st7" d="M926.4,167.27c-69.89-35.99-142.06-79.25-204.31-96.64C537.42,39.07,366.17,48.1,207.37,94.82l-74.62,70.38
		l-49.89,32.18l1.93,9.49c3.36-0.14,6.74-0.22,10.15-0.22c115.98,0,210,83.94,210,187.48c0,5.64-0.3,11.22-0.84,16.73h266.75V353.5
		c0-47.79,35.51-92.6,79.32-92.6c43.81,0,79.32,44.81,79.32,92.6v57.36h426.16l2.51-11.62l-5.06-6.57c-0.2-1.3-0.46-2.16-0.46-3.52
		c0-1.9-0.84-2.48-2.05-3.15c-4.79-2.67-8.19-9.4-8.19-17.27c0-8.31,3.79-15.35,9.02-17.68c1.68-0.75,2.37-1.95,2.66-5
		c2.89-30.93,5.46-61.08-18.44-70.9c-1.25-5.47-4.66-18.84-7.9-23.74C1098.95,207.96,997.59,186.01,926.4,167.27z"/>
	<path class="st8" d="M402.62,57.17c-76.79,2.88-142.57,14.67-207.61,37.66c-43.65,18.2-80.45,43.13-112.19,70.38l-13.58,19.18
		l-7.58-5.91l-15.8,38.75c-1.93,16.1-12.96,25.21-16.59,36.03c-11.44,34.1-10.19,78.4,2.61,109.34l-4.04,8.99
		c-1.93,3.29,0.76,7.9,4.62,9.29l25.83,9.31l7.81-28.9c0-47.79,27.5-100.38,71.3-100.38c43.81,0,71.31,52.6,71.31,100.38l5.72,49.57
		c118.79,0,237.59,0,356.38,0l8.01-49.57c0-47.79,27.5-100.38,71.3-100.38c43.81,0,71.31,52.6,71.31,100.38l5.73,49.57l84.98,0
		c19.87-35.5,44.7-61.27,28.27-88.84c-11.1-18.64-12.77-24.05,11.9-20.79c43.99,6.47,141.98,13.39,204.33,6.78
		c49.04-5.2,67.35-21.84,78.95-32.85l-8.47-24.56c-12.21,8.85-38.51,20.3-77.37,22.97c-77.15,5.3-159.8-13.78-233.99-32.49
		c-91.84-23.16-100.5-33.07-186.43-72.86L511.44,85.68c-25.64-16.14-35.35-20.53-63.24-25.34
		C433.34,57.79,417.22,57.66,402.62,57.17z"/>
	<path class="st9" d="M117.28,138.21c-12.13,8.61-23.59,17.67-34.46,26.99l-13.58,19.18l-7.58-5.91l-9.13,22.38l556.91,18.12
		c5.95,0.19,5.89-6.67,0.71-7.43L377.98,177l-199.13-8.59L117.28,138.21z"/>
	<path class="st2" d="M470.84,82.31c33.19,20.33,62.23,42.14,90.44,67.31c3.35,2.99,5.22,5.76,6.38,9.67l2.6,8.8
		c1.66,6.01,0.23,9.11-5.76,8.91H191.46l-61.49-18.33c-3.94-1.03-4.5-5.5-2.61-7.45C192.81,83.65,412.93,50.57,470.84,82.31z"/>
	<path class="st10" d="M467.8,87.57c31.97,19.6,61.47,41.63,89.44,66.58c2.31,2.06,3.72,3.88,4.6,6.87l2.57,8.69
		c0.08,0.28,0.2,0.75,0.29,1.24c-0.07,0-0.13,0-0.2,0H352.82c1.15-14.33,3.08-28.74,5.66-43.22c2.71-15.18,6.09-30.19,10.01-45.05
		c0.5-1.86,0.96-3.69,1.4-5.5c8.07-0.5,16.11-0.81,24.09-0.89C414.94,76.04,448.99,77.33,467.8,87.57L467.8,87.57z M322.42,170.93
		H197.87l19.27-60.58l0.9-2.91c23.52-8.17,47.17-14.23,66.43-18.31c17.42-3.7,35.35-6.77,53.38-8.99
		c-3.64,14.24-6.76,28.36-9.26,42.35c-2.82,15.84-4.92,31.77-6.14,47.78L322.42,170.93L322.42,170.93z M187.74,169.56l18.38-57.76
		c-28.07,10.7-54.83,24.49-72.43,41.65L187.74,169.56z"/>
	<path class="st0" d="M518.84,122.48c13.16,10.01,25.93,20.55,38.4,31.67c2.31,2.06,3.72,3.88,4.6,6.87l2.57,8.69
		c0.08,0.28,0.2,0.75,0.29,1.24c-0.07,0-0.13,0-0.2,0H352.82c1.15-14.33,3.08-28.74,5.66-43.22c0.6-3.36,1.23-6.71,1.9-10.06
		C410.45,114.98,463.83,116.42,518.84,122.48L518.84,122.48z M329.08,119.88c-43.99,3.96-84.97,11.19-121.73,21.27l-9.47,29.78
		h124.55l0.05-0.66c1.22-16.01,3.32-31.94,6.14-47.78L329.08,119.88L329.08,119.88z M195.72,144.47
		c-14.95,4.45-29.14,9.4-42.47,14.8l34.49,10.28L195.72,144.47z"/>
	<linearGradient id="SVGID_1_" gradientUnits="userSpaceOnUse" x1="115.6188" y1="362.3179" x2="188.3097" y2="315.1119">
		<stop  offset="0" style="stop-color:#B51715"/>
		<stop  offset="1" style="stop-color:#C41516"/>
	</linearGradient>
	<path class="st11" d="M59.18,390.51c3.14,1.13,6.94-0.71,6.94-3.99v-25.23c0-47.79,27.5-100.38,71.3-100.38
		c43.81,0,71.31,52.6,71.31,100.38v43.42c0,4.11,2.16,6.15,5.72,6.15h15.76v-44.77c0-67.89-41.07-129-91.73-129
		c-50.66,0-91.72,61.11-91.72,129l0.2,20.02L59.18,390.51z"/>
	<path class="st3" d="M889.54,263.37c-55.51-24.53-84.84-33.8-132.19-39.46c-8.99-1.07-9.65,6.91-6.25,11.45
		c13.09,17.46,27.26,29.92,36.69,32.39c27.59,7.68,53.77,12.28,107.8,18.02C904.08,287.1,914.43,274.36,889.54,263.37z"/>
	<path class="st12" d="M933.14,297.35l116.65,8.71l49.95-8.14c8.44-1.38,10.26-25.58-0.48-24.26l-49.47,5.97l-122.69-6.4
		C911.87,272.5,917.88,296.21,933.14,297.35z"/>
	<path class="st2" d="M933.14,297.36l109.94,8.21l46.88-7.64c7.12-1.16,9.53-20.3,3.68-23.58l-43.84,5.29l-6.83-0.36l-2.95,0.36
		l-116.87-6.1C913.17,275.88,919.42,296.33,933.14,297.36z"/>
	<path class="st2" d="M925.27,166.69c-65.36-33.72-132.65-73.63-191.92-92.67c-77.08-6.06-155.21-7.1-234.34-3.29
		c-5.88,0.42-7.05,4.6-2.48,7.68L624,164.59c4.61,2.93,6.96,3.45,13.02,3.58l284.52-1.5L925.27,166.69z"/>
	<path class="st10" d="M900.76,160.71l-263.62,1.39c-4.57-0.1-6.07-0.2-9.75-2.54L504.6,76.54c75.85-3.44,151.87-2.45,227.57,3.47
		l17.14,1.67h0c45.4,16.79,90.62,41.97,132.67,64.44c9.29,4.96,18.57,9.92,27.89,14.82l0,0L900.76,160.71z"/>
	<path class="st0" d="M900.76,160.71l-263.62,1.39c-4.57-0.1-6.07-0.2-9.75-2.54L554,109.94c54.57-3.54,113.26-2.18,173.88,4.81
		c52.98,6.11,103.29,16.04,149.65,28.99l4.45,2.38c9.29,4.96,18.57,9.92,27.89,14.82l0,0L900.76,160.71z"/>
	<path class="st12" d="M1112.44,347.24H951.21c-38.36,0-43.9,40.98-18.47,40.98h176.89
		C1124.45,388.23,1139.52,347.24,1112.44,347.24z"/>
	<path class="st2" d="M1102.4,347.24H951.21c-38.36,0-43.9,40.98-18.47,40.98h166.86C1114.42,388.23,1129.48,347.24,1102.4,347.24z"
		/>
	<ellipse class="st2" cx="867.19" cy="368.74" rx="22.26" ry="18.51"/>
	<path class="st3" d="M860.06,381.5c6.09,0,11.06-5.73,11.06-12.76c0-7.03-4.97-12.76-11.06-12.76c-6.09,0-11.06,5.73-11.06,12.76
		C849,375.76,853.97,381.5,860.06,381.5z"/>
	<linearGradient id="SVGID_2_" gradientUnits="userSpaceOnUse" x1="634.0396" y1="357.9318" x2="715.0837" y2="305.3011">
		<stop  offset="0" style="stop-color:#B51715"/>
		<stop  offset="1" style="stop-color:#C41516"/>
	</linearGradient>
	<path class="st13" d="M558.44,410.86h14.9c4.45,0,5.52-2.37,5.52-6.15v-43.42c0-47.79,27.5-100.38,71.3-100.38
		c43.81,0,71.31,52.6,71.31,100.38v43.42c0,4.41,1.91,6.15,5.73,6.15h14.68v-44.77c0-67.89-41.07-129-91.73-129
		c-50.66,0-91.73,61.11-91.73,129V410.86z"/>
	<path class="st14" d="M84.11,164.31l5.02,35.57l-43.26,17.34c1.36-11.24-2.29-22.49,4.09-33.73
		C54.08,177.73,72.77,167.84,84.11,164.31z"/>
	<path class="st15" d="M1059.98,287.82h-21.52c-1.93,0-3.5,1.57-3.5,3.5v0c0,1.93,1.57,3.5,3.5,3.5h21.52c1.93,0,3.5-1.57,3.5-3.5v0
		C1063.48,289.39,1061.9,287.82,1059.98,287.82z"/>
	<path class="st16" d="M795.37,410.86h359.9c3.47,0,6.33-2.77,6.33-6.15v0c0-3.38-2.85-6.15-6.33-6.15h-359.9
		c-3.48,0-6.33,2.78-6.33,6.15v0C789.04,408.08,791.9,410.86,795.37,410.86z"/>
	<g>
		<path class="st17" d="M562.14,181.76c10.37,6.65,20-4.63,11.8-12.27l-34.77-31.36c-10.7-9-24.22,11.22-13.52,20.22L562.14,181.76z
			"/>
		<path class="st17" d="M488.54,133.04c13.79-2.6,27.58-3.2,41.36,0c24.21,5.62,24.83,43.96,0,44.39
			c-12.91,0.23-26.67-2.29-41.36-7.86C465.32,160.75,464.11,137.65,488.54,133.04z"/>
		<path class="st16" d="M525.81,140.02h-30.64c-8.87,0-8.73,11.57,0,13.03l37.04,6.22C540.94,160.73,540.47,140.02,525.81,140.02z"
			/>
	</g>
	<path class="st16" d="M238.74,299.26L275,342.29c20.64,19.11,47.95,29.89,81.13,33.35l184.18,12.56
		c24.95,2.28-1.76-14.26-64.51-23.46c-83.22-12.21-148.33-25.95-197.76-57.29C244.63,285.47,223.56,282.53,238.74,299.26z"/>
	<path class="st3" d="M1135.38,274.09c-1.59-6.63-4.38-17.97-8.22-23.49c-1.24,2.53-3.08,5.05-6.39,10.64
		c-5.46,9.21-5.39,21.58,1.21,22.19C1125.84,283.78,1132.93,277.68,1135.38,274.09z"/>
	<path class="st0" d="M383.34,199.3c11.26,0.32,20.27,4.26,20.15,8.82c-0.13,4.55-9.36,7.98-20.61,7.67
		c-11.25-0.32-20.27-4.26-20.15-8.82C362.86,202.42,372.09,198.98,383.34,199.3z"/>
	<path class="st0" d="M204.83,199.3c11.26,0.32,20.27,4.26,20.15,8.82c-0.13,4.55-9.36,7.98-20.61,7.67
		c-11.25-0.32-20.27-4.26-20.15-8.82C184.35,202.42,193.57,198.98,204.83,199.3z"/>
	<path class="st2" d="M1065.43,460.34H87.83c-3.18,0-5.79,2.6-5.79,5.79l0,0c0,3.18,2.68,5.79,5.79,5.79h983.86
		c3.11,0,5.79-2.6,5.79-5.79l0,0c0-3.18-2.6-5.79-5.79-5.79H1065.43z M1120.76,460.34h-7.53c-3.18,0-5.79,2.6-5.79,5.79l0,0
		c0,3.18,2.68,5.79,5.79,5.79h20.34c3.11,0,5.79-2.6,5.79-5.79l0,0c0-3.18-2.6-5.79-5.79-5.79H1120.76z M51.58,460.34H30.95
		c-3.18,0-5.79,2.6-5.79,5.79l0,0c0,3.18,2.66,5.79,5.79,5.79h20.62c3.13,0,5.79-2.6,5.79-5.79l0,0
		C57.36,462.94,54.76,460.34,51.58,460.34z"/>
</g>
</svg>
