<?xml version="1.0" encoding="utf-8"?>
<!-- Generator: Adobe Illustrator 25.1.0, SVG Export Plug-In . SVG Version: 6.00 Build 0)  -->
<svg version="1.1" id="Layer_1" xmlns="http://www.w3.org/2000/svg" xmlns:xlink="http://www.w3.org/1999/xlink" x="0px" y="0px"
	 viewBox="0 0 360 360" style="enable-background:new 0 0 360 360;" xml:space="preserve">
<style type="text/css">
	.st0{fill:#C81711;}
	.st1{fill:#282625;}
	.st2{fill:#870C0C;}
	.st3{fill:#48413B;}
	.st4{fill:#464241;}
	.st5{fill:#787272;}
	.st6{fill:#D7D7D5;}
	.st7{fill:#EFEFEF;}
	.st8{fill:#FBCC28;}
	.st9{fill:#81B6D8;}
	.st10{opacity:0.5;}
	.st11{fill:#FFFFFF;}
</style>
<g>
	<g>
		<g>
			<g>
				<path class="st0" d="M262.78,160.57c-23.18-4.31-45.03-39.27-98.11-39.27c-24.08,0-104.38,20.57-118.21,25.04
					c-10.9,3.53-35.17,11.74-35.5,23.2c-0.35,12.48-0.89,18.62-0.35,30.22c1.02,21.73,23.42,20.38,35.14,20.71
					c89.76,0.61,179.53,1.23,269.29,1.84c9.14,0.06,27.21,0.02,33.3,0.01c1.16,0,2.1-0.93,2.13-2.09
					c0.21-7.64,0.32-34.11-7.52-42.36C329.03,163.21,275.91,163.01,262.78,160.57z"/>
			</g>
		</g>
	</g>
	<g>
		<g>
			<path class="st1" d="M45.75,220.46c17.76,0.12,35.52,0.24,53.28,0.36v-1.57c0,0,1.49-43.47-34.35-43.47s-34.35,43.47-34.35,43.47
				v0.33C35.86,220.44,41.51,220.35,45.75,220.46z"/>
		</g>
	</g>
	<g>
		<g>
			<path class="st2" d="M220.86,214.93H123.5c-5.08,0-9.72-2.92-11.81-7.45c-10.59-22.95,18.05-49.04,19.28-50.14
				c0.4-0.36,1.03-0.33,1.39,0.08c0.36,0.4,0.33,1.03-0.07,1.39c-0.29,0.26-28.79,26.22-18.81,47.85c1.77,3.83,5.7,6.3,10.02,6.3
				h96.45l4.79-57.29c0.04-0.54,0.51-0.95,1.06-0.9c0.54,0.05,0.95,0.52,0.9,1.06l-4.87,58.2
				C221.8,214.53,221.37,214.93,220.86,214.93z"/>
		</g>
	</g>
	<g>
		<g>
			<path class="st1" d="M309.86,219.26c0,0,1.49-43.47-34.35-43.47s-34.35,43.47-34.35,43.47v2.65c19.37,0.13,38.73,0.26,58.1,0.4
				c3.46,0.02,7.06-0.01,10.6-0.3V219.26z"/>
		</g>
	</g>
	<g>
		<g>
			<g>
				<circle class="st3" cx="275.52" cy="208.87" r="29.89"/>
			</g>
		</g>
	</g>
	<g>
		<g>
			<g>
				<circle class="st4" cx="64.69" cy="208.87" r="29.89"/>
			</g>
		</g>
	</g>
	<g>
		<g>
			<g>
				<circle class="st5" cx="64.69" cy="208.87" r="15.78"/>
			</g>
		</g>
	</g>
	<g>
		<g>
			<g>
				<circle class="st6" cx="64.69" cy="208.87" r="12.29"/>
			</g>
		</g>
	</g>
	<g>
		<g>
			<g>
				<path class="st5" d="M71.18,208.87c0,3.59-2.91,6.49-6.49,6.49c-3.58,0-6.49-2.91-6.49-6.49s2.91-6.49,6.49-6.49
					C68.27,202.38,71.18,205.28,71.18,208.87z"/>
			</g>
		</g>
	</g>
	<g>
		<g>
			<g>
				<circle class="st5" cx="275.52" cy="208.87" r="15.78"/>
			</g>
		</g>
	</g>
	<g>
		<g>
			<g>
				<circle class="st6" cx="275.52" cy="208.87" r="12.29"/>
			</g>
		</g>
	</g>
	<g>
		<g>
			<g>
				<path class="st5" d="M282.01,208.87c0,3.59-2.91,6.49-6.49,6.49c-3.59,0-6.49-2.91-6.49-6.49s2.91-6.49,6.49-6.49
					C279.1,202.38,282.01,205.28,282.01,208.87z"/>
			</g>
		</g>
	</g>
	<g>
		<g>
			<path class="st7" d="M10.97,169.53c-0.05,1.95-0.11,3.73-0.17,5.42c17.51,4.77,26.82,0.61,30.38-1.76
				c1.01-0.67,1.23-2.07,0.51-3.04l-12.73-17.24C19.73,157.12,11.16,162.76,10.97,169.53z"/>
		</g>
	</g>
	<g>
		<g>
			<path class="st8" d="M41.69,170.15l-2.44-3.3c-0.06,0.05-0.1,0.1-0.17,0.14c-3.4,2.27-12.06,6.14-28.09,2.33
				c0,0.07-0.02,0.15-0.02,0.22c-0.05,1.95-0.11,3.73-0.17,5.42c17.51,4.77,26.82,0.61,30.38-1.76
				C42.19,172.51,42.41,171.12,41.69,170.15z"/>
		</g>
	</g>
	<g>
		<g>
			<path class="st6" d="M26.19,196.58H10.5c0.03,1.02,0.07,2.07,0.12,3.18c0.56,11.98,7.62,16.94,15.8,19.04
				c0.07-8.12,1.51-14.61,2.62-18.43C29.6,198.47,28.16,196.58,26.19,196.58z"/>
		</g>
	</g>
	<g>
		<g>
			<path class="st1" d="M23.76,198.31h-13.2c0.02,0.48,0.04,0.95,0.06,1.45c0.51,10.8,6.3,15.9,13.43,18.34
				c0.3-6.99,1.56-12.57,2.56-16C27.17,200.2,25.73,198.31,23.76,198.31z"/>
		</g>
	</g>
	<g>
		<g>
			<path class="st9" d="M87.16,158.07h148.43c1.89,0,2.75-2.37,1.29-3.57c-9.99-8.2-37.04-27.69-68.42-27.69
				c-26.57,0-66.22,19.12-82.23,27.45C84.35,155.24,85.05,158.07,87.16,158.07z"/>
		</g>
	</g>
	<g>
		<g>
			<path class="st1" d="M133.14,133.91c-18.87,6.32-37.23,15.31-46.92,20.35c-1.87,0.97-1.17,3.8,0.93,3.8h45.99V133.91z"/>
		</g>
	</g>
	<g>
		<g>
			<g>
				<path class="st1" d="M237.79,156.43c0,3.71-5.4,6.72-12.06,6.72s-12.06-3.01-12.06-6.72s5.4-6.72,12.06-6.72
					C232.39,149.71,237.79,152.72,237.79,156.43z"/>
			</g>
		</g>
	</g>
	<g class="st10">
		<g>
			<path class="st11" d="M145.61,158.07h11.82l8.05-31.17c-3.87,0.19-7.98,0.74-12.22,1.57L145.61,158.07z"/>
		</g>
	</g>
	<g class="st10">
		<g>
			<path class="st11" d="M166.74,158.07h2.63l7.94-30.75c-0.85-0.1-1.7-0.17-2.56-0.24L166.74,158.07z"/>
		</g>
	</g>
	<g class="st10">
		<g>
			<path class="st11" d="M187.16,158.07h2.63l6.81-26.36c-0.8-0.27-1.61-0.53-2.42-0.79L187.16,158.07z"/>
		</g>
	</g>
	<g class="st10">
		<g>
			<path class="st11" d="M194.33,158.07h6.88l5.75-22.25c-2.01-0.91-4.08-1.78-6.21-2.6L194.33,158.07z"/>
		</g>
	</g>
	<g>
		<g>
			<path class="st2" d="M150.3,170.52c-0.12,0-0.24-0.02-0.35-0.07l-14.09-5.43c-0.44-0.17-0.7-0.63-0.61-1.1s0.49-0.81,0.97-0.81
				h18.8c0.39,0,0.74,0.23,0.9,0.58c0.16,0.35,0.1,0.76-0.15,1.05l-4.71,5.43C150.86,170.41,150.58,170.52,150.3,170.52z
				 M141.51,165.09l8.51,3.28l2.84-3.28H141.51z"/>
		</g>
	</g>
	<g>
		<g>
			<path class="st1" d="M348.65,191.89h-17.71c-0.8,0-1.54,0.46-1.89,1.18l-9.43,19.26c-0.69,1.4,0.33,3.03,1.89,3.03h29.02
				C350.53,209.2,350.2,199.94,348.65,191.89z"/>
		</g>
	</g>
	<g>
		<g>
			<path class="st7" d="M302.73,172.39c3.21,1.81,7.7,4.98,10.11,9.52c0.67,1.27,2.01,2.04,3.44,2.04h21.04
				c1.9,0,2.92-2.28,1.62-3.67c-3.51-3.74-12.55-9.06-35.71-9.64C302.25,170.61,301.88,171.91,302.73,172.39z"/>
		</g>
	</g>
	<g>
		<g>
			<path class="st8" d="M321.44,177.74h14.43c-3.61-2.38-9.67-4.84-19.83-6.16v0.76C316.04,175.32,318.46,177.74,321.44,177.74z"/>
		</g>
	</g>
</g>
</svg>
