<?xml version="1.0" encoding="utf-8"?>
<!-- Generator: Adobe Illustrator 25.1.0, SVG Export Plug-In . SVG Version: 6.00 Build 0)  -->
<svg version="1.1" id="Layer_1" xmlns="http://www.w3.org/2000/svg" xmlns:xlink="http://www.w3.org/1999/xlink" x="0px" y="0px"
	 viewBox="0 0 360 360" style="enable-background:new 0 0 360 360;" xml:space="preserve">
<style type="text/css">
	.st0{fill:#0CA86F;}
	.st1{fill:#05631B;}
	.st2{fill:#282625;}
	.st3{fill:#48413B;}
	.st4{fill:#464241;}
	.st5{fill:#787272;}
	.st6{fill:#D7D7D5;}
	.st7{fill:#166A99;}
	.st8{fill:#FBCC28;}
	.st9{fill:#C81711;}
	.st10{fill:#EFEFEF;}
	.st11{fill:#FC6D21;}
	.st12{fill:#81B6D8;}
	.st13{opacity:0.5;}
	.st14{fill:#FFFFFF;}
</style>
<g>
	<g>
		<g>
			<path class="st0" d="M261.59,163.93c-23.08-4.3-58.16-49.37-128.64-49.37c-18,0-94.02,1.67-107.55,21.24
				c-7.07,10.23-14.97,28.28-14.97,67.17c0,21.67,23.32,20.3,35,20.62c89.41,0.61,178.82,1.22,268.22,1.83
				c11.05,0.08,31.06-1.14,31.06-1.14s3.92-31.25-5.24-40.9C325.59,168.78,274.67,166.36,261.59,163.93z"/>
		</g>
	</g>
	<g>
		<path class="st1" d="M10.43,202.96c1.01,21.64,23.32,20.3,35,20.62c89.41,0.61,178.82,1.22,268.22,1.83
			c11.05,0.08,31.06-1.14,31.06-1.14s1.37-10.93,0.59-21.86H10.41C10.41,202.6,10.42,202.79,10.43,202.96z"/>
	</g>
	<g>
		<g>
			<path class="st2" d="M45.43,223.58c20.23,0.14,40.46,0.28,60.69,0.41v-3.28c0,0-2.97-44.27-41.84-44.27
				c-22.01,0-28.33,11.85-34.19,21.37c-3.05,4.95-4.9,10.07-6.02,14.22c-1.37,5.08-1.63,8.68-1.63,8.68l0,0
				C29.89,223.71,39.18,223.41,45.43,223.58z"/>
		</g>
	</g>
	<g>
		<path class="st2" d="M345.51,212.04L345.51,212.04c-5.73,7.6-17.58,6.47-17.58,6.47s-281.65,1.97-298.83-1.29
			c-13.7-2.6-16.64-5.77-17.27-6.95c5.22,14.01,23.43,13.04,33.59,13.32c89.41,0.61,178.82,1.22,268.22,1.83
			c11.05,0.08,31.06-1.14,31.06-1.14S345.37,218.96,345.51,212.04z"/>
	</g>
	<g>
		<g>
			<path class="st2" d="M299.63,220.72c0,0-2.97-44.27-41.84-44.27c-38.87,0-41.84,44.27-41.84,44.27v4.25
				c21.83,0.15,43.66,0.3,65.49,0.45c5.99,0.04,12.16-0.19,18.18-0.47v-4.23H299.63z"/>
		</g>
	</g>
	<g>
		<g>
			
				<ellipse transform="matrix(0.2898 -0.9571 0.9571 0.2898 -19.8459 397.3373)" class="st3" cx="257.81" cy="212.04" rx="29.78" ry="29.78"/>
		</g>
	</g>
	<g>
		<g>
			<ellipse class="st4" cx="64.28" cy="212.04" rx="29.78" ry="29.78"/>
		</g>
	</g>
	<g>
		<g>
			<ellipse class="st5" cx="64.27" cy="212.03" rx="15.72" ry="15.72"/>
		</g>
	</g>
	<g>
		<g>
			
				<ellipse transform="matrix(0.6272 -0.7788 0.7788 0.6272 -141.2002 129.1026)" class="st6" cx="64.27" cy="212.06" rx="12.24" ry="12.24"/>
		</g>
	</g>
	<g>
		<g>
			<path class="st5" d="M70.75,212.04c0,3.57-2.9,6.47-6.47,6.47c-3.57,0-6.47-2.9-6.47-6.47s2.9-6.47,6.47-6.47
				C67.85,205.57,70.75,208.46,70.75,212.04z"/>
		</g>
	</g>
	<g>
		<g>
			
				<ellipse transform="matrix(0.2313 -0.9729 0.9729 0.2313 -8.1127 413.7935)" class="st5" cx="257.8" cy="212.03" rx="15.72" ry="15.72"/>
		</g>
	</g>
	<g>
		<g>
			
				<ellipse transform="matrix(0.2891 -0.9573 0.9573 0.2891 -19.7247 397.5027)" class="st6" cx="257.78" cy="212.03" rx="12.24" ry="12.24"/>
		</g>
	</g>
	<g>
		<g>
			<path class="st5" d="M264.26,212.04c0,3.57-2.9,6.47-6.47,6.47c-3.57,0-6.47-2.9-6.47-6.47s2.9-6.47,6.47-6.47
				C261.37,205.57,264.26,208.46,264.26,212.04z"/>
		</g>
	</g>
	<g>
		<rect x="150.3" y="165.73" class="st7" width="1.96" height="50.98"/>
	</g>
	<g>
		<path class="st8" d="M14,178.54h2.34c2.08,0,3.78-1.7,3.78-3.78v-17c0-2.04-1.64-3.7-3.66-3.77c-2.04,6.29-3.77,14.01-4.88,23.64
			C12.23,178.19,13.07,178.54,14,178.54z"/>
	</g>
	<g>
		<path class="st9" d="M20.11,169.99v-12.23c0-2.04-1.64-3.7-3.66-3.77c-1.47,4.53-2.77,9.8-3.81,16H20.11z"/>
	</g>
	<g>
		<path class="st7" d="M108.9,219.09l-1.94-0.25c0.01-0.06,0.76-6.85-4.1-23.15c-2.88-9.66-8.83-14.75-13.31-17.32
			c-3.58-2.05-5.8-5.84-5.8-9.9h1.96c0,3.36,1.84,6.5,4.81,8.2c4.79,2.75,11.15,8.18,14.21,18.45
			C109.74,211.92,108.93,218.8,108.9,219.09z"/>
	</g>
	<g>
		<path class="st10" d="M344.79,197.49c-0.81-5.76-2.4-11.04-5.32-14.11c-1.02-1.07-2.25-2.06-3.63-3.01h-17.49
			c-1.61,0-2.79,1.48-2.48,3.07C318.47,196.86,338.32,197.61,344.79,197.49z"/>
	</g>
	<g>
		<path class="st11" d="M337.71,188.86c-2.55-0.3-5.04-0.71-7.47-1.55c-2.27-0.78-4.35-1.88-6.42-3.09
			c-1.6-0.94-3.22-1.85-4.67-3.02c-0.31-0.25-0.62-0.52-0.92-0.81c-1.56,0.06-2.68,1.51-2.38,3.06
			c2.61,13.41,22.46,14.17,28.93,14.05c-0.41-2.91-1.02-5.69-1.9-8.13C341.16,189.24,339.44,189.06,337.71,188.86z"/>
	</g>
	<g>
		<path class="st12" d="M33.04,169.99c-3.36,0-5.9-3.01-5.37-6.33c1.19-7.49,4.46-19.99,13.3-28.14
			c13.28-12.24,74.03-13.28,102.54-13.28c30.74,0,69.05,28.53,95.24,42.66c2.47,1.33,1.51,5.08-1.3,5.08L33.04,169.99L33.04,169.99z
			"/>
	</g>
	<g>
		<path class="st2" d="M27.67,163.66c-0.53,3.32,2.01,6.33,5.37,6.33h22.85c-8.18-8.57-14.71-18.71-19.17-29.7
			C31.03,148.01,28.65,157.52,27.67,163.66z"/>
	</g>
	<g>
		<path class="st2" d="M238.75,164.9c-6.49-3.5-13.73-7.89-21.41-12.51c-2.41,6.28-5.7,12.23-9.75,17.6h29.86
			C240.26,169.99,241.22,166.23,238.75,164.9z"/>
	</g>
	<g>
		<path class="st2" d="M95.29,123.62c-0.63,0.04-1.25,0.08-1.88,0.13c-5.86,14.45-9.5,30.7-9.66,46.24h1.76
			C87.4,154.28,90.86,138.8,95.29,123.62z"/>
	</g>
	<g>
		<path class="st2" d="M155.94,123.62c-4.35,14.63-6.71,31.11-5.62,46.36h1.82c0.58-15.45,2.74-30.77,5.32-46.03
			C156.95,123.84,156.44,123.73,155.94,123.62z"/>
	</g>
	<g class="st13">
		<path class="st14" d="M55.65,169.99h3.16l11.32-43.82c-1.12,0.16-2.21,0.34-3.29,0.52L55.65,169.99z"/>
	</g>
	<g class="st13">
		<path class="st14" d="M168.11,169.99h3.16l9.72-37.63c-0.94-0.44-1.89-0.86-2.83-1.28L168.11,169.99z"/>
	</g>
	<g class="st13">
		<path class="st14" d="M177.6,169.99h6l8.32-32.2c-1.76-0.93-3.53-1.85-5.3-2.73L177.6,169.99z"/>
	</g>
	<g class="st13">
		<path class="st14" d="M105.27,169.99h3.16l12.26-47.48c-1.05,0.03-2.11,0.05-3.18,0.08L105.27,169.99z"/>
	</g>
	<g class="st13">
		<path class="st14" d="M63.19,169.99h9.77l11.76-45.53c-3.43,0.32-6.8,0.68-10.05,1.1L63.19,169.99z"/>
	</g>
	<g class="st13">
		<path class="st14" d="M124.58,169.99h12.7l12.24-47.4c-2.03-0.22-4.04-0.35-6.01-0.35c-2.04,0-4.26,0.01-6.6,0.02L124.58,169.99z"
			/>
	</g>
	<g>
		<path class="st12" d="M259.25,163.37c-17.54-5.07-41.95-30.54-82.46-42.54C190.92,130.87,227.64,155.42,259.25,163.37z"/>
	</g>
	<g>
		<path class="st7" d="M114.44,175.03H97.27c-0.51,0-0.92-0.41-0.92-0.92l0,0c0-0.51,0.41-0.92,0.92-0.92h17.17
			c0.51,0,0.92,0.41,0.92,0.92l0,0C115.36,174.62,114.95,175.03,114.44,175.03z"/>
	</g>
	<g>
		<path class="st7" d="M176.69,175.03h-17.17c-0.51,0-0.92-0.41-0.92-0.92l0,0c0-0.51,0.41-0.92,0.92-0.92h17.17
			c0.51,0,0.92,0.41,0.92,0.92l0,0C177.61,174.62,177.2,175.03,176.69,175.03z"/>
	</g>
</g>
</svg>
