<?xml version="1.0" encoding="utf-8"?>
<!-- Generator: Adobe Illustrator 25.1.0, SVG Export Plug-In . SVG Version: 6.00 Build 0)  -->
<svg version="1.1" id="Layer_1" xmlns="http://www.w3.org/2000/svg" xmlns:xlink="http://www.w3.org/1999/xlink" x="0px" y="0px"
	 viewBox="0 0 360 360" style="enable-background:new 0 0 360 360;" xml:space="preserve">
<style type="text/css">
	.st0{fill:#282625;}
	.st1{fill:#8C3340;}
	.st2{fill:#48413B;}
	.st3{fill:#464241;}
	.st4{fill:#787272;}
	.st5{fill:#D7D7D5;}
	.st6{fill:#81B6D8;}
	.st7{fill:#EFEFEF;}
	.st8{fill:#FBCC28;}
	.st9{opacity:0.5;}
	.st10{fill:#FFFFFF;}
	.st11{fill:#540A2F;}
	.st12{fill:#033A0F;}
</style>
<g>
	<g>
		<path class="st0" d="M47.45,153.86c0,0,48.54-23.84,63.23-27.05c14.69-3.21,28.02-4.51,67.68,8.87
			c41.48,13.99,73.63,25.78,73.63,25.78s-86.79,24.92-117.34,19.88C104.11,176.31,47.45,153.86,47.45,153.86z"/>
	</g>
	<g>
		<g>
			<g>
				<path class="st1" d="M11.37,165.96c0,12.4-0.89,18.49-0.35,30.02c1.01,21.58,23.26,20.25,34.9,20.57
					c89.15,0.61,178.3,1.22,267.46,1.83c9.08,0.06,27.02,0.02,33.07,0.01c1.15,0,2.12-0.92,2.12-2.07
					c0-28.11-26.28-52.63-72.25-54.76c-16.44-0.76-145.84,0.23-154.17,0c-10.63-0.29-21.09-8.19-30.98-9.09
					C30.6,146.93,11.37,155.58,11.37,165.96z"/>
			</g>
		</g>
	</g>
	<g>
		<path class="st0" d="M348.56,216.3c0-0.78-0.03-1.55-0.07-2.32c-4.34,0.04-238.2,1.85-258.21-29.41l2.54,32.29
			c73.52,0.5,147.03,1,220.55,1.51c9.08,0.06,27.02,0.02,33.07,0.01C347.59,218.37,348.56,217.45,348.56,216.3z"/>
	</g>
	<g>
		<g>
			<path class="st0" d="M45.91,216.54c17.64,0.12,35.28,0.24,52.92,0.36v-1.56c0,0,1.48-43.17-34.11-43.17
				c-35.59,0-34.11,43.17-34.11,43.17v0.33C36.09,216.52,41.7,216.42,45.91,216.54z"/>
		</g>
	</g>
	<g>
		<g>
			<path class="st0" d="M292.55,215.34c0,0,1.48-43.17-34.11-43.17c-35.59,0-34.11,43.17-34.11,43.17v2.63
				c19.23,0.13,38.47,0.26,57.7,0.39c3.44,0.02,7.01-0.01,10.53-0.3L292.55,215.34z"/>
		</g>
	</g>
	<g>
		<g>
			<g>
				
					<ellipse transform="matrix(0.3827 -0.9239 0.9239 0.3827 -29.955 365.3659)" class="st2" cx="258.44" cy="205.1" rx="29.69" ry="29.69"/>
			</g>
		</g>
	</g>
	<g>
		<g>
			<g>
				<ellipse class="st3" cx="64.68" cy="205.03" rx="29.69" ry="29.69"/>
			</g>
		</g>
	</g>
	<g>
		<g>
			<g>
				<circle class="st4" cx="64.72" cy="205.02" r="15.67"/>
			</g>
		</g>
	</g>
	<g>
		<g>
			<g>
				<ellipse class="st5" cx="64.71" cy="204.98" rx="12.21" ry="12.21"/>
			</g>
		</g>
	</g>
	<g>
		<g>
			<g>
				<circle class="st4" cx="64.72" cy="205.02" r="6.45"/>
			</g>
		</g>
	</g>
	<g>
		<g>
			<g>
				
					<ellipse transform="matrix(0.1602 -0.9871 0.9871 0.1602 14.6702 427.2741)" class="st4" cx="258.44" cy="205.02" rx="15.67" ry="15.67"/>
			</g>
		</g>
	</g>
	<g>
		<g>
			<g>
				
					<ellipse transform="matrix(0.3827 -0.9239 0.9239 0.3827 -29.9552 365.3665)" class="st5" cx="258.44" cy="205.1" rx="12.21" ry="12.21"/>
			</g>
		</g>
	</g>
	<g>
		<g>
			<g>
				<circle class="st4" cx="258.44" cy="205.02" r="6.45"/>
			</g>
		</g>
	</g>
	<g>
		<path class="st6" d="M111.96,136.23l10.29,19.44c0.6,1.13,1.77,1.84,3.05,1.84h68.26c1.91,0,3.46-1.55,3.46-3.46v-4.76
			c0-1.47-0.92-2.77-2.31-3.26c-9.61-3.37-46.65-16.01-60.66-16.01c-8.99,0-15.5,0.62-19.51,1.17
			C112.16,131.52,110.84,134.11,111.96,136.23z"/>
	</g>
	<g>
		<path class="st0" d="M31.17,206.61c-13.58,0-20.14-11.96-20.21-12.07c0.02,0.47,0.03,0.94,0.06,1.43
			c0.72,15.39,12.23,19.12,23,20.12L31.17,206.61z"/>
	</g>
	<g>
		<path class="st7" d="M27.19,153.57c-11.37,2.81-15.82,7.4-15.82,12.39c0,2.91-0.05,5.47-0.12,7.84h15.28
			c5.46,0,10.8-1.53,15.43-4.42c1.88-1.17,4.24-2.39,7.06-3.39c2.15-0.76,2.2-3.78,0.05-4.55L27.19,153.57z"/>
	</g>
	<g>
		<path class="st8" d="M11.37,165.96c0,2.91-0.05,5.47-0.12,7.84H22c2.28-1.39,4.3-3.49,5.72-6.16c2.48-4.66,2.5-9.87,0.47-13.71
			l-1-0.36C15.82,156.37,11.37,160.96,11.37,165.96z"/>
	</g>
	<g>
		<path class="st0" d="M344.14,197.03h-15.87c-2.36,0-3.77,2.62-2.48,4.59l3.49,5.32c0.55,0.84,1.48,1.34,2.48,1.34h16.07
			C347.11,204.4,345.87,200.64,344.14,197.03z"/>
	</g>
	<g>
		<path class="st8" d="M332.67,194.03h-15.4c-1.16,0-2.11-0.95-2.11-2.11v-1.66c0-1.16,0.95-2.11,2.11-2.11h15.4
			c1.16,0,2.11,0.95,2.11,2.11v1.66C334.78,193.09,333.83,194.03,332.67,194.03z"/>
	</g>
	<g class="st9">
		<path class="st10" d="M137.85,130.27c-1.39-0.15-2.67-0.24-3.8-0.24c-2.9,0-5.54,0.07-7.92,0.17l-5.69,22.05l1.81,3.43
			c0.6,1.13,1.77,1.84,3.05,1.84h5.51L137.85,130.27z"/>
	</g>
	<g class="st9">
		<path class="st10" d="M140.87,157.51H145l6.38-24.69c-1.33-0.32-2.63-0.62-3.9-0.89L140.87,157.51z"/>
	</g>
	<g class="st9">
		<path class="st10" d="M180.52,157.51h4.13l3.54-13.71c-1.18-0.4-2.45-0.82-3.8-1.27L180.52,157.51z"/>
	</g>
	<g class="st9">
		<path class="st10" d="M168.86,157.51h7.09l4.23-16.36c-2.09-0.67-4.28-1.37-6.56-2.08L168.86,157.51z"/>
	</g>
	<g>
		<path class="st11" d="M303.79,170.67c24.53,7.85,36.13,19.57,36.9,20.38c-10.98-16.25-33.12-28.06-64.39-29.51
			c-6.92-0.32-33.83-0.33-63.3-0.25C213.05,161.29,278.39,162.54,303.79,170.67z"/>
	</g>
	<g>
		<path class="st11" d="M42.94,151.24c0.09,0.01,44.23,3.19,51.47,7.18c7.24,4,19.49,14.08,68.71,3.04
			c-21.47,0.09-38.16,0.15-40.98,0.07c-10.63-0.29-21.09-8.19-30.98-9.09C70.62,150.58,54.84,150.34,42.94,151.24z"/>
	</g>
	<g>
		<path class="st12" d="M208.1,182.03c8.84-1.29,16.31-5.02,20.65-13.1C227.31,178.22,216.93,183.84,208.1,182.03L208.1,182.03z"/>
	</g>
	<g>
		<path class="st12" d="M104.65,186.91c7.18,3.22,14.83,5.16,22.44,7.01c18.97,4.44,38.78,6.82,58.17,8.82
			c3.91,0.39,7.83,0.72,11.75,1.17C169.04,203.7,129.43,200.14,104.65,186.91L104.65,186.91z"/>
	</g>
</g>
</svg>
