<?xml version="1.0" encoding="utf-8"?>
<!-- Generator: Adobe Illustrator 25.1.0, SVG Export Plug-In . SVG Version: 6.00 Build 0)  -->
<svg version="1.1" id="Layer_1" xmlns="http://www.w3.org/2000/svg" xmlns:xlink="http://www.w3.org/1999/xlink" x="0px" y="0px"
	 viewBox="0 0 697.63 360" style="enable-background:new 0 0 697.63 360;" xml:space="preserve">
<style type="text/css">
	.st0{fill:#565455;}
	.st1{fill:#474647;}
	.st2{fill:#3E454F;}
	.st3{fill:#6B7685;}
	.st4{fill:#E1E9F5;}
	.st5{fill:#D5DDE8;}
	.st6{fill:#56606E;}
	.st7{fill:#E2DCDF;}
	.st8{clip-path:url(#SVGID_2_);}
	.st9{fill:#F9F4F7;}
	.st10{fill:#49586B;}
	.st11{fill:#CECCCD;}
	.st12{fill:#F2F0F1;}
	.st13{clip-path:url(#SVGID_4_);}
	.st14{fill:#3D3952;}
	.st15{fill:#FF1919;}
	.st16{fill:#6A809C;}
	.st17{fill:#CCC8CA;}
	.st18{clip-path:url(#SVGID_6_);}
	.st19{clip-path:url(#SVGID_8_);}
	.st20{fill:#C7E4FC;}
</style>
<g>
	<g>
		<g>
			<path class="st0" d="M192.37,283.89l-70.78-19.61l-79.33,6.54c0,0-19.61-29.2,15.69-59.71c35.3-30.51,95.45-69.74,139.91-36.61
				C242.32,207.61,192.37,283.89,192.37,283.89z"/>
		</g>
		<g>
			<path class="st1" d="M630.19,270.64l-66.61-8.98l-68.89,14.77c0,0-21.19-26.69-21.19-29.01s9.3-50.56,9.3-50.56l75.84-15.11
				c0,0,67.41,4.65,68.87,6.39c1.45,1.74,15.98,23.54,15.98,23.54l10.17,30.22L630.19,270.64z"/>
		</g>
		<g>
			<g>
				<g>
					
						<ellipse transform="matrix(0.9732 -0.2298 0.2298 0.9732 -44.2914 135.9788)" class="st2" cx="561.79" cy="258.19" rx="61.21" ry="61.21"/>
				</g>
			</g>
			<g>
				<g>
					<circle class="st3" cx="561.79" cy="258.19" r="39.49"/>
				</g>
			</g>
			<g>
				<g>
					
						<ellipse transform="matrix(0.9732 -0.2298 0.2298 0.9732 -44.2913 135.9786)" class="st4" cx="561.79" cy="258.19" rx="24.1" ry="24.1"/>
				</g>
			</g>
			<g>
				<g>
					<path class="st5" d="M518.87,258.19c0,23.7,19.21,42.91,42.91,42.91c23.7,0,42.91-19.21,42.91-42.91s-19.21-42.91-42.91-42.91
						C538.09,215.28,518.87,234.49,518.87,258.19z M522.51,258.19c0-21.69,17.59-39.28,39.28-39.28c21.69,0,39.28,17.59,39.28,39.28
						s-17.59,39.28-39.28,39.28C540.09,297.47,522.51,279.88,522.51,258.19z"/>
				</g>
			</g>
			<g>
				<g>
					<path class="st6" d="M506.1,261.72c1.95,0,3.53-1.58,3.53-3.53c0-28.76,23.4-52.16,52.16-52.16c28.76,0,52.16,23.4,52.16,52.16
						c0,1.95,1.58,3.53,3.53,3.53c1.95,0,3.53-1.58,3.53-3.53c0-32.65-26.57-59.22-59.22-59.22c-32.65,0-59.22,26.57-59.22,59.22
						C502.57,260.14,504.15,261.72,506.1,261.72z"/>
				</g>
			</g>
		</g>
		<g>
			<g>
				<g>
					
						<ellipse transform="matrix(0.9871 -0.1602 0.1602 0.9871 -39.8938 23.2321)" class="st2" cx="124.15" cy="259.06" rx="61.21" ry="61.21"/>
				</g>
			</g>
			<g>
				<g>
					<circle class="st3" cx="124.15" cy="259.06" r="39.49"/>
				</g>
			</g>
			<g>
				<g>
					
						<ellipse transform="matrix(0.9871 -0.1602 0.1602 0.9871 -39.8938 23.232)" class="st4" cx="124.15" cy="259.06" rx="9.16" ry="9.16"/>
				</g>
			</g>
			<g>
				<g>
					<path class="st5" d="M81.24,259.06c0,23.7,19.21,42.91,42.91,42.91s42.91-19.21,42.91-42.91c0-23.7-19.21-42.91-42.91-42.91
						S81.24,235.36,81.24,259.06z M84.87,259.06c0-21.69,17.59-39.28,39.28-39.28s39.28,17.59,39.28,39.28s-17.59,39.28-39.28,39.28
						S84.87,280.76,84.87,259.06z"/>
				</g>
			</g>
			<g>
				<g>
					<path class="st6" d="M68.46,262.59c1.95,0,3.53-1.58,3.53-3.53c0-28.76,23.4-52.16,52.16-52.16c28.76,0,52.16,23.4,52.16,52.16
						c0,1.95,1.58,3.53,3.53,3.53c1.95,0,3.53-1.58,3.53-3.53c0-32.65-26.56-59.22-59.22-59.22c-32.65,0-59.22,26.57-59.22,59.22
						C64.93,261.01,66.51,262.59,68.46,262.59z"/>
				</g>
			</g>
		</g>
		<g>
			<path class="st7" d="M30.99,254.23c-2.5-2.72-6.01-4.15-9.6-4.69l-1.89-18.51c-0.72-7.05,1.91-14.04,7.12-18.85
				c0.49-0.45,0.95-0.88,1.35-1.27c1.02-0.98,1.69-2.26,1.98-3.64c3.35-15.73,19.87-45.67,50.11-59.24
				c28.64-12.86,112.27-20.03,127.07-21.21c1.47-0.12,2.86-0.69,3.99-1.65l63.74-54.1c14.49-12.3,32.61-19.5,51.59-20.48
				c30.43-1.57,27.57-5.6,117.65-7.64c140.47-3.17,154.84,4.42,168.3,8.87c7.56,2.5,14.87,13.49,15.95,15.38
				c6.17,10.87,19.67,43.93,24.59,60.64c5.95,20.19,5.69,43.03,7.31,60.39s7.03,17.81,9.39,24.02c1.89,4.96-3.19,31.49-5.31,41.97
				c-0.53,2.61-2.48,4.7-5.06,5.39l-29.08,11.02c-0.39,0.11-0.79,0.17-1.2,0.2c0.15-4.53,0.23-9.38,0.23-14.61
				c0-36.23-31.04-64.56-67.24-64.56c-0.94,0-1.89,0.02-2.83,0.06c-37.1,1.54-64.5,32.95-64.5,70.08c0,5.07,0.02,9.94,0.05,14.62
				l-10.45,0.43l-279.68,6.72l-12.2,0.3c0.06-7.78,0.08-16.68,0.08-26.84c0-36.23-31.04-64.56-67.24-64.56
				c-0.94,0-1.89,0.02-2.84,0.06c-17.97,0.75-34.58,8.45-46.76,21.68c-12.18,13.24-17.73,30.41-17.73,48.4
				c0,3.45,0.04,6.52,0.09,9.44c-3.04-1.75-6.28-3.15-9.3-4.27c-4.15-1.54-8.46-2.44-12.73-3.5
				C35.66,260.56,33.41,256.88,30.99,254.23z"/>
		</g>
		<g>
			<defs>
				<path id="SVGID_1_" d="M19.5,231.04c-0.72-7.05,1.91-14.04,7.12-18.85c0.49-0.45,0.95-0.88,1.35-1.27
					c1.02-0.98,1.69-2.26,1.98-3.64c3.35-15.73,19.87-45.67,50.11-59.24c28.64-12.86,112.27-20.03,127.07-21.21
					c1.47-0.12,2.86-0.69,3.99-1.65l63.74-54.1c14.49-12.3,32.61-19.5,51.59-20.48c30.43-1.57,27.57-5.6,117.65-7.64
					c140.47-3.17,156.18,6.36,168.3,8.87c7.79,1.61,16.56,6.4,15.44,9.17c-0.81,2.02-0.57,4.31,0.5,6.21
					c6.17,10.87,19.67,43.92,24.59,60.64c5.95,20.19,5.69,43.03,7.31,60.39c1.62,17.36,7.03,17.81,9.39,24.02
					c1.89,4.96-3.19,31.49-5.31,41.97c-0.53,2.61-2.48,4.7-5.06,5.39l-29.08,11.02c-0.39,0.11-0.79,0.17-1.2,0.2
					c0.15-4.53,0.23-9.38,0.23-14.61c0-36.23-31.04-64.56-67.24-64.56c-0.94,0-1.89,0.02-2.83,0.06
					c-37.1,1.54-64.5,32.95-64.5,70.08c0,5.07,0.02,9.94,0.05,14.62l-10.45,0.43l-279.68,6.72l-12.2,0.3
					c0.06-7.78,0.08-16.68,0.08-26.84c0-36.23-31.04-64.56-67.24-64.56c-0.94,0-1.89,0.02-2.84,0.06
					c-17.97,0.75-34.58,8.45-46.76,21.68c-12.18,13.24-17.73,30.41-17.73,48.4c0,8.85,0.23,15.22,0.35,22.79
					c-5.58,0.13-11.14-0.77-16.39-2.68l-17.63-4.55c-2.36-0.86-4.08-2.91-4.52-5.37c-0.3-1.66,0.01-3.37,0.87-4.83l1.13-1.91
					c0.77-1.3,1.1-2.8,0.95-4.3L19.5,231.04z"/>
			</defs>
			<clipPath id="SVGID_2_">
				<use xlink:href="#SVGID_1_"  style="overflow:visible;"/>
			</clipPath>
			<g class="st8">
				<path class="st9" d="M664.99,152.11c0,0-464.51,6.39-497.64,6.97c-33.13,0.58-92.98-1.16-128.43,31.96l-12.79-1.16
					c0,0,18.74-29.35,51.87-39.37c33.13-10.02,148.63-17.43,148.63-17.43l386.92-11.73c0,0,7.27,5.63,36.04-10.93
					C678.36,93.85,664.99,152.11,664.99,152.11z"/>
			</g>
		</g>
		<g>
			<path class="st10" d="M214.26,133.97l68.05-57.8c11.84-10.05,26.9-16,42.4-16.76c7.19-0.35,15.6-0.86,25.34-1.45
				c19.78-1.19,1.36-2.68,34.14-4.04c23-0.95,35.37-1.69,60.1-2.25c123.43-2.79,137.28,8.29,137.3,8.3c2.47,1.23,6.8,3.99,8.78,6.97
				c2.66,4.01,6.58,11.11,11.78,23.53c4.39,10.5,8.42,21.77,11.4,30.88L214.26,133.97z"/>
		</g>
		<g>
			<path class="st11" d="M228.78,141.27l9.47-12.64c0,0,12.7,1.95,15.7,3.71c3,1.75-0.71,5.5-1.21,7.78
				c-0.51,2.27-6.7,7.41-13.58,8.15C232.28,149,229.41,145.6,228.78,141.27z"/>
		</g>
		<g>
			<path class="st12" d="M235.3,122.82c0,0-0.16,5.19,5.44,9.77c5.6,4.58,20.31,6.14,20.31,6.14s4.92-0.96,7.45-8.65
				c2.54-7.69-1.99-17.12-5.22-19.09c-3.24-1.97-5.5-2.25-5.5-2.25s-10.53-0.27-17.42,5.68C234.71,119.31,235.3,122.82,235.3,122.82
				z"/>
		</g>
		<g>
			<defs>
				<path id="SVGID_3_" d="M663.45,258.48c0,0,8.56-40.02,6.2-46.23c-2.36-6.21-7.77-6.66-9.39-24.02
					c-1.62-17.36-1.37-40.21-7.31-60.39c-5.95-20.19-26.63-64.2-26.63-64.2s-1.79-9.32-13.91-11.82
					c-12.12-2.5-27.84-12.04-168.3-8.87c-92.25,2.08-89.65,6.26-119.81,7.75c-17.51,0.86-34.25,7.48-47.61,18.82l-67.3,57.11
					c0,0-97.85,7.26-129.32,21.39c-31.46,14.13-48.07,45.96-50.45,61.09c-0.55,1.22-11.29,10.38-11.29,10.38l4.55,44.58l-3.65,6.16
					l1.17,6.56l29.76,8.97l10.8-0.45l143.61-1.74l279.68-6.72l145.18-6.02L663.45,258.48z"/>
			</defs>
			<clipPath id="SVGID_4_">
				<use xlink:href="#SVGID_3_"  style="overflow:visible;"/>
			</clipPath>
			<g class="st13">
				<path class="st14" d="M658.33,133.39l-23.98,0.99c-5.55,0.23-9.87,4.88-9.69,10.43c0.5,15.2,1.66,43.16,3.54,50.9
					c2.63,10.8,37.41,6.09,37.41,6.09L658.33,133.39z"/>
			</g>
		</g>
		<g>
			<path class="st15" d="M636.11,149.87l18.87-0.78c2.81-0.12,4.99-2.49,4.87-5.29l0,0c-0.12-2.81-2.49-4.99-5.29-4.87l-18.87,0.78
				c-2.81,0.12-4.99,2.49-4.87,5.29l0,0C630.94,147.81,633.31,149.99,636.11,149.87z"/>
		</g>
		<g>
			<path class="st15" d="M637.34,165.38l18.87-0.78c2.81-0.12,4.99-2.49,4.87-5.29l0,0c-0.12-2.81-2.49-4.99-5.29-4.87l-18.87,0.78
				c-2.81,0.12-4.99,2.49-4.87,5.29l0,0C632.16,163.31,634.53,165.5,637.34,165.38z"/>
		</g>
		<g>
			<path class="st15" d="M637.47,182.53l18.87-0.78c2.81-0.12,4.99-2.49,4.87-5.29l0,0c-0.12-2.81-2.49-4.99-5.29-4.87l-18.87,0.78
				c-2.81,0.12-4.99,2.49-4.87,5.29l0,0C632.29,180.47,634.66,182.65,637.47,182.53z"/>
		</g>
		<g>
			<path class="st16" d="M264.42,97.09l20.72-17.59c11.11-9.43,25.25-15.02,39.8-15.73c7.2-0.35,15.6-0.86,25.39-1.45
				c19.76-1.19,1.32-2.68,34.05-4.04c22.94-0.95,35.29-1.69,60.02-2.24c15.79-0.36,30.32-0.54,43.18-0.54
				c66.49,0,79.19,4.7,87.6,7.81c1.83,0.68,3.56,1.32,5.64,1.85c2.44,0.63,4.54,2.12,5.92,4.2c2.29,3.44,6.12,10.19,11.39,22.8
				c0.02,0.04,0.04,0.09,0.05,0.13C536.96,82.55,461.03,70.76,264.42,97.09z"/>
		</g>
		<g>
			<path class="st0" d="M70.89,223.45v-0.87c-8.12,0-29.7-0.4-31.98-2.23c-2.82-2.26-8.87-11.38-8.93-11.48l-0.73,0.48
				c0.25,0.38,6.19,9.34,9.11,11.68C41.3,223.38,67.87,223.45,70.89,223.45z"/>
		</g>
		<g>
			<path class="st0" d="M336.25,162.72h10.9c4.73,0,8.61-3.87,8.61-8.61l0,0c0-4.73-3.87-8.61-8.61-8.61h-10.9
				c-4.73,0-8.61,3.87-8.61,8.61l0,0C327.64,158.85,331.52,162.72,336.25,162.72z"/>
		</g>
		<g>
			<path class="st17" d="M330.91,153.71h34.43c1.52,0,2.76-1.24,2.76-2.76l0,0c0-1.52-1.24-2.76-2.76-2.76h-34.43
				c-1.52,0-2.76,1.24-2.76,2.76l0,0C328.15,152.47,329.39,153.71,330.91,153.71z"/>
		</g>
		<g>
			<path class="st9" d="M482.66,217.64c0,0-9.37,16.93-11.55,30.08l-250.29,6.97c0,0,1.74-17.26-9.59-31.6L482.66,217.64z"/>
		</g>
		<g>
			<defs>
				<path id="SVGID_5_" d="M214.26,133.97l68.05-57.8c11.84-10.05,26.9-16,42.4-16.76c7.19-0.35,15.6-0.86,25.34-1.45
					c19.78-1.19,1.36-2.68,34.14-4.04c23-0.95,35.37-1.69,60.1-2.25c123.43-2.79,125,5.99,137.57,9.25c0.02,0,0.03,0.01,0.05,0.01
					c3.46,0.9,6.48,3.03,8.46,6.01c2.66,4.01,6.58,11.11,11.78,23.53c4.39,10.5,8.42,21.77,11.4,30.88L214.26,133.97z"/>
			</defs>
			<clipPath id="SVGID_6_">
				<use xlink:href="#SVGID_5_"  style="overflow:visible;"/>
			</clipPath>
			<g class="st18">
				<polygon class="st7" points="380.02,49.54 384.09,134.1 362,134.97 362.29,51.28 				"/>
			</g>
			<g class="st18">
				<polygon class="st7" points="465.08,46.35 475.25,131.77 496.17,131.77 485.42,45.76 				"/>
			</g>
		</g>
		<g>
			<defs>
				<path id="SVGID_7_" d="M19.5,231.04c-0.72-7.05,1.91-14.04,7.12-18.85c0.49-0.45,0.95-0.88,1.35-1.27
					c1.02-0.98,1.69-2.26,1.98-3.64c3.35-15.73,19.87-45.67,50.11-59.24c28.64-12.86,112.27-20.03,127.07-21.21
					c1.47-0.12,2.86-0.69,3.99-1.65l63.74-54.1c14.49-12.3,32.61-19.5,51.59-20.48c30.43-1.57,27.57-5.6,117.65-7.64
					c140.47-3.17,156.18,6.36,168.3,8.87c7.79,1.61,16.56,6.4,15.44,9.17c-0.81,2.02-0.57,4.31,0.5,6.21
					c6.17,10.87,19.67,43.92,24.59,60.64c5.95,20.19,5.69,43.03,7.31,60.39c1.62,17.36,7.03,17.81,9.39,24.02
					c1.89,4.96-3.19,31.49-5.31,41.97c-0.53,2.61-2.48,4.7-5.06,5.39l-29.08,11.02c-0.39,0.11-0.79,0.17-1.2,0.2
					c0.15-4.53,0.23-9.38,0.23-14.61c0-36.23-31.04-64.56-67.24-64.56c-0.94,0-1.89,0.02-2.83,0.06
					c-37.1,1.54-64.5,32.95-64.5,70.08c0,5.07,0.02,9.94,0.05,14.62l-10.45,0.43l-279.68,6.72l-12.2,0.3
					c0.06-7.78,0.08-16.68,0.08-26.84c0-36.23-31.04-64.56-67.24-64.56c-0.94,0-1.89,0.02-2.84,0.06
					c-17.97,0.75-34.58,8.45-46.76,21.68c-12.18,13.24-17.73,30.41-17.73,48.4c0,8.85,0.23,15.22,0.35,22.79
					c-5.58,0.13-11.14-0.77-16.39-2.68l-17.63-4.55c-2.36-0.86-4.08-2.91-4.52-5.37c-0.3-1.66,0.01-3.37,0.87-4.83l1.13-1.91
					c0.77-1.3,1.1-2.8,0.95-4.3L19.5,231.04z"/>
			</defs>
			<clipPath id="SVGID_8_">
				<use xlink:href="#SVGID_7_"  style="overflow:visible;"/>
			</clipPath>
			<g class="st19">
				<g>
					<path class="st0" d="M203.12,267.49l0.87-0.02l298.6-8.41l-0.04-1.74l-297.73,8.39c-1.16-45.71-2.27-114.21-0.63-117.89
						c2.23-5.02,10.6-13.14,10.69-13.22l-1.21-1.25c-0.35,0.34-8.7,8.44-11.07,13.76c-2.34,5.26,0.21,107.83,0.51,119.51
						L203.12,267.49z"/>
				</g>
				<g>
					<polygon class="st0" points="374.93,261.66 376.68,261.66 376.24,143 374.49,128.18 372.76,42.84 371.01,42.88 372.76,128.3 
						374.5,143.16 					"/>
				</g>
				<g>
					<polygon class="st0" points="488.32,258.47 490.07,258.46 489.2,137.19 486.28,124.94 476.99,41.02 475.25,41.21 
						484.57,125.29 487.45,137.4 					"/>
				</g>
			</g>
		</g>
		<g>
			<path class="st14" d="M26.62,212.18c0.49-0.45,0.95-0.88,1.35-1.27c0.68-0.66,1.2-1.46,1.56-2.33c0.05,0.34,0.08,0.53,0.08,0.53
				l9.97,11.05c-0.42,0.49-0.86,0.96-1.32,1.41c-0.47,0.45-1.01,0.96-1.59,1.5c-1.77,1.64-2.68,4.05-2.43,6.46l3.14,30.73
				c0.23,2.28,0.1,4.58-0.38,6.82l6.07,2.21c-0.01-2.19-0.01-4.41-0.01-6.67c0-22.84,7.49-43.04,21.65-58.43
				c14.86-16.15,35.12-25.54,57.05-26.45c1.14-0.05,2.3-0.07,3.45-0.07c45.25,0,82.06,35.61,82.06,79.38c0,4.06,0,7.95-0.01,11.66
				l272.57-6.58l0,0c-0.16-45.91,34.47-83.37,78.7-85.21c1.14-0.05,2.3-0.07,3.45-0.07c43.63,0,79.42,33.1,81.92,74.71l12.93-3.51
				c3.01-15.46-1.94-25.92-1.66-30.18l0,0c-3.76-3.24-3.73-7.07-7.24-16.95l15.08,0.14c4.07,6.36,5.04,6.98,6.63,11.18
				c1.89,4.96-3.19,31.49-5.31,41.97c-0.53,2.61-2.48,4.7-5.06,5.39l-29.08,11.02c-0.39,0.11-0.79,0.17-1.2,0.2
				c0.15-4.53,0.23-9.38,0.23-14.61c0-36.23-31.04-64.56-67.24-64.56c-0.94,0-1.89,0.02-2.83,0.06c-37.1,1.54-64.5,32.95-64.5,70.08
				c0,5.07,0.02,9.94,0.05,14.62l-10.45,0.43l-279.68,6.72l-12.2,0.3c0.06-7.78,0.08-16.68,0.08-26.84
				c0-36.23-31.04-64.56-67.24-64.56c-0.94,0-1.89,0.02-2.84,0.06c-17.95,0.74-34.55,8.43-46.73,21.64
				c-11.58,12.56-17.7,29.22-17.77,46.3c-0.04,10,0.22,16.76,0.35,24.94c-3.38,0.08-15.11-2.58-23.86-4.7
				c-6.08-1.47-10.56-6.61-11.18-12.84c-1.39-13.96-3.69-36.85-3.69-36.85C18.78,223.98,21.41,216.99,26.62,212.18z"/>
		</g>
		<g>
			<path class="st14" d="M39.58,220.16l16.34,1.4c0,0,2.32,6.68,1.31,7.41c-1.02,0.73-14.09,46.35-14.09,46.35h-3.92l-7.12-4.21
				c0,0-2.62-14.96-2.62-17.29s-1.31-21.07-1.31-21.07l1.6-7.99L39.58,220.16z"/>
		</g>
		<g>
			<path class="st14" d="M627.65,192.07c0,0-2.32,5.96-4.36,6.97c-2.03,1.02-7.85,1.16-7.85,1.16s1.45,7.41,1.45,8.14
				c0,0.73,11.33,19.61,11.33,19.61l13.66,29.64c0,0,3.92,4.65,5.67,3.78c1.74-0.87,13.09-10.63,13.81-13.69
				c0.73-3.05,1.74-12.93,1.74-17.14s-5.38-18.45-5.38-18.45l-4.51-7.82l-6.54-6.97L627.65,192.07z"/>
		</g>
		<g>
			<path class="st20" d="M44.74,182.79c0,0,10.48-15.31,23.31-21.1s26.94-2.47,30.69,0.98c3.75,3.45-7.59,10.14-17.93,16.82
				c-10.68,6.9-18.09,16.68-28.47,19.81C41.95,202.44,33.3,196.79,44.74,182.79z"/>
		</g>
	</g>
	<g>
		<g>
			
				<ellipse transform="matrix(0.9732 -0.2298 0.2298 0.9732 -55.9931 35.4769)" class="st4" cx="124.35" cy="258.19" rx="24.1" ry="24.1"/>
		</g>
	</g>
</g>
</svg>
