<svg xmlns="http://www.w3.org/2000/svg" viewBox="0 0 32 32" id="t-shirt">
  <defs>
    <linearGradient id="a" x1="7.962" x2="22.605" y1="27.709" y2="2.346" gradientUnits="userSpaceOnUse">
      <stop offset="0" stop-color="#4c46c8"></stop>
      <stop offset="1" stop-color="#87bfff"></stop>
    </linearGradient>
  </defs>
  <path fill="url(#a)" d="M29.526 11.721 26.97 5.97A5.005 5.005 0 0 0 22.4 3h-1.838a1.994 1.994 0 0 0-1.827 1.2 2.976 2.976 0 0 1-5.47 0A2 2 0 0 0 11.438 3H9.6a5.006 5.006 0 0 0-4.57 2.969l-2.556 5.752a2 2 0 0 0 .933 2.6L8 16.618V26a3 3 0 0 0 3 3h10a3 3 0 0 0 3-3v-9.382l4.593-2.3a2 2 0 0 0 .933-2.597ZM24 14.382V12a1 1 0 0 0-2 0v14a1 1 0 0 1-1 1H11a1 1 0 0 1-1-1V12a1 1 0 0 0-2 0v2.382l-3.7-1.849 2.558-5.752A3 3 0 0 1 9.6 5h1.831a4.973 4.973 0 0 0 9.131 0H22.4a3 3 0 0 1 2.742 1.782l2.558 5.751Z"></path>
</svg>
