<?xml version="1.0" encoding="utf-8"?>
<!-- Generator: Adobe Illustrator 25.1.0, SVG Export Plug-In . SVG Version: 6.00 Build 0)  -->
<svg version="1.1" id="Layer_1" xmlns="http://www.w3.org/2000/svg" xmlns:xlink="http://www.w3.org/1999/xlink" x="0px" y="0px"
	 viewBox="0 0 1768.82 785.09" style="enable-background:new 0 0 1768.82 785.09;" xml:space="preserve">
<style type="text/css">
	.st0{fill-rule:evenodd;clip-rule:evenodd;fill:#121212;}
	.st1{fill-rule:evenodd;clip-rule:evenodd;fill:#1A1A1A;}
	.st2{fill-rule:evenodd;clip-rule:evenodd;fill:#FFFFFF;}
	.st3{fill-rule:evenodd;clip-rule:evenodd;fill:#989898;}
	.st4{fill-rule:evenodd;clip-rule:evenodd;fill:#666666;}
	.st5{fill-rule:evenodd;clip-rule:evenodd;fill:#FF7D26;}
	.st6{fill-rule:evenodd;clip-rule:evenodd;fill:#2C2F36;}
	.st7{fill-rule:evenodd;clip-rule:evenodd;fill:#FF6600;}
	.st8{fill-rule:evenodd;clip-rule:evenodd;fill:#1C1C1C;}
	.st9{fill-rule:evenodd;clip-rule:evenodd;fill:#FF0000;}
	.st10{fill-rule:evenodd;clip-rule:evenodd;fill:#050505;}
	.st11{fill-rule:evenodd;clip-rule:evenodd;fill:#CBCBCB;}
	.st12{fill-rule:evenodd;clip-rule:evenodd;fill:#E5E5E5;}
	.st13{fill-rule:evenodd;clip-rule:evenodd;fill:url(#SVGID_1_);}
	.st14{fill-rule:evenodd;clip-rule:evenodd;fill:#3378C1;}
</style>
<g id="_x38_">
	<path class="st0" d="M1513.39,653.11H325.92c-3.2,0-5.82,2.62-5.82,5.82l0,0c0,3.2,2.77,5.82,5.82,5.82h1187.48
		c3.05,0,5.82-2.62,5.82-5.82l0,0C1519.21,655.73,1516.6,653.11,1513.39,653.11L1513.39,653.11z M1605.77,653.11h-44.84
		c-3.2,0-5.82,2.62-5.82,5.82l0,0c0,3.2,2.72,5.82,5.82,5.82h44.84c3.11,0,5.82-2.62,5.82-5.82l0,0
		C1611.6,655.73,1608.98,653.11,1605.77,653.11L1605.77,653.11z M277.39,653.11h-44.84c-3.2,0-5.82,2.62-5.82,5.82l0,0
		c0,3.2,2.73,5.82,5.82,5.82h44.84c3.1,0,5.82-2.62,5.82-5.82l0,0C283.21,655.73,280.59,653.11,277.39,653.11z"/>
	<path class="st0" d="M780.72,658.44h48.97c41.58,0,75.28-52,75.28-116.14c0-64.14-33.7-116.13-75.28-116.13h-48.97
		c-41.58,0-75.28,51.99-75.28,116.13C705.44,606.44,739.14,658.44,780.72,658.44L780.72,658.44z M1409.39,426.16
		c-41.57,0-75.28,52-75.28,116.13c0,64.14,33.7,116.14,75.28,116.14h48.97c41.57,0,75.28-52,75.28-116.14
		c0-64.14-33.7-116.13-75.28-116.13H1409.39z"/>
	<polygon class="st0" points="1270.81,592.44 494.49,592.44 280.71,574.44 243.42,563.41 267.67,399.06 1270.81,403.98 	"/>
	<g>
		<path class="st0" d="M380.11,658.44h48.96c41.58,0,75.28-52,75.28-116.14c0-64.14-33.7-116.13-75.28-116.13h-48.96
			C334.84,426.16,333.36,658.44,380.11,658.44z"/>
		<ellipse class="st1" cx="380.11" cy="542.3" rx="75.28" ry="116.13"/>
		<g>
			<path class="st2" d="M380.11,624.26c29.21,0,53.03-36.75,53.03-81.82c0-45.06-23.82-81.82-53.03-81.82
				c-29.21,0-53.04,36.76-53.04,81.82C327.08,587.51,350.9,624.26,380.11,624.26z"/>
			<path class="st3" d="M380.11,612.63c25.06,0,45.49-31.53,45.49-70.18c0-38.65-20.44-70.18-45.49-70.18s-45.5,31.53-45.5,70.18
				C334.62,581.1,355.06,612.63,380.11,612.63z"/>
			<path class="st1" d="M388.91,611.31c20.91-6.32,36.7-34.75,36.7-68.87c0-34.12-15.78-62.55-36.7-68.87
				c-20.92,6.32-36.7,34.75-36.7,68.87C352.21,576.56,367.99,604.99,388.91,611.31z"/>
			<path class="st4" d="M389.53,611.12c12.14-3.94,22.5-15.35,28.97-30.98c-2.97-3.41-4.67-10.45-0.75-20.93
				c2.4-6.42,5.13-9.37,7.66-10.19c0.13-2.16,0.2-4.36,0.2-6.58c0-2.22-0.07-4.41-0.2-6.58c-2.53-0.81-5.26-3.77-7.66-10.18
				c-3.93-10.5-2.22-17.53,0.75-20.93c-6.46-15.62-16.82-27.04-28.97-30.98c-20.6,6.69-36.06,34.89-36.06,68.67
				C353.46,576.22,368.93,604.43,389.53,611.12L389.53,611.12z M398.94,508.92c-14.78,0-12.7-20.51-7.7-22.16
				c5.14-1.69,10.27-1.74,15.4,0C411.67,488.46,413.68,508.92,398.94,508.92L398.94,508.92z M380.13,525.68
				c-7.39,19.76-17.86,6.72-16.29-0.79c1.62-7.71,4.16-14.6,7.7-20.59C375.02,498.44,387.5,505.98,380.13,525.68L380.13,525.68z
				 M380.13,559.21c7.39,19.76-5.16,27.23-8.58,21.37c-3.52-6.02-6.11-12.85-7.7-20.59C362.29,552.42,372.76,539.5,380.13,559.21
				L380.13,559.21z M398.94,575.97c14.79,0,12.7,20.51,7.7,22.16c-5.14,1.69-10.27,1.75-15.41,0
				C386.2,596.42,384.19,575.97,398.94,575.97z"/>
			<path class="st2" d="M386.19,612c12.98-2.67,24.24-13.8,31.36-29.67c-4.7,1.54-12.72-6.42-6.47-23.13
				c4.79-12.82,10.88-11.83,14.14-7.51c0.26-3.03,0.39-6.11,0.39-9.25c0-3.14-0.14-6.22-0.39-9.25c-3.26,4.32-9.35,5.29-14.14-7.51
				c-6.25-16.73,1.78-24.65,6.47-23.13c-7.12-15.87-18.37-26.99-31.35-29.66c-22.24,4.58-39.4,33.98-39.4,69.56
				S363.95,607.42,386.19,612L386.19,612z M392.26,508.92c-14.78,0-12.7-20.51-7.7-22.16c5.14-1.69,10.27-1.74,15.4,0
				C404.99,488.46,407.01,508.92,392.26,508.92L392.26,508.92z M373.45,525.68c-7.39,19.76-17.86,6.72-16.29-0.79
				c1.62-7.71,4.16-14.6,7.7-20.59C368.34,498.44,380.82,505.98,373.45,525.68L373.45,525.68z M373.45,559.21
				c7.39,19.76-5.16,27.23-8.58,21.37c-3.52-6.02-6.11-12.85-7.7-20.59C355.61,552.42,366.08,539.5,373.45,559.21L373.45,559.21z
				 M392.26,575.97c14.79,0,12.7,20.51,7.7,22.16c-5.14,1.69-10.27,1.75-15.4,0C379.53,596.42,377.52,575.97,392.26,575.97z"/>
			<path class="st4" d="M392.69,528.1c-5.42,0-9.81,6.77-9.81,15.13c0,8.35,4.39,15.13,9.81,15.13c5.42,0,9.81-6.78,9.81-15.13
				C402.5,534.87,398.11,528.1,392.69,528.1z"/>
		</g>
	</g>
	<g>
		<path class="st0" d="M1008.77,658.44h48.96c41.57,0,75.28-52,75.28-116.14c0-64.14-33.7-116.13-75.28-116.13h-48.96
			C963.49,426.16,962.01,658.44,1008.77,658.44z"/>
		<ellipse class="st1" cx="1008.77" cy="542.3" rx="75.28" ry="116.13"/>
		<g>
			<ellipse class="st2" cx="1008.77" cy="542.44" rx="53.04" ry="81.82"/>
			<path class="st3" d="M1008.77,612.63c25.06,0,45.49-31.53,45.49-70.18c0-38.65-20.44-70.18-45.49-70.18s-45.5,31.53-45.5,70.18
				C963.27,581.1,983.71,612.63,1008.77,612.63z"/>
			<path class="st1" d="M1017.56,611.31c20.92-6.32,36.7-34.75,36.7-68.87c0-34.12-15.78-62.55-36.7-68.87
				c-20.91,6.32-36.7,34.75-36.7,68.87C980.86,576.56,996.65,604.99,1017.56,611.31z"/>
			<path class="st4" d="M1018.18,611.12c12.15-3.94,22.5-15.35,28.97-30.98c-2.97-3.41-4.67-10.45-0.75-20.93
				c2.4-6.42,5.13-9.37,7.66-10.19c0.13-2.16,0.2-4.36,0.2-6.58c0-2.22-0.07-4.41-0.2-6.58c-2.53-0.81-5.26-3.77-7.66-10.18
				c-3.92-10.5-2.22-17.53,0.75-20.93c-6.46-15.62-16.82-27.04-28.97-30.98c-20.6,6.69-36.06,34.89-36.06,68.67
				C982.12,576.22,997.58,604.43,1018.18,611.12L1018.18,611.12z M1027.59,508.92c-14.78,0-12.7-20.51-7.7-22.16
				c5.14-1.69,10.27-1.74,15.4,0C1040.32,488.46,1042.33,508.92,1027.59,508.92L1027.59,508.92z M1008.78,525.68
				c-7.39,19.76-17.86,6.72-16.29-0.79c1.62-7.71,4.16-14.6,7.7-20.59C1003.67,498.44,1016.15,505.98,1008.78,525.68L1008.78,525.68
				z M1008.78,559.21c7.39,19.76-5.16,27.23-8.58,21.37c-3.52-6.02-6.11-12.85-7.7-20.59
				C990.94,552.42,1001.41,539.5,1008.78,559.21L1008.78,559.21z M1027.59,575.97c14.79,0,12.7,20.51,7.7,22.16
				c-5.13,1.69-10.27,1.75-15.41,0C1014.86,596.42,1012.85,575.97,1027.59,575.97z"/>
			<path class="st2" d="M1014.84,612c12.98-2.67,24.23-13.8,31.36-29.67c-4.7,1.54-12.72-6.42-6.47-23.13
				c4.79-12.82,10.88-11.83,14.14-7.51c0.26-3.03,0.39-6.11,0.39-9.25c0-3.14-0.14-6.22-0.39-9.25c-3.26,4.32-9.35,5.29-14.14-7.51
				c-6.26-16.73,1.78-24.65,6.47-23.13c-7.12-15.87-18.37-26.99-31.35-29.66c-22.24,4.58-39.4,33.98-39.4,69.56
				S992.6,607.42,1014.84,612L1014.84,612z M1020.91,508.92c-14.78,0-12.7-20.51-7.7-22.16c5.13-1.69,10.27-1.74,15.4,0
				C1033.65,488.46,1035.66,508.92,1020.91,508.92L1020.91,508.92z M1002.1,525.68c-7.39,19.76-17.86,6.72-16.29-0.79
				c1.62-7.71,4.16-14.6,7.7-20.59C996.99,498.44,1009.48,505.98,1002.1,525.68L1002.1,525.68z M1002.1,559.21
				c7.39,19.76-5.16,27.23-8.58,21.37c-3.52-6.02-6.11-12.85-7.7-20.59C984.26,552.42,994.73,539.5,1002.1,559.21L1002.1,559.21z
				 M1020.91,575.97c14.78,0,12.7,20.51,7.7,22.16c-5.13,1.69-10.27,1.75-15.4,0C1008.18,596.42,1006.17,575.97,1020.91,575.97z"/>
			<path class="st4" d="M1021.34,528.1c-5.42,0-9.81,6.77-9.81,15.13c0,8.35,4.39,15.13,9.81,15.13c5.42,0,9.81-6.78,9.81-15.13
				C1031.15,534.87,1026.76,528.1,1021.34,528.1z"/>
		</g>
	</g>
	<path class="st5" d="M1612.8,463.38l-12.4-32.66l-22.18-49.88c-24.46-31.82-115.78-57.74-197.44-78.91
		c-75.06-51.66-185.66-124.03-234.23-137.04c-111.11-29.77-227.12-37.81-346.34-40.83c-150.94-3.83-317.34,15.37-443.79,44.8
		c-9.89,2.3-16.09,7.19-20.47,12.1c-43.08,48.31-81.01,97.53-111.06,147.54c-5.03,17.5-13.58,43.03,0.11,57.31l-16.07,54.56
		c-2.06,7-3.11,14.44-2.44,21.6l6.15,66.06c0.51,5.53,1.59,9.68,3.9,13.45l7.61,12.4c2.26,3.68,5.65,6.52,9.63,7.63L278.7,574
		c8.11,2.27,13.2-2.01,12.89-10.14c-0.56-14.54-0.47-34.7,0.22-44.76c4-57.76,38.09-107.61,90.49-107.61
		c52.4,0,78.72,47.98,90.49,107.61c3.47,17.6,6.89,35.05,10.64,52.46c1.49,6.92,10.45,20.88,17.94,20.88H916.1
		c8.53,0,10.76-4.33,8.97-13.52c-3.79-19.35-4.88-39.61-3.46-59.82c4.04-57.77,38.09-107.61,90.49-107.61
		c52.4,0,78.7,47.96,90.49,107.61c3.48,17.62,6.86,35.04,10.64,52.46c1.5,6.94,10.45,20.88,17.94,20.88h467.12
		c8.68,0,18.6-12.81,18.56-23.47l-6.18-26.55c-1.56-6.7,6.04-6.77,6.04-13.26l-0.16-46.29
		C1616.53,476.01,1615.16,469.61,1612.8,463.38z"/>
	<path class="st0" d="M1380.79,301.93l-0.14-0.1l-0.14-0.1l-0.14-0.1l-0.14-0.1l-0.14-0.1l-0.14-0.1l-0.14-0.1l-0.14-0.1l-0.14-0.1
		l-0.14-0.1l-0.14-0.1l-0.14-0.1l-0.14-0.1l-0.14-0.1l-0.14-0.1l-0.14-0.1l-0.14-0.1l-0.14-0.1l-0.14-0.1l-0.14-0.1l-0.14-0.1
		l-0.14-0.1l-0.14-0.1l-0.14-0.1l-0.13-0.09l-0.01-0.01l-0.14-0.1l-0.14-0.1l-0.14-0.1l-0.15-0.1l-0.14-0.1l-0.14-0.1l-0.15-0.1
		l-0.14-0.1l-0.14-0.1l-0.15-0.1l-0.14-0.1l-0.15-0.1l-0.14-0.1l-0.15-0.1l-0.14-0.1l-0.15-0.1l-0.15-0.1l-0.15-0.1l-0.14-0.1
		l-0.15-0.1l-0.14-0.1l-0.15-0.1l-0.15-0.1l-0.14-0.1l-0.11-0.08l-0.03-0.02l-0.14-0.1l-0.15-0.1l-0.15-0.1l-0.15-0.1l-0.15-0.1
		l-0.15-0.1l-0.15-0.1l-0.14-0.1l-0.15-0.1l-0.14-0.1l-0.15-0.1l-0.14-0.1l-0.15-0.1l-0.15-0.1
		c-72.59-49.66-172.73-114.58-221.06-129.57l-0.06-0.02l-0.06-0.02l-0.06-0.02l-0.06-0.02l-0.06-0.02l-0.06-0.02l-0.06-0.02
		l-0.06-0.02l-0.06-0.02l-0.06-0.02l-0.06-0.02l-0.06-0.02l-0.06-0.02l-0.06-0.02l-0.06-0.02l-0.06-0.02l-0.06-0.02l-0.06-0.02
		l-0.06-0.02l-0.06-0.02l-0.06-0.02l-0.06-0.02l-0.44-0.13l-0.06-0.02l-0.06-0.02l-0.06-0.02l-0.06-0.02
		c-0.57-0.17-1.14-0.33-1.7-0.48l-0.06-0.02l-0.06-0.01l-0.06-0.02c-6.73-1.8-13.47-3.53-20.23-5.17h-10.11H854.75
		c-6.11,0-8.23,5.02-4.45,8.09l156.62,127.12c5.8,4.71,12.01,7.01,18.67,7.01h351.04H1380.79z"/>
	<path class="st6" d="M1367.84,295.61H1025.6c-5.59,0-10.37-2.1-14.69-5.6L858.16,166.04h284.53l3.32,0.88
		c21.37,5.73,46.48,19.3,65.82,30.01c29.27,16.2,57.88,34,85.99,52.12C1321.38,264.24,1344.7,279.8,1367.84,295.61z"/>
	<path class="st1" d="M1363.59,295.61h-338c-5.59,0-10.37-2.1-14.69-5.6l-88.96-72.2c21.11-1.27,42.62-1.93,64.46-1.93
		C1135.86,215.88,1270.3,246.63,1363.59,295.61z"/>
	<path class="st7" d="M219.67,377.21c1.17,3.15,2.9,6.05,5.34,8.59l-16.07,54.56l-0.1,0.33c-1.63,5.65-2.6,11.57-2.54,17.4
		l9.33,78.28l14.4,23.47l50.03,14.48c7.31,1.44,11.83-2.8,11.53-10.46c-0.24-6.34-0.37-13.75-0.37-20.92
		c-0.03-8.16,0.13-15.97,0.47-21.84l0.03-0.52l0-0.07l0.03-0.44l0.02-0.28l0.01-0.21l0.03-0.48c0.06-0.9,0.13-1.8,0.21-2.7h0
		c0.08-0.9,0.16-1.8,0.25-2.69c0.09-0.9,0.19-1.78,0.3-2.67v0c0.11-0.89,0.22-1.77,0.34-2.66h0c0.12-0.88,0.25-1.77,0.38-2.64l0,0
		c0.13-0.88,0.27-1.76,0.42-2.63h0c0.15-0.87,0.3-1.74,0.47-2.61l0,0c0.16-0.87,0.33-1.73,0.51-2.59l0,0
		c0.18-0.86,0.36-1.72,0.55-2.57l0,0c0.19-0.85,0.39-1.7,0.59-2.55l0,0c0.2-0.85,0.41-1.69,0.63-2.53l0,0
		c0.22-0.84,0.44-1.68,0.67-2.51h0c0.23-0.83,0.47-1.66,0.72-2.49l0,0c0.49-1.65,1.01-3.28,1.55-4.9l0,0
		c0.27-0.81,0.55-1.61,0.84-2.41l0,0c0.29-0.8,0.58-1.59,0.88-2.38l0,0c0.3-0.79,0.6-1.57,0.91-2.36l0,0
		c0.31-0.78,0.63-1.56,0.95-2.33l0,0c0.32-0.77,0.66-1.54,0.99-2.3l0,0c1.02-2.28,2.09-4.52,3.22-6.71l0,0
		c0.38-0.73,0.76-1.45,1.15-2.17l0,0c0.39-0.72,0.78-1.43,1.18-2.13l0,0c0.8-1.41,1.63-2.8,2.48-4.16l0,0
		c0.85-1.36,1.73-2.7,2.63-4.01l0,0c0.45-0.65,0.91-1.31,1.37-1.95l0,0c0.46-0.64,0.93-1.28,1.4-1.9l0,0
		c0.95-1.26,1.92-2.49,2.92-3.69l0,0c0.5-0.6,1-1.19,1.51-1.78l0,0c0.51-0.59,1.02-1.16,1.54-1.73l0,0
		c0.52-0.57,1.05-1.13,1.58-1.69h0c0.53-0.56,1.07-1.1,1.61-1.64l0,0c0.54-0.54,1.09-1.07,1.65-1.6h0c0.56-0.52,1.12-1.04,1.68-1.55
		v0c0.57-0.51,1.14-1.01,1.72-1.5l0,0c0.58-0.49,1.16-0.98,1.75-1.45l0,0c0.59-0.47,1.18-0.94,1.78-1.4v0
		c0.6-0.46,1.21-0.91,1.82-1.35l0,0c0.61-0.44,1.23-0.87,1.85-1.29c0.62-0.42,1.25-0.84,1.88-1.24c0.63-0.4,1.27-0.8,1.91-1.19h0
		c0.64-0.39,1.29-0.76,1.94-1.13h0c0.65-0.37,1.31-0.72,1.97-1.07l0,0c0.66-0.35,1.33-0.69,2.01-1.02h0
		c0.67-0.33,1.35-0.65,2.04-0.96v0c0.69-0.31,1.38-0.61,2.07-0.9c0.7-0.29,1.4-0.57,2.1-0.84c0.71-0.27,1.41-0.53,2.13-0.78h0
		c0.71-0.25,1.43-0.49,2.16-0.71c0.72-0.23,1.45-0.44,2.19-0.65c0.74-0.21,1.47-0.4,2.22-0.59c0.74-0.19,1.5-0.36,2.25-0.52
		c0.75-0.16,1.51-0.31,2.28-0.45c0.76-0.14,1.53-0.27,2.3-0.39c0.77-0.12,1.55-0.23,2.34-0.32c0.78-0.09,1.57-0.18,2.36-0.25
		c0.79-0.07,1.59-0.13,2.39-0.18c0.8-0.05,1.61-0.08,2.42-0.11c0.81-0.02,1.62-0.04,2.44-0.04c52.4,0,78.72,47.98,90.49,107.61
		c3.47,17.6,6.89,35.05,10.64,52.46c1.49,6.92,10.45,20.88,17.94,20.88H916.1c8.39,0,10.69-4.18,9.06-13.05l-0.01-0.04l-0.08-0.39
		l-0.01-0.03l-0.17-0.91l-0.17-0.88l-0.01-0.03l-0.16-0.88l0-0.03l-0.16-0.88l0-0.03l-0.16-0.88l0-0.03l-0.15-0.88l0-0.03
		l-0.15-0.89l0-0.03l-0.29-1.8l0-0.03l-0.14-0.89l0-0.03l-0.27-1.81l0-0.03l-0.13-0.89l0-0.03l-0.12-0.9l0-0.03l-0.24-1.83l0-0.03
		c-0.27-2.15-0.5-4.31-0.71-6.48v-0.02l-0.09-0.91v-0.02l-0.08-0.91v-0.02l-0.08-0.91v-0.02l-0.08-0.92v-0.02l-0.07-0.92v-0.02
		l-0.07-0.92v-0.02l-0.06-0.92v-0.02l-0.06-0.92v-0.02l-0.05-0.92v-0.02l-0.1-1.86v-0.02l-0.04-0.92v-0.01l-0.04-0.93v-0.01
		l-0.04-0.93v-0.01l-0.06-1.87v-0.01l-0.03-0.93v-0.01l-0.02-0.93v-0.01l-0.03-1.88v-0.01c-0.01-0.94-0.02-1.89-0.02-2.83v-0.94
		l0-0.01l0-0.94l0-0.01l0.01-0.94v-0.01l0.01-0.94v-0.01l0.01-0.94l0-0.01l0.02-0.94v-0.01l0.02-0.94l0-0.01l0.03-0.94l0-0.01
		l0.03-0.94l0,0l0.03-0.94v0l0.04-0.94l0,0l0.04-0.94l0,0l0.04-0.94l0,0l0.05-0.95v0l0.05-0.94v0l0.06-0.95l0,0l0.06-0.95l0.07-0.95
		c0.06-0.9,0.13-1.8,0.21-2.7c0.08-0.9,0.16-1.8,0.26-2.69h0c0.09-0.89,0.19-1.79,0.3-2.68c0.11-0.89,0.22-1.78,0.34-2.66
		c0.12-0.89,0.25-1.77,0.39-2.65c0.13-0.88,0.28-1.75,0.43-2.63c0.15-0.87,0.3-1.74,0.47-2.61h0c0.16-0.87,0.33-1.73,0.51-2.59
		c0.18-0.86,0.36-1.72,0.55-2.57c0.19-0.86,0.39-1.71,0.59-2.55c0.2-0.85,0.42-1.69,0.64-2.53c0.22-0.84,0.44-1.68,0.68-2.51h0
		c0.23-0.83,0.47-1.66,0.72-2.49h0c0.25-0.83,0.5-1.65,0.76-2.47c0.26-0.82,0.53-1.63,0.8-2.44c0.27-0.81,0.55-1.61,0.84-2.41
		c0.29-0.8,0.58-1.59,0.88-2.38c0.3-0.79,0.6-1.58,0.92-2.36h0c0.31-0.78,0.63-1.56,0.95-2.33h0c0.32-0.77,0.66-1.54,0.99-2.3
		c0.34-0.76,0.68-1.52,1.03-2.27c0.35-0.75,0.71-1.5,1.07-2.24c0.36-0.74,0.73-1.48,1.11-2.2c0.38-0.73,0.76-1.45,1.15-2.17h0
		c0.39-0.72,0.78-1.43,1.18-2.13c0.4-0.71,0.81-1.41,1.22-2.1c0.41-0.69,0.83-1.39,1.26-2.07c0.43-0.68,0.86-1.36,1.3-2.03h0
		c0.44-0.67,0.88-1.33,1.33-1.99h0c0.45-0.65,0.9-1.3,1.37-1.95h0c0.46-0.64,0.93-1.28,1.41-1.91c0.47-0.63,0.96-1.25,1.44-1.87
		c0.49-0.61,0.98-1.22,1.48-1.82c0.5-0.6,1-1.19,1.51-1.78c0.51-0.59,1.02-1.17,1.55-1.74h0c0.52-0.57,1.05-1.14,1.58-1.69
		c0.53-0.56,1.07-1.1,1.62-1.64c0.54-0.54,1.09-1.07,1.65-1.6c0.56-0.52,1.12-1.04,1.68-1.55c0.57-0.51,1.14-1.01,1.72-1.5
		c0.58-0.49,1.16-0.98,1.75-1.45c0.59-0.47,1.18-0.94,1.78-1.4c0.6-0.46,1.21-0.91,1.82-1.35c0.61-0.44,1.23-0.87,1.85-1.3
		c0.62-0.42,1.25-0.84,1.88-1.24h0c0.63-0.4,1.27-0.8,1.91-1.19c0.64-0.39,1.29-0.76,1.94-1.13c0.65-0.37,1.31-0.72,1.98-1.07
		c0.66-0.35,1.33-0.69,2.01-1.02c0.67-0.33,1.36-0.65,2.04-0.96c0.69-0.31,1.37-0.61,2.07-0.9c0.7-0.29,1.39-0.57,2.1-0.84
		c0.71-0.27,1.42-0.53,2.13-0.78c0.71-0.25,1.43-0.49,2.16-0.71c0.72-0.23,1.45-0.44,2.19-0.65c0.74-0.21,1.47-0.4,2.22-0.59
		c0.74-0.19,1.49-0.36,2.25-0.52c0.75-0.16,1.51-0.31,2.28-0.45c0.76-0.14,1.53-0.27,2.31-0.39c0.77-0.12,1.55-0.23,2.33-0.32
		c0.78-0.09,1.57-0.18,2.36-0.25c0.79-0.07,1.59-0.13,2.39-0.18c0.8-0.05,1.61-0.08,2.42-0.11c0.81-0.02,1.62-0.04,2.44-0.04
		c52.4,0,78.7,47.96,90.49,107.61c3.48,17.62,6.86,35.04,10.64,52.46c1.5,6.94,10.45,20.88,17.94,20.88h176.05
		c32.53-32.72,45.55-67.73,27.38-106.41c-3.8-8.08-14.83-16.7-27.08-21c-58.56-20.57-122.52-42.45-149.8-69.73
		c-12.26-12.26-35.21-18.9-53.69-18.88L219.67,377.21z"/>
	<path class="st2" d="M1600.41,430.72l-21.94-49.34l-9.35,6.9c-2.98,2.2-4.67,6.12-3.94,10.46l6.87,40.74
		c0.89,5.27,6.44,7.32,10.03,4.68L1600.41,430.72z"/>
	<path class="st0" d="M949.1,312.42H329.02c-3.99,0-6.13-1.75-7.46-5.06l-13.31-33.1c-1.67-4.16-0.84-7.34,1.26-10.61l38.34-59.85
		c2.29-3.58,7.06-7.87,13.14-9.31c125.73-29.88,205.42-39.8,347.69-35.97c41.37,1.11,97.08,10.74,123.02,34.34L953.04,303.2
		C957.47,307.23,955.76,312.42,949.1,312.42z"/>
	<path class="st6" d="M946.83,306.09H688.54c0.19-22.72,1.97-46.15,4.83-69.61h0.01c3-24.64,7.11-48.72,11.76-71.74l3.39,0.09
		c34.66,0.93,92.76,8.88,118.94,32.69L946.83,306.09L946.83,306.09z M657.05,306.09H501.24c1.65-21.4,4.83-43.01,8.82-64.51
		c4.33-23.33,9.84-47.4,15.39-71.02c49.23-5.44,98.28-6.91,147.67-6.41c-4.45,22.56-8.32,45.61-11.11,68.5v0.06
		C659.06,256.97,657.22,281.61,657.05,306.09L657.05,306.09z M469.61,306.09H329.02c-0.23,0-0.85-0.01-1.07-0.12
		c-0.19-0.17-0.43-0.75-0.52-0.97l-13.31-33.1c-0.8-1.99-0.41-3.08,0.71-4.84l38.34-59.85c1.97-3.08,5.74-5.73,9.28-6.57
		c42.91-10.2,85.95-19.38,129.56-25.76c-4.58,19.74-9.06,40.03-12.96,61.03C474.72,259.28,471.29,282.8,469.61,306.09z"/>
	<path class="st1" d="M946.83,306.09H688.54c0.19-22.72,1.97-46.15,4.83-69.61h0.01c0.78-6.43,1.64-12.83,2.57-19.17
		c65.36,3.37,127.02,12.64,182.6,26.68L946.83,306.09L946.83,306.09z M640.7,215.88c-43.88,0-86.47,2.65-127.1,7.64
		c-1.25,6.06-2.43,12.09-3.54,18.07c-3.99,21.49-7.17,43.11-8.82,64.51h155.81c0.17-24.48,2.01-49.12,4.96-73.38v-0.06
		c0.67-5.5,1.4-11,2.19-16.51C656.41,215.98,648.58,215.88,640.7,215.88L640.7,215.88z M480.53,228.17
		c-61.4,9.71-117.64,24.83-166.22,44.21L327.43,305c0.09,0.22,0.34,0.81,0.52,0.97c0.22,0.11,0.84,0.12,1.07,0.12h140.59
		c1.68-23.29,5.11-46.81,9.45-70.19C479.54,233.32,480.04,230.74,480.53,228.17z"/>
	<path class="st2" d="M1174.56,376.35c-6.24-0.26-9.4,6.38-6,10.33l0,0c10.31,12.01,52.71,38.79,102.26,48.09l66.98,12.58
		c7.4,1.39,10.8-5.02,7.3-11.25c-26.64-47.37-53.14-54.9-91.21-56.47L1174.56,376.35z"/>
	<path class="st8" d="M1362.74,395.92c59.82-6.25,118.61-4.58,180.28,3.1c4.95,0.62,8.08,3.56,8.59,7.71l6.84,55.35
		c0.78,6.32-0.48,15.01-7.41,17.21c-43.27,13.73-88.93,12.92-137.18,0c-9.19-2.46-15.6-9.88-20.4-17.21l-36.21-55.35
		C1353.85,401.49,1356.11,396.61,1362.74,395.92z"/>
	<path class="st0" d="M1362.74,395.92c22.17-2.32,44.21-3.55,66.3-3.78c32.22,0.34,64.67,2.74,97.96,6.88
		c4.95,0.62,8.08,3.56,8.59,7.71l6.84,55.35c0.78,6.32-0.48,15.01-7.41,17.21c-18.78,5.96-38.01,9.18-57.7,9.86
		c-20.64-0.7-41.78-4.05-63.45-9.86c-9.19-2.46-15.6-9.88-20.4-17.21l-36.21-55.35C1353.85,401.49,1356.11,396.61,1362.74,395.92z"
		/>
	<path class="st8" d="M1571.74,535.65h-188.14c-5.71,0-10.58,1.87-14.46,5.6l-14.05,13.49c-3.95,3.79-4.16,8.4,0.56,11.14l12.56,7.3
		c5.04,2.92,10.05,3.93,15.08,3.93h191.01c3.26,0,6.13-1.73,7.85-4.36l4.65-7.14c1.89-2.91,1.86-6.24,0.65-9.3l-5.11-12.95
		C1580.52,538.78,1576.89,535.65,1571.74,535.65z"/>
	<path class="st0" d="M1558.65,535.65h-175.05c-5.71,0-10.58,1.87-14.46,5.6l-14.05,13.49c-3.95,3.79-4.16,8.4,0.56,11.14l12.56,7.3
		c4.96,2.88,9.9,3.9,14.84,3.93h0.24h177.92c3.26,0,6.13-1.73,7.85-4.36l4.65-7.14c1.89-2.91,1.86-6.24,0.65-9.3l-5.11-12.95
		C1567.43,538.78,1563.8,535.65,1558.65,535.65z"/>
	<path class="st8" d="M1345.52,535.65h-52.62c-6.06,0-11.3,1.78-15.04,5.41l-13.83,13.45c-4.25,4.13-2.48,9.74,4.1,9.74h52.58
		c5.29,0,9.42-1.7,12.19-4.32l16.42-15.56C1352.15,541.7,1350.94,535.65,1345.52,535.65z"/>
	<path class="st0" d="M1331.58,535.65h-38.69c-6.06,0-11.3,1.78-15.04,5.41l-13.83,13.45c-4.25,4.13-2.48,9.74,4.1,9.74h38.65
		c5.29,0,9.42-1.7,12.19-4.32l16.42-15.56C1338.21,541.7,1337.01,535.65,1331.58,535.65z"/>
	<path class="st0" d="M610.3,345.3h34.33c3.3,0,6,2.7,6,6v0c0,3.3-2.7,6-6,6H610.3c-3.3,0-6-2.7-6-6v0
		C604.3,348,607,345.3,610.3,345.3z"/>
	<path class="st0" d="M278.09,345.3h198.47c3.31,0,6,2.7,6,6v0c0,3.3-2.69,6-6,6H278.09c-3.3,0-6-2.7-6-6v0
		C272.09,348,274.79,345.3,278.09,345.3z"/>
	<path class="st0" d="M700.9,345.3h34.33c3.3,0,6,2.7,6,6v0c0,3.3-2.7,6-6,6H700.9c-3.3,0-6-2.7-6-6v0
		C694.9,348,697.6,345.3,700.9,345.3z"/>
	<path class="st9" d="M224.9,328.49c3.09-7.82,7.68-15.55,14.49-23.13l4.69,42.64l-19.06,37.8
		C211.38,371.56,219.51,347.55,224.9,328.49z"/>
	<path class="st10" d="M1486.27,434.35h-34.9c-4.2,0-7.63,3.43-7.63,7.63v0c0,4.2,3.43,7.64,7.63,7.64h34.9
		c4.2,0,7.63-3.43,7.63-7.64v0C1493.9,437.78,1490.47,434.35,1486.27,434.35z"/>
	<path class="st11" d="M1494.21,434.35h-34.9c-4.2,0-7.63,3.43-7.63,7.63v0c0,4.2,3.43,7.64,7.63,7.64h34.9
		c4.2,0,7.63-3.43,7.63-7.64v0C1501.85,437.78,1498.41,434.35,1494.21,434.35z"/>
	<path class="st12" d="M1295.82,560.86c4.49,0,8.15-4.9,8.15-10.92s-3.66-10.91-8.15-10.91s-8.15,4.9-8.15,10.91
		S1291.33,560.86,1295.82,560.86z"/>
	<path class="st8" d="M1598.31,535.65h-4.71c-3.36,0-5.82,2.87-4.6,6.1l6.22,16.42c1.22,3.23,4.24,6.1,7.59,6.1h2.52
		c3.36,0,5.43-2.74,4.6-6.1l-4.03-16.42C1605.08,538.39,1601.66,535.65,1598.31,535.65z"/>
	<g>
		<linearGradient id="SVGID_1_" gradientUnits="userSpaceOnUse" x1="882.4605" y1="260.9814" x2="880.9999" y2="302.8085">
			<stop  offset="0" style="stop-color:#3D7EC1"/>
			<stop  offset="1" style="stop-color:#2B6DB5"/>
		</linearGradient>
		<path class="st13" d="M843.31,260.81c1.13-3.32,5.44-6.26,10.61-6.63c10.61-0.75,28.2-1.77,34.15,0.76
			c6.19,2.64,31.19,31.64,34.45,41.29c1.84,5.44-0.38,11.21-11.21,11.19l-56.36-0.05c-4.58,0-9.79-1.65-11.27-5.38
			C838.48,288.83,838.63,274.6,843.31,260.81z"/>
		<path class="st14" d="M843.31,260.81c0.23-0.66,0.58-1.33,1.05-1.98l6.97-0.33c6.27-0.3,7.11,3.47,7.95,8.07l4.85,26.53
			c0.84,4.6-3.61,8.62-9.88,8.92l-10.32,0.49c-0.08-0.17-0.16-0.34-0.23-0.51C838.48,288.83,838.63,274.6,843.31,260.81z"/>
	</g>
	<path class="st11" d="M1598.32,540.03c1.72,0,4.18,4.44,5.5,9.93c1.32,5.48,0.99,9.92-0.73,9.92c-1.72,0-4.18-4.44-5.5-9.92
		C1596.27,544.47,1596.6,540.03,1598.32,540.03z"/>
</g>
</svg>
