<?xml version="1.0" encoding="utf-8"?>
<!-- Generator: Adobe Illustrator 25.1.0, SVG Export Plug-In . SVG Version: 6.00 Build 0)  -->
<svg version="1.1" id="Layer_1" xmlns="http://www.w3.org/2000/svg" xmlns:xlink="http://www.w3.org/1999/xlink" x="0px" y="0px"
	 viewBox="0 0 1291.64 511.65" style="enable-background:new 0 0 1291.64 511.65;" xml:space="preserve">
<style type="text/css">
	.st0{fill-rule:evenodd;clip-rule:evenodd;fill:#0F0F0F;}
	.st1{fill-rule:evenodd;clip-rule:evenodd;fill:#1A1A1A;}
	.st2{fill-rule:evenodd;clip-rule:evenodd;fill:#FFFFFF;}
	.st3{fill-rule:evenodd;clip-rule:evenodd;fill:#989898;}
	.st4{fill-rule:evenodd;clip-rule:evenodd;fill:#CBCBCB;}
	.st5{fill-rule:evenodd;clip-rule:evenodd;fill:#B2B2B2;}
	.st6{fill-rule:evenodd;clip-rule:evenodd;fill:#4D4D4D;}
	.st7{fill-rule:evenodd;clip-rule:evenodd;fill:#666666;}
	.st8{fill-rule:evenodd;clip-rule:evenodd;fill:#E0E1E2;}
	.st9{fill-rule:evenodd;clip-rule:evenodd;fill:#CCCCCC;}
	.st10{fill-rule:evenodd;clip-rule:evenodd;fill:#FCFCFC;}
	.st11{fill-rule:evenodd;clip-rule:evenodd;fill:#B3B6BA;}
	.st12{fill-rule:evenodd;clip-rule:evenodd;fill:#F5F6F7;}
	.st13{fill-rule:evenodd;clip-rule:evenodd;fill:#C81717;}
	.st14{fill-rule:evenodd;clip-rule:evenodd;fill:#DAE3EA;}
	.st15{fill-rule:evenodd;clip-rule:evenodd;fill:#1C1C1C;}
	.st16{fill-rule:evenodd;clip-rule:evenodd;fill:#121212;}
	.st17{fill-rule:evenodd;clip-rule:evenodd;fill:#E5E8EA;}
	.st18{fill-rule:evenodd;clip-rule:evenodd;fill:#226FBF;}
	.st19{fill-rule:evenodd;clip-rule:evenodd;fill:#2E333D;}
</style>
<g id="_x36_">
	<path class="st0" d="M1160.37,458.48H90.93c-3.12,0-5.68,2.55-5.68,5.68l0,0c0,3.12,2.68,5.68,5.68,5.68h1069.44
		c3,0,5.68-2.55,5.68-5.68l0,0C1166.05,461.03,1163.49,458.48,1160.37,458.48L1160.37,458.48z M1221.67,458.48h-23.17
		c-3.12,0-5.68,2.55-5.68,5.68l0,0c0,3.12,2.67,5.68,5.68,5.68h23.17c3.01,0,5.68-2.55,5.68-5.68l0,0
		C1227.34,461.03,1224.79,458.48,1221.67,458.48L1221.67,458.48z M53.89,458.48H28.67c-3.12,0-5.68,2.55-5.68,5.68l0,0
		c0,3.12,2.67,5.68,5.68,5.68h25.22c3,0,5.68-2.55,5.68-5.68l0,0C59.57,461.03,57.02,458.48,53.89,458.48z"/>
	<polygon class="st0" points="852.58,403.38 247.49,403.38 93.15,381.42 68.92,381.45 52.85,328.73 55.44,229.98 852.58,229.98 	"/>
	<path class="st0" d="M530.04,260.91h42.79c36.33,0,65.79,45.44,65.79,101.5c0,56.05-29.46,101.5-65.79,101.5h-42.79
		c-36.33,0-65.79-45.44-65.79-101.5C464.25,306.35,493.7,260.91,530.04,260.91L530.04,260.91z M1058.24,463.9
		c-36.33,0-65.79-45.44-65.79-101.5c0-56.06,29.46-101.5,65.79-101.5h42.79c36.33,0,65.79,45.44,65.79,101.5
		c0,56.05-29.46,101.5-65.79,101.5H1058.24z"/>
	<g>
		<path class="st0" d="M148.78,260.91h42.79c36.33,0,65.79,45.44,65.79,101.5c0,56.05-29.46,101.5-65.79,101.5h-42.79
			C109.21,463.9,107.92,260.91,148.78,260.91z"/>
		<path class="st1" d="M148.78,463.9c36.24,0,65.79-45.6,65.79-101.5c0-55.9-29.56-101.5-65.79-101.5
			c-36.23,0-65.79,45.6-65.79,101.5C82.99,418.31,112.55,463.9,148.78,463.9z"/>
		<ellipse class="st2" cx="148.78" cy="362.4" rx="44.65" ry="68.89"/>
		<path class="st3" d="M148.78,421.49c21.1,0,38.3-26.54,38.3-59.09c0-32.55-17.21-59.09-38.3-59.09c-21.09,0-38.3,26.54-38.3,59.09
			C110.48,394.95,127.69,421.49,148.78,421.49z"/>
		<path class="st1" d="M156.19,304.42c17.61,5.32,30.9,29.26,30.9,57.98c0,28.72-13.29,52.66-30.9,57.98
			c-17.61-5.32-30.9-29.26-30.9-57.98C125.29,333.68,138.58,309.74,156.19,304.42z"/>
		<ellipse class="st4" cx="158.49" cy="362.4" rx="22.22" ry="34.27"/>
		<path class="st2" d="M151.18,421.37c-1.82-0.18-3.6-0.55-5.34-1.11v-41.72l-25.9,12c-1.05-3-1.94-6.15-2.65-9.43l-0.7-3.62
			c-0.55-3.21-0.92-6.54-1.12-9.94l25.57-11.85l-15.4-33.64c1.57-2.59,3.29-4.96,5.14-7.09l1.65-1.8c1.86-1.91,3.84-3.58,5.91-4.97
			l15.29,33.4l14.02-30.63c4.59,4.02,8.59,9.46,11.75,15.93l-13.18,28.8l20.82,9.65c-0.27,8.32-1.65,16.18-3.91,23.25l-21.7-10.05
			v39.65C158.18,419.94,154.75,421.03,151.18,421.37z"/>
		<path class="st5" d="M153.63,370.71c2.96,0,5.38-3.73,5.38-8.3c0-4.57-2.42-8.3-5.38-8.3c-2.96,0-5.38,3.73-5.38,8.3
			C148.25,366.97,150.67,370.71,153.63,370.71z"/>
		<path class="st6" d="M153.63,387.9c2.07,0,3.76-2.6,3.76-5.79c0-3.19-1.68-5.79-3.76-5.79c-2.07,0-3.76,2.61-3.76,5.79
			C149.88,385.3,151.57,387.9,153.63,387.9z"/>
		<path class="st6" d="M160.93,352.02c2.07,0,3.76-2.61,3.76-5.79c0-3.19-1.69-5.79-3.76-5.79c-2.07,0-3.76,2.6-3.76,5.79
			C157.18,349.41,158.86,352.02,160.93,352.02z"/>
		<path class="st6" d="M145.78,352.66c2.07,0,3.76-2.6,3.76-5.79c0-3.19-1.69-5.79-3.76-5.79c-2.07,0-3.76,2.6-3.76,5.79
			C142.02,350.06,143.7,352.66,145.78,352.66z"/>
		<path class="st6" d="M141.36,373.68c2.07,0,3.75-2.61,3.75-5.79c0-3.19-1.68-5.79-3.75-5.79c-2.07,0-3.76,2.6-3.76,5.79
			C137.61,371.08,139.29,373.68,141.36,373.68z"/>
		<path class="st6" d="M165.77,374.38c2.07,0,3.75-2.61,3.75-5.79c0-3.19-1.68-5.79-3.75-5.79c-2.07,0-3.76,2.6-3.76,5.79
			C162.01,371.78,163.7,374.38,165.77,374.38z"/>
		<polygon class="st7" points="153.63,341.61 156.53,335.26 143.99,308.21 138.35,308.21 		"/>
		<polygon class="st7" points="145.84,378.54 145.84,381.16 125.59,390.54 119.94,390.54 		"/>
		<polygon class="st7" points="161.42,420.27 166.57,416.52 166.43,380.86 161.42,378.54 		"/>
		<polygon class="st7" points="166.22,355.7 171.06,357.95 182.16,333.39 179.4,326.9 		"/>
	</g>
	<g>
		<path class="st0" d="M676.98,260.91h42.79c36.33,0,65.79,45.44,65.79,101.5c0,56.05-29.46,101.5-65.79,101.5h-42.79
			C637.41,463.9,636.12,260.91,676.98,260.91z"/>
		<path class="st1" d="M676.98,463.9c36.24,0,65.79-45.6,65.79-101.5c0-55.9-29.56-101.5-65.79-101.5
			c-36.23,0-65.79,45.6-65.79,101.5C611.19,418.31,640.75,463.9,676.98,463.9z"/>
		<path class="st2" d="M676.98,431.29c24.6,0,44.65-30.95,44.65-68.89c0-37.94-20.06-68.89-44.65-68.89
			c-24.6,0-44.65,30.95-44.65,68.89C632.33,400.34,652.39,431.29,676.98,431.29z"/>
		<path class="st3" d="M676.98,421.49c21.1,0,38.3-26.54,38.3-59.09c0-32.55-17.21-59.09-38.3-59.09c-21.09,0-38.3,26.54-38.3,59.09
			C638.68,394.95,655.89,421.49,676.98,421.49z"/>
		<path class="st1" d="M684.39,304.42c17.61,5.32,30.9,29.26,30.9,57.98c0,28.72-13.29,52.66-30.9,57.98
			c-17.61-5.32-30.9-29.26-30.9-57.98C653.49,333.68,666.78,309.74,684.39,304.42z"/>
		<path class="st4" d="M686.69,396.68c12.23,0,22.22-15.4,22.22-34.27c0-18.88-9.98-34.27-22.22-34.27
			c-12.24,0-22.22,15.39-22.22,34.27C664.47,381.28,674.45,396.68,686.69,396.68z"/>
		<path class="st2" d="M679.39,421.37c-1.82-0.18-3.6-0.55-5.34-1.11v-41.72l-25.9,12c-1.05-3-1.94-6.15-2.65-9.43l-0.7-3.62
			c-0.55-3.21-0.92-6.54-1.12-9.94l25.57-11.85l-15.4-33.64c1.57-2.59,3.29-4.96,5.14-7.09l1.65-1.8c1.86-1.91,3.84-3.58,5.91-4.97
			l15.29,33.4l14.02-30.63c4.59,4.02,8.59,9.46,11.75,15.93l-13.18,28.8l20.82,9.65c-0.26,8.32-1.65,16.18-3.91,23.25l-21.7-10.05
			v39.65C686.39,419.94,682.95,421.03,679.39,421.37z"/>
		<ellipse class="st5" cx="681.84" cy="362.4" rx="5.38" ry="8.3"/>
		<ellipse class="st6" cx="681.84" cy="382.11" rx="3.76" ry="5.79"/>
		<path class="st6" d="M689.14,352.02c2.07,0,3.76-2.61,3.76-5.79c0-3.19-1.69-5.79-3.76-5.79c-2.07,0-3.76,2.6-3.76,5.79
			C685.38,349.41,687.07,352.02,689.14,352.02z"/>
		<path class="st6" d="M673.98,352.66c2.07,0,3.76-2.6,3.76-5.79c0-3.19-1.69-5.79-3.76-5.79c-2.07,0-3.76,2.6-3.76,5.79
			C670.22,350.06,671.91,352.66,673.98,352.66z"/>
		<path class="st6" d="M669.57,373.68c2.07,0,3.75-2.61,3.75-5.79c0-3.19-1.69-5.79-3.75-5.79c-2.07,0-3.76,2.6-3.76,5.79
			C665.81,371.08,667.49,373.68,669.57,373.68z"/>
		<path class="st6" d="M693.97,374.38c2.07,0,3.75-2.61,3.75-5.79c0-3.19-1.69-5.79-3.75-5.79c-2.07,0-3.76,2.6-3.76,5.79
			C690.22,371.78,691.9,374.38,693.97,374.38z"/>
		<polygon class="st7" points="681.84,341.61 684.74,335.26 672.2,308.21 666.55,308.21 		"/>
		<polygon class="st7" points="674.05,378.54 674.05,381.16 653.8,390.54 648.15,390.54 		"/>
		<polygon class="st7" points="689.63,420.27 694.78,416.52 694.63,380.86 689.63,378.54 		"/>
		<polygon class="st7" points="694.42,355.7 699.26,357.95 710.36,333.39 707.6,326.9 		"/>
	</g>
	<path class="st8" d="M64.41,158.51c23.15-6.91,47.35-12.25,72.32-16.39c39.45-26.67,76.94-56.49,118.35-80.01
		c20.99-11.92,43.94-21.48,67.7-25.68c85.53-15.15,164.25-17.33,243.65-15.81c77.58,1.49,171.98,7.46,227.31,24.86
		c80.76,25.41,143.63,70.04,203.87,113.34c66.84,10.82,132.09,30.87,181.93,56.18c1.69,0.86,3.19,2.71,3.91,4.28l14.94,32.9
		l8.77,8.67c2.87,2.84,4.07,6.09,4.43,9.38l3.81,35.52c2.26,2.77,4.51,5.54,6.77,8.3c1.01,1.22,1.65,2.73,1.77,4.7l-0.98,14.68
		c-0.31,4.65-3.12,11.37-8.32,11.37h-4.11l-0.79,28.4c3.94,0,6.16,2.67,6.15,6.35l-0.02,17.62c0,3.84-2.03,6.23-6.18,6.23H775.05
		c-13.56-1.82-11.73-27.79-17.78-63.19c-7.91-46.35-36.05-93.65-80.61-93.65c-53.68,0-78.33,69.14-78.33,113.9
		c0,12.94,1.89,25.33,5.34,36.72c1.1,3.65-0.89,6.22-3.73,6.22H247.49c-13.56-1.82-11.73-27.79-17.78-63.19
		c-7.91-46.35-36.05-93.65-80.62-93.65c-53.68,0-78.33,69.14-78.33,113.9c0,5.32,0.32,10.53,0.94,15.63
		c0.62,5.11-1.35,5.84-3.64,5.22l-17.66-4.77c-3.88-1.05-6.37-2.68-9.09-5.54l-7.92-8.32c-2.07-2.18-4.01-5.85-4.02-11.2
		l-0.03-20.62l-6.16-20.66c-1.25-4.2-1.87-8.59-2.24-13.21l-0.91-11.42c-0.39-4.89,0.81-9.05,2.4-12.65l6.78-15.25l4.44-26.16
		l-2.96-4.87c-1.15-1.89-1.82-4.06-1.22-6.37l6.09-23.36c0.41-1.6,1.59-2.56,3.04-3.36l6.21-3.41c3.23-9.63,7.62-19.08,14.41-28.17
		C60.39,160.42,62.46,159.09,64.41,158.51z"/>
	<path class="st9" d="M64.41,158.51c23.15-6.91,47.35-12.25,72.32-16.39c39.45-26.67,76.94-56.49,118.35-80.01
		c20.99-11.92,43.94-21.48,67.7-25.68c85.53-15.15,164.25-17.33,243.65-15.81c77.58,1.49,171.98,7.46,227.31,24.86
		c80.76,25.41,143.63,70.04,203.87,113.34c32.88,5.32,65.37,12.88,95.83,22.2H48.3c2.79-6.48,6.31-12.85,10.94-19.06
		C60.39,160.42,62.46,159.09,64.41,158.51z"/>
	<path class="st10" d="M1197.83,250.97l0.55,1.21l8.77,8.67c2.87,2.84,4.07,6.09,4.43,9.38l3.81,35.52c2.26,2.77,4.51,5.54,6.77,8.3
		c1.01,1.22,1.65,2.73,1.77,4.7l-0.98,14.68c-0.31,4.65-3.12,11.37-8.32,11.37h-4.11l-0.79,28.4c3.94,0,6.16,2.67,6.15,6.35
		l-0.02,17.62c0,3.83-2.03,6.23-6.18,6.23H801.81c71.69-54.18,45.39-129.01,0.33-163.13c-34.42-26.06,44.56-21.27,138.16-10.55
		C1038.42,240.94,1153.22,258.62,1197.83,250.97z"/>
	<path class="st11" d="M255.11,403.38h-7.62c-13.56-1.82-11.73-27.78-17.78-63.19c-7.92-46.35-36.05-93.65-80.62-93.65
		c-53.68,0-78.33,69.14-78.33,113.9c0,5.32,0.32,10.53,0.94,15.63c0.62,5.11-1.35,5.84-3.64,5.22l-10.86-2.93
		c-0.88-6.47-1.35-13.12-1.35-19.91c0-59.32,33.67-128.47,94.52-128.47c60.85,0,86.12,53.36,95.04,105.64
		C251.04,368.54,247.84,394.23,255.11,403.38z"/>
	<path class="st11" d="M783.14,403.38h-8.09c-13.56-1.82-11.73-27.78-17.78-63.19c-7.92-46.35-36.05-93.65-80.61-93.65
		c-53.68,0-78.33,69.14-78.33,113.9c0,12.94,1.89,25.33,5.34,36.72c1.1,3.65-0.89,6.22-3.73,6.22h-9.82
		c0.23-1.01,0.19-2.19-0.21-3.5c-3.88-12.86-6.02-26.83-6.02-41.43c0-59.32,33.67-128.47,94.52-128.47
		c60.85,0,86.12,53.36,95.04,105.64C779.07,368.54,775.87,394.23,783.14,403.38z"/>
	<path class="st12" d="M64.41,158.51c23.15-6.91,47.35-12.25,72.32-16.39l61.53,17.38h421l36.47-1.14l-22.13-8.56l-12.18-11.56
		L550.2,62.88c-6.92-6.92-16.17-16.32-37.52-22.16c-40.15-10.99-122.05-10.06-213.64,1.68l0,0c7.79-2.52,15.72-4.55,23.73-5.97
		c85.53-15.15,164.25-17.33,243.65-15.81l3.65,0.07v0l3.67,0.08v0c60.16,1.36,129.16,5.47,181.9,15.46v0
		c2.15,0.41,4.28,0.82,6.38,1.25v0l3.12,0.65v0l3.08,0.66v0l3.03,0.68v0l2.99,0.69v0l2.94,0.71c0.97,0.24,1.93,0.48,2.89,0.73
		l2.84,0.74l2.79,0.76l2.73,0.77c0.9,0.26,1.8,0.52,2.68,0.79c0.88,0.27,1.76,0.53,2.62,0.81
		c80.76,25.41,143.63,70.04,203.87,113.34c23.45,4.11,46.52,8.93,69.05,14.75c41.6,11.03,80.79,25.41,113.03,41.52l0.08,0.04
		l0.03,0.02l0.03,0.02l0.02,0.01l0.01,0.01l0.03,0.02l0.03,0.02l0,0l0.02,0.01l0.03,0.02l0.02,0.01l0.01,0.01l0.03,0.02l0.03,0.02
		l0.01,0.01l0.02,0.01l0.03,0.02l0.03,0.02l0,0l0.03,0.02l0.03,0.02l0.01,0.01l0.02,0.01l0.03,0.02l0.03,0.02l0.03,0.02l0.03,0.02
		l0.02,0.01l0.01,0.01l0.03,0.02l0.03,0.02l0,0l0.02,0.02l0.03,0.02l0.02,0.01l0.01,0.01l0.03,0.02l0.03,0.02l0.01,0.01l0.02,0.02
		l0.03,0.02l0.02,0.02l0,0l0.03,0.02l0.03,0.02l0.01,0.01l0.02,0.01l0.03,0.02l0.03,0.02l0.03,0.02l0.03,0.02l0.01,0.01l0.01,0.01
		l0.03,0.02l0.03,0.02l0,0l0.02,0.02l0.03,0.02l0.02,0.02l0.01,0.01l0.03,0.02l0.03,0.03l0.01,0.01l0.02,0.02l0.03,0.02l0.02,0.02
		l0.01,0l0.03,0.03l0.03,0.02l0.01,0.01l0.02,0.02l0.03,0.02l0.03,0.03l0.03,0.03l0.03,0.02l0.01,0.01l0.01,0.01l0.03,0.03
		l0.03,0.03l0,0l0.02,0.02l0.02,0.03l0.02,0.02l0.01,0.01l0.02,0.03l0.03,0.03l-8.13,10.98l-17.65,0.03l-260.45,2.55L790.4,216.8
		c-28.45-12.5-132.3-32.84-186.21-32.29l-559.36,5.63c3.23-9.63,7.62-19.08,14.41-28.17l0.11-0.14l0.06-0.07l0.05-0.06l0.01-0.01
		l0.06-0.07l0.01,0l0.06-0.07l0.02-0.02l0.16-0.17l0.01-0.01l0.07-0.07l0.01,0l0.06-0.06l0.02-0.02l0.05-0.05l0.07-0.07l0.04-0.03
		l0.03-0.03l0,0l0.04-0.03l0.03-0.03l0.01-0.01l0.04-0.03l0.02-0.02l0.01-0.01l0.04-0.03l0.02-0.02l0.02-0.01l0.04-0.03l0.02-0.02
		l0.02-0.02l0.04-0.03l0.01-0.01l0.02-0.02l0.04-0.03l0.01-0.01l0.03-0.02l0.04-0.03l0.01,0l0.03-0.03l0.04-0.03l0,0l0.04-0.03
		l0.04-0.03v0l0.04-0.03l0.04-0.03l0.01,0l0.04-0.03l0.03-0.02l0.01-0.01l0.04-0.03l0.03-0.02l0.01-0.01l0.04-0.03l0.02-0.02
		l0.02-0.01l0.04-0.03l0.02-0.01l0.02-0.02l0.04-0.03l0.02-0.01l0.03-0.02l0.05-0.03l0.01-0.01l0.03-0.02l0.04-0.03l0.01,0
		l0.04-0.03l0.04-0.03l0,0l0.04-0.03l0.04-0.03l0,0l0.04-0.03l0.04-0.02l0.01,0l0.05-0.03l0.03-0.02l0.01-0.01l0.05-0.03l0.03-0.02
		l0.02-0.01l0.04-0.03l0.02-0.01l0.02-0.01l0.05-0.03l0.02-0.01l0.03-0.02l0.04-0.03l0.02-0.01l0.03-0.02l0.05-0.03l0.01-0.01
		l0.04-0.02l0.05-0.03l0,0l0.04-0.02l0.09-0.05l0.04-0.02l0,0l0.05-0.03l0.04-0.02l0.01-0.01l0.05-0.02l0.03-0.02l0.01-0.01
		l0.05-0.02l0.03-0.01l0.02-0.01l0.05-0.02l0.02-0.01l0.08-0.04l0.01-0.01l0.09-0.04v0l0.02-0.01l0.02-0.01L63.1,159l0.02-0.01
		c0.34-0.15,0.7-0.29,1.07-0.42l0.02-0.01l0.02-0.01l0,0l0.09-0.03L64.41,158.51z"/>
	<path class="st13" d="M33.66,231.49l-2.95-4.87c-1.13-1.86-1.81-3.99-1.24-6.26l6.12-23.47c0.44-1.57,1.41-2.64,2.9-3.3l6.35-3.47
		l19.21-0.29c3.72-0.06,5.03,3.6,2.52,6.45l-29.99,34.04C35.87,231.13,34.75,231.56,33.66,231.49z"/>
	<path class="st14" d="M1198.38,252.18l8.77,8.67l0.13,0.13l0.06,0.06l0.06,0.06l0.01,0.01l0.05,0.05l0.06,0.06l0.02,0.02l0.04,0.04
		l0.06,0.06l0.03,0.03l0.03,0.03l0.06,0.06l0.04,0.04l0.02,0.02l0.06,0.06l0.05,0.05l0.01,0.01l0.06,0.06l0.05,0.06v0l0.06,0.06
		l0.05,0.06l0.01,0.01l0.04,0.06l0.05,0.06l0.02,0.02l0.03,0.04l0.05,0.06l0.03,0.03l0.02,0.03l0.05,0.06l0.03,0.04l0.02,0.02
		l0.05,0.06l0.04,0.05l0.01,0.01l0.05,0.07l0.05,0.06h0l0.05,0.07l0.05,0.06l0.01,0.01l0.04,0.06l0.05,0.07l0.01,0.02l0.03,0.05
		l0.05,0.06l0.02,0.03l0.02,0.03l0.05,0.07l0.03,0.04l0.02,0.02l0.04,0.07l0.04,0.05l0.01,0.01l0.04,0.07l0.04,0.06l0,0l0.04,0.07
		l0.04,0.07l0,0.01l0.04,0.06l0.04,0.07l0.01,0.02l0.03,0.05l0.04,0.07l0.02,0.03l0.02,0.04l0.04,0.07l0.02,0.04l0.02,0.02
		l0.04,0.07l0.03,0.05l0.01,0.01l0.04,0.07l0.11,0.21l0.03,0.06l0.03,0.07l0.01,0.02l0.02,0.05l0.04,0.07l0.01,0.03l0.02,0.04
		l0.03,0.07l0.02,0.04l0.01,0.03l0.03,0.07l0.02,0.05l0.01,0.02l0.03,0.07l-24.3,23.47c-3.97,3.84-8.86,6.39-15.05,6.41l-220.2,0.78
		c-7.87,0.03-15.43-1.39-22.66-3.73l-117.79-42.13l131.38,23.25c12.14,2.14,11.26,1.28,25.32,1.28h187.45
		c8.16,0.18,19.9-1.03,25.34-4.48L1198.38,252.18L1198.38,252.18z M1215.39,305.74l0.11,0.13l0.11,0.13l0.11,0.13l0.11,0.13
		l0.11,0.13l0.11,0.13l0.11,0.13l0.11,0.13l0.11,0.13l0.11,0.13l0.11,0.13l0.11,0.13l0.11,0.13l0.11,0.13l0.11,0.13l0.11,0.13
		l0.11,0.13l0.11,0.13l0.11,0.13l0.11,0.13l0.1,0.13l0.11,0.13l0.1,0.13l0.11,0.13l0.1,0.13l0.11,0.13l0.1,0.13l0.11,0.13l0.1,0.13
		l0.11,0.13l0.1,0.13l0.11,0.13l0.1,0.13l0.1,0.13l0.11,0.13l0.11,0.13l0.11,0.13l0.11,0.13l0.11,0.13l0.11,0.13l0.11,0.13
		l0.11,0.13l0.11,0.13l0.11,0.13l0.11,0.13l0.11,0.13l0.11,0.13l0.11,0.13l0.11,0.13l0.11,0.13l0.11,0.13l0.11,0.13l0.11,0.13
		l0.11,0.13l0.11,0.13l0.11,0.13l0.11,0.13l0.1,0.13l0.11,0.13l0.1,0.13l0.11,0.13l0.1,0.13l0.11,0.13l0.1,0.13l0.05,0.06l0.05,0.06
		l0.04,0.06c0.47,0.6,0.86,1.28,1.14,2.05l-33.67,17.07L1215.39,305.74z"/>
	<path class="st0" d="M1210.52,355.06l-0.79,28.4c-4.91,0-9.83,0.03-14.74,0c-1.95-0.01-3.79-1.11-4.01-3.52l-1.95-20.75
		c-0.26-2.8,1.42-4.12,3.58-4.12H1210.52z"/>
	<path class="st15" d="M1157.1,227.59H950.3c-2.43,0-4.3,2.78-2.65,5.31l23.42,36.02c1.78,2.91,6.12,5.55,10.4,5.55h129.95h49.06
		c1.58,0,3.42-1.93,3.28-3.57l-3.42-40.2C1160.17,228.74,1158.85,227.59,1157.1,227.59z"/>
	<path class="st16" d="M1146.03,227.59H950.3c-2.43,0-4.3,2.78-2.65,5.31l23.42,36.02c1.78,2.91,6.12,5.55,10.4,5.55h118.8h11.15
		h37.92c1.58,0,3.42-1.93,3.28-3.57l-3.42-40.2C1149.03,228.77,1147.75,227.63,1146.03,227.59z"/>
	<path class="st15" d="M1168.75,348.9H968.14c-4.1,0-8.96,2.31-11.17,4.6l-27.32,28.36c-2.04,2.12-0.8,5.7,2.62,5.7l242.55,0.01
		c2.53,0,4.06-2.02,3.71-4.22l-4.97-30.91C1173.26,350.63,1171.48,348.9,1168.75,348.9z"/>
	<path class="st0" d="M1157.2,348.9H968.14c-4.1,0-8.96,2.31-11.17,4.6l-27.32,28.36c-2.04,2.12-0.8,5.7,2.62,5.7l231,0.01l0.12,0
		c2.46-0.06,3.94-2.05,3.59-4.22l-4.97-30.91C1161.71,350.63,1159.93,348.9,1157.2,348.9z"/>
	<path class="st15" d="M915.87,355.06h-41.19c-4.56,0-8.48,1.98-11.29,5.09l-15.46,17.1c-2.23,2.47-1.04,6.2,2.73,6.2h39.06
		c4.66,0,9.53-2.28,11.65-4.54l17.05-18.16C920.66,358.35,919.47,355.06,915.87,355.06z"/>
	<path class="st0" d="M904.32,355.06h-29.64c-4.56,0-8.48,1.98-11.29,5.09l-15.46,17.1c-2.23,2.47-1.04,6.2,2.73,6.2h27.5
		c4.66,0,9.53-2.28,11.65-4.54l17.05-18.16C909.11,358.35,907.92,355.06,904.32,355.06z"/>
	<path class="st2" d="M1181.58,216.59c0.8,0.84,1.45,1.81,1.85,2.7c6.34,10.22,11.09,21.32,14.94,32.9l-17.59,17.22
		c-2.62,1.89-5.14,0.55-5.42-2.39l-3.52-36.9c-0.24-2.49,1.14-3.9,3.1-6.1L1181.58,216.59z"/>
	<path class="st17" d="M576.39,387.64l-324.26-12.16l31,16.88c4.02,2.19,8.83,3.47,13.62,3.47h279.63
		C582.12,395.83,582.59,387.87,576.39,387.64z"/>
	<path class="st0" d="M1089.16,245.03h-26.08c-3.31,0-6.01,2.7-6.01,6.01v0c0,3.31,2.7,6.01,6.01,6.01h26.08
		c3.31,0,6.01-2.7,6.01-6.01v0C1095.16,247.73,1092.46,245.03,1089.16,245.03z"/>
	<path class="st4" d="M1095.19,245.03h-26.08c-3.31,0-6.01,2.7-6.01,6.01v0c0,3.31,2.7,6.01,6.01,6.01h26.08
		c3.31,0,6.01-2.7,6.01-6.01v0C1101.2,247.73,1098.5,245.03,1095.19,245.03z"/>
	<path class="st1" d="M407.28,198.36H379.1c-3.39,0-6.16,2.77-6.16,6.16l0,0c0,3.39,2.77,6.17,6.16,6.17h28.18
		c3.39,0,6.16-2.77,6.16-6.17l0,0C413.44,201.13,410.67,198.36,407.28,198.36z"/>
	<path class="st1" d="M232.96,198.36h-28.18c-3.39,0-6.17,2.77-6.17,6.16l0,0c0,3.39,2.78,6.17,6.17,6.17h28.18
		c3.39,0,6.17-2.77,6.17-6.17l0,0C239.13,201.13,236.36,198.36,232.96,198.36z"/>
	<polygon class="st15" points="1169.27,363.31 947.51,363.31 938.02,373.16 1169.27,373.16 	"/>
	<polygon class="st15" points="908.31,363.31 860.53,363.31 851.04,373.16 900.41,373.16 	"/>
	<path class="st15" d="M1210.02,363.31h-20.56l0.89,9.85h19.67C1215.15,373.16,1215.26,363.31,1210.02,363.31z"/>
	<path class="st17" d="M248.2,280.57l36.83,43.71c20.96,19.41,48.7,30.36,82.4,33.88l187.08,12.76
		c25.35,2.31-1.79-14.48-65.52-23.83c-84.53-12.4-150.67-26.36-200.87-58.19C254.18,266.57,232.77,263.58,248.2,280.57z"/>
	<path class="st2" d="M794.06,213.7l120.53,13.35c3.08,0.34,5.66,2.16,6.91,4.14l23.07,36.8c1.69,2.7-0.59,5.66-3.21,5.19
		l-131.14-23.23c-2.27-0.5-4.73-2.12-5.87-4.53l-13.61-26.88C789.62,216.34,791.33,213.4,794.06,213.7z"/>
	<path class="st17" d="M530.64,111.75h35.6c21.05,0,21.05,42.93,0,42.93h-35.6c-8.33,0-15.14-6.81-15.14-15.14v-12.66
		C515.5,118.57,522.31,111.75,530.64,111.75z"/>
	<path class="st17" d="M572.83,133.9l21.11,5.93c4.89,1.37,7.33,5.4,6.58,11.2c-0.69,5.35-6.42,9-16.14,6.56l-13.88-3.48
		c-3-0.76-6.41-2.64-5.63-5.63l2.33-8.94C567.97,136.54,569.85,133.06,572.83,133.9z"/>
	<path class="st18" d="M522.42,119.97L522.42,119.97c3.8,0,6.92,3.12,6.92,6.92v16.24c0,3.13,1.88,4.8,4.88,4.8h32.98
		c6.33,0,6.34,6.75,0,6.75h-36.56c-9.17,0-15.14-6.95-15.14-15.59v-12.2C515.5,123.08,518.61,119.97,522.42,119.97z"/>
	<g>
		<g>
			<path class="st16" d="M788,44c1.64,0.41,3.29,0.82,4.93,1.44c80.77,25.52,143.65,70.17,203.87,113.38H703.33
				c-25.89,0-51.58-5.76-67.2-22.22l-83.85-87.25c-2.26-2.47-1.44-5.35,2.47-5.35H788z"/>
			<path class="st19" d="M984.68,152.64H703.33c-21.37,0-47.27-4.12-62.89-20.17l-78.92-82.31h239.22
				C869.59,73.22,926.31,110.87,984.68,152.64L984.68,152.64z"/>
			<path class="st1" d="M968.85,152.64H703.33c-21.37,0-47.27-4.12-62.89-20.17l-34.73-36.42
				C722.44,83.71,860.34,107.99,968.85,152.64L968.85,152.64z"/>
		</g>
		<g>
			<path class="st16" d="M613.7,159.5H198.21l-15.21-4.31c-2.47,0-3.08-2.67-2.26-4.11c16.64-24.44,91.64-84.21,123.49-92.43
				c39.86-10.27,82.6-13.97,123.08-15.2c27.33-0.82,64.73,0.82,92.06,13.14c25.07,11.5,66.78,59.97,96.58,98.59
				C617.4,157.03,616.37,159.5,613.7,159.5L613.7,159.5z"/>
			<path class="st19" d="M606.51,153.34H408.83l0.21-1.64v-0.41l0.21-1.44l0.41-1.64l0.21-1.23v-0.41l0.21-1.64v-0.21l0.41-1.44
				v-0.62l0.21-1.03v-0.21l0.21-1.44l0.41-1.44v-0.21l0.21-1.64v-0.41l0.41-1.23v-0.82l0.21-0.82l0.21-1.23l0.21-0.41l0.21-1.64l0,0
				l0.41-1.64v-0.41l0.21-1.23l0.21-1.03l0.21-0.62l0.21-1.44v-0.21l0.82-3.29v-0.62l0.21-1.03l0,0l0.41-1.64l0.41-1.44l0,0
				l0.21-1.64l0.21-0.41l0.21-1.23l0.21-0.82l0.21-0.82l0.21-1.23l0.21-0.41l0.41-1.64l0,0l0.21-1.44l0.41-1.64l0.21-1.03l0.21-0.62
				l0.41-1.44v-0.21l0.41-1.64v-0.21l0.41-1.23l0.21-0.82l0.21-0.82l0.21-1.23l0.21-0.41l0.41-1.64l0,0l0.82-3.08l0.21-1.03
				l0.21-0.62L422.6,87l0.21-0.41l0.41-1.64l0,0l0.41-1.64l0.21-0.41l0.21-1.03l0.21-1.03l0.21-0.62l0.41-1.44v-0.21l0.41-1.64
				l0.21-0.21l0.41-1.44l0.21-0.62l0.21-0.82l0.21-1.23l0.21-0.41l0.41-1.64l0,0l0.41-1.64l0.21-0.41l0.41-1.23l0.21-0.82l0.21-0.82
				l0.41-1.23V64.2l0.62-1.64v-0.21l0.41-1.44l0.21-0.62l0.21-1.03l0.41-1.03l0.21-0.62l0.41-1.64l0,0l0.41-1.64l0.21-0.41
				l0.41-1.23l0.21-0.82l0.21-0.82l0.41-1.23l0.21-0.41c26.92-0.41,59.38,1.85,83.22,12.94C542.6,74.06,584.93,125.4,606.51,153.34
				L606.51,153.34z M379.86,153.34H242.6c11.51-27.93,25.07-52.79,40.89-78.66c8.84-4.93,16.44-8.42,22.19-10.06
				c31.64-8.01,64.93-12.12,97.81-13.97C393.22,84.94,385,117.6,379.86,153.34L379.86,153.34z M231.09,153.34h-32.06l-10.07-2.88
				c13.36-16.84,45.41-43.75,74.18-63.05c-4.32,7.39-8.42,14.99-12.33,22.39C243.42,124.17,236.84,138.75,231.09,153.34
				L231.09,153.34z"/>
			<path class="st1" d="M606.51,153.34H408.83l0.21-1.64v-0.41l0.21-1.44l0.41-1.64l0.21-1.23v-0.41l0.21-1.64v-0.21l0.41-1.44
				v-0.62l0.21-1.03v-0.21l0.21-1.44l0.41-1.44v-0.21l0.21-1.64v-0.41l0.41-1.23v-0.82l0.21-0.82l0.21-1.23l0.21-0.41l0.21-1.64l0,0
				l0.41-1.64v-0.41l0.21-1.23l0.21-1.03l0.21-0.62l0.21-1.44v-0.21l0.82-3.29v-0.62l0.21-1.03l0,0l0.41-1.64l0.41-1.44l0,0
				l0.21-1.64l0.21-0.41l0.21-1.23l0.21-0.82l0.21-0.82l0.21-1.23l0.21-0.41l0.41-1.64l0,0l0.21-1.44l0.41-1.64l0.21-1.03l0.21-0.62
				l0.21-1.03c3.29,0,6.58,0,9.86,0c49.93,0.62,98.22,3.9,143.22,10.06C585.34,126.43,597.67,141.83,606.51,153.34L606.51,153.34z
				 M389.52,101.99c-44.59,1.03-87.33,4.52-127.4,10.06c-6.99,13.35-13.56,26.91-19.52,41.28h137.26
				C382.32,135.67,385.61,118.63,389.52,101.99L389.52,101.99z M248.76,113.9c-9.04,1.44-17.88,2.88-26.51,4.31
				c-14.18,11.91-26.3,23.41-33.29,32.25l10.07,2.88h32.06C236.23,139.99,242.19,127.05,248.76,113.9L248.76,113.9z"/>
		</g>
	</g>
</g>
</svg>
