<svg xmlns="http://www.w3.org/2000/svg" viewBox="0 0 32 32" id="invoice">
  <g>
    <path fill="#171938" d="M24,30H8a3,3,0,0,1-3-3V5A3,3,0,0,1,8,2H24a3,3,0,0,1,3,3V27A3,3,0,0,1,24,30ZM8,4A1,1,0,0,0,7,5V27a1,1,0,0,0,1,1H24a1,1,0,0,0,1-1V5a1,1,0,0,0-1-1Z"></path>
    <path fill="#4c46c8" d="M11 22H21a1 1 0 000-2H11a1 1 0 000 2zM21 24H11a1 1 0 000 2H21a1 1 0 000-2zM15 13h.25v2H14a1 1 0 000 2h1.25a.75.75 0 001.5 0H17a3 3 0 000-6h-.25V9H18a1 1 0 000-2H16.75a.75.75 0 00-1.5 0H15a3 3 0 000 6zm2 0a1 1 0 010 2h-.25V13zM15 9h.25v2H15a1 1 0 010-2z"></path>
  </g>
</svg>
