<?xml version="1.0" encoding="utf-8"?>
<!-- Generator: Adobe Illustrator 24.0.0, SVG Export Plug-In . SVG Version: 6.00 Build 0)  -->
<svg version="1.1" id="Layer_1" xmlns="http://www.w3.org/2000/svg" xmlns:xlink="http://www.w3.org/1999/xlink" x="0px" y="0px"
	 viewBox="0 0 256 256" enable-background="new 0 0 256 256" xml:space="preserve">
<g>
	<g>
		<g>
			<g>
				<g>
					<g>
						<path fill="#1CADE3" d="M142.091,130.302l-58.586-5.03L63.85,186.301c0,0,27.844,21.335,46.563,31.631
							c18.719,10.295,25.949,14.85,30.784,15.084c4.836,0.234,14.489-5.369,21.826-14.226c7.148-8.629,12.726-18.376,12.492-26.409
							L142.091,130.302z"/>
					</g>
					<g>
						<path fill="#FCC4AE" d="M163.022,218.79c-7.337,8.855-16.991,14.459-21.827,14.227c-4.836-0.237-12.063-4.792-30.783-15.087
							c-11.664-6.416-26.869-17.118-36.677-24.271c-5.928-4.327-9.887-7.359-9.887-7.359l19.655-61.027l4.502,0.386l54.085,4.643
							l33.425,62.076C175.748,200.413,170.171,210.159,163.022,218.79z"/>
					</g>
					<g>
						<path fill="#FCC4AE" d="M193.681,185.172c-1.359,0.936-13.045,8.983-14.038,9.672c-10.705-11.885-22.353-23.075-32.012-35.821
							c-1.395-1.356-3.998-2.08-5.805-2.664c-10.459-3.375-22.986-1.673-32.03-8.618c-3.449-2.672-5.806-7.649-3.537-11.853
							c2.754-4.867,9.81-2.311,13.928-2.357c2.809,0.018,5.551-0.175,8.25-0.509c7.815-0.957,15.297-3.089,23.135-4.836
							c7.249-1.609,14.531-3.108,21.831-4.476L193.681,185.172z"/>
					</g>
					<g>
						<path fill="#F2AD97" d="M179.644,184.844c-10.705-11.885-22.353-23.075-32.012-35.821c-1.395-1.356-3.998-2.08-5.806-2.664
							c-10.459-3.375-22.986-1.673-32.03-8.618c-1.035-0.802-1.968-1.814-2.71-2.948c-0.302,0.319-0.586,0.669-0.827,1.095
							c-2.269,4.204,0.088,9.18,3.537,11.853c9.044,6.945,21.571,5.243,32.03,8.618c1.808,0.584,4.41,1.308,5.806,2.664
							c9.659,12.746,21.307,23.936,32.012,35.821c0.993-0.688,12.679-8.735,14.038-9.672l-2.688-8.148
							C187.078,179.72,180.384,184.33,179.644,184.844z"/>
					</g>
					<g>
						<path fill="#F1F2F2" d="M213.758,183.242l-18.358,5.922c-2.473,0.798-5.125-0.56-5.922-3.033l-19.781-61.317
							c-0.798-2.473,0.56-5.125,3.033-5.922l18.358-5.922c2.473-0.798,5.125,0.56,5.922,3.033l19.781,61.317
							C217.589,179.793,216.231,182.444,213.758,183.242z"/>
					</g>
					<g>
						<path fill="#E6E7E8" d="M216.791,177.32l-19.781-61.317c-0.798-2.473-3.449-3.831-5.922-3.033l-1.658,0.535l17.361,53.815
							c0.798,2.473-0.56,5.125-3.033,5.922l-16.7,5.388l2.42,7.501c0.798,2.473,3.449,3.831,5.922,3.033l18.358-5.922
							C216.231,182.444,217.589,179.793,216.791,177.32z"/>
					</g>
					<g>
						<path fill="#808285" d="M220.676,190.647h-22.052c-2.971,0-5.379-2.408-5.379-5.379V111.61c0-2.971,2.408-5.379,5.379-5.379
							h22.052c2.971,0,5.379,2.408,5.379,5.379v73.658C226.055,188.238,223.646,190.647,220.676,190.647z"/>
					</g>
					<g>
						<path fill="#58595B" d="M221.02,106.266c0.008,0.116,0.035,0.226,0.035,0.344v73.658c0,2.971-2.408,5.379-5.379,5.379h-22.053
							c-0.118,0-0.228-0.027-0.344-0.035c0.181,2.807,2.492,5.035,5.344,5.035h22.053c2.971,0,5.379-2.408,5.379-5.379V111.61
							C226.055,108.757,223.827,106.447,221.02,106.266z"/>
					</g>
					<g>
						<path fill="#F1F2F2" d="M86.303,124.812l-19.782,61.317c-0.421,1.303-1.352,2.295-2.497,2.822
							c-1.036,0.487-2.251,0.592-3.423,0.215l-18.36-5.924c-2.471-0.799-3.831-3.449-3.032-5.92l19.782-61.317
							c0.799-2.475,3.449-3.835,5.92-3.037l6.828,2.203l11.532,3.721C85.741,119.691,87.102,122.342,86.303,124.812z"/>
					</g>
					<g>
						<path fill="#E6E7E8" d="M83.271,118.893l-7.503-2.421l-19.247,59.657c-0.421,1.303-1.352,2.295-2.497,2.822
							c-1.036,0.487-2.251,0.592-3.423,0.215l-10.857-3.503l-0.535,1.659c-0.799,2.471,0.562,5.121,3.032,5.92l18.36,5.924
							c1.172,0.377,2.387,0.272,3.423-0.215c1.145-0.527,2.076-1.518,2.497-2.822l19.782-61.317
							C87.102,122.342,85.741,119.691,83.271,118.893z"/>
					</g>
					<g>
						<path fill="#478CF7" d="M35.324,190.647h22.052c2.971,0,5.379-2.408,5.379-5.379V111.61c0-2.971-2.408-5.379-5.379-5.379
							H35.324c-2.971,0-5.379,2.408-5.379,5.379v73.658C29.945,188.238,32.353,190.647,35.324,190.647z"/>
					</g>
					<g>
						<path fill="#377DE2" d="M57.721,106.266c0.008,0.116,0.035,0.226,0.035,0.344v73.658c0,2.971-2.408,5.379-5.379,5.379H30.324
							c-0.118,0-0.228-0.027-0.344-0.035c0.181,2.807,2.492,5.035,5.344,5.035h22.052c2.971,0,5.379-2.408,5.379-5.379V111.61
							C62.756,108.757,60.528,106.447,57.721,106.266z"/>
					</g>
				</g>
				<g>
					<g>
						
							<ellipse transform="matrix(0.2298 -0.9732 0.9732 0.2298 -1.1994 332.7898)" fill="#FFFFFF" cx="209.649" cy="167.153" rx="6.588" ry="6.588"/>
					</g>
				</g>
				<g>
					<g>
						
							<ellipse transform="matrix(0.2298 -0.9732 0.9732 0.2298 -126.9798 173.8593)" fill="#FFFFFF" cx="46.351" cy="167.153" rx="6.588" ry="6.588"/>
					</g>
				</g>
				<g>
					<g>
						<path fill="#FCC4AE" d="M188.066,201.086l-1.119,1.795c-1.983,3.181-6.174,4.151-9.356,2.163l-0.627-0.39
							c1.545,2.106,1.746,5.02,0.276,7.372l-1.084,1.738c-1.922,3.085-5.985,4.024-9.066,2.102l-0.171-0.105
							c2.313,2.098,2.87,5.608,1.159,8.351l-1.084,1.738c-1.926,3.085-5.986,4.024-9.07,2.098l-2.721-1.698
							c2.778,2.014,3.568,5.854,1.725,8.807l-1.084,1.742c-1.926,3.085-5.985,4.024-9.07,2.098l-32.113-20.037
							c-3.081-1.927-4.024-5.986-2.098-9.071l1.084-1.738c1.843-2.953,5.643-3.932,8.671-2.321l-9.268-5.784
							c-3.085-1.926-4.024-5.985-2.102-9.07l1.088-1.738c1.922-3.085,5.981-4.024,9.066-2.097l9.724,6.064
							c-2.313-2.097-2.87-5.608-1.158-8.351l1.084-1.738c1.926-3.085,5.986-4.024,9.07-2.098l9.983,6.227
							c-1.615-2.177-1.834-5.2-0.312-7.636l1.119-1.795c0.873-1.404,2.181-2.378,3.642-2.857c1.843-0.606,3.932-0.417,5.709,0.689
							l25.939,16.188c1.496,0.935,2.501,2.356,2.94,3.932C189.339,197.435,189.115,199.401,188.066,201.086z"/>
					</g>
					<g>
						<g>
							<path fill="#F2AD97" d="M188.843,195.666c-0.439-1.575-1.444-2.997-2.94-3.932l-2.167-1.353
								c0.031,0.096,0.08,0.187,0.108,0.285c0.496,1.768,0.272,3.734-0.777,5.419l-1.119,1.795
								c-1.983,3.181-6.174,4.151-9.356,2.163l-0.627-0.391c1.545,2.106,1.746,5.02,0.276,7.372l-1.084,1.738
								c-1.922,3.085-5.985,4.024-9.066,2.102l-0.171-0.105c2.313,2.098,2.87,5.608,1.158,8.351l-1.084,1.738
								c-1.926,3.085-5.986,4.024-9.07,2.098l-2.721-1.698c2.778,2.014,3.568,5.854,1.725,8.807l-1.084,1.742
								c-1.926,3.085-5.985,4.024-9.07,2.098l-29.904-18.658c0.453,1.45,1.403,2.753,2.791,3.622l32.113,20.037
								c3.085,1.926,7.144,0.987,9.07-2.098l1.084-1.742c1.843-2.953,1.053-6.793-1.725-8.807l2.721,1.698
								c3.085,1.926,7.144,0.987,9.07-2.098l1.084-1.738c1.711-2.743,1.154-6.253-1.158-8.351l0.171,0.105
								c3.081,1.922,7.144,0.983,9.066-2.102l1.084-1.738c1.47-2.352,1.268-5.266-0.276-7.372l0.627,0.391
								c3.181,1.988,7.372,1.018,9.356-2.163l1.119-1.795C189.115,199.401,189.339,197.435,188.843,195.666z"/>
						</g>
					</g>
					<g>
						<g>
							<path fill="#0099DC" d="M113.048,199.945l4.891,3.052c0.069,0.034,0.14,0.062,0.208,0.098l-5.536-3.454
								C112.754,199.746,112.896,199.85,113.048,199.945z"/>
						</g>
					</g>
				</g>
				<g>
					<g>
						<path fill="#FFD2C0" d="M80.302,206.146l-2.084-1.301c-3.084-1.924-4.024-5.985-2.1-9.069l7.805-12.508
							c1.925-3.084,5.985-4.024,9.069-2.1l2.084,1.301c3.084,1.925,4.024,5.985,2.1,9.069l-7.805,12.508
							C87.446,207.131,83.386,208.071,80.302,206.146z"/>
					</g>
					<g>
						<path fill="#F2AD97" d="M95.076,182.47l-2.084-1.301c-0.039-0.024-0.08-0.043-0.119-0.066
							c0.547,1.764,0.358,3.746-0.697,5.436l-7.805,12.508c-1.9,3.045-5.881,3.995-8.95,2.166c0.451,1.455,1.402,2.763,2.796,3.633
							l2.084,1.301c3.084,1.925,7.144,0.984,9.069-2.1l7.805-12.508C99.1,188.455,98.16,184.395,95.076,182.47z"/>
					</g>
					<g>
						<path fill="#FFD2C0" d="M93.148,215.008l-2.084-1.301c-3.084-1.925-4.024-5.985-2.1-9.069l12.162-19.491
							c1.925-3.084,5.985-4.024,9.069-2.1l2.084,1.301c3.084,1.925,4.024,5.985,2.1,9.069l-12.162,19.491
							C100.293,215.993,96.232,216.933,93.148,215.008z"/>
					</g>
					<g>
						<path fill="#F2AD97" d="M112.28,184.349l-2.084-1.301c-0.039-0.024-0.08-0.043-0.119-0.066
							c0.547,1.764,0.358,3.746-0.697,5.436l-12.162,19.491c-1.9,3.045-5.881,3.995-8.95,2.166c0.451,1.455,1.402,2.763,2.796,3.633
							l2.084,1.301c3.084,1.924,7.144,0.984,9.069-2.1l12.162-19.491C116.304,190.334,115.364,186.273,112.28,184.349z"/>
					</g>
					<g>
						<path fill="#FFD2C0" d="M106.565,222.956l-2.084-1.301c-3.084-1.925-4.024-5.985-2.1-9.069l8.901-14.264
							c1.925-3.084,5.985-4.024,9.069-2.1l2.084,1.301c3.084,1.924,4.024,5.985,2.1,9.069l-8.901,14.264
							C113.709,223.94,109.649,224.881,106.565,222.956z"/>
					</g>
					<g>
						<path fill="#F2AD97" d="M122.435,197.523l-2.084-1.301c-0.039-0.024-0.08-0.043-0.119-0.066
							c0.547,1.764,0.358,3.746-0.697,5.436l-8.901,14.264c-1.9,3.045-5.88,3.995-8.949,2.166c0.451,1.455,1.402,2.763,2.796,3.633
							l2.084,1.301c3.084,1.924,7.144,0.984,9.069-2.1l8.901-14.264C126.459,203.508,125.519,199.448,122.435,197.523z"/>
					</g>
					<g>
						<path fill="#FFD2C0" d="M119.55,231.595l-2.084-1.301c-3.084-1.925-4.024-5.985-2.1-9.069l5.428-8.698
							c1.925-3.084,5.985-4.024,9.069-2.1l2.084,1.301c3.084,1.924,4.024,5.985,2.1,9.069l-5.428,8.698
							C126.694,232.579,122.634,233.519,119.55,231.595z"/>
					</g>
					<g>
						<path fill="#F2AD97" d="M131.947,211.728l-2.084-1.301c-0.039-0.024-0.08-0.043-0.119-0.066
							c0.547,1.764,0.358,3.746-0.697,5.436l-5.428,8.698c-1.9,3.045-5.881,3.995-8.95,2.166c0.451,1.455,1.402,2.763,2.796,3.633
							l2.084,1.301c3.084,1.924,7.144,0.984,9.069-2.1l5.428-8.698C135.971,217.713,135.031,213.653,131.947,211.728z"/>
					</g>
				</g>
			</g>
		</g>
	</g>
	<g>
		<path fill="#76A34F" d="M194.574,81.147c0,6.678-10.18,11.664-12.135,17.689c-2.027,6.244,3.211,16.249-0.577,21.447
			c-3.821,5.255-14.977,3.344-20.228,7.164c-5.198,3.783-6.812,15.004-13.057,17.031c-6.025,1.956-13.899-6.109-20.581-6.109
			c-6.682,0-14.551,8.064-20.581,6.109c-6.244-2.027-7.859-13.248-13.056-17.031c-5.255-3.82-16.408-1.915-20.228-7.164
			c-3.783-5.198,1.451-15.202-0.577-21.447C71.599,92.811,61.42,87.825,61.42,81.147s10.18-11.664,12.135-17.689
			c2.027-6.244-3.211-16.249,0.577-21.447c3.821-5.255,14.977-3.344,20.228-7.164c5.198-3.783,6.812-15.004,13.056-17.031
			c6.025-1.956,13.899,6.109,20.581,6.109c6.682,0,14.551-8.065,20.581-6.109c6.244,2.027,7.859,13.248,13.057,17.031
			c5.255,3.82,16.408,1.915,20.228,7.164c3.783,5.198-1.451,15.202,0.577,21.447C184.395,69.483,194.574,74.47,194.574,81.147z"/>
	</g>
	<g>
		<g>
			<path fill="#648940" d="M182.439,98.837c1.956-6.025,12.135-11.012,12.135-17.689c0-6.678-10.18-11.664-12.135-17.689
				c-2.027-6.244,3.207-16.249-0.577-21.447c-1.751-2.406-5.042-3.309-8.599-3.949c-0.188,5.057-2.215,11.111-0.824,15.395
				c1.956,6.025,12.135,11.011,12.135,17.689c0,6.678-10.18,11.664-12.135,17.689c-2.027,6.244,3.211,16.249-0.577,21.446
				c-3.821,5.255-14.977,3.344-20.228,7.164c-5.198,3.783-6.812,15.004-13.057,17.031c-6.025,1.956-13.899-6.109-20.581-6.109
				c-5.918,0-12.767,6.326-18.445,6.413c2.133,4.157,4.203,8.507,7.864,9.695c6.03,1.956,13.899-6.109,20.581-6.109
				c6.682,0,14.555,8.065,20.581,6.109c6.244-2.027,7.859-13.248,13.057-17.031c5.25-3.82,16.406-1.909,20.228-7.164
				C185.65,115.085,180.411,105.081,182.439,98.837z"/>
		</g>
	</g>
	<g>
		<g>
			<path fill="#5A7A39" d="M182.439,98.837c1.956-6.025,12.135-11.012,12.135-17.689c0-6.678-10.18-11.664-12.135-17.689
				c-2.027-6.244,3.207-16.249-0.577-21.447c-0.939-1.291-2.322-2.148-3.951-2.765c1.504,5.483-2.238,13.773-0.472,19.212
				c1.956,6.025,12.135,11.011,12.135,17.689c0,6.678-10.18,11.664-12.135,17.689c-2.027,6.244,3.211,16.249-0.577,21.446
				c-3.821,5.255-14.977,3.344-20.228,7.164c-5.198,3.783-6.812,15.004-13.057,17.031c-6.025,1.956-13.899-6.109-20.581-6.109
				c-6.682,0-14.551,8.065-20.581,6.109c-0.146-0.047-0.289-0.099-0.429-0.156c1.455,2.413,3.128,4.409,5.429,5.156
				c6.03,1.956,13.899-6.109,20.581-6.109c6.682,0,14.555,8.065,20.581,6.109c6.244-2.027,7.859-13.248,13.057-17.031
				c5.25-3.82,16.406-1.909,20.228-7.164C185.65,115.085,180.411,105.081,182.439,98.837z"/>
		</g>
	</g>
	<g>
		<g>
			<path fill="#FFFFFF" d="M133.387,112.776h-10.773c-8.529,0-15.468-6.939-15.468-15.468c0-1.104,0.896-2,2-2s2,0.896,2,2
				c0,6.323,5.145,11.468,11.468,11.468h10.773c6.323,0,11.468-5.145,11.468-11.468v-5.387c0-6.323-5.145-11.467-11.468-11.467
				h-10.773c-8.529,0-15.468-6.938-15.468-15.467s6.938-15.468,15.468-15.468h10.773c8.529,0,15.468,6.938,15.468,15.467
				c0,1.104-0.896,2-2,2s-2-0.896-2-2c0-6.323-5.145-11.468-11.468-11.468h-10.773c-6.323,0-11.468,5.144-11.468,11.467
				s5.145,11.468,11.468,11.468h10.773c8.529,0,15.468,6.938,15.468,15.467v5.387C148.854,105.837,141.916,112.776,133.387,112.776z
				"/>
		</g>
		<g>
			<path fill="#FFFFFF" d="M128,118.163c-1.104,0-2-0.896-2-2v-70.03c0-1.104,0.896-2,2-2s2,0.896,2,2v70.03
				C130,117.267,129.104,118.163,128,118.163z"/>
		</g>
	</g>
	<g>
		<g>
			<path fill="#91B56B" d="M79.26,67.31c-1.313,0.037-2.347-1.373-1.9-2.62c0.45-1.4,0.671-2.96,0.671-4.77
				c0.012-4.437-1.226-8.282-1.33-12.76c0.067-1.003-0.068-1.612,0.659-2.79c0,0,0,0,0.011,0v-0.02c0.01,0,0.01-0.01,0.02-0.01
				c1.844-2.056,5.719-2.158,8.141-2.69c15.519-1.996,13.934-7.779,21.38-18.75c0.511-0.643,1.415-1.376,2.52-1.39
				c2.553,0.139,5.03,1.666,7.28,2.73c9.041,4.886,13.68,4.82,22.7-0.07c2.404-1.061,5.09-2.931,7.83-2.58
				c1.812,0.711,2.182,1.767,3.239,3.28c1.322,2.203,2.183,4.115,3.31,6.21c1.204,2.342-2.194,4.155-3.521,1.9
				c-1.305-2.422-2.542-5.261-4.14-7.39c-5.972,2.031-10.873,6.295-18.13,6.34c-7.239-0.038-12.22-4.328-18.141-6.34
				c-3.731,5.293-4.96,11.371-10.79,15.72c-5.994,4.248-12.091,3.534-18.359,5.48c0.15,5.972,2.578,13.133,0.45,19.14
				C80.899,66.76,80.13,67.31,79.26,67.31z M156.67,40.5c-1.701,0.068-2.666-2.192-1.45-3.37c0.73-0.78,2.05-0.81,2.83-0.08
				C159.359,38.222,158.429,40.556,156.67,40.5z"/>
		</g>
	</g>
</g>
</svg>
