<?xml version="1.0" encoding="utf-8"?>
<!-- Generator: Adobe Illustrator 24.0.0, SVG Export Plug-In . SVG Version: 6.00 Build 0)  -->
<svg version="1.1" id="Layer_1" xmlns="http://www.w3.org/2000/svg" xmlns:xlink="http://www.w3.org/1999/xlink" x="0px" y="0px"
	 viewBox="0 0 256 256" enable-background="new 0 0 256 256" xml:space="preserve">
<g>
	<g>
		<g>
			<g>
				<path fill="#FFA91A" d="M24.651,85.879v106.481c0,4.418,3.582,8,8,8h190.699c4.418,0,8-3.582,8-8V85.879c0-4.418-3.582-8-8-8
					H32.651C28.232,77.879,24.651,81.461,24.651,85.879z M193.903,158.874H62.097c-5.717,0-10.352-4.634-10.352-10.352
					s4.635-10.352,10.352-10.352h131.807c5.717,0,10.352,4.634,10.352,10.352S199.62,158.874,193.903,158.874z M193.903,120.069
					H62.097c-5.717,0-10.352-4.634-10.352-10.352s4.635-10.352,10.352-10.352h131.807c5.717,0,10.352,4.634,10.352,10.352
					S199.62,120.069,193.903,120.069z"/>
			</g>
			<g>
				<g>
					<path fill="#F79219" d="M223.349,77.879h-2V182.36c0,4.418-3.582,8-8,8H24.651v2c0,4.418,3.582,8,8,8h190.699
						c4.418,0,8-3.582,8-8V85.879C231.349,81.461,227.768,77.879,223.349,77.879z"/>
				</g>
			</g>
			<g>
				<g>
					<path fill="#EF7816" d="M225.926,78.303c0.275,0.809,0.424,1.675,0.424,2.576V187.36c0,4.418-3.582,8-8,8H27.651
						c-0.901,0-1.768-0.149-2.576-0.424c1.072,3.154,4.059,5.424,7.576,5.424h190.699c4.418,0,8-3.582,8-8V85.879
						C231.349,82.362,229.08,79.375,225.926,78.303z"/>
				</g>
			</g>
			<g>
				<g>
					<g>
						<path fill="#478CF7" d="M77.729,247.58L77.729,247.58c-5.435,0-9.558-4.871-8.716-10.24
							c1.287-8.213,4.028-13.582,6.525-18.472c2.983-5.844,5.34-10.46,5.34-20.687c0-10.23-2.356-14.846-5.34-20.691
							c-3.407-6.676-7.27-14.243-7.27-28.717s3.862-22.04,7.27-28.716c2.984-5.844,5.34-10.461,5.34-20.691h17.654
							c0,14.474-3.862,22.042-7.27,28.717c-2.983,5.844-5.34,10.461-5.34,20.69c0,10.23,2.356,14.846,5.34,20.691
							c3.407,6.676,7.27,14.243,7.27,28.717c0,14.473-3.862,22.039-7.27,28.714c-2.137,4.187-3.952,7.743-4.81,13.182
							C85.771,244.384,82.09,247.58,77.729,247.58z"/>
					</g>
				</g>
				<g>
					<path fill="#377DE2" d="M85.921,148.772c0-10.229,2.356-14.845,5.34-20.69c3.408-6.675,7.27-14.243,7.27-28.717h-5.165
						c-0.771,11.308-4.113,17.856-7.106,23.717c-2.983,5.845-5.34,10.461-5.34,20.69c0,10.229,2.356,14.846,5.34,20.69
						c3.407,6.676,7.27,14.243,7.27,28.717c0,14.473-3.862,22.04-7.27,28.714c-2.137,4.187-3.952,7.743-4.81,13.182
						c-0.68,4.308-4.36,7.504-8.721,7.504c-1.138,0-2.219-0.214-3.208-0.601c1.281,3.243,4.427,5.601,8.208,5.601
						c4.361,0,8.042-3.196,8.721-7.504c0.858-5.439,2.673-8.995,4.81-13.182c3.408-6.674,7.27-14.241,7.27-28.714
						c0-14.474-3.862-22.042-7.27-28.717C88.277,163.619,85.921,159.002,85.921,148.772z"/>
				</g>
				<g>
					<g>
						<path fill="#478CF7" d="M122.33,247.58L122.33,247.58c-5.435,0-9.558-4.871-8.716-10.24
							c1.287-8.213,4.028-13.582,6.525-18.472c2.983-5.844,5.34-10.46,5.34-20.687c0-10.23-2.356-14.846-5.34-20.691
							c-3.407-6.676-7.27-14.243-7.27-28.717s3.862-22.04,7.27-28.716c2.984-5.844,5.34-10.461,5.34-20.691h17.654
							c0,14.474-3.862,22.042-7.27,28.717c-2.983,5.844-5.34,10.461-5.34,20.69c0,10.23,2.356,14.846,5.34,20.691
							c3.407,6.676,7.27,14.243,7.27,28.717c0,14.473-3.862,22.039-7.27,28.714c-2.137,4.187-3.952,7.743-4.81,13.182
							C130.372,244.384,126.691,247.58,122.33,247.58z"/>
					</g>
				</g>
				<g>
					<path fill="#377DE2" d="M130.522,148.772c0-10.229,2.356-14.845,5.34-20.69c3.408-6.675,7.27-14.243,7.27-28.717h-5.165
						c-0.771,11.308-4.113,17.856-7.106,23.717c-2.983,5.845-5.34,10.461-5.34,20.69c0,10.229,2.356,14.846,5.34,20.69
						c3.407,6.676,7.27,14.243,7.27,28.717c0,14.473-3.862,22.04-7.27,28.714c-2.137,4.187-3.952,7.743-4.81,13.182
						c-0.68,4.308-4.36,7.504-8.721,7.504c-1.138,0-2.219-0.214-3.208-0.601c1.281,3.243,4.427,5.601,8.208,5.601
						c4.361,0,8.042-3.196,8.721-7.504c0.858-5.439,2.673-8.995,4.81-13.182c3.408-6.674,7.27-14.241,7.27-28.714
						c0-14.474-3.862-22.042-7.27-28.717C132.878,163.619,130.522,159.002,130.522,148.772z"/>
				</g>
				<g>
					<g>
						<path fill="#478CF7" d="M166.931,247.58L166.931,247.58c-5.435,0-9.558-4.871-8.716-10.24
							c1.287-8.213,4.028-13.582,6.525-18.472c2.983-5.844,5.34-10.46,5.34-20.687c0-10.23-2.356-14.846-5.34-20.691
							c-3.407-6.676-7.27-14.243-7.27-28.717s3.862-22.04,7.27-28.716c2.984-5.844,5.34-10.461,5.34-20.691h17.654
							c0,14.474-3.862,22.042-7.27,28.717c-2.983,5.844-5.34,10.461-5.34,20.69c0,10.23,2.356,14.846,5.34,20.691
							c3.407,6.676,7.27,14.243,7.27,28.717c0,14.473-3.862,22.039-7.27,28.714c-2.137,4.187-3.952,7.743-4.81,13.182
							C174.973,244.384,171.293,247.58,166.931,247.58z"/>
					</g>
				</g>
				<g>
					<path fill="#377DE2" d="M175.123,148.772c0-10.229,2.356-14.845,5.34-20.69c3.408-6.675,7.27-14.243,7.27-28.717h-5.165
						c-0.771,11.308-4.113,17.856-7.106,23.717c-2.983,5.845-5.34,10.461-5.34,20.69c0,10.229,2.356,14.846,5.34,20.69
						c3.407,6.676,7.27,14.243,7.27,28.717c0,14.473-3.862,22.04-7.27,28.714c-2.137,4.187-3.952,7.743-4.81,13.182
						c-0.68,4.308-4.36,7.504-8.721,7.504c-1.138,0-2.219-0.214-3.208-0.601c1.281,3.243,4.427,5.601,8.208,5.601
						c4.361,0,8.042-3.196,8.721-7.504c0.858-5.439,2.673-8.995,4.81-13.182c3.408-6.674,7.27-14.241,7.27-28.714
						c0-14.474-3.862-22.042-7.27-28.717C177.479,163.619,175.123,159.002,175.123,148.772z"/>
				</g>
			</g>
		</g>
		<g>
			<g>
				<circle fill="#F1F2F2" cx="128" cy="73.77" r="65.35"/>
			</g>
			<g>
				<path fill="#D1D3D4" d="M168.94,22.831c9.015,11.203,14.41,25.441,14.41,40.939c0,36.092-29.258,65.35-65.35,65.35
					c-15.499,0-29.737-5.395-40.94-14.41c11.978,14.885,30.346,24.41,50.94,24.41c36.092,0,65.35-29.258,65.35-65.35
					C193.35,53.177,183.825,34.809,168.94,22.831z"/>
			</g>
			<g>
				<g>
					<path fill="#377DE2" d="M155.861,83.606L138,73.294l17.862-10.313c2.392-1.381,3.211-4.438,1.83-6.83
						c-1.381-2.391-4.439-3.21-6.83-1.83L133,64.633V44.926c0-2.761-2.239-5-5-5s-5,2.239-5,5v19.707l-17.859-10.311
						c-2.392-1.381-5.45-0.561-6.83,1.83c-1.381,2.392-0.562,5.449,1.83,6.83L118,73.294l-17.863,10.313
						c-2.392,1.381-3.211,4.438-1.83,6.83c0.926,1.604,2.606,2.501,4.335,2.501c0.848,0,1.708-0.216,2.495-0.671L123,81.954v19.705
						c0,2.761,2.239,5,5,5s5-2.239,5-5V81.954l17.861,10.312c0.788,0.455,1.647,0.671,2.495,0.671c1.728,0,3.409-0.897,4.335-2.501
						C159.072,88.044,158.253,84.987,155.861,83.606z"/>
				</g>
				<g>
					<g>
						<path fill="#2266D3" d="M123,76.954l-17.863,10.313c-0.787,0.455-1.647,0.671-2.495,0.671c-1.729,0-3.409-0.897-4.335-2.501
							c0,0,0-0.001,0-0.001c-0.862,1.496-0.925,3.398,0,5.001c0.926,1.604,2.606,2.501,4.335,2.501c0.848,0,1.708-0.216,2.495-0.671
							L123,81.954V76.954z"/>
					</g>
					<g>
						<path fill="#2266D3" d="M100.141,62.982L118,73.294l4.33-2.5l-22.19-12.811c-0.789-0.455-1.406-1.093-1.831-1.829
							C96.93,58.545,97.749,61.602,100.141,62.982z"/>
					</g>
					<g>
						<path fill="#2266D3" d="M155.862,57.981L133.67,70.792l4.33,2.5l17.862-10.312c2.391-1.381,3.211-4.438,1.831-6.829
							C157.268,56.888,156.651,57.526,155.862,57.981z"/>
					</g>
					<g>
						<path fill="#2266D3" d="M157.691,85.436c-0.926,1.604-2.607,2.501-4.335,2.501c-0.848,0-1.708-0.216-2.495-0.671L133,76.954v5
							l17.861,10.312c0.788,0.455,1.647,0.671,2.495,0.671c1.728,0,3.409-0.897,4.335-2.501
							C158.617,88.833,158.554,86.931,157.691,85.436C157.692,85.435,157.692,85.436,157.691,85.436z"/>
					</g>
				</g>
				<g>
					<g>
						<g>
							<path fill="#478CF7" d="M157.349,110.401c-2.208,0-4.228-1.474-4.827-3.708l-4.805-17.934
								c-0.715-2.667,0.868-5.409,3.536-6.124l17.934-4.805c2.666-0.716,5.409,0.868,6.124,3.536
								c0.715,2.667-0.868,5.409-3.536,6.124l-13.104,3.511l3.511,13.104c0.715,2.667-0.868,5.409-3.536,6.124
								C158.213,110.345,157.777,110.401,157.349,110.401z"/>
						</g>
					</g>
					<g>
						<g>
							<path fill="#377DE2" d="M161.8,102.682c-0.622,1.212-1.735,2.166-3.154,2.547c-0.433,0.116-0.869,0.172-1.297,0.172
								c-2.208,0-4.228-1.474-4.827-3.708l-4.424-16.511c-0.547,1.065-0.716,2.329-0.381,3.577l4.805,17.934
								c0.599,2.234,2.619,3.708,4.827,3.708c0.428,0,0.864-0.056,1.297-0.172c2.667-0.715,4.25-3.457,3.536-6.124L161.8,102.682z"
								/>
						</g>
						<g>
							<path fill="#377DE2" d="M174.811,80.16c-0.64,1.109-1.703,1.973-3.037,2.331l-14.354,3.846l1.25,4.665l13.104-3.511
								c2.667-0.715,4.25-3.457,3.536-6.124C175.194,80.934,175.025,80.53,174.811,80.16z"/>
						</g>
					</g>
					<g>
						<g>
							<path fill="#478CF7" d="M84.691,68.452c-2.208,0-4.228-1.474-4.827-3.708c-0.715-2.667,0.868-5.409,3.536-6.124l13.104-3.511
								l-3.511-13.104c-0.715-2.667,0.868-5.409,3.536-6.124c2.667-0.715,5.409,0.869,6.124,3.536l4.805,17.934
								c0.715,2.667-0.868,5.409-3.536,6.124L85.988,68.28C85.555,68.396,85.12,68.451,84.691,68.452z"/>
						</g>
					</g>
					<g>
						<g>
							<path fill="#377DE2" d="M107.076,55.928c-0.622,1.212-1.735,2.166-3.154,2.547L85.988,63.28
								c-0.433,0.116-0.869,0.171-1.297,0.172c-1.78,0-3.438-0.958-4.328-2.5c-0.639,1.108-0.856,2.46-0.499,3.793
								c0.599,2.234,2.619,3.708,4.827,3.708c0.428,0,0.864-0.056,1.297-0.172l17.934-4.805c2.667-0.715,4.25-3.457,3.536-6.124
								L107.076,55.928z"/>
						</g>
					</g>
				</g>
				<g>
					<g>
						<g>
							<path fill="#478CF7" d="M98.651,110.401c-0.428,0-0.863-0.056-1.297-0.172c-2.667-0.715-4.25-3.457-3.536-6.124l3.511-13.104
								L84.226,87.49c-2.667-0.715-4.25-3.457-3.536-6.124s3.457-4.25,6.124-3.536l17.934,4.805c2.667,0.715,4.25,3.457,3.536,6.124
								l-4.805,17.934C102.879,108.927,100.858,110.4,98.651,110.401z"/>
						</g>
					</g>
					<g>
						<g>
							<path fill="#377DE2" d="M103.478,101.693c-0.599,2.234-2.619,3.707-4.827,3.708c-0.428,0-0.863-0.056-1.297-0.172
								c-1.42-0.38-2.532-1.335-3.154-2.547l-0.381,1.423c-0.715,2.667,0.868,5.409,3.536,6.124
								c0.434,0.116,0.869,0.172,1.297,0.172c2.208,0,4.228-1.474,4.827-3.708l4.805-17.934c0.334-1.248,0.166-2.512-0.381-3.577
								L103.478,101.693z"/>
						</g>
						<g>
							<path fill="#377DE2" d="M98.58,86.259L84.226,82.49c-1.334-0.357-2.397-1.222-3.036-2.33
								c-0.214,0.37-0.383,0.774-0.499,1.207c-0.715,2.667,0.868,5.409,3.536,6.124l13.104,3.433L98.58,86.259z"/>
						</g>
					</g>
					<g>
						<g>
							<path fill="#478CF7" d="M171.309,68.452c-0.428,0-0.863-0.056-1.297-0.172l-17.934-4.805
								c-2.667-0.715-4.25-3.457-3.536-6.124l4.805-17.934c0.715-2.667,3.455-4.25,6.124-3.536c2.667,0.715,4.25,3.457,3.536,6.124
								l-3.511,13.104l13.104,3.511c2.667,0.715,4.25,3.457,3.536,6.124C175.537,66.978,173.516,68.452,171.309,68.452z"/>
						</g>
					</g>
					<g>
						<g>
							<path fill="#377DE2" d="M171.309,63.452c-0.428,0-0.863-0.056-1.297-0.172l-17.934-4.805c-1.42-0.38-2.532-1.335-3.154-2.547
								l-0.381,1.423c-0.715,2.667,0.868,5.409,3.536,6.124l17.934,4.805c0.434,0.116,0.869,0.172,1.297,0.172
								c2.208,0,4.228-1.474,4.827-3.708c0.357-1.333,0.141-2.685-0.499-3.793C174.747,62.493,173.089,63.452,171.309,63.452z"/>
						</g>
					</g>
				</g>
				<g>
					<g>
						<g>
							<path fill="#478CF7" d="M128,49.949c-1.28,0-2.559-0.488-3.536-1.464l-13.128-13.128c-1.953-1.953-1.953-5.119,0-7.071
								c1.953-1.952,5.118-1.952,7.071,0L128,37.878l9.593-9.593c1.953-1.952,5.118-1.952,7.071,0c1.953,1.953,1.953,5.119,0,7.071
								l-13.128,13.128C130.559,49.461,129.28,49.949,128,49.949z"/>
						</g>
					</g>
					<g>
						<path fill="#377DE2" d="M144.664,30.356l-13.128,13.128c-0.977,0.976-2.256,1.464-3.536,1.464s-2.559-0.488-3.536-1.464
							l-13.128-13.128c-0.317-0.317-0.582-0.665-0.796-1.036c-1.105,1.912-0.84,4.4,0.796,6.036l13.128,13.128
							c0.977,0.976,2.256,1.464,3.536,1.464s2.559-0.488,3.536-1.464l13.128-13.128c1.636-1.636,1.901-4.123,0.796-6.036
							C145.246,29.691,144.981,30.04,144.664,30.356z"/>
					</g>
					<g>
						<g>
							<path fill="#478CF7" d="M141.128,120.719c-1.28,0-2.559-0.488-3.536-1.464L128,109.662l-9.593,9.593
								c-1.953,1.952-5.118,1.952-7.071,0c-1.953-1.953-1.953-5.119,0-7.071l13.128-13.128c1.953-1.952,5.118-1.952,7.071,0
								l13.128,13.128c1.953,1.953,1.953,5.119,0,7.071C143.687,120.231,142.408,120.719,141.128,120.719z"/>
						</g>
					</g>
					<g>
						<path fill="#377DE2" d="M144.664,114.255c-0.977,0.976-2.256,1.464-3.536,1.464s-2.559-0.488-3.536-1.464L128,104.662
							l-9.593,9.593c-1.953,1.952-5.118,1.952-7.071,0c-0.317-0.317-0.582-0.665-0.796-1.036c-1.105,1.912-0.84,4.4,0.796,6.036
							c1.953,1.952,5.118,1.952,7.071,0l9.593-9.593l9.593,9.593c0.977,0.976,2.256,1.464,3.536,1.464s2.559-0.488,3.536-1.464
							c1.636-1.636,1.901-4.123,0.796-6.036C145.246,113.589,144.981,113.938,144.664,114.255z"/>
					</g>
				</g>
			</g>
		</g>
	</g>
	<g>
		<path fill="#FFFFFF" d="M68.65,75.77c-1.1,0-2-0.899-2-2c0-1.1,0.9-2,2-2s2,0.9,2,2C70.65,74.87,69.75,75.77,68.65,75.77z
			 M69.19,67.8c-0.09,0-0.18-0.01-0.27-0.021c-1.1-0.149-1.87-1.159-1.72-2.25c0.94-6.93,3.04-13.59,6.24-19.8
			c3.13-6.069,7.22-11.54,12.17-16.27c4.95-4.74,10.61-8.59,16.81-11.45c6.37-2.94,13.16-4.74,20.17-5.36
			c1.8-0.149,3.62-0.229,5.41-0.229c1.1,0,2,0.899,2,2c0,1.1-0.9,2-2,2c-1.69,0-3.39,0.07-5.06,0.22
			C96.49,18.96,74.71,39.74,71.17,66.06C71.03,67.05,70.18,67.8,69.19,67.8z"/>
	</g>
</g>
</svg>
