<?xml version="1.0" encoding="utf-8"?>
<!-- Generator: Adobe Illustrator 24.0.0, SVG Export Plug-In . SVG Version: 6.00 Build 0)  -->
<svg version="1.1" id="Layer_1" xmlns="http://www.w3.org/2000/svg" xmlns:xlink="http://www.w3.org/1999/xlink" x="0px" y="0px"
	 viewBox="0 0 256 256" enable-background="new 0 0 256 256" xml:space="preserve">
<g>
	<g>
		<g>
			<circle fill="#FFA91A" cx="128" cy="128" r="71.59"/>
		</g>
		<g>
			<path fill="#F79219" d="M173.376,72.624C183.508,84.976,189.59,100.777,189.59,118c0,39.538-32.052,71.59-71.59,71.59
				c-17.222,0-33.024-6.082-45.375-16.215c13.129,16.004,33.06,26.215,55.375,26.215c39.538,0,71.59-32.052,71.59-71.59
				C199.59,105.684,189.379,85.753,173.376,72.624z"/>
		</g>
		<g>
			<path fill="#EF7816" d="M176.06,74.939c11.515,12.705,18.53,29.563,18.53,48.061c0,39.538-32.052,71.59-71.59,71.59
				c-18.497,0-35.355-7.015-48.06-18.53c13.098,14.452,32.019,23.53,53.06,23.53c39.538,0,71.59-32.052,71.59-71.59
				C199.59,106.958,190.513,88.038,176.06,74.939z"/>
		</g>
		<g>
			<g>
				<path fill="#FFA91A" d="M195.066,202.065c-1.791,0-3.583-0.684-4.95-2.05c-2.733-2.734-2.733-7.166,0-9.9
					c34.251-34.25,34.251-89.98,0-124.23c-2.733-2.734-2.733-7.166,0-9.9c2.734-2.732,7.166-2.732,9.9,0
					c39.709,39.71,39.709,104.321,0,144.031C198.649,201.382,196.857,202.065,195.066,202.065z"/>
			</g>
		</g>
		<g>
			<path fill="#F79219" d="M200.016,55.984c-0.354-0.354-0.737-0.662-1.14-0.924c35.804,39.938,34.518,101.576-3.86,139.955
				c-1.367,1.366-3.159,2.05-4.95,2.05c-0.596,0-1.192-0.076-1.773-0.228c0.303,1.165,0.911,2.266,1.823,3.178
				c1.367,1.366,3.159,2.05,4.95,2.05s3.583-0.684,4.95-2.05C239.725,160.306,239.725,95.694,200.016,55.984z"/>
		</g>
		<g>
			<g>
				<path fill="#FFA91A" d="M60.934,202.065c-1.792,0-3.583-0.684-4.95-2.05c-39.709-39.71-39.709-104.321,0-144.031
					c2.733-2.732,7.166-2.732,9.899,0c2.734,2.734,2.734,7.166,0,9.9c-34.25,34.25-34.25,89.98,0,124.23
					c2.734,2.734,2.734,7.166,0,9.9C64.517,201.382,62.726,202.065,60.934,202.065z"/>
			</g>
		</g>
		<g>
			<path fill="#F79219" d="M65.884,65.885c2.734-2.734,2.734-7.166,0-9.9c-0.912-0.912-2.013-1.519-3.177-1.822
				c0.606,2.325-0.001,4.9-1.823,6.723c-34.25,34.25-34.25,89.98,0,124.23c2.734,2.734,2.734,7.166,0,9.9
				c-1.367,1.366-3.158,2.05-4.95,2.05c-1.327,0-2.654-0.376-3.809-1.126c1.242,1.385,2.528,2.745,3.859,4.076
				c1.367,1.366,3.158,2.05,4.95,2.05s3.583-0.684,4.95-2.05c2.734-2.734,2.734-7.166,0-9.9
				C31.633,155.865,31.633,100.135,65.884,65.885z"/>
		</g>
	</g>
	<g>
		<g>
			<path fill="#8C3F0A" d="M179.08,120.001H76.92v15.997h23.767c10.667,0,19.314,8.647,19.314,19.314v23.767h15.998v-23.767
				c0-10.667,8.647-19.314,19.314-19.314h23.767V120.001z"/>
		</g>
		<g>
			<path fill="#995222" d="M128,70.642c-31.678,0-57.358,25.68-57.358,57.358c0,31.678,25.68,57.358,57.358,57.358
				s57.358-25.68,57.358-57.358C185.358,96.322,159.678,70.642,128,70.642z M128,170.457c-23.448,0-42.457-19.008-42.457-42.457
				c0-23.448,19.008-42.456,42.457-42.456s42.457,19.009,42.457,42.456C170.457,151.448,151.448,170.457,128,170.457z"/>
		</g>
		<g>
			<g>
				<path fill="#8C3F0A" d="M165.982,85.019c8.946,10.116,14.377,23.415,14.377,37.981c0,31.678-25.68,57.358-57.358,57.358
					c-14.567,0-27.865-5.431-37.981-14.377c10.509,11.884,25.87,19.377,42.981,19.377c31.678,0,57.358-25.68,57.358-57.358
					C185.358,110.889,177.865,95.527,165.982,85.019z"/>
			</g>
		</g>
		<g>
			<path fill="#995222" d="M136.782,137.309h-17.563c-5.291,0-9.58-4.289-9.58-9.58v-5.987c0-5.291,4.289-9.58,9.58-9.58h17.563
				c5.291,0,9.58,4.289,9.58,9.58v5.987C146.362,133.02,142.072,137.309,136.782,137.309z"/>
		</g>
	</g>
	<g>
		<g>
			<g>
				<path fill="#F79219" d="M128,240.91c-2.209,0-4-1.791-4-4v-24.119c0-2.209,1.791-4,4-4s4,1.791,4,4v24.119
					C132,239.119,130.209,240.91,128,240.91z"/>
			</g>
			<g>
				<path fill="#F79219" d="M128,242.813c-1.024,0-2.047-0.391-2.829-1.172L112.31,228.78c-1.562-1.562-1.562-4.095,0-5.656
					c1.563-1.563,4.095-1.563,5.657,0L128,233.156l10.033-10.032c1.561-1.563,4.096-1.563,5.656,0c1.563,1.562,1.563,4.095,0,5.656
					l-12.861,12.861C130.048,242.423,129.023,242.813,128,242.813z"/>
			</g>
		</g>
		<g>
			<g>
				<path fill="#F79219" d="M128,47.209c-2.209,0-4-1.791-4-4V19.09c0-2.209,1.791-4,4-4s4,1.791,4,4v24.119
					C132,45.418,130.209,47.209,128,47.209z"/>
			</g>
			<g>
				<path fill="#F79219" d="M140.861,34.048c-1.023,0-2.048-0.391-2.828-1.172L128,22.844l-10.033,10.032
					c-1.563,1.563-4.095,1.563-5.657,0c-1.562-1.562-1.562-4.095,0-5.656l12.861-12.861c1.562-1.563,4.096-1.563,5.657,0
					l12.861,12.861c1.563,1.562,1.563,4.095,0,5.656C142.909,33.657,141.885,34.048,140.861,34.048z"/>
			</g>
		</g>
	</g>
	<g>
		<g>
			<g>
				<path fill="#F79219" d="M175.059,230.221c-1.491,0-2.923-0.838-3.61-2.272l-10.421-21.752c-0.954-1.992-0.113-4.382,1.879-5.336
					c1.994-0.953,4.382-0.112,5.336,1.879l10.421,21.752c0.954,1.992,0.113,4.382-1.879,5.336
					C176.227,230.094,175.638,230.221,175.059,230.221z"/>
			</g>
			<g>
				<path fill="#F79219" d="M175.878,231.937c-0.448,0-0.897-0.075-1.329-0.228l-17.155-6.042c-2.083-0.733-3.178-3.018-2.443-5.102
					c0.733-2.083,3.016-3.181,5.102-2.443l13.382,4.713l4.714-13.384c0.733-2.083,3.016-3.181,5.102-2.443
					c2.083,0.733,3.178,3.018,2.443,5.102l-6.042,17.156c-0.352,1-1.088,1.82-2.044,2.278
					C177.062,231.805,176.471,231.937,175.878,231.937z"/>
			</g>
		</g>
		<g>
			<g>
				<path fill="#F79219" d="M91.368,55.533c-1.492,0-2.923-0.838-3.61-2.272L77.336,31.509c-0.955-1.992-0.113-4.382,1.879-5.336
					c1.995-0.952,4.382-0.112,5.336,1.879l10.421,21.752c0.955,1.992,0.113,4.382-1.879,5.336
					C92.536,55.406,91.947,55.533,91.368,55.533z"/>
			</g>
			<g>
				<path fill="#F79219" d="M74.08,49.221c-0.441,0-0.889-0.073-1.329-0.229c-2.084-0.733-3.178-3.018-2.444-5.102l6.042-17.156
					c0.733-2.083,3.017-3.181,5.102-2.443l17.156,6.042c2.084,0.733,3.178,3.018,2.444,5.102c-0.734,2.083-3.021,3.178-5.102,2.443
					l-13.383-4.713l-4.713,13.384C77.273,48.192,75.729,49.221,74.08,49.221z"/>
			</g>
		</g>
	</g>
	<g>
		<g>
			<g>
				<path fill="#F79219" d="M80.941,230.221c-0.58,0-1.168-0.127-1.726-0.394c-1.992-0.954-2.833-3.344-1.879-5.336l10.421-21.752
					c0.955-1.992,3.343-2.831,5.336-1.879c1.992,0.954,2.833,3.344,1.879,5.336l-10.421,21.752
					C83.864,229.383,82.432,230.221,80.941,230.221z"/>
			</g>
			<g>
				<path fill="#F79219" d="M80.122,231.938c-1.649,0-3.194-1.028-3.773-2.672l-6.042-17.156c-0.734-2.084,0.36-4.368,2.444-5.102
					c2.081-0.735,4.368,0.359,5.102,2.443l4.713,13.384l13.383-4.713c2.082-0.736,4.368,0.36,5.102,2.443
					c0.734,2.084-0.36,4.368-2.444,5.102l-17.156,6.042C81.011,231.864,80.563,231.938,80.122,231.938z"/>
			</g>
		</g>
		<g>
			<g>
				<path fill="#F79219" d="M164.632,55.533c-0.579,0-1.168-0.127-1.726-0.394c-1.992-0.954-2.833-3.344-1.879-5.336l10.421-21.752
					c0.954-1.992,3.343-2.832,5.336-1.879c1.992,0.954,2.833,3.344,1.879,5.336l-10.421,21.752
					C167.555,54.695,166.123,55.533,164.632,55.533z"/>
			</g>
			<g>
				<path fill="#F79219" d="M181.92,49.221c-1.649,0-3.193-1.028-3.772-2.672l-4.714-13.384l-13.382,4.713
					c-2.086,0.737-4.368-0.36-5.102-2.443c-0.734-2.084,0.36-4.368,2.443-5.102l17.155-6.042c1.002-0.354,2.101-0.293,3.058,0.165
					c0.956,0.458,1.692,1.278,2.044,2.278l6.042,17.156c0.734,2.084-0.36,4.368-2.443,5.102
					C182.81,49.147,182.36,49.221,181.92,49.221z"/>
			</g>
		</g>
	</g>
	<g>
		<path fill="#FFC91D" d="M62.41,130c-1.1,0-2-0.9-2-2c0-1.101,0.9-2,2-2c1.1,0,2,0.899,2,2C64.41,129.1,63.51,130,62.41,130z
			 M62.9,122.02c-0.08,0-0.17,0-0.25-0.01c-1.09-0.14-1.88-1.14-1.74-2.23c1.05-8.67,3.75-16.939,8-24.569
			c4.15-7.45,9.6-13.98,16.19-19.41c0.03-0.021,0.05-0.03,0.07-0.05c2.11-1.74,4.36-3.36,6.67-4.83c0.9-0.58,2.19-0.29,2.76,0.609
			c0.29,0.45,0.38,0.99,0.26,1.511c-0.11,0.52-0.42,0.97-0.88,1.25c-2.17,1.39-4.28,2.92-6.27,4.55
			c-12.75,10.46-20.85,25.17-22.83,41.42C64.76,121.27,63.9,122.02,62.9,122.02z"/>
	</g>
</g>
</svg>
