<?xml version="1.0" encoding="utf-8"?>
<!-- Generator: Adobe Illustrator 24.0.0, SVG Export Plug-In . SVG Version: 6.00 Build 0)  -->
<svg version="1.1" id="Layer_1" xmlns="http://www.w3.org/2000/svg" xmlns:xlink="http://www.w3.org/1999/xlink" x="0px" y="0px"
	 viewBox="0 0 256 256" enable-background="new 0 0 256 256" xml:space="preserve">
<g>
	<g>
		<g>
			<path fill="#377DE2" d="M36.535,91.16v130.845c0,5.051,4.095,9.146,9.146,9.146h164.636c5.051,0,9.146-4.095,9.146-9.146V91.16
				H36.535z"/>
		</g>
		<g>
			<g>
				<g>
					<path fill="#478CF7" d="M69.022,130.696h-14.33c-3.368,0-6.098-2.73-6.098-6.098v-14.33c0-3.368,2.73-6.098,6.098-6.098h14.33
						c3.368,0,6.098,2.73,6.098,6.098v14.33C75.12,127.966,72.39,130.696,69.022,130.696z"/>
				</g>
				<g>
					<path fill="#478CF7" d="M113.117,130.696h-14.33c-3.368,0-6.098-2.73-6.098-6.098v-14.33c0-3.368,2.73-6.098,6.098-6.098h14.33
						c3.368,0,6.098,2.73,6.098,6.098v14.33C119.215,127.966,116.485,130.696,113.117,130.696z"/>
				</g>
				<g>
					<path fill="#478CF7" d="M157.213,130.696h-14.33c-3.368,0-6.098-2.73-6.098-6.098v-14.33c0-3.368,2.73-6.098,6.098-6.098h14.33
						c3.368,0,6.098,2.73,6.098,6.098v14.33C163.31,127.966,160.58,130.696,157.213,130.696z"/>
				</g>
				<g>
					<path fill="#478CF7" d="M201.308,130.696h-14.33c-3.368,0-6.098-2.73-6.098-6.098v-14.33c0-3.368,2.73-6.098,6.098-6.098h14.33
						c3.368,0,6.098,2.73,6.098,6.098v14.33C207.406,127.966,204.676,130.696,201.308,130.696z"/>
				</g>
				<g>
					<g>
						<path fill="#478CF7" d="M69.022,174.792h-14.33c-3.368,0-6.098-2.73-6.098-6.098v-14.33c0-3.368,2.73-6.098,6.098-6.098h14.33
							c3.368,0,6.098,2.73,6.098,6.098v14.33C75.12,172.062,72.39,174.792,69.022,174.792z"/>
					</g>
					<g>
						<path fill="#478CF7" d="M113.117,174.792h-14.33c-3.368,0-6.098-2.73-6.098-6.098v-14.33c0-3.368,2.73-6.098,6.098-6.098
							h14.33c3.368,0,6.098,2.73,6.098,6.098v14.33C119.215,172.062,116.485,174.792,113.117,174.792z"/>
					</g>
					<g>
						<path fill="#478CF7" d="M157.213,174.792h-14.33c-3.368,0-6.098-2.73-6.098-6.098v-14.33c0-3.368,2.73-6.098,6.098-6.098
							h14.33c3.368,0,6.098,2.73,6.098,6.098v14.33C163.31,172.062,160.58,174.792,157.213,174.792z"/>
					</g>
					<g>
						<path fill="#478CF7" d="M201.308,174.792h-14.33c-3.368,0-6.098-2.73-6.098-6.098v-14.33c0-3.368,2.73-6.098,6.098-6.098
							h14.33c3.368,0,6.098,2.73,6.098,6.098v14.33C207.406,172.062,204.676,174.792,201.308,174.792z"/>
					</g>
				</g>
				<g>
					<g>
						<path fill="#478CF7" d="M69.022,218.887h-14.33c-3.368,0-6.098-2.73-6.098-6.098v-14.33c0-3.368,2.73-6.098,6.098-6.098h14.33
							c3.368,0,6.098,2.73,6.098,6.098v14.33C75.12,216.157,72.39,218.887,69.022,218.887z"/>
					</g>
					<g>
						<path fill="#478CF7" d="M113.117,218.887h-14.33c-3.368,0-6.098-2.73-6.098-6.098v-14.33c0-3.368,2.73-6.098,6.098-6.098
							h14.33c3.368,0,6.098,2.73,6.098,6.098v14.33C119.215,216.157,116.485,218.887,113.117,218.887z"/>
					</g>
					<g>
						<path fill="#478CF7" d="M157.213,218.887h-14.33c-3.368,0-6.098-2.73-6.098-6.098v-14.33c0-3.368,2.73-6.098,6.098-6.098
							h14.33c3.368,0,6.098,2.73,6.098,6.098v14.33C163.31,216.157,160.58,218.887,157.213,218.887z"/>
					</g>
					<g>
						<path fill="#478CF7" d="M201.308,218.887h-14.33c-3.368,0-6.098-2.73-6.098-6.098v-14.33c0-3.368,2.73-6.098,6.098-6.098
							h14.33c3.368,0,6.098,2.73,6.098,6.098v14.33C207.406,216.157,204.676,218.887,201.308,218.887z"/>
					</g>
				</g>
			</g>
			<g>
				<path fill="#F1F2F2" d="M210.318,48.223H45.682c-5.051,0-9.146,4.095-9.146,9.146V91.16h182.929V57.369
					C219.465,52.318,215.37,48.223,210.318,48.223z"/>
			</g>
			<g>
				<path fill="#E6E7E8" d="M210.318,48.223h-0.854V81.16H36.535v10h182.929V57.369C219.465,52.318,215.37,48.223,210.318,48.223z"
					/>
			</g>
			<g>
				<path fill="#D1D3D4" d="M213.784,48.903c0.438,1.069,0.68,2.239,0.68,3.466V86.16H36.535v5h182.929V57.369
					C219.465,53.544,217.117,50.269,213.784,48.903z"/>
			</g>
			<g>
				<path fill="#FFA91A" d="M86.841,71.597L86.841,71.597c-4.841,0-8.765-3.924-8.765-8.765V33.614c0-4.841,3.924-8.765,8.765-8.765
					h0c4.841,0,8.765,3.924,8.765,8.765v29.218C95.606,67.673,91.682,71.597,86.841,71.597z"/>
			</g>
			<g>
				<path fill="#F79219" d="M90.014,25.441c0.382,0.984,0.592,2.054,0.592,3.173v29.218c0,4.841-3.924,8.765-8.765,8.765h0
					c-1.119,0-2.189-0.21-3.173-0.592c1.271,3.273,4.451,5.592,8.173,5.592h0c4.841,0,8.765-3.924,8.765-8.765V33.614
					C95.606,29.892,93.286,26.712,90.014,25.441z"/>
			</g>
			<g>
				<path fill="#FFA91A" d="M169.159,71.597L169.159,71.597c-4.841,0-8.765-3.924-8.765-8.765V33.614
					c0-4.841,3.924-8.765,8.765-8.765h0c4.841,0,8.765,3.924,8.765,8.765v29.218C177.924,67.673,174,71.597,169.159,71.597z"/>
			</g>
			<g>
				<path fill="#F79219" d="M172.332,25.441c0.382,0.984,0.592,2.054,0.592,3.173v29.218c0,4.841-3.924,8.765-8.765,8.765h0
					c-1.119,0-2.189-0.21-3.173-0.592c1.271,3.273,4.451,5.592,8.173,5.592h0c4.841,0,8.765-3.924,8.765-8.765V33.614
					C177.924,29.892,175.604,26.712,172.332,25.441z"/>
			</g>
		</g>
		<g>
			<path fill="#FFFFFF" d="M42.54,76.65c-1.11,0-2-0.9-2-2s0.89-2,2-2c1.1,0,2,0.9,2,2S43.64,76.65,42.54,76.65z M42.54,68.65
				c-1.11,0-2-0.9-2-2v-9.28c0-2.84,2.31-5.14,5.14-5.15h22.15c1.11,0,2,0.9,2,2c0,1.11-0.89,2-2,2H45.68
				c-0.63,0-1.14,0.52-1.14,1.15v9.28C44.54,67.75,43.64,68.65,42.54,68.65z"/>
		</g>
		<g>
			<path fill="#2266D3" d="M214.465,91.16v125.845c0,5.051-4.095,9.146-9.146,9.146H40.682c-1.227,0-2.397-0.242-3.466-0.68
				c1.366,3.333,4.642,5.68,8.466,5.68h164.636c5.051,0,9.146-4.095,9.146-9.146V91.16H214.465z"/>
		</g>
	</g>
	<g>
		<g>
			<path fill="#FFA91A" d="M188.002,161.526c0,6.019-9.175,10.513-10.938,15.943c-1.827,5.628,2.894,14.645-0.52,19.33
				c-3.444,4.736-13.499,3.014-18.231,6.457c-4.685,3.41-6.14,13.523-11.768,15.35c-5.431,1.763-12.527-5.506-18.55-5.506
				c-6.023,0-13.115,7.269-18.549,5.506c-5.628-1.827-7.083-11.94-11.768-15.35c-4.736-3.443-14.788-1.726-18.231-6.457
				c-3.41-4.685,1.308-13.702-0.52-19.33c-1.763-5.431-10.938-9.925-10.938-15.943c0-6.019,9.175-10.513,10.938-15.943
				c1.827-5.628-2.894-14.645,0.52-19.33c3.444-4.736,13.499-3.014,18.231-6.457c4.685-3.41,6.14-13.523,11.768-15.35
				c5.431-1.763,12.527,5.506,18.549,5.506c6.023,0,13.115-7.269,18.55-5.506c5.628,1.827,7.083,11.94,11.768,15.35
				c4.736,3.443,14.788,1.726,18.231,6.457c3.41,4.685-1.308,13.702,0.52,19.33C178.827,151.014,188.002,155.508,188.002,161.526z"
				/>
		</g>
		<g>
			<g>
				<path fill="#F79219" d="M177.064,177.47c1.763-5.431,10.938-9.925,10.938-15.943c0-6.019-9.175-10.513-10.938-15.943
					c-1.827-5.628,2.89-14.645-0.52-19.33c-1.746-2.399-5.193-3.14-8.784-3.737c-0.327,4.382-1.877,9.431-0.697,13.066
					c1.763,5.431,10.938,9.925,10.938,15.943c0,6.019-9.175,10.513-10.938,15.943c-1.827,5.628,2.894,14.645-0.52,19.33
					c-3.444,4.736-13.499,3.014-18.231,6.457c-4.685,3.41-6.14,13.522-11.768,15.35c-5.431,1.763-12.527-5.506-18.549-5.506
					c-5.174,0-11.137,5.364-16.161,5.759c2.121,4.025,4.014,8.579,7.612,9.747c5.435,1.763,12.527-5.506,18.549-5.506
					c6.023,0,13.119,7.269,18.549,5.506c5.628-1.827,7.083-11.94,11.768-15.35c4.732-3.443,14.787-1.721,18.231-6.457
					C179.958,192.115,175.237,183.098,177.064,177.47z"/>
			</g>
		</g>
		<g>
			<path fill="#F1F2F2" d="M109.399,162.364c-7.869,0-14.248-6.379-14.248-14.248c0-7.869,6.379-14.248,14.248-14.248
				c7.869,0,14.248,6.379,14.248,14.248C123.638,155.982,117.264,162.356,109.399,162.364z M109.399,140.448
				c-4.236,0-7.67,3.434-7.67,7.67c0,4.236,3.434,7.67,7.67,7.67c4.236,0,7.67-3.434,7.67-7.67c0,0,0-0.001,0-0.001
				C117.064,143.883,113.633,140.453,109.399,140.448z"/>
		</g>
		<g>
			<path fill="#F1F2F2" d="M146.6,189.184c-7.869,0-14.248-6.379-14.248-14.248c0-7.869,6.379-14.248,14.248-14.248
				s14.248,6.379,14.248,14.248C160.839,182.801,154.465,189.175,146.6,189.184z M146.6,167.268c-4.236,0-7.67,3.434-7.67,7.67
				s3.434,7.67,7.67,7.67s7.67-3.434,7.67-7.67c0,0,0-0.001,0-0.001C154.264,170.702,150.833,167.272,146.6,167.268z"/>
		</g>
		<g>
			<path fill="#F1F2F2" d="M103.925,188.894c-1.816,0-3.289-1.472-3.29-3.288c0-0.873,0.346-1.71,0.964-2.327l48.159-48.158
				c1.306-1.262,3.389-1.226,4.651,0.081c1.231,1.275,1.231,3.295,0,4.57l-48.159,48.159
				C105.634,188.549,104.797,188.895,103.925,188.894z"/>
		</g>
	</g>
</g>
</svg>
