<?xml version="1.0" encoding="utf-8"?>
<!-- Generator: Adobe Illustrator 24.0.0, SVG Export Plug-In . SVG Version: 6.00 Build 0)  -->
<svg version="1.1" id="Layer_1" xmlns="http://www.w3.org/2000/svg" xmlns:xlink="http://www.w3.org/1999/xlink" x="0px" y="0px"
	 viewBox="0 0 256 256" enable-background="new 0 0 256 256" xml:space="preserve">
<g>
	<g>
		<g>
			<g>
				<ellipse fill="#808285" cx="128" cy="119.76" rx="117.584" ry="21.164"/>
			</g>
		</g>
		<g>
			<path fill="#58595B" d="M235.349,111.11c-3.87,11.06-54.929,19.813-117.349,19.813c-47.822,0-88.975-5.139-107.349-12.515
				c-0.156,0.447-0.236,0.897-0.236,1.351c0,11.688,52.644,21.164,117.584,21.164s117.584-9.476,117.584-21.164
				C245.584,116.678,241.926,113.751,235.349,111.11z"/>
		</g>
		<g>
			<path fill="#414042" d="M240.385,113.517c0.132,0.411,0.2,0.826,0.2,1.243c0,11.688-52.644,21.164-117.584,21.164
				c-52.867,0-97.585-6.28-112.385-14.921c3.574,11.11,54.763,19.921,117.385,19.921c64.94,0,117.584-9.476,117.584-21.164
				C245.584,117.586,243.765,115.49,240.385,113.517z"/>
		</g>
		<g>
			<g>
				<path fill="#808285" d="M183.17,109.121c0,12.842-110.34,12.842-110.34,0l15.328-62.844c2.077-8.516,11.845-12.541,19.319-7.962
					l2.813,1.724c10.868,6.659,24.552,6.659,35.419,0l2.813-1.724c7.474-4.579,17.242-0.553,19.319,7.962L183.17,109.121z"/>
			</g>
		</g>
		<g>
			<g>
				<path fill="#58595B" d="M76.8,92.845l-3.97,16.276c0,12.842,110.34,12.842,110.34,0l-3.97-16.276
					C162.016,100.509,93.984,100.509,76.8,92.845z"/>
			</g>
		</g>
		<g>
			<g>
				<path fill="#808285" d="M51.515,163.341l10.672,28.78c7.971,18.427,31.114,24.494,47.1,12.347l0,0
					c11.06-8.404,26.366-8.404,37.425,0l0,0c15.986,12.147,39.129,6.081,47.1-12.347l10.672-28.78
					c1.325-3.572-1.656-7.252-5.426-6.706c-47.373,6.868-94.746,6.868-142.118,0C53.171,156.089,50.19,159.769,51.515,163.341z
					 M170.009,194.026c-10.472,2.952-22.4-5.387-22.4-5.387s3.106-13.514,16.659-13.514c11.603,0,21.265,0,21.265,0
					S180.481,191.073,170.009,194.026z M74.309,175.125c0,0,9.661,0,21.265,0c13.553,0,16.659,13.514,16.659,13.514
					s-11.928,8.339-22.4,5.387C79.36,191.073,74.309,175.125,74.309,175.125z"/>
			</g>
		</g>
		<g>
			<path fill="#939598" d="M128,169.79c-23.414,0.002-47.157-1.684-70.561-5c-2.582-0.434-2.095-4.237,0.561-3.96
				c26.452,3.734,52.971,5.388,79.479,4.859c1.08,0,1.98,0.88,2,1.971c0.041,1.07-0.889,2.037-1.96,2.029
				C134.34,169.75,131.14,169.79,128,169.79z M145.479,169.47c-2.596-0.028-2.649-3.869-0.069-3.99c0-0.01,0-0.01,0.01,0
				C148.096,165.445,148.14,169.43,145.479,169.47z"/>
		</g>
		<g>
			<g>
				<path fill="#58595B" d="M199.804,156.582c0,0.577-0.1,1.169-0.319,1.759l-10.673,28.78c-7.971,18.427-31.114,24.494-47.1,12.347
					h0c-11.06-8.404-26.366-8.404-37.425,0h0c-11.736,8.918-27.329,8.019-37.945-0.38c10.126,12.798,29.186,15.835,42.945,5.38h0
					c11.06-8.404,26.366-8.404,37.425,0h0c15.986,12.147,39.129,6.081,47.1-12.347l10.673-28.78
					C205.721,160.008,203.209,156.582,199.804,156.582z"/>
			</g>
		</g>
	</g>
	<g>
		<g>
			<g>
				<circle fill="#F79219" cx="128" cy="80.41" r="27.982"/>
			</g>
		</g>
		<g>
			<path fill="#EF7816" d="M145.128,58.281c3.669,4.733,5.854,10.676,5.854,17.128c0,15.454-12.528,27.982-27.982,27.982
				c-6.453,0-12.395-2.185-17.128-5.854c5.119,6.603,13.127,10.854,22.128,10.854c15.454,0,27.982-12.528,27.982-27.982
				C155.982,71.408,151.732,63.4,145.128,58.281z"/>
		</g>
		<g>
			<g>
				<path fill="#F1F2F2" d="M128,85.58L128,85.58c-2.962,0-5.363-2.401-5.363-5.363v-14.48c0-2.962,2.401-5.363,5.363-5.363h0
					c2.962,0,5.363,2.401,5.363,5.363v14.48C133.363,83.179,130.962,85.58,128,85.58z"/>
			</g>
			<g>
				<path fill="#F1F2F2" d="M128,100.445L128,100.445c-2.962,0-5.363-2.401-5.363-5.363v0c0-2.962,2.401-5.363,5.363-5.363h0
					c2.962,0,5.363,2.401,5.363,5.363v0C133.363,98.044,130.962,100.445,128,100.445z"/>
			</g>
		</g>
	</g>
</g>
</svg>
