<?xml version="1.0" encoding="utf-8"?>
<!-- Generator: Adobe Illustrator 24.0.0, SVG Export Plug-In . SVG Version: 6.00 Build 0)  -->
<svg version="1.1" id="Layer_1" xmlns="http://www.w3.org/2000/svg" xmlns:xlink="http://www.w3.org/1999/xlink" x="0px" y="0px"
	 viewBox="0 0 256 256" enable-background="new 0 0 256 256" xml:space="preserve">
<g>
	<g>
		<g>
			<g>
				<g>
					<g>
						<path fill="#76A34F" d="M87.874,20.091c-39.545,0.031-72.143,32.38-72.463,71.924c-0.117,14.494,4.019,28.014,11.234,39.389
							c0.69,1.087,0.865,2.422,0.432,3.635l-7.194,20.163c-1.168,3.273,1.992,6.434,5.266,5.266l20.097-7.17
							c1.218-0.435,2.559-0.256,3.649,0.441c12.003,7.682,26.415,11.93,41.854,11.345c37.774-1.432,68.386-32.178,69.662-69.958
							C161.803,53.907,128.787,20.059,87.874,20.091z"/>
					</g>
				</g>
				<g>
					<path fill="#648940" d="M133.803,36.465c10.701,13.095,16.927,29.989,16.307,48.358c-1.276,37.78-31.888,68.526-69.662,69.958
						c-15.439,0.585-29.851-3.662-41.854-11.345c-1.09-0.697-2.431-0.876-3.649-0.441l-12.268,4.377l-2.793,7.829
						c-1.168,3.274,1.992,6.434,5.266,5.266l20.097-7.17c1.218-0.435,2.559-0.256,3.649,0.441
						c12.003,7.682,26.415,11.93,41.854,11.345c37.774-1.432,68.386-32.178,69.662-69.958
						C161.21,71.467,150.661,50.254,133.803,36.465z"/>
				</g>
				<g>
					<g>
						<path fill="#A54AF4" d="M229.354,202.177c7.216-11.376,11.352-24.898,11.234-39.394
							c-0.322-39.544-32.923-71.892-72.469-71.919c-40.912-0.028-73.924,33.82-72.53,75.037
							c1.278,37.779,31.891,68.523,69.664,69.954c15.438,0.585,29.85-3.663,41.852-11.345c1.089-0.697,2.431-0.876,3.649-0.441
							l20.097,7.17c3.274,1.168,6.434-1.992,5.266-5.266l-7.194-20.162C228.49,204.599,228.665,203.265,229.354,202.177z"/>
					</g>
				</g>
				<g>
					<path fill="#893ADD" d="M228.922,205.812c-0.433-1.213-0.258-2.547,0.432-3.635c7.216-11.376,11.352-24.898,11.234-39.394
						c-0.181-22.286-10.617-42.284-26.768-55.501c10.151,12.374,16.327,28.111,16.466,45.2c0.118,14.496-4.018,28.018-11.234,39.394
						c-0.69,1.087-0.865,2.422-0.432,3.635l7.194,20.162c1.168,3.274-1.992,6.434-5.266,5.266l-20.097-7.17
						c-1.218-0.435-2.559-0.256-3.649,0.441c-12.002,7.682-26.414,11.929-41.852,11.345c-16.254-0.616-31.173-6.669-43.008-16.365
						c12.771,15.607,31.885,25.854,53.31,26.666c15.438,0.585,29.85-3.663,41.852-11.345c1.089-0.697,2.431-0.876,3.649-0.441
						l20.097,7.17c3.273,1.168,6.434-1.992,5.266-5.266L228.922,205.812z"/>
				</g>
			</g>
			<g>
				<g>
					<path fill="#FFFFFF" d="M93.287,49.18H80.624c-11.044,0-20.029,8.985-20.029,20.028c0,2.315,1.884,4.199,4.199,4.199
						s4.199-1.884,4.199-4.199c0-6.413,5.218-11.631,11.631-11.631h12.663c6.413,0,11.631,5.218,11.631,11.631
						c0,6.413-5.218,11.63-11.631,11.63c-5.807,0-10.531,4.724-10.531,10.531v22.237c0,2.315,1.884,4.199,4.199,4.199
						s4.199-1.884,4.199-4.199V91.37c0-1.176,0.957-2.133,2.133-2.133c11.044,0,20.029-8.985,20.029-20.028
						C113.316,58.165,104.331,49.18,93.287,49.18z"/>
				</g>
				<g>
					<circle fill="#FFFFFF" cx="86.955" cy="129.36" r="4.196"/>
				</g>
			</g>
		</g>
		<g>
			<path fill="#91B56B" d="M21.41,94.06c-1.113-0.003-2.011-0.906-2-2.01c0.14-17.36,6.87-33.89,18.96-46.57
				c0.739-0.779,2.06-0.81,2.83-0.069c0.39,0.37,0.609,0.87,0.619,1.399c0.011,0.54-0.18,1.04-0.55,1.431
				C29.89,60.18,23.55,75.75,23.41,92.08C23.399,93.17,22.5,94.06,21.41,94.06z M45.66,43.399c-1.812,0.064-2.721-2.441-1.271-3.54
				c0,0,0,0,0.01,0c2.057-1.594,4.533,1.359,2.54,3.08C46.582,43.239,46.133,43.398,45.66,43.399z"/>
		</g>
	</g>
	<g>
		<g>
			<g>
				<circle fill="#FFA91A" cx="168.069" cy="163.387" r="46.099"/>
			</g>
			<g>
				<path fill="#F79219" d="M194.436,125.582c5.222,7.473,8.295,16.559,8.295,26.367c0,25.46-20.639,46.099-46.099,46.099
					c-9.808,0-18.894-3.072-26.367-8.295c8.333,11.925,22.153,19.732,37.805,19.732c25.46,0,46.099-20.639,46.099-46.099
					C214.168,147.735,206.361,133.915,194.436,125.582z"/>
			</g>
			<g>
				<path fill="#EF7816" d="M197.676,128.06c6.721,8.01,10.773,18.334,10.773,29.608c0,25.46-20.639,46.099-46.099,46.099
					c-11.274,0-21.598-4.052-29.607-10.773c8.456,10.079,21.14,16.492,35.326,16.492c25.46,0,46.099-20.639,46.099-46.099
					C214.168,149.201,207.755,136.517,197.676,128.06z"/>
			</g>
		</g>
		<g>
			<g>
				<path fill="#FFFFFF" d="M172.265,189.557h-8.392c-6.887,0-12.489-5.603-12.489-12.488c0-1.104,0.896-2,2-2s2,0.896,2,2
					c0,4.681,3.809,8.488,8.489,8.488h8.392c4.681,0,8.488-3.808,8.488-8.488v-4.196c0-4.681-3.808-8.488-8.488-8.488h-8.392
					c-6.887,0-12.489-5.603-12.489-12.489s5.603-12.489,12.489-12.489h8.392c6.886,0,12.488,5.603,12.488,12.489
					c0,1.104-0.896,2-2,2s-2-0.896-2-2c0-4.681-3.808-8.489-8.488-8.489h-8.392c-4.681,0-8.489,3.809-8.489,8.489
					s3.809,8.489,8.489,8.489h8.392c6.886,0,12.488,5.603,12.488,12.488v4.196C184.753,183.954,179.15,189.557,172.265,189.557z"/>
			</g>
			<g>
				<path fill="#FFFFFF" d="M168.068,193.752c-1.104,0-2-0.896-2-2V137.21c0-1.104,0.896-2,2-2s2,0.896,2,2v54.542
					C170.068,192.856,169.173,193.752,168.068,193.752z"/>
			</g>
		</g>
	</g>
</g>
</svg>
