<?xml version="1.0" encoding="utf-8"?>
<!-- Generator: Adobe Illustrator 24.0.0, SVG Export Plug-In . SVG Version: 6.00 Build 0)  -->
<svg version="1.1" id="Layer_1" xmlns="http://www.w3.org/2000/svg" xmlns:xlink="http://www.w3.org/1999/xlink" x="0px" y="0px"
	 viewBox="0 0 256 256" enable-background="new 0 0 256 256" xml:space="preserve">
<g>
	<g>
		<g>
			<path fill="#FFA91A" d="M207.969,216.461h-63.213c-4.418,0-8-3.582-8-8v-99.066c0-4.418,3.582-8,8-8h63.213c4.418,0,8,3.582,8,8
				v99.066C215.969,212.88,212.387,216.461,207.969,216.461z"/>
		</g>
		<g>
			<path fill="#F79219" d="M207.969,101.396h-2v97.066c0,4.418-3.582,8-8,8h-61.213v2c0,4.418,3.582,8,8,8h63.213
				c4.418,0,8-3.582,8-8v-99.066C215.969,104.978,212.387,101.396,207.969,101.396z"/>
		</g>
		<g>
			<path fill="#EF7816" d="M210.545,101.82c0.275,0.808,0.424,1.675,0.424,2.576v99.066c0,4.418-3.582,8-8,8h-63.213
				c-0.901,0-1.768-0.149-2.576-0.424c1.072,3.155,4.059,5.424,7.576,5.424h63.213c4.418,0,8-3.582,8-8v-99.066
				C215.969,105.879,213.699,102.892,210.545,101.82z"/>
		</g>
		<g>
			<g>
				<g>
					
						<ellipse transform="matrix(0.9239 -0.3827 0.3827 0.9239 -37.5228 77.5663)" fill="#414042" cx="176.215" cy="133.103" rx="23.353" ry="23.353"/>
				</g>
				<g>
					
						<ellipse transform="matrix(0.1602 -0.9871 0.9871 0.1602 16.604 285.7218)" fill="#808285" cx="176.215" cy="133.103" rx="18.967" ry="18.967"/>
				</g>
				<g>
					<path fill="#58595B" d="M186.892,117.425c2.075,3.042,3.289,6.718,3.289,10.678c0,10.475-8.492,18.967-18.967,18.967
						c-3.96,0-7.636-1.213-10.678-3.289c3.415,5.004,9.162,8.289,15.678,8.289c10.475,0,18.967-8.492,18.967-18.967
						C195.182,126.588,191.896,120.84,186.892,117.425z"/>
				</g>
				<g>
					<path fill="#58595B" d="M182.926,133.103c0,3.707-3.005,6.711-6.711,6.711c-3.707,0-6.711-3.005-6.711-6.711
						c0-3.706,3.005-6.711,6.711-6.711C179.921,126.392,182.926,129.397,182.926,133.103z"/>
				</g>
			</g>
			<g>
				<g>
					
						<ellipse transform="matrix(0.9239 -0.3827 0.3827 0.9239 -57.4016 81.5205)" fill="#414042" cx="176.215" cy="185.049" rx="23.353" ry="23.353"/>
				</g>
				<g>
					
						<ellipse transform="matrix(0.1602 -0.9871 0.9871 0.1602 -34.671 329.3468)" fill="#808285" cx="176.215" cy="185.049" rx="18.967" ry="18.967"/>
				</g>
				<g>
					<path fill="#58595B" d="M186.892,169.371c2.075,3.042,3.289,6.718,3.289,10.678c0,10.475-8.492,18.967-18.967,18.967
						c-3.96,0-7.636-1.213-10.678-3.289c3.415,5.004,9.162,8.289,15.678,8.289c10.475,0,18.967-8.492,18.967-18.967
						C195.182,178.534,191.896,172.786,186.892,169.371z"/>
				</g>
				<g>
					<path fill="#58595B" d="M182.926,185.049c0,3.707-3.005,6.711-6.711,6.711c-3.707,0-6.711-3.005-6.711-6.711
						c0-3.706,3.005-6.711,6.711-6.711C179.921,178.338,182.926,181.342,182.926,185.049z"/>
				</g>
			</g>
		</g>
		<g>
			<path fill="#FFA91A" d="M111.244,216.461H48.031c-4.418,0-8-3.582-8-8v-99.066c0-4.418,3.582-8,8-8h63.213c4.418,0,8,3.582,8,8
				v99.066C119.244,212.88,115.663,216.461,111.244,216.461z"/>
		</g>
		<g>
			<path fill="#F79219" d="M111.244,101.396h-2v97.066c0,4.418-3.582,8-8,8H40.031v2c0,4.418,3.582,8,8,8h63.213
				c4.418,0,8-3.582,8-8v-99.066C119.244,104.978,115.663,101.396,111.244,101.396z"/>
		</g>
		<g>
			<g>
				<g>
					
						<ellipse transform="matrix(0.9239 -0.3827 0.3827 0.9239 -44.8855 40.5514)" fill="#414042" cx="79.49" cy="133.103" rx="23.353" ry="23.353"/>
				</g>
				<g>
					
						<ellipse transform="matrix(0.1602 -0.9871 0.9871 0.1602 -64.627 190.2462)" fill="#808285" cx="79.49" cy="133.103" rx="18.967" ry="18.967"/>
				</g>
				<g>
					<path fill="#58595B" d="M90.168,117.425c2.075,3.042,3.289,6.718,3.289,10.678c0,10.475-8.492,18.967-18.967,18.967
						c-3.96,0-7.636-1.213-10.677-3.289c3.415,5.004,9.162,8.289,15.677,8.289c10.475,0,18.967-8.492,18.967-18.967
						C98.457,126.588,95.172,120.84,90.168,117.425z"/>
				</g>
				<g>
					<path fill="#58595B" d="M86.202,133.103c0,3.707-3.005,6.711-6.711,6.711c-3.707,0-6.711-3.005-6.711-6.711
						c0-3.706,3.005-6.711,6.711-6.711C83.197,126.392,86.202,129.397,86.202,133.103z"/>
				</g>
			</g>
			<g>
				<g>
					
						<ellipse transform="matrix(0.9239 -0.3827 0.3827 0.9239 -64.7643 44.5056)" fill="#414042" cx="79.49" cy="185.049" rx="23.353" ry="23.353"/>
				</g>
				<g>
					
						<ellipse transform="matrix(0.1602 -0.9871 0.9871 0.1602 -115.9021 233.8712)" fill="#808285" cx="79.49" cy="185.049" rx="18.967" ry="18.967"/>
				</g>
				<g>
					<path fill="#58595B" d="M90.168,169.371c2.076,3.042,3.289,6.718,3.289,10.678c0,10.475-8.492,18.967-18.967,18.967
						c-3.96,0-7.636-1.213-10.677-3.289c3.415,5.004,9.162,8.289,15.677,8.289c10.475,0,18.967-8.492,18.967-18.967
						C98.457,178.534,95.172,172.786,90.168,169.371z"/>
				</g>
				<g>
					<path fill="#58595B" d="M86.202,185.049c0,3.707-3.005,6.711-6.711,6.711c-3.707,0-6.711-3.005-6.711-6.711
						c0-3.706,3.005-6.711,6.711-6.711C83.197,178.338,86.202,181.342,86.202,185.049z"/>
				</g>
			</g>
		</g>
		<g>
			<path fill="#939598" d="M207.969,39.539H48.031c-4.418,0-8,3.582-8,8v28.241c0,4.418,3.582,8,8,8h159.938c4.418,0,8-3.582,8-8
				V47.539C215.969,43.12,212.387,39.539,207.969,39.539z"/>
		</g>
		<g>
			<path fill="#808285" d="M210.545,39.962c0.275,0.809,0.424,1.675,0.424,2.576v28.241c0,4.418-3.582,8-8,8H43.031
				c-0.901,0-1.768-0.149-2.576-0.424c1.072,3.154,4.059,5.424,7.576,5.424h159.938c4.418,0,8-3.582,8-8V47.539
				C215.969,44.021,213.699,41.035,210.545,39.962z"/>
		</g>
		<g>
			<g>
				<g>
					<circle fill="#FFA91A" cx="65.532" cy="61.62" r="13.858"/>
				</g>
				<g>
					<path fill="#F79219" d="M72.509,49.644c1.196,2.049,1.882,4.433,1.882,6.977c0,7.654-6.205,13.859-13.858,13.859
						c-2.544,0-4.928-0.686-6.977-1.882c2.403,4.116,6.867,6.882,11.977,6.882c7.654,0,13.858-6.205,13.858-13.859
						C79.39,56.51,76.625,52.047,72.509,49.644z"/>
				</g>
				<g>
					<path fill="#FFA91A" d="M179.943,75.479H92.96c-2.209,0-4-1.791-4-4V51.762c0-2.209,1.791-4,4-4h86.983c2.209,0,4,1.791,4,4
						v19.717C183.943,73.688,182.152,75.479,179.943,75.479z"/>
				</g>
				<g>
					<path fill="#F79219" d="M179.943,47.762h-1v18.717c0,2.209-1.791,4-4,4H88.96v1c0,2.209,1.791,4,4,4h86.984
						c2.209,0,4-1.791,4-4V51.762C183.943,49.553,182.152,47.762,179.943,47.762z"/>
				</g>
				<g>
					<g>
						<path fill="#FFA91A" d="M204.2,53.223h-12.568c-1.508,0-2.731-1.223-2.731-2.731v0c0-1.508,1.223-2.731,2.731-2.731H204.2
							c1.508,0,2.731,1.223,2.731,2.731v0C206.931,52.001,205.708,53.223,204.2,53.223z"/>
					</g>
					<g>
						<path fill="#FFA91A" d="M204.2,64.351h-12.568c-1.508,0-2.731-1.223-2.731-2.731v0c0-1.508,1.223-2.731,2.731-2.731H204.2
							c1.508,0,2.731,1.223,2.731,2.731v0C206.931,63.128,205.708,64.351,204.2,64.351z"/>
					</g>
					<g>
						<path fill="#FFA91A" d="M204.2,75.479h-12.568c-1.508,0-2.731-1.223-2.731-2.731l0,0c0-1.508,1.223-2.731,2.731-2.731H204.2
							c1.508,0,2.731,1.223,2.731,2.731l0,0C206.931,74.256,205.708,75.479,204.2,75.479z"/>
					</g>
				</g>
			</g>
			<g>
				<g>
					<g>
						<path fill="#E63950" d="M114.164,56.535h-8.411c-1.226,0-2.219-0.994-2.219-2.219v0c0-1.226,0.994-2.219,2.219-2.219h8.411
							c1.226,0,2.219,0.994,2.219,2.219v0C116.384,55.541,115.39,56.535,114.164,56.535z"/>
					</g>
					<g>
						<path fill="#E63950" d="M114.164,63.84h-8.411c-1.226,0-2.219-0.994-2.219-2.219v0c0-1.226,0.994-2.219,2.219-2.219h8.411
							c1.226,0,2.219,0.994,2.219,2.219v0C116.384,62.846,115.39,63.84,114.164,63.84z"/>
					</g>
					<g>
						<path fill="#E63950" d="M114.164,71.145h-8.411c-1.226,0-2.219-0.994-2.219-2.219l0,0c0-1.226,0.994-2.219,2.219-2.219h8.411
							c1.226,0,2.219,0.994,2.219,2.219l0,0C116.384,70.151,115.39,71.145,114.164,71.145z"/>
					</g>
				</g>
				<g>
					<g>
						<path fill="#E63950" d="M131.803,63.84h-8.411c-1.226,0-2.219-0.994-2.219-2.219v0c0-1.226,0.994-2.219,2.219-2.219h8.411
							c1.226,0,2.219,0.994,2.219,2.219v0C134.023,62.846,133.029,63.84,131.803,63.84z"/>
					</g>
					<g>
						<path fill="#E63950" d="M131.803,71.145h-8.411c-1.226,0-2.219-0.994-2.219-2.219l0,0c0-1.226,0.994-2.219,2.219-2.219h8.411
							c1.226,0,2.219,0.994,2.219,2.219l0,0C134.023,70.151,133.029,71.145,131.803,71.145z"/>
					</g>
				</g>
				<g>
					<g>
						<path fill="#E63950" d="M149.442,71.145h-8.411c-1.226,0-2.219-0.994-2.219-2.219l0,0c0-1.226,0.994-2.219,2.219-2.219h8.411
							c1.226,0,2.219,0.994,2.219,2.219l0,0C151.662,70.151,150.668,71.145,149.442,71.145z"/>
					</g>
				</g>
				<g>
					<g>
						<path fill="#E63950" d="M167.081,56.535h-8.411c-1.226,0-2.219-0.994-2.219-2.219v0c0-1.226,0.994-2.219,2.219-2.219h8.411
							c1.226,0,2.219,0.994,2.219,2.219v0C169.301,55.541,168.307,56.535,167.081,56.535z"/>
					</g>
					<g>
						<path fill="#E63950" d="M167.081,63.84h-8.411c-1.226,0-2.219-0.994-2.219-2.219v0c0-1.226,0.994-2.219,2.219-2.219h8.411
							c1.226,0,2.219,0.994,2.219,2.219v0C169.301,62.846,168.307,63.84,167.081,63.84z"/>
					</g>
					<g>
						<path fill="#E63950" d="M167.081,71.145h-8.411c-1.226,0-2.219-0.994-2.219-2.219l0,0c0-1.226,0.994-2.219,2.219-2.219h8.411
							c1.226,0,2.219,0.994,2.219,2.219l0,0C169.301,70.151,168.307,71.145,167.081,71.145z"/>
					</g>
				</g>
			</g>
		</g>
	</g>
	<g>
		<path fill="#FFC91D" d="M46.03,197.43c-1.101,0-2-0.9-2-2c0-1.11,0.899-2,2-2c1.1,0,2,0.89,2,2
			C48.03,196.529,47.13,197.43,46.03,197.43z M46.03,189.43c-1.101,0-2-0.9-2-2v-78.03c0.01-2.21,1.8-4,4-4H66.76
			c0.03,0,0.06,0,0.1,0h8c1.101,0,2,0.891,2,2c0,1.101-0.899,1.99-2,1.99H48.03c0.01,0,0,0.01,0,0.01v78.03
			C48.03,188.529,47.13,189.43,46.03,189.43z"/>
	</g>
</g>
</svg>
