<?xml version="1.0" encoding="utf-8"?>
<!-- Generator: Adobe Illustrator 24.0.0, SVG Export Plug-In . SVG Version: 6.00 Build 0)  -->
<svg version="1.1" id="Layer_1" xmlns="http://www.w3.org/2000/svg" xmlns:xlink="http://www.w3.org/1999/xlink" x="0px" y="0px"
	 viewBox="0 0 256 256" enable-background="new 0 0 256 256" xml:space="preserve">
<g>
	<g>
		<g>
			<path fill="#F1F2F2" d="M190.498,226.556H65.502c-5.017,0-9.084-4.067-9.084-9.084V38.528c0-5.017,4.067-9.084,9.084-9.084
				h124.995c5.017,0,9.084,4.067,9.084,9.084v178.944C199.581,222.489,195.515,226.556,190.498,226.556z"/>
		</g>
		<g>
			<path fill="#E6E7E8" d="M190.498,29.444h-0.916v178.028c0,5.017-4.067,9.083-9.084,9.083H56.419v0.917
				c0,5.017,4.067,9.083,9.084,9.083h124.995c5.017,0,9.084-4.067,9.084-9.083V38.528C199.581,33.511,195.515,29.444,190.498,29.444
				z"/>
		</g>
		<g>
			<path fill="#D1D3D4" d="M193.916,30.11c0.429,1.055,0.666,2.209,0.666,3.418v178.944c0,5.017-4.067,9.083-9.084,9.083H60.502
				c-1.209,0-2.363-0.237-3.418-0.666c1.35,3.323,4.61,5.666,8.418,5.666h124.995c5.017,0,9.084-4.067,9.084-9.083V38.528
				C199.581,34.72,197.238,31.46,193.916,30.11z"/>
		</g>
		<g>
			<path fill="#FFFFFF" d="M62.42,68.58c-1.1,0-2-0.9-2-2c0-1.101,0.9-2,2-2s2,0.899,2,2C64.42,67.68,63.52,68.58,62.42,68.58z
				 M62.42,60.58c-1.1,0-2-0.9-2-2V38.529c0-2.8,2.28-5.079,5.08-5.09h63.11c1.1,0,2,0.9,2,2c0,1.11-0.9,2-2,2H65.5
				c-0.58,0-1.08,0.5-1.08,1.09V58.58C64.42,59.68,63.52,60.58,62.42,60.58z"/>
		</g>
	</g>
	<g>
		<g>
			<path fill="#808285" d="M142.471,206.234L142.471,206.234c-8.208,0-14.862-6.654-14.862-14.862V64.629
				c0-8.208,6.654-14.862,14.862-14.862h0c8.208,0,14.862,6.654,14.862,14.862v126.743
				C157.333,199.58,150.679,206.234,142.471,206.234z"/>
		</g>
		<g>
			<path fill="#58595B" d="M146.718,50.382c0.401,1.346,0.616,2.771,0.616,4.247v126.743c0,8.208-6.654,14.862-14.862,14.862
				c-1.476,0-2.901-0.215-4.247-0.616c1.827,6.139,7.514,10.616,14.247,10.616c8.208,0,14.862-6.654,14.862-14.862V64.628
				C157.333,57.896,152.857,52.209,146.718,50.382z"/>
		</g>
		<g>
			<path fill="#FFA91A" d="M169.717,119.124h-54.493c-5.017,0-9.084-4.067-9.084-9.084V94.354c0-5.017,4.067-9.084,9.084-9.084
				h54.493c5.017,0,9.084,4.067,9.084,9.084v15.686C178.801,115.057,174.734,119.124,169.717,119.124z"/>
		</g>
		<g>
			<path fill="#F79219" d="M173.135,85.936c0.429,1.055,0.666,2.209,0.666,3.418v15.686c0,5.017-4.067,9.084-9.084,9.084h-54.493
				c-1.209,0-2.363-0.237-3.418-0.666c1.35,3.322,4.61,5.666,8.418,5.666h54.493c5.017,0,9.084-4.067,9.084-9.084V94.354
				C178.801,90.547,176.458,87.287,173.135,85.936z"/>
		</g>
		<g>
			<rect x="147.409" y="85.271" fill="#F79219" width="9.924" height="33.853"/>
		</g>
		<g>
			<path fill="#EF7816" d="M179.945,108.267h-1.144V94.354h1.144c2.508,0,4.542,2.033,4.542,4.542v4.828
				C184.487,106.233,182.454,108.267,179.945,108.267z"/>
		</g>
		<g>
			<g>
				<path fill="#D1D3D4" d="M90.206,82.557H75.74c-2.335,0-4.227-1.893-4.227-4.227v0c0-2.335,1.893-4.227,4.227-4.227h14.466
					c2.335,0,4.227,1.893,4.227,4.227v0C94.434,80.664,92.541,82.557,90.206,82.557z"/>
			</g>
			<g>
				<path fill="#D1D3D4" d="M90.206,115.514H75.74c-2.335,0-4.227-1.893-4.227-4.227v0c0-2.335,1.893-4.227,4.227-4.227h14.466
					c2.335,0,4.227,1.893,4.227,4.227v0C94.434,113.621,92.541,115.514,90.206,115.514z"/>
			</g>
			<g>
				<path fill="#D1D3D4" d="M90.206,148.47H75.74c-2.335,0-4.227-1.893-4.227-4.227v0c0-2.335,1.893-4.227,4.227-4.227h14.466
					c2.335,0,4.227,1.893,4.227,4.227v0C94.434,146.578,92.541,148.47,90.206,148.47z"/>
			</g>
			<g>
				<path fill="#D1D3D4" d="M90.206,181.427H75.74c-2.335,0-4.227-1.893-4.227-4.227v0c0-2.335,1.893-4.227,4.227-4.227h14.466
					c2.335,0,4.227,1.893,4.227,4.227v0C94.434,179.534,92.541,181.427,90.206,181.427z"/>
			</g>
		</g>
	</g>
</g>
</svg>
