<?xml version="1.0" encoding="utf-8"?>
<!-- Generator: Adobe Illustrator 24.0.0, SVG Export Plug-In . SVG Version: 6.00 Build 0)  -->
<svg version="1.1" id="Layer_1" xmlns="http://www.w3.org/2000/svg" xmlns:xlink="http://www.w3.org/1999/xlink" x="0px" y="0px"
	 viewBox="0 0 256 256" enable-background="new 0 0 256 256" xml:space="preserve">
<g>
	<g>
		<path fill="#478CF7" d="M210.251,44.721h-99.607c-2.14,0-4.191,0.857-5.694,2.381l-65.345,66.217
			c-1.477,1.497-2.306,3.516-2.306,5.619v90.991c0,4.418,3.582,8,8,8h164.952c4.418,0,8-3.582,8-8V52.721
			C218.251,48.302,214.669,44.721,210.251,44.721z"/>
	</g>
	<g>
		<path fill="#377DE2" d="M210.251,44.721h-2v155.208c0,4.418-3.582,8-8,8H37.3v2c0,4.418,3.582,8,8,8h164.952c4.418,0,8-3.582,8-8
			V52.721C218.251,48.302,214.669,44.721,210.251,44.721z"/>
	</g>
	<g>
		<path fill="#2266D3" d="M212.827,45.145c0.275,0.809,0.424,1.675,0.424,2.576v157.208c0,4.418-3.582,8-8,8H40.3
			c-0.901,0-1.768-0.149-2.576-0.424c1.072,3.154,4.059,5.424,7.576,5.424h164.952c4.418,0,8-3.582,8-8V52.721
			C218.251,49.204,215.982,46.217,212.827,45.145z"/>
	</g>
	<g>
		<path fill="#F1F2F2" d="M202.515,114.255H62.141c-1.775,0-2.671-2.141-1.424-3.405l51.656-52.345
			c1.222-1.239,2.89-1.936,4.631-1.936h81.004c3.593,0,6.506,2.913,6.506,6.506v49.18
			C204.515,113.36,203.62,114.255,202.515,114.255z"/>
	</g>
	<g>
		<path fill="#E6E7E8" d="M198.009,56.569h-13.494v45.686c0,1.104-0.895,2-2,2H67.226l-6.508,6.595
			c-1.247,1.264-0.352,3.405,1.424,3.405h140.374c1.105,0,2-0.896,2-2v-49.18C204.515,59.482,201.602,56.569,198.009,56.569z"/>
	</g>
	<g>
		<path fill="#FFA91A" d="M200.515,158.805H167.3c-2.209,0-4-1.791-4-4v-4.254c0-4.418,3.582-8,8-8h25.216c4.418,0,8,3.582,8,8
			v4.254C204.515,157.014,202.724,158.805,200.515,158.805z"/>
	</g>
	<g>
		<path fill="#F79219" d="M199.091,142.975c0.275,0.809,0.424,1.675,0.424,2.576v4.254c0,2.209-1.791,4-4,4H163.3v1
			c0,2.209,1.791,4,4,4h33.216c2.209,0,4-1.791,4-4v-4.254C204.515,147.034,202.246,144.047,199.091,142.975z"/>
	</g>
	<g>
		<g>
			<path fill="#FFA91A" d="M131.906,229.351h-57.83c-2.096,0-3.795-1.699-3.795-3.795v-48.505c0-2.096,1.699-3.795,3.795-3.795
				h57.83c2.096,0,3.795,1.699,3.795,3.795v48.505C135.701,227.652,134.002,229.351,131.906,229.351z"/>
		</g>
		<g>
			<path fill="#F79219" d="M131.906,173.257h-1.205v47.299c0,2.096-1.699,3.794-3.795,3.794H70.281v1.206
				c0,2.096,1.699,3.794,3.794,3.794h57.83c2.096,0,3.795-1.699,3.795-3.794v-48.505
				C135.701,174.956,134.002,173.257,131.906,173.257z"/>
		</g>
		<g>
			<g>
				<path fill="#E6E7E8" d="M130.727,173.257h-9.486v-16.712c0-10.063-8.187-18.249-18.249-18.249s-18.249,8.187-18.249,18.249
					v16.712h-9.486v-16.712c0-15.293,12.442-27.736,27.735-27.736s27.735,12.442,27.735,27.736V173.257z"/>
			</g>
		</g>
		<g>
			<g>
				<path fill="#D1D3D4" d="M120.074,134.719c3.697,4.713,5.909,10.642,5.909,17.083v16.712h-4.743v4.743h9.486v-16.712
					C130.727,147.692,126.552,139.801,120.074,134.719z"/>
			</g>
		</g>
	</g>
	<g>
		<g>
			<g>
				<g>
					<path fill="#F1F2F2" d="M99.549,213.089c-1.098,0-2.196-0.419-3.034-1.256l-10.127-10.127c-1.675-1.676-1.675-4.391,0-6.067
						c1.676-1.675,4.391-1.675,6.067,0l7.094,7.094l13.979-13.979c1.676-1.675,4.391-1.675,6.067,0c1.675,1.676,1.675,4.391,0,6.067
						l-17.012,17.012C101.744,212.67,100.647,213.089,99.549,213.089z"/>
				</g>
			</g>
		</g>
	</g>
	<g>
		<path fill="#5E9CF7" d="M164.77,122.26h-88c-1.1,0-2-0.9-2-2.01c0-1.101,0.9-1.99,2-1.99h88c1.1,0,2,0.89,2,1.99
			C166.77,121.359,165.87,122.26,164.77,122.26z M68.77,122.26c-1.1,0-2-0.9-2-2.01c0-1.101,0.9-1.99,2-1.99c1.1,0,2,0.89,2,1.99
			C70.77,121.359,69.87,122.26,68.77,122.26z"/>
	</g>
</g>
</svg>
