<?xml version="1.0" encoding="utf-8"?>
<!-- Generator: Adobe Illustrator 24.0.0, SVG Export Plug-In . SVG Version: 6.00 Build 0)  -->
<svg version="1.1" id="Layer_1" xmlns="http://www.w3.org/2000/svg" xmlns:xlink="http://www.w3.org/1999/xlink" x="0px" y="0px"
	 viewBox="0 0 256 256" enable-background="new 0 0 256 256" xml:space="preserve">
<g>
	<g>
		<g>
			<g>
				<path fill="#FFA91A" d="M128,205.284c-1.955,0-3.539-1.584-3.539-3.538v-31.744c0-1.954,1.584-3.538,3.539-3.538
					s3.538,1.584,3.538,3.538v31.744C131.538,203.7,129.955,205.284,128,205.284z"/>
			</g>
		</g>
		<g>
			<g>
				<path fill="#FFA91A" d="M109.911,205.284c-1.783,0-3.317-1.343-3.514-3.157l-3.445-31.744c-0.211-1.942,1.193-3.689,3.136-3.899
					c1.937-0.223,3.688,1.193,3.899,3.136l3.445,31.744c0.211,1.942-1.193,3.689-3.136,3.899
					C110.167,205.277,110.038,205.284,109.911,205.284z"/>
			</g>
		</g>
		<g>
			<g>
				<path fill="#FFA91A" d="M146.089,205.284c-0.127,0-0.256-0.007-0.386-0.021c-1.943-0.21-3.348-1.957-3.136-3.899l3.445-31.744
					c0.21-1.943,1.942-3.359,3.899-3.136c1.943,0.21,3.348,1.957,3.136,3.899l-3.445,31.744
					C149.407,203.94,147.872,205.284,146.089,205.284z"/>
			</g>
		</g>
		<g>
			<g>
				<path fill="#E63950" d="M196.006,82.979c0-38.627-32.204-69.732-71.227-67.932c-35.055,1.617-63.411,30.231-64.736,65.297
					c-0.877,23.217,9.894,43.956,26.931,56.859c9.861,7.468,15.436,19.302,15.436,31.671l0,0h51.18v-0.001
					c0-12.376,5.587-24.208,15.451-31.682C185.422,124.779,196.006,105.119,196.006,82.979z"/>
			</g>
		</g>
		<g>
			<g>
				<path fill="#D10028" d="M169.518,82.979c0-38.627-19.66-69.732-43.485-67.932c-21.401,1.617-38.713,30.231-39.522,65.297
					c-0.535,23.217,6.04,43.956,16.442,56.859c6.02,7.468,9.423,19.302,9.423,31.671l0,0h31.246v-0.001
					c0-12.376,3.411-24.208,9.433-31.682C163.057,124.779,169.518,105.119,169.518,82.979z"/>
			</g>
		</g>
		<g>
			<g>
				<path fill="#E63950" d="M142.862,82.979c0-38.627-7.038-69.732-15.566-67.932c-7.661,1.617-13.857,30.231-14.147,65.297
					c-0.192,23.217,2.162,43.956,5.885,56.859c2.155,7.468,3.373,19.302,3.373,31.671l0,0h11.184v-0.001
					c0-12.376,1.221-24.208,3.377-31.682C140.549,124.779,142.862,105.119,142.862,82.979z"/>
			</g>
		</g>
		<g>
			<g>
				<path fill="#E63950" d="M145.201,243.233h-34.402c-3.467,0-6.423-2.511-6.984-5.932l-4.609-28.113
					c-0.706-4.308,2.618-8.222,6.984-8.222h43.619c4.366,0,7.69,3.914,6.984,8.222l-4.609,28.113
					C151.624,240.722,148.668,243.233,145.201,243.233z"/>
			</g>
		</g>
		<g>
			<path fill="#D10028" d="M151.647,201.206c0.253,0.939,0.316,1.949,0.146,2.981l-4.609,28.113
				c-0.561,3.421-3.517,5.932-6.984,5.932h-34.402c-0.632,0-1.248-0.084-1.835-0.241c0.82,3.063,3.606,5.241,6.835,5.241h34.402
				c3.467,0,6.423-2.511,6.984-5.932l4.609-28.113C157.396,205.509,155.06,202.119,151.647,201.206z"/>
		</g>
		<g>
			<g>
				<g>
					<path fill="#FFA91A" d="M149.664,219.075c1.66,4.336,6.521,6.506,10.857,4.846c4.337-1.66,6.506-6.521,4.846-10.857
						c-1.253-3.274-8.464-8.707-11.922-11.172c-0.886-0.632-2.128-0.156-2.366,0.906
						C150.151,206.942,148.411,215.801,149.664,219.075z"/>
				</g>
			</g>
			<g>
				<path fill="#F79219" d="M165.368,213.063c-0.69-1.804-3.19-4.264-5.874-6.521c0.394,0.541,0.695,1.053,0.874,1.521
					c1.66,4.336-0.51,9.198-4.846,10.857c-1.974,0.756-4.057,0.717-5.897,0.042c0.013,0.037,0.026,0.075,0.04,0.111
					c1.66,4.336,6.521,6.506,10.857,4.846C164.858,222.261,167.028,217.4,165.368,213.063z"/>
			</g>
			<g>
				<g>
					<path fill="#FFA91A" d="M106.336,219.075c-1.66,4.336-6.521,6.506-10.857,4.846c-4.337-1.66-6.506-6.521-4.846-10.857
						c1.253-3.274,8.464-8.707,11.922-11.172c0.886-0.632,2.128-0.156,2.366,0.906C105.849,206.942,107.589,215.801,106.336,219.075
						z"/>
				</g>
			</g>
			<g>
				<path fill="#F79219" d="M104.921,202.797c-0.238-1.062-1.48-1.538-2.366-0.906c-0.469,0.334-1.007,0.724-1.591,1.155
					c0.705,4.116,1.213,8.831,0.372,11.029c-1.646,4.299-6.438,6.468-10.746,4.887c0.808,2.201,2.526,4.055,4.888,4.959
					c4.337,1.66,9.198-0.51,10.857-4.846C107.589,215.801,105.849,206.942,104.921,202.797z"/>
			</g>
		</g>
		<g>
			<g>
				<path fill="#D10028" d="M139.24,228.568h-22.479c-1.67,0-3.025-1.354-3.025-3.025v-5.713c0-1.67,1.354-3.025,3.025-3.025h22.479
					c1.67,0,3.025,1.354,3.025,3.025v5.713C142.264,227.214,140.91,228.568,139.24,228.568z"/>
			</g>
		</g>
		<g>
			<g>
				<path fill="#D10028" d="M128,150.424c-13.977,0-27.03-3.94-38.122-10.761c8.037,7.469,12.532,18.12,12.532,29.213h51.18v-0.001
					c0-11.097,4.504-21.745,12.542-29.218C155.038,146.481,141.981,150.424,128,150.424z"/>
			</g>
		</g>
		<g>
			<g>
				<path fill="#B7022D" d="M128,150.424c-6.647,0-13.081-0.901-19.199-2.569c2.32,6.246,3.576,13.532,3.576,21.021h31.246v-0.001
					c0-7.491,1.257-14.775,3.579-21.021C141.083,149.523,134.648,150.424,128,150.424z"/>
			</g>
		</g>
		<g>
			<g>
				<path fill="#D10028" d="M128,150.424c-2.224,0-4.421-0.111-6.594-0.306c0.651,5.714,1.001,12.156,1.001,18.758h11.184v-0.001
					c0-6.603,0.351-13.043,1.003-18.757C132.421,150.313,130.224,150.424,128,150.424z"/>
			</g>
		</g>
	</g>
	<g>
		<g>
			<g>
				<circle fill="#FFA91A" cx="128" cy="80.608" r="49.579"/>
			</g>
		</g>
		<g>
			<path fill="#F79219" d="M157.702,41.039c6.203,8.278,9.878,18.561,9.878,29.701c0,27.382-22.198,49.58-49.579,49.58
				c-11.141,0-21.423-3.675-29.701-9.878c9.043,12.068,23.46,19.878,39.701,19.878c27.382,0,49.579-22.198,49.579-49.58
				C177.579,64.499,169.77,50.082,157.702,41.039z"/>
		</g>
		<g>
			<path fill="#EF7816" d="M160.469,43.139c7.545,8.699,12.11,20.051,12.11,32.469c0,27.382-22.198,49.58-49.579,49.58
				c-12.419,0-23.771-4.566-32.469-12.11c9.091,10.481,22.506,17.11,37.469,17.11c27.382,0,49.579-22.198,49.579-49.58
				C177.579,65.645,170.95,52.229,160.469,43.139z"/>
		</g>
		<g>
			<g>
				<path fill="#FFFFFF" d="M132.195,105.684h-8.391c-6.887,0-12.489-5.603-12.489-12.489c0-1.104,0.896-2,2-2s2,0.896,2,2
					c0,4.681,3.809,8.489,8.489,8.489h8.391c4.681,0,8.489-3.808,8.489-8.489v-4.196c0-4.681-3.809-8.489-8.489-8.489h-8.391
					c-6.887,0-12.489-5.603-12.489-12.489c0-6.887,5.603-12.489,12.489-12.489h8.391c6.887,0,12.489,5.603,12.489,12.489
					c0,1.104-0.896,2-2,2s-2-0.896-2-2c0-4.681-3.809-8.489-8.489-8.489h-8.391c-4.681,0-8.489,3.808-8.489,8.489
					c0,4.681,3.809,8.489,8.489,8.489h8.391c6.887,0,12.489,5.603,12.489,12.489v4.196
					C144.685,100.081,139.082,105.684,132.195,105.684z"/>
			</g>
			<g>
				<path fill="#FFFFFF" d="M128,109.879c-1.104,0-2-0.896-2-2V53.337c0-1.104,0.896-2,2-2s2,0.896,2,2v54.542
					C130,108.983,129.104,109.879,128,109.879z"/>
			</g>
		</g>
	</g>
	<g>
		<path fill="#FFC91D" d="M84.42,82.61c-1.101,0-2-0.9-2-2c-0.185-17.603,10.782-34.455,26.84-41.55c0.98-0.45,2.21,0.019,2.65,1
			c0.449,1,0.01,2.19-1,2.64c-14.87,6.74-24.49,21.61-24.49,37.89C86.431,81.697,85.527,82.611,84.42,82.61z M117.63,40.27
			c-2.339-0.003-2.726-3.376-0.47-3.94C120.07,35.786,120.594,40.14,117.63,40.27z"/>
	</g>
</g>
</svg>
