<?xml version="1.0" encoding="utf-8"?>
<!-- Generator: Adobe Illustrator 24.0.0, SVG Export Plug-In . SVG Version: 6.00 Build 0)  -->
<svg version="1.1" id="Layer_1" xmlns="http://www.w3.org/2000/svg" xmlns:xlink="http://www.w3.org/1999/xlink" x="0px" y="0px"
	 viewBox="0 0 256 256" enable-background="new 0 0 256 256" xml:space="preserve">
<g>
	<g>
		<g>
			<path fill="#377DE2" d="M36.535,91.16v130.845c0,5.051,4.095,9.146,9.146,9.146h164.636c5.051,0,9.146-4.095,9.146-9.146V91.16
				H36.535z"/>
		</g>
		<g>
			<g>
				<g>
					<path fill="#478CF7" d="M69.022,130.696h-14.33c-3.368,0-6.098-2.73-6.098-6.098v-14.33c0-3.368,2.73-6.098,6.098-6.098h14.33
						c3.368,0,6.098,2.73,6.098,6.098v14.33C75.12,127.966,72.39,130.696,69.022,130.696z"/>
				</g>
				<g>
					<path fill="#478CF7" d="M113.117,130.696h-14.33c-3.368,0-6.098-2.73-6.098-6.098v-14.33c0-3.368,2.73-6.098,6.098-6.098h14.33
						c3.368,0,6.098,2.73,6.098,6.098v14.33C119.215,127.966,116.485,130.696,113.117,130.696z"/>
				</g>
				<g>
					<path fill="#478CF7" d="M157.213,130.696h-14.33c-3.368,0-6.098-2.73-6.098-6.098v-14.33c0-3.368,2.73-6.098,6.098-6.098h14.33
						c3.368,0,6.098,2.73,6.098,6.098v14.33C163.31,127.966,160.58,130.696,157.213,130.696z"/>
				</g>
				<g>
					<path fill="#478CF7" d="M201.308,130.696h-14.33c-3.368,0-6.098-2.73-6.098-6.098v-14.33c0-3.368,2.73-6.098,6.098-6.098h14.33
						c3.368,0,6.098,2.73,6.098,6.098v14.33C207.406,127.966,204.676,130.696,201.308,130.696z"/>
				</g>
				<g>
					<g>
						<path fill="#478CF7" d="M69.022,174.792h-14.33c-3.368,0-6.098-2.73-6.098-6.098v-14.33c0-3.368,2.73-6.098,6.098-6.098h14.33
							c3.368,0,6.098,2.73,6.098,6.098v14.33C75.12,172.062,72.39,174.792,69.022,174.792z"/>
					</g>
					<g>
						<path fill="#478CF7" d="M113.117,174.792h-14.33c-3.368,0-6.098-2.73-6.098-6.098v-14.33c0-3.368,2.73-6.098,6.098-6.098
							h14.33c3.368,0,6.098,2.73,6.098,6.098v14.33C119.215,172.062,116.485,174.792,113.117,174.792z"/>
					</g>
					<g>
						<path fill="#478CF7" d="M157.213,174.792h-14.33c-3.368,0-6.098-2.73-6.098-6.098v-14.33c0-3.368,2.73-6.098,6.098-6.098
							h14.33c3.368,0,6.098,2.73,6.098,6.098v14.33C163.31,172.062,160.58,174.792,157.213,174.792z"/>
					</g>
					<g>
						<path fill="#478CF7" d="M201.308,174.792h-14.33c-3.368,0-6.098-2.73-6.098-6.098v-14.33c0-3.368,2.73-6.098,6.098-6.098
							h14.33c3.368,0,6.098,2.73,6.098,6.098v14.33C207.406,172.062,204.676,174.792,201.308,174.792z"/>
					</g>
				</g>
				<g>
					<g>
						<path fill="#478CF7" d="M69.022,218.887h-14.33c-3.368,0-6.098-2.73-6.098-6.098v-14.33c0-3.368,2.73-6.098,6.098-6.098h14.33
							c3.368,0,6.098,2.73,6.098,6.098v14.33C75.12,216.157,72.39,218.887,69.022,218.887z"/>
					</g>
					<g>
						<path fill="#478CF7" d="M113.117,218.887h-14.33c-3.368,0-6.098-2.73-6.098-6.098v-14.33c0-3.368,2.73-6.098,6.098-6.098
							h14.33c3.368,0,6.098,2.73,6.098,6.098v14.33C119.215,216.157,116.485,218.887,113.117,218.887z"/>
					</g>
					<g>
						<path fill="#478CF7" d="M157.213,218.887h-14.33c-3.368,0-6.098-2.73-6.098-6.098v-14.33c0-3.368,2.73-6.098,6.098-6.098
							h14.33c3.368,0,6.098,2.73,6.098,6.098v14.33C163.31,216.157,160.58,218.887,157.213,218.887z"/>
					</g>
					<g>
						<path fill="#478CF7" d="M201.308,218.887h-14.33c-3.368,0-6.098-2.73-6.098-6.098v-14.33c0-3.368,2.73-6.098,6.098-6.098
							h14.33c3.368,0,6.098,2.73,6.098,6.098v14.33C207.406,216.157,204.676,218.887,201.308,218.887z"/>
					</g>
				</g>
			</g>
			<g>
				<path fill="#F1F2F2" d="M210.318,48.223H45.682c-5.051,0-9.146,4.095-9.146,9.146V91.16h182.929V57.369
					C219.465,52.318,215.37,48.223,210.318,48.223z"/>
			</g>
			<g>
				<path fill="#E6E7E8" d="M210.318,48.223h-0.854V81.16H36.535v10h182.929V57.369C219.465,52.318,215.37,48.223,210.318,48.223z"
					/>
			</g>
			<g>
				<path fill="#D1D3D4" d="M213.784,48.903c0.438,1.069,0.68,2.239,0.68,3.466V86.16H36.535v5h182.929V57.369
					C219.465,53.544,217.117,50.269,213.784,48.903z"/>
			</g>
			<g>
				<path fill="#FFA91A" d="M86.841,71.597L86.841,71.597c-4.841,0-8.765-3.924-8.765-8.765V33.614c0-4.841,3.924-8.765,8.765-8.765
					h0c4.841,0,8.765,3.924,8.765,8.765v29.218C95.606,67.673,91.682,71.597,86.841,71.597z"/>
			</g>
			<g>
				<path fill="#F79219" d="M90.014,25.441c0.382,0.984,0.592,2.054,0.592,3.173v29.218c0,4.841-3.924,8.765-8.765,8.765h0
					c-1.119,0-2.189-0.21-3.173-0.592c1.271,3.273,4.451,5.592,8.173,5.592h0c4.841,0,8.765-3.924,8.765-8.765V33.614
					C95.606,29.892,93.286,26.712,90.014,25.441z"/>
			</g>
			<g>
				<path fill="#FFA91A" d="M169.159,71.597L169.159,71.597c-4.841,0-8.765-3.924-8.765-8.765V33.614
					c0-4.841,3.924-8.765,8.765-8.765h0c4.841,0,8.765,3.924,8.765,8.765v29.218C177.924,67.673,174,71.597,169.159,71.597z"/>
			</g>
			<g>
				<path fill="#F79219" d="M172.332,25.441c0.382,0.984,0.592,2.054,0.592,3.173v29.218c0,4.841-3.924,8.765-8.765,8.765h0
					c-1.119,0-2.189-0.21-3.173-0.592c1.271,3.273,4.451,5.592,8.173,5.592h0c4.841,0,8.765-3.924,8.765-8.765V33.614
					C177.924,29.892,175.604,26.712,172.332,25.441z"/>
			</g>
		</g>
		<g>
			<path fill="#FFFFFF" d="M42.54,76.65c-1.11,0-2-0.9-2-2s0.89-2,2-2c1.1,0,2,0.9,2,2S43.64,76.65,42.54,76.65z M42.54,68.65
				c-1.11,0-2-0.9-2-2v-9.28c0-2.83,2.31-5.14,5.14-5.15h22.15c1.11,0,2,0.9,2,2c0,1.11-0.89,2-2,2H45.68
				c-0.63,0-1.14,0.52-1.14,1.15v9.28C44.54,67.75,43.64,68.65,42.54,68.65z"/>
		</g>
		<g>
			<path fill="#2266D3" d="M214.465,91.16v125.845c0,5.051-4.095,9.146-9.146,9.146H40.682c-1.227,0-2.397-0.242-3.466-0.68
				c1.366,3.333,4.642,5.68,8.466,5.68h164.636c5.051,0,9.146-4.095,9.146-9.146V91.16H214.465z"/>
		</g>
	</g>
	<g>
		<g>
			<g>
				<g>
					<path fill="#FFA91A" d="M102.267,85.442C79.602,85.459,60.918,104,60.735,126.665c-0.067,8.307,2.304,16.056,6.439,22.576
						c0.395,0.623,0.496,1.388,0.248,2.083l-4.123,11.556c-0.669,1.876,1.142,3.687,3.018,3.018l11.519-4.11
						c0.698-0.249,1.467-0.147,2.091,0.253c6.88,4.403,15.14,6.838,23.989,6.502c21.65-0.821,39.196-18.443,39.927-40.097
						C144.64,104.824,125.717,85.424,102.267,85.442z"/>
				</g>
			</g>
			<g>
				<path fill="#F79219" d="M128.591,94.826c6.133,7.505,9.702,17.188,9.346,27.717c-0.731,21.654-18.276,39.276-39.927,40.097
					c-8.849,0.336-17.109-2.099-23.989-6.502c-0.624-0.4-1.393-0.502-2.091-0.253l-7.031,2.509l-1.601,4.487
					c-0.669,1.876,1.142,3.687,3.018,3.018l11.519-4.11c0.698-0.249,1.467-0.147,2.091,0.253c6.88,4.403,15.14,6.838,23.989,6.502
					c21.65-0.821,39.196-18.443,39.927-40.097C144.3,114.888,138.254,102.73,128.591,94.826z"/>
			</g>
			<g>
				<g>
					<path fill="#F1F2F2" d="M183.357,189.805c4.136-6.52,6.507-14.27,6.439-22.579c-0.184-22.665-18.87-41.205-41.536-41.221
						c-23.449-0.016-42.37,19.384-41.571,43.008c0.732,21.653,18.278,39.274,39.928,40.094c8.848,0.335,17.108-2.099,23.988-6.502
						c0.624-0.4,1.393-0.502,2.091-0.253l11.518,4.11c1.876,0.669,3.687-1.142,3.018-3.018l-4.123-11.556
						C182.861,191.193,182.962,190.428,183.357,189.805z"/>
				</g>
			</g>
			<g>
				<path fill="#D1D3D4" d="M183.109,191.888c-0.248-0.695-0.148-1.46,0.248-2.083c4.136-6.52,6.507-14.27,6.439-22.579
					c-0.104-12.773-6.085-24.235-15.342-31.811c5.818,7.092,9.358,16.112,9.438,25.906c0.068,8.308-2.303,16.058-6.439,22.579
					c-0.395,0.623-0.496,1.388-0.248,2.083l4.123,11.556c0.669,1.876-1.142,3.687-3.018,3.018l-11.518-4.11
					c-0.698-0.249-1.467-0.147-2.091,0.253c-6.879,4.403-15.139,6.837-23.988,6.502c-9.316-0.353-17.867-3.822-24.65-9.379
					c7.32,8.945,18.275,14.819,30.555,15.284c8.848,0.335,17.108-2.099,23.988-6.502c0.624-0.4,1.393-0.502,2.091-0.253l11.518,4.11
					c1.876,0.669,3.687-1.142,3.018-3.018L183.109,191.888z"/>
			</g>
		</g>
		<g>
			<g>
				<path fill="#FFFFFF" d="M105.37,102.114h-7.258c-6.33,0-11.48,5.15-11.48,11.479c0,1.327,1.08,2.407,2.407,2.407
					c1.327,0,2.407-1.08,2.407-2.407c0-3.676,2.99-6.666,6.666-6.666h7.258c3.676,0,6.666,2.99,6.666,6.666
					c0,3.675-2.99,6.666-6.666,6.666c-3.328,0-6.036,2.708-6.036,6.036v12.745c0,1.327,1.08,2.407,2.407,2.407
					c1.327,0,2.407-1.08,2.407-2.407v-12.745c0-0.674,0.548-1.223,1.222-1.223c6.33,0,11.48-5.15,11.48-11.479
					C116.849,107.264,111.699,102.114,105.37,102.114z"/>
			</g>
			<g>
				<circle fill="#FFFFFF" cx="101.741" cy="148.07" r="2.405"/>
			</g>
		</g>
		<g>
			<g>
				<path fill="#FFA91A" d="M166.55,156.897h-37.407c-1.104,0-2-0.896-2-2s0.896-2,2-2h37.407c1.104,0,2,0.896,2,2
					S167.654,156.897,166.55,156.897z"/>
			</g>
			<g>
				<path fill="#FFA91A" d="M166.55,169.46h-37.407c-1.104,0-2-0.896-2-2s0.896-2,2-2h37.407c1.104,0,2,0.896,2,2
					S167.654,169.46,166.55,169.46z"/>
			</g>
			<g>
				<path fill="#FFA91A" d="M166.55,182.024h-37.407c-1.104,0-2-0.896-2-2s0.896-2,2-2h37.407c1.104,0,2,0.896,2,2
					S167.654,182.024,166.55,182.024z"/>
			</g>
		</g>
	</g>
</g>
</svg>
