<?xml version="1.0" encoding="utf-8"?>
<!-- Generator: Adobe Illustrator 24.0.0, SVG Export Plug-In . SVG Version: 6.00 Build 0)  -->
<svg version="1.1" id="Layer_1" xmlns="http://www.w3.org/2000/svg" xmlns:xlink="http://www.w3.org/1999/xlink" x="0px" y="0px"
	 viewBox="0 0 256 256" enable-background="new 0 0 256 256" xml:space="preserve">
<g>
	<g>
		<g>
			<path fill="#5A7A39" d="M224.086,184.433H51.594c-3.261,0-5.904-2.643-5.904-5.904V97.15c0-3.261,2.643-5.904,5.904-5.904
				h172.492c3.261,0,5.904,2.643,5.904,5.904v81.379C229.99,181.79,227.346,184.433,224.086,184.433z"/>
		</g>
		<g>
			<path fill="#648940" d="M214.246,174.594H41.754c-3.261,0-5.904-2.643-5.904-5.904V87.31c0-3.261,2.643-5.904,5.904-5.904
				h172.492c3.261,0,5.904,2.643,5.904,5.904v81.379C220.15,171.95,217.507,174.594,214.246,174.594z"/>
		</g>
		<g>
			<path fill="#76A34F" d="M204.406,164.754H31.914c-3.261,0-5.904-2.643-5.904-5.904V77.471c0-3.261,2.643-5.904,5.904-5.904
				h172.492c3.261,0,5.904,2.643,5.904,5.904v81.379C210.31,162.111,207.667,164.754,204.406,164.754z"/>
		</g>
		<g>
			<path fill="#91B56B" d="M202.223,133.068v-29.816c0-1.028-0.793-1.867-1.817-1.956c-10.304-0.893-18.514-9.314-19.369-19.873
				c-0.083-1.027-0.926-1.824-1.956-1.824H57.24c-1.03,0-1.873,0.797-1.956,1.824c-0.855,10.559-9.065,18.979-19.369,19.873
				c-1.024,0.089-1.817,0.928-1.817,1.956v29.816c0,1.028,0.793,1.867,1.817,1.956c10.304,0.893,18.514,9.314,19.369,19.873
				c0.083,1.027,0.926,1.824,1.956,1.824h121.841c1.03,0,1.873-0.797,1.956-1.824c0.855-10.559,9.065-18.979,19.369-19.873
				C201.43,134.935,202.223,134.096,202.223,133.068z"/>
		</g>
		<g>
			<circle fill="#FFFFFF" cx="118.16" cy="118.16" r="30.406"/>
		</g>
		<g>
			<g>
				<path fill="#648940" d="M121.169,136.71h-6.018c-5.251,0-9.523-4.271-9.523-9.522c0-1.104,0.896-2,2-2s2,0.896,2,2
					c0,3.045,2.478,5.522,5.523,5.522h6.018c3.045,0,5.523-2.478,5.523-5.522v-3.009c0-3.045-2.478-5.522-5.523-5.522h-6.018
					c-5.251,0-9.523-4.272-9.523-9.523s4.272-9.522,9.523-9.522h6.018c5.251,0,9.523,4.271,9.523,9.522c0,1.104-0.896,2-2,2
					s-2-0.896-2-2c0-3.045-2.478-5.522-5.523-5.522h-6.018c-3.045,0-5.523,2.478-5.523,5.522c0,3.046,2.478,5.523,5.523,5.523h6.018
					c5.251,0,9.523,4.271,9.523,9.522v3.009C130.692,132.438,126.42,136.71,121.169,136.71z"/>
			</g>
			<g>
				<path fill="#648940" d="M118.16,139.72c-1.104,0-2-0.896-2-2V98.602c0-1.104,0.896-2,2-2s2,0.896,2,2v39.118
					C120.16,138.824,119.265,139.72,118.16,139.72z"/>
			</g>
		</g>
	</g>
	<g>
		<g>
			<path fill="#E63950" d="M246.359,89.32c0,4.574-6.973,7.989-8.312,12.117c-1.389,4.277,2.2,11.13-0.395,14.69
				c-2.618,3.599-10.259,2.291-13.855,4.907c-3.56,2.591-4.666,10.277-8.943,11.666c-4.127,1.34-9.52-4.184-14.097-4.184
				s-9.967,5.524-14.097,4.184c-4.277-1.389-5.383-9.074-8.943-11.666c-3.599-2.617-11.239-1.312-13.855-4.907
				c-2.592-3.56,0.994-10.413-0.395-14.69c-1.34-4.127-8.312-7.543-8.312-12.117s6.973-7.989,8.312-12.117
				c1.389-4.277-2.2-11.13,0.395-14.69c2.618-3.599,10.259-2.291,13.855-4.907c3.56-2.591,4.666-10.277,8.943-11.666
				c4.127-1.34,9.52,4.184,14.097,4.184s9.967-5.524,14.097-4.184c4.277,1.389,5.383,9.074,8.943,11.666
				c3.599,2.617,11.239,1.312,13.855,4.907c2.591,3.56-0.994,10.413,0.395,14.69C239.386,81.331,246.359,84.746,246.359,89.32z"/>
		</g>
		<g>
			<g>
				<path fill="#D10028" d="M238.046,101.437c1.34-4.127,8.312-7.543,8.312-12.117c0-4.574-6.973-7.99-8.312-12.117
					c-1.389-4.277,2.197-11.13-0.395-14.69c-1.753-2.409-5.762-2.618-9.299-3.281c-0.4,2.802-1.031,5.738-0.306,7.971
					c1.34,4.127,8.312,7.542,8.312,12.117c0,4.574-6.973,7.99-8.312,12.117c-1.389,4.277,2.2,11.13-0.395,14.69
					c-2.617,3.599-10.259,2.291-13.855,4.907c-3.56,2.592-4.666,10.277-8.943,11.666c-4.127,1.34-9.52-4.184-14.097-4.184
					c-3.632,0-7.776,3.478-11.396,4.245c2.389,3.317,3.756,8.789,7.299,9.939c4.13,1.34,9.52-4.184,14.097-4.184
					c4.577,0,9.97,5.524,14.097,4.184c4.277-1.389,5.383-9.074,8.943-11.666c3.596-2.616,11.238-1.308,13.855-4.907
					C240.246,112.567,236.657,105.714,238.046,101.437z"/>
			</g>
		</g>
		<g>
			<g>
				<path fill="#B7022D" d="M238.046,101.437c1.34-4.127,8.312-7.543,8.312-12.117c0-4.574-6.973-7.99-8.312-12.117
					c-1.389-4.277,2.197-11.13-0.395-14.69c-0.893-1.228-2.372-1.884-4.076-2.32c0.361,3.695-1.621,8.648-0.529,12.01
					c1.34,4.127,8.312,7.542,8.312,12.117c0,4.574-6.973,7.99-8.312,12.117c-1.389,4.277,2.2,11.13-0.395,14.69
					c-2.617,3.599-10.259,2.291-13.855,4.907c-3.56,2.592-4.666,10.277-8.943,11.666c-4.127,1.34-9.52-4.184-14.097-4.184
					c-4.384,0-9.513,5.066-13.567,4.318c1.182,2.219,2.484,4.221,4.47,4.866c4.13,1.34,9.52-4.184,14.097-4.184
					c4.577,0,9.97,5.524,14.097,4.184c4.277-1.389,5.383-9.074,8.943-11.666c3.596-2.616,11.238-1.308,13.855-4.907
					C240.246,112.567,236.657,105.714,238.046,101.437z"/>
			</g>
		</g>
		<g>
			<path fill="#F1F2F2" d="M186.622,89.957c-5.98,0-10.828-4.848-10.828-10.828c0-5.98,4.848-10.828,10.828-10.828
				c5.98,0,10.828,4.848,10.828,10.828C197.443,85.106,192.599,89.95,186.622,89.957z M186.622,73.301
				c-3.219,0-5.829,2.61-5.829,5.829c0,3.219,2.61,5.829,5.829,5.829s5.829-2.61,5.829-5.829c0,0,0-0.001,0-0.001
				C192.447,75.912,189.839,73.304,186.622,73.301z"/>
		</g>
		<g>
			<path fill="#F1F2F2" d="M214.894,110.339c-5.98,0-10.828-4.848-10.828-10.828c0-5.98,4.848-10.828,10.828-10.828
				s10.828,4.848,10.828,10.828C225.715,105.488,220.871,110.332,214.894,110.339z M214.894,93.683c-3.219,0-5.829,2.61-5.829,5.829
				s2.61,5.829,5.829,5.829c3.219,0,5.829-2.61,5.829-5.829c0,0,0-0.001,0-0.001C220.719,96.294,218.111,93.687,214.894,93.683z"/>
		</g>
		<g>
			<path fill="#F1F2F2" d="M182.462,110.119c-1.38,0-2.5-1.119-2.5-2.499c0-0.663,0.263-1.299,0.732-1.768l36.6-36.599
				c0.993-0.959,2.575-0.932,3.534,0.061c0.936,0.969,0.936,2.504,0,3.473l-36.6,36.6
				C183.761,109.857,183.125,110.12,182.462,110.119z"/>
		</g>
	</g>
	<g>
		<g>
			<path fill="#E8566F" d="M175.84,66.79c-2.336-0.005-2.731-3.385-0.47-3.94C178.27,62.29,178.799,66.676,175.84,66.79z
				 M220.27,64.46c-0.43,0-0.83-0.13-1.18-0.391c-3.828-2.904-5.029-6.202-6.93-9.68c-9.154,4.948-13.677,4.939-22.81,0
				c-1.556,2.858-2.565,5.423-5.11,8.101c-0.74,0.77-2.06,0.779-2.83,0.04c-0.781-0.731-0.8-2.067-0.04-2.83
				c1.48-1.511,2.54-3.48,3.67-5.71c2.188-4.251,2.457-5.25,7.08-2.69c2.96,1.484,5.751,2.865,8.68,2.82
				c2.875,0.016,5.644-1.333,8.56-2.811c1.564-0.664,3.836-2.451,5.23-0.62c2.241,3.379,3.666,7.968,6.86,10.15
				C222.986,61.928,222.176,64.497,220.27,64.46z"/>
		</g>
	</g>
</g>
</svg>
