<?xml version="1.0" encoding="utf-8"?>
<!-- Generator: Adobe Illustrator 24.0.0, SVG Export Plug-In . SVG Version: 6.00 Build 0)  -->
<svg version="1.1" id="Layer_1" xmlns="http://www.w3.org/2000/svg" xmlns:xlink="http://www.w3.org/1999/xlink" x="0px" y="0px"
	 viewBox="0 0 256 256" enable-background="new 0 0 256 256" xml:space="preserve">
<g>
	<g>
		<g>
			<path fill="#5A7A39" d="M224.086,158.597H51.594c-3.261,0-5.904-2.643-5.904-5.904V71.314c0-3.261,2.643-5.904,5.904-5.904
				h172.492c3.261,0,5.904,2.643,5.904,5.904v81.379C229.99,155.954,227.346,158.597,224.086,158.597z"/>
		</g>
		<g>
			<path fill="#648940" d="M214.246,148.758H41.754c-3.261,0-5.904-2.643-5.904-5.904V61.474c0-3.261,2.643-5.904,5.904-5.904
				h172.492c3.261,0,5.904,2.643,5.904,5.904v81.379C220.15,146.114,217.507,148.758,214.246,148.758z"/>
		</g>
		<g>
			<path fill="#76A34F" d="M204.406,138.918H31.914c-3.261,0-5.904-2.643-5.904-5.904V51.635c0-3.261,2.643-5.904,5.904-5.904
				h172.492c3.261,0,5.904,2.643,5.904,5.904v81.379C210.31,136.275,207.667,138.918,204.406,138.918z"/>
		</g>
		<g>
			<path fill="#91B56B" d="M202.223,107.232V77.416c0-1.028-0.793-1.867-1.817-1.956c-10.304-0.893-18.514-9.314-19.369-19.873
				c-0.083-1.027-0.926-1.824-1.956-1.824H57.24c-1.03,0-1.873,0.797-1.956,1.824c-0.855,10.559-9.065,18.979-19.369,19.873
				c-1.024,0.089-1.817,0.928-1.817,1.956v29.816c0,1.028,0.793,1.867,1.817,1.956c10.304,0.893,18.514,9.314,19.369,19.873
				c0.083,1.027,0.926,1.824,1.956,1.824h121.841c1.03,0,1.873-0.797,1.956-1.824c0.855-10.559,9.065-18.979,19.369-19.873
				C201.43,109.099,202.223,108.26,202.223,107.232z"/>
		</g>
		<g>
			<circle fill="#FFFFFF" cx="118.16" cy="92.324" r="30.406"/>
		</g>
		<g>
			<g>
				<path fill="#648940" d="M121.169,110.874h-6.018c-5.251,0-9.523-4.271-9.523-9.522c0-1.104,0.896-2,2-2s2,0.896,2,2
					c0,3.045,2.478,5.522,5.523,5.522h6.018c3.045,0,5.523-2.478,5.523-5.522v-3.009c0-3.045-2.478-5.522-5.523-5.522h-6.018
					c-5.251,0-9.523-4.272-9.523-9.523s4.272-9.522,9.523-9.522h6.018c5.251,0,9.523,4.271,9.523,9.522c0,1.104-0.896,2-2,2
					s-2-0.896-2-2c0-3.045-2.478-5.522-5.523-5.522h-6.018c-3.045,0-5.523,2.478-5.523,5.522c0,3.046,2.478,5.523,5.523,5.523h6.018
					c5.251,0,9.523,4.271,9.523,9.522v3.009C130.692,106.603,126.42,110.874,121.169,110.874z"/>
			</g>
			<g>
				<path fill="#648940" d="M118.16,113.884c-1.104,0-2-0.896-2-2V72.766c0-1.104,0.896-2,2-2s2,0.896,2,2v39.118
					C120.16,112.988,119.265,113.884,118.16,113.884z"/>
			</g>
		</g>
	</g>
	<g>
		<g>
			<g>
				<g>
					<path fill="#FCC4AE" d="M236.62,163.745c-10.14,8.04-45.06,35.2-68.99,47.34c-28.27,14.35-55.52,0-77.66-2.71
						c-13.166-1.977-26.465,6.151-33.62,14.08l-0.16,0.03l-3.01,0.42v-54.86c13.269-19.776,33.337-17.14,54.95-19.229
						c15.215-1.948,30.021-6.476,43.54-13.761c2.687-1.985,5.578-0.436,6.14,2.67c1.985,10.978-4.62,23.003-14.97,25.22
						c0,0-5.45,1.24-5.45,1.24c-1.9,0.455-1.702,3.133,0.19,3.46c19,6.56,38.32,2.23,56.85-5.84c12.25-5.33,31.85-18.92,42.9-4.18
						C238.73,159.495,238.4,162.335,236.62,163.745z"/>
				</g>
				<g>
					<path fill="#FFD2C0" d="M69.51,162.97c-2.037,0.037-2.776-2.875-0.91-3.78c8.81-4.479,19.3-5.069,29.44-5.64
						c6.827-0.307,13.477-0.906,20.19-2.33c2.569-0.444,3.37,3.32,0.79,3.92c-6.827,1.455-13.666,2.061-20.56,2.391
						c-10.42,0.6-20.25,1.18-28.02,5.21C70.155,162.903,69.831,162.967,69.51,162.97z M126.42,153.37
						c-2.358-0.014-2.752-3.433-0.429-3.96C128.862,148.926,129.337,153.227,126.42,153.37z"/>
				</g>
				<g>
					<g>
						<path fill="#F2AD97" d="M237.33,157.625c-2.663-3.552-5.823-5.459-9.256-6.233c-0.216,0.918-0.707,1.761-1.454,2.353
							c-10.14,8.04-45.06,35.2-68.99,47.34c-28.27,14.35-55.52,0-77.66-2.71c-9.693-1.455-19.458,2.566-26.79,7.953v16.577
							l3.01-0.42l0.16-0.03c7.155-7.929,20.454-16.057,33.62-14.08c22.14,2.71,49.39,17.06,77.66,2.71
							c23.93-12.14,58.85-39.3,68.99-47.34C238.4,162.335,238.73,159.495,237.33,157.625z"/>
					</g>
				</g>
				<g>
					<g>
						<path fill="#E59076" d="M237.33,157.625c-1.401-1.869-2.94-3.282-4.583-4.314c0.887,1.823,0.447,4.188-1.127,5.435
							c-10.14,8.04-45.06,35.2-68.99,47.34c-28.27,14.35-55.52,0-77.66-2.71c-12.114-1.819-24.34,4.917-31.79,12.181v7.349
							l3.01-0.42l0.16-0.03c7.155-7.929,20.454-16.057,33.62-14.08c22.14,2.71,49.39,17.06,77.66,2.71
							c23.93-12.14,58.85-39.3,68.99-47.34C238.4,162.335,238.73,159.495,237.33,157.625z"/>
					</g>
				</g>
				<g>
					<g>
						<g>
							<g>
								<path fill="#F1F2F2" d="M67.793,220.858l-11.441,1.601l-0.161,0.023l-3.009,0.423l-3.86,0.538
									c-2.489,0.35-4.784-1.389-5.134-3.878l-8.626-61.687c-0.35-2.489,1.385-4.784,3.874-5.134l18.471-2.586
									c1.178-0.161,2.319,0.138,3.225,0.778c1.003,0.69,1.721,1.79,1.909,3.101l0.497,3.57l6.404,45.779l1.141,8.17l0.584,4.173
									C72.017,218.213,70.278,220.508,67.793,220.858z"/>
							</g>
						</g>
						<g>
							<path fill="#E6E7E8" d="M71.667,215.728l-0.584-4.173l-1.141-8.17l-6.404-45.779l-0.497-3.57
								c-0.189-1.311-0.906-2.411-1.909-3.101c-0.831-0.587-1.863-0.868-2.936-0.79l0.342,2.46l6.404,45.779l1.141,8.17l0.584,4.173
								c0.35,2.484-1.389,4.78-3.874,5.13l-11.441,1.601l-0.161,0.023l-3.009,0.423l-3.86,0.538
								c-0.098,0.014-0.192,0.004-0.289,0.011l0.155,1.111c0.35,2.489,2.645,4.228,5.134,3.878l3.86-0.538l3.009-0.423l0.161-0.023
								l11.441-1.601C70.278,220.508,72.017,218.213,71.667,215.728z"/>
						</g>
						<g>
							<path fill="#8C3F0A" d="M23.974,227.509h20.483c3.41,0,6.174-2.764,6.174-6.174v-72.121c0-3.41-2.764-6.174-6.174-6.174
								H23.974c-3.41,0-6.174,2.764-6.174,6.174v72.121C17.799,224.744,20.564,227.509,23.974,227.509z"/>
						</g>
						<g>
							<path fill="#7C3108" d="M45.532,143.138c0.061,0.35,0.1,0.707,0.1,1.075v72.121c0,3.41-2.764,6.174-6.174,6.174H18.974
								c-0.367,0-0.725-0.038-1.075-0.1c0.509,2.897,3.032,5.1,6.075,5.1h20.483c3.41,0,6.174-2.764,6.174-6.174v-72.121
								C50.631,146.171,48.428,143.648,45.532,143.138z"/>
						</g>
					</g>
					<g>
						<g>
							
								<ellipse transform="matrix(0.2298 -0.9732 0.9732 0.2298 -172.1881 190.4301)" fill="#FFFFFF" cx="34.215" cy="203.999" rx="6.592" ry="6.592"/>
						</g>
					</g>
					<g>
						<path fill="#E6E7E8" d="M37.764,198.45c0.657,1.025,1.043,2.241,1.043,3.549c0,3.641-2.951,6.592-6.592,6.592
							c-1.308,0-2.524-0.386-3.549-1.043c1.172,1.828,3.216,3.043,5.549,3.043c3.641,0,6.592-2.951,6.592-6.592
							C40.807,201.667,39.592,199.622,37.764,198.45z"/>
					</g>
				</g>
			</g>
		</g>
	</g>
</g>
</svg>
