<?xml version="1.0" encoding="utf-8"?>
<!-- Generator: Adobe Illustrator 24.0.0, SVG Export Plug-In . SVG Version: 6.00 Build 0)  -->
<svg version="1.1" id="Layer_1" xmlns="http://www.w3.org/2000/svg" xmlns:xlink="http://www.w3.org/1999/xlink" x="0px" y="0px"
	 viewBox="0 0 256 256" enable-background="new 0 0 256 256" xml:space="preserve">
<g>
	<g>
		<g>
			<g>
				<path fill="#808285" d="M195.703,240.735H60.297c-5.522,0-9.999-4.477-9.999-9.999V42.626c0-5.522,4.477-9.999,9.999-9.999
					h135.405c5.522,0,9.999,4.477,9.999,9.999v188.109C205.702,236.258,201.225,240.735,195.703,240.735z"/>
			</g>
			<g>
				<path fill="#58595B" d="M199.818,33.51c0.568,1.255,0.884,2.649,0.884,4.116v188.109c0,5.522-4.477,9.999-9.999,9.999H55.297
					c-1.467,0-2.86-0.316-4.116-0.884c1.569,3.469,5.06,5.884,9.116,5.884h135.405c5.522,0,9.999-4.477,9.999-9.999V42.626
					C205.702,38.571,203.288,35.08,199.818,33.51z"/>
			</g>
			<g>
				<path fill="#FFFFFF" d="M189.106,226.794H66.894c-1.841,0-3.333-1.492-3.333-3.333V49.934c0-1.841,1.492-3.333,3.333-3.333
					h122.212c1.841,0,3.333,1.492,3.333,3.333v173.527C192.439,225.302,190.947,226.794,189.106,226.794z"/>
			</g>
			<g>
				<path fill="#F1F2F2" d="M189.106,46.601h-16.667v166.86c0,1.841-1.492,3.333-3.333,3.333H63.561v6.667
					c0,1.841,1.492,3.333,3.333,3.333h122.212c1.841,0,3.333-1.492,3.333-3.333V49.934
					C192.439,48.093,190.947,46.601,189.106,46.601z"/>
			</g>
			<g>
				<path fill="#939598" d="M56.3,121.27c-1.1,0-2-0.89-2-2V42.63c0-3.311,2.69-6,6-6h7.07c1.1,0,2,0.89,2,2c0,1.1-0.9,2-2,2H60.3
					c-1.1,0-2,0.9-2,2v76.64C58.3,120.38,57.4,121.27,56.3,121.27z M75.37,40.63c-1.11,0-2-0.9-2-2c0-1.11,0.89-2,2-2
					c1.1,0,2,0.89,2,2C77.37,39.729,76.47,40.63,75.37,40.63z"/>
			</g>
		</g>
		<g>
			<g>
				<path fill="#FFA91A" d="M166.473,46.252l-4.994-17.915c-0.803-2.882-3.429-4.876-6.421-4.876h-20.808
					c0,3.451-2.798,6.249-6.249,6.249c-3.451,0-6.249-2.798-6.249-6.249h-20.808c-2.992,0-5.618,1.994-6.421,4.876l-4.994,17.915
					c-1.184,4.249,2.011,8.456,6.422,8.456h64.102C164.463,54.708,167.657,50.501,166.473,46.252z"/>
			</g>
			<g>
				<path fill="#F79219" d="M166.473,46.252l-4.994-17.915c-0.803-2.882-3.429-4.876-6.421-4.876h-2.151l3.566,12.791
					c1.185,4.249-2.01,8.456-6.421,8.456H89.958l-0.43,1.544c-1.184,4.249,2.011,8.456,6.422,8.456h64.102
					C164.463,54.708,167.657,50.501,166.473,46.252z"/>
			</g>
			<g>
				<g>
					<path fill="#EF7816" d="M166.473,46.252l-4.994-17.915c-0.665-2.387-2.58-4.164-4.918-4.705l4.912,17.62
						c1.185,4.249-2.01,8.456-6.421,8.456H90.949c-0.519,0-1.02-0.059-1.5-0.168c0.671,2.894,3.257,5.168,6.5,5.168h64.102
						C164.463,54.708,167.657,50.501,166.473,46.252z"/>
				</g>
			</g>
			<g>
				<path fill="#FFA91A" d="M128,10.546c-7.133,0-12.915,5.782-12.915,12.916c0,7.133,5.782,12.915,12.915,12.915
					c7.133,0,12.916-5.782,12.916-12.915C140.916,16.328,135.133,10.546,128,10.546z M128,29.711c-3.451,0-6.249-2.798-6.249-6.249
					s2.798-6.249,6.249-6.249c3.452,0,6.249,2.798,6.249,6.249S131.452,29.711,128,29.711z"/>
			</g>
			<g>
				<g>
					<path fill="#F79219" d="M136.078,13.383c1.775,2.212,2.838,5.021,2.838,8.078c0,7.133-5.782,12.915-12.916,12.915
						c-3.057,0-5.866-1.062-8.078-2.837c2.367,2.949,6.002,4.837,10.078,4.837c7.133,0,12.916-5.782,12.916-12.915
						C140.916,19.385,139.027,15.75,136.078,13.383z"/>
				</g>
			</g>
		</g>
	</g>
	<g>
		<g>
			<path fill="#D1D3D4" d="M143.716,195.164h-31.433c-2.507,0-4.54-2.032-4.54-4.54v0c0-2.507,2.032-4.54,4.54-4.54h31.433
				c2.507,0,4.54,2.032,4.54,4.54v0C148.256,193.131,146.223,195.164,143.716,195.164z"/>
		</g>
	</g>
	<g>
		<path fill="#D1D3D4" d="M168.339,210.897H87.661c-2.507,0-4.54-2.032-4.54-4.54l0,0c0-2.507,2.032-4.54,4.54-4.54h80.679
			c2.507,0,4.54,2.032,4.54,4.54l0,0C172.879,208.864,170.846,210.897,168.339,210.897z"/>
	</g>
	<g>
		<g>
			<path fill="#E63950" d="M180.551,120.982c0,5.271-8.035,9.207-9.579,13.964c-1.6,4.929,2.535,12.826-0.455,16.929
				c-3.016,4.148-11.823,2.64-15.967,5.655c-4.103,2.986-5.377,11.843-10.306,13.444c-4.756,1.544-10.971-4.822-16.246-4.822
				s-11.486,6.366-16.246,4.822c-4.929-1.6-6.203-10.457-10.306-13.444c-4.148-3.015-12.952-1.512-15.967-5.655
				c-2.987-4.103,1.145-12-0.455-16.929c-1.544-4.756-9.579-8.692-9.579-13.964c0-5.271,8.035-9.207,9.579-13.964
				c1.6-4.929-2.535-12.826,0.455-16.929c3.016-4.148,11.823-2.64,15.967-5.655c4.103-2.987,5.377-11.843,10.306-13.444
				c4.756-1.544,10.971,4.822,16.246,4.822s11.486-6.366,16.246-4.822c4.929,1.6,6.203,10.457,10.306,13.444
				c4.148,3.015,12.952,1.512,15.967,5.655c2.987,4.103-1.145,12,0.455,16.929C172.516,111.775,180.551,115.711,180.551,120.982z"/>
		</g>
		<g>
			<path fill="#D10028" d="M170.978,134.946c1.544-4.756,9.579-8.692,9.579-13.964s-8.041-9.207-9.579-13.959
				c-1.6-4.929,2.535-12.826-0.455-16.929c-1.212-1.409-2.876-2.353-4.708-2.668c0.416,4.263-1.856,9.962-0.598,13.837
				c1.544,4.756,9.579,8.692,9.579,13.964s-8.035,9.207-9.579,13.964c-1.6,4.929,2.535,12.826-0.455,16.929
				c-3.016,4.148-11.823,2.64-15.967,5.655c-4.103,2.986-5.377,11.843-10.306,13.444c-4.756,1.544-10.971-4.822-16.246-4.822
				c-5.052,0-10.969,5.829-15.64,4.954c1.364,2.565,2.864,4.884,5.158,5.628c4.756,1.544,10.971-4.822,16.246-4.822
				c5.275,0,11.486,6.366,16.246,4.822c4.929-1.6,6.203-10.457,10.306-13.444c4.148-3.015,12.951-1.512,15.967-5.655
				C173.503,147.772,169.372,139.875,170.978,134.946z"/>
		</g>
		<g>
			<g>
				<path fill="#FFFFFF" d="M132.364,146.982h-8.728c-7.118,0-12.909-5.791-12.909-12.909c0-1.104,0.896-2,2-2s2,0.896,2,2
					c0,4.912,3.997,8.909,8.909,8.909h8.728c4.913,0,8.909-3.997,8.909-8.909v-4.363c0-4.912-3.997-8.909-8.909-8.909h-8.728
					c-7.118,0-12.909-5.791-12.909-12.909s5.791-12.909,12.909-12.909h8.728c7.118,0,12.909,5.791,12.909,12.909
					c0,1.104-0.896,2-2,2s-2-0.896-2-2c0-4.912-3.997-8.909-8.909-8.909h-8.728c-4.913,0-8.909,3.997-8.909,8.909
					s3.997,8.909,8.909,8.909h8.728c7.118,0,12.909,5.791,12.909,12.909v4.363C145.273,141.191,139.482,146.982,132.364,146.982z"/>
			</g>
			<g>
				<path fill="#FFFFFF" d="M128,151.347c-1.104,0-2-0.896-2-2V92.618c0-1.104,0.896-2,2-2s2,0.896,2,2v56.729
					C130,150.451,129.104,151.347,128,151.347z"/>
			</g>
		</g>
	</g>
	<g>
		<g>
			<g>
				<circle fill="#58595B" cx="166.721" cy="149.346" r="18.421"/>
			</g>
		</g>
		<g>
			<path fill="#FFA91A" d="M177.302,150.758h-21.161c-1.104,0-2-0.896-2-2s0.896-2,2-2h21.161c1.104,0,2,0.896,2,2
				S178.406,150.758,177.302,150.758z"/>
		</g>
	</g>
</g>
</svg>
