<?xml version="1.0" encoding="utf-8"?>
<!-- Generator: Adobe Illustrator 24.0.0, SVG Export Plug-In . SVG Version: 6.00 Build 0)  -->
<svg version="1.1" id="Layer_1" xmlns="http://www.w3.org/2000/svg" xmlns:xlink="http://www.w3.org/1999/xlink" x="0px" y="0px"
	 viewBox="0 0 256 256" enable-background="new 0 0 256 256" xml:space="preserve">
<g>
	<g>
		<g>
			<g>
				<g>
					<g>
						<g>
							<path fill="#E6E7E8" d="M198.447,214.636l16.027-16.027c0.311-0.311,0.648-0.577,0.999-0.816l-11.771-11.771
								c-5.134,6.706-11.136,12.708-17.842,17.842l11.772,11.771C197.87,215.284,198.137,214.946,198.447,214.636z"/>
						</g>
						<g>
							<path fill="#D1D3D4" d="M210.488,192.801l-17.865,17.819l4.993,5.007c0.239-0.35,0.506-0.687,0.817-0.998l16.048-16.007
								c0.311-0.31,0.649-0.576,1-0.814L210.488,192.801z"/>
						</g>
						<g>
							<path fill="#8C3F0A" d="M219.141,245.007l-20.694-20.694c-2.672-2.672-2.672-7.005,0-9.677l16.027-16.027
								c2.672-2.672,7.005-2.672,9.677,0l20.694,20.694c2.672,2.672,2.672,7.005,0,9.677l-16.027,16.027
								C226.146,247.679,221.813,247.679,219.141,245.007z"/>
						</g>
						<g>
							<path fill="#7C3108" d="M244.846,219.302l-5-4.999c2.671,2.672,2.671,7.004,0,9.676l-16.028,16.027
								c-2.672,2.672-7.005,2.672-9.677,0l5,5c2.672,2.672,7.005,2.672,9.677,0l16.028-16.027
								C247.518,226.307,247.518,221.975,244.846,219.302z"/>
						</g>
					</g>
					<g>
						<g>
							<path fill="#E6E7E8" d="M127.949,32.741c-52.671,0-95.369,42.698-95.369,95.369s42.698,95.369,95.369,95.369
								s95.369-42.698,95.369-95.369S180.619,32.741,127.949,32.741z M127.949,200.054c-39.734,0-71.944-32.21-71.944-71.944
								s32.21-71.944,71.944-71.944s71.944,32.211,71.944,71.944S167.682,200.054,127.949,200.054z"/>
						</g>
						<g>
							<path fill="#D1D3D4" d="M127.949,47.845c-44.329,0-80.264,35.935-80.264,80.264s35.935,80.264,80.264,80.264
								s80.264-35.935,80.264-80.264S172.277,47.845,127.949,47.845z M127.949,200.054c-39.734,0-71.944-32.21-71.944-71.944
								s32.21-71.944,71.944-71.944s71.944,32.211,71.944,71.944S167.682,200.054,127.949,200.054z"/>
						</g>
					</g>
				</g>
			</g>
			<g>
				<circle fill="#FFA91A" cx="127.935" cy="128.11" r="71.944"/>
			</g>
			<g>
				<path fill="#FFC91D" d="M61.99,130.11c-2.628-0.05-2.627-3.95,0-4c1.1,0,1.989,0.89,2,1.99
					C63.996,129.204,63.093,130.11,61.99,130.11z M62.47,122.13c-1.155,0.036-2.156-1.094-1.979-2.24
					c3.464-33.189,34.021-60.305,67.44-59.719c1.11,0,2.009,0.89,2.009,2c0,1.104-0.906,2.006-2.02,2
					c-32.3,0-59.59,24.16-63.46,56.2C64.33,121.38,63.479,122.13,62.47,122.13z"/>
			</g>
			<g>
				<path fill="#F79219" d="M149.684,59.512c18.278,13.046,30.195,34.43,30.195,58.598c0,39.734-32.21,71.944-71.944,71.944
					c-7.581,0-14.888-1.173-21.75-3.346c11.772,8.403,26.184,13.346,41.75,13.346c39.734,0,71.944-32.21,71.944-71.944
					C199.879,95.957,178.787,68.73,149.684,59.512z"/>
			</g>
		</g>
		<g>
			<g>
				<g>
					<g>
						<g>
							<g>
								<path fill="#478CF7" d="M164.917,103.947l0.003,0.009c0.186-0.498,0.597-0.899,1.14-1.046l9.829-2.652
									c0.999-0.269,2.004,0.412,2.124,1.439l0.664,5.694c0.097,0.834-0.431,1.613-1.241,1.831l-12.255,3.298
									c-0.934,0.251-1.916-0.187-2.352-1.051v0c-0.256-0.506-0.289-1.096-0.092-1.628L164.917,103.947z"/>
							</g>
						</g>
					</g>
					<g>
						<g>
							<g>
								<path fill="#478CF7" d="M90.19,103.947l-0.003,0.009c-0.186-0.498-0.597-0.899-1.14-1.046l-9.829-2.652
									c-0.999-0.269-2.004,0.412-2.124,1.439l-0.664,5.694c-0.097,0.834,0.431,1.613,1.241,1.831l12.255,3.298
									c0.934,0.251,1.916-0.187,2.352-1.051v0c0.256-0.506,0.289-1.096,0.092-1.628L90.19,103.947z"/>
							</g>
						</g>
					</g>
				</g>
				<g>
					<g>
						<g>
							<path fill="#414042" d="M96.875,161.99H83.922c-2.525,0-4.572-2.047-4.572-4.572v-21.926c0-2.525,2.047-4.572,4.572-4.572
								h12.953c2.525,0,4.572,2.047,4.572,4.572v21.926C101.447,159.943,99.4,161.99,96.875,161.99z"/>
						</g>
					</g>
					<g>
						<g>
							<path fill="#414042" d="M171.186,161.99h-12.953c-2.525,0-4.572-2.047-4.572-4.572v-21.926c0-2.525,2.047-4.572,4.572-4.572
								h12.953c2.525,0,4.572,2.047,4.572,4.572v21.926C175.757,159.943,173.711,161.99,171.186,161.99z"/>
						</g>
					</g>
				</g>
				<g>
					<g>
						<path fill="#5E9CF7" d="M169.696,151.203H85.412c-2.066,0-3.814-1.525-4.096-3.571l-3.489-25.376
							c-0.811-5.896,3.771-11.151,9.723-11.151h80.008c5.952,0,10.533,5.255,9.723,11.151l-3.489,25.376
							C173.51,149.679,171.762,151.203,169.696,151.203z"/>
					</g>
				</g>
				<g>
					<g>
						<path fill="#377DE2" d="M79.394,133.654l1.922,13.979c0.281,2.046,2.03,3.571,4.096,3.571h84.285
							c2.066,0,3.814-1.525,4.096-3.571l1.922-13.979H79.394z"/>
					</g>
				</g>
				<g>
					<g>
						<path fill="#5E9CF7" d="M152.943,87.536h-50.778c-3.069,0-5.812,1.915-6.869,4.797l-6.888,18.772H166.7l-6.888-18.772
							C158.755,89.451,156.012,87.536,152.943,87.536z"/>
					</g>
				</g>
				<g>
					<g>
						<path fill="#D1D3D4" d="M105.254,128.509H86.657c-0.89,0-1.643-0.658-1.762-1.54l-0.376-2.782
							c-0.144-1.067,0.686-2.017,1.762-2.017h18.597c0.89,0,1.643,0.658,1.762,1.54l0.376,2.782
							C107.161,127.559,106.331,128.509,105.254,128.509z"/>
					</g>
				</g>
				<g>
					<g>
						<path fill="#D1D3D4" d="M149.854,128.509h18.597c0.89,0,1.643-0.658,1.762-1.54l0.376-2.782
							c0.144-1.067-0.686-2.017-1.762-2.017h-18.597c-0.89,0-1.643,0.658-1.762,1.54l-0.376,2.782
							C147.947,127.559,148.777,128.509,149.854,128.509z"/>
					</g>
				</g>
				<g>
					<g>
						<path fill="#E6E7E8" d="M159.592,111.105H95.516l5.382-15.846c0.574-1.69,1.901-2.786,3.371-2.786h46.57
							c1.47,0,2.797,1.097,3.371,2.786L159.592,111.105z"/>
					</g>
				</g>
			</g>
		</g>
	</g>
	<g>
		<g>
			<circle fill="#808285" cx="128" cy="203.521" r="32.86"/>
		</g>
	</g>
	<g>
		<path fill="#58595B" d="M145.694,175.827c3.27,5.108,5.166,11.179,5.166,17.694c0,18.148-14.712,32.86-32.86,32.86
			c-6.515,0-12.587-1.896-17.694-5.166c5.839,9.121,16.061,15.166,27.694,15.166c18.148,0,32.86-14.712,32.86-32.86
			C160.86,191.888,154.815,181.666,145.694,175.827z"/>
	</g>
	<g>
		<path fill="#414042" d="M148.602,177.919c4.541,5.635,7.258,12.801,7.258,20.601c0,18.148-14.712,32.86-32.86,32.86
			c-7.8,0-14.966-2.718-20.601-7.258c6.023,7.476,15.254,12.258,25.601,12.258c18.148,0,32.86-14.712,32.86-32.86
			C160.86,193.173,156.077,183.943,148.602,177.919z"/>
	</g>
	<g>
		<g>
			<g>
				<path fill="#FFA91A" d="M124.545,218.098c-1.423,0-2.846-0.543-3.932-1.628l-10.95-10.95c-2.171-2.172-2.171-5.692,0-7.864
					c2.172-2.171,5.692-2.171,7.864,0l7.018,7.019l13.927-13.928c2.172-2.171,5.692-2.171,7.864,0c2.171,2.172,2.171,5.692,0,7.864
					l-17.859,17.859C127.391,217.555,125.969,218.098,124.545,218.098z"/>
			</g>
		</g>
	</g>
	<g>
		<g>
			<path fill="#F79219" d="M119.545,199.675L119.545,199.675l-2.018-2.019c-0.007-0.007-0.014-0.013-0.02-0.02L119.545,199.675z"/>
		</g>
		<g>
			<path fill="#F79219" d="M146.336,190.748c-0.95-0.949-2.157-1.483-3.397-1.602c0.153,1.595-0.381,3.244-1.603,4.466
				l-17.859,17.859c-1.086,1.085-2.508,1.628-3.932,1.628c-1.423,0-2.845-0.543-3.931-1.627l4.999,4.999
				c1.086,1.085,2.509,1.628,3.932,1.628c1.423,0,2.846-0.543,3.932-1.628l17.859-17.859
				C148.507,196.439,148.507,192.919,146.336,190.748z"/>
		</g>
	</g>
</g>
</svg>
