<?xml version="1.0" encoding="utf-8"?>
<!-- Generator: Adobe Illustrator 24.0.0, SVG Export Plug-In . SVG Version: 6.00 Build 0)  -->
<svg version="1.1" id="Layer_1" xmlns="http://www.w3.org/2000/svg" xmlns:xlink="http://www.w3.org/1999/xlink" x="0px" y="0px"
	 viewBox="0 0 256 256" enable-background="new 0 0 256 256" xml:space="preserve">
<g>
	<g>
		<g>
			<path fill="#6D2E03" d="M173.43,161.14c-4.58,5.02-11.9,6.35-17.98,3.31c-8.26-4.13-17.58-6.45-27.45-6.45
				s-19.19,2.32-27.45,6.45c-6.09,3.04-13.41,1.7-18-3.33c-9.97-10.93-16.05-55.47-16.05-71.44c0-18.09,7.81-34.35,20.24-45.6
				C97.87,34,112.72,27.94,128.98,28.19c29.81,0.47,54.79,22.54,59.65,51.22c0.47,2.7,0.75,5.46,0.84,8.26
				C190,104.43,183.83,149.75,173.43,161.14z"/>
		</g>
		<g>
			<g>
				<g>
					<path fill="#478CF7" d="M199.31,188.18v29.7c0,5.53-4.48,10-10,10H66.69c-5.52,0-10-4.47-10-10v-29.7c0-22.09,17.91-40,40-40
						h62.62C181.4,148.18,199.31,166.09,199.31,188.18z"/>
				</g>
				<g>
					<g>
						<g>
							<path fill="#FCC4AE" d="M116.508,126.744l0,28.443c0,2.2,0.632,4.355,1.82,6.207l0,0c4.522,7.048,14.823,7.048,19.345,0l0,0
								c1.188-1.852,1.82-4.006,1.82-6.207v-28.442H116.508z"/>
						</g>
						<g>
							<g>
								<path fill="#F2AD97" d="M116.508,135.638c3.612,1.208,7.473,1.872,11.492,1.872h0c4.019,0,7.881-0.664,11.493-1.873v-8.893
									h-22.985L116.508,135.638z"/>
							</g>
							<g>
								<path fill="#FFD2C0" d="M128,132.51L128,132.51c-20.004,0-36.219-16.216-36.219-36.219V77.489
									c0-20.003,16.216-36.219,36.219-36.219h0c20.003,0,36.219,16.216,36.219,36.219v18.801
									C164.219,116.294,148.003,132.51,128,132.51z"/>
							</g>
							<g>
								<path fill="#FCC4AE" d="M150.988,49.501c5.142,6.254,8.231,14.26,8.231,22.988v18.801c0,20.003-16.216,36.219-36.219,36.219
									h0c-8.728,0-16.735-3.089-22.988-8.231c6.643,8.078,16.713,13.231,27.988,13.231h0c20.003,0,36.219-16.216,36.219-36.219
									V77.489C164.219,66.214,159.066,56.144,150.988,49.501z"/>
							</g>
							<g>
								<path fill="#FFD2C0" d="M91.781,96.291V84.972c-6.443,0-11.667,5.223-11.667,11.667c0,6.443,5.223,11.667,11.667,11.667
									c0.679,0,1.341-0.07,1.988-0.181C92.487,104.414,91.781,100.436,91.781,96.291z"/>
							</g>
							<g>
								<path fill="#FFD2C0" d="M164.219,84.972v11.319c0,4.145-0.706,8.124-1.988,11.833c0.647,0.111,1.309,0.181,1.988,0.181
									c6.443,0,11.667-5.223,11.667-11.667C175.886,90.195,170.662,84.972,164.219,84.972z"/>
							</g>
							<g>
								<path fill="#FCC4AE" d="M171.408,87.45c1.552,1.981,2.478,4.477,2.478,7.189c0,6.245-4.907,11.343-11.075,11.652
									c-0.178,0.618-0.371,1.229-0.58,1.833c0.647,0.111,1.309,0.182,1.988,0.182c6.443,0,11.667-5.223,11.667-11.667
									C175.886,92.907,174.134,89.585,171.408,87.45z"/>
							</g>
							<g>
								<g>
									<circle fill="#995222" cx="112.59" cy="91.546" r="4.388"/>
								</g>
								<g>
									<circle fill="#995222" cx="146.632" cy="91.546" r="4.388"/>
								</g>
							</g>
							<g>
								<g>
									<path fill="#F2AD97" d="M91.781,96.291v-6.356c-3.703,0-6.704,3.002-6.704,6.704s3.002,6.704,6.704,6.704
										c0.236,0,0.458-0.046,0.688-0.069C92.027,101.012,91.781,98.681,91.781,96.291z"/>
								</g>
								<g>
									<path fill="#F2AD97" d="M164.225,96.291v-6.356c3.702,0,6.704,3.002,6.704,6.704s-3.002,6.704-6.704,6.704
										c-0.236,0-0.458-0.046-0.688-0.069C163.979,101.012,164.225,98.681,164.225,96.291z"/>
								</g>
							</g>
						</g>
					</g>
					<g>
						<g>
							<g>
								<path fill="#8C3F0A" d="M189.028,82.061c-0.113-0.89-0.245-1.774-0.398-2.651c-4.86-28.68-29.84-50.75-59.65-51.22
									c-16.09-0.247-30.799,5.684-41.89,15.575C100.225,74.733,157.126,94.74,189.028,82.061z"/>
							</g>
						</g>
					</g>
					<g>
						<g>
							<g>
								<g>
									<path fill="#8C3F0A" d="M189.028,82.061c-0.113-0.89-0.245-1.774-0.398-2.651c-4.86-28.68-29.84-50.75-59.65-51.22
										c-16.09-0.247-30.799,5.684-41.89,15.575C100.225,74.733,157.126,94.74,189.028,82.061z"/>
								</g>
							</g>
						</g>
					</g>
					<g>
						<path fill="#7C3108" d="M118.98,38.19c28.291,0.446,52.231,20.347,58.752,46.89c4.005-0.633,7.801-1.63,11.296-3.019
							c-0.113-0.89-0.245-1.774-0.398-2.651c-4.86-28.68-29.84-50.75-59.65-51.22c-16.09-0.247-30.799,5.684-41.89,15.575
							c0.309,0.729,0.643,1.453,1,2.17C97.21,40.85,107.759,38.017,118.98,38.19z"/>
					</g>
					<g>
						<path fill="#6D2E03" d="M123.98,33.19c29.62,0.467,54.472,22.26,59.554,50.674c1.899-0.504,3.734-1.104,5.493-1.803
							c-0.113-0.89-0.245-1.774-0.398-2.651c-4.86-28.68-29.84-50.75-59.65-51.22c-16.09-0.247-30.799,5.684-41.89,15.575
							c0.107,0.251,0.216,0.502,0.329,0.752C97.708,37.206,110.348,32.98,123.98,33.19z"/>
					</g>
					<g>
						<path fill="#995222" d="M166.45,81.93c-14.807-0.011-31.538-4.217-45.838-11.553c-1.325-0.898-3.397-1.203-3.906-2.867
							c-0.477-1.723,1.677-3.11,3.093-2.1c14.242,7.889,31.531,12.534,46.613,12.52C169.061,77.945,169.12,81.854,166.45,81.93z
							 M111.84,64.86c-0.4,0-0.79-0.12-1.12-0.34h-0.01c-2.146-1.535,0.062-4.703,2.26-3.31
							C114.589,62.233,113.747,64.929,111.84,64.86z"/>
					</g>
					<g>
						<path fill="#E59076" d="M133.934,109.715c0.996,0,1.751,0.93,1.521,1.9c-0.857,3.603-4.096,6.283-7.961,6.283
							c-3.865,0-7.104-2.68-7.961-6.283c-0.23-0.969,0.524-1.9,1.521-1.9H133.934z"/>
					</g>
				</g>
				<g>
					<path fill="#377DE2" d="M166.474,148.823c7.893,7.307,12.834,17.756,12.834,29.359v29.7c0,5.523-4.477,10-10,10H56.692
						c0,5.523,4.477,10,10,10h122.616c5.523,0,10-4.477,10-10v-29.7C199.308,168.538,185.146,152.201,166.474,148.823z"/>
				</g>
			</g>
			<g>
				<g>
					<g>
						<polygon fill="#D1D3D4" points="153.85,148.18 139.529,141.72 139.529,147.931 128,165.897 116.471,147.931 116.472,141.72 
							102.16,148.18 128,218.317 128.001,218.317 						"/>
					</g>
					<g>
						<path fill="#F1F2F2" d="M102.16,148.18l10.793,29.276c0.439,1.191,1.964,1.525,2.862,0.628L128,165.897l-11.529-17.967l0-6.21
							L102.16,148.18z"/>
					</g>
					<g>
						<path fill="#F1F2F2" d="M153.85,148.18l-10.802,29.276c-0.439,1.191-1.964,1.525-2.862,0.628L128,165.897l11.529-17.967
							l0-6.21L153.85,148.18z"/>
					</g>
					<g>
						<path fill="#58595B" d="M137.651,175.548l-7.191,7.191c-1.358,1.358-3.561,1.358-4.919,0l-7.191-7.191l9.651-9.651
							L137.651,175.548z"/>
					</g>
					<g>
						<path fill="#414042" d="M130.46,182.739c-1.358,1.359-3.561,1.359-4.919,0l-2.465-2.465l-2.137,18.882L128,218.323
							l7.061-19.167l-2.137-18.882L130.46,182.739z"/>
					</g>
				</g>
				<g>
					<path fill="#5E9CF7" d="M128,218.32l-34.15-36.99c-0.66-0.72-0.61-1.84,0.13-2.48l6.13-5.41c1.14-1,0.54-2.88-0.96-3.04
						l-7.21-0.77c-1.12-0.12-1.83-1.26-1.45-2.32l6.94-19.13h4.73L128,218.32z"/>
				</g>
				<g>
					<path fill="#5E9CF7" d="M164.06,169.63l-7.21,0.77c-1.5,0.16-2.1,2.04-0.96,3.04l6.13,5.41c0.74,0.64,0.79,1.76,0.13,2.48
						L128,218.32l25.85-70.14h4.75l6.91,19.13C165.89,168.37,165.18,169.51,164.06,169.63z"/>
				</g>
			</g>
		</g>
		<g>
			<g>
				<path fill="#FFA91A" d="M189.912,182.063l-16.914,5.829c-1.922,0.662-3.764-1.179-3.101-3.101l5.829-16.914l12.461,1.725
					L189.912,182.063z"/>
			</g>
			<g>
				<circle fill="#FFA91A" cx="199.674" cy="158.115" r="29.187"/>
			</g>
			<g>
				<path fill="#F79219" d="M217.037,134.653c3.597,4.852,5.725,10.859,5.725,17.364c0,16.12-13.068,29.187-29.187,29.187
					c-6.504,0-12.511-2.128-17.364-5.725c5.318,7.174,13.847,11.824,23.463,11.824c16.12,0,29.187-13.068,29.187-29.187
					C228.861,148.5,224.211,139.97,217.037,134.653z"/>
			</g>
		</g>
	</g>
	<g>
		<g>
			<g>
				<g>
					<g>
						<g>
							<path fill="#478CF7" d="M214.819,148.733l0.001,0.004c0.077-0.207,0.248-0.373,0.473-0.434l4.08-1.101
								c0.415-0.112,0.832,0.171,0.882,0.597l0.276,2.364c0.04,0.346-0.179,0.67-0.515,0.76l-5.087,1.369
								c-0.388,0.104-0.795-0.078-0.976-0.436l0,0c-0.106-0.21-0.12-0.455-0.038-0.676L214.819,148.733z"/>
						</g>
					</g>
				</g>
				<g>
					<g>
						<g>
							<path fill="#478CF7" d="M183.801,148.733l-0.001,0.004c-0.077-0.207-0.248-0.373-0.473-0.434l-4.08-1.101
								c-0.415-0.112-0.832,0.171-0.882,0.597l-0.276,2.364c-0.04,0.346,0.179,0.67,0.515,0.76l5.087,1.369
								c0.388,0.104,0.795-0.078,0.976-0.436l0,0c0.106-0.21,0.12-0.455,0.038-0.676L183.801,148.733z"/>
						</g>
					</g>
				</g>
			</g>
			<g>
				<g>
					<g>
						<path fill="#58595B" d="M186.576,172.826h-5.377c-1.048,0-1.898-0.85-1.898-1.898v-9.101c0-1.048,0.85-1.898,1.898-1.898
							h5.377c1.048,0,1.898,0.85,1.898,1.898v9.101C188.473,171.977,187.624,172.826,186.576,172.826z"/>
					</g>
				</g>
				<g>
					<g>
						<path fill="#58595B" d="M217.421,172.826h-5.377c-1.048,0-1.898-0.85-1.898-1.898v-9.101c0-1.048,0.85-1.898,1.898-1.898
							h5.377c1.048,0,1.898,0.85,1.898,1.898v9.101C219.319,171.977,218.469,172.826,217.421,172.826z"/>
					</g>
				</g>
			</g>
			<g>
				<g>
					<path fill="#5E9CF7" d="M216.803,168.349h-34.986c-0.857,0-1.583-0.633-1.7-1.482l-1.448-10.534
						c-0.336-2.447,1.565-4.629,4.036-4.629h33.211c2.47,0,4.372,2.181,4.036,4.629l-1.448,10.534
						C218.386,167.716,217.66,168.349,216.803,168.349z"/>
				</g>
			</g>
			<g>
				<g>
					<path fill="#377DE2" d="M179.319,161.064l0.798,5.803c0.117,0.849,0.843,1.482,1.7,1.482h34.986c0.857,0,1.583-0.633,1.7-1.482
						l0.798-5.803H179.319z"/>
				</g>
			</g>
			<g>
				<g>
					<path fill="#5E9CF7" d="M209.849,141.921h-21.077c-1.274,0-2.413,0.795-2.851,1.991l-2.859,7.792h32.498l-2.859-7.792
						C212.261,142.716,211.123,141.921,209.849,141.921z"/>
				</g>
			</g>
			<g>
				<g>
					<path fill="#D1D3D4" d="M190.054,158.929h-7.719c-0.37,0-0.682-0.273-0.732-0.639l-0.156-1.155
						c-0.06-0.443,0.285-0.837,0.732-0.837h7.719c0.369,0,0.682,0.273,0.732,0.639l0.156,1.155
						C190.845,158.535,190.501,158.929,190.054,158.929z"/>
				</g>
			</g>
			<g>
				<g>
					<path fill="#D1D3D4" d="M208.566,158.929h7.719c0.37,0,0.682-0.273,0.732-0.639l0.156-1.155
						c0.06-0.443-0.285-0.837-0.732-0.837h-7.719c-0.369,0-0.682,0.273-0.732,0.639l-0.156,1.155
						C207.775,158.535,208.119,158.929,208.566,158.929z"/>
				</g>
			</g>
			<g>
				<g>
					<path fill="#E6E7E8" d="M212.305,151.704h-25.99l2.183-6.427c0.233-0.685,0.771-1.13,1.367-1.13h18.889
						c0.596,0,1.134,0.445,1.367,1.13L212.305,151.704z"/>
				</g>
			</g>
		</g>
	</g>
</g>
</svg>
