<?xml version="1.0" encoding="utf-8"?>
<!-- Generator: Adobe Illustrator 24.0.0, SVG Export Plug-In . SVG Version: 6.00 Build 0)  -->
<svg version="1.1" id="Layer_1" xmlns="http://www.w3.org/2000/svg" xmlns:xlink="http://www.w3.org/1999/xlink" x="0px" y="0px"
	 viewBox="0 0 256 256" enable-background="new 0 0 256 256" xml:space="preserve">
<g>
	<g>
		<g>
			<g>
				<g>
					<g>
						<path fill="#FFA91A" d="M210.254,89.365l0.005,0.016c0.333-0.891,1.068-1.609,2.04-1.871l17.582-4.743
							c1.787-0.482,3.585,0.736,3.799,2.575l1.187,10.186c0.174,1.491-0.771,2.885-2.22,3.276l-21.922,5.9
							c-1.671,0.45-3.428-0.335-4.208-1.879l0,0c-0.458-0.906-0.517-1.961-0.165-2.913L210.254,89.365z"/>
					</g>
				</g>
			</g>
			<g>
				<g>
					<g>
						<path fill="#FFA91A" d="M45.746,89.365l-0.005,0.016c-0.333-0.891-1.068-1.609-2.04-1.871l-17.582-4.743
							c-1.787-0.482-3.585,0.736-3.799,2.575l-1.187,10.186c-0.174,1.491,0.771,2.885,2.22,3.276l21.922,5.9
							c1.671,0.45,3.428-0.335,4.208-1.879l0,0c0.458-0.906,0.517-1.961,0.165-2.913L45.746,89.365z"/>
					</g>
				</g>
			</g>
		</g>
		<g>
			<g>
				<g>
					<path fill="#58595B" d="M62.147,202.739H34.341c-5.42,0-9.813-4.394-9.813-9.814v-47.066c0-5.42,4.394-9.814,9.813-9.814
						h27.805c5.42,0,9.814,4.394,9.814,9.814v47.066C71.96,198.345,67.567,202.739,62.147,202.739z"/>
				</g>
			</g>
			<g>
				<g>
					<path fill="#58595B" d="M221.659,202.739h-27.805c-5.42,0-9.814-4.394-9.814-9.814v-47.066c0-5.42,4.394-9.814,9.814-9.814
						h27.805c5.42,0,9.813,4.394,9.813,9.814v47.066C231.472,198.345,227.078,202.739,221.659,202.739z"/>
				</g>
			</g>
		</g>
		<g>
			<g>
				<path fill="#A54AF4" d="M218.461,189.928H37.539c-4.434,0-8.188-3.273-8.791-7.665l-7.489-54.472
					c-1.74-12.656,8.095-23.936,20.87-23.936h171.742c12.775,0,22.61,11.279,20.87,23.936l-7.489,54.472
					C226.649,186.655,222.895,189.928,218.461,189.928z"/>
			</g>
		</g>
		<g>
			<path fill="#B171F4" d="M27.2,128.97c-1.605,0.041-2.598-1.953-1.59-3.21c0.996-1.407,3.379-0.775,3.57,0.93l0.01,0.01
				C29.376,127.87,28.37,129.004,27.2,128.97z M28.22,121.13c-4.303-0.635-0.419-5.666,1.05-7.43c3.24-3.71,7.93-5.85,12.86-5.85
				h48.4c1.1,0,2,0.9,2,2c0,1.11-0.9,2-2,2h-48.4c-5.2-0.045-10.107,3.247-12.07,8.05C29.75,120.65,29.03,121.13,28.22,121.13z"/>
		</g>
		<g>
			<path fill="#893ADD" d="M226.05,107.727c2.981,4.192,4.457,9.494,3.691,15.063l-7.489,54.472
				c-0.604,4.393-4.357,7.665-8.791,7.665H32.539c-1.145,0-2.244-0.219-3.256-0.618c1.309,3.324,4.544,5.618,8.256,5.618h180.922
				c4.434,0,8.188-3.273,8.791-7.665l7.489-54.472C235.859,119.658,232.199,112.095,226.05,107.727z"/>
		</g>
		<g>
			<g>
				<rect x="102.303" y="103.853" fill="#FFA91A" width="18.918" height="48.403"/>
			</g>
			<g>
				<rect x="134.778" y="103.853" fill="#FFA91A" width="18.918" height="48.403"/>
			</g>
		</g>
		<g>
			<g>
				<path fill="#6C2BC1" d="M24.622,152.256l4.125,30.007c0.604,4.393,4.357,7.665,8.791,7.665h180.922
					c4.434,0,8.188-3.273,8.791-7.665l4.125-30.007H24.622z"/>
			</g>
		</g>
		<g>
			<g>
				<path fill="#58595B" d="M182.499,53.261H73.501c-6.588,0-12.476,4.111-14.746,10.296l-14.785,40.296h168.059l-14.785-40.296
					C194.975,57.373,189.087,53.261,182.499,53.261z"/>
			</g>
		</g>
		<g>
			<g>
				<path fill="#E6E7E8" d="M80.132,141.212H40.213c-1.911,0-3.527-1.413-3.783-3.306l-0.807-5.972
					c-0.31-2.291,1.472-4.329,3.783-4.329h39.919c1.911,0,3.527,1.413,3.783,3.306l0.807,5.972
					C84.225,139.174,82.444,141.212,80.132,141.212z"/>
			</g>
		</g>
		<g>
			<path fill="#D1D3D4" d="M83.915,136.884l-0.807-5.972c-0.256-1.894-1.872-3.306-3.783-3.306h-0.988l0.578,4.278
				c0.31,2.291-1.471,4.329-3.783,4.329H36.201l0.229,1.694c0.256,1.894,1.872,3.306,3.783,3.306h39.919
				C82.444,141.212,84.225,139.174,83.915,136.884z"/>
		</g>
		<g>
			<g>
				<path fill="#E6E7E8" d="M175.868,141.212h39.919c1.911,0,3.527-1.413,3.783-3.306l0.807-5.972
					c0.31-2.291-1.472-4.329-3.783-4.329h-39.919c-1.911,0-3.527,1.413-3.783,3.306l-0.807,5.972
					C171.775,139.174,173.556,141.212,175.868,141.212z"/>
			</g>
		</g>
		<g>
			<path fill="#D1D3D4" d="M216.594,127.605h-1.308l-0.716,5.301c-0.256,1.894-1.872,3.306-3.783,3.306h-38.612l-0.091,0.671
				c-0.31,2.291,1.471,4.329,3.783,4.329h39.919c1.911,0,3.527-1.413,3.783-3.306l0.807-5.972
				C220.687,129.644,218.906,127.605,216.594,127.605z"/>
		</g>
		<g>
			<g>
				<path fill="#E6E7E8" d="M200.583,103.853H55.417L67.61,67.955c1.301-3.828,4.307-6.312,7.638-6.312h105.506
					c3.331,0,6.336,2.485,7.637,6.312L200.583,103.853z"/>
			</g>
		</g>
		<g>
			<g>
				<path fill="#D1D3D4" d="M197.838,103.853H58.162c2.627-3.834,6.277-6.241,10.359-6.241h118.959
					C191.561,97.612,195.212,100.019,197.838,103.853z"/>
			</g>
		</g>
		<g>
			<g>
				<g>
					<path fill="#FFA91A" d="M68.295,169.392H44.181c-1.982,0-3.589-1.607-3.589-3.589l0,0c0-1.982,1.607-3.589,3.589-3.589h24.114
						c1.982,0,3.589,1.607,3.589,3.589l0,0C71.884,167.785,70.277,169.392,68.295,169.392z"/>
				</g>
			</g>
			<g>
				<g>
					<path fill="#FFA91A" d="M211.819,169.392h-24.114c-1.982,0-3.589-1.607-3.589-3.589l0,0c0-1.982,1.607-3.589,3.589-3.589
						h24.114c1.982,0,3.589,1.607,3.589,3.589l0,0C215.408,167.785,213.801,169.392,211.819,169.392z"/>
				</g>
			</g>
		</g>
	</g>
	<g>
		<g>
			<circle fill="#808285" cx="128" cy="186.802" r="49.579"/>
		</g>
	</g>
	<g>
		<path fill="#58595B" d="M157.702,147.1c6.203,8.278,9.878,18.561,9.878,29.701c0,27.382-22.198,49.58-49.579,49.58
			c-11.141,0-21.423-3.675-29.701-9.878c9.043,12.068,23.46,19.878,39.701,19.878c27.382,0,49.579-22.198,49.579-49.58
			C177.579,170.56,169.77,156.143,157.702,147.1z"/>
	</g>
	<g>
		<path fill="#414042" d="M160.469,149.332c7.544,8.699,12.11,20.051,12.11,32.469c0,27.382-22.198,49.58-49.579,49.58
			c-12.419,0-23.771-4.566-32.469-12.11c9.091,10.481,22.506,17.11,37.469,17.11c27.382,0,49.579-22.198,49.579-49.58
			C177.579,171.838,170.951,158.423,160.469,149.332z"/>
	</g>
	<g>
		<path fill="#FFA91A" d="M133.222,158.922l3.413,10.504c0.735,2.262,2.843,3.794,5.222,3.794h11.045
			c5.319,0,7.531,6.807,3.227,9.933l-8.935,6.492c-1.924,1.398-2.73,3.877-1.995,6.139l3.413,10.504
			c1.644,5.059-4.146,9.266-8.45,6.139l-8.935-6.492c-1.924-1.398-4.53-1.398-6.455,0l-8.935,6.492
			c-4.303,3.127-10.093-1.08-8.45-6.139l3.413-10.504c0.735-2.262-0.07-4.741-1.995-6.139l-8.935-6.492
			c-4.303-3.127-2.092-9.933,3.227-9.933h11.045c2.379,0,4.487-1.532,5.222-3.794l3.413-10.504
			C124.422,153.863,131.578,153.863,133.222,158.922z"/>
	</g>
	<g>
		<g>
			<path fill="#F79219" d="M153.378,173.238c0.169,1.777-0.505,3.648-2.249,4.914l-8.935,6.492c-1.924,1.398-2.73,3.877-1.995,6.139
				l3.413,10.504c1.644,5.059-4.146,9.266-8.45,6.139l-8.935-6.492c-1.924-1.398-4.53-1.398-6.455,0l-8.935,6.492
				c-1.189,0.864-2.491,1.167-3.718,1.049c0.321,3.964,5.058,6.611,8.718,3.951l8.935-6.492c1.924-1.398,4.53-1.398,6.455,0
				l8.935,6.492c4.303,3.127,10.093-1.08,8.45-6.139l-3.413-10.504c-0.735-2.262,0.07-4.741,1.995-6.139l8.935-6.492
				C160.302,180.121,158.349,173.63,153.378,173.238z"/>
		</g>
	</g>
</g>
</svg>
