<?xml version="1.0" encoding="utf-8"?>
<!-- Generator: Adobe Illustrator 24.0.0, SVG Export Plug-In . SVG Version: 6.00 Build 0)  -->
<svg version="1.1" id="Layer_1" xmlns="http://www.w3.org/2000/svg" xmlns:xlink="http://www.w3.org/1999/xlink" x="0px" y="0px"
	 viewBox="0 0 256 256" enable-background="new 0 0 256 256" xml:space="preserve">
<g>
	<g>
		<g>
			<g>
				<path fill="#808285" d="M195.703,240.735H60.297c-5.522,0-9.999-4.477-9.999-9.999V42.626c0-5.522,4.477-9.999,9.999-9.999
					h135.405c5.522,0,9.999,4.477,9.999,9.999v188.109C205.702,236.258,201.225,240.735,195.703,240.735z"/>
			</g>
			<g>
				<path fill="#58595B" d="M199.818,33.51c0.568,1.255,0.884,2.649,0.884,4.116v188.109c0,5.522-4.477,9.999-9.999,9.999H55.297
					c-1.467,0-2.86-0.316-4.116-0.884c1.569,3.469,5.06,5.884,9.116,5.884h135.405c5.522,0,9.999-4.477,9.999-9.999V42.626
					C205.702,38.571,203.288,35.08,199.818,33.51z"/>
			</g>
			<g>
				<path fill="#FFFFFF" d="M189.106,226.794H66.894c-1.841,0-3.333-1.492-3.333-3.333V49.934c0-1.841,1.492-3.333,3.333-3.333
					h122.212c1.841,0,3.333,1.492,3.333,3.333v173.527C192.439,225.302,190.947,226.794,189.106,226.794z"/>
			</g>
			<g>
				<path fill="#F1F2F2" d="M189.106,46.601h-16.667v166.86c0,1.841-1.492,3.333-3.333,3.333H63.561v6.667
					c0,1.841,1.492,3.333,3.333,3.333h122.212c1.841,0,3.333-1.492,3.333-3.333V49.934
					C192.439,48.093,190.947,46.601,189.106,46.601z"/>
			</g>
			<g>
				<path fill="#939598" d="M56.3,121.27c-1.11,0-2-0.89-2-2V42.63c0-3.31,2.69-6,6-6h7.07c1.1,0,1.989,0.89,1.989,2
					c0,1.1-0.89,2-1.989,2H60.3c-1.1,0-2,0.9-2,2v76.64C58.3,120.38,57.399,121.27,56.3,121.27z M75.37,40.63c-1.11,0-2-0.9-2-2
					c0-1.11,0.89-2,2-2c1.1,0,2,0.89,2,2C77.37,39.73,76.47,40.63,75.37,40.63z"/>
			</g>
		</g>
		<g>
			<g>
				<path fill="#FFA91A" d="M166.473,46.252l-4.994-17.915c-0.803-2.882-3.429-4.876-6.421-4.876h-20.808
					c0,3.451-2.798,6.249-6.249,6.249c-3.451,0-6.249-2.798-6.249-6.249h-20.808c-2.992,0-5.618,1.994-6.421,4.876l-4.994,17.915
					c-1.184,4.249,2.011,8.456,6.422,8.456h64.102C164.463,54.708,167.657,50.501,166.473,46.252z"/>
			</g>
			<g>
				<path fill="#F79219" d="M166.473,46.252l-4.994-17.915c-0.803-2.882-3.429-4.876-6.421-4.876h-2.151l3.566,12.791
					c1.185,4.249-2.01,8.456-6.421,8.456H89.958l-0.43,1.544c-1.184,4.249,2.011,8.456,6.422,8.456h64.102
					C164.463,54.708,167.657,50.501,166.473,46.252z"/>
			</g>
			<g>
				<g>
					<path fill="#EF7816" d="M166.473,46.252l-4.994-17.915c-0.665-2.387-2.58-4.164-4.918-4.705l4.912,17.62
						c1.185,4.249-2.01,8.456-6.421,8.456H90.949c-0.519,0-1.02-0.059-1.5-0.168c0.671,2.894,3.257,5.168,6.5,5.168h64.102
						C164.463,54.708,167.657,50.501,166.473,46.252z"/>
				</g>
			</g>
			<g>
				<path fill="#FFA91A" d="M128,10.546c-7.133,0-12.915,5.782-12.915,12.916c0,7.133,5.782,12.915,12.915,12.915
					c7.133,0,12.916-5.782,12.916-12.915C140.916,16.328,135.133,10.546,128,10.546z M128,29.711c-3.451,0-6.249-2.798-6.249-6.249
					s2.798-6.249,6.249-6.249c3.452,0,6.249,2.798,6.249,6.249S131.452,29.711,128,29.711z"/>
			</g>
			<g>
				<g>
					<path fill="#F79219" d="M136.078,13.383c1.775,2.212,2.838,5.021,2.838,8.078c0,7.133-5.782,12.915-12.916,12.915
						c-3.057,0-5.866-1.062-8.078-2.837c2.367,2.949,6.002,4.837,10.078,4.837c7.133,0,12.916-5.782,12.916-12.915
						C140.916,19.385,139.027,15.75,136.078,13.383z"/>
				</g>
			</g>
		</g>
	</g>
	<g>
		<g>
			<g>
				<circle fill="#58595B" cx="99.366" cy="190.396" r="21.903"/>
			</g>
			<g>
				<circle fill="#E6E7E8" cx="99.366" cy="190.396" r="15.194"/>
			</g>
			<g>
				<path fill="#FFA91A" d="M111.32,181.016c-0.752-0.957-1.617-1.822-2.574-2.574l-7.559,7.559V175.31
					c-0.597-0.071-1.204-0.108-1.82-0.108s-1.223,0.037-1.82,0.108v10.691l-7.559-7.559c-0.957,0.752-1.822,1.617-2.574,2.574
					l7.559,7.559H84.281c-0.071,0.597-0.108,1.204-0.108,1.82c0,0.616,0.037,1.224,0.108,1.82h10.691l-7.559,7.559
					c0.752,0.957,1.617,1.822,2.574,2.574l7.559-7.559v10.691c0.597,0.071,1.204,0.108,1.82,0.108s1.223-0.037,1.82-0.108V194.79
					l7.559,7.559c0.957-0.752,1.822-1.617,2.574-2.574l-7.559-7.559h10.691c0.071-0.597,0.108-1.204,0.108-1.82
					c0-0.616-0.037-1.223-0.108-1.82h-10.691L111.32,181.016z"/>
			</g>
			<g>
				<circle fill="#F79219" cx="99.366" cy="190.396" r="6.085"/>
			</g>
		</g>
		<g>
			<g>
				<path fill="#FFA91A" d="M103.115,76.355v22.243c0,0.436-0.119,0.863-0.343,1.236l-3.039,5.047c-0.324,0.538-1.104,0.538-1.427,0
					l-3.039-5.047c-0.225-0.373-0.343-0.801-0.343-1.236V76.355H103.115z"/>
			</g>
			<g>
				<path fill="#EF7816" d="M99.939,99.835l-2.336,3.88l0.703,1.167c0.324,0.538,1.104,0.538,1.427,0l3.039-5.047
					c0.225-0.373,0.343-0.801,0.343-1.236V76.355h-2.833v22.243C100.282,99.034,100.163,99.461,99.939,99.835z"/>
			</g>
			<g>
				<path fill="#F79219" d="M109.675,70.767v3.922c0,0.92-0.746,1.666-1.666,1.666H90.723c-0.92,0-1.666-0.746-1.666-1.666v-3.922
					c0-0.92,0.746-1.666,1.666-1.666h17.286C108.929,69.1,109.675,69.846,109.675,70.767z"/>
			</g>
			<g>
				<path fill="#EF7816" d="M103.427,70.767v3.922c0,0.92-0.746,1.666-1.666,1.666h6.248c0.92,0,1.666-0.746,1.666-1.666v-3.922
					c0-0.92-0.746-1.666-1.666-1.666h-6.248C102.681,69.1,103.427,69.846,103.427,70.767z"/>
			</g>
			<g>
				<g>
					<path fill="#F79219" d="M104.364,97.268L104.364,97.268c0,0.719-0.583,1.302-1.302,1.302h-8.088
						c-0.719,0-1.302-0.583-1.302-1.302l0,0c0-0.719,0.583-1.302,1.302-1.302h8.088C103.782,95.967,104.364,96.549,104.364,97.268z"
						/>
				</g>
				<g>
					<path fill="#F79219" d="M104.364,91.341L104.364,91.341c0,0.719-0.583,1.302-1.302,1.302h-8.088
						c-0.719,0-1.302-0.583-1.302-1.302l0,0c0-0.719,0.583-1.302,1.302-1.302h8.088C103.782,90.039,104.364,90.622,104.364,91.341z"
						/>
				</g>
				<g>
					<path fill="#F79219" d="M104.364,85.414L104.364,85.414c0,0.719-0.583,1.302-1.302,1.302h-8.088
						c-0.719,0-1.302-0.583-1.302-1.302l0,0c0-0.719,0.583-1.302,1.302-1.302h8.088C103.782,84.112,104.364,84.695,104.364,85.414z"
						/>
				</g>
				<g>
					<path fill="#F79219" d="M104.364,79.486L104.364,79.486c0,0.719-0.583,1.302-1.302,1.302h-8.088
						c-0.719,0-1.302-0.583-1.302-1.302l0,0c0-0.719,0.583-1.302,1.302-1.302h8.088C103.782,78.184,104.364,78.767,104.364,79.486z"
						/>
				</g>
			</g>
		</g>
		<g>
			<g>
				<g>
					<path fill="#F79219" d="M114.037,138.477c0.041-0.449,0.069-0.902,0.069-1.362s-0.027-0.913-0.069-1.362l5.166-4.592
						c0.533-0.474,0.659-1.257,0.303-1.874l-3.291-5.699c-0.356-0.617-1.098-0.899-1.774-0.675l-6.567,2.18
						c-0.736-0.522-1.523-0.975-2.351-1.357l-1.396-6.777c-0.144-0.698-0.758-1.199-1.471-1.199h-6.581
						c-0.713,0-1.327,0.501-1.471,1.199l-1.396,6.777c-0.828,0.382-1.615,0.835-2.351,1.357l-6.567-2.18
						c-0.677-0.225-1.418,0.057-1.774,0.675l-3.291,5.699c-0.357,0.617-0.23,1.4,0.303,1.874l5.166,4.592
						c-0.041,0.449-0.069,0.902-0.069,1.362s0.028,0.913,0.069,1.362l-5.166,4.593c-0.533,0.474-0.659,1.256-0.303,1.874l3.291,5.7
						c0.356,0.617,1.098,0.899,1.774,0.675l6.567-2.18c0.736,0.522,1.523,0.975,2.351,1.357l1.396,6.778
						c0.144,0.698,0.758,1.199,1.471,1.199h6.581c0.713,0,1.328-0.501,1.471-1.199l1.396-6.778c0.828-0.382,1.615-0.834,2.351-1.357
						l6.567,2.18c0.677,0.224,1.418-0.057,1.774-0.675l3.291-5.7c0.357-0.617,0.23-1.4-0.303-1.874L114.037,138.477z
						 M99.366,145.205c-4.468,0-8.09-3.622-8.09-8.09c0-4.468,3.622-8.09,8.09-8.09c4.468,0,8.09,3.622,8.09,8.09
						C107.456,141.583,103.834,145.205,99.366,145.205z"/>
				</g>
				<g>
					<g>
						<path fill="#009ADD" d="M114.037,136.335l0.046,0.041c-0.006-0.111-0.016-0.221-0.024-0.331
							C114.051,136.141,114.046,136.238,114.037,136.335z"/>
					</g>
					<g>
						<path fill="#009ADD" d="M84.695,136.335c-0.009-0.096-0.014-0.194-0.021-0.291c-0.008,0.11-0.018,0.22-0.024,0.331
							L84.695,136.335z"/>
					</g>
				</g>
				<g>
					<g>
						<path fill="#EF7816" d="M99.366,122.375c-8.14,0-14.74,6.599-14.74,14.74c0,8.14,6.599,14.74,14.74,14.74
							c8.141,0,14.74-6.599,14.74-14.74C114.106,128.975,107.506,122.375,99.366,122.375z M99.366,145.205
							c-4.468,0-8.09-3.622-8.09-8.09c0-4.468,3.622-8.09,8.09-8.09c4.468,0,8.09,3.622,8.09,8.09
							C107.456,141.583,103.834,145.205,99.366,145.205z"/>
					</g>
				</g>
				<g>
					<path fill="#FFA91A" d="M99.366,126.01c-6.133,0-11.105,4.972-11.105,11.105c0,6.133,4.972,11.105,11.105,11.105
						c6.133,0,11.105-4.972,11.105-11.105C110.471,130.982,105.499,126.01,99.366,126.01z M99.366,145.205
						c-4.468,0-8.09-3.622-8.09-8.09c0-4.468,3.622-8.09,8.09-8.09c4.468,0,8.09,3.622,8.09,8.09
						C107.456,141.583,103.834,145.205,99.366,145.205z"/>
				</g>
			</g>
		</g>
	</g>
	<g>
		<g>
			<g>
				<path fill="#D1D3D4" d="M172.363,86.374H140.93c-2.507,0-4.54-2.032-4.54-4.54v0c0-2.507,2.032-4.54,4.54-4.54h31.433
					c2.507,0,4.54,2.032,4.54,4.54v0C176.902,84.341,174.87,86.374,172.363,86.374z"/>
			</g>
		</g>
		<g>
			<path fill="#D1D3D4" d="M181.278,102.107H140.93c-2.507,0-4.54-2.032-4.54-4.54v0c0-2.507,2.032-4.54,4.54-4.54h40.348
				c2.507,0,4.54,2.032,4.54,4.54v0C185.818,100.074,183.785,102.107,181.278,102.107z"/>
		</g>
		<g>
			<g>
				<path fill="#D1D3D4" d="M172.363,133.796H140.93c-2.507,0-4.54-2.032-4.54-4.54v0c0-2.507,2.032-4.54,4.54-4.54h31.433
					c2.507,0,4.54,2.032,4.54,4.54v0C176.902,131.763,174.87,133.796,172.363,133.796z"/>
			</g>
		</g>
		<g>
			<path fill="#D1D3D4" d="M181.278,149.528H140.93c-2.507,0-4.54-2.032-4.54-4.54v0c0-2.507,2.032-4.54,4.54-4.54h40.348
				c2.507,0,4.54,2.032,4.54,4.54v0C185.818,147.496,183.785,149.528,181.278,149.528z"/>
		</g>
		<g>
			<g>
				<path fill="#D1D3D4" d="M172.363,181.218H140.93c-2.507,0-4.54-2.032-4.54-4.54v0c0-2.507,2.032-4.54,4.54-4.54h31.433
					c2.507,0,4.54,2.032,4.54,4.54v0C176.902,179.185,174.87,181.218,172.363,181.218z"/>
			</g>
		</g>
		<g>
			<path fill="#D1D3D4" d="M181.278,196.95H140.93c-2.507,0-4.54-2.032-4.54-4.54l0,0c0-2.507,2.032-4.54,4.54-4.54h40.348
				c2.507,0,4.54,2.032,4.54,4.54l0,0C185.818,194.918,183.785,196.95,181.278,196.95z"/>
		</g>
	</g>
</g>
</svg>
