<?xml version="1.0" encoding="utf-8"?>
<!-- Generator: Adobe Illustrator 24.0.0, SVG Export Plug-In . SVG Version: 6.00 Build 0)  -->
<svg version="1.1" id="Layer_1" xmlns="http://www.w3.org/2000/svg" xmlns:xlink="http://www.w3.org/1999/xlink" x="0px" y="0px"
	 viewBox="0 0 256 256" enable-background="new 0 0 256 256" xml:space="preserve">
<g>
	<g>
		<g>
			<path fill="#6D2E03" d="M81.807,66.479c-1.272,3.068-5.105,5.314-5.765,8.649c-0.64,3.237,2.364,6.91,2.364,10.334
				c0,3.425-3.004,7.098-2.364,10.334c0.66,3.335,4.854,5.581,6.126,8.649c1.295,3.122-0.07,7.672,1.788,10.447
				c1.872,2.796,6.605,3.268,8.975,5.639c2.371,2.371,2.842,7.103,5.639,8.975c2.775,1.858,7.325,0.493,10.447,1.788
				c3.068,1.272,5.314,5.466,8.649,6.126c3.237,0.64,6.91-2.364,10.334-2.364c3.425,0,7.098,3.004,10.334,2.364
				c3.335-0.66,5.581-4.854,8.649-6.126c3.122-1.295,7.672,0.07,10.447-1.788c2.796-1.872,3.268-6.605,5.639-8.975
				c2.371-2.371,7.103-2.842,8.975-5.639c1.858-2.775,0.493-7.325,1.788-10.447c1.272-3.068,5.466-5.314,6.126-8.649
				c0.64-3.237-2.364-6.91-2.364-10.334c0-3.425,3.004-7.098,2.364-10.334c-0.66-3.335-4.395-5.581-5.667-8.649L81.807,66.479z"/>
		</g>
		<g>
			<g>
				<g>
					<path fill="#478CF7" d="M199.31,188.18v29.7c0,5.53-4.48,10-10,10H66.69c-5.52,0-10-4.47-10-10v-29.7c0-22.09,17.91-40,40-40
						h62.62C181.4,148.18,199.31,166.09,199.31,188.18z"/>
				</g>
				<g>
					<path fill="#377DE2" d="M166.474,148.823c7.893,7.307,12.834,17.756,12.834,29.359v29.7c0,5.523-4.477,10-10,10H56.692
						c0,5.523,4.477,10,10,10h122.616c5.523,0,10-4.477,10-10v-29.7C199.308,168.538,185.146,152.201,166.474,148.823z"/>
				</g>
			</g>
			<g>
				<g>
					<path fill="#FCC4AE" d="M116.508,126.744l0,28.443c0,2.2,0.632,4.355,1.82,6.207l0,0c4.522,7.048,14.823,7.048,19.345,0l0,0
						c1.188-1.852,1.82-4.006,1.82-6.207v-28.442H116.508z"/>
				</g>
				<g>
					<g>
						<path fill="#F2AD97" d="M116.508,135.638c3.612,1.208,7.473,1.872,11.492,1.872h0c4.019,0,7.881-0.664,11.493-1.873v-8.893
							h-22.985L116.508,135.638z"/>
					</g>
					<g>
						<path fill="#FFD2C0" d="M128,132.51L128,132.51c-20.004,0-36.219-16.216-36.219-36.219V77.489
							c0-20.003,16.216-36.219,36.219-36.219h0c20.003,0,36.219,16.216,36.219,36.219v18.801
							C164.219,116.294,148.003,132.51,128,132.51z"/>
					</g>
					<g>
						<path fill="#F2AD97" d="M91.78,77.489v9.666c14.114-9.422,23.143-25.497,23.087-43.122c0-0.103-0.001-0.205-0.002-0.308
							C101.355,48.985,91.78,62.119,91.78,77.489z"/>
					</g>
					<g>
						<path fill="#FCC4AE" d="M150.988,49.501c5.142,6.254,8.231,14.26,8.231,22.988v18.801c0,20.003-16.216,36.219-36.219,36.219h0
							c-8.728,0-16.735-3.089-22.988-8.231c6.643,8.078,16.713,13.231,27.988,13.231h0c20.003,0,36.219-16.216,36.219-36.219V77.489
							C164.219,66.214,159.066,56.144,150.988,49.501z"/>
					</g>
					<g>
						<path fill="#FFD2C0" d="M91.781,96.291V84.972c-6.443,0-11.667,5.223-11.667,11.667c0,6.443,5.223,11.667,11.667,11.667
							c0.679,0,1.341-0.07,1.988-0.181C92.487,104.414,91.781,100.436,91.781,96.291z"/>
					</g>
					<g>
						<path fill="#FFD2C0" d="M164.219,84.972v11.319c0,4.145-0.706,8.124-1.988,11.833c0.647,0.111,1.309,0.181,1.988,0.181
							c6.443,0,11.667-5.223,11.667-11.667C175.886,90.195,170.662,84.972,164.219,84.972z"/>
					</g>
					<g>
						<path fill="#FCC4AE" d="M171.408,87.45c1.552,1.981,2.478,4.477,2.478,7.189c0,6.245-4.907,11.343-11.075,11.652
							c-0.178,0.618-0.371,1.229-0.58,1.833c0.647,0.111,1.309,0.182,1.988,0.182c6.443,0,11.667-5.223,11.667-11.667
							C175.886,92.907,174.134,89.585,171.408,87.45z"/>
					</g>
					<g>
						<path fill="#6D2E03" d="M114.867,34.034c0.061,19.232-10.695,36.619-27.07,45.529c-3.464,1.885-7.717-0.828-7.37-4.757
							c1.177-13.345,7.108-25.559,16.431-34.162c5.037-4.665,11.062-8.262,17.86-10.424
							C114.814,31.48,114.867,32.748,114.867,34.034z"/>
					</g>
					<g>
						<path fill="#8C3F0A" d="M172.631,76.39c-30.362,15.674-68.533-2.216-75.774-35.746c5.009-4.639,10.994-8.222,17.746-10.387
							c28.227-9.163,56.357,12.318,60.643,41.029C175.555,73.361,174.495,75.428,172.631,76.39z"/>
					</g>
					<g>
						<path fill="#7C3108" d="M175.245,71.286c-4.286-28.71-32.416-50.192-60.643-41.029c-6.752,2.165-12.737,5.748-17.746,10.387
							c0.186,0.863,0.394,1.716,0.62,2.558c2.265-1.161,4.643-2.149,7.125-2.945c27.671-8.983,55.249,11.484,60.362,39.341
							c2.594-0.847,5.157-1.913,7.666-3.208C174.495,75.428,175.555,73.361,175.245,71.286z"/>
					</g>
					<g>
						<path fill="#6D2E03" d="M175.245,71.286c-4.286-28.71-32.416-50.192-60.643-41.029c-6.752,2.165-12.737,5.748-17.746,10.387
							c0.06,0.276,0.121,0.551,0.185,0.825c3.795-2.642,8.003-4.75,12.561-6.212c28.227-9.163,56.357,12.318,60.643,41.029
							c0.063,0.42,0.068,0.839,0.024,1.249c0.792-0.36,1.58-0.741,2.362-1.145C174.495,75.428,175.555,73.361,175.245,71.286z"/>
					</g>
					<g>
						<g>
							<circle fill="#995222" cx="112.59" cy="91.546" r="4.388"/>
						</g>
						<g>
							<circle fill="#995222" cx="146.632" cy="91.546" r="4.388"/>
						</g>
					</g>
					<g>
						<g>
							<path fill="#F2AD97" d="M91.781,96.291v-6.356c-3.703,0-6.704,3.002-6.704,6.704s3.002,6.704,6.704,6.704
								c0.236,0,0.458-0.046,0.688-0.069C92.027,101.012,91.781,98.681,91.781,96.291z"/>
						</g>
						<g>
							<path fill="#F2AD97" d="M164.225,96.291v-6.356c3.702,0,6.704,3.002,6.704,6.704s-3.002,6.704-6.704,6.704
								c-0.236,0-0.458-0.046-0.688-0.069C163.979,101.012,164.225,98.681,164.225,96.291z"/>
						</g>
					</g>
				</g>
				<g>
					<path fill="#995222" d="M148.979,78.13c-14.622,0.099-29.1-6.764-38.348-18.055c-0.653-0.847-0.485-2.164,0.388-2.799
						c0.976-0.726,2.369-0.372,3.012,0.629c10.28,12.319,26.88,18.391,42.702,15.543c1.096-0.142,2.103,0.628,2.249,1.717
						c0.159,1.148-0.702,2.174-1.85,2.274C154.461,77.902,151.716,78.13,148.979,78.13z M107.68,54.3c-0.71,0-1.37-0.38-1.729-0.99
						c0-0.01,0-0.01-0.011-0.01c-1.239-2.348,2.084-4.197,3.481-1.99C110.185,52.585,109.18,54.349,107.68,54.3z"/>
				</g>
			</g>
			<g>
				<g>
					<g>
						<polygon fill="#D1D3D4" points="153.85,148.18 139.529,141.72 139.529,147.931 128,165.897 116.471,147.931 116.472,141.72 
							102.16,148.18 128,218.317 128.001,218.317 						"/>
					</g>
					<g>
						<path fill="#F1F2F2" d="M102.16,148.18l10.793,29.276c0.439,1.191,1.964,1.525,2.862,0.628L128,165.897l-11.529-17.967l0-6.21
							L102.16,148.18z"/>
					</g>
					<g>
						<path fill="#F1F2F2" d="M153.85,148.18l-10.802,29.276c-0.439,1.191-1.964,1.525-2.862,0.628L128,165.897l11.529-17.967
							l0-6.21L153.85,148.18z"/>
					</g>
					<g>
						<path fill="#58595B" d="M137.651,175.548l-7.191,7.191c-1.358,1.358-3.561,1.358-4.919,0l-7.191-7.191l9.651-9.651
							L137.651,175.548z"/>
					</g>
					<g>
						<path fill="#414042" d="M130.46,182.739c-1.358,1.359-3.561,1.359-4.919,0l-2.465-2.465l-2.137,18.882L128,218.323
							l7.061-19.167l-2.137-18.882L130.46,182.739z"/>
					</g>
				</g>
				<g>
					<path fill="#5E9CF7" d="M128,218.32l-34.15-36.99c-0.66-0.72-0.61-1.84,0.13-2.48l6.13-5.41c1.14-1,0.54-2.88-0.96-3.04
						l-7.21-0.77c-1.12-0.12-1.83-1.26-1.45-2.32l6.94-19.13h4.73L128,218.32z"/>
				</g>
				<g>
					<path fill="#5E9CF7" d="M164.06,169.63l-7.21,0.77c-1.5,0.16-2.1,2.04-0.96,3.04l6.13,5.41c0.74,0.64,0.79,1.76,0.13,2.48
						L128,218.32l25.85-70.14h4.75l6.91,19.13C165.89,168.37,165.18,169.51,164.06,169.63z"/>
				</g>
			</g>
		</g>
		<g>
			<g>
				<path fill="#FFA91A" d="M189.912,182.063l-16.914,5.829c-1.922,0.662-3.764-1.179-3.101-3.101l5.829-16.914l12.461,1.725
					L189.912,182.063z"/>
			</g>
			<g>
				<circle fill="#FFA91A" cx="199.674" cy="158.115" r="29.187"/>
			</g>
			<g>
				<path fill="#F79219" d="M217.037,134.653c3.597,4.852,5.725,10.859,5.725,17.364c0,16.12-13.068,29.187-29.187,29.187
					c-6.504,0-12.511-2.128-17.364-5.725c5.318,7.174,13.847,11.824,23.463,11.824c16.12,0,29.187-13.068,29.187-29.187
					C228.861,148.5,224.211,139.97,217.037,134.653z"/>
			</g>
		</g>
		<g>
			<g>
				<g>
					<path fill="#7C3108" d="M125.193,111.531v-5.485c0-0.667-0.605-1.169-1.26-1.048l-14.751,2.743
						c-1.161,0.216-1.161,1.879,0,2.095l14.751,2.743C124.588,112.7,125.193,112.197,125.193,111.531z"/>
				</g>
				<g>
					<path fill="#7C3108" d="M130.807,111.531v-5.485c0-0.667,0.605-1.169,1.26-1.048l14.751,2.743c1.161,0.216,1.161,1.879,0,2.095
						l-14.751,2.743C131.412,112.7,130.807,112.197,130.807,111.531z"/>
				</g>
			</g>
		</g>
	</g>
	<g>
		<g>
			<g>
				<g>
					<g>
						<g>
							<path fill="#478CF7" d="M214.819,148.733l0.001,0.004c0.077-0.207,0.248-0.373,0.473-0.434l4.08-1.101
								c0.415-0.112,0.832,0.171,0.882,0.597l0.276,2.364c0.04,0.346-0.179,0.67-0.515,0.76l-5.087,1.369
								c-0.388,0.104-0.795-0.078-0.976-0.436l0,0c-0.106-0.21-0.12-0.455-0.038-0.676L214.819,148.733z"/>
						</g>
					</g>
				</g>
				<g>
					<g>
						<g>
							<path fill="#478CF7" d="M183.801,148.733l-0.001,0.004c-0.077-0.207-0.248-0.373-0.473-0.434l-4.08-1.101
								c-0.415-0.112-0.832,0.171-0.882,0.597l-0.276,2.364c-0.04,0.346,0.179,0.67,0.515,0.76l5.087,1.369
								c0.388,0.104,0.795-0.078,0.976-0.436l0,0c0.106-0.21,0.12-0.455,0.038-0.676L183.801,148.733z"/>
						</g>
					</g>
				</g>
			</g>
			<g>
				<g>
					<g>
						<path fill="#58595B" d="M186.576,172.826h-5.377c-1.048,0-1.898-0.85-1.898-1.898v-9.101c0-1.048,0.85-1.898,1.898-1.898
							h5.377c1.048,0,1.898,0.85,1.898,1.898v9.101C188.473,171.977,187.624,172.826,186.576,172.826z"/>
					</g>
				</g>
				<g>
					<g>
						<path fill="#58595B" d="M217.421,172.826h-5.377c-1.048,0-1.898-0.85-1.898-1.898v-9.101c0-1.048,0.85-1.898,1.898-1.898
							h5.377c1.048,0,1.898,0.85,1.898,1.898v9.101C219.319,171.977,218.469,172.826,217.421,172.826z"/>
					</g>
				</g>
			</g>
			<g>
				<g>
					<path fill="#5E9CF7" d="M216.803,168.349h-34.986c-0.857,0-1.583-0.633-1.7-1.482l-1.448-10.534
						c-0.336-2.447,1.565-4.629,4.036-4.629h33.211c2.47,0,4.372,2.181,4.036,4.629l-1.448,10.534
						C218.386,167.716,217.66,168.349,216.803,168.349z"/>
				</g>
			</g>
			<g>
				<g>
					<path fill="#377DE2" d="M179.319,161.064l0.798,5.803c0.117,0.849,0.843,1.482,1.7,1.482h34.986c0.857,0,1.583-0.633,1.7-1.482
						l0.798-5.803H179.319z"/>
				</g>
			</g>
			<g>
				<g>
					<path fill="#5E9CF7" d="M209.849,141.921h-21.077c-1.274,0-2.413,0.795-2.851,1.991l-2.859,7.792h32.498l-2.859-7.792
						C212.261,142.716,211.123,141.921,209.849,141.921z"/>
				</g>
			</g>
			<g>
				<g>
					<path fill="#D1D3D4" d="M190.054,158.929h-7.719c-0.37,0-0.682-0.273-0.732-0.639l-0.156-1.155
						c-0.06-0.443,0.285-0.837,0.732-0.837h7.719c0.369,0,0.682,0.273,0.732,0.639l0.156,1.155
						C190.845,158.535,190.501,158.929,190.054,158.929z"/>
				</g>
			</g>
			<g>
				<g>
					<path fill="#D1D3D4" d="M208.566,158.929h7.719c0.37,0,0.682-0.273,0.732-0.639l0.156-1.155
						c0.06-0.443-0.285-0.837-0.732-0.837h-7.719c-0.369,0-0.682,0.273-0.732,0.639l-0.156,1.155
						C207.775,158.535,208.119,158.929,208.566,158.929z"/>
				</g>
			</g>
			<g>
				<g>
					<path fill="#E6E7E8" d="M212.305,151.704h-25.99l2.183-6.427c0.233-0.685,0.771-1.13,1.367-1.13h18.889
						c0.596,0,1.134,0.445,1.367,1.13L212.305,151.704z"/>
				</g>
			</g>
		</g>
	</g>
</g>
</svg>
