<?xml version="1.0" encoding="utf-8"?>
<!-- Generator: Adobe Illustrator 24.0.0, SVG Export Plug-In . SVG Version: 6.00 Build 0)  -->
<svg version="1.1" id="Layer_1" xmlns="http://www.w3.org/2000/svg" xmlns:xlink="http://www.w3.org/1999/xlink" x="0px" y="0px"
	 viewBox="0 0 256 256" enable-background="new 0 0 256 256" xml:space="preserve">
<g>
	<g>
		<g>
			<path fill="#76A34F" d="M43.18,181.315c12.606-12.606,33.647-13.011,41.977-12.62c2.071,0.097,3.721,1.747,3.818,3.818
				c0.392,8.33-0.014,29.372-12.62,41.977c-12.606,12.606-33.647,13.011-41.977,12.62c-2.071-0.097-3.721-1.747-3.818-3.818
				C30.168,214.962,30.574,193.921,43.18,181.315z"/>
		</g>
	</g>
	<g>
		<path fill="#648940" d="M34.378,227.11c8.33,0.392,29.371-0.014,41.977-12.62s13.011-33.647,12.62-41.978
			c-0.049-1.036-0.485-1.966-1.169-2.649l-56.078,56.078C32.412,226.625,33.342,227.062,34.378,227.11z"/>
	</g>
	<g>
		<g>
			<path fill="#76A34F" d="M118.118,139.449c-17.642,17.642-46.474,19.101-59.909,18.713c-4.26-0.123-7.67-3.533-7.793-7.793
				c-0.388-13.435,1.071-42.267,18.713-59.909s46.474-19.101,59.909-18.713c4.26,0.123,7.67,3.533,7.793,7.793
				C137.22,92.975,135.76,121.806,118.118,139.449z"/>
		</g>
	</g>
	<g>
		<g>
			
				<ellipse transform="matrix(0.3475 -0.9377 0.9377 0.3475 53.9439 167.6199)" fill="#76A34F" cx="147.406" cy="45.052" rx="16.813" ry="11.28"/>
		</g>
		<g>
			
				<ellipse transform="matrix(0.0973 -0.9953 0.9953 0.0973 59.3615 157.8293)" fill="#76A34F" cx="116.689" cy="46.19" rx="14.326" ry="9.612"/>
		</g>
		<g>
			<ellipse transform="matrix(1 -0.007 0.007 1 -0.3613 0.6271)" fill="#76A34F" cx="89.387" cy="51.915" rx="8.371" ry="12.478"/>
		</g>
		<g>
			
				<ellipse transform="matrix(0.9746 -0.2241 0.2241 0.9746 -12.5404 16.6281)" fill="#76A34F" cx="66.988" cy="63.563" rx="7.034" ry="10.484"/>
		</g>
		<g>
			
				<ellipse transform="matrix(0.9365 -0.3506 0.3506 0.9365 -25.2079 22.7737)" fill="#76A34F" cx="50.286" cy="80.999" rx="6.466" ry="9.638"/>
		</g>
	</g>
	<g>
		<path fill="#648940" d="M58.209,158.162c13.435,0.388,42.267-1.071,59.909-18.713c17.642-17.643,19.101-46.474,18.713-59.91
			c-0.062-2.13-0.945-4.047-2.345-5.448l-81.726,81.726C54.161,157.217,56.079,158.101,58.209,158.162z"/>
	</g>
	<g>
		<g>
			<path fill="#808285" d="M215.097,200.164c6.664-9.88,10.522-21.809,10.429-34.643c-0.236-32.664-26.572-59.699-59.221-60.74
				c-35.391-1.129-64.315,27.789-63.195,63.179c1.035,32.709,28.157,59.074,60.881,59.238c12.874,0.064,24.829-3.849,34.714-10.577
				l20.96,7.478c1.82,0.649,3.576-1.107,2.927-2.927L215.097,200.164z"/>
		</g>
	</g>
	<g>
		<path fill="#939598" d="M109.1,169.77c-2.586-0.033-2.63-3.879-0.059-4C111.741,165.681,111.76,169.754,109.1,169.77z
			 M109.42,161.779c-1.154,0.039-2.151-1.071-1.99-2.22c0.69-6.25,2.39-12.29,5.05-17.95c9.098-19.545,29.5-32.839,51.12-32.859
			c0.03,0,0.06,0,0.101,0h0.399c1.168-0.095,2.208,0.811,2.2,2c0.006,1.377-1.274,2.173-2.56,2
			c-26.174-0.212-49.911,21.214-52.34,47.25C111.297,161.008,110.433,161.78,109.42,161.779z"/>
	</g>
	<g>
		<path fill="#58595B" d="M215.097,200.164c6.664-9.88,10.522-21.808,10.429-34.643c-0.138-19.132-9.23-36.333-23.3-47.51
			c8.235,10.363,13.198,23.412,13.3,37.51c0.093,12.835-3.765,24.763-10.429,34.643l7.495,21.007
			c0.649,1.819-1.107,3.576-2.927,2.927l-20.96-7.479c-9.885,6.728-21.84,10.641-34.714,10.577
			c-14.15-0.071-27.252-5.04-37.651-13.303c11.206,14.106,28.466,23.208,47.651,23.303c12.874,0.064,24.829-3.849,34.714-10.577
			l20.96,7.479c1.82,0.649,3.576-1.107,2.927-2.927L215.097,200.164z"/>
	</g>
	<g>
		<path fill="#414042" d="M215.097,200.164c6.664-9.88,10.522-21.808,10.429-34.643c-0.129-17.873-8.072-34.059-20.587-45.225
			c9.594,10.753,15.476,24.866,15.587,40.225c0.093,12.835-3.765,24.763-10.429,34.643l7.495,21.007
			c0.649,1.819-1.107,3.576-2.927,2.927l-20.96-7.479c-9.885,6.728-21.84,10.641-34.714,10.577
			c-15.411-0.077-29.579-5.965-40.365-15.589c11.197,12.549,27.44,20.5,45.365,20.589c12.874,0.064,24.829-3.849,34.714-10.577
			l20.96,7.479c1.82,0.649,3.576-1.107,2.927-2.927L215.097,200.164z"/>
	</g>
	<g>
		<g>
			<path fill="#F1F2F2" d="M139.629,191.709h-7.311c-6.142,0-11.139-4.997-11.139-11.139v-29.243
				c0-6.142,4.997-11.139,11.139-11.139h7.311c6.142,0,11.139,4.997,11.139,11.139c0,1.104-0.896,2-2,2s-2-0.896-2-2
				c0-3.937-3.202-7.139-7.139-7.139h-7.311c-3.937,0-7.139,3.202-7.139,7.139v29.243c0,3.937,3.202,7.139,7.139,7.139h7.311
				c3.937,0,7.139-3.202,7.139-7.139c0-1.104,0.896-2,2-2s2,0.896,2,2C150.768,186.712,145.771,191.709,139.629,191.709z"/>
		</g>
		<g>
			<path fill="#F1F2F2" d="M174.355,191.758h-7.311c-6.142,0-11.139-4.997-11.139-11.139v-29.243
				c0-6.142,4.997-11.139,11.139-11.139h7.311c6.142,0,11.139,4.997,11.139,11.139v29.243
				C185.494,186.761,180.497,191.758,174.355,191.758z M167.045,144.237c-3.937,0-7.139,3.202-7.139,7.139v29.243
				c0,3.937,3.202,7.139,7.139,7.139h7.311c3.937,0,7.139-3.202,7.139-7.139v-29.243c0-3.937-3.202-7.139-7.139-7.139H167.045z"/>
		</g>
		<g>
			<path fill="#F1F2F2" d="M205.427,167.997h-12.794c-1.104,0-2-0.896-2-2v-10.052c0-3.622,2.947-6.569,6.569-6.569h3.655
				c1.417,0,2.569-1.152,2.569-2.569s-1.152-2.569-2.569-2.569h-8.225c-1.104,0-2-0.896-2-2s0.896-2,2-2h8.225
				c3.622,0,6.569,2.947,6.569,6.569s-2.947,6.569-6.569,6.569h-3.655c-1.417,0-2.569,1.152-2.569,2.569v8.052h10.794
				c1.104,0,2,0.896,2,2S206.531,167.997,205.427,167.997z"/>
		</g>
	</g>
</g>
</svg>
