<?xml version="1.0" encoding="utf-8"?>
<!-- Generator: Adobe Illustrator 24.0.0, SVG Export Plug-In . SVG Version: 6.00 Build 0)  -->
<svg version="1.1" id="Layer_1" xmlns="http://www.w3.org/2000/svg" xmlns:xlink="http://www.w3.org/1999/xlink" x="0px" y="0px"
	 viewBox="0 0 256 256" enable-background="new 0 0 256 256" xml:space="preserve">
<g>
	<g>
		<g>
			<path fill="#808285" d="M208.377,100.275c0-4.511-3.657-8.168-8.168-8.168h-44.742c-4.512,0-8.168,3.657-8.168,8.168v55.45
				c0,4.511,3.657,8.168,8.168,8.168h44.742c4.511,0,8.168-3.657,8.168-8.168L208.377,100.275z M199.077,136.01
				c0,1.895-1.536,3.431-3.431,3.431c-1.895,0-3.431-1.536-3.431-3.431v-16.02c0-1.895,1.536-3.431,3.431-3.431
				c1.895,0,3.431,1.536,3.431,3.431V136.01z"/>
		</g>
		<g>
			<g>
				<path fill="#58595B" d="M208.377,100.275c0-3.562-2.28-6.591-5.46-7.708c0.298,0.848,0.46,1.759,0.46,2.708l0,55.45
					c0,4.511-3.657,8.168-8.168,8.168h-44.742c-0.949,0-1.861-0.163-2.708-0.46c1.117,3.18,4.146,5.46,7.708,5.46h44.742
					c4.511,0,8.168-3.657,8.168-8.168L208.377,100.275z"/>
			</g>
		</g>
		<g>
			<g>
				<path fill="#E6E7E8" d="M62.164,141.337l85.134,0v-26.673l-85.134,0c-2.056,0-4.022,0.839-5.444,2.324l-8.051,8.406
					c-1.396,1.458-1.396,3.756,0,5.214l8.051,8.406C58.142,140.497,60.109,141.337,62.164,141.337z"/>
			</g>
			<g>
				<path fill="#D1D3D4" d="M63.83,141.337l11.517-11.517c1.472-1.472,3.858-1.472,5.33,0l3.768,3.768
					c0.707,0.707,1.665,1.104,2.665,1.104h9.721c1,0,1.958-0.397,2.665-1.104l3.005-3.005c1.472-1.472,3.858-1.472,5.33,0l3.71,3.71
					c0.707,0.707,1.665,1.104,2.665,1.104h20.569c1,0,1.958,0.397,2.665,1.104l4.837,4.837L63.83,141.337z"/>
			</g>
			<polygon fill="#D1D3D4" points="51.517,122.42 147.298,122.42 147.298,118.348 55.417,118.348 			"/>
		</g>
	</g>
	<g>
		<g>
			<g>
				<g>
					<g>
						<path fill="#FCC4AE" d="M218.043,192.67c-8.406,6.665-37.353,29.18-57.19,39.243c-23.435,11.896-46.024,0-64.377-2.247
							c-10.914-1.639-21.939,5.099-27.87,11.672l-0.133,0.025l-2.495,0.348v-45.477c11-16.393,27.635-14.208,45.552-15.941
							c12.612-1.615,24.887-5.369,36.093-11.407c2.227-1.646,4.624-0.362,5.09,2.213c1.646,9.1-3.83,19.069-12.41,20.906
							c0,0-4.518,1.028-4.518,1.028c-1.575,0.377-1.411,2.597,0.158,2.868c15.75,5.438,31.766,1.849,47.126-4.841
							c10.155-4.418,26.403-15.684,35.563-3.465C219.792,189.146,219.518,191.501,218.043,192.67z"/>
					</g>
					<g>
						<g>
							<path fill="#F2AD97" d="M90.026,228.199c-5.935-0.729-11.224,0.555-15.659,2.636c-3.296,1.548-6.113,3.53-8.39,5.441v5.435
								l2.495-0.348l0.133-0.025c2.503-2.653,6.706-6.449,12.211-9.036c4.435-2.081,9.724-3.366,15.659-2.636
								c2.014,0.247,4.083,0.614,6.195,1.049C98.276,229.647,94.049,228.691,90.026,228.199z"/>
						</g>
					</g>
					<g>
						<g>
							<path fill="#F2AD97" d="M218.631,187.596c-2.211-2.949-4.837-4.521-7.689-5.16c-0.18,0.757-0.573,1.456-1.189,1.944
								c-8.406,6.665-37.353,29.18-57.19,39.243c-23.435,11.896-46.024,0-64.377-2.247c-5.935-0.729-11.224,0.555-15.659,2.636
								c-2.461,1.156-4.644,2.556-6.549,3.986v13.713l2.495-0.348l0.133-0.025c2.503-2.653,6.706-6.449,12.211-9.036
								c4.435-2.081,9.724-3.366,15.659-2.636c18.353,2.247,40.943,14.142,64.377,2.247c19.837-10.064,48.784-32.578,57.19-39.243
								C219.518,191.501,219.792,189.146,218.631,187.596z"/>
						</g>
					</g>
					<g>
						<g>
							<g>
								<g>
									<path fill="#F1F2F2" d="M78.091,240.014l-9.484,1.327l-0.134,0.019l-2.494,0.351l-3.2,0.446
										c-2.063,0.29-3.966-1.152-4.256-3.215l-7.15-51.137c-0.29-2.063,1.148-3.966,3.211-4.256l15.312-2.143
										c0.976-0.133,1.922,0.114,2.673,0.645c0.831,0.572,1.426,1.483,1.583,2.57l0.412,2.959l5.309,37.949l0.946,6.773
										l0.484,3.459C81.592,237.821,80.151,239.724,78.091,240.014z"/>
								</g>
							</g>
							<g>
								<path fill="#E6E7E8" d="M81.303,235.762l-0.484-3.459l-0.946-6.773l-5.309-37.949l-0.412-2.959
									c-0.156-1.087-0.751-1.998-1.583-2.57c-0.689-0.486-1.544-0.72-2.434-0.655l0.284,2.039l5.309,37.949l0.946,6.773
									l0.484,3.459c0.29,2.059-1.152,3.962-3.211,4.252l-9.484,1.327l-0.134,0.019l-2.494,0.351l-3.2,0.446
									c-0.081,0.011-0.159,0.003-0.24,0.009l0.129,0.921c0.29,2.063,2.193,3.505,4.256,3.215l3.2-0.446l2.494-0.351l0.134-0.019
									l9.484-1.327C80.151,239.724,81.592,237.821,81.303,235.762z"/>
							</g>
							<g>
								<path fill="#8C3F0A" d="M41.767,245.527h16.98c2.827,0,5.118-2.292,5.118-5.118v-59.786c0-2.827-2.292-5.118-5.118-5.118
									h-16.98c-2.827,0-5.118,2.292-5.118,5.118v59.786C36.648,243.236,38.94,245.527,41.767,245.527z"/>
							</g>
							<g>
								<path fill="#7C3108" d="M59.637,175.587c0.051,0.29,0.083,0.586,0.083,0.891v59.786c0,2.827-2.292,5.118-5.118,5.118h-16.98
									c-0.304,0-0.601-0.032-0.891-0.083c0.422,2.401,2.514,4.227,5.036,4.227h16.98c2.827,0,5.118-2.292,5.118-5.118v-59.786
									C63.865,178.101,62.038,176.01,59.637,175.587z"/>
							</g>
						</g>
						<g>
							<g>
								
									<ellipse transform="matrix(0.2298 -0.9732 0.9732 0.2298 -181.2824 223.0181)" fill="#FFFFFF" cx="50.256" cy="226.039" rx="5.464" ry="5.464"/>
							</g>
						</g>
						<g>
							<path fill="#E6E7E8" d="M53.198,221.439c0.545,0.85,0.864,1.858,0.864,2.942c0,3.018-2.447,5.464-5.464,5.464
								c-1.084,0-2.092-0.32-2.942-0.864c0.971,1.515,2.666,2.522,4.6,2.522c3.018,0,5.464-2.447,5.464-5.464
								C55.721,224.105,54.714,222.41,53.198,221.439z"/>
						</g>
					</g>
				</g>
			</g>
		</g>
		<g>
			<g>
				<g>
					<g>
						<path fill="#FCC4AE" d="M37.957,63.33c8.406-6.665,37.353-29.18,57.19-39.243c23.435-11.896,46.024,0,64.377,2.247
							c10.914,1.639,21.939-5.099,27.87-11.672l0.133-0.025l2.495-0.348v45.477c-11,16.393-27.635,14.208-45.552,15.941
							c-12.612,1.615-24.887,5.369-36.093,11.407c-2.227,1.646-4.624,0.362-5.09-2.213c-1.646-9.1,3.83-19.069,12.41-20.906
							c0,0,4.518-1.028,4.518-1.028c1.575-0.377,1.411-2.597-0.158-2.868c-15.75-5.438-31.766-1.849-47.126,4.841
							c-10.155,4.418-26.403,15.684-35.563,3.465C36.208,66.854,36.482,64.499,37.957,63.33z"/>
					</g>
					<g>
						<g>
							<path fill="#F2AD97" d="M144.471,65.707c-12.613,1.614-24.887,5.368-36.093,11.407c-1.798,1.329-3.705,0.747-4.619-0.881
								c-0.791,2.784-0.995,5.769-0.471,8.667c0.466,2.575,2.862,3.859,5.09,2.213c11.206-6.038,23.48-9.792,36.093-11.407
								c17.916-1.732,34.552,0.453,45.552-15.941v-10C179.023,66.159,162.387,63.974,144.471,65.707z"/>
						</g>
					</g>
					<g>
						<g>
							<g>
								<g>
									<path fill="#F1F2F2" d="M177.909,15.986l9.484-1.327l0.134-0.019l2.494-0.351l3.2-0.446
										c2.063-0.29,3.966,1.152,4.256,3.215l7.15,51.137c0.29,2.063-1.148,3.966-3.211,4.256l-15.312,2.143
										c-0.976,0.133-1.922-0.114-2.673-0.645c-0.831-0.572-1.426-1.483-1.583-2.57l-0.412-2.959l-5.309-37.949l-0.946-6.773
										l-0.484-3.459C174.408,18.179,175.849,16.276,177.909,15.986z"/>
								</g>
							</g>
							<g>
								<path fill="#8C3F0A" d="M214.233,10.473h-16.98c-2.827,0-5.118,2.292-5.118,5.118v59.786c0,2.827,2.292,5.118,5.118,5.118
									h16.98c2.827,0,5.118-2.292,5.118-5.118V15.591C219.352,12.764,217.06,10.473,214.233,10.473z"/>
							</g>
							<g>
								<path fill="#7C3108" d="M214.233,10.473h-4.882v54.904c0,2.827-2.292,5.118-5.118,5.118h-12.098v4.882
									c0,2.827,2.292,5.118,5.118,5.118h16.98c2.827,0,5.118-2.292,5.118-5.118V15.591
									C219.352,12.764,217.06,10.473,214.233,10.473z"/>
							</g>
							<g>
								<path fill="#6D2E03" d="M214.35,10.474c0.001,0.039,0.001,0.078,0.001,0.117v59.786c0,2.827-2.292,5.118-5.118,5.118h-16.98
									c-0.039,0-0.078-0.001-0.117-0.001c0.062,2.773,2.329,5.001,5.117,5.001h16.98c2.827,0,5.118-2.292,5.118-5.118V15.591
									C219.352,12.803,217.123,10.536,214.35,10.474z"/>
							</g>
						</g>
						<g>
							<g>
								
									<ellipse transform="matrix(0.2298 -0.9732 0.9732 0.2298 129.314 223.3171)" fill="#FFFFFF" cx="205.744" cy="29.961" rx="5.464" ry="5.464"/>
							</g>
						</g>
					</g>
				</g>
			</g>
		</g>
	</g>
	<g>
		<path fill="#939598" d="M153.3,153.25c-1.11,0-2-0.9-2-2v-50.97c0-2.301,1.87-4.171,4.17-4.171h25.61c1.109,0,2,0.9,2,2
			c0,1.101-0.891,2-2,2h-25.61c-0.09,0-0.17,0.08-0.17,0.171v50.96v0.01C155.3,152.35,154.399,153.25,153.3,153.25z M189.08,100.109
			c-1.101,0-2-0.899-2-2c0-1.109,0.899-2,2-2c1.109,0,2,0.891,2,2C191.08,99.21,190.189,100.109,189.08,100.109z"/>
	</g>
</g>
</svg>
