<?xml version="1.0" encoding="utf-8"?>
<!-- Generator: Adobe Illustrator 24.0.0, SVG Export Plug-In . SVG Version: 6.00 Build 0)  -->
<svg version="1.1" id="Layer_1" xmlns="http://www.w3.org/2000/svg" xmlns:xlink="http://www.w3.org/1999/xlink" x="0px" y="0px"
	 viewBox="0 0 256 256" enable-background="new 0 0 256 256" xml:space="preserve">
<g>
	<g>
		<g>
			<path fill="#F1F2F2" d="M184.648,60.745v108.93c0,0.769-0.307,1.508-0.852,2.053l-9.06,9.06c-1.132,1.135-2.971,1.135-4.102,0
				l-7.87-7.87c-1.135-1.132-2.971-1.132-4.102,0l-7.87,7.87c-1.135,1.135-2.971,1.135-4.102,0l-7.87-7.87
				c-1.135-1.132-2.971-1.132-4.102,0l-7.873,7.87c-1.132,1.135-2.967,1.135-4.099,0l-7.873-7.87c-1.132-1.132-2.967-1.132-4.102,0
				l-7.87,7.87c-1.132,1.135-2.967,1.135-4.102,0l-7.87-7.87c-1.132-1.132-2.967-1.132-4.102,0l-7.87,7.87
				c-1.132,1.135-2.971,1.135-4.102,0l-9.064-9.06c-0.542-0.545-0.849-1.284-0.849-2.053V26.143c0-1.601,1.301-2.898,2.902-2.898
				h79.307c0.769,0,1.504,0.304,2.049,0.849l34.599,34.599C184.341,59.237,184.648,59.976,184.648,60.745z"/>
		</g>
		<g>
			<path fill="#939598" d="M184.647,59.542h-32.033c-2.356,0-4.266-1.91-4.266-4.266V23.243L184.647,59.542z"/>
		</g>
		<g>
			<path fill="#D1D3D4" d="M123.211,66.018H84.934c-1.538,0-2.785-1.247-2.785-2.785v-0.905c0-1.538,1.247-2.785,2.785-2.785h38.278
				c1.538,0,2.785,1.247,2.785,2.785v0.905C125.997,64.771,124.75,66.018,123.211,66.018z"/>
		</g>
		<g>
			<path fill="#D1D3D4" d="M163.317,140.219H84.934c-1.538,0-2.785-1.247-2.785-2.785v-0.905c0-1.538,1.247-2.785,2.785-2.785
				h78.383c1.538,0,2.785,1.247,2.785,2.785v0.905C166.102,138.972,164.855,140.219,163.317,140.219z"/>
		</g>
		<g>
			<path fill="#D1D3D4" d="M123.211,53.719H84.934c-1.538,0-2.785-1.247-2.785-2.785v-0.905c0-1.538,1.247-2.785,2.785-2.785h38.278
				c1.538,0,2.785,1.247,2.785,2.785v0.905C125.997,52.472,124.75,53.719,123.211,53.719z"/>
		</g>
		<g>
			<path fill="#D1D3D4" d="M117.52,90.046H84.934c-1.538,0-2.785-1.247-2.785-2.785v-0.905c0-1.538,1.247-2.785,2.785-2.785h32.586
				c1.538,0,2.785,1.247,2.785,2.785v0.905C120.305,88.799,119.058,90.046,117.52,90.046z"/>
		</g>
		<g>
			<path fill="#D1D3D4" d="M107.169,103.617H84.934c-1.538,0-2.785-1.247-2.785-2.785v-0.905c0-1.538,1.247-2.785,2.785-2.785
				h22.236c1.538,0,2.785,1.247,2.785,2.785v0.905C109.954,102.369,108.707,103.617,107.169,103.617z"/>
		</g>
		<g>
			<path fill="#D1D3D4" d="M114.069,117.187H84.934c-1.538,0-2.785-1.247-2.785-2.785v-0.905c0-1.538,1.247-2.785,2.785-2.785
				h29.136c1.538,0,2.785,1.247,2.785,2.785v0.905C116.855,115.94,115.608,117.187,114.069,117.187z"/>
		</g>
	</g>
	<g>
		<g>
			<g>
				<circle fill="#FFA91A" cx="162.006" cy="94.392" r="29.055"/>
			</g>
		</g>
		<g>
			<path fill="#F79219" d="M179.899,71.499c3.861,4.932,6.162,11.144,6.162,17.893c0,16.047-13.009,29.055-29.055,29.055
				c-6.749,0-12.961-2.301-17.893-6.162c5.318,6.795,13.596,11.162,22.893,11.162c16.047,0,29.055-13.008,29.055-29.055
				C191.061,85.095,186.694,76.817,179.899,71.499z"/>
		</g>
		<g>
			<g>
				<path fill="#FFFFFF" d="M164.65,111.626h-5.289c-4.748,0-8.611-3.863-8.611-8.611c0-1.104,0.896-2,2-2s2,0.896,2,2
					c0,2.543,2.068,4.611,4.611,4.611h5.289c2.542,0,4.61-2.068,4.61-4.611v-2.644c0-2.543-2.068-4.611-4.61-4.611h-5.289
					c-4.748,0-8.611-3.863-8.611-8.611s3.863-8.61,8.611-8.61h5.289c4.748,0,8.61,3.862,8.61,8.61c0,1.104-0.896,2-2,2s-2-0.896-2-2
					c0-2.542-2.068-4.61-4.61-4.61h-5.289c-2.543,0-4.611,2.068-4.611,4.61c0,2.543,2.068,4.611,4.611,4.611h5.289
					c4.748,0,8.61,3.863,8.61,8.611v2.644C173.261,107.763,169.398,111.626,164.65,111.626z"/>
			</g>
			<g>
				<path fill="#FFFFFF" d="M162.006,114.271c-1.104,0-2-0.896-2-2V77.894c0-1.104,0.896-2,2-2s2,0.896,2,2v34.377
					C164.006,113.375,163.11,114.271,162.006,114.271z"/>
			</g>
		</g>
	</g>
</g>
<g>
	<g>
		<g>
			<g>
				<path fill="#FCC4AE" d="M236.62,163.745c-10.14,8.04-45.06,35.2-68.99,47.34c-28.27,14.35-55.52,0-77.66-2.71
					c-13.166-1.977-26.465,6.151-33.62,14.08l-0.16,0.03l-3.01,0.42v-54.86c13.269-19.776,33.337-17.14,54.95-19.229
					c15.215-1.948,30.021-6.476,43.54-13.761c2.687-1.985,5.578-0.436,6.14,2.67c1.985,10.978-4.62,23.003-14.97,25.22
					c0,0-5.45,1.24-5.45,1.24c-1.9,0.455-1.702,3.133,0.19,3.46c19,6.56,38.32,2.23,56.85-5.84c12.25-5.33,31.85-18.92,42.9-4.18
					C238.73,159.495,238.4,162.335,236.62,163.745z"/>
			</g>
			<g>
				<path fill="#FFD2C0" d="M69.51,162.97c-2.04,0.037-2.772-2.877-0.91-3.78c8.81-4.489,19.29-5.069,29.431-5.64
					c6.844-0.302,13.484-0.912,20.199-2.33c2.578-0.441,3.379,3.313,0.79,3.92c-6.832,1.456-13.671,2.061-20.569,2.391
					C87.472,157.973,77.91,159.091,69.51,162.97z M126.41,153.37c-2.309-0.017-2.742-3.34-0.5-3.94
					C128.82,148.847,129.394,153.222,126.41,153.37z"/>
			</g>
			<g>
				<g>
					<path fill="#F2AD97" d="M237.33,157.625c-2.663-3.552-5.823-5.459-9.256-6.233c-0.216,0.918-0.707,1.761-1.454,2.353
						c-10.14,8.04-45.06,35.2-68.99,47.34c-28.27,14.35-55.52,0-77.66-2.71c-9.693-1.455-19.458,2.566-26.79,7.953v16.577l3.01-0.42
						l0.16-0.03c7.155-7.929,20.454-16.057,33.62-14.08c22.14,2.71,49.39,17.06,77.66,2.71c23.93-12.14,58.85-39.3,68.99-47.34
						C238.4,162.335,238.73,159.495,237.33,157.625z"/>
				</g>
			</g>
			<g>
				<g>
					<path fill="#E59076" d="M237.33,157.625c-1.401-1.869-2.94-3.282-4.583-4.314c0.887,1.823,0.447,4.188-1.127,5.435
						c-10.14,8.04-45.06,35.2-68.99,47.34c-28.27,14.35-55.52,0-77.66-2.71c-12.114-1.819-24.34,4.917-31.79,12.181v7.349l3.01-0.42
						l0.16-0.03c7.155-7.929,20.454-16.057,33.62-14.08c22.14,2.71,49.39,17.06,77.66,2.71c23.93-12.14,58.85-39.3,68.99-47.34
						C238.4,162.335,238.73,159.495,237.33,157.625z"/>
				</g>
			</g>
			<g>
				<g>
					<g>
						<g>
							<path fill="#F1F2F2" d="M67.793,220.858l-11.441,1.601l-0.161,0.023l-3.009,0.423l-3.86,0.538
								c-2.489,0.35-4.784-1.389-5.134-3.878l-8.626-61.687c-0.35-2.489,1.385-4.784,3.874-5.134l18.471-2.586
								c1.178-0.161,2.319,0.138,3.225,0.778c1.003,0.69,1.721,1.79,1.909,3.101l0.497,3.57l6.404,45.779l1.141,8.17l0.584,4.173
								C72.017,218.213,70.278,220.508,67.793,220.858z"/>
						</g>
					</g>
					<g>
						<path fill="#E6E7E8" d="M71.667,215.728l-0.584-4.173l-1.141-8.17l-6.404-45.779l-0.497-3.57
							c-0.189-1.311-0.906-2.411-1.909-3.101c-0.831-0.587-1.863-0.868-2.936-0.79l0.342,2.46l6.404,45.779l1.141,8.17l0.584,4.173
							c0.35,2.484-1.389,4.78-3.874,5.13l-11.441,1.601l-0.161,0.023l-3.009,0.423l-3.86,0.538
							c-0.098,0.014-0.192,0.004-0.289,0.011l0.155,1.111c0.35,2.489,2.645,4.228,5.134,3.878l3.86-0.538l3.009-0.423l0.161-0.023
							l11.441-1.601C70.278,220.508,72.017,218.213,71.667,215.728z"/>
					</g>
					<g>
						<path fill="#8C3F0A" d="M23.974,227.509h20.483c3.41,0,6.174-2.764,6.174-6.174v-72.121c0-3.41-2.764-6.174-6.174-6.174
							H23.974c-3.41,0-6.174,2.764-6.174,6.174v72.121C17.799,224.744,20.564,227.509,23.974,227.509z"/>
					</g>
					<g>
						<path fill="#7C3108" d="M45.532,143.138c0.061,0.35,0.1,0.707,0.1,1.075v72.121c0,3.41-2.764,6.174-6.174,6.174H18.974
							c-0.367,0-0.725-0.038-1.075-0.1c0.509,2.897,3.032,5.1,6.075,5.1h20.483c3.41,0,6.174-2.764,6.174-6.174v-72.121
							C50.631,146.171,48.428,143.648,45.532,143.138z"/>
					</g>
				</g>
				<g>
					<g>
						
							<ellipse transform="matrix(0.2298 -0.9732 0.9732 0.2298 -172.1881 190.4301)" fill="#FFFFFF" cx="34.215" cy="203.999" rx="6.592" ry="6.592"/>
					</g>
				</g>
				<g>
					<path fill="#E6E7E8" d="M37.764,198.45c0.657,1.025,1.043,2.241,1.043,3.549c0,3.641-2.951,6.592-6.592,6.592
						c-1.308,0-2.524-0.386-3.549-1.043c1.172,1.828,3.216,3.043,5.549,3.043c3.641,0,6.592-2.951,6.592-6.592
						C40.807,201.667,39.592,199.622,37.764,198.45z"/>
				</g>
			</g>
		</g>
	</g>
</g>
</svg>
