<?xml version="1.0" encoding="utf-8"?>
<!-- Generator: Adobe Illustrator 24.0.0, SVG Export Plug-In . SVG Version: 6.00 Build 0)  -->
<svg version="1.1" id="Layer_1" xmlns="http://www.w3.org/2000/svg" xmlns:xlink="http://www.w3.org/1999/xlink" x="0px" y="0px"
	 viewBox="0 0 256 256" enable-background="new 0 0 256 256" xml:space="preserve">
<g>
	<g>
		<g>
			<g>
				<g>
					<path fill="#FFA91A" d="M214.938,41.304h-1.493c-1.528,0-2.767-1.239-2.767-2.767c0-1.528,1.239-2.767,2.767-2.767h1.493
						c3.352,0,6.078-3.277,6.078-7.305c0-2.73-1.799-4.95-4.01-4.95c-7.089,0-12.857,6.739-12.857,15.022
						c0,1.528-1.239,2.767-2.767,2.767c-1.528,0-2.767-1.239-2.767-2.767c0-8.283-5.768-15.022-12.857-15.022
						c-2.211,0-4.01,2.221-4.01,4.95c0,4.028,2.726,7.305,6.078,7.305h1.493c1.528,0,2.767,1.239,2.767,2.767
						c0,1.528-1.239,2.767-2.767,2.767h-1.493c-6.403,0-11.612-5.759-11.612-12.839c0-5.782,4.282-10.485,9.545-10.485
						c6.586,0,12.375,3.89,15.624,9.722c3.249-5.833,9.038-9.722,15.624-9.722c5.263,0,9.545,4.703,9.545,10.485
						C226.55,35.544,221.341,41.304,214.938,41.304z"/>
				</g>
			</g>
		</g>
		<g>
			<g>
				<path fill="#E63950" d="M232.876,110.09h-62.988c-2.183,0-3.953-1.77-3.953-3.953V51.846h70.895v54.291
					C236.829,108.32,235.059,110.09,232.876,110.09z"/>
			</g>
			<g>
				<path fill="#D10028" d="M231.829,51.846v49.292c0,2.183-1.77,3.953-3.953,3.953h-61.942v1.047c0,2.183,1.77,3.953,3.953,3.953
					h62.988c2.183,0,3.953-1.77,3.953-3.953V51.846H231.829z"/>
			</g>
			<g>
				<path fill="#E63950" d="M239.201,35.506h-75.639c-2.183,0-3.953,1.77-3.953,3.953v8.434c0,2.183,1.77,3.953,3.953,3.953h75.639
					c2.183,0,3.953-1.77,3.953-3.953v-8.434C243.154,37.276,241.384,35.506,239.201,35.506z"/>
			</g>
			<g>
				<path fill="#D10028" d="M239.201,35.506h-1.047v7.387c0,2.184-1.77,3.953-3.953,3.953h-74.592v1.047
					c0,2.184,1.77,3.953,3.953,3.953h75.639c2.183,0,3.953-1.77,3.953-3.953v-8.434C243.154,37.276,241.384,35.506,239.201,35.506z"
					/>
			</g>
			<g>
				
					<rect x="194.398" y="41.172" transform="matrix(-1.836970e-16 1 -1 -1.836970e-16 278.0014 -124.7621)" fill="#F79219" width="13.968" height="70.895"/>
			</g>
			<g>
				<rect x="194.398" y="35.506" fill="#FFA91A" width="13.968" height="74.585"/>
			</g>
			<g>
				<rect x="194.398" y="105.09" fill="#F79219" width="13.968" height="5"/>
			</g>
		</g>
	</g>
	<g>
		<g>
			<g>
				<circle fill="#58595B" cx="164.155" cy="91.692" r="18.421"/>
			</g>
		</g>
		<g>
			<path fill="#FFA91A" d="M174.735,93.104h-21.16c-1.104,0-2-0.896-2-2s0.896-2,2-2h21.16c1.104,0,2,0.896,2,2
				S175.84,93.104,174.735,93.104z"/>
		</g>
		<g>
			<path fill="#FFA91A" d="M164.155,103.685c-1.104,0-2-0.896-2-2v-21.16c0-1.104,0.896-2,2-2s2,0.896,2,2v21.16
				C166.155,102.789,165.26,103.685,164.155,103.685z"/>
		</g>
	</g>
	<g>
		<g>
			<g>
				<g>
					<path fill="#FCC4AE" d="M236.62,163.745c-10.14,8.04-45.06,35.2-68.99,47.34c-28.27,14.35-55.52,0-77.66-2.71
						c-13.166-1.977-26.465,6.151-33.62,14.08l-0.16,0.03l-3.01,0.42v-54.86c13.269-19.776,33.337-17.14,54.95-19.229
						c15.215-1.948,30.021-6.476,43.54-13.761c2.687-1.985,5.578-0.436,6.14,2.67c1.985,10.978-4.62,23.003-14.97,25.22
						c0,0-5.45,1.24-5.45,1.24c-1.9,0.455-1.702,3.133,0.19,3.46c19,6.56,38.32,2.23,56.85-5.84c12.25-5.33,31.85-18.92,42.9-4.18
						C238.73,159.495,238.4,162.335,236.62,163.745z"/>
				</g>
				<g>
					<path fill="#FFD2C0" d="M69.51,162.97c-2.04,0.032-2.77-2.868-0.91-3.78c8.81-4.489,19.29-5.069,29.43-5.64
						c6.845-0.302,13.484-0.912,20.2-2.33c2.585-0.442,3.373,3.316,0.79,3.92c-6.827,1.455-13.666,2.06-20.56,2.391
						C87.444,157.977,77.938,159.085,69.51,162.97z M126.42,153.37c-2.317-0.01-2.751-3.338-0.51-3.94
						c2.559-0.598,3.543,3.169,1.01,3.87C126.757,153.343,126.583,153.373,126.42,153.37z"/>
				</g>
				<g>
					<g>
						<path fill="#F2AD97" d="M237.33,157.625c-2.663-3.552-5.823-5.459-9.256-6.233c-0.216,0.918-0.707,1.761-1.454,2.353
							c-10.14,8.04-45.06,35.2-68.99,47.34c-28.27,14.35-55.52,0-77.66-2.71c-9.693-1.455-19.458,2.566-26.79,7.953v16.577
							l3.01-0.42l0.16-0.03c7.155-7.929,20.454-16.057,33.62-14.08c22.14,2.71,49.39,17.06,77.66,2.71
							c23.93-12.14,58.85-39.3,68.99-47.34C238.4,162.335,238.73,159.495,237.33,157.625z"/>
					</g>
				</g>
				<g>
					<g>
						<path fill="#E59076" d="M237.33,157.625c-1.401-1.869-2.94-3.282-4.583-4.314c0.887,1.823,0.447,4.188-1.127,5.435
							c-10.14,8.04-45.06,35.2-68.99,47.34c-28.27,14.35-55.52,0-77.66-2.71c-12.114-1.819-24.34,4.917-31.79,12.181v7.349
							l3.01-0.42l0.16-0.03c7.155-7.929,20.454-16.057,33.62-14.08c22.14,2.71,49.39,17.06,77.66,2.71
							c23.93-12.14,58.85-39.3,68.99-47.34C238.4,162.335,238.73,159.495,237.33,157.625z"/>
					</g>
				</g>
				<g>
					<g>
						<g>
							<g>
								<path fill="#F1F2F2" d="M67.793,220.858l-11.441,1.601l-0.161,0.023l-3.009,0.423l-3.86,0.538
									c-2.489,0.35-4.784-1.389-5.134-3.878l-8.626-61.687c-0.35-2.489,1.385-4.784,3.874-5.134l18.471-2.586
									c1.178-0.161,2.319,0.138,3.225,0.778c1.003,0.69,1.721,1.79,1.909,3.101l0.497,3.57l6.404,45.779l1.141,8.17l0.584,4.173
									C72.017,218.213,70.278,220.508,67.793,220.858z"/>
							</g>
						</g>
						<g>
							<path fill="#E6E7E8" d="M71.667,215.728l-0.584-4.173l-1.141-8.17l-6.404-45.779l-0.497-3.57
								c-0.189-1.311-0.906-2.411-1.909-3.101c-0.831-0.587-1.863-0.868-2.936-0.79l0.342,2.46l6.404,45.779l1.141,8.17l0.584,4.173
								c0.35,2.484-1.389,4.78-3.874,5.13l-11.441,1.601l-0.161,0.023l-3.009,0.423l-3.86,0.538
								c-0.098,0.014-0.192,0.004-0.289,0.011l0.155,1.111c0.35,2.489,2.645,4.228,5.134,3.878l3.86-0.538l3.009-0.423l0.161-0.023
								l11.441-1.601C70.278,220.508,72.017,218.213,71.667,215.728z"/>
						</g>
						<g>
							<path fill="#8C3F0A" d="M23.974,227.509h20.483c3.41,0,6.174-2.764,6.174-6.174v-72.121c0-3.41-2.764-6.174-6.174-6.174
								H23.974c-3.41,0-6.174,2.764-6.174,6.174v72.121C17.799,224.744,20.564,227.509,23.974,227.509z"/>
						</g>
						<g>
							<path fill="#7C3108" d="M45.532,143.138c0.061,0.35,0.1,0.707,0.1,1.075v72.121c0,3.41-2.764,6.174-6.174,6.174H18.974
								c-0.367,0-0.725-0.038-1.075-0.1c0.509,2.897,3.032,5.1,6.075,5.1h20.483c3.41,0,6.174-2.764,6.174-6.174v-72.121
								C50.631,146.171,48.428,143.648,45.532,143.138z"/>
						</g>
					</g>
					<g>
						<g>
							
								<ellipse transform="matrix(0.2298 -0.9732 0.9732 0.2298 -172.1881 190.4301)" fill="#FFFFFF" cx="34.215" cy="203.999" rx="6.592" ry="6.592"/>
						</g>
					</g>
					<g>
						<path fill="#E6E7E8" d="M37.764,198.45c0.657,1.025,1.043,2.241,1.043,3.549c0,3.641-2.951,6.592-6.592,6.592
							c-1.308,0-2.524-0.386-3.549-1.043c1.172,1.828,3.216,3.043,5.549,3.043c3.641,0,6.592-2.951,6.592-6.592
							C40.807,201.667,39.592,199.622,37.764,198.45z"/>
					</g>
				</g>
			</g>
		</g>
	</g>
	<g>
		<g>
			<g>
				<g>
					<g>
						<g>
							<path fill="#377DE2" d="M115.544,52.071l0.003,0.009c0.186-0.498,0.597-0.899,1.14-1.046l9.829-2.652
								c0.999-0.269,2.004,0.412,2.124,1.439l0.664,5.694c0.097,0.834-0.431,1.613-1.241,1.831l-12.255,3.298
								c-0.934,0.251-1.916-0.187-2.352-1.051v0c-0.256-0.506-0.289-1.096-0.092-1.628L115.544,52.071z"/>
						</g>
					</g>
				</g>
				<g>
					<g>
						<g>
							<path fill="#377DE2" d="M40.817,52.071l-0.003,0.009c-0.186-0.498-0.597-0.899-1.14-1.046l-9.829-2.652
								c-0.999-0.269-2.004,0.412-2.124,1.439l-0.664,5.694c-0.097,0.834,0.431,1.613,1.241,1.831l12.255,3.298
								c0.934,0.251,1.916-0.187,2.352-1.051l0,0c0.256-0.506,0.289-1.096,0.092-1.628L40.817,52.071z"/>
						</g>
					</g>
				</g>
			</g>
			<g>
				<g>
					<g>
						<path fill="#414042" d="M47.502,110.113H34.549c-2.525,0-4.572-2.047-4.572-4.572V83.615c0-2.525,2.047-4.572,4.572-4.572
							h12.953c2.525,0,4.572,2.047,4.572,4.572v21.926C52.074,108.066,50.027,110.113,47.502,110.113z"/>
					</g>
				</g>
				<g>
					<g>
						<path fill="#414042" d="M121.812,110.113h-12.953c-2.525,0-4.572-2.047-4.572-4.572V83.615c0-2.525,2.047-4.572,4.572-4.572
							h12.953c2.525,0,4.572,2.047,4.572,4.572v21.926C126.384,108.066,124.337,110.113,121.812,110.113z"/>
					</g>
				</g>
			</g>
			<g>
				<g>
					<path fill="#478CF7" d="M120.323,99.327H36.038c-2.066,0-3.814-1.525-4.096-3.571L28.454,70.38
						c-0.811-5.896,3.771-11.151,9.723-11.151h80.008c5.952,0,10.533,5.255,9.723,11.151l-3.489,25.376
						C124.137,97.802,122.388,99.327,120.323,99.327z"/>
				</g>
			</g>
			<g>
				<path fill="#377DE2" d="M122.159,60.065c0.714,1.605,1.008,3.426,0.748,5.314l-3.489,25.376
					c-0.281,2.046-2.03,3.571-4.096,3.571H31.746l0.196,1.429c0.281,2.046,2.03,3.571,4.096,3.571h84.284
					c2.066,0,3.814-1.525,4.096-3.571l3.489-25.376C128.524,65.891,126.016,61.775,122.159,60.065z"/>
			</g>
			<g>
				<g>
					<path fill="#377DE2" d="M30.021,81.777l1.922,13.979c0.281,2.046,2.03,3.571,4.096,3.571h84.285
						c2.066,0,3.814-1.525,4.096-3.571l1.922-13.979H30.021z"/>
				</g>
			</g>
			<g>
				<g>
					<path fill="#478CF7" d="M103.569,35.66H52.792c-3.069,0-5.812,1.915-6.869,4.797l-6.888,18.772h78.292l-6.888-18.772
						C109.381,37.575,106.638,35.66,103.569,35.66z"/>
				</g>
			</g>
			<g>
				<g>
					<path fill="#D1D3D4" d="M55.881,76.632H37.284c-0.89,0-1.643-0.658-1.762-1.54l-0.376-2.782
						c-0.144-1.067,0.686-2.017,1.762-2.017h18.597c0.89,0,1.643,0.658,1.762,1.54l0.376,2.782
						C57.787,75.683,56.957,76.632,55.881,76.632z"/>
				</g>
			</g>
			<g>
				<g>
					<path fill="#D1D3D4" d="M100.48,76.632h18.597c0.89,0,1.643-0.658,1.762-1.54l0.376-2.782c0.144-1.067-0.686-2.017-1.762-2.017
						h-18.597c-0.89,0-1.643,0.658-1.762,1.54l-0.376,2.782C98.574,75.683,99.403,76.632,100.48,76.632z"/>
				</g>
			</g>
			<g>
				<g>
					<path fill="#E6E7E8" d="M110.219,59.228H46.142l5.382-15.846c0.574-1.69,1.901-2.786,3.371-2.786h46.57
						c1.47,0,2.797,1.097,3.371,2.786L110.219,59.228z"/>
				</g>
			</g>
			<g>
				<path fill="#D1D3D4" d="M104.837,43.383c-0.574-1.689-1.901-2.786-3.371-2.786h-0.877l4.63,13.632H47.84l-1.698,5h64.077
					L104.837,43.383z"/>
			</g>
		</g>
	</g>
</g>
</svg>
