<?xml version="1.0" encoding="utf-8"?>
<!-- Generator: Adobe Illustrator 24.0.0, SVG Export Plug-In . SVG Version: 6.00 Build 0)  -->
<svg version="1.1" id="Layer_1" xmlns="http://www.w3.org/2000/svg" xmlns:xlink="http://www.w3.org/1999/xlink" x="0px" y="0px"
	 viewBox="0 0 256 256" enable-background="new 0 0 256 256" xml:space="preserve">
<g>
	<g>
		<g>
			<circle fill="#478CF7" cx="128" cy="100.891" r="77.646"/>
		</g>
		<g>
			<path fill="#377DE2" d="M152.324,27.131c20.141,14.028,33.322,37.354,33.322,63.759c0,42.883-34.763,77.646-77.646,77.646
				c-8.496,0-16.673-1.365-24.325-3.887c12.568,8.754,27.847,13.887,44.325,13.887c42.883,0,77.646-34.763,77.646-77.646
				C205.646,66.504,183.293,37.338,152.324,27.131z"/>
		</g>
		<g>
			<path fill="#58595B" d="M128,23.245v77.646h77.646C205.646,58.008,170.883,23.245,128,23.245z"/>
		</g>
		<g>
			<path fill="#414042" d="M152.428,27.165L152.428,27.165c3.187,2.764,6.681,5.117,9.733,8.089
				c2.991,2.912,5.749,6.064,8.236,9.417c9.877,13.312,15.249,29.646,15.249,46.219c0,3.388-0.217,6.726-0.638,10h19.433
				c0,0,0.176,0,0.417,0h0.789C205.646,66.542,183.343,37.403,152.428,27.165z"/>
		</g>
		<g>
			<path fill="#FFA91A" d="M186.688,151.731c11.811-13.622,18.958-31.396,18.958-50.841H128L186.688,151.731z"/>
		</g>
		<g>
			<path fill="#F79219" d="M185.008,100.891c-1.747,13.589-7.008,26.079-14.841,36.528c0,0,0.001,0.001,0.002,0.002l0.003,0.003
				c0.065,0.056,0.719,0.623,1.733,1.502l0.071,0.061c4.288,3.715,14.712,12.744,14.712,12.744l0,0
				c11.81-13.622,18.957-31.396,18.957-50.84H185.008z"/>
		</g>
	</g>
	<g>
		<g>
			<g>
				<circle fill="#FFA91A" cx="172.506" cy="53.719" r="29.055"/>
			</g>
		</g>
		<g>
			<path fill="#F79219" d="M190.4,30.826c3.861,4.933,6.162,11.144,6.162,17.894c0,16.047-13.009,29.055-29.055,29.055
				c-6.749,0-12.961-2.302-17.893-6.162c5.318,6.795,13.596,11.162,22.893,11.162c16.047,0,29.055-13.009,29.055-29.055
				C201.562,44.421,197.194,36.144,190.4,30.826z"/>
		</g>
		<g>
			<g>
				<path fill="#FFFFFF" d="M175.15,70.953h-5.288c-4.748,0-8.611-3.863-8.611-8.611c0-1.104,0.896-2,2-2s2,0.896,2,2
					c0,2.543,2.068,4.611,4.611,4.611h5.288c2.543,0,4.611-2.068,4.611-4.611v-2.645c0-2.542-2.068-4.61-4.611-4.61h-5.288
					c-4.748,0-8.611-3.863-8.611-8.611s3.863-8.61,8.611-8.61h5.288c4.748,0,8.611,3.862,8.611,8.61c0,1.104-0.896,2-2,2
					s-2-0.896-2-2c0-2.542-2.068-4.61-4.611-4.61h-5.288c-2.543,0-4.611,2.068-4.611,4.61c0,2.543,2.068,4.611,4.611,4.611h5.288
					c4.748,0,8.611,3.862,8.611,8.61v2.645C183.762,67.09,179.898,70.953,175.15,70.953z"/>
			</g>
			<g>
				<path fill="#FFFFFF" d="M172.507,73.598c-1.104,0-2-0.896-2-2V37.221c0-1.104,0.896-2,2-2s2,0.896,2,2v34.377
					C174.507,72.702,173.611,73.598,172.507,73.598z"/>
			</g>
		</g>
	</g>
	<g>
		<g>
			<g>
				<g>
					<path fill="#FCC4AE" d="M236.62,163.745c-10.14,8.04-45.06,35.2-68.99,47.34c-28.27,14.35-55.52,0-77.66-2.71
						c-13.166-1.977-26.465,6.151-33.62,14.08l-0.16,0.03l-3.01,0.42v-54.86c13.269-19.776,33.337-17.14,54.95-19.229
						c15.215-1.948,30.021-6.476,43.54-13.761c2.687-1.985,5.578-0.436,6.14,2.67c1.985,10.978-4.62,23.003-14.97,25.22
						c0,0-5.45,1.24-5.45,1.24c-1.9,0.455-1.702,3.133,0.19,3.46c19,6.56,38.32,2.23,56.85-5.84c12.25-5.33,31.85-18.92,42.9-4.18
						C238.73,159.495,238.4,162.335,236.62,163.745z"/>
				</g>
				<g>
					<path fill="#FFD2C0" d="M69.51,162.97c-2.04,0.032-2.771-2.867-0.91-3.78c8.81-4.489,19.3-5.069,29.44-5.64
						c6.847-0.306,13.447-0.902,20.189-2.33c2.58-0.446,3.365,3.323,0.79,3.92c-6.894,1.473-13.643,2.053-20.569,2.391
						C87.462,157.973,77.911,159.091,69.51,162.97z M126.42,153.37c-2.324-0.01-2.753-3.355-0.5-3.94
						C128.829,148.843,129.379,153.226,126.42,153.37z"/>
				</g>
				<g>
					<g>
						<path fill="#F2AD97" d="M237.33,157.625c-2.663-3.552-5.823-5.459-9.256-6.233c-0.216,0.918-0.707,1.761-1.454,2.353
							c-10.14,8.04-45.06,35.2-68.99,47.34c-28.27,14.35-55.52,0-77.66-2.71c-9.693-1.455-19.458,2.566-26.79,7.953v16.577
							l3.01-0.42l0.16-0.03c7.155-7.929,20.454-16.057,33.62-14.08c22.14,2.71,49.39,17.06,77.66,2.71
							c23.93-12.14,58.85-39.3,68.99-47.34C238.4,162.335,238.73,159.495,237.33,157.625z"/>
					</g>
				</g>
				<g>
					<g>
						<path fill="#E59076" d="M237.33,157.625c-1.401-1.869-2.94-3.282-4.583-4.314c0.887,1.823,0.447,4.188-1.127,5.435
							c-10.14,8.04-45.06,35.2-68.99,47.34c-28.27,14.35-55.52,0-77.66-2.71c-12.114-1.819-24.34,4.917-31.79,12.181v7.349
							l3.01-0.42l0.16-0.03c7.155-7.929,20.454-16.057,33.62-14.08c22.14,2.71,49.39,17.06,77.66,2.71
							c23.93-12.14,58.85-39.3,68.99-47.34C238.4,162.335,238.73,159.495,237.33,157.625z"/>
					</g>
				</g>
				<g>
					<g>
						<g>
							<g>
								<path fill="#F1F2F2" d="M67.793,220.858l-11.441,1.601l-0.161,0.023l-3.009,0.423l-3.86,0.538
									c-2.489,0.35-4.784-1.389-5.134-3.878l-8.626-61.687c-0.35-2.489,1.385-4.784,3.874-5.134l18.471-2.586
									c1.178-0.161,2.319,0.138,3.225,0.778c1.003,0.69,1.721,1.79,1.909,3.101l0.497,3.57l6.404,45.779l1.141,8.17l0.584,4.173
									C72.017,218.213,70.278,220.508,67.793,220.858z"/>
							</g>
						</g>
						<g>
							<path fill="#E6E7E8" d="M71.667,215.728l-0.584-4.173l-1.141-8.17l-6.404-45.779l-0.497-3.57
								c-0.189-1.311-0.906-2.411-1.909-3.101c-0.831-0.587-1.863-0.868-2.936-0.79l0.342,2.46l6.404,45.779l1.141,8.17l0.584,4.173
								c0.35,2.484-1.389,4.78-3.874,5.13l-11.441,1.601l-0.161,0.023l-3.009,0.423l-3.86,0.538
								c-0.098,0.014-0.192,0.004-0.289,0.011l0.155,1.111c0.35,2.489,2.645,4.228,5.134,3.878l3.86-0.538l3.009-0.423l0.161-0.023
								l11.441-1.601C70.278,220.508,72.017,218.213,71.667,215.728z"/>
						</g>
						<g>
							<path fill="#8C3F0A" d="M23.974,227.509h20.483c3.41,0,6.174-2.764,6.174-6.174v-72.121c0-3.41-2.764-6.174-6.174-6.174
								H23.974c-3.41,0-6.174,2.764-6.174,6.174v72.121C17.799,224.744,20.564,227.509,23.974,227.509z"/>
						</g>
						<g>
							<path fill="#7C3108" d="M45.532,143.138c0.061,0.35,0.1,0.707,0.1,1.075v72.121c0,3.41-2.764,6.174-6.174,6.174H18.974
								c-0.367,0-0.725-0.038-1.075-0.1c0.509,2.897,3.032,5.1,6.075,5.1h20.483c3.41,0,6.174-2.764,6.174-6.174v-72.121
								C50.631,146.171,48.428,143.648,45.532,143.138z"/>
						</g>
					</g>
					<g>
						<g>
							
								<ellipse transform="matrix(0.2298 -0.9732 0.9732 0.2298 -172.1881 190.4301)" fill="#FFFFFF" cx="34.215" cy="203.999" rx="6.592" ry="6.592"/>
						</g>
					</g>
					<g>
						<path fill="#E6E7E8" d="M37.764,198.45c0.657,1.025,1.043,2.241,1.043,3.549c0,3.641-2.951,6.592-6.592,6.592
							c-1.308,0-2.524-0.386-3.549-1.043c1.172,1.828,3.216,3.043,5.549,3.043c3.641,0,6.592-2.951,6.592-6.592
							C40.807,201.667,39.592,199.622,37.764,198.45z"/>
					</g>
				</g>
			</g>
		</g>
	</g>
</g>
</svg>
