<?xml version="1.0" encoding="utf-8"?>
<!-- Generator: Adobe Illustrator 24.0.0, SVG Export Plug-In . SVG Version: 6.00 Build 0)  -->
<svg version="1.1" id="Layer_1" xmlns="http://www.w3.org/2000/svg" xmlns:xlink="http://www.w3.org/1999/xlink" x="0px" y="0px"
	 viewBox="0 0 256 256" enable-background="new 0 0 256 256" xml:space="preserve">
<g>
	<g>
		<path fill="#76A34F" d="M216.105,102.26c0,59.863-63.941,120.253-82.88,136.827c-3.002,2.627-7.468,2.646-10.491,0.044
			c-18.99-16.347-82.839-75.849-82.839-136.872c0-48.659,39.446-88.105,88.105-88.105S216.105,53.602,216.105,102.26z"/>
	</g>
	<g>
		<path fill="#648940" d="M157.038,19.053c23.561,15.813,39.067,42.699,39.067,73.207c0,59.863-63.94,120.253-82.88,136.828
			c-0.284,0.249-0.582,0.474-0.89,0.676c4.155,3.902,7.723,7.064,10.399,9.368c3.023,2.602,7.489,2.583,10.491-0.044
			c18.939-16.575,82.88-76.965,82.88-136.828C216.105,63.776,191.43,31.055,157.038,19.053z"/>
	</g>
	<g>
		<g>
			<g>
				<path fill="#F1F2F2" d="M128,163.528c-13.101,0-23.721,10.62-23.721,23.721s10.62,23.721,23.721,23.721
					s23.721-10.62,23.721-23.721S141.101,163.528,128,163.528z M128,197.64c-5.738,0-10.391-4.652-10.391-10.391
					s4.652-10.391,10.391-10.391s10.391,4.652,10.391,10.391S133.738,197.64,128,197.64z"/>
			</g>
			<g>
				<g>
					<path fill="#E6E7E8" d="M143.28,169.111c3.481,4.128,5.582,9.457,5.582,15.28c0,13.101-10.62,23.721-23.721,23.721
						c-5.822,0-11.152-2.101-15.28-5.582c4.351,5.16,10.861,8.441,18.139,8.441c13.101,0,23.721-10.62,23.721-23.721
						C151.721,179.971,148.44,173.462,143.28,169.111z"/>
				</g>
			</g>
			<g>
				<g>
					<path fill="#D1D3D4" d="M151.105,181.855l5.767-5.088c0.868-0.766,1.077-2.038,0.497-3.041l-3.067-5.313
						c-0.579-1.003-1.785-1.458-2.882-1.09l-7.355,2.473C147.507,172.967,150.009,177.141,151.105,181.855z"/>
				</g>
				<g>
					<path fill="#E6E7E8" d="M99.128,176.768l5.767,5.088c1.096-4.714,3.598-8.889,7.04-12.059l-7.355-2.473
						c-1.098-0.369-2.303,0.087-2.882,1.09l-3.067,5.313C98.051,174.73,98.259,176.002,99.128,176.768z"/>
				</g>
				<g>
					<path fill="#E6E7E8" d="M128,163.528c2.417,0,4.749,0.362,6.946,1.033l-1.494-7.395c-0.229-1.135-1.227-1.951-2.385-1.951
						h-6.135c-1.158,0-2.156,0.816-2.385,1.951l-1.494,7.395C123.251,163.89,125.583,163.528,128,163.528z"/>
				</g>
				<g>
					<path fill="#D1D3D4" d="M156.685,197.407l-5.549-4.896c-1.058,4.674-3.497,8.824-6.864,11.999l6.961,2.34
						c1.098,0.369,2.303-0.087,2.882-1.09l3.067-5.313C157.761,199.445,157.553,198.173,156.685,197.407z"/>
				</g>
				<g>
					<path fill="#D1D3D4" d="M128,210.971c-2.417,0-4.749-0.362-6.946-1.033l1.494,7.395c0.229,1.135,1.227,1.951,2.385,1.951h6.135
						c1.158,0,2.156-0.816,2.385-1.951l1.494-7.395C132.749,210.61,130.417,210.971,128,210.971z"/>
				</g>
				<g>
					<path fill="#E6E7E8" d="M104.865,192.511l-5.549,4.896c-0.868,0.766-1.077,2.038-0.497,3.041l3.067,5.313
						c0.579,1.003,1.785,1.459,2.882,1.09l6.961-2.34C108.361,201.335,105.923,197.185,104.865,192.511z"/>
				</g>
			</g>
		</g>
	</g>
	<g>
		<g>
			<g>
				<g>
					<circle fill="#FFA91A" cx="138.233" cy="88.676" r="49.91"/>
				</g>
			</g>
			<g>
				<path fill="#F79219" d="M168.17,48.738c6.262,8.34,9.973,18.706,9.973,29.938c0,27.565-22.345,49.91-49.91,49.91
					c-11.232,0-21.597-3.711-29.938-9.973c9.105,12.127,23.605,19.973,39.938,19.973c27.565,0,49.91-22.345,49.91-49.91
					C188.143,72.343,180.298,57.843,168.17,48.738z"/>
			</g>
			<g>
				<path fill="#EF7816" d="M170.936,50.972c7.604,8.759,12.207,20.194,12.207,32.703c0,27.565-22.345,49.91-49.91,49.91
					c-12.51,0-23.944-4.603-32.703-12.207c9.151,10.541,22.649,17.207,37.703,17.207c27.565,0,49.91-22.345,49.91-49.91
					C188.143,73.621,181.477,60.123,170.936,50.972z"/>
			</g>
			<g>
				<g>
					<path fill="#FFFFFF" d="M142.775,116.844h-9.085c-7.364,0-13.356-5.991-13.356-13.356c0-1.104,0.896-2,2-2s2,0.896,2,2
						c0,5.159,4.197,9.356,9.356,9.356h9.085c5.159,0,9.356-4.197,9.356-9.356v-4.542c0-5.159-4.197-9.356-9.356-9.356h-9.085
						c-7.364,0-13.356-5.991-13.356-13.355c0-7.365,5.992-13.356,13.356-13.356h9.085c7.364,0,13.356,5.991,13.356,13.356
						c0,1.104-0.896,2-2,2s-2-0.896-2-2c0-5.159-4.197-9.356-9.356-9.356h-9.085c-5.159,0-9.356,4.197-9.356,9.356
						c0,5.158,4.197,9.355,9.356,9.355h9.085c7.364,0,13.356,5.991,13.356,13.356v4.542
						C156.131,110.853,150.14,116.844,142.775,116.844z"/>
				</g>
				<g>
					<path fill="#FFFFFF" d="M138.233,121.386c-1.104,0-2-0.896-2-2V60.335c0-1.104,0.896-2,2-2s2,0.896,2,2v59.051
						C140.233,120.49,139.337,121.386,138.233,121.386z"/>
				</g>
			</g>
		</g>
		<g>
			<g>
				<g>
					<circle fill="#58595B" cx="88.323" cy="113.889" r="24.697"/>
				</g>
			</g>
			<g>
				<path fill="#414042" d="M103.107,94.104c3.085,4.122,4.912,9.24,4.912,14.784c0,13.64-11.057,24.697-24.697,24.697
					c-5.545,0-10.663-1.827-14.784-4.912c4.504,6.018,11.689,9.912,19.784,9.912c13.64,0,24.697-11.057,24.697-24.697
					C113.02,105.794,109.125,98.609,103.107,94.104z"/>
			</g>
			<g>
				<path fill="#FFA91A" d="M102.508,115.101h-28.37c-1.104,0-2-0.896-2-2s0.896-2,2-2h28.37c1.104,0,2,0.896,2,2
					S103.612,115.101,102.508,115.101z"/>
			</g>
			<g>
				<path fill="#FFA91A" d="M88.323,129.285c-1.104,0-2-0.896-2-2V98.916c0-1.104,0.896-2,2-2s2,0.896,2,2v28.369
					C90.323,128.39,89.427,129.285,88.323,129.285z"/>
			</g>
		</g>
	</g>
	<g>
		<g>
			<path fill="#91B56B" d="M79,185.859c-0.64,0-1.22-0.3-1.6-0.81C41.843,136.909,29.222,88.982,65.689,45.819
				c1.809-1.814,4.701,0.646,2.971,2.691c-35.111,41.793-22.451,87.412,11.939,134.15C81.601,183.891,80.596,185.923,79,185.859z
				 M72.82,43.51c-1.764,0.045-2.701-2.327-1.34-3.48c2.014-1.685,4.597,1.127,2.69,2.96c0,0,0,0-0.01,0
				C73.79,43.33,73.32,43.51,72.82,43.51z"/>
		</g>
	</g>
</g>
</svg>
