<?xml version="1.0" encoding="utf-8"?>
<!-- Generator: Adobe Illustrator 24.0.0, SVG Export Plug-In . SVG Version: 6.00 Build 0)  -->
<svg version="1.1" id="Layer_1" xmlns="http://www.w3.org/2000/svg" xmlns:xlink="http://www.w3.org/1999/xlink" x="0px" y="0px"
	 viewBox="0 0 256 256" enable-background="new 0 0 256 256" xml:space="preserve">
<g>
	<g>
		<g>
			<g>
				<path fill="#F1F2F2" d="M200.2,227.388H55.8c-4.119,0-7.458-3.339-7.458-7.458V36.07c0-4.119,3.339-7.458,7.458-7.458H200.2
					c4.119,0,7.458,3.339,7.458,7.458V219.93C207.658,224.049,204.319,227.388,200.2,227.388z"/>
			</g>
		</g>
		<g>
			<g>
				<g>
					<path fill="#939598" d="M133.488,93.139H77.715c-1.657,0-3-1.343-3-3s1.343-3,3-3h55.773c1.657,0,3,1.343,3,3
						S135.145,93.139,133.488,93.139z"/>
				</g>
				<g>
					<path fill="#939598" d="M133.488,111.255H77.715c-1.657,0-3-1.343-3-3s1.343-3,3-3h55.773c1.657,0,3,1.343,3,3
						S135.145,111.255,133.488,111.255z"/>
				</g>
				<g>
					<path fill="#939598" d="M178.278,129.371H77.715c-1.657,0-3-1.343-3-3s1.343-3,3-3h100.563c1.657,0,3,1.343,3,3
						S179.935,129.371,178.278,129.371z"/>
				</g>
				<g>
					<path fill="#939598" d="M178.278,147.487H77.715c-1.657,0-3-1.343-3-3s1.343-3,3-3h100.563c1.657,0,3,1.343,3,3
						S179.935,147.487,178.278,147.487z"/>
				</g>
				<g>
					<path fill="#939598" d="M178.278,165.604H77.715c-1.657,0-3-1.343-3-3s1.343-3,3-3h100.563c1.657,0,3,1.343,3,3
						S179.935,165.604,178.278,165.604z"/>
				</g>
				<g>
					<path fill="#A54AF4" d="M133.488,56.907H77.715c-1.657,0-3-1.343-3-3s1.343-3,3-3h55.773c1.657,0,3,1.343,3,3
						S135.145,56.907,133.488,56.907z"/>
				</g>
			</g>
			<g>
				<path fill="#A54AF4" d="M140.088,204.112c-2.356,0-4.522-0.854-6.048-2.933c-0.654-0.891-0.461-2.143,0.429-2.796
					c0.891-0.653,2.143-0.462,2.795,0.429c1.137,1.548,3.2,1.471,5.099,0.896c-1.199-1.6-1.839-3.693-1.808-5.93
					c0.056-4.037,1.895-9.267,5.797-11.206c1.911-0.95,4.162-0.927,5.875,0.059c1.413,0.814,2.455,2.235,2.937,4
					c0.739,2.706,0.281,5.965-1.224,8.718c-0.386,0.705-0.838,1.387-1.357,2.042c1.02-0.744,1.937-1.647,2.748-2.502
					c1.737-1.83,3.591-3.773,5.479-5.662c0.152-0.152,0.322-0.332,0.506-0.525c1.36-1.432,3.421-3.643,5.866-3.524
					c0.829,0.023,2.043,0.32,3.121,1.597c0.858,1.016,1.315,2.396,1.357,4.101c0.04,1.605-0.238,3.313-0.875,5.37
					c-0.077,0.247-0.186,0.531-0.307,0.837c1.144-1.003,2.264-2.22,3.553-3.856c1.185-1.505,1.937-3.286,2.174-5.149
					c0.323-2.543-0.338-5.204-1.814-7.3c-0.636-0.902-0.419-2.15,0.483-2.786c0.903-0.638,2.151-0.421,2.787,0.483
					c2.044,2.901,2.959,6.586,2.512,10.107c-0.329,2.583-1.366,5.045-3,7.119c-1.697,2.153-3.163,3.688-4.754,4.975
					c-0.562,0.456-1.197,0.91-2.024,1.143c-1.255,0.354-2.559,0.037-3.4-0.83c-1.687-1.736-0.756-4.072-0.257-5.327
					c0.087-0.219,0.171-0.422,0.226-0.598c0.504-1.631,0.726-2.93,0.697-4.088c-0.019-0.761-0.163-1.32-0.415-1.619
					c-0.107-0.127-0.181-0.176-0.2-0.185c-0.417,0.011-1.368,0.745-2.829,2.285c-0.21,0.221-0.403,0.424-0.578,0.599
					c-1.854,1.855-3.688,3.778-5.408,5.589c-1.633,1.72-3.654,3.617-6.269,4.652c-1.868,0.739-3.895,0.769-5.704,0.178
					C144.253,203.488,142.101,204.112,140.088,204.112z M149.306,185.876c-0.387,0-0.799,0.094-1.173,0.279
					c-2.188,1.087-3.537,4.759-3.578,7.68c-0.02,1.409,0.368,2.682,1.092,3.583c0.146,0.182,0.307,0.347,0.48,0.497
					c1.952-1.324,3.399-2.832,4.302-4.484c1.005-1.839,1.341-4.04,0.875-5.744c-0.197-0.72-0.599-1.313-1.076-1.589
					C149.972,185.949,149.649,185.876,149.306,185.876z"/>
			</g>
		</g>
		<g>
			<path fill="#E6E7E8" d="M200.2,28.612H55.8c-4.119,0-7.458,3.339-7.458,7.458v2.542H190.2c4.119,0,7.458,3.339,7.458,7.458
				v181.317h2.542c4.119,0,7.458-3.339,7.458-7.458V36.07C207.658,31.951,204.319,28.612,200.2,28.612z"/>
		</g>
		<g>
			<path fill="#D1D3D4" d="M200.2,28.612H55.8c-3.373,0-6.223,2.24-7.145,5.314c0.679-0.204,1.399-0.314,2.145-0.314H195.2
				c4.119,0,7.458,3.339,7.458,7.458V224.93c0,0.746-0.11,1.465-0.314,2.145c3.074-0.921,5.314-3.771,5.314-7.145V36.07
				C207.658,31.951,204.319,28.612,200.2,28.612z"/>
		</g>
		<g>
			<path fill="#FFFFFF" d="M100.52,221.35c-1.1,0-2-0.899-2-2c0-1.1,0.9-2,2-2c1.1,0,2,0.9,2,2
				C102.52,220.45,101.62,221.35,100.52,221.35z M92.52,221.35h-34.5c-2.52,0-4.56-2.05-4.56-4.56v-49.471c0-1.109,0.89-2.01,2-2.01
				c1.1,0,2,0.9,2,2.01v49.471c0,0.31,0.25,0.56,0.56,0.56h34.5c1.1,0,2,0.9,2,2C94.52,220.45,93.62,221.35,92.52,221.35z"/>
		</g>
	</g>
	<g>
		<g>
			<g>
				<g>
					<circle fill="#A54AF4" cx="206.347" cy="66.334" r="41.705"/>
				</g>
			</g>
			<g>
				<path fill="#893ADD" d="M233.231,34.45c6.127,7.26,9.821,16.641,9.821,26.885c0,23.033-18.672,41.705-41.705,41.705
					c-10.244,0-19.625-3.693-26.884-9.821c7.65,9.064,19.095,14.821,31.884,14.821c23.033,0,41.705-18.672,41.705-41.705
					C248.052,53.545,242.295,42.1,233.231,34.45z"/>
			</g>
			<g>
				<g>
					<path fill="#FFFFFF" d="M210.142,90.2h-7.591c-6.335,0-11.489-5.154-11.489-11.489c0-1.104,0.896-2,2-2s2,0.896,2,2
						c0,4.13,3.359,7.489,7.489,7.489h7.591c4.129,0,7.489-3.359,7.489-7.489v-3.795c0-4.13-3.36-7.489-7.489-7.489h-7.591
						c-6.335,0-11.489-5.154-11.489-11.489s5.154-11.489,11.489-11.489h7.591c6.335,0,11.489,5.154,11.489,11.489
						c0,1.104-0.896,2-2,2s-2-0.896-2-2c0-4.13-3.36-7.489-7.489-7.489h-7.591c-4.129,0-7.489,3.359-7.489,7.489
						s3.359,7.489,7.489,7.489h7.591c6.335,0,11.489,5.154,11.489,11.489v3.795C221.631,85.046,216.477,90.2,210.142,90.2z"/>
				</g>
				<g>
					<path fill="#FFFFFF" d="M206.347,93.996c-1.104,0-2-0.896-2-2V42.652c0-1.104,0.896-2,2-2s2,0.896,2,2v49.344
						C208.347,93.101,207.451,93.996,206.347,93.996z"/>
				</g>
			</g>
		</g>
		<g>
			<g>
				<g>
					<circle fill="#58595B" cx="164.642" cy="87.403" r="20.637"/>
				</g>
			</g>
			<g>
				<path fill="#FFA91A" d="M176.495,88.744h-23.706c-1.104,0-2-0.896-2-2s0.896-2,2-2h23.706c1.104,0,2,0.896,2,2
					S177.599,88.744,176.495,88.744z"/>
			</g>
			<g>
				<path fill="#FFA91A" d="M164.642,100.597c-1.104,0-2-0.896-2-2V74.891c0-1.104,0.896-2,2-2s2,0.896,2,2v23.706
					C166.642,99.701,165.746,100.597,164.642,100.597z"/>
			</g>
		</g>
	</g>
</g>
</svg>
