<?xml version="1.0" encoding="utf-8"?>
<!-- Generator: Adobe Illustrator 24.0.0, SVG Export Plug-In . SVG Version: 6.00 Build 0)  -->
<svg version="1.1" id="Layer_1" xmlns="http://www.w3.org/2000/svg" xmlns:xlink="http://www.w3.org/1999/xlink" x="0px" y="0px"
	 viewBox="0 0 256 256" enable-background="new 0 0 256 256" xml:space="preserve">
<g>
	<g>
		<g>
			<path fill="#478CF7" d="M208.504,233.948H47.496c-11.046,0-20-8.954-20-20v-112.32c0-11.046,8.954-20,20-20h161.008
				c11.046,0,20,8.954,20,20v112.32C228.504,224.994,219.55,233.948,208.504,233.948z"/>
		</g>
		<g>
			<path fill="#377DE2" d="M216.723,83.409c1.134,2.51,1.781,5.286,1.781,8.219v112.32c0,11.046-8.954,20-20,20H37.496
				c-2.933,0-5.71-0.647-8.219-1.781c3.137,6.942,10.106,11.781,18.219,11.781h161.008c11.046,0,20-8.954,20-20v-112.32
				C228.504,93.516,223.665,86.546,216.723,83.409z"/>
		</g>
		<g>
			<path fill="#2266D3" d="M219.916,85.216c2.256,3.238,3.588,7.167,3.588,11.412v112.32c0,11.046-8.954,20-20,20H42.496
				c-4.245,0-8.174-1.332-11.412-3.588c3.613,5.187,9.612,8.588,16.412,8.588h161.008c11.046,0,20-8.954,20-20v-112.32
				C228.504,94.828,225.103,88.83,219.916,85.216z"/>
		</g>
		<g>
			<g>
				<path fill="#2266D3" d="M177.656,127.888H78.344c-3.855,0-6.981-3.125-6.981-6.981v0c0-3.855,3.125-6.981,6.981-6.981h99.313
					c3.855,0,6.981,3.125,6.981,6.981v0C184.637,124.762,181.512,127.888,177.656,127.888z"/>
			</g>
			<g>
				<g>
					<path fill="#EF7816" d="M184.637,78.689c0,13.391-4.656,25.688-12.412,35.389c-4.454,5.564-9.946,10.264-16.159,13.81H99.934
						c-6.213-3.546-11.705-8.245-16.159-13.81c-7.755-9.701-12.411-21.998-12.411-35.389c0-31.281,25.356-56.637,56.637-56.637
						C159.281,22.052,184.637,47.408,184.637,78.689z"/>
				</g>
				<g>
					<circle fill="#FFA91A" cx="128" cy="78.689" r="44.467"/>
				</g>
				<g>
					<path fill="#F79219" d="M156.836,44.853c6.624,7.765,10.631,17.829,10.631,28.835c0,24.558-19.908,44.467-44.466,44.467
						c-11.006,0-21.071-4.007-28.836-10.631c8.156,9.561,20.284,15.631,33.836,15.631c24.558,0,44.466-19.908,44.466-44.467
						C172.466,65.137,166.396,53.009,156.836,44.853z"/>
				</g>
			</g>
		</g>
		<g>
			<g>
				<path fill="#FFFFFF" d="M132.195,104.045h-8.391c-6.886,0-12.489-5.603-12.489-12.488c0-1.104,0.896-2,2-2s2,0.896,2,2
					c0,4.681,3.808,8.488,8.489,8.488h8.391c4.681,0,8.489-3.808,8.489-8.488v-4.195c0-4.681-3.809-8.489-8.489-8.489h-8.391
					c-6.886,0-12.489-5.603-12.489-12.489c0-6.886,5.603-12.488,12.489-12.488h8.391c6.887,0,12.489,5.603,12.489,12.488
					c0,1.104-0.896,2-2,2s-2-0.896-2-2c0-4.681-3.809-8.488-8.489-8.488h-8.391c-4.681,0-8.489,3.808-8.489,8.488
					s3.808,8.489,8.489,8.489h8.391c6.887,0,12.489,5.603,12.489,12.489v4.195C144.685,98.442,139.082,104.045,132.195,104.045z"/>
			</g>
			<g>
				<path fill="#FFFFFF" d="M128,108.241c-1.104,0-2-0.896-2-2V51.698c0-1.104,0.896-2,2-2s2,0.896,2,2v54.543
					C130,107.346,129.104,108.241,128,108.241z"/>
			</g>
		</g>
		<g>
			<path fill="#5E9CF7" d="M33.5,168.79c-1.11,0-2-0.9-2-2c0-1.101,0.89-2,2-2c1.1,0,2,0.899,2,2
				C35.5,167.89,34.6,168.79,33.5,168.79z M33.5,160.79c-1.11,0-2-0.9-2-2v-57.16c0-8.82,7.18-16,16-16h15.43c1.1,0,2,0.89,2,2
				c0,1.1-0.9,2-2,2H47.5c-6.61,0.01-11.99,5.39-12,12v57.16C35.5,159.89,34.6,160.79,33.5,160.79z"/>
		</g>
	</g>
	<g>
		<g>
			<g>
				<g>
					<g>
						<g>
							<path fill="#EF7816" d="M165.364,158.306l0.003,0.009c0.186-0.498,0.597-0.899,1.14-1.046l9.829-2.652
								c0.999-0.269,2.004,0.412,2.124,1.439l0.664,5.694c0.097,0.834-0.431,1.613-1.241,1.831l-12.255,3.298
								c-0.934,0.251-1.916-0.187-2.352-1.051h0c-0.256-0.506-0.289-1.096-0.092-1.628L165.364,158.306z"/>
						</g>
					</g>
				</g>
				<g>
					<g>
						<g>
							<path fill="#EF7816" d="M90.636,158.306l-0.003,0.009c-0.186-0.498-0.597-0.899-1.14-1.046l-9.829-2.652
								c-0.999-0.269-2.004,0.412-2.124,1.439l-0.664,5.694c-0.097,0.834,0.431,1.613,1.241,1.831l12.255,3.298
								c0.934,0.251,1.916-0.187,2.352-1.051l0,0c0.256-0.506,0.289-1.096,0.092-1.628L90.636,158.306z"/>
						</g>
					</g>
				</g>
			</g>
			<g>
				<g>
					<g>
						<path fill="#414042" d="M97.322,216.348H84.368c-2.525,0-4.572-2.047-4.572-4.572V189.85c0-2.525,2.047-4.572,4.572-4.572
							h12.953c2.525,0,4.572,2.047,4.572,4.572v21.926C101.893,214.301,99.846,216.348,97.322,216.348z"/>
					</g>
				</g>
				<g>
					<g>
						<path fill="#414042" d="M171.632,216.348h-12.953c-2.525,0-4.572-2.047-4.572-4.572V189.85c0-2.525,2.047-4.572,4.572-4.572
							h12.953c2.525,0,4.572,2.047,4.572,4.572v21.926C176.204,214.301,174.157,216.348,171.632,216.348z"/>
					</g>
				</g>
			</g>
			<g>
				<g>
					<path fill="#FFA91A" d="M170.142,205.562H85.858c-2.066,0-3.814-1.525-4.096-3.571l-3.489-25.376
						c-0.811-5.896,3.771-11.151,9.723-11.151h80.008c5.952,0,10.533,5.255,9.723,11.151l-3.489,25.376
						C173.956,204.037,172.208,205.562,170.142,205.562z"/>
				</g>
			</g>
			<g>
				<g>
					<path fill="#EF7816" d="M79.84,188.012l1.922,13.979c0.281,2.046,2.03,3.571,4.096,3.571h84.284
						c2.066,0,3.814-1.525,4.096-3.571l1.922-13.979H79.84z"/>
				</g>
			</g>
			<g>
				<g>
					<path fill="#FFA91A" d="M153.389,141.895h-50.778c-3.069,0-5.812,1.915-6.869,4.797l-6.888,18.772h78.292l-6.888-18.772
						C159.201,143.81,156.458,141.895,153.389,141.895z"/>
				</g>
			</g>
			<g>
				<g>
					<path fill="#F1F2F2" d="M105.7,182.867H87.103c-0.89,0-1.643-0.658-1.762-1.54l-0.376-2.782
						c-0.144-1.067,0.686-2.017,1.762-2.017h18.597c0.89,0,1.643,0.658,1.762,1.54l0.376,2.782
						C107.607,181.918,106.777,182.867,105.7,182.867z"/>
				</g>
			</g>
			<g>
				<g>
					<path fill="#F1F2F2" d="M150.3,182.867h18.597c0.89,0,1.643-0.658,1.762-1.54l0.376-2.782c0.144-1.067-0.686-2.017-1.762-2.017
						h-18.597c-0.89,0-1.643,0.658-1.762,1.54l-0.376,2.782C148.393,181.918,149.223,182.867,150.3,182.867z"/>
				</g>
			</g>
			<g>
				<g>
					<path fill="#E6E7E8" d="M160.038,165.463H95.962l5.382-15.846c0.574-1.69,1.901-2.786,3.371-2.786h46.57
						c1.47,0,2.797,1.097,3.371,2.786L160.038,165.463z"/>
				</g>
			</g>
		</g>
	</g>
</g>
</svg>
