<?xml version="1.0" encoding="utf-8"?>
<!-- Generator: Adobe Illustrator 24.0.0, SVG Export Plug-In . SVG Version: 6.00 Build 0)  -->
<svg version="1.1" id="Layer_1" xmlns="http://www.w3.org/2000/svg" xmlns:xlink="http://www.w3.org/1999/xlink" x="0px" y="0px"
	 viewBox="0 0 256 256" enable-background="new 0 0 256 256" xml:space="preserve">
<g>
	<g>
		<path fill="#F79219" d="M214.195,218.195h-48.239c-2.209,0-4-1.791-4-4s1.791-4,4-4h44.239V45.805H45.805v28.021
			c0,2.209-1.791,4-4,4s-4-1.791-4-4V41.805c0-2.209,1.791-4,4-4h172.391c2.209,0,4,1.791,4,4v172.391
			C218.195,216.404,216.404,218.195,214.195,218.195z"/>
	</g>
	<g>
		<g>
			<g>
				<g>
					<circle fill="#E63950" cx="92.987" cy="150.793" r="76.585"/>
				</g>
			</g>
			<g>
				<path fill="#D10028" d="M141.911,91.869c11.029,13.269,17.661,30.322,17.661,48.924c0,42.297-34.288,76.585-76.585,76.585
					c-18.602,0-35.655-6.633-48.924-17.662c14.048,16.901,35.229,27.662,58.924,27.662c42.297,0,76.585-34.289,76.585-76.585
					C169.572,127.098,158.812,105.917,141.911,91.869z"/>
			</g>
			<g>
				<path fill="#B7022D" d="M144.583,94.196c12.417,13.612,19.989,31.72,19.989,51.597c0,42.297-34.288,76.585-76.585,76.585
					c-19.877,0-37.984-7.572-51.596-19.989c14.006,15.354,34.176,24.989,56.596,24.989c42.297,0,76.585-34.289,76.585-76.585
					C169.572,128.373,159.938,108.202,144.583,94.196z"/>
			</g>
			<g>
				<path fill="#FFC91D" d="M126.854,168.522l-15.117-15.117l14.831-14.83c5.182-5.182,5.182-13.583,0-18.764
					c-5.182-5.182-13.583-5.182-18.764,0l-14.831,14.831l-14.545-14.545c-5.182-5.182-13.583-5.182-18.764,0
					c-5.182,5.182-5.182,13.583,0,18.764l14.545,14.545l-14.831,14.831c-5.182,5.182-5.182,13.583,0,18.765h0
					c5.182,5.182,13.583,5.182,18.764,0l14.831-14.831l15.117,15.117c5.182,5.182,13.583,5.182,18.764,0
					C132.036,182.105,132.036,173.704,126.854,168.522z"/>
			</g>
			<g>
				<g>
					<path fill="#FFA91A" d="M126.854,168.522l-15.117-15.117l14.831-14.83c5.182-5.182,5.182-13.583,0-18.764
						c-1.493-1.493-3.258-2.542-5.132-3.175c1.562,4.629,0.514,9.944-3.174,13.633l-14.831,14.83l15.117,15.117
						c5.182,5.181,5.182,13.583,0,18.764c-5.182,5.181-13.583,5.181-18.764,0l-15.117-15.117l-14.831,14.831
						c-3.688,3.688-9.004,4.737-13.632,3.174c0.633,1.874,1.681,3.639,3.175,5.132l0,0c5.182,5.181,13.583,5.181,18.764,0
						l14.831-14.831l15.117,15.117c5.182,5.181,13.583,5.181,18.764,0C132.036,182.105,132.036,173.703,126.854,168.522z"/>
				</g>
			</g>
		</g>
		<g>
			<g>
				<g>
					<g>
						<circle fill="#A54AF4" cx="196.149" cy="72.072" r="43.45"/>
					</g>
				</g>
				<g>
					<path fill="#893ADD" d="M224.271,38.949c6.441,7.579,10.328,17.397,10.328,28.122c0,23.997-19.453,43.45-43.45,43.45
						c-10.726,0-20.543-3.887-28.122-10.328c7.97,9.378,19.851,15.328,33.122,15.328c23.997,0,43.45-19.453,43.45-43.45
						C239.599,58.8,233.648,46.919,224.271,38.949z"/>
				</g>
				<g>
					<g>
						<path fill="#FFFFFF" d="M200.104,96.853h-7.909c-6.554,0-11.886-5.332-11.886-11.886c0-1.104,0.896-2,2-2s2,0.896,2,2
							c0,4.349,3.537,7.886,7.886,7.886h7.909c4.349,0,7.886-3.537,7.886-7.886v-3.955c0-4.349-3.537-7.886-7.886-7.886h-7.909
							c-6.554,0-11.886-5.332-11.886-11.886c0-6.555,5.332-11.887,11.886-11.887h7.909c6.554,0,11.886,5.332,11.886,11.886
							c0,1.104-0.896,2-2,2s-2-0.896-2-2c0-4.349-3.537-7.886-7.886-7.886h-7.909c-4.349,0-7.886,3.537-7.886,7.886
							s3.537,7.887,7.886,7.887h7.909c6.554,0,11.886,5.332,11.886,11.886v3.955C211.989,91.521,206.657,96.853,200.104,96.853z"/>
					</g>
					<g>
						<path fill="#FFFFFF" d="M196.148,100.807c-1.104,0-2-0.896-2-2V47.399c0-1.104,0.896-2,2-2s2,0.896,2,2v51.407
							C198.148,99.911,197.253,100.807,196.148,100.807z"/>
					</g>
				</g>
			</g>
		</g>
	</g>
	<g>
		<path fill="#F79219" d="M41.805,79.514c-1.023,0-2.047-0.391-2.828-1.172L26.114,65.48c-1.563-1.562-1.563-4.095,0-5.656
			c1.561-1.563,4.094-1.563,5.656,0l10.034,10.032l10.033-10.032c1.561-1.563,4.096-1.563,5.656,0c1.563,1.562,1.563,4.095,0,5.656
			L44.633,78.342C43.853,79.123,42.828,79.514,41.805,79.514z"/>
	</g>
	<g>
		<path fill="#F79219" d="M176.915,231.058c-1.023,0-2.048-0.391-2.828-1.172l-12.861-12.862c-1.563-1.562-1.563-4.095,0-5.656
			l12.861-12.861c1.561-1.563,4.096-1.563,5.656,0c1.563,1.562,1.563,4.095,0,5.656l-10.032,10.033l10.032,10.034
			c1.563,1.562,1.563,4.095,0,5.656C178.962,230.667,177.938,231.058,176.915,231.058z"/>
	</g>
	<g>
		<path fill="#E8566F" d="M22.399,152.79c-1.1,0-2-0.891-2-2c0-8.86,1.591-17.521,4.71-25.73c3.021-7.939,7.391-15.24,12.98-21.7
			c11.28-13.05,26.82-21.68,43.74-24.3c1.08-0.16,2.12,0.601,2.29,1.67c0.17,1.09-0.58,2.12-1.67,2.29
			C49.35,88.14,24.399,117.28,24.399,150.79C24.399,151.899,23.5,152.79,22.399,152.79z M90.1,82.27c-1.08,0-1.96-0.85-2-1.92
			c-0.05-1.109,0.811-2.04,1.91-2.08c0.03,0,0.06-0.01,0.09-0.01c1.07,0,1.95,0.85,2,1.92c0.04,1.101-0.819,2.04-1.92,2.08
			C90.149,82.26,90.12,82.27,90.1,82.27z"/>
	</g>
</g>
</svg>
