<?xml version="1.0" encoding="utf-8"?>
<!-- Generator: Adobe Illustrator 24.0.0, SVG Export Plug-In . SVG Version: 6.00 Build 0)  -->
<svg version="1.1" id="Layer_1" xmlns="http://www.w3.org/2000/svg" xmlns:xlink="http://www.w3.org/1999/xlink" x="0px" y="0px"
	 viewBox="0 0 256 256" enable-background="new 0 0 256 256" xml:space="preserve">
<g>
	<g>
		<g>
			<g>
				<circle fill="#A54AF4" cx="128" cy="103.795" r="86.881"/>
			</g>
		</g>
		<g>
			<path fill="#B171F4" d="M47.12,105.8c-1.1,0-2-0.9-2-2c-0.452-34.551,22.987-67.28,55.66-78.29c1.02-0.36,2.19,0.21,2.549,1.23
				c0.365,1-0.212,2.221-1.23,2.54c-31.7,11.05-52.99,41-52.98,74.52C49.12,104.9,48.22,105.8,47.12,105.8z M109.11,27.14
				c-2.347-0.001-2.744-3.398-0.47-3.94C111.538,22.64,112.053,27.029,109.11,27.14z"/>
		</g>
		<g>
			<path fill="#893ADD" d="M156.487,21.692c23.16,15.605,38.394,42.075,38.394,72.102c0,47.983-38.898,86.881-86.881,86.881
				c-9.978,0-19.563-1.682-28.487-4.778c13.849,9.331,30.532,14.778,48.487,14.778c47.983,0,86.881-38.898,86.881-86.881
				C214.881,65.79,190.478,33.484,156.487,21.692z"/>
		</g>
		<g>
			<g>
				<path fill="#FFA91A" d="M173.609,195.485c0,4.575-6.974,7.991-8.314,12.119c-1.389,4.278,2.2,11.132-0.395,14.693
					c-2.618,3.6-10.261,2.291-13.858,4.908c-3.561,2.592-4.667,10.279-8.945,11.668c-4.128,1.34-9.522-4.185-14.1-4.185
					s-9.969,5.525-14.1,4.185c-4.278-1.389-5.384-9.076-8.945-11.668c-3.6-2.617-11.241-1.312-13.858-4.908
					c-2.592-3.561,0.994-10.415-0.395-14.693c-1.34-4.128-8.314-7.544-8.314-12.119s6.974-7.991,8.314-12.119
					c1.389-4.278-2.2-11.132,0.395-14.693c2.618-3.6,10.261-2.291,13.858-4.908c3.561-2.592,4.667-10.279,8.945-11.668
					c4.128-1.34,9.522,4.185,14.1,4.185s9.969-5.525,14.1-4.185c4.278,1.389,5.384,9.076,8.945,11.668
					c3.6,2.617,11.241,1.312,13.858,4.908c2.592,3.561-0.994,10.415,0.395,14.693C166.635,187.494,173.609,190.91,173.609,195.485z"
					/>
			</g>
			<g>
				<path fill="#F1F2F2" d="M113.861,196.122c-5.981,0-10.83-4.849-10.83-10.83c0-5.981,4.849-10.83,10.83-10.83
					c5.981,0,10.83,4.849,10.83,10.83C124.684,191.27,119.84,196.115,113.861,196.122z M113.861,179.463
					c-3.22,0-5.83,2.61-5.83,5.83c0,3.22,2.61,5.83,5.83,5.83c3.22,0,5.83-2.61,5.83-5.83c0,0,0-0.001,0-0.001
					C119.687,182.073,117.079,179.466,113.861,179.463z"/>
			</g>
			<g>
				<path fill="#F1F2F2" d="M142.138,216.508c-5.981,0-10.83-4.849-10.83-10.83s4.849-10.83,10.83-10.83s10.83,4.849,10.83,10.83
					C152.961,211.656,148.117,216.501,142.138,216.508z M142.138,199.849c-3.22,0-5.83,2.61-5.83,5.83s2.61,5.83,5.83,5.83
					s5.83-2.61,5.83-5.83c0,0,0-0.001,0-0.001C147.964,202.459,145.356,199.852,142.138,199.849z"/>
			</g>
			<g>
				<path fill="#F1F2F2" d="M109.7,216.288c-1.381,0-2.5-1.119-2.5-2.5c0-0.663,0.263-1.299,0.732-1.768l36.607-36.606
					c0.993-0.959,2.576-0.932,3.535,0.061c0.936,0.969,0.936,2.505,0,3.474l-36.607,36.607
					C110.999,216.025,110.363,216.288,109.7,216.288z"/>
			</g>
		</g>
	</g>
	<g>
		<g>
			<g>
				<g>
					<g>
						<path fill="#FFA91A" d="M166.068,129.259l-35.12,15.27c-1.88,0.818-4.016,0.818-5.896,0l-35.12-15.27
							c-2.7-1.174-4.446-3.837-4.446-6.781V91.436h85.028v31.043C170.514,125.422,168.768,128.085,166.068,129.259z"/>
					</g>
				</g>
			</g>
			<g>
				<path fill="#F79219" d="M166.068,123.27l-35.12,15.27c-1.88,0.818-4.016,0.818-5.896,0l-35.12-15.27
					c-2.7-1.174-4.446-3.837-4.446-6.781v5.989c0,2.944,1.746,5.607,4.446,6.781l35.12,15.27c1.88,0.818,4.016,0.818,5.896,0
					l35.12-15.27c2.7-1.174,4.446-3.837,4.446-6.781v-5.989C170.514,119.433,168.768,122.097,166.068,123.27z"/>
			</g>
			<g>
				<g>
					<g>
						<path fill="#FFA91A" d="M124.983,110.352l-55.82-24.952c-5.835-2.608-5.835-10.892,0-13.5l55.82-24.952
							c1.92-0.858,4.115-0.858,6.035,0l55.82,24.952c5.835,2.608,5.835,10.892,0,13.5l-55.82,24.952
							C129.097,111.21,126.903,111.21,124.983,110.352z"/>
					</g>
				</g>
			</g>
			<g>
				<path fill="#F79219" d="M188.162,72.662c-0.403,0.287-0.842,0.545-1.325,0.761l-55.82,24.952c-1.92,0.858-4.115,0.858-6.035,0
					l-55.82-24.952c-0.483-0.216-0.922-0.474-1.325-0.761c-4.466,3.183-4.027,10.346,1.325,12.739l55.82,24.952
					c1.92,0.858,4.115,0.858,6.035,0l55.82-24.952C192.189,83.008,192.628,75.845,188.162,72.662z"/>
			</g>
			<g>
				<g>
					<g>
						<path fill="#FFC91D" d="M73.338,121.628c-1.021,0-1.849-0.827-1.849-1.849V87.267c0-0.844,0.572-1.581,1.39-1.79
							l54.662-14.008c0.988-0.256,1.996,0.342,2.249,1.331c0.255,0.99-0.342,1.996-1.331,2.249L75.187,88.702v31.077
							C75.187,120.8,74.359,121.628,73.338,121.628z"/>
					</g>
				</g>
			</g>
			<g>
				<g>
					<g>
						<path fill="#F79219" d="M76.736,124.554h-6.797c-1.323,0-2.396-1.073-2.396-2.396v-8.446c0-3.2,2.594-5.794,5.794-5.794l0,0
							c3.2,0,5.794,2.594,5.794,5.794v8.446C79.132,123.481,78.059,124.554,76.736,124.554z"/>
					</g>
				</g>
			</g>
			<g>
				<path fill="#EF7816" d="M75.653,108.402c0.31,0.71,0.484,1.492,0.484,2.315v8.446c0,1.323-1.073,2.396-2.396,2.396h-6.198v0.599
					c0,1.323,1.073,2.396,2.396,2.396h6.797c1.323,0,2.396-1.073,2.396-2.396v-8.446C79.132,111.335,77.7,109.296,75.653,108.402z"
					/>
			</g>
		</g>
	</g>
	<g>
		<g>
			<path fill="#F79219" d="M165.295,207.604c1.34-4.128,8.314-7.544,8.314-12.119s-6.974-7.991-8.314-12.119
				c-1.389-4.278,2.197-11.132-0.395-14.693c-1.753-2.409-5.762-2.619-9.299-3.281c-0.4,2.803-1.031,5.74-0.306,7.974
				c1.34,4.128,8.314,7.544,8.314,12.119s-6.974,7.991-8.314,12.119c-1.389,4.278,2.2,11.132-0.395,14.693
				c-2.618,3.6-10.261,2.291-13.858,4.908c-3.561,2.592-4.667,10.279-8.945,11.668c-4.128,1.34-9.522-4.185-14.1-4.185
				c-3.633,0-7.778,3.479-11.399,4.246c2.388,3.318,3.756,8.789,7.299,9.939c4.131,1.34,9.522-4.185,14.1-4.185
				s9.972,5.525,14.1,4.185c4.278-1.389,5.384-9.076,8.945-11.668c3.597-2.617,11.24-1.308,13.858-4.908
				C167.495,218.736,163.906,211.882,165.295,207.604z"/>
		</g>
	</g>
	<g>
		<path fill="#EF7816" d="M165.3,207.604c1.34-4.128,8.314-7.544,8.314-12.119s-6.979-7.991-8.314-12.115
			c-1.389-4.278,2.2-11.132-0.395-14.693c-1.052-1.223-2.496-2.042-4.086-2.316c0.361,3.7-1.611,8.646-0.519,12.009
			c1.34,4.128,8.314,7.544,8.314,12.119s-6.974,7.991-8.314,12.119c-1.389,4.278,2.2,11.132-0.395,14.693
			c-2.618,3.6-10.261,2.291-13.858,4.908c-3.561,2.592-4.667,10.279-8.945,11.668c-4.128,1.34-9.522-4.185-14.1-4.185
			c-4.385,0-9.52,5.059-13.574,4.3c1.184,2.226,2.486,4.239,4.477,4.885c4.128,1.34,9.522-4.185,14.1-4.185
			c4.578,0,9.969,5.525,14.1,4.185c4.278-1.389,5.384-9.076,8.945-11.668c3.6-2.617,11.24-1.312,13.858-4.908
			C167.492,218.736,163.906,211.882,165.3,207.604z"/>
	</g>
</g>
</svg>
