<?xml version="1.0" encoding="utf-8"?>
<!-- Generator: Adobe Illustrator 24.0.0, SVG Export Plug-In . SVG Version: 6.00 Build 0)  -->
<svg version="1.1" id="Layer_1" xmlns="http://www.w3.org/2000/svg" xmlns:xlink="http://www.w3.org/1999/xlink" x="0px" y="0px"
	 viewBox="0 0 256 256" enable-background="new 0 0 256 256" xml:space="preserve">
<g>
	<g>
		<g>
			<g>
				<g>
					<g>
						<path fill="#2266D3" d="M210.254,89.365l0.005,0.016c0.333-0.891,1.068-1.609,2.04-1.871l17.582-4.743
							c1.787-0.482,3.585,0.736,3.799,2.575l1.187,10.186c0.174,1.491-0.771,2.885-2.22,3.276l-21.922,5.9
							c-1.671,0.45-3.428-0.335-4.208-1.879l0,0c-0.458-0.906-0.517-1.961-0.165-2.913L210.254,89.365z"/>
					</g>
				</g>
			</g>
			<g>
				<g>
					<g>
						<path fill="#2266D3" d="M45.746,89.365l-0.005,0.016c-0.333-0.891-1.068-1.609-2.04-1.871l-17.582-4.743
							c-1.787-0.482-3.585,0.736-3.799,2.575l-1.187,10.186c-0.174,1.491,0.771,2.885,2.22,3.276l21.922,5.9
							c1.671,0.45,3.428-0.335,4.208-1.879l0,0c0.458-0.906,0.517-1.961,0.165-2.913L45.746,89.365z"/>
					</g>
				</g>
			</g>
		</g>
		<g>
			<g>
				<g>
					<path fill="#58595B" d="M62.147,202.739H34.341c-5.42,0-9.813-4.394-9.813-9.814v-47.066c0-5.42,4.394-9.814,9.813-9.814
						h27.805c5.42,0,9.814,4.394,9.814,9.814v47.066C71.96,198.345,67.567,202.739,62.147,202.739z"/>
				</g>
			</g>
			<g>
				<g>
					<path fill="#58595B" d="M221.659,202.739h-27.805c-5.42,0-9.814-4.394-9.814-9.814v-47.066c0-5.42,4.394-9.814,9.814-9.814
						h27.805c5.42,0,9.813,4.394,9.813,9.814v47.066C231.472,198.345,227.078,202.739,221.659,202.739z"/>
				</g>
			</g>
		</g>
		<g>
			<g>
				<path fill="#478CF7" d="M218.461,189.928H37.539c-4.434,0-8.188-3.273-8.791-7.665l-7.489-54.472
					c-1.74-12.656,8.095-23.936,20.87-23.936h171.742c12.775,0,22.61,11.279,20.87,23.936l-7.489,54.472
					C226.649,186.655,222.895,189.928,218.461,189.928z"/>
			</g>
		</g>
		<g>
			<path fill="#377DE2" d="M226.05,107.727c2.981,4.192,4.457,9.495,3.691,15.063l-7.489,54.472
				c-0.604,4.393-4.357,7.666-8.791,7.666H32.539c-1.145,0-2.244-0.219-3.256-0.618c1.309,3.324,4.544,5.618,8.256,5.618h180.922
				c4.434,0,8.188-3.273,8.791-7.666l7.489-54.472C235.859,119.658,232.198,112.095,226.05,107.727z"/>
		</g>
		<g>
			<g>
				<path fill="#2266D3" d="M24.622,152.256l4.125,30.007c0.604,4.393,4.357,7.665,8.791,7.665h180.922
					c4.434,0,8.188-3.273,8.791-7.665l4.125-30.007H24.622z"/>
			</g>
		</g>
		<g>
			<g>
				<path fill="#478CF7" d="M182.499,53.261H73.501c-6.588,0-12.476,4.111-14.746,10.296l-14.785,40.296h168.059l-14.785-40.296
					C194.975,57.373,189.087,53.261,182.499,53.261z"/>
			</g>
		</g>
		<g>
			<g>
				<path fill="#D1D3D4" d="M80.132,141.212H40.213c-1.911,0-3.527-1.413-3.783-3.306l-0.807-5.972
					c-0.31-2.291,1.472-4.329,3.783-4.329h39.919c1.911,0,3.527,1.413,3.783,3.306l0.807,5.972
					C84.225,139.174,82.444,141.212,80.132,141.212z"/>
			</g>
		</g>
		<g>
			<g>
				<path fill="#D1D3D4" d="M175.868,141.212h39.919c1.911,0,3.527-1.413,3.783-3.306l0.807-5.972
					c0.31-2.291-1.472-4.329-3.783-4.329h-39.919c-1.911,0-3.527,1.413-3.783,3.306l-0.807,5.972
					C171.775,139.174,173.556,141.212,175.868,141.212z"/>
			</g>
		</g>
		<g>
			<g>
				<path fill="#F1F2F2" d="M200.583,103.853H55.417L67.61,67.955c1.301-3.828,4.307-6.312,7.638-6.312h105.506
					c3.331,0,6.336,2.485,7.637,6.312L200.583,103.853z"/>
			</g>
		</g>
		<g>
			<path fill="#E6E7E8" d="M188.39,67.955c-1.302-3.828-4.307-6.312-7.637-6.312h-1.11l10.94,32.21H58.813l-3.397,10h145.167
				L188.39,67.955z"/>
		</g>
		<g>
			<path fill="#D1D3D4" d="M188.39,67.955c-0.995-2.925-2.984-5.065-5.353-5.913c0.129,0.295,0.247,0.599,0.353,0.913l12.193,35.898
				H57.115l-1.698,5h145.167L188.39,67.955z"/>
		</g>
		<g>
			<g>
				<g>
					<path fill="#478CF7" d="M68.295,169.392H44.181c-1.982,0-3.589-1.607-3.589-3.589l0,0c0-1.982,1.607-3.589,3.589-3.589h24.114
						c1.982,0,3.589,1.607,3.589,3.589l0,0C71.884,167.785,70.277,169.392,68.295,169.392z"/>
				</g>
			</g>
			<g>
				<g>
					<path fill="#478CF7" d="M211.819,169.392h-24.114c-1.982,0-3.589-1.607-3.589-3.589l0,0c0-1.982,1.607-3.589,3.589-3.589
						h24.114c1.982,0,3.589,1.607,3.589,3.589l0,0C215.408,167.785,213.801,169.392,211.819,169.392z"/>
				</g>
			</g>
		</g>
	</g>
	<g>
		<g>
			<circle fill="#FFA91A" cx="128" cy="186.802" r="49.579"/>
		</g>
	</g>
	<g>
		<path fill="#F79219" d="M157.702,147.1c6.203,8.278,9.878,18.561,9.878,29.702c0,27.382-22.198,49.579-49.579,49.579
			c-11.141,0-21.423-3.674-29.701-9.878c9.043,12.069,23.46,19.878,39.701,19.878c27.382,0,49.579-22.197,49.579-49.579
			C177.579,170.561,169.77,156.144,157.702,147.1z"/>
	</g>
	<g>
		<path fill="#478CF7" d="M134.546,179.031l12.376-16.993c0.963-1.322,0.018-3.177-1.617-3.177h-15.461
			c-0.639,0-1.24,0.306-1.617,0.823l-20.781,28.535c-0.963,1.322-0.018,3.177,1.617,3.177h10.775c1.635,0,2.579,1.856,1.617,3.177
			l-12.376,16.993c-0.963,1.322-0.018,3.177,1.617,3.177h15.461c0.639,0,1.24-0.306,1.617-0.823l20.781-28.535
			c0.963-1.322,0.018-3.177-1.617-3.177h-10.775C134.527,182.208,133.583,180.352,134.546,179.031z"/>
	</g>
	<g>
		<g>
			<path fill="#377DE2" d="M146.938,182.208h-4.711l-19.454,26.713c-0.376,0.517-0.977,0.822-1.617,0.822h-10.75l-1.327,1.823
				c-0.963,1.322-0.018,3.177,1.617,3.177h15.461c0.639,0,1.24-0.306,1.617-0.822l20.781-28.535
				C149.517,184.063,148.573,182.208,146.938,182.208z"/>
		</g>
	</g>
	<g>
		<path fill="#FFC91D" d="M84.42,188.8c-1.101,0-2-0.9-2-2s0.899-2,2-2c1.1,0,1.99,0.89,2,1.99v0.01
			C86.42,187.899,85.52,188.8,84.42,188.8z M85.149,180.85c-0.119,0-0.239-0.01-0.369-0.04c-1.08-0.2-1.801-1.24-1.601-2.319
			c3.26-17.591,16.601-31.711,33.98-35.971c2.71-0.66,5.489-1.069,8.27-1.229c1.13-0.04,2.04,0.79,2.101,1.89
			c0.029,0.53-0.15,1.05-0.5,1.44c-0.36,0.399-0.851,0.64-1.381,0.67c-2.529,0.14-5.06,0.51-7.52,1.109
			c0,0.011-0.01,0.011-0.01,0.011c-0.03,0.01-0.061,0.01-0.09,0.02c-15.82,3.9-27.961,16.771-30.921,32.78c0,0.01,0,0.01,0,0.01
			C86.93,180.16,86.109,180.85,85.149,180.85z"/>
	</g>
</g>
</svg>
