<?xml version="1.0" encoding="utf-8"?>
<!-- Generator: Adobe Illustrator 24.0.0, SVG Export Plug-In . SVG Version: 6.00 Build 0)  -->
<svg version="1.1" id="Layer_1" xmlns="http://www.w3.org/2000/svg" xmlns:xlink="http://www.w3.org/1999/xlink" x="0px" y="0px"
	 viewBox="0 0 256 256" enable-background="new 0 0 256 256" xml:space="preserve">
<g>
	<g>
		<path fill="#F1F2F2" d="M191.38,152.213c23.921-3.031,42.417-23.455,42.417-48.198c0-25.374-19.455-46.194-44.26-48.383
			c-2.286-13.49-14.02-23.765-28.161-23.765c-8.173,0-15.539,3.437-20.746,8.938c-8.975-6.918-20.215-11.043-32.423-11.043
			c-29.365,0-53.169,23.805-53.169,53.169c-19.239,0-34.835,15.596-34.835,34.835c0,19.239,15.596,34.836,34.835,34.836h6.61
			L191.38,152.213z"/>
	</g>
	<g>
		<g>
			<path fill="#E6E7E8" d="M216.98,67.263c7.363,8.513,11.817,19.611,11.817,31.751c0,24.744-18.496,45.167-42.417,48.199
				l-129.732,0.388h-6.61c-8.346,0-16.006-2.936-22.005-7.83c6.388,7.83,16.112,12.83,27.005,12.83h6.61l129.732-0.388
				c23.921-3.031,42.417-23.455,42.417-48.199C233.797,89.328,227.28,76.168,216.98,67.263z"/>
		</g>
	</g>
	<g>
		<circle fill="#F1F2F2" cx="75.271" cy="154.642" r="37.191"/>
	</g>
	<g>
		<circle fill="#F1F2F2" cx="186.064" cy="50.756" r="25.546"/>
	</g>
	<g>
		<circle fill="#F1F2F2" cx="69.732" cy="86.56" r="25.546"/>
	</g>
	<g>
		<circle fill="#F1F2F2" cx="171.569" cy="140.115" r="37.191"/>
	</g>
	<g>
		<path fill="#E6E7E8" d="M203.756,134.582c0.002,0.176,0.004,0.353,0.004,0.53c0.002,20.47-16.722,37.195-37.192,37.194
			c-8.996,0-17.246-3.195-23.678-8.511c7.18,8.687,18.231,14.056,30.511,13.467c18.968-0.91,34.408-16.352,35.315-35.32
			c0.128-2.681-0.028-5.304-0.44-7.84C207.823,131.313,203.716,131.757,203.756,134.582z"/>
	</g>
	<g>
		<path fill="#D1D3D4" d="M183.505,68.384c-1.381,0-2.5-1.119-2.5-2.5s1.119-2.5,2.5-2.5c8.231,0,14.927-9.339,14.927-20.817
			c0-1.381,1.119-2.5,2.5-2.5s2.5,1.119,2.5,2.5C203.432,56.802,194.493,68.384,183.505,68.384z"/>
	</g>
	<g>
		<path fill="#D1D3D4" d="M69.732,100.124c-9.481,0-17.194-7.713-17.194-17.194c0-1.381,1.119-2.5,2.5-2.5s2.5,1.119,2.5,2.5
			c0,6.724,5.47,12.194,12.194,12.194c1.381,0,2.5,1.119,2.5,2.5S71.113,100.124,69.732,100.124z"/>
	</g>
	<g>
		<path fill="#D1D3D4" d="M76.425,145.927c-7.65,0-14.459-4.719-17.288-11.604c-2.488,1.188-5.203,1.807-7.999,1.807
			c-10.299,0-18.678-8.379-18.678-18.678c0-1.381,1.119-2.5,2.5-2.5s2.5,1.119,2.5,2.5c0,7.542,6.136,13.678,13.678,13.678
			c2.877,0,5.639-0.896,7.987-2.592c0.688-0.497,1.578-0.61,2.368-0.305c0.79,0.307,1.371,0.992,1.543,1.821
			c1.313,6.3,6.943,10.873,13.389,10.873c1.381,0,2.5,1.119,2.5,2.5S77.806,145.927,76.425,145.927z"/>
	</g>
	<g>
		<path fill="#D1D3D4" d="M176.9,125.989c-6.072,0.001-12.032-2.948-15.619-8.385c-0.761-1.152-0.443-2.703,0.709-3.464
			c1.152-0.759,2.703-0.442,3.463,0.71c4.153,6.294,12.654,8.036,18.95,3.883c5.38-3.55,7.561-10.468,5.186-16.449
			c-0.313-0.788-0.205-1.68,0.286-2.37c0.491-0.691,1.313-1.075,2.144-1.051c2.898,0.13,5.693-0.65,8.094-2.234
			c3.049-2.012,5.133-5.092,5.866-8.671s0.029-7.229-1.983-10.279c-0.761-1.152-0.443-2.703,0.709-3.464
			c1.151-0.759,2.703-0.442,3.463,0.71c2.748,4.164,3.71,9.149,2.708,14.037s-3.847,9.093-8.011,11.841
			c-2.334,1.54-4.94,2.519-7.672,2.896c1.432,7.306-1.652,14.995-8.037,19.208C183.998,124.992,180.429,125.989,176.9,125.989z"/>
	</g>
	<g>
		<path fill="#D1D3D4" d="M96.379,64.001c-0.994,0-1.935-0.598-2.324-1.578c-3.244-8.171-0.267-17.62,7.079-22.469
			c8.597-5.671,20.205-3.293,25.877,5.304c0.761,1.152,0.443,2.703-0.709,3.464c-1.152,0.76-2.703,0.443-3.463-0.71
			c-4.154-6.295-12.656-8.038-18.95-3.884c-5.38,3.55-7.561,10.469-5.186,16.449c0.509,1.283-0.118,2.737-1.401,3.246
			C96.999,63.943,96.686,64.001,96.379,64.001z"/>
	</g>
	<g>
		<g>
			<g>
				<g>
					<g>
						<g>
							<path fill="#478CF7" d="M174.924,154.526l0.003,0.011c0.234-0.626,0.75-1.13,1.432-1.314l12.344-3.33
								c1.255-0.338,2.517,0.517,2.667,1.808l0.834,7.151c0.122,1.047-0.541,2.026-1.559,2.3l-15.391,4.142
								c-1.173,0.316-2.406-0.235-2.954-1.32l0,0c-0.321-0.636-0.363-1.377-0.116-2.045L174.924,154.526z"/>
						</g>
					</g>
				</g>
				<g>
					<g>
						<g>
							<path fill="#478CF7" d="M81.076,154.526l-0.003,0.011c-0.234-0.626-0.75-1.13-1.432-1.314l-12.344-3.33
								c-1.255-0.338-2.517,0.517-2.667,1.808l-0.834,7.151c-0.122,1.047,0.541,2.026,1.559,2.3l15.391,4.142
								c1.173,0.316,2.406-0.235,2.954-1.32l0,0c0.321-0.636,0.363-1.377,0.116-2.045L81.076,154.526z"/>
						</g>
					</g>
				</g>
			</g>
			<g>
				<g>
					<g>
						<path fill="#414042" d="M89.472,227.419H73.204c-3.171,0-5.741-2.571-5.741-5.742v-27.536c0-3.171,2.571-5.742,5.741-5.742
							h16.268c3.171,0,5.742,2.571,5.742,5.742v27.536C95.213,224.849,92.643,227.419,89.472,227.419z"/>
					</g>
				</g>
				<g>
					<g>
						<path fill="#414042" d="M182.796,227.419h-16.268c-3.171,0-5.742-2.571-5.742-5.742v-27.536c0-3.171,2.571-5.742,5.742-5.742
							h16.268c3.171,0,5.741,2.571,5.741,5.742v27.536C188.537,224.849,185.967,227.419,182.796,227.419z"/>
					</g>
				</g>
			</g>
			<g>
				<g>
					<path fill="#5E9CF7" d="M180.925,213.873H75.075c-2.594,0-4.79-1.915-5.143-4.485l-4.381-31.869
						c-1.018-7.405,4.736-14.004,12.21-14.004H178.24c7.474,0,13.228,6.599,12.21,14.004l-4.381,31.869
						C185.715,211.958,183.519,213.873,180.925,213.873z"/>
				</g>
			</g>
			<g>
				<path fill="#478CF7" d="M184.088,164.986c1.198,2.212,1.735,4.818,1.362,7.532l-4.381,31.87
					c-0.353,2.57-2.549,4.485-5.143,4.485H70.075c-0.072,0-0.144-0.002-0.215-0.005l0.071,0.52c0.353,2.57,2.549,4.485,5.143,4.485
					h105.85c2.594,0,4.79-1.915,5.143-4.485l4.381-31.87C191.178,172.222,188.441,167.338,184.088,164.986z"/>
			</g>
			<g>
				<g>
					<path fill="#377DE2" d="M67.518,191.833l2.414,17.556c0.353,2.57,2.549,4.485,5.143,4.485h105.85
						c2.594,0,4.79-1.915,5.143-4.485l2.413-17.556H67.518z"/>
				</g>
			</g>
			<g>
				<path fill="#2266D3" d="M182.795,191.833l-1.726,12.556c-0.353,2.57-2.549,4.485-5.143,4.485H70.075
					c-0.072,0-0.144-0.002-0.215-0.005l0.071,0.52c0.353,2.57,2.549,4.485,5.143,4.485h105.85c2.594,0,4.79-1.915,5.143-4.485
					l2.414-17.556H182.795z"/>
			</g>
			<g>
				<g>
					<path fill="#5E9CF7" d="M159.885,133.915h-63.77c-3.855,0-7.299,2.405-8.627,6.024l-8.65,23.576h98.325l-8.65-23.576
						C167.184,136.321,163.74,133.915,159.885,133.915z"/>
				</g>
			</g>
			<g>
				<g>
					<path fill="#D1D3D4" d="M99.994,185.372H76.639c-1.118,0-2.064-0.826-2.213-1.934l-0.472-3.494
						c-0.181-1.34,0.861-2.533,2.213-2.533h23.355c1.118,0,2.064,0.827,2.213,1.934l0.472,3.494
						C102.389,184.179,101.347,185.372,99.994,185.372z"/>
				</g>
			</g>
			<g>
				<g>
					<path fill="#D1D3D4" d="M156.006,185.372h23.355c1.118,0,2.064-0.826,2.213-1.934l0.472-3.494
						c0.181-1.34-0.861-2.533-2.213-2.533h-23.355c-1.118,0-2.064,0.827-2.213,1.934l-0.472,3.494
						C153.611,184.179,154.653,185.372,156.006,185.372z"/>
				</g>
			</g>
			<g>
				<g>
					<path fill="#F1F2F2" d="M165.444,163.514H90.556c-1.37,0-2.334-1.346-1.894-2.643l5.861-17.257
						c0.721-2.122,2.387-3.499,4.234-3.499h58.486c1.846,0,3.512,1.377,4.234,3.499l5.861,17.257
						C167.779,162.168,166.814,163.514,165.444,163.514z"/>
				</g>
			</g>
			<g>
				<path fill="#E6E7E8" d="M167.338,160.871l-5.861-17.257c-0.721-2.122-2.388-3.499-4.234-3.499h-3.558l3.653,10.756
					c0.441,1.297-0.524,2.643-1.894,2.643H91.161l-2.499,7.357c-0.441,1.297,0.524,2.643,1.894,2.643h74.889
					C166.814,163.514,167.779,162.168,167.338,160.871z"/>
			</g>
			<g>
				<path fill="#D1D3D4" d="M167.338,160.871l-5.861-17.257c-0.721-2.122-2.388-3.499-4.234-3.499h-0.256l5.352,15.756
					c0.441,1.297-0.524,2.643-1.894,2.643H89.462l-0.8,2.357c-0.441,1.297,0.524,2.643,1.894,2.643h74.889
					C166.814,163.514,167.779,162.168,167.338,160.871z"/>
			</g>
		</g>
	</g>
	<g>
		<g>
			<path fill="#808285" d="M103.326,125.636h-7.311c-6.142,0-11.139-4.997-11.139-11.139V85.254c0-6.142,4.997-11.139,11.139-11.139
				h7.311c6.142,0,11.138,4.997,11.138,11.139c0,1.104-0.896,2-2,2s-2-0.896-2-2c0-3.937-3.202-7.139-7.138-7.139h-7.311
				c-3.937,0-7.139,3.202-7.139,7.139v29.243c0,3.937,3.202,7.139,7.139,7.139h7.311c3.936,0,7.138-3.202,7.138-7.139
				c0-1.104,0.896-2,2-2s2,0.896,2,2C114.464,120.639,109.468,125.636,103.326,125.636z"/>
		</g>
		<g>
			<path fill="#808285" d="M138.052,125.684h-7.311c-6.142,0-11.139-4.996-11.139-11.138V85.302c0-6.142,4.997-11.138,11.139-11.138
				h7.311c6.142,0,11.139,4.996,11.139,11.138v29.244C149.191,120.688,144.194,125.684,138.052,125.684z M130.742,78.164
				c-3.937,0-7.139,3.202-7.139,7.138v29.244c0,3.936,3.202,7.138,7.139,7.138h7.311c3.937,0,7.139-3.202,7.139-7.138V85.302
				c0-3.936-3.202-7.138-7.139-7.138H130.742z"/>
		</g>
		<g>
			<path fill="#808285" d="M169.124,101.924H156.33c-1.104,0-2-0.896-2-2V89.871c0-3.622,2.947-6.569,6.569-6.569h3.655
				c1.417,0,2.569-1.152,2.569-2.569c0-1.416-1.153-2.568-2.569-2.568h-8.225c-1.104,0-2-0.896-2-2s0.896-2,2-2h8.225
				c3.623,0,6.569,2.946,6.569,6.568s-2.947,6.569-6.569,6.569h-3.655c-1.417,0-2.569,1.152-2.569,2.569v8.053h10.794
				c1.104,0,2,0.896,2,2S170.228,101.924,169.124,101.924z"/>
		</g>
	</g>
	<g>
		<path fill="#FFFFFF" d="M61.88,76.04c-2.886-0.135-2.48-4.364,0.37-3.971C64.6,72.529,64.269,76.022,61.88,76.04z M64.05,68.35
			c-1.352,0.036-2.385-1.456-1.88-2.71c5.56-14.72,17.91-25.99,33.06-30.14c1.05-0.29,2.17,0.359,2.46,1.399
			c0.14,0.511,0.07,1.051-0.19,1.521c-0.27,0.46-0.7,0.79-1.21,0.939C82.37,43.16,71.01,53.52,65.92,67.05
			C65.63,67.819,64.88,68.35,64.05,68.35z"/>
	</g>
</g>
</svg>
