<?xml version="1.0" encoding="utf-8"?>
<!-- Generator: Adobe Illustrator 24.0.0, SVG Export Plug-In . SVG Version: 6.00 Build 0)  -->
<svg version="1.1" id="Layer_1" xmlns="http://www.w3.org/2000/svg" xmlns:xlink="http://www.w3.org/1999/xlink" x="0px" y="0px"
	 viewBox="0 0 256 256" enable-background="new 0 0 256 256" xml:space="preserve">
<g>
	<g>
		<g>
			<path fill="#EBE7F2" d="M147.132,104.312h-38.264c-1.381,0-2.5-1.119-2.5-2.5s1.119-2.5,2.5-2.5h38.264
				c1.381,0,2.5,1.119,2.5,2.5S148.513,104.312,147.132,104.312z"/>
		</g>
		<g>
			<path fill="#EBE7F2" d="M169.292,124.085H86.708c-1.381,0-2.5-1.119-2.5-2.5s1.119-2.5,2.5-2.5h82.583c1.381,0,2.5,1.119,2.5,2.5
				S170.673,124.085,169.292,124.085z"/>
		</g>
		<g>
			<path fill="#E6E7E8" d="M98.135,49.098L64.223,83.01c-0.97,0.97-1.375,2.37-1.074,3.708l28.092,124.601
				c0.411,1.824,2.032,3.12,3.902,3.12h65.713c1.87,0,3.491-1.296,3.902-3.12l28.092-124.601c0.302-1.338-0.103-2.738-1.074-3.708
				l-33.912-33.912L98.135,49.098z"/>
		</g>
		<g>
			<path fill="#D1D3D4" d="M191.777,83.01l-5-5c0.97,0.97,1.375,2.37,1.074,3.708l-28.092,124.601
				c-0.411,1.824-2.032,3.12-3.902,3.12H90.818l0.424,1.88c0.411,1.824,2.032,3.12,3.902,3.12h65.713c1.87,0,3.491-1.296,3.902-3.12
				l28.092-124.601C193.152,85.379,192.747,83.98,191.777,83.01z"/>
		</g>
		<g>
			<g>
				<path fill="#939598" d="M93.429,53.804L75.893,36.267c-1.562-1.562-4.095-1.562-5.657,0L52.254,54.248
					c-1.562,1.562-1.562,4.095,0,5.657l17.537,17.537L93.429,53.804z"/>
			</g>
		</g>
		<g>
			
				<rect x="62.395" y="59.587" transform="matrix(0.7071 -0.7071 0.7071 0.7071 -21.4638 74.4271)" fill="#808285" width="33.43" height="7.071"/>
		</g>
		<g>
			<g>
				<path fill="#939598" d="M162.545,53.804l17.537-17.537c1.562-1.562,4.095-1.562,5.657,0l17.982,17.982
					c1.562,1.562,1.562,4.095,0,5.657l-17.537,17.537L162.545,53.804z"/>
			</g>
		</g>
		<g>
			<path fill="#808285" d="M203.72,54.248l-5-5c1.562,1.563,1.562,4.095,0,5.657l-17.537,17.537l5,5l17.537-17.537
				C205.282,58.343,205.282,55.811,203.72,54.248z"/>
		</g>
		<g>
			<g>
				<polygon fill="#D1D3D4" points="174.769,101.811 158.16,170.668 97.84,170.668 81.231,101.811 				"/>
			</g>
		</g>
		<g>
			<circle fill="#808285" cx="128" cy="163.962" r="30.885"/>
		</g>
		<g>
			<circle fill="#FFA91A" cx="128" cy="163.962" r="14.825"/>
		</g>
		<g>
			<g>
				<circle fill="#939598" cx="94.849" cy="98.434" r="14.019"/>
			</g>
			<g>
				<path fill="#808285" d="M101.943,86.34c1.223,2.081,1.925,4.506,1.925,7.094c0,7.743-6.277,14.02-14.019,14.02
					c-2.589,0-5.013-0.702-7.094-1.925c2.436,4.144,6.94,6.925,12.094,6.925c7.743,0,14.019-6.277,14.019-14.02
					C108.868,93.28,106.086,88.776,101.943,86.34z"/>
			</g>
			<g>
				<circle fill="#939598" cx="161.151" cy="98.434" r="14.019"/>
			</g>
			<g>
				<path fill="#808285" d="M168.246,86.34c1.223,2.081,1.925,4.506,1.925,7.094c0,7.743-6.277,14.02-14.019,14.02
					c-2.589,0-5.013-0.702-7.094-1.925c2.436,4.144,6.94,6.925,12.094,6.925c7.743,0,14.019-6.277,14.019-14.02
					C175.171,93.28,172.389,88.776,168.246,86.34z"/>
			</g>
		</g>
		<g>
			<path fill="#939598" d="M151.762,235.034h-47.523c-2.209,0-4-1.791-4-4v-16.595h55.523v16.595
				C155.762,233.243,153.971,235.034,151.762,235.034z"/>
		</g>
		<g>
			<g>
				<g>
					<g>
						<path fill="#808285" d="M66.945,103.553L66.945,103.553l-31.14,9.758c-5.985,1.934-9.499,8.028-8.177,14.176l11.888,55.261
							c1.202,5.582,6.218,9.633,11.927,9.633h35.529L66.945,103.553z"/>
					</g>
				</g>
			</g>
			<g>
				<path fill="#58595B" d="M66.945,103.554l-3.617,1.133l18.644,82.693H46.443c-2.059,0-4.028-0.527-5.76-1.462
					c2.087,3.881,6.202,6.462,10.76,6.462h35.529L66.945,103.554z"/>
			</g>
			<g>
				<g>
					<path fill="#939598" d="M42.068,142.042l31.612-8.617l-1.205-5.344l-31.91,8.698c-1.488,0.405-2.358,1.912-1.943,3.365
						c0.345,1.208,1.469,1.999,2.693,1.999C41.564,142.144,41.817,142.11,42.068,142.042z"/>
				</g>
				<g>
					<path fill="#939598" d="M79.131,157.604l-31.805,8.669c-1.488,0.406-2.358,1.913-1.943,3.366
						c0.345,1.208,1.469,1.999,2.693,1.999c0.249,0,0.502-0.033,0.753-0.101l31.507-8.588L79.131,157.604z"/>
				</g>
				<g>
					<path fill="#939598" d="M45.449,156.789l31.559-8.603l-1.205-5.344l-31.858,8.683c-1.488,0.406-2.358,1.913-1.943,3.366
						c0.345,1.208,1.469,1.999,2.693,1.999C44.945,156.89,45.198,156.857,45.449,156.789z"/>
				</g>
			</g>
		</g>
		<g>
			<g>
				<g>
					<g>
						<path fill="#808285" d="M189.049,103.553L189.049,103.553l31.14,9.758c5.985,1.934,9.499,8.028,8.177,14.176l-11.888,55.261
							c-1.202,5.582-6.218,9.633-11.927,9.633h-35.529L189.049,103.553z"/>
					</g>
				</g>
			</g>
			<g>
				<path fill="#58595B" d="M220.189,113.311l-1.733-0.543c0.27,1.521,0.254,3.118-0.09,4.719l-11.888,55.261
					c-1.202,5.582-6.218,9.632-11.927,9.632h-23.274l-2.255,10h35.529c5.709,0,10.725-4.051,11.927-9.632l11.888-55.261
					C229.689,121.339,226.174,115.245,220.189,113.311z"/>
			</g>
			<g>
				<path fill="#414042" d="M222.212,114.169c1.314,2.463,1.785,5.384,1.154,8.317l-11.888,55.261
					c-1.202,5.582-6.218,9.632-11.927,9.632H170.15l-1.127,5h35.529c5.709,0,10.725-4.051,11.927-9.632l11.888-55.261
					C229.532,122.069,226.94,116.693,222.212,114.169z"/>
			</g>
			<g>
				<g>
					<path fill="#939598" d="M213.926,142.042l-31.612-8.617l1.205-5.344l31.91,8.698c1.488,0.405,2.358,1.912,1.943,3.365
						c-0.345,1.208-1.469,1.999-2.693,1.999C214.43,142.144,214.177,142.11,213.926,142.042z"/>
				</g>
				<g>
					<path fill="#939598" d="M176.863,157.604l31.805,8.669c1.488,0.406,2.358,1.913,1.943,3.366
						c-0.345,1.208-1.469,1.999-2.693,1.999c-0.249,0-0.502-0.033-0.753-0.101l-31.507-8.588L176.863,157.604z"/>
				</g>
				<g>
					<path fill="#939598" d="M210.545,156.789l-31.559-8.603l1.205-5.344l31.858,8.683c1.488,0.406,2.358,1.913,1.943,3.366
						c-0.345,1.208-1.469,1.999-2.693,1.999C211.049,156.89,210.796,156.857,210.545,156.789z"/>
				</g>
			</g>
		</g>
		<g>
			<path fill="#F1F2F2" d="M157.865,49.098H98.135l5.498,15.179c0.573,1.583,2.077,2.638,3.761,2.638h41.214
				c1.684,0,3.187-1.055,3.761-2.638L157.865,49.098z"/>
		</g>
		<g>
			<path fill="#FFA91A" d="M147.927,35.189l-6.066-1.563l3.184-5.395c0.46-0.78,0.333-1.774-0.307-2.414l-3.188-3.187
				c-0.641-0.641-1.634-0.767-2.414-0.307l-5.394,3.184l-1.563-6.066c-0.227-0.877-1.018-1.49-1.925-1.49h-4.508
				c-0.906,0-1.697,0.613-1.925,1.49l-1.563,6.066l-5.394-3.184c-0.781-0.46-1.774-0.334-2.414,0.307l-3.188,3.187
				c-0.641,0.64-0.767,1.634-0.308,2.414l3.184,5.395l-6.066,1.563c-0.877,0.227-1.49,1.018-1.49,1.925v4.508
				c0,0.906,0.613,1.698,1.49,1.925l6.066,1.563l-3.184,5.395c-0.46,0.781-0.333,1.774,0.308,2.415l3.188,3.187
				c0.641,0.64,1.633,0.767,2.414,0.307l5.394-3.184l1.563,6.066c0.227,0.877,1.019,1.489,1.925,1.489h4.508
				c0.906,0,1.697-0.613,1.925-1.489l1.563-6.066l5.394,3.184c0.781,0.459,1.774,0.333,2.414-0.307l3.188-3.187
				c0.641-0.641,0.767-1.634,0.307-2.415l-3.184-5.395l6.066-1.563c0.877-0.227,1.49-1.018,1.49-1.925v-4.508
				C149.417,36.208,148.804,35.416,147.927,35.189z M128,45.972c-3.647,0-6.604-2.957-6.604-6.604s2.957-6.604,6.604-6.604
				s6.604,2.957,6.604,6.604S131.647,45.972,128,45.972z"/>
		</g>
	</g>
	<g>
		<g>
			<circle fill="#E63950" cx="128" cy="178.787" r="46.869"/>
		</g>
		<g>
			<path fill="#D10028" d="M128,116.657c-34.313,0-62.129,27.816-62.129,62.129S93.687,240.916,128,240.916
				s62.129-27.816,62.129-62.129S162.313,116.657,128,116.657z M128,225.656c-25.885,0-46.869-20.984-46.869-46.869
				s20.984-46.869,46.869-46.869s46.869,20.984,46.869,46.869S153.885,225.656,128,225.656z"/>
		</g>
		<g>
			<g>
				<path fill="#B7022D" d="M169.361,132.426c9.807,10.984,15.768,25.477,15.768,41.361c0,34.313-27.816,62.129-62.129,62.129
					c-15.884,0-30.376-5.961-41.361-15.769c11.378,12.745,27.932,20.769,46.361,20.769c34.313,0,62.129-27.816,62.129-62.129
					C190.129,160.358,182.105,143.804,169.361,132.426z"/>
			</g>
		</g>
		<g>
			<path fill="#FFA91A" d="M155.305,151.421L155.305,151.421c-1.695-1.695-4.444-1.695-6.139,0l-18.587,18.587
				c-0.809-0.236-1.661-0.369-2.546-0.369c-5.013,0-9.076,4.063-9.076,9.076s4.063,9.076,9.076,9.076s9.076-4.063,9.076-9.076
				c0-0.898-0.135-1.763-0.378-2.582l18.574-18.574C157.001,155.865,157.001,153.116,155.305,151.421z"/>
		</g>
		<g>
			<path fill="#FFA91A" d="M153.971,225.414h-51.875c-1.439,0-2.606-1.167-2.606-2.606V204.16c0-1.439,1.167-2.606,2.606-2.606
				h51.875c1.439,0,2.606,1.167,2.606,2.606v18.649C156.577,224.247,155.41,225.414,153.971,225.414z"/>
		</g>
		<g>
			<g>
				<path fill="#FFA91A" d="M124.548,116.752c0,0.002,0,0.005,0,0.007v15.284c1.14-0.083,2.291-0.125,3.452-0.125
					c1.184,0,2.358,0.044,3.519,0.13v-15.289c0-0.001,0-0.002,0-0.003c-1.165-0.065-2.338-0.098-3.519-0.098
					C126.842,116.657,125.691,116.689,124.548,116.752z"/>
			</g>
			<g>
				<path fill="#FFA91A" d="M180.312,145.253l-13.237,7.642c1.282,1.931,2.425,3.962,3.414,6.079l13.256-7.653
					C182.712,149.23,181.565,147.204,180.312,145.253z"/>
			</g>
			<g>
				<path fill="#FFA91A" d="M72.271,151.292l13.255,7.653c0.99-2.116,2.135-4.147,3.418-6.077l-13.237-7.642
					C74.452,147.175,73.304,149.2,72.271,151.292z"/>
			</g>
			<g>
				<path fill="#FFA91A" d="M76.349,213.326l13.256-7.653c-1.332-1.898-2.526-3.899-3.569-5.99l-13.237,7.642
					C73.872,209.397,75.058,211.4,76.349,213.326z"/>
			</g>
			<g>
				<path fill="#FFA91A" d="M183.216,207.296l-13.237-7.642c-1.041,2.091-2.234,4.093-3.565,5.992l13.255,7.653
					C180.96,211.371,182.145,209.367,183.216,207.296z"/>
			</g>
		</g>
		<g>
			<g>
				<rect x="113.343" y="201.554" fill="#F79219" width="7.727" height="23.86"/>
			</g>
			<g>
				<rect x="134.997" y="201.554" fill="#F79219" width="7.727" height="23.86"/>
			</g>
		</g>
	</g>
	<g>
		<path fill="#F79219" d="M128,26.555c-7.076,0-12.813,5.737-12.813,12.813S120.924,52.181,128,52.181s12.813-5.737,12.813-12.813
			S135.076,26.555,128,26.555z M128,45.972c-3.647,0-6.604-2.957-6.604-6.604s2.957-6.604,6.604-6.604s6.604,2.957,6.604,6.604
			S131.647,45.972,128,45.972z"/>
	</g>
	<g>
		<path fill="#FFFFFF" d="M74.04,109.74c-2.352-0.01-2.738-3.421-0.44-3.95C76.483,105.293,76.966,109.607,74.04,109.74z
			 M72.28,101.939c-0.93,0-1.75-0.66-1.95-1.56l-3.04-13.47c-0.15-0.67,0.05-1.36,0.54-1.851l24.81-24.81
			c1.887-1.786,4.677,0.921,2.83,2.819c0,0-24.03,24.04-24.03,24.04L74.23,99.5C74.519,100.72,73.536,101.949,72.28,101.939z"/>
	</g>
</g>
</svg>
