<?xml version="1.0" encoding="utf-8"?>
<!-- Generator: Adobe Illustrator 24.0.0, SVG Export Plug-In . SVG Version: 6.00 Build 0)  -->
<svg version="1.1" id="Layer_1" xmlns="http://www.w3.org/2000/svg" xmlns:xlink="http://www.w3.org/1999/xlink" x="0px" y="0px"
	 viewBox="0 0 256 256" enable-background="new 0 0 256 256" xml:space="preserve">
<g>
	<g>
		<g>
			<g>
				<g>
					<g>
						<g>
							<g>
								<path fill="#58595B" d="M165.364,52.071l0.003,0.009c0.186-0.498,0.597-0.899,1.14-1.046l9.829-2.652
									c0.999-0.269,2.004,0.412,2.124,1.439l0.664,5.694c0.097,0.834-0.431,1.613-1.241,1.831l-12.255,3.298
									c-0.934,0.251-1.916-0.187-2.352-1.051l0,0c-0.256-0.506-0.289-1.096-0.092-1.628L165.364,52.071z"/>
							</g>
						</g>
					</g>
					<g>
						<g>
							<g>
								<path fill="#58595B" d="M90.636,52.071l-0.003,0.009c-0.186-0.498-0.597-0.899-1.14-1.046l-9.829-2.652
									c-0.999-0.269-2.004,0.412-2.124,1.439l-0.664,5.694c-0.097,0.834,0.431,1.613,1.241,1.831l12.255,3.298
									c0.934,0.251,1.916-0.187,2.352-1.051v0c0.256-0.506,0.289-1.096,0.092-1.628L90.636,52.071z"/>
							</g>
						</g>
					</g>
				</g>
				<g>
					<g>
						<g>
							<path fill="#58595B" d="M97.322,110.113H84.368c-2.525,0-4.572-2.047-4.572-4.572V83.615c0-2.525,2.047-4.572,4.572-4.572
								h12.953c2.525,0,4.572,2.047,4.572,4.572v21.926C101.893,108.066,99.846,110.113,97.322,110.113z"/>
						</g>
					</g>
					<g>
						<g>
							<path fill="#58595B" d="M171.632,110.113h-12.953c-2.525,0-4.572-2.047-4.572-4.572V83.615c0-2.525,2.047-4.572,4.572-4.572
								h12.953c2.525,0,4.572,2.047,4.572,4.572v21.926C176.204,108.066,174.157,110.113,171.632,110.113z"/>
						</g>
					</g>
				</g>
				<g>
					<g>
						<path fill="#58595B" d="M170.142,99.327H85.858c-2.066,0-3.814-1.525-4.096-3.571L78.274,70.38
							c-0.811-5.896,3.771-11.151,9.723-11.151h80.008c5.952,0,10.533,5.255,9.723,11.151l-3.489,25.376
							C173.956,97.802,172.208,99.327,170.142,99.327z"/>
					</g>
				</g>
				<g>
					<g>
						<path fill="#808285" d="M79.84,81.777l1.922,13.979c0.281,2.046,2.03,3.571,4.096,3.571h84.284
							c2.066,0,3.814-1.525,4.096-3.571l1.922-13.979H79.84z"/>
					</g>
				</g>
				<g>
					<path fill="#58595B" d="M164.785,81.777l-0.547,3.979c-0.281,2.046-2.03,3.571-4.095,3.571H80.878l0.884,6.429
						c0.281,2.046,2.03,3.571,4.095,3.571h84.285c2.066,0,3.814-1.525,4.095-3.571l1.922-13.979H164.785z"/>
				</g>
				<g>
					<path fill="#414042" d="M170.472,81.777l-1.234,8.979c-0.281,2.046-2.03,3.571-4.095,3.571H81.566l0.197,1.429
						c0.281,2.046,2.03,3.571,4.095,3.571h84.285c2.066,0,3.814-1.525,4.095-3.571l1.922-13.979H170.472z"/>
				</g>
				<g>
					<g>
						<path fill="#808285" d="M153.389,35.66h-50.778c-3.069,0-5.812,1.915-6.869,4.797l-6.888,18.772h78.292l-6.888-18.772
							C159.201,37.575,156.458,35.66,153.389,35.66z"/>
					</g>
				</g>
				<g>
					<g>
						<path fill="#D1D3D4" d="M105.7,76.632H87.103c-0.89,0-1.643-0.658-1.762-1.54l-0.376-2.782
							c-0.144-1.067,0.686-2.017,1.762-2.017h18.597c0.89,0,1.643,0.658,1.762,1.54l0.376,2.782
							C107.607,75.683,106.777,76.632,105.7,76.632z"/>
					</g>
				</g>
				<g>
					<g>
						<path fill="#D1D3D4" d="M150.3,76.632h18.597c0.89,0,1.643-0.658,1.762-1.54l0.376-2.782c0.144-1.067-0.686-2.017-1.762-2.017
							h-18.597c-0.89,0-1.643,0.658-1.762,1.54l-0.376,2.782C148.393,75.683,149.223,76.632,150.3,76.632z"/>
					</g>
				</g>
				<g>
					<g>
						<path fill="#E6E7E8" d="M160.038,59.228H95.962l5.382-15.846c0.574-1.69,1.901-2.786,3.371-2.786h46.57
							c1.47,0,2.797,1.097,3.371,2.786L160.038,59.228z"/>
					</g>
				</g>
			</g>
		</g>
	</g>
	<g>
		<g>
			<path fill="#F79219" d="M33.249,181.387h-13.41c-2.209,0-4-1.791-4-4V78.613c0-2.209,1.791-4,4-4h40c2.209,0,4,1.791,4,4
				s-1.791,4-4,4h-36v90.773h9.41c2.209,0,4,1.791,4,4S35.458,181.387,33.249,181.387z"/>
		</g>
		<g>
			<path fill="#F79219" d="M236.161,181.387h-13.41c-2.209,0-4-1.791-4-4s1.791-4,4-4h9.41V82.613h-36c-2.209,0-4-1.791-4-4
				s1.791-4,4-4h40c2.209,0,4,1.791,4,4v98.773C240.161,179.596,238.37,181.387,236.161,181.387z"/>
		</g>
	</g>
	<g>
		<g>
			<path fill="#F79219" d="M207.209,95.475c-1.023,0-2.048-0.391-2.828-1.172L191.52,81.441c-1.563-1.562-1.563-4.095,0-5.656
				l12.861-12.861c1.561-1.563,4.096-1.563,5.656,0c1.563,1.562,1.563,4.095,0,5.656l-10.032,10.033l10.032,10.033
				c1.563,1.562,1.563,4.095,0,5.656C209.257,95.084,208.232,95.475,207.209,95.475z"/>
		</g>
		<g>
			<path fill="#F79219" d="M48.791,95.475c-1.023,0-2.048-0.391-2.828-1.172c-1.563-1.562-1.563-4.095,0-5.656l10.032-10.033
				L45.963,68.58c-1.563-1.562-1.563-4.095,0-5.656c1.561-1.563,4.096-1.563,5.656,0L64.48,75.785c1.563,1.562,1.563,4.095,0,5.656
				L51.619,94.303C50.839,95.084,49.814,95.475,48.791,95.475z"/>
		</g>
	</g>
	<g>
		<g>
			<g>
				<circle fill="#FFA91A" cx="128" cy="36.093" r="23.135"/>
			</g>
		</g>
		<g>
			<path fill="#F79219" d="M141.668,17.425c2.809,3.83,4.467,8.555,4.467,13.668c0,12.777-10.358,23.135-23.135,23.135
				c-5.113,0-9.838-1.659-13.668-4.467c4.21,5.74,11.004,9.467,18.668,9.467c12.777,0,23.135-10.358,23.135-23.135
				C151.135,28.428,147.408,21.635,141.668,17.425z"/>
		</g>
		<g>
			<g>
				<path fill="#FFFFFF" d="M130.324,50.878h-4.648c-4.308,0-7.812-3.504-7.812-7.812c0-1.104,0.896-2,2-2s2,0.896,2,2
					c0,2.102,1.71,3.812,3.812,3.812h4.648c2.102,0,3.812-1.71,3.812-3.812v-2.324c0-2.102-1.71-3.812-3.812-3.812h-4.648
					c-4.308,0-7.812-3.504-7.812-7.812s3.504-7.812,7.812-7.812h4.648c4.308,0,7.812,3.504,7.812,7.812c0,1.104-0.896,2-2,2
					s-2-0.896-2-2c0-2.102-1.71-3.812-3.812-3.812h-4.648c-2.102,0-3.812,1.71-3.812,3.812s1.71,3.812,3.812,3.812h4.648
					c4.308,0,7.812,3.504,7.812,7.812v2.324C138.136,47.374,134.632,50.878,130.324,50.878z"/>
			</g>
			<g>
				<path fill="#FFFFFF" d="M128,53.203c-1.104,0-2-0.896-2-2V20.982c0-1.104,0.896-2,2-2s2,0.896,2,2v30.221
					C130,52.308,129.104,53.203,128,53.203z"/>
			</g>
		</g>
	</g>
	<g>
		<g>
			<path fill="#5A7A39" d="M207.845,229.857H64.508c-2.709,0-4.906-2.196-4.906-4.906v-67.624c0-2.709,2.196-4.906,4.906-4.906
				h143.336c2.709,0,4.906,2.196,4.906,4.906v67.624C212.751,227.661,210.554,229.857,207.845,229.857z"/>
		</g>
		<g>
			<path fill="#648940" d="M199.668,221.681H56.332c-2.709,0-4.906-2.196-4.906-4.906v-67.624c0-2.709,2.196-4.906,4.906-4.906
				h143.336c2.709,0,4.906,2.196,4.906,4.906v67.624C204.574,219.485,202.378,221.681,199.668,221.681z"/>
		</g>
		<g>
			<path fill="#76A34F" d="M191.492,213.504H48.155c-2.709,0-4.906-2.196-4.906-4.906v-67.624c0-2.709,2.196-4.906,4.906-4.906
				h143.336c2.709,0,4.906,2.196,4.906,4.906v67.624C196.398,211.308,194.201,213.504,191.492,213.504z"/>
		</g>
		<g>
			<path fill="#91B56B" d="M189.677,187.175v-24.776c0-0.854-0.659-1.552-1.51-1.625c-8.562-0.742-15.385-7.739-16.095-16.514
				c-0.069-0.853-0.769-1.516-1.626-1.516H69.2c-0.856,0-1.557,0.662-1.626,1.516c-0.71,8.774-7.533,15.771-16.095,16.514
				c-0.851,0.074-1.51,0.771-1.51,1.625v24.776c0,0.854,0.659,1.552,1.51,1.625c8.562,0.742,15.385,7.739,16.095,16.514
				c0.069,0.853,0.769,1.516,1.626,1.516h101.247c0.856,0,1.557-0.662,1.626-1.516c0.71-8.774,7.533-15.771,16.095-16.514
				C189.018,188.726,189.677,188.029,189.677,187.175z"/>
		</g>
		<g>
			<circle fill="#FFFFFF" cx="119.823" cy="174.787" r="25.267"/>
		</g>
		<g>
			<g>
				<path fill="#648940" d="M122.324,190.539h-5.001c-4.55,0-8.251-3.701-8.251-8.251c0-1.104,0.896-2,2-2s2,0.896,2,2
					c0,2.344,1.907,4.251,4.251,4.251h5.001c2.344,0,4.251-1.907,4.251-4.251v-2.501c0-2.344-1.907-4.251-4.251-4.251h-5.001
					c-4.55,0-8.251-3.701-8.251-8.251s3.701-8.251,8.251-8.251h5.001c4.55,0,8.251,3.701,8.251,8.251c0,1.104-0.896,2-2,2
					s-2-0.896-2-2c0-2.344-1.907-4.251-4.251-4.251h-5.001c-2.344,0-4.251,1.907-4.251,4.251s1.907,4.251,4.251,4.251h5.001
					c4.55,0,8.251,3.701,8.251,8.251v2.501C130.575,186.838,126.874,190.539,122.324,190.539z"/>
			</g>
			<g>
				<path fill="#648940" d="M119.823,193.04c-1.104,0-2-0.896-2-2v-32.507c0-1.104,0.896-2,2-2s2,0.896,2,2v32.507
					C121.823,192.145,120.928,193.04,119.823,193.04z"/>
			</g>
		</g>
	</g>
	<g>
		<path fill="#808285" d="M145.99,67.229c-1.101,0-2-0.899-2-2c0-1.1,0.899-2,2-2c1.109,0,2,0.9,2,2
			C147.99,66.33,147.1,67.229,145.99,67.229z M138,67.229H88c-1.11,0-2-0.899-2-2c0-1.1,0.89-2,2-2h50c1.1,0,2,0.9,2,2
			C140,66.33,139.1,67.229,138,67.229z"/>
	</g>
</g>
</svg>
