<?xml version="1.0" encoding="utf-8"?>
<!-- Generator: Adobe Illustrator 24.0.0, SVG Export Plug-In . SVG Version: 6.00 Build 0)  -->
<svg version="1.1" id="Layer_1" xmlns="http://www.w3.org/2000/svg" xmlns:xlink="http://www.w3.org/1999/xlink" x="0px" y="0px"
	 viewBox="0 0 256 256" enable-background="new 0 0 256 256" xml:space="preserve">
<g>
	<g>
		<g>
			<g>
				<g>
					<g>
						<g>
							<g>
								<path fill="#478CF7" d="M99.157,237.606l-9.546-28.985c-0.676-2.054-3.227-2.755-4.858-1.336l-23.022,20.032
									c-2.259,1.966-5.695-0.196-4.901-3.083L88.18,110.199l48.116,13.228l-31.351,114.034
									C104.151,240.349,100.093,240.45,99.157,237.606z"/>
							</g>
						</g>
						<g>
							<g>
								<path fill="#2266D3" d="M88.18,110.199l-1.197,4.354l32.277,8.874l-26.255,95.498l6.152,18.681
									c0.936,2.844,4.994,2.743,5.788-0.145l31.351-114.033L88.18,110.199z"/>
							</g>
						</g>
						<g>
							<g>
								<path fill="#478CF7" d="M156.843,237.606l9.546-28.985c0.676-2.054,3.227-2.755,4.858-1.336l23.022,20.032
									c2.259,1.966,5.695-0.196,4.901-3.083L167.82,110.199l-48.116,13.228l31.351,114.034
									C151.849,240.349,155.907,240.45,156.843,237.606z"/>
							</g>
						</g>
						<g>
							<g>
								<path fill="#2266D3" d="M199.171,224.233L167.82,110.199l-15.839,4.354l27.452,99.853l14.837,12.91
									C196.529,229.282,199.964,227.12,199.171,224.233z"/>
							</g>
						</g>
					</g>
					<g>
						<g>
							<path fill="#FFC91D" d="M139.513,21.471L139.513,21.471c9.781-10.834,27.748-3.391,27.004,11.185v0
								c-0.469,9.179,7.103,16.75,16.282,16.282l0,0c14.576-0.745,22.019,17.223,11.185,27.004l0,0
								c-6.822,6.159-6.822,16.867,0,23.026l0,0c10.834,9.78,3.391,27.748-11.185,27.004l0,0
								c-9.179-0.469-16.751,7.103-16.282,16.282l0,0c0.745,14.576-17.223,22.019-27.004,11.185l0,0
								c-6.159-6.822-16.867-6.822-23.026,0l0,0c-9.781,10.833-27.748,3.391-27.004-11.185l0,0
								c0.469-9.179-7.103-16.751-16.282-16.282l0,0c-14.576,0.745-22.019-17.223-11.185-27.004l0,0
								c6.822-6.159,6.822-16.867,0-23.026l0,0c-10.834-9.781-3.391-27.748,11.185-27.004l0,0
								c9.179,0.469,16.751-7.103,16.282-16.282v0c-0.745-14.576,17.223-22.019,27.004-11.185l0,0
								C122.646,28.293,133.354,28.293,139.513,21.471z"/>
						</g>
					</g>
					<g>
						<g>
							<path fill="#FFA91A" d="M193.984,98.968c-6.822-6.159-6.822-16.867,0-23.026c8.301-7.494,5.872-19.793-2.273-24.801
								c3.687,5.919,3.476,14.201-2.727,19.801c-6.822,6.159-6.822,16.867,0,23.026c10.834,9.781,3.391,27.748-11.185,27.004
								c-9.179-0.469-16.751,7.103-16.282,16.282c0.745,14.577-17.223,22.019-27.004,11.186c-6.159-6.823-16.867-6.823-23.026,0
								c-5.599,6.202-13.882,6.414-19.801,2.727c5.007,8.146,17.307,10.574,24.801,2.273c6.159-6.823,16.867-6.823,23.026,0
								c9.781,10.833,27.748,3.391,27.004-11.186c-0.469-9.179,7.103-16.751,16.282-16.282
								C197.375,126.716,204.818,108.749,193.984,98.968z"/>
						</g>
					</g>
					<g>
						<g>
							
								<ellipse transform="matrix(0.8847 -0.4662 0.4662 0.8847 -26.0114 69.7669)" fill="#FFA91A" cx="128" cy="87.455" rx="52.607" ry="52.607"/>
						</g>
					</g>
					<g>
						<path fill="#F79219" d="M159.863,45.591c6.741,8.843,10.744,19.886,10.744,31.864c0,29.054-23.553,52.607-52.607,52.607
							c-11.978,0-23.02-4.003-31.863-10.744c9.611,12.607,24.787,20.744,41.863,20.744c29.054,0,52.607-23.553,52.607-52.607
							C180.607,70.378,172.471,55.202,159.863,45.591z"/>
					</g>
					<g>
						<path fill="#EF7816" d="M162.615,47.839c8.09,9.251,12.992,21.361,12.992,34.616c0,29.054-23.553,52.607-52.607,52.607
							c-13.255,0-25.365-4.902-34.615-12.992c9.643,11.027,23.816,17.992,39.615,17.992c29.054,0,52.607-23.553,52.607-52.607
							C180.607,71.655,173.642,57.482,162.615,47.839z"/>
					</g>
				</g>
			</g>
			<g>
				<path fill="#FFC91D" d="M81.66,89.46c-1.11,0-2-0.9-2-2c0-1.11,0.89-2,2-2c1.09,0,1.99,0.89,2,1.979c0,0.011,0,0.011,0,0.021
					C83.66,88.56,82.76,89.46,81.66,89.46z M82.34,81.5c-0.11,0-0.23-0.01-0.34-0.03c-0.53-0.09-0.99-0.38-1.29-0.82
					c-0.31-0.439-0.43-0.97-0.34-1.5c1.5-8.619,5.34-16.699,11.12-23.35c5.72-6.59,13.09-11.52,21.33-14.25
					c0.03-0.01,0.06-0.02,0.09-0.03c2.61-0.859,5.31-1.5,8.02-1.89c1.08-0.16,2.11,0.61,2.27,1.68c0.16,1.09-0.6,2.11-1.69,2.271
					c-2.52,0.38-5.02,0.97-7.43,1.77c-15.57,5.16-26.97,18.37-29.77,34.49C84.14,80.8,83.32,81.5,82.34,81.5z"/>
			</g>
		</g>
	</g>
	<g>
		<g>
			<g>
				<circle fill="#E6E7E8" cx="190.973" cy="146.959" r="27.982"/>
			</g>
		</g>
		<g>
			<path fill="#D1D3D4" d="M208.101,124.831c3.669,4.733,5.854,10.676,5.854,17.128c0,15.454-12.528,27.982-27.982,27.982
				c-6.453,0-12.395-2.185-17.128-5.854c5.119,6.603,13.127,10.854,22.128,10.854c15.454,0,27.982-12.528,27.982-27.982
				C218.955,137.958,214.704,129.949,208.101,124.831z"/>
		</g>
		<g>
			<path fill="#478CF7" d="M207.044,150.066h-32.144c-2.209,0-4-1.791-4-4s1.791-4,4-4h32.144c2.209,0,4,1.791,4,4
				S209.253,150.066,207.044,150.066z"/>
		</g>
		<g>
			<path fill="#478CF7" d="M190.973,166.138c-2.209,0-4-1.791-4-4v-32.144c0-2.209,1.791-4,4-4s4,1.791,4,4v32.144
				C194.973,164.347,193.182,166.138,190.973,166.138z"/>
		</g>
	</g>
	<g>
		<g>
			<g>
				<path fill="#478CF7" d="M145.219,112.776l-15.004,11.04c-1.317,0.969-3.111,0.969-4.428,0l-15.005-11.04
					c-6.214-4.571-9.819-11.422-9.819-18.657V61.307c0-2.063,1.673-3.736,3.736-3.736l0,0h46.603c2.063,0,3.736,1.673,3.737,3.736
					v32.812C155.038,101.353,151.432,108.204,145.219,112.776z"/>
			</g>
		</g>
		<g>
			<path fill="#377DE2" d="M151.301,57.571h-1.263v31.548c0,7.235-3.606,14.086-9.819,18.657l-15.004,11.04
				c-1.317,0.969-3.111,0.969-4.428,0l-15.005-11.04c-0.085-0.063-0.169-0.126-0.253-0.189c1.445,1.932,3.208,3.684,5.253,5.189
				l15.005,11.04c1.317,0.969,3.111,0.969,4.428,0l15.004-11.04c6.214-4.571,9.819-11.422,9.819-18.657V61.307
				C155.037,59.243,153.365,57.571,151.301,57.571z"/>
		</g>
		<g>
			<g>
				<g>
					<g>
						<path fill="#F1F2F2" d="M125.549,99.946c-1.15,0-2.299-0.439-3.176-1.315l-8.844-8.844c-1.754-1.754-1.754-4.597,0-6.352
							c1.754-1.753,4.597-1.753,6.352,0l5.669,5.669l11.249-11.25c1.754-1.753,4.597-1.753,6.352,0c1.754,1.754,1.754,4.597,0,6.352
							l-14.425,14.425C127.848,99.507,126.698,99.946,125.549,99.946z"/>
					</g>
				</g>
			</g>
		</g>
	</g>
</g>
</svg>
