<?xml version="1.0" encoding="utf-8"?>
<!-- Generator: Adobe Illustrator 24.0.0, SVG Export Plug-In . SVG Version: 6.00 Build 0)  -->
<svg version="1.1" id="Layer_1" xmlns="http://www.w3.org/2000/svg" xmlns:xlink="http://www.w3.org/1999/xlink" x="0px" y="0px"
	 viewBox="0 0 256 256" enable-background="new 0 0 256 256" xml:space="preserve">
<g>
	<g>
		<g>
			<path fill="#808285" d="M68.925,211.931h118.334c6.078,0,11.005,4.927,11.005,11.005l0,0c0,6.078-4.927,11.005-11.005,11.005
				H68.925c-6.078,0-11.005-4.927-11.005-11.005l0,0C57.92,216.858,62.847,211.931,68.925,211.931z"/>
		</g>
		<g>
			<path fill="#58595B" d="M192.13,213.069c0.748,1.514,1.136,3.181,1.134,4.87l0,0c0,6.075-4.925,11-11,11
				c-0.002,0-0.003,0-0.005,0H63.924c-1.689,0.003-3.356-0.386-4.87-1.134c1.853,3.757,5.68,6.136,9.87,6.134h118.335
				c6.075,0.003,11.002-4.92,11.005-10.995c0-0.002,0-0.003,0-0.005l0,0C198.266,218.749,195.887,214.922,192.13,213.069z"/>
		</g>
		<g>
			<rect x="119.731" y="108.23" fill="#808285" width="16.721" height="103.701"/>
		</g>
		<g>
			<rect x="128.659" y="108.23" fill="#58595B" width="7.793" height="103.701"/>
		</g>
		<g>
			<path fill="#FFA91A" d="M112.538,189.912h31.108c9.665,0,17.5,7.835,17.5,17.5v4.521l0,0H95.039l0,0v-4.521
				C95.039,197.747,102.873,189.913,112.538,189.912z"/>
		</g>
		<g>
			<path fill="#F79219" d="M153.266,192.791c1.883,2.855,2.884,6.2,2.878,9.62v4.52h-61.1c-0.005,0.16-0.007,0.319-0.007,0.48v4.52
				h66.105v-4.52C161.146,201.522,158.186,196.027,153.266,192.791z"/>
		</g>
		<g>
			<path fill="#808285" d="M209.103,87.121L209.103,87.121c0,3.69-2.992,6.682-6.682,6.682H53.762c-3.69,0-6.682-2.991-6.682-6.682
				l0,0c0-3.69,2.992-6.681,6.682-6.681h148.659C206.111,80.439,209.103,83.43,209.103,87.121z"/>
		</g>
		<g>
			<path fill="#58595B" d="M202.422,88.803H53.762c-2.726,0.001-5.18-1.654-6.2-4.182c-0.321,0.794-0.485,1.643-0.484,2.5l0,0
				c0,3.69,2.992,6.682,6.682,6.682h148.66c3.69-0.001,6.681-2.992,6.681-6.682l0,0c0.001-0.857-0.163-1.706-0.484-2.5
				C207.598,87.148,205.147,88.803,202.422,88.803z"/>
		</g>
		<g>
			<path fill="#FFA91A" d="M230.588,126.557c-1.443,0.002-2.799-0.686-3.65-1.851l-22.792-31.163l-22.792,31.163
				c-1.473,2.016-4.302,2.455-6.318,0.982c-2.016-1.473-2.456-4.302-0.982-6.318L200.5,83.221c1.471-2.016,4.299-2.457,6.314-0.986
				c0.378,0.276,0.71,0.608,0.986,0.986l26.44,36.149c1.473,2.014,1.035,4.842-0.979,6.315c-0.774,0.566-1.707,0.871-2.666,0.872
				H230.588z"/>
		</g>
		<g>
			<path fill="#F79219" d="M232.007,116.328c-1.863,0.617-3.91-0.039-5.069-1.622l-22.792-31.163l-22.792,31.163
				c-1.159,1.584-3.207,2.239-5.07,1.622l-2.225,3.042c-1.473,2.016-1.034,4.845,0.982,6.318c2.016,1.473,4.844,1.034,6.318-0.982
				l22.792-31.163l22.792,31.163c1.473,2.016,4.302,2.455,6.318,0.982c2.016-1.473,2.456-4.302,0.982-6.318L232.007,116.328z"/>
		</g>
		<g>
			<path fill="#F79219" d="M171.275,116.969h65.741c1.894,0,3.43,1.536,3.43,3.43v4.681c0,17.621-14.285,31.906-31.906,31.906
				c0,0,0,0,0,0h-8.789c-17.621,0-31.906-14.285-31.906-31.906c0,0,0,0,0,0v-4.681C167.845,118.505,169.381,116.969,171.275,116.969
				C171.275,116.969,171.275,116.969,171.275,116.969z"/>
		</g>
		<g>
			<path fill="#EF7816" d="M237.016,116.969h-1.57v3.111c0,17.621-14.285,31.906-31.906,31.906l0,0h-8.789
				c-7.243,0.011-14.272-2.453-19.923-6.983c6.05,7.581,15.224,11.992,24.923,11.983h8.789c17.621,0,31.906-14.285,31.906-31.906
				c0,0,0,0,0,0v-4.68C240.446,118.506,238.91,116.97,237.016,116.969z"/>
		</g>
		<g>
			<path fill="#FFA91A" d="M78.3,126.557c-1.443,0.002-2.8-0.686-3.651-1.851L51.855,93.543l-22.792,31.163
				c-1.473,2.014-4.301,2.453-6.315,0.98s-2.453-4.301-0.979-6.316l26.439-36.149c1.471-2.016,4.299-2.457,6.314-0.986
				c0.378,0.276,0.71,0.608,0.986,0.986l26.434,36.148c1.474,2.013,1.037,4.84-0.976,6.314c-0.774,0.567-1.708,0.872-2.668,0.873
				L78.3,126.557z"/>
		</g>
		<g>
			<path fill="#F79219" d="M79.716,116.328c-1.863,0.616-3.911-0.039-5.07-1.622L51.854,83.543l-22.791,31.163
				c-1.159,1.584-3.207,2.239-5.07,1.622l-2.225,3.041c-1.473,2.014-1.035,4.842,0.979,6.315s4.842,1.035,6.316-0.979l0,0
				l22.791-31.162l22.792,31.163c1.473,2.016,4.302,2.455,6.318,0.982c2.016-1.473,2.455-4.302,0.982-6.318L79.716,116.328z"/>
		</g>
		<g>
			<path fill="#F79219" d="M18.984,116.969h65.741c1.894,0,3.43,1.536,3.43,3.43l0,0v4.681c0,17.621-14.285,31.906-31.906,31.906h0
				H47.46c-17.621,0-31.906-14.285-31.906-31.906l0,0v-4.681C15.554,118.505,17.09,116.969,18.984,116.969L18.984,116.969z"/>
		</g>
		<g>
			<path fill="#EF7816" d="M84.725,116.969h-1.57v3.111c0,17.621-14.285,31.906-31.906,31.906H42.46
				c-7.243,0.011-14.272-2.453-19.923-6.983c6.05,7.579,15.225,11.989,24.923,11.978h8.789c17.621,0,31.906-14.285,31.906-31.906
				l0,0v-4.68C88.152,118.502,86.618,116.97,84.725,116.969z"/>
		</g>
		<g>
			<g>
				<g>
					<circle fill="#FFA91A" cx="128" cy="68.159" r="46.099"/>
				</g>
				<g>
					<path fill="#F79219" d="M154.367,30.355c5.222,7.473,8.295,16.559,8.295,26.367c0,25.46-20.639,46.099-46.099,46.099
						c-9.808,0-18.894-3.072-26.367-8.295c8.333,11.925,22.153,19.732,37.805,19.732c25.46,0,46.099-20.639,46.099-46.099
						C174.099,52.508,166.292,38.687,154.367,30.355z"/>
				</g>
				<g>
					<path fill="#EF7816" d="M157.607,32.833c6.721,8.01,10.773,18.334,10.773,29.608c0,25.46-20.639,46.099-46.099,46.099
						c-11.274,0-21.598-4.052-29.607-10.773c8.456,10.079,21.14,16.492,35.326,16.492c25.46,0,46.099-20.639,46.099-46.099
						C174.099,53.973,167.686,41.289,157.607,32.833z"/>
				</g>
			</g>
			<g>
				<g>
					<path fill="#FFFFFF" d="M132.195,94.329h-8.391c-6.886,0-12.489-5.603-12.489-12.488c0-1.104,0.896-2,2-2s2,0.896,2,2
						c0,4.681,3.808,8.488,8.489,8.488h8.391c4.681,0,8.489-3.808,8.489-8.488v-4.196c0-4.681-3.809-8.488-8.489-8.488h-8.391
						c-6.886,0-12.489-5.603-12.489-12.489s5.603-12.489,12.489-12.489h8.391c6.887,0,12.489,5.603,12.489,12.489
						c0,1.104-0.896,2-2,2s-2-0.896-2-2c0-4.681-3.809-8.489-8.489-8.489h-8.391c-4.681,0-8.489,3.809-8.489,8.489
						s3.808,8.489,8.489,8.489h8.391c6.887,0,12.489,5.603,12.489,12.488v4.196C144.685,88.727,139.082,94.329,132.195,94.329z"/>
				</g>
				<g>
					<path fill="#FFFFFF" d="M128,98.524c-1.104,0-2-0.896-2-2V41.982c0-1.104,0.896-2,2-2s2,0.896,2,2v54.542
						C130,97.629,129.104,98.524,128,98.524z"/>
				</g>
			</g>
		</g>
	</g>
	<g>
		<path fill="#FFC91D" d="M87.9,70.16c-1.1,0-2-0.9-2-2c0-1.101,0.9-2,2-2s2,0.899,2,2C89.9,69.26,89,70.16,87.9,70.16z
			 M88.69,62.21c-0.13,0-0.26-0.01-0.39-0.04c-1.09-0.21-1.79-1.271-1.57-2.351c1.75-8.649,6.1-16.42,12.6-22.46
			c6.53-6.079,14.63-9.88,23.44-10.979c1.72-0.21,3.48-0.32,5.23-0.32c1.1,0,2,0.9,2,2c0,1.101-0.9,2-2,2
			c-1.59,0-3.18,0.101-4.72,0.29c-0.01,0-0.01,0-0.01,0c-0.03,0.01-0.06,0.01-0.09,0.01c-16.22,2.061-29.29,14.21-32.53,30.25
			C90.46,61.54,89.64,62.21,88.69,62.21z"/>
	</g>
</g>
</svg>
