<?xml version="1.0" encoding="utf-8"?>
<!-- Generator: Adobe Illustrator 24.0.0, SVG Export Plug-In . SVG Version: 6.00 Build 0)  -->
<svg version="1.1" id="Layer_1" xmlns="http://www.w3.org/2000/svg" xmlns:xlink="http://www.w3.org/1999/xlink" x="0px" y="0px"
	 viewBox="0 0 256 256" enable-background="new 0 0 256 256" xml:space="preserve">
<g>
	<g>
		<g>
			<g>
				<polygon fill="#FFD2C0" points="220.621,169.392 48.097,169.392 220.621,18.93 				"/>
			</g>
			<g>
				<polygon fill="#FCC4AE" points="200.622,36.372 200.622,159.392 59.563,159.392 48.097,169.392 220.622,169.392 220.622,18.93 
									"/>
			</g>
			<g>
				<path fill="#939598" d="M231.811,22.741L225.2,34.192c-0.552,0.957-1.775,1.284-2.732,0.732l-13.962-8.061
					c-0.957-0.552-1.284-1.775-0.732-2.732l6.611-11.451c2.509-4.345,8.065-5.834,12.411-3.325l1.69,0.976
					C232.831,12.839,234.32,18.395,231.811,22.741z"/>
			</g>
		</g>
		<g>
			<g>
				<polygon fill="#FFD2C0" points="35.379,169.392 207.903,169.392 35.379,18.93 				"/>
			</g>
			<g>
				<polygon fill="#FCC4AE" points="35.378,18.93 35.378,26.372 187.903,159.392 35.378,159.392 35.378,169.392 207.903,169.392 
									"/>
			</g>
			<g>
				<path fill="#939598" d="M24.189,22.741L30.8,34.192c0.552,0.957,1.775,1.284,2.732,0.732l13.962-8.061
					c0.957-0.552,1.284-1.775,0.732-2.732l-6.611-11.451c-2.509-4.345-8.065-5.834-12.411-3.325l-1.69,0.976
					C23.169,12.839,21.68,18.395,24.189,22.741z"/>
			</g>
		</g>
	</g>
	<g>
		<path fill="#808285" d="M229.149,219.129H26.851c-4.418,0-8-3.582-8-8v-33.737c0-4.418,3.582-8,8-8h202.299c4.418,0,8,3.582,8,8
			v33.737C237.149,215.548,233.568,219.129,229.149,219.129z"/>
	</g>
	<g>
		<path fill="#939598" d="M24.85,203.12c-1.1,0-2-0.89-2-2c0-1.1,0.9-1.99,2-1.99c1.1,0,2,0.89,2,1.99
			C26.85,202.23,25.95,203.12,24.85,203.12z M24.85,195.12c-1.1,0-2-0.89-2-2v-15.73c0.01-2.2,1.8-4,4-4h139.13c1.101,0,2,0.9,2,2
			c0,1.11-0.899,2-2,2H26.85v15.73C26.85,194.23,25.95,195.12,24.85,195.12z"/>
	</g>
	<g>
		<path fill="#58595B" d="M229.149,169.392h-2v31.737c0,4.418-3.582,8-8,8H18.851v2c0,4.418,3.582,8,8,8h202.299
			c4.418,0,8-3.582,8-8v-33.737C237.149,172.974,233.568,169.392,229.149,169.392z"/>
	</g>
	<g>
		<path fill="#414042" d="M231.725,169.816c0.275,0.808,0.424,1.675,0.424,2.576v33.737c0,4.418-3.582,8-8,8H21.851
			c-0.901,0-1.768-0.149-2.576-0.424c1.072,3.154,4.059,5.424,7.576,5.424h202.299c4.418,0,8-3.582,8-8v-33.737
			C237.149,173.875,234.88,170.888,231.725,169.816z"/>
	</g>
	<g>
		<g>
			<path fill="#FFA91A" d="M93.334,181.747l1.493,4.594C95.148,187.33,96.07,188,97.111,188h4.83c2.326,0,3.294,2.977,1.412,4.344
				l-3.908,2.839c-0.842,0.612-1.194,1.695-0.872,2.685l1.493,4.594c0.719,2.212-1.813,4.052-3.695,2.685l-3.908-2.839
				c-0.842-0.612-1.981-0.612-2.823,0l-3.908,2.839c-1.882,1.367-4.414-0.472-3.695-2.685l1.493-4.594
				c0.321-0.989-0.031-2.073-0.872-2.685l-3.908-2.839c-1.882-1.367-0.915-4.344,1.412-4.344h4.83c1.04,0,1.962-0.67,2.284-1.659
				l1.493-4.594C89.485,179.534,92.615,179.534,93.334,181.747z"/>
		</g>
		<g>
			<g>
				<path fill="#F79219" d="M101.941,188h-1.373c-0.163,0.309-0.403,0.594-0.729,0.831l-3.908,2.839
					c-0.842,0.612-1.194,1.695-0.872,2.685l1.493,4.594c0.719,2.212-1.813,4.052-3.695,2.685l-3.908-2.839
					c-0.842-0.611-1.981-0.611-2.823,0l-3.793,2.756l-0.296,0.912c-0.719,2.212,1.813,4.052,3.695,2.685l3.908-2.839
					c0.842-0.611,1.981-0.611,2.823,0l3.908,2.839c1.882,1.367,4.414-0.472,3.695-2.685l-1.493-4.594
					c-0.321-0.989,0.031-2.073,0.872-2.685l3.908-2.839C105.234,190.977,104.267,188,101.941,188z"/>
			</g>
		</g>
		<g>
			<path fill="#FFA91A" d="M130.284,181.747l1.493,4.594c0.321,0.989,1.244,1.659,2.284,1.659h4.83c2.326,0,3.294,2.977,1.412,4.344
				l-3.908,2.839c-0.842,0.612-1.194,1.695-0.872,2.685l1.493,4.594c0.719,2.212-1.813,4.052-3.695,2.685l-3.908-2.839
				c-0.842-0.612-1.981-0.612-2.823,0l-3.908,2.839c-1.882,1.367-4.414-0.472-3.695-2.685l1.493-4.594
				c0.321-0.989-0.031-2.073-0.872-2.685l-3.908-2.839c-1.882-1.367-0.915-4.344,1.412-4.344h4.83c1.04,0,1.962-0.67,2.284-1.659
				l1.493-4.594C126.435,179.534,129.565,179.534,130.284,181.747z"/>
		</g>
		<g>
			<g>
				<path fill="#F79219" d="M138.891,188h-1.373c-0.163,0.309-0.403,0.594-0.729,0.831l-3.908,2.839
					c-0.842,0.612-1.194,1.695-0.872,2.685l1.493,4.594c0.719,2.212-1.813,4.052-3.695,2.685l-3.908-2.839
					c-0.842-0.611-1.981-0.611-2.823,0l-3.793,2.756l-0.296,0.912c-0.719,2.212,1.813,4.052,3.695,2.685l3.908-2.839
					c0.842-0.611,1.981-0.611,2.823,0l3.908,2.839c1.882,1.367,4.414-0.472,3.695-2.685l-1.493-4.594
					c-0.321-0.989,0.031-2.073,0.872-2.685l3.908-2.839C142.184,190.977,141.217,188,138.891,188z"/>
			</g>
		</g>
		<g>
			<path fill="#FFA91A" d="M167.234,181.747l1.493,4.594c0.321,0.989,1.244,1.659,2.284,1.659h4.83c2.326,0,3.294,2.977,1.412,4.344
				l-3.908,2.839c-0.842,0.612-1.194,1.695-0.872,2.685l1.493,4.594c0.719,2.212-1.813,4.052-3.695,2.685l-3.908-2.839
				c-0.842-0.612-1.981-0.612-2.823,0l-3.908,2.839c-1.882,1.367-4.414-0.472-3.695-2.685l1.493-4.594
				c0.321-0.989-0.031-2.073-0.872-2.685l-3.908-2.839c-1.882-1.367-0.915-4.344,1.412-4.344h4.83c1.04,0,1.962-0.67,2.284-1.659
				l1.493-4.594C163.385,179.534,166.515,179.534,167.234,181.747z"/>
		</g>
		<g>
			<g>
				<path fill="#F79219" d="M175.841,188h-1.373c-0.163,0.309-0.403,0.594-0.729,0.831l-3.908,2.839
					c-0.842,0.612-1.194,1.695-0.872,2.685l1.493,4.594c0.719,2.212-1.813,4.052-3.695,2.685l-3.908-2.839
					c-0.842-0.611-1.981-0.611-2.823,0l-3.793,2.756l-0.296,0.912c-0.719,2.212,1.813,4.052,3.695,2.685l3.908-2.839
					c0.842-0.611,1.981-0.611,2.823,0l3.908,2.839c1.882,1.367,4.414-0.472,3.695-2.685l-1.493-4.594
					c-0.322-0.989,0.031-2.073,0.872-2.685l3.908-2.839C179.134,190.977,178.167,188,175.841,188z"/>
			</g>
		</g>
	</g>
	<g>
		<g>
			<g>
				<g>
					<g>
						<g>
							<path fill="#893ADD" d="M181.313,95.491l0.003,0.01c0.217-0.581,0.696-1.049,1.33-1.22l11.461-3.092
								c1.165-0.314,2.337,0.48,2.476,1.678l0.774,6.639c0.113,0.972-0.502,1.881-1.447,2.136l-14.289,3.846
								c-1.089,0.293-2.234-0.218-2.743-1.225l0,0c-0.298-0.59-0.337-1.278-0.108-1.899L181.313,95.491z"/>
						</g>
					</g>
				</g>
				<g>
					<g>
						<g>
							<path fill="#893ADD" d="M74.08,95.491l-0.003,0.01c-0.217-0.581-0.696-1.049-1.33-1.22L61.286,91.19
								c-1.165-0.314-2.337,0.48-2.476,1.678l-0.774,6.639c-0.113,0.972,0.502,1.881,1.447,2.136l14.289,3.846
								c1.089,0.293,2.234-0.218,2.743-1.225h0c0.298-0.59,0.337-1.278,0.108-1.899L74.08,95.491z"/>
						</g>
					</g>
				</g>
			</g>
			<g>
				<g>
					<g>
						<path fill="#58595B" d="M85.074,169.392H66.95c-3.533,0-6.397-2.864-6.397-6.397v-30.679c0-3.533,2.864-6.397,6.397-6.397
							h18.125c3.533,0,6.397,2.864,6.397,6.397v30.679C91.471,166.528,88.607,169.392,85.074,169.392z"/>
					</g>
				</g>
				<g>
					<g>
						<path fill="#58595B" d="M189.05,169.392h-18.125c-3.533,0-6.397-2.864-6.397-6.397v-30.679c0-3.533,2.864-6.397,6.397-6.397
							h18.125c3.533,0,6.397,2.864,6.397,6.397v30.679C195.447,166.528,192.583,169.392,189.05,169.392z"/>
					</g>
				</g>
			</g>
			<g>
				<g>
					<path fill="#A54AF4" d="M186.966,161.041H69.034c-2.89,0-5.337-2.133-5.731-4.997l-4.881-35.507
						c-1.134-8.25,5.276-15.602,13.604-15.602h111.948c8.328,0,14.738,7.352,13.604,15.602l-4.881,35.507
						C192.303,158.908,189.856,161.041,186.966,161.041z"/>
				</g>
			</g>
			<g>
				<path fill="#893ADD" d="M190.855,106.779c1.478,2.541,2.159,5.584,1.723,8.759l-4.881,35.507
					c-0.394,2.863-2.84,4.997-5.731,4.997H64.034c-0.25,0-0.496-0.016-0.738-0.047l0.007,0.051c0.394,2.863,2.84,4.997,5.731,4.997
					h117.932c2.89,0,5.337-2.133,5.731-4.997l4.881-35.507C198.369,114.786,195.492,109.47,190.855,106.779z"/>
			</g>
			<g>
				<g>
					<rect x="111.25" y="104.934" fill="#FFA91A" width="12.332" height="31.551"/>
				</g>
				<g>
					<rect x="132.418" y="104.934" fill="#FFA91A" width="12.332" height="31.551"/>
				</g>
			</g>
			<g>
				<g>
					<path fill="#6C2BC1" d="M60.614,136.485l2.689,19.559c0.394,2.863,2.84,4.997,5.731,4.997h117.932
						c2.89,0,5.337-2.133,5.731-4.997l2.689-19.559H60.614z"/>
				</g>
			</g>
			<g>
				<g>
					<path fill="#58595B" d="M163.524,71.957H92.476c-4.295,0-8.133,2.68-9.612,6.712l-9.638,26.267h109.547l-9.637-26.267
						C171.657,74.637,167.819,71.957,163.524,71.957z"/>
				</g>
			</g>
			<g>
				<g>
					<path fill="#D1D3D4" d="M96.798,129.287H70.777c-1.246,0-2.299-0.921-2.466-2.155l-0.526-3.893
						c-0.202-1.493,0.959-2.822,2.466-2.822h26.021c1.245,0,2.299,0.921,2.466,2.155l0.526,3.893
						C99.466,127.958,98.305,129.287,96.798,129.287z"/>
				</g>
			</g>
			<g>
				<g>
					<path fill="#D1D3D4" d="M159.202,129.287h26.021c1.246,0,2.299-0.921,2.466-2.155l0.526-3.893
						c0.202-1.493-0.959-2.822-2.466-2.822h-26.021c-1.245,0-2.299,0.921-2.466,2.155l-0.526,3.893
						C156.534,127.958,157.695,129.287,159.202,129.287z"/>
				</g>
			</g>
			<g>
				<g>
					<path fill="#E6E7E8" d="M175.313,104.934H80.687l7.948-23.4c0.848-2.495,2.807-4.114,4.978-4.114h68.773
						c2.171,0,4.13,1.619,4.978,4.114L175.313,104.934z"/>
				</g>
			</g>
			<g>
				<g>
					<path fill="#D1D3D4" d="M173.523,104.934H82.477c1.712-2.499,4.092-4.068,6.752-4.068h77.542
						C169.432,100.866,171.811,102.436,173.523,104.934z"/>
				</g>
			</g>
			<g>
				<g>
					<path fill="#A54AF4" d="M150.315,154.55h-44.63c-2.216,0-3.627-2.368-2.573-4.317l3.095-5.723
						c0.511-0.945,1.499-1.534,2.573-1.534h38.44c1.074,0,2.062,0.589,2.573,1.534l3.095,5.723
						C153.942,152.182,152.531,154.55,150.315,154.55z"/>
				</g>
			</g>
			<g>
				<g>
					<g>
						<path fill="#FFA91A" d="M89.082,147.655H73.364c-1.292,0-2.339-1.047-2.339-2.339l0,0c0-1.292,1.047-2.339,2.339-2.339h15.718
							c1.292,0,2.339,1.047,2.339,2.339l0,0C91.421,146.608,90.374,147.655,89.082,147.655z"/>
					</g>
				</g>
				<g>
					<g>
						<path fill="#FFA91A" d="M182.636,147.655h-15.718c-1.292,0-2.339-1.047-2.339-2.339l0,0c0-1.292,1.047-2.339,2.339-2.339
							h15.718c1.292,0,2.339,1.047,2.339,2.339l0,0C184.976,146.608,183.928,147.655,182.636,147.655z"/>
					</g>
				</g>
			</g>
		</g>
		<g>
			<path fill="#FFA91A" d="M150.898,48.002c-1.517,3.299-4.18,5.963-7.479,7.479c-1.188,0.546-1.188,2.218,0,2.764
				c3.299,1.517,5.963,4.18,7.479,7.479c0.546,1.188,2.218,1.188,2.764,0c1.517-3.299,4.18-5.963,7.479-7.479
				c1.188-0.546,1.188-2.218,0-2.764c-3.299-1.517-5.963-4.18-7.479-7.479C153.116,46.814,151.444,46.814,150.898,48.002z"/>
		</g>
		<g>
			<path fill="#FFA91A" d="M126.618,66.234c-1.517,3.299-4.18,5.963-7.479,7.479c-1.188,0.546-1.188,2.218,0,2.764
				c3.299,1.517,5.963,4.18,7.479,7.479c0.546,1.188,2.218,1.188,2.764,0c1.517-3.299,4.18-5.963,7.479-7.479
				c1.188-0.546,1.188-2.218,0-2.764c-3.299-1.517-5.963-4.18-7.479-7.479C128.836,65.046,127.164,65.046,126.618,66.234z"/>
		</g>
		<g>
			<path fill="#FFA91A" d="M168.516,73.068c-1.517,3.299-4.18,5.963-7.479,7.479c-1.188,0.546-1.188,2.218,0,2.764
				c3.299,1.517,5.963,4.18,7.479,7.479c0.546,1.188,2.218,1.188,2.764,0c1.517-3.299,4.18-5.963,7.479-7.479
				c1.188-0.546,1.188-2.218,0-2.764c-3.299-1.517-5.963-4.18-7.479-7.479C170.734,71.88,169.062,71.88,168.516,73.068z"/>
		</g>
	</g>
</g>
</svg>
