<?xml version="1.0" encoding="utf-8"?>
<!-- Generator: Adobe Illustrator 24.0.0, SVG Export Plug-In . SVG Version: 6.00 Build 0)  -->
<svg version="1.1" id="Layer_1" xmlns="http://www.w3.org/2000/svg" xmlns:xlink="http://www.w3.org/1999/xlink" x="0px" y="0px"
	 viewBox="0 0 256 256" enable-background="new 0 0 256 256" xml:space="preserve">
<g>
	<g>
		<g>
			<g>
				<path fill="#808285" d="M195.703,240.735H60.297c-5.522,0-9.999-4.477-9.999-9.999V42.626c0-5.522,4.477-9.999,9.999-9.999
					h135.405c5.522,0,9.999,4.477,9.999,9.999v188.109C205.702,236.258,201.225,240.735,195.703,240.735z"/>
			</g>
			<g>
				<path fill="#58595B" d="M199.818,33.51c0.568,1.255,0.884,2.649,0.884,4.116v188.109c0,5.522-4.477,9.999-9.999,9.999H55.297
					c-1.467,0-2.86-0.316-4.116-0.884c1.569,3.469,5.06,5.884,9.116,5.884h135.405c5.522,0,9.999-4.477,9.999-9.999V42.626
					C205.702,38.571,203.288,35.08,199.818,33.51z"/>
			</g>
			<g>
				<path fill="#FFFFFF" d="M189.106,226.794H66.894c-1.841,0-3.333-1.492-3.333-3.333V49.934c0-1.841,1.492-3.333,3.333-3.333
					h122.212c1.841,0,3.333,1.492,3.333,3.333v173.527C192.439,225.302,190.947,226.794,189.106,226.794z"/>
			</g>
			<g>
				<path fill="#F1F2F2" d="M189.106,46.601h-16.667v166.86c0,1.841-1.492,3.333-3.333,3.333H63.561v6.667
					c0,1.841,1.492,3.333,3.333,3.333h122.212c1.841,0,3.333-1.492,3.333-3.333V49.934
					C192.439,48.093,190.947,46.601,189.106,46.601z"/>
			</g>
			<g>
				<path fill="#939598" d="M56.3,121.27c-1.11,0-2-0.89-2-2V42.63c0-3.31,2.69-6,6-6h7.07c1.1,0,2,0.89,2,2c0,1.1-0.9,2-2,2H60.3
					c-1.1,0-2,0.9-2,2v76.64C58.3,120.38,57.4,121.27,56.3,121.27z M75.37,40.63c-1.11,0-2-0.9-2-2c0-1.11,0.89-2,2-2
					c1.1,0,2,0.89,2,2C77.37,39.73,76.47,40.63,75.37,40.63z"/>
			</g>
		</g>
		<g>
			<g>
				<path fill="#FFA91A" d="M166.473,46.252l-4.994-17.915c-0.803-2.882-3.429-4.876-6.421-4.876h-20.808
					c0,3.451-2.798,6.249-6.249,6.249c-3.451,0-6.249-2.798-6.249-6.249h-20.808c-2.992,0-5.618,1.994-6.421,4.876l-4.994,17.915
					c-1.184,4.249,2.011,8.456,6.422,8.456h64.102C164.463,54.708,167.657,50.501,166.473,46.252z"/>
			</g>
			<g>
				<path fill="#F79219" d="M166.473,46.252l-4.994-17.915c-0.803-2.882-3.429-4.876-6.421-4.876h-2.151l3.566,12.791
					c1.185,4.249-2.01,8.456-6.421,8.456H89.958l-0.43,1.544c-1.184,4.249,2.011,8.456,6.422,8.456h64.102
					C164.463,54.708,167.657,50.501,166.473,46.252z"/>
			</g>
			<g>
				<g>
					<path fill="#EF7816" d="M166.473,46.252l-4.994-17.915c-0.665-2.387-2.58-4.164-4.918-4.705l4.912,17.62
						c1.185,4.249-2.01,8.456-6.421,8.456H90.949c-0.519,0-1.02-0.059-1.5-0.168c0.671,2.894,3.257,5.168,6.5,5.168h64.102
						C164.463,54.708,167.657,50.501,166.473,46.252z"/>
				</g>
			</g>
			<g>
				<path fill="#FFA91A" d="M128,10.546c-7.133,0-12.915,5.782-12.915,12.916c0,7.133,5.782,12.915,12.915,12.915
					c7.133,0,12.916-5.782,12.916-12.915C140.916,16.328,135.133,10.546,128,10.546z M128,29.711c-3.451,0-6.249-2.798-6.249-6.249
					s2.798-6.249,6.249-6.249c3.452,0,6.249,2.798,6.249,6.249S131.452,29.711,128,29.711z"/>
			</g>
			<g>
				<g>
					<path fill="#F79219" d="M136.078,13.383c1.775,2.212,2.838,5.021,2.838,8.078c0,7.133-5.782,12.915-12.916,12.915
						c-3.057,0-5.866-1.062-8.078-2.837c2.367,2.949,6.002,4.837,10.078,4.837c7.133,0,12.916-5.782,12.916-12.915
						C140.916,19.385,139.027,15.75,136.078,13.383z"/>
				</g>
			</g>
		</g>
	</g>
	<g>
		<g>
			<path fill="#D1D3D4" d="M143.716,195.164h-31.433c-2.507,0-4.54-2.032-4.54-4.54v0c0-2.507,2.032-4.54,4.54-4.54h31.433
				c2.507,0,4.54,2.032,4.54,4.54v0C148.256,193.131,146.223,195.164,143.716,195.164z"/>
		</g>
	</g>
	<g>
		<path fill="#D1D3D4" d="M168.339,210.897H87.661c-2.507,0-4.54-2.032-4.54-4.54l0,0c0-2.507,2.032-4.54,4.54-4.54h80.679
			c2.507,0,4.54,2.032,4.54,4.54l0,0C172.879,208.864,170.846,210.897,168.339,210.897z"/>
	</g>
	<g>
		<g>
			<g>
				<g>
					<g>
						<g>
							<g>
								<path fill="#478CF7" d="M162.787,120.583l0.003,0.008c0.173-0.464,0.556-0.837,1.062-0.974l9.151-2.469
									c0.93-0.251,1.866,0.383,1.977,1.34l0.618,5.301c0.09,0.776-0.401,1.502-1.156,1.705l-11.41,3.071
									c-0.87,0.234-1.784-0.174-2.19-0.978l0,0c-0.238-0.471-0.269-1.021-0.086-1.516L162.787,120.583z"/>
							</g>
						</g>
					</g>
					<g>
						<g>
							<g>
								<path fill="#478CF7" d="M93.213,120.583l-0.003,0.008c-0.173-0.464-0.556-0.837-1.062-0.974l-9.151-2.469
									c-0.93-0.251-1.866,0.383-1.977,1.34l-0.618,5.301c-0.09,0.776,0.401,1.502,1.156,1.705l11.41,3.071
									c0.87,0.234,1.784-0.174,2.19-0.978l0,0c0.238-0.471,0.269-1.021,0.086-1.516L93.213,120.583z"/>
							</g>
						</g>
					</g>
				</g>
				<g>
					<g>
						<g>
							<path fill="#58595B" d="M99.437,174.622h-12.06c-2.351,0-4.256-1.906-4.256-4.256v-20.414c0-2.351,1.906-4.256,4.256-4.256
								h12.06c2.351,0,4.256,1.906,4.256,4.256v20.414C103.694,172.716,101.788,174.622,99.437,174.622z"/>
						</g>
					</g>
					<g>
						<g>
							<path fill="#58595B" d="M168.623,174.622h-12.06c-2.351,0-4.256-1.906-4.256-4.256v-20.414c0-2.351,1.906-4.256,4.256-4.256
								h12.06c2.351,0,4.256,1.906,4.256,4.256v20.414C172.879,172.716,170.973,174.622,168.623,174.622z"/>
						</g>
					</g>
				</g>
				<g>
					<g>
						<path fill="#5E9CF7" d="M167.236,164.58H88.764c-1.923,0-3.551-1.419-3.813-3.325l-3.248-23.626
							c-0.755-5.489,3.511-10.382,9.052-10.382h74.489c5.541,0,9.807,4.892,9.052,10.382l-3.248,23.626
							C170.787,163.16,169.159,164.58,167.236,164.58z"/>
					</g>
				</g>
				<g>
					<path fill="#478CF7" d="M168.704,127.923c0.589,1.434,0.822,3.042,0.593,4.706l-3.248,23.626
						c-0.262,1.905-1.89,3.325-3.813,3.325H84.721l0.23,1.675c0.262,1.905,1.89,3.325,3.813,3.325h78.471
						c1.923,0,3.551-1.419,3.813-3.325l3.248-23.626C174.884,133.357,172.431,129.448,168.704,127.923z"/>
				</g>
				<g>
					<g>
						<path fill="#377DE2" d="M83.162,148.24l1.789,13.015c0.262,1.905,1.89,3.325,3.813,3.325h78.471
							c1.923,0,3.551-1.419,3.813-3.325l1.789-13.015H83.162z"/>
					</g>
				</g>
				<g>
					<g>
						<path fill="#5E9CF7" d="M151.638,105.304h-47.275c-2.858,0-5.411,1.783-6.396,4.466l-6.413,17.478h72.892l-6.413-17.478
							C157.049,107.087,154.495,105.304,151.638,105.304z"/>
					</g>
				</g>
				<g>
					<g>
						<path fill="#D1D3D4" d="M107.238,143.451H89.924c-0.829,0-1.53-0.613-1.641-1.434l-0.35-2.59
							c-0.134-0.994,0.638-1.878,1.641-1.878h17.314c0.829,0,1.53,0.613,1.641,1.434l0.35,2.59
							C109.013,142.567,108.241,143.451,107.238,143.451z"/>
					</g>
				</g>
				<g>
					<g>
						<path fill="#D1D3D4" d="M148.762,143.451h17.314c0.829,0,1.53-0.613,1.641-1.434l0.35-2.59
							c0.134-0.994-0.638-1.878-1.641-1.878h-17.314c-0.829,0-1.53,0.613-1.641,1.434l-0.35,2.59
							C146.987,142.567,147.759,143.451,148.762,143.451z"/>
					</g>
				</g>
			</g>
		</g>
		<g>
			<g>
				<g>
					<path fill="#2266D3" d="M154.54,124.147H101.46c-2.061,0-3.731-1.67-3.731-3.731v0c0-2.061,1.67-3.731,3.731-3.731h53.081
						c2.061,0,3.731,1.67,3.731,3.731v0C158.271,122.476,156.601,124.147,154.54,124.147z"/>
				</g>
				<g>
					<g>
						<path fill="#EF7816" d="M158.271,97.851c0,7.157-2.489,13.729-6.634,18.915c-2.381,2.974-5.316,5.486-8.637,7.381h-30.002
							c-3.321-1.895-6.256-4.407-8.637-7.381c-4.145-5.185-6.634-11.757-6.634-18.915c0-16.719,13.552-30.271,30.271-30.271
							C144.719,67.58,158.271,81.132,158.271,97.851z"/>
					</g>
					<g>
						<circle fill="#FFA91A" cx="128" cy="97.851" r="23.766"/>
					</g>
					<g>
						<path fill="#F79219" d="M142.119,78.732c2.92,3.948,4.647,8.832,4.647,14.119c0,13.126-10.641,23.766-23.766,23.766
							c-5.287,0-10.171-1.727-14.119-4.647c4.329,5.852,11.281,9.647,19.119,9.647c13.126,0,23.766-10.641,23.766-23.766
							C151.766,90.013,147.972,83.061,142.119,78.732z"/>
					</g>
				</g>
			</g>
			<g>
				<g>
					<path fill="#FFFFFF" d="M130.243,112.334h-4.485c-4.194,0-7.606-3.412-7.606-7.606c0-1.104,0.896-2,2-2s2,0.896,2,2
						c0,1.988,1.618,3.606,3.606,3.606h4.485c1.988,0,3.606-1.618,3.606-3.606v-2.243c0-1.988-1.618-3.606-3.606-3.606h-4.485
						c-4.194,0-7.606-3.412-7.606-7.606s3.412-7.606,7.606-7.606h4.485c4.194,0,7.606,3.412,7.606,7.606c0,1.104-0.896,2-2,2
						s-2-0.896-2-2c0-1.988-1.618-3.606-3.606-3.606h-4.485c-1.988,0-3.606,1.618-3.606,3.606s1.618,3.606,3.606,3.606h4.485
						c4.194,0,7.606,3.412,7.606,7.606v2.243C137.849,108.922,134.437,112.334,130.243,112.334z"/>
				</g>
				<g>
					<path fill="#FFFFFF" d="M128,114.577c-1.104,0-2-0.896-2-2V83.425c0-1.104,0.896-2,2-2s2,0.896,2,2v29.152
						C130,113.682,129.104,114.577,128,114.577z"/>
				</g>
			</g>
		</g>
	</g>
</g>
</svg>
