<?xml version="1.0" encoding="utf-8"?>
<!-- Generator: Adobe Illustrator 24.0.0, SVG Export Plug-In . SVG Version: 6.00 Build 0)  -->
<svg version="1.1" id="Layer_1" xmlns="http://www.w3.org/2000/svg" xmlns:xlink="http://www.w3.org/1999/xlink" x="0px" y="0px"
	 viewBox="0 0 256 256" enable-background="new 0 0 256 256" xml:space="preserve">
<g>
	<g>
		<g>
			<g>
				<circle fill="#478CF7" cx="128" cy="103.795" r="86.881"/>
			</g>
		</g>
		<g>
			<path fill="#5E9CF7" d="M47.12,105.8c-1.101,0-2-0.9-2-2.01c-0.452-34.54,22.992-67.272,55.66-78.28
				c1.019-0.36,2.189,0.21,2.539,1.23c0.37,1.04-0.18,2.18-1.22,2.54c-31.7,11.05-52.99,41-52.979,74.51
				C49.12,104.9,48.22,105.8,47.12,105.8z M109.109,27.14c-2.346-0.001-2.743-3.399-0.47-3.94
				C111.534,22.642,112.056,27.018,109.109,27.14z"/>
		</g>
		<g>
			<path fill="#377DE2" d="M156.487,21.692c23.16,15.605,38.394,42.075,38.394,72.102c0,47.983-38.898,86.881-86.881,86.881
				c-9.978,0-19.563-1.682-28.487-4.778c13.849,9.331,30.532,14.778,48.487,14.778c47.983,0,86.881-38.898,86.881-86.881
				C214.881,65.79,190.478,33.484,156.487,21.692z"/>
		</g>
		<g>
			<g>
				<path fill="#FFA91A" d="M173.609,195.485c0,4.575-6.974,7.991-8.314,12.119c-1.389,4.278,2.2,11.132-0.395,14.693
					c-2.618,3.6-10.261,2.291-13.858,4.908c-3.561,2.592-4.667,10.279-8.945,11.668c-4.128,1.34-9.522-4.185-14.1-4.185
					s-9.969,5.525-14.1,4.185c-4.278-1.389-5.384-9.076-8.945-11.668c-3.6-2.617-11.241-1.312-13.858-4.908
					c-2.592-3.561,0.994-10.415-0.395-14.693c-1.34-4.128-8.314-7.544-8.314-12.119s6.974-7.991,8.314-12.119
					c1.389-4.278-2.2-11.132,0.395-14.693c2.618-3.6,10.261-2.291,13.858-4.908c3.561-2.592,4.667-10.279,8.945-11.668
					c4.128-1.34,9.522,4.185,14.1,4.185s9.969-5.525,14.1-4.185c4.278,1.389,5.384,9.076,8.945,11.668
					c3.6,2.617,11.241,1.312,13.858,4.908c2.592,3.561-0.994,10.415,0.395,14.693C166.635,187.494,173.609,190.91,173.609,195.485z"
					/>
			</g>
			<g>
				<g>
					<path fill="#F79219" d="M165.295,207.604c1.34-4.128,8.314-7.544,8.314-12.119s-6.974-7.991-8.314-12.119
						c-1.389-4.278,2.197-11.132-0.395-14.693c-1.753-2.409-5.762-2.619-9.299-3.281c-0.4,2.803-1.031,5.74-0.306,7.974
						c1.34,4.128,8.314,7.544,8.314,12.119s-6.974,7.991-8.314,12.119c-1.389,4.278,2.2,11.132-0.395,14.693
						c-2.618,3.6-10.261,2.291-13.858,4.908c-3.561,2.592-4.667,10.279-8.945,11.668c-4.128,1.34-9.522-4.185-14.1-4.185
						c-3.633,0-7.778,3.479-11.399,4.246c2.388,3.318,3.756,8.789,7.299,9.939c4.131,1.34,9.522-4.185,14.1-4.185
						s9.972,5.525,14.1,4.185c4.278-1.389,5.384-9.076,8.945-11.668c3.597-2.617,11.24-1.308,13.858-4.908
						C167.495,218.736,163.906,211.882,165.295,207.604z"/>
				</g>
			</g>
			<g>
				<path fill="#EF7816" d="M165.3,207.604c1.34-4.128,8.314-7.544,8.314-12.119s-6.979-7.991-8.314-12.115
					c-1.389-4.278,2.2-11.132-0.395-14.693c-1.052-1.223-2.496-2.042-4.086-2.316c0.361,3.7-1.611,8.646-0.519,12.009
					c1.34,4.128,8.314,7.544,8.314,12.119s-6.974,7.991-8.314,12.119c-1.389,4.278,2.2,11.132-0.395,14.693
					c-2.618,3.6-10.261,2.291-13.858,4.908c-3.561,2.592-4.667,10.279-8.945,11.668c-4.128,1.34-9.522-4.185-14.1-4.185
					c-4.385,0-9.52,5.059-13.574,4.3c1.184,2.226,2.486,4.239,4.477,4.885c4.128,1.34,9.522-4.185,14.1-4.185
					c4.578,0,9.969,5.525,14.1,4.185c4.278-1.389,5.384-9.076,8.945-11.668c3.6-2.617,11.24-1.312,13.858-4.908
					C167.492,218.736,163.906,211.882,165.3,207.604z"/>
			</g>
			<g>
				<path fill="#F1F2F2" d="M113.861,196.122c-5.981,0-10.83-4.849-10.83-10.83c0-5.981,4.849-10.83,10.83-10.83
					c5.981,0,10.83,4.849,10.83,10.83C124.684,191.27,119.84,196.115,113.861,196.122z M113.861,179.463
					c-3.22,0-5.83,2.61-5.83,5.83c0,3.22,2.61,5.83,5.83,5.83c3.22,0,5.83-2.61,5.83-5.83c0,0,0-0.001,0-0.001
					C119.687,182.073,117.079,179.466,113.861,179.463z"/>
			</g>
			<g>
				<path fill="#F1F2F2" d="M142.138,216.508c-5.981,0-10.83-4.849-10.83-10.83s4.849-10.83,10.83-10.83s10.83,4.849,10.83,10.83
					C152.961,211.656,148.117,216.501,142.138,216.508z M142.138,199.849c-3.22,0-5.83,2.61-5.83,5.83s2.61,5.83,5.83,5.83
					s5.83-2.61,5.83-5.83c0,0,0-0.001,0-0.001C147.964,202.459,145.356,199.852,142.138,199.849z"/>
			</g>
			<g>
				<path fill="#F1F2F2" d="M109.7,216.288c-1.381,0-2.5-1.119-2.5-2.5c0-0.663,0.263-1.299,0.732-1.768l36.607-36.606
					c0.993-0.959,2.576-0.932,3.535,0.061c0.936,0.969,0.936,2.505,0,3.474l-36.607,36.607
					C110.999,216.025,110.363,216.288,109.7,216.288z"/>
			</g>
		</g>
	</g>
	<g>
		<g>
			<g>
				<g>
					<g>
						<g>
							<path fill="#EF7816" d="M165.364,92.016l0.003,0.009c0.186-0.498,0.597-0.899,1.14-1.046l9.829-2.652
								c0.999-0.269,2.004,0.412,2.124,1.439l0.664,5.694c0.097,0.834-0.431,1.613-1.241,1.831l-12.255,3.298
								c-0.934,0.251-1.916-0.187-2.352-1.051h0c-0.256-0.506-0.289-1.096-0.092-1.628L165.364,92.016z"/>
						</g>
					</g>
				</g>
				<g>
					<g>
						<g>
							<path fill="#EF7816" d="M90.636,92.016l-0.003,0.009c-0.186-0.498-0.597-0.899-1.14-1.046l-9.829-2.652
								c-0.999-0.269-2.004,0.412-2.124,1.439l-0.664,5.694c-0.097,0.834,0.431,1.613,1.241,1.831l12.255,3.298
								c0.934,0.251,1.916-0.187,2.352-1.051l0,0c0.256-0.506,0.289-1.096,0.092-1.628L90.636,92.016z"/>
						</g>
					</g>
				</g>
			</g>
			<g>
				<g>
					<g>
						<path fill="#414042" d="M97.322,150.058H84.368c-2.525,0-4.572-2.047-4.572-4.572V123.56c0-2.525,2.047-4.572,4.572-4.572
							h12.953c2.525,0,4.572,2.047,4.572,4.572v21.926C101.893,148.011,99.846,150.058,97.322,150.058z"/>
					</g>
				</g>
				<g>
					<g>
						<path fill="#414042" d="M171.632,150.058h-12.953c-2.525,0-4.572-2.047-4.572-4.572V123.56c0-2.525,2.047-4.572,4.572-4.572
							h12.953c2.525,0,4.572,2.047,4.572,4.572v21.926C176.204,148.011,174.157,150.058,171.632,150.058z"/>
					</g>
				</g>
			</g>
			<g>
				<g>
					<path fill="#FFA91A" d="M170.142,139.272H85.858c-2.066,0-3.814-1.525-4.096-3.571l-3.489-25.376
						c-0.811-5.896,3.771-11.151,9.723-11.151h80.008c5.952,0,10.533,5.255,9.723,11.151l-3.489,25.376
						C173.956,137.747,172.208,139.272,170.142,139.272z"/>
				</g>
			</g>
			<g>
				<path fill="#F79219" d="M171.978,99.889c0.714,1.605,1.008,3.426,0.748,5.314l-3.489,25.376
					c-0.281,2.046-2.03,3.571-4.095,3.571H81.566l0.197,1.429c0.281,2.046,2.03,3.571,4.095,3.571h84.285
					c2.066,0,3.814-1.525,4.095-3.571l3.489-25.376C178.344,105.715,175.836,101.599,171.978,99.889z"/>
			</g>
			<g>
				<g>
					<path fill="#EF7816" d="M79.84,121.722l1.922,13.979c0.281,2.046,2.03,3.571,4.096,3.571h84.284
						c2.066,0,3.814-1.525,4.096-3.571l1.922-13.979H79.84z"/>
				</g>
			</g>
			<g>
				<g>
					<path fill="#FFA91A" d="M153.389,75.604h-50.778c-3.069,0-5.812,1.915-6.869,4.797l-6.888,18.772h78.292l-6.888-18.772
						C159.201,77.52,156.458,75.604,153.389,75.604z"/>
				</g>
			</g>
			<g>
				<g>
					<path fill="#F1F2F2" d="M105.7,116.577H87.103c-0.89,0-1.643-0.658-1.762-1.54l-0.376-2.782
						c-0.144-1.067,0.686-2.017,1.762-2.017h18.597c0.89,0,1.643,0.658,1.762,1.54l0.376,2.782
						C107.607,115.628,106.777,116.577,105.7,116.577z"/>
				</g>
			</g>
			<g>
				<g>
					<path fill="#F1F2F2" d="M150.3,116.577h18.597c0.89,0,1.643-0.658,1.762-1.54l0.376-2.782c0.144-1.067-0.686-2.017-1.762-2.017
						h-18.597c-0.89,0-1.643,0.658-1.762,1.54l-0.376,2.782C148.393,115.628,149.223,116.577,150.3,116.577z"/>
				</g>
			</g>
			<g>
				<g>
					<path fill="#E6E7E8" d="M160.038,99.173H95.962l5.382-15.846c0.574-1.69,1.901-2.786,3.371-2.786h46.57
						c1.47,0,2.797,1.097,3.371,2.786L160.038,99.173z"/>
				</g>
			</g>
		</g>
	</g>
	<g>
		<g>
			<g>
				<circle fill="#58595B" cx="128" cy="61.22" r="33.244"/>
			</g>
		</g>
		<g>
			<path fill="#414042" d="M148.874,35.346c4.609,5.706,7.369,12.968,7.369,20.874c0,18.36-14.884,33.244-33.244,33.244
				c-7.906,0-15.168-2.76-20.874-7.369c6.094,7.544,15.421,12.369,25.874,12.369c18.36,0,33.244-14.884,33.244-33.244
				C161.244,50.767,156.419,41.44,148.874,35.346z"/>
		</g>
		<g>
			<g>
				<path fill="#F1F2F2" d="M109.366,76.22c-1.104,0-2-0.896-2-2V52.304l-1.729,1.729c-0.781,0.781-2.047,0.781-2.828,0
					c-0.781-0.781-0.781-2.047,0-2.828l5.144-5.143c0.572-0.573,1.432-0.742,2.18-0.434c0.747,0.31,1.234,1.039,1.234,1.848V74.22
					C111.366,75.325,110.471,76.22,109.366,76.22z"/>
			</g>
			<g>
				<g>
					<path fill="#F1F2F2" d="M127.09,76.22h-4.114c-3.939,0-7.144-3.205-7.144-7.143c0-1.104,0.896-2,2-2s2,0.896,2,2
						c0,1.733,1.41,3.143,3.144,3.143h4.114c1.732,0,3.143-1.41,3.143-3.143v-6.172c0-1.733-1.41-3.144-3.143-3.144h-4.114
						c-3.939,0-7.144-3.205-7.144-7.143s3.204-7.143,7.144-7.143h4.114c3.938,0,7.143,3.205,7.143,7.143c0,1.104-0.896,2-2,2
						s-2-0.896-2-2c0-1.733-1.41-3.143-3.143-3.143h-4.114c-1.733,0-3.144,1.41-3.144,3.143s1.41,3.143,3.144,3.143h4.114
						c3.938,0,7.143,3.205,7.143,7.144v6.172C134.232,73.016,131.028,76.22,127.09,76.22z"/>
				</g>
				<g>
					<g>
						<path fill="#F1F2F2" d="M151.777,49.476h-14.401c-1.104,0-2-0.896-2-2s0.896-2,2-2h14.401c1.104,0,2,0.896,2,2
							S152.882,49.476,151.777,49.476z"/>
					</g>
					<g>
						<path fill="#F1F2F2" d="M144.576,76.22c-1.104,0-2-0.896-2-2V47.476c0-1.104,0.896-2,2-2s2,0.896,2,2V74.22
							C146.576,75.325,145.681,76.22,144.576,76.22z"/>
					</g>
				</g>
			</g>
		</g>
	</g>
</g>
</svg>
