<?xml version="1.0" encoding="utf-8"?>
<!-- Generator: Adobe Illustrator 24.0.0, SVG Export Plug-In . SVG Version: 6.00 Build 0)  -->
<svg version="1.1" id="Layer_1" xmlns="http://www.w3.org/2000/svg" xmlns:xlink="http://www.w3.org/1999/xlink" x="0px" y="0px"
	 viewBox="0 0 256 256" enable-background="new 0 0 256 256" xml:space="preserve">
<g>
	<g>
		<g>
			<g>
				<circle fill="#E63950" cx="128" cy="103.795" r="86.881"/>
			</g>
		</g>
		<g>
			<path fill="#E8566F" d="M47.12,105.8c-1.101,0-2-0.9-2-2c-0.452-34.552,22.986-67.28,55.66-78.29
				c1.019-0.36,2.189,0.21,2.539,1.22c0.37,1.05-0.18,2.19-1.229,2.55c-31.69,11.05-52.98,41-52.97,74.52
				C49.12,104.9,48.22,105.8,47.12,105.8z M109.109,27.14c-2.39-0.005-2.735-3.494-0.388-3.957
				C111.58,22.754,111.999,27.033,109.109,27.14z"/>
		</g>
		<g>
			<path fill="#D10028" d="M156.487,21.692c23.16,15.605,38.394,42.075,38.394,72.102c0,47.983-38.898,86.881-86.881,86.881
				c-9.978,0-19.563-1.682-28.487-4.778c13.849,9.331,30.532,14.778,48.487,14.778c47.983,0,86.881-38.898,86.881-86.881
				C214.881,65.79,190.478,33.484,156.487,21.692z"/>
		</g>
		<g>
			<g>
				<path fill="#FFA91A" d="M173.609,195.485c0,4.575-6.974,7.991-8.314,12.119c-1.389,4.278,2.2,11.132-0.395,14.693
					c-2.618,3.6-10.261,2.291-13.858,4.908c-3.561,2.592-4.667,10.279-8.945,11.668c-4.128,1.34-9.522-4.185-14.1-4.185
					s-9.969,5.525-14.1,4.185c-4.278-1.389-5.384-9.076-8.945-11.668c-3.6-2.617-11.241-1.312-13.858-4.908
					c-2.592-3.561,0.994-10.415-0.395-14.693c-1.34-4.128-8.314-7.544-8.314-12.119s6.974-7.991,8.314-12.119
					c1.389-4.278-2.2-11.132,0.395-14.693c2.618-3.6,10.261-2.291,13.858-4.908c3.561-2.592,4.667-10.279,8.945-11.668
					c4.128-1.34,9.522,4.185,14.1,4.185s9.969-5.525,14.1-4.185c4.278,1.389,5.384,9.076,8.945,11.668
					c3.6,2.617,11.241,1.312,13.858,4.908c2.592,3.561-0.994,10.415,0.395,14.693C166.635,187.494,173.609,190.91,173.609,195.485z"
					/>
			</g>
			<g>
				<g>
					<path fill="#F79219" d="M165.295,207.604c1.34-4.128,8.314-7.544,8.314-12.119s-6.974-7.991-8.314-12.119
						c-1.389-4.278,2.197-11.132-0.395-14.693c-1.753-2.409-5.762-2.619-9.299-3.281c-0.4,2.803-1.031,5.74-0.306,7.974
						c1.34,4.128,8.314,7.544,8.314,12.119s-6.974,7.991-8.314,12.119c-1.389,4.278,2.2,11.132-0.395,14.693
						c-2.618,3.6-10.261,2.291-13.858,4.908c-3.561,2.592-4.667,10.279-8.945,11.668c-4.128,1.34-9.522-4.185-14.1-4.185
						c-3.633,0-7.778,3.479-11.399,4.246c2.388,3.318,3.756,8.789,7.299,9.939c4.131,1.34,9.522-4.185,14.1-4.185
						s9.972,5.525,14.1,4.185c4.278-1.389,5.384-9.076,8.945-11.668c3.597-2.617,11.24-1.308,13.858-4.908
						C167.495,218.736,163.906,211.882,165.295,207.604z"/>
				</g>
			</g>
			<g>
				<path fill="#EF7816" d="M165.3,207.604c1.34-4.128,8.314-7.544,8.314-12.119s-6.979-7.991-8.314-12.115
					c-1.389-4.278,2.2-11.132-0.395-14.693c-1.052-1.223-2.496-2.042-4.086-2.316c0.361,3.7-1.611,8.646-0.519,12.009
					c1.34,4.128,8.314,7.544,8.314,12.119s-6.974,7.991-8.314,12.119c-1.389,4.278,2.2,11.132-0.395,14.693
					c-2.618,3.6-10.261,2.291-13.858,4.908c-3.561,2.592-4.667,10.279-8.945,11.668c-4.128,1.34-9.522-4.185-14.1-4.185
					c-4.385,0-9.52,5.059-13.574,4.3c1.184,2.226,2.486,4.239,4.477,4.885c4.128,1.34,9.522-4.185,14.1-4.185
					c4.578,0,9.969,5.525,14.1,4.185c4.278-1.389,5.384-9.076,8.945-11.668c3.6-2.617,11.24-1.312,13.858-4.908
					C167.492,218.736,163.906,211.882,165.3,207.604z"/>
			</g>
			<g>
				<path fill="#F1F2F2" d="M113.861,196.122c-5.981,0-10.83-4.849-10.83-10.83c0-5.981,4.849-10.83,10.83-10.83
					c5.981,0,10.83,4.849,10.83,10.83C124.684,191.27,119.84,196.115,113.861,196.122z M113.861,179.463
					c-3.22,0-5.83,2.61-5.83,5.83c0,3.22,2.61,5.83,5.83,5.83c3.22,0,5.83-2.61,5.83-5.83c0,0,0-0.001,0-0.001
					C119.687,182.073,117.079,179.466,113.861,179.463z"/>
			</g>
			<g>
				<path fill="#F1F2F2" d="M142.138,216.508c-5.981,0-10.83-4.849-10.83-10.83s4.849-10.83,10.83-10.83s10.83,4.849,10.83,10.83
					C152.961,211.656,148.117,216.501,142.138,216.508z M142.138,199.849c-3.22,0-5.83,2.61-5.83,5.83s2.61,5.83,5.83,5.83
					s5.83-2.61,5.83-5.83c0,0,0-0.001,0-0.001C147.964,202.459,145.356,199.852,142.138,199.849z"/>
			</g>
			<g>
				<path fill="#F1F2F2" d="M109.7,216.288c-1.381,0-2.5-1.119-2.5-2.5c0-0.663,0.263-1.299,0.732-1.768l36.607-36.606
					c0.993-0.959,2.576-0.932,3.535,0.061c0.936,0.969,0.936,2.505,0,3.474l-36.607,36.607
					C110.999,216.025,110.363,216.288,109.7,216.288z"/>
			</g>
		</g>
	</g>
	<g>
		<path fill="#F1F2F2" d="M162.017,70.001h-22.433V47.568c0-6.405-5.192-11.597-11.596-11.597h0
			c-6.405,0-11.597,5.192-11.597,11.597v22.433H93.958c-6.405,0-11.597,5.192-11.597,11.596l0,0c0,6.405,5.192,11.597,11.597,11.597
			h22.433v22.433c0,6.405,5.192,11.597,11.597,11.597h0c6.405,0,11.596-5.192,11.596-11.597V93.194h22.433
			c6.405,0,11.597-5.192,11.597-11.597l0,0C173.614,75.193,168.422,70.001,162.017,70.001z"/>
	</g>
	<g>
		<g>
			<path fill="#D1D3D4" d="M163.518,70.097c0.099,0.763,0.124,1.548,0.066,2.35c-0.441,6.121-5.772,10.747-11.909,10.747h-18.09
				c-2.209,0-4,1.791-4,4v18.433c0,6.405-5.192,11.597-11.597,11.597h0c-0.508,0-1.009-0.033-1.5-0.096
				c0.736,5.696,5.604,10.096,11.5,10.096h0c6.405,0,11.596-5.192,11.596-11.596V93.194h22.101c6.16,0,11.498-4.665,11.903-10.811
				C173.999,76.138,169.465,70.865,163.518,70.097z"/>
		</g>
	</g>
	<g>
		<g>
			<path fill="#F1F2F2" d="M182.988,117.059h-9.362v-9.362c0-2.673-2.167-4.84-4.84-4.84h0c-2.673,0-4.84,2.167-4.84,4.84v9.362
				h-9.362c-2.673,0-4.84,2.167-4.84,4.84l0,0c0,2.673,2.167,4.84,4.84,4.84h9.362v9.362c0,2.673,2.167,4.84,4.84,4.84h0
				c2.673,0,4.84-2.167,4.84-4.84v-9.362h9.362c2.673,0,4.84-2.167,4.84-4.84l0,0C187.828,119.226,185.661,117.059,182.988,117.059z
				"/>
		</g>
		<g>
			<path fill="#F1F2F2" d="M101.417,117.059h-9.362v-9.362c0-2.673-2.167-4.84-4.84-4.84h0c-2.673,0-4.84,2.167-4.84,4.84v9.362
				h-9.362c-2.673,0-4.84,2.167-4.84,4.84l0,0c0,2.673,2.167,4.84,4.84,4.84h9.362v9.362c0,2.673,2.167,4.84,4.84,4.84h0
				c2.673,0,4.84-2.167,4.84-4.84v-9.362h9.362c2.673,0,4.84-2.167,4.84-4.84l0,0C106.257,119.226,104.09,117.059,101.417,117.059z"
				/>
		</g>
	</g>
</g>
</svg>
