<?xml version="1.0" encoding="utf-8"?>
<!-- Generator: Adobe Illustrator 24.0.0, SVG Export Plug-In . SVG Version: 6.00 Build 0)  -->
<svg version="1.1" id="Layer_1" xmlns="http://www.w3.org/2000/svg" xmlns:xlink="http://www.w3.org/1999/xlink" x="0px" y="0px"
	 viewBox="0 0 256 256" enable-background="new 0 0 256 256" xml:space="preserve">
<g>
	<g>
		<g>
			<g>
				<g>
					<g>
						<path fill="#76A34F" d="M87.874,20.091c-39.545,0.031-72.143,32.38-72.463,71.924c-0.117,14.494,4.019,28.014,11.234,39.389
							c0.69,1.087,0.865,2.422,0.432,3.635l-7.194,20.163c-1.168,3.273,1.992,6.434,5.266,5.266l20.097-7.17
							c1.218-0.435,2.559-0.256,3.649,0.441c12.003,7.682,26.415,11.93,41.854,11.345c37.774-1.432,68.386-32.178,69.662-69.958
							C161.803,53.907,128.787,20.059,87.874,20.091z"/>
					</g>
				</g>
				<g>
					<path fill="#648940" d="M133.803,36.465c10.701,13.095,16.927,29.989,16.307,48.358c-1.276,37.78-31.888,68.526-69.662,69.958
						c-15.439,0.585-29.851-3.662-41.854-11.345c-1.09-0.697-2.431-0.876-3.649-0.441l-12.268,4.377l-2.793,7.829
						c-1.168,3.274,1.992,6.434,5.266,5.266l20.097-7.17c1.218-0.435,2.559-0.256,3.649,0.441
						c12.003,7.682,26.415,11.93,41.854,11.345c37.774-1.432,68.386-32.178,69.662-69.958
						C161.21,71.467,150.661,50.254,133.803,36.465z"/>
				</g>
				<g>
					<g>
						<path fill="#A54AF4" d="M229.354,202.177c7.216-11.376,11.352-24.898,11.234-39.394
							c-0.322-39.544-32.923-71.892-72.469-71.919c-40.912-0.028-73.924,33.82-72.53,75.037
							c1.278,37.779,31.891,68.523,69.664,69.954c15.438,0.585,29.85-3.663,41.852-11.345c1.089-0.697,2.431-0.876,3.649-0.441
							l20.097,7.17c3.274,1.168,6.434-1.992,5.266-5.266l-7.194-20.162C228.49,204.599,228.665,203.265,229.354,202.177z"/>
					</g>
				</g>
				<g>
					<path fill="#893ADD" d="M228.922,205.812c-0.433-1.213-0.258-2.547,0.432-3.635c7.216-11.376,11.352-24.898,11.234-39.394
						c-0.181-22.286-10.617-42.284-26.768-55.501c10.151,12.374,16.327,28.111,16.466,45.2c0.118,14.496-4.018,28.018-11.234,39.394
						c-0.69,1.087-0.865,2.422-0.432,3.635l7.194,20.162c1.168,3.274-1.992,6.434-5.266,5.266l-20.097-7.17
						c-1.218-0.435-2.559-0.256-3.649,0.441c-12.002,7.682-26.414,11.929-41.852,11.345c-16.254-0.616-31.173-6.669-43.008-16.365
						c12.771,15.607,31.885,25.854,53.31,26.666c15.438,0.585,29.85-3.663,41.852-11.345c1.089-0.697,2.431-0.876,3.649-0.441
						l20.097,7.17c3.273,1.168,6.434-1.992,5.266-5.266L228.922,205.812z"/>
				</g>
			</g>
		</g>
		<g>
			<path fill="#91B56B" d="M21.41,94.06c-1.088,0.031-2.026-0.933-2-2.01c0.14-17.35,6.87-33.89,18.96-46.57
				c0.74-0.77,2.06-0.81,2.83-0.07c0.8,0.76,0.83,2.03,0.07,2.83C29.89,60.18,23.55,75.75,23.41,92.08
				C23.4,93.17,22.5,94.06,21.41,94.06z M45.67,43.4c-1.825,0.064-2.726-2.427-1.28-3.54c0.81-0.68,2.14-0.55,2.81,0.26
				C48.296,41.353,47.309,43.444,45.67,43.4z"/>
		</g>
	</g>
	<g>
		<g>
			<g>
				<circle fill="#FFA91A" cx="168.069" cy="163.387" r="46.099"/>
			</g>
			<g>
				<path fill="#F79219" d="M194.436,125.582c5.222,7.473,8.295,16.559,8.295,26.367c0,25.46-20.639,46.099-46.099,46.099
					c-9.808,0-18.894-3.072-26.367-8.295c8.333,11.925,22.153,19.732,37.805,19.732c25.46,0,46.099-20.639,46.099-46.099
					C214.168,147.735,206.361,133.915,194.436,125.582z"/>
			</g>
			<g>
				<path fill="#EF7816" d="M197.676,128.06c6.721,8.01,10.773,18.334,10.773,29.608c0,25.46-20.639,46.099-46.099,46.099
					c-11.274,0-21.598-4.052-29.607-10.773c8.456,10.079,21.14,16.492,35.326,16.492c25.46,0,46.099-20.639,46.099-46.099
					C214.168,149.201,207.755,136.517,197.676,128.06z"/>
			</g>
		</g>
		<g>
			<g>
				<path fill="#FFFFFF" d="M172.264,189.557h-8.391c-6.886,0-12.489-5.603-12.489-12.489c0-1.104,0.896-2,2-2s2,0.896,2,2
					c0,4.681,3.808,8.489,8.489,8.489h8.391c4.681,0,8.489-3.808,8.489-8.489v-4.195c0-4.681-3.808-8.489-8.489-8.489h-8.391
					c-6.886,0-12.489-5.603-12.489-12.489s5.603-12.489,12.489-12.489h8.391c6.886,0,12.489,5.603,12.489,12.489
					c0,1.104-0.896,2-2,2s-2-0.896-2-2c0-4.681-3.808-8.489-8.489-8.489h-8.391c-4.681,0-8.489,3.808-8.489,8.489
					s3.808,8.489,8.489,8.489h8.391c6.886,0,12.489,5.603,12.489,12.489v4.195C184.753,183.954,179.15,189.557,172.264,189.557z"/>
			</g>
			<g>
				<path fill="#FFFFFF" d="M168.069,193.752c-1.104,0-2-0.896-2-2V137.21c0-1.104,0.896-2,2-2s2,0.896,2,2v54.542
					C170.069,192.857,169.173,193.752,168.069,193.752z"/>
			</g>
		</g>
	</g>
	<g>
		<g>
			<path fill="#F1F2F2" d="M86.455,100.543L86.455,100.543c-6.801,0-12.315-5.513-12.315-12.315v-33.25
				c0-6.801,5.513-12.315,12.315-12.315h0c6.801,0,12.315,5.513,12.315,12.315v33.25C98.769,95.029,93.256,100.543,86.455,100.543z"
				/>
		</g>
		<g>
			<path fill="#F1F2F2" d="M86.455,134.678L86.455,134.678c-6.801,0-12.315-5.513-12.315-12.315v0
				c0-6.801,5.513-12.315,12.315-12.315h0c6.801,0,12.315,5.513,12.315,12.315v0C98.769,129.165,93.256,134.678,86.455,134.678z"/>
		</g>
	</g>
</g>
</svg>
