<?xml version="1.0" encoding="utf-8"?>
<!-- Generator: Adobe Illustrator 24.0.0, SVG Export Plug-In . SVG Version: 6.00 Build 0)  -->
<svg version="1.1" id="Layer_1" xmlns="http://www.w3.org/2000/svg" xmlns:xlink="http://www.w3.org/1999/xlink" x="0px" y="0px"
	 viewBox="0 0 256 256" enable-background="new 0 0 256 256" xml:space="preserve">
<g>
	<g>
		<g>
			<g>
				<g>
					<g>
						<path fill="#2266D3" d="M210.254,89.365l0.005,0.016c0.333-0.891,1.068-1.609,2.04-1.871l17.582-4.743
							c1.787-0.482,3.585,0.736,3.799,2.575l1.187,10.186c0.174,1.491-0.771,2.885-2.221,3.276l-21.922,5.9
							c-1.671,0.45-3.428-0.335-4.208-1.879v0c-0.458-0.906-0.517-1.961-0.165-2.913L210.254,89.365z"/>
					</g>
				</g>
			</g>
			<g>
				<g>
					<g>
						<path fill="#2266D3" d="M45.746,89.365l-0.005,0.016c-0.333-0.891-1.068-1.609-2.04-1.871l-17.582-4.743
							c-1.787-0.482-3.585,0.736-3.799,2.575l-1.187,10.186c-0.174,1.491,0.771,2.885,2.22,3.276l21.922,5.9
							c1.671,0.45,3.428-0.335,4.208-1.879v0c0.458-0.906,0.517-1.961,0.165-2.913L45.746,89.365z"/>
					</g>
				</g>
			</g>
		</g>
		<g>
			<g>
				<g>
					<path fill="#58595B" d="M62.147,202.739H34.341c-5.42,0-9.813-4.394-9.813-9.814v-47.066c0-5.42,4.394-9.814,9.813-9.814
						h27.805c5.42,0,9.814,4.394,9.814,9.814v47.066C71.96,198.345,67.567,202.739,62.147,202.739z"/>
				</g>
			</g>
			<g>
				<g>
					<path fill="#58595B" d="M221.659,202.739h-27.805c-5.42,0-9.814-4.394-9.814-9.814v-47.066c0-5.42,4.394-9.814,9.814-9.814
						h27.805c5.42,0,9.813,4.394,9.813,9.814v47.066C231.472,198.345,227.078,202.739,221.659,202.739z"/>
				</g>
			</g>
		</g>
		<g>
			<g>
				<path fill="#478CF7" d="M218.461,189.928H37.539c-4.434,0-8.188-3.273-8.791-7.665l-7.489-54.472
					c-1.74-12.656,8.095-23.936,20.87-23.936h171.742c12.775,0,22.61,11.279,20.87,23.936l-7.489,54.472
					C226.649,186.655,222.895,189.928,218.461,189.928z"/>
			</g>
		</g>
		<g>
			<path fill="#377DE2" d="M226.05,107.727c2.981,4.192,4.457,9.495,3.691,15.063l-7.489,54.472
				c-0.604,4.393-4.357,7.666-8.791,7.666H32.539c-1.145,0-2.244-0.219-3.256-0.618c1.309,3.324,4.544,5.618,8.256,5.618h180.922
				c4.434,0,8.188-3.273,8.791-7.666l7.489-54.472C235.859,119.658,232.198,112.095,226.05,107.727z"/>
		</g>
		<g>
			<g>
				<path fill="#2266D3" d="M24.622,152.256l4.125,30.007c0.604,4.393,4.357,7.665,8.791,7.665h180.922
					c4.434,0,8.188-3.273,8.791-7.665l4.125-30.007H24.622z"/>
			</g>
		</g>
		<g>
			<g>
				<path fill="#478CF7" d="M182.499,53.261H73.501c-6.588,0-12.476,4.111-14.746,10.296l-14.785,40.296h168.059l-14.785-40.296
					C194.975,57.373,189.087,53.261,182.499,53.261z"/>
			</g>
		</g>
		<g>
			<g>
				<path fill="#D1D3D4" d="M80.132,141.212H40.213c-1.911,0-3.527-1.413-3.783-3.306l-0.807-5.972
					c-0.31-2.291,1.472-4.329,3.783-4.329h39.919c1.911,0,3.527,1.413,3.783,3.306l0.807,5.972
					C84.225,139.174,82.444,141.212,80.132,141.212z"/>
			</g>
		</g>
		<g>
			<g>
				<path fill="#D1D3D4" d="M175.868,141.212h39.919c1.911,0,3.527-1.413,3.783-3.306l0.807-5.972
					c0.31-2.291-1.472-4.329-3.783-4.329h-39.919c-1.911,0-3.527,1.413-3.783,3.306l-0.807,5.972
					C171.775,139.174,173.556,141.212,175.868,141.212z"/>
			</g>
		</g>
		<g>
			<g>
				<path fill="#F1F2F2" d="M200.583,103.853H55.417L67.61,67.955c1.301-3.828,4.307-6.312,7.638-6.312h105.506
					c3.331,0,6.336,2.485,7.637,6.312L200.583,103.853z"/>
			</g>
		</g>
		<g>
			<path fill="#E6E7E8" d="M188.39,67.955c-1.302-3.828-4.307-6.312-7.637-6.312h-1.11l10.94,32.21H58.813l-3.397,10h145.167
				L188.39,67.955z"/>
		</g>
		<g>
			<path fill="#D1D3D4" d="M188.39,67.955c-0.995-2.925-2.984-5.065-5.353-5.913c0.129,0.295,0.247,0.599,0.353,0.913l12.193,35.898
				H57.115l-1.698,5h145.167L188.39,67.955z"/>
		</g>
		<g>
			<g>
				<g>
					<path fill="#478CF7" d="M68.295,169.392H44.181c-1.982,0-3.589-1.607-3.589-3.589l0,0c0-1.982,1.607-3.589,3.589-3.589h24.114
						c1.982,0,3.589,1.607,3.589,3.589l0,0C71.884,167.785,70.277,169.392,68.295,169.392z"/>
				</g>
			</g>
			<g>
				<g>
					<path fill="#478CF7" d="M211.819,169.392h-24.114c-1.982,0-3.589-1.607-3.589-3.589l0,0c0-1.982,1.607-3.589,3.589-3.589
						h24.114c1.982,0,3.589,1.607,3.589,3.589l0,0C215.408,167.785,213.801,169.392,211.819,169.392z"/>
				</g>
			</g>
		</g>
	</g>
	<g>
		<g>
			<g>
				<circle fill="#E63950" cx="128" cy="184.927" r="39.807"/>
			</g>
		</g>
		<g>
			<path fill="#D10028" d="M153.536,154.391c5.786,6.912,9.27,15.817,9.27,25.537c0,21.985-17.822,39.807-39.807,39.807
				c-9.719,0-18.625-3.484-25.537-9.27c7.302,8.723,18.271,14.27,30.537,14.27c21.985,0,39.807-17.822,39.807-39.807
				C167.807,172.662,162.259,161.692,153.536,154.391z"/>
		</g>
		<g>
			<path fill="#FFA91A" d="M133.255,178.688l9.936-13.644c0.773-1.061,0.015-2.551-1.298-2.551H129.48
				c-0.513,0-0.996,0.245-1.298,0.66l-16.685,22.911c-0.773,1.061-0.015,2.551,1.298,2.551h8.651c1.313,0,2.071,1.49,1.298,2.551
				l-9.936,13.644c-0.773,1.061-0.015,2.551,1.298,2.551h12.413c0.513,0,0.996-0.245,1.298-0.66l16.685-22.911
				c0.773-1.061,0.015-2.551-1.298-2.551h-8.651C133.241,181.239,132.483,179.749,133.255,178.688z"/>
		</g>
	</g>
	<g>
		<g>
			<g>
				<circle fill="#FFA91A" cx="127.406" cy="56.745" r="39.807"/>
			</g>
		</g>
	</g>
	<g>
		<path fill="#F79219" d="M152.942,26.208c5.786,6.912,9.27,15.817,9.27,25.537c0,21.985-17.822,39.807-39.807,39.807
			c-9.719,0-18.625-3.483-25.537-9.27c7.302,8.723,18.271,14.27,30.537,14.27c21.985,0,39.807-17.822,39.807-39.807
			C167.212,44.48,161.665,33.511,152.942,26.208z"/>
	</g>
	<g>
		<g>
			<path fill="#EBE7F2" d="M133.605,51.036H122.39c-1.381,0-2.5-1.119-2.5-2.5s1.119-2.5,2.5-2.5h11.216c1.381,0,2.5,1.119,2.5,2.5
				S134.986,51.036,133.605,51.036z"/>
		</g>
		<g>
			<path fill="#EBE7F2" d="M140.101,56.832h-24.205c-1.381,0-2.5-1.119-2.5-2.5s1.119-2.5,2.5-2.5h24.205c1.381,0,2.5,1.119,2.5,2.5
				S141.481,56.832,140.101,56.832z"/>
		</g>
		<g>
			<path fill="#E6E7E8" d="M119.244,33.086l-9.94,9.94c-0.284,0.284-0.403,0.695-0.315,1.087l8.234,36.521
				c0.121,0.535,0.596,0.915,1.144,0.915h19.261c0.548,0,1.023-0.38,1.144-0.915l8.234-36.521c0.088-0.392-0.03-0.803-0.315-1.087
				l-9.94-9.94L119.244,33.086z"/>
		</g>
		<g>
			<g>
				<path fill="#939598" d="M117.865,34.465l-5.14-5.14c-0.458-0.458-1.2-0.458-1.658,0l-5.271,5.271
					c-0.458,0.458-0.458,1.2,0,1.658l5.14,5.14L117.865,34.465z"/>
			</g>
		</g>
		<g>
			<g>
				<path fill="#939598" d="M138.123,34.465l5.14-5.14c0.458-0.458,1.2-0.458,1.658,0l5.271,5.271c0.458,0.458,0.458,1.2,0,1.658
					l-5.14,5.14L138.123,34.465z"/>
			</g>
		</g>
		<g>
			<g>
				<polygon fill="#D1D3D4" points="141.706,48.536 136.838,68.719 119.158,68.719 114.289,48.536 				"/>
			</g>
		</g>
		<g>
			<circle fill="#808285" cx="127.998" cy="66.753" r="9.052"/>
		</g>
		<g>
			<circle fill="#FFA91A" cx="127.998" cy="66.753" r="4.345"/>
		</g>
		<g>
			<g>
				<circle fill="#939598" cx="118.281" cy="47.546" r="4.109"/>
			</g>
			<g>
				<circle fill="#939598" cx="137.715" cy="47.546" r="4.109"/>
			</g>
		</g>
		<g>
			<path fill="#939598" d="M134.963,87.585h-13.929c-0.648,0-1.172-0.525-1.172-1.172v-4.864h16.274v4.864
				C136.135,87.06,135.61,87.585,134.963,87.585z"/>
		</g>
		<g>
			<g>
				<g>
					<g>
						<path fill="#939598" d="M110.102,49.047L110.102,49.047l-9.127,2.86c-1.754,0.567-2.784,2.353-2.397,4.155l3.484,16.197
							c0.352,1.636,1.823,2.823,3.496,2.823h10.414L110.102,49.047z"/>
					</g>
				</g>
			</g>
			<g>
				<g>
					<path fill="#808285" d="M102.811,60.328l9.266-2.526l-0.353-1.566l-9.353,2.55c-0.436,0.119-0.691,0.56-0.569,0.986
						c0.101,0.354,0.431,0.586,0.789,0.586C102.663,60.358,102.737,60.348,102.811,60.328z"/>
				</g>
				<g>
					<path fill="#808285" d="M113.674,64.89l-9.322,2.541c-0.436,0.119-0.691,0.561-0.569,0.987
						c0.101,0.354,0.431,0.586,0.789,0.586c0.073,0,0.147-0.01,0.221-0.03l9.235-2.517L113.674,64.89z"/>
				</g>
				<g>
					<path fill="#808285" d="M103.802,64.651l9.25-2.521l-0.353-1.566l-9.338,2.545c-0.436,0.119-0.691,0.561-0.569,0.987
						c0.101,0.354,0.431,0.586,0.789,0.586C103.654,64.68,103.728,64.671,103.802,64.651z"/>
				</g>
			</g>
		</g>
		<g>
			<g>
				<g>
					<g>
						<path fill="#939598" d="M145.892,49.047L145.892,49.047l9.127,2.86c1.754,0.567,2.784,2.353,2.397,4.155l-3.484,16.197
							c-0.352,1.636-1.823,2.823-3.496,2.823h-10.414L145.892,49.047z"/>
					</g>
				</g>
			</g>
			<g>
				<g>
					<path fill="#808285" d="M153.183,60.328l-9.266-2.526l0.353-1.566l9.353,2.55c0.436,0.119,0.691,0.56,0.569,0.986
						c-0.101,0.354-0.431,0.586-0.789,0.586C153.331,60.358,153.257,60.348,153.183,60.328z"/>
				</g>
				<g>
					<path fill="#808285" d="M142.32,64.89l9.322,2.541c0.436,0.119,0.691,0.561,0.569,0.987c-0.101,0.354-0.431,0.586-0.789,0.586
						c-0.073,0-0.147-0.01-0.221-0.03l-9.235-2.517L142.32,64.89z"/>
				</g>
				<g>
					<path fill="#808285" d="M152.192,64.651l-9.25-2.521l0.353-1.566l9.338,2.545c0.436,0.119,0.691,0.561,0.569,0.987
						c-0.101,0.354-0.431,0.586-0.789,0.586C152.34,64.68,152.266,64.671,152.192,64.651z"/>
				</g>
			</g>
		</g>
		<g>
			<path fill="#F1F2F2" d="M136.752,33.086h-17.507l1.611,4.449c0.168,0.464,0.609,0.773,1.102,0.773h12.08
				c0.494,0,0.934-0.309,1.102-0.773L136.752,33.086z"/>
		</g>
		<g>
			<path fill="#939598" d="M133.839,29.009l-1.778-0.458l0.933-1.581c0.135-0.229,0.098-0.52-0.09-0.708l-0.934-0.934
				c-0.188-0.188-0.479-0.225-0.708-0.09l-1.581,0.933l-0.458-1.778c-0.067-0.257-0.299-0.437-0.564-0.437h-1.321
				c-0.266,0-0.498,0.18-0.564,0.437l-0.458,1.778l-1.581-0.933c-0.229-0.135-0.52-0.098-0.708,0.09l-0.934,0.934
				c-0.188,0.188-0.225,0.479-0.09,0.708l0.933,1.581l-1.778,0.458c-0.257,0.067-0.437,0.298-0.437,0.564v1.321
				c0,0.266,0.18,0.498,0.437,0.564l1.778,0.458l-0.933,1.581c-0.135,0.229-0.098,0.52,0.09,0.708l0.934,0.934
				c0.188,0.188,0.479,0.225,0.708,0.09l1.581-0.933l0.458,1.778c0.067,0.257,0.299,0.437,0.564,0.437h1.321
				c0.266,0,0.498-0.18,0.564-0.437l0.458-1.778l1.581,0.933c0.229,0.135,0.52,0.098,0.708-0.09l0.934-0.934
				c0.188-0.188,0.225-0.479,0.09-0.708l-0.933-1.581l1.778-0.458c0.257-0.066,0.437-0.298,0.437-0.564v-1.321
				C134.275,29.307,134.096,29.076,133.839,29.009z M127.998,32.169c-1.069,0-1.936-0.867-1.936-1.936s0.867-1.936,1.936-1.936
				s1.936,0.867,1.936,1.936S129.067,32.169,127.998,32.169z"/>
		</g>
	</g>
	<g>
		<g>
			<path fill="#FFA91A" d="M127.998,132.409c-2.209,0-4-1.791-4-4V112.55c0-2.209,1.791-4,4-4s4,1.791,4,4v15.859
				C131.998,130.618,130.207,132.409,127.998,132.409z"/>
		</g>
		<g>
			<path fill="#FFA91A" d="M138.088,116.641c-1.023,0-2.048-0.391-2.828-1.172l-7.262-7.262l-7.263,7.262
				c-1.561,1.563-4.096,1.563-5.656,0c-1.563-1.562-1.563-4.095,0-5.656l10.091-10.091c0.75-0.75,1.768-1.172,2.828-1.172l0,0
				c1.061,0,2.078,0.422,2.828,1.172l10.09,10.091c1.563,1.562,1.563,4.095,0,5.656C140.135,116.25,139.111,116.641,138.088,116.641
				z"/>
		</g>
		<g>
			<path fill="#FFA91A" d="M127.998,142.499c-1.023,0-2.047-0.391-2.828-1.172l-10.091-10.09c-1.563-1.562-1.563-4.095,0-5.656
				c1.561-1.563,4.094-1.563,5.656,0l7.263,7.262l7.262-7.262c1.561-1.563,4.096-1.563,5.656,0c1.563,1.562,1.563,4.095,0,5.656
				l-10.09,10.09C130.046,142.108,129.021,142.499,127.998,142.499z"/>
		</g>
	</g>
	<g>
		<path fill="#E8566F" d="M94.189,186.93c-1.1,0-2-0.9-2-2c0-10.79,4.811-20.91,13.2-27.76c2.071-1.57,4.56,1.4,2.53,3.1
			c-7.45,6.09-11.73,15.08-11.73,24.66C96.189,186.029,95.3,186.93,94.189,186.93z M113.39,156.439
			c-2.087,0.032-2.766-2.923-0.87-3.8C115.556,151.465,116.64,156.233,113.39,156.439z"/>
	</g>
</g>
</svg>
