<?xml version="1.0" encoding="utf-8"?>
<!-- Generator: Adobe Illustrator 24.0.0, SVG Export Plug-In . SVG Version: 6.00 Build 0)  -->
<svg version="1.1" id="Layer_1" xmlns="http://www.w3.org/2000/svg" xmlns:xlink="http://www.w3.org/1999/xlink" x="0px" y="0px"
	 viewBox="0 0 256 256" enable-background="new 0 0 256 256" xml:space="preserve">
<g>
	<g>
		<path fill="#E63950" d="M216.727,217.777H39.273c-6.392,0-11.573-5.182-11.573-11.573V87.258c0-6.392,5.181-11.573,11.573-11.573
			h177.454c6.392,0,11.573,5.182,11.573,11.573v118.945C228.3,212.595,223.118,217.777,216.727,217.777z"/>
	</g>
	<g>
		<path fill="#E8566F" d="M33.7,195.14c-1.101,0-2-0.899-2-2v-80c0-1.1,0.899-2,2-2c1.1,0,2,0.9,2,2v80
			C35.7,194.24,34.8,195.14,33.7,195.14z M33.7,107.14c-1.101,0-2-0.899-2-2c0-1.1,0.899-2,2-2c1.1,0,2,0.9,2,2
			C35.7,106.24,34.8,107.14,33.7,107.14z"/>
	</g>
	<g>
		<path fill="#D10028" d="M218.206,75.779c0.062,0.484,0.094,0.978,0.094,1.479v118.945c0,6.392-5.181,11.573-11.573,11.573H29.273
			c-0.501,0-0.995-0.032-1.479-0.094c0.726,5.693,5.589,10.094,11.479,10.094h177.454c6.392,0,11.573-5.182,11.573-11.573V87.258
			C228.3,81.368,223.899,76.505,218.206,75.779z"/>
	</g>
	<g>
		<path fill="#B7022D" d="M222.021,76.964c0.818,1.586,1.279,3.386,1.279,5.293v118.945c0,6.392-5.181,11.573-11.573,11.573H34.273
			c-1.908,0-3.707-0.462-5.294-1.279c1.922,3.729,5.81,6.279,10.294,6.279h177.454c6.392,0,11.573-5.182,11.573-11.573V87.258
			C228.3,82.774,225.75,78.886,222.021,76.964z"/>
	</g>
	<g>
		<path fill="#F1F2F2" d="M169.148,132.104h-22.664c-2.131,0-3.858-1.727-3.858-3.858v-22.664c0-2.131-1.727-3.858-3.858-3.858
			h-21.539c-2.131,0-3.858,1.727-3.858,3.858v22.664c0,2.131-1.727,3.858-3.858,3.858H86.852c-2.131,0-3.858,1.727-3.858,3.858
			V157.5c0,2.13,1.727,3.858,3.858,3.858h22.664c2.131,0,3.858,1.727,3.858,3.858v22.664c0,2.131,1.727,3.858,3.858,3.858h21.539
			c2.131,0,3.858-1.727,3.858-3.858v-22.664c0-2.131,1.727-3.858,3.858-3.858h22.664c2.131,0,3.858-1.727,3.858-3.858v-21.539
			C173.006,133.831,171.279,132.104,169.148,132.104z"/>
	</g>
	<g>
		<g>
			<path fill="#D1D3D4" d="M169.148,132.104h-1.142V152.5c0,2.13-1.727,3.858-3.858,3.858h-22.664c-2.131,0-3.858,1.727-3.858,3.857
				v22.664c0,2.13-1.727,3.857-3.858,3.857h-20.396v1.143c0,2.13,1.727,3.857,3.858,3.857h21.539c2.131,0,3.858-1.727,3.858-3.857
				v-22.664c0-2.13,1.727-3.857,3.858-3.857h22.664c2.131,0,3.858-1.728,3.858-3.858v-21.539
				C173.006,133.831,171.279,132.104,169.148,132.104z"/>
		</g>
	</g>
	<g>
		<g>
			<g>
				<path fill="#FFA91A" d="M73.915,103.494H54.106c-2.209,0-4-1.791-4-4V75.686h27.809v23.809
					C77.915,101.704,76.124,103.494,73.915,103.494z"/>
			</g>
		</g>
		<g>
			<path fill="#F79219" d="M72.915,75.686v18.809c0,2.209-1.791,4-4,4H50.106v1c0,2.209,1.791,4,4,4h19.809c2.209,0,4-1.791,4-4
				V75.686H72.915z"/>
		</g>
		<g>
			<g>
				<path fill="#FFA91A" d="M201.894,103.494h-19.809c-2.209,0-4-1.791-4-4V75.686h27.809v23.809
					C205.894,101.704,204.103,103.494,201.894,103.494z"/>
			</g>
		</g>
		<g>
			<path fill="#F79219" d="M200.894,75.686v18.809c0,2.209-1.791,4-4,4h-18.809v1c0,2.209,1.791,4,4,4h19.809c2.209,0,4-1.791,4-4
				V75.686H200.894z"/>
		</g>
	</g>
	<g>
		<path fill="#FFA91A" d="M156.1,26.469H99.9c-9.634,0-17.471,7.838-17.471,17.471v31.744h11.648V43.94
			c0-3.211,2.613-5.824,5.824-5.824h56.2c3.211,0,5.824,2.613,5.824,5.824v31.744h11.648V43.94
			C173.571,34.307,165.734,26.469,156.1,26.469z"/>
	</g>
	<g>
		<g>
			<path fill="#F79219" d="M165.695,29.346c1.818,2.755,2.876,6.054,2.876,9.595v31.745h-6.648v5h11.648V43.94
				C173.571,37.848,170.437,32.473,165.695,29.346z"/>
		</g>
	</g>
</g>
</svg>
