<?xml version="1.0" encoding="utf-8"?>
<!-- Generator: Adobe Illustrator 24.0.0, SVG Export Plug-In . SVG Version: 6.00 Build 0)  -->
<svg version="1.1" id="Layer_1" xmlns="http://www.w3.org/2000/svg" xmlns:xlink="http://www.w3.org/1999/xlink" x="0px" y="0px"
	 viewBox="0 0 256 256" enable-background="new 0 0 256 256" xml:space="preserve">
<g>
	<g>
		<g>
			<g>
				<path fill="#808285" d="M195.703,240.735H60.297c-5.522,0-9.999-4.477-9.999-9.999V42.626c0-5.522,4.477-9.999,9.999-9.999
					h135.405c5.522,0,9.999,4.477,9.999,9.999v188.109C205.702,236.258,201.225,240.735,195.703,240.735z"/>
			</g>
			<g>
				<path fill="#58595B" d="M199.818,33.51c0.568,1.255,0.884,2.649,0.884,4.116v188.109c0,5.522-4.477,9.999-9.999,9.999H55.297
					c-1.467,0-2.86-0.316-4.116-0.884c1.569,3.469,5.06,5.884,9.116,5.884h135.405c5.522,0,9.999-4.477,9.999-9.999V42.626
					C205.702,38.571,203.288,35.08,199.818,33.51z"/>
			</g>
			<g>
				<path fill="#FFFFFF" d="M189.106,226.794H66.894c-1.841,0-3.333-1.492-3.333-3.333V49.934c0-1.841,1.492-3.333,3.333-3.333
					h122.212c1.841,0,3.333,1.492,3.333,3.333v173.527C192.439,225.302,190.947,226.794,189.106,226.794z"/>
			</g>
			<g>
				<path fill="#F1F2F2" d="M189.106,46.601h-16.667v166.86c0,1.841-1.492,3.333-3.333,3.333H63.561v6.667
					c0,1.841,1.492,3.333,3.333,3.333h122.212c1.841,0,3.333-1.492,3.333-3.333V49.934
					C192.439,48.093,190.947,46.601,189.106,46.601z"/>
			</g>
			<g>
				<path fill="#939598" d="M56.3,121.27c-1.1,0-2-0.89-2-2V42.63c0-3.31,2.69-6,6-6h7.07c1.1,0,2,0.89,2,2c0,1.1-0.9,2-2,2H60.3
					c-1.1,0-2,0.9-2,2v76.64C58.3,120.38,57.399,121.27,56.3,121.27z M75.37,40.63c-1.11,0-2-0.9-2-2c0-1.11,0.89-2,2-2
					c1.1,0,2,0.89,2,2C77.37,39.73,76.47,40.63,75.37,40.63z"/>
			</g>
		</g>
		<g>
			<g>
				<path fill="#FFA91A" d="M166.473,46.252l-4.994-17.915c-0.803-2.882-3.429-4.876-6.421-4.876h-20.808
					c0,3.451-2.798,6.249-6.249,6.249c-3.451,0-6.249-2.798-6.249-6.249h-20.808c-2.992,0-5.618,1.994-6.421,4.876l-4.994,17.915
					c-1.184,4.249,2.011,8.456,6.422,8.456h64.102C164.463,54.708,167.657,50.501,166.473,46.252z"/>
			</g>
			<g>
				<path fill="#F79219" d="M166.473,46.252l-4.994-17.915c-0.803-2.882-3.429-4.876-6.421-4.876h-2.151l3.566,12.791
					c1.185,4.249-2.01,8.456-6.421,8.456H89.958l-0.43,1.544c-1.184,4.249,2.011,8.456,6.422,8.456h64.102
					C164.463,54.708,167.657,50.501,166.473,46.252z"/>
			</g>
			<g>
				<g>
					<path fill="#EF7816" d="M166.473,46.252l-4.994-17.915c-0.665-2.387-2.58-4.164-4.918-4.705l4.912,17.62
						c1.185,4.249-2.01,8.456-6.421,8.456H90.949c-0.519,0-1.02-0.059-1.5-0.168c0.671,2.894,3.257,5.168,6.5,5.168h64.102
						C164.463,54.708,167.657,50.501,166.473,46.252z"/>
				</g>
			</g>
			<g>
				<path fill="#FFA91A" d="M128,10.546c-7.133,0-12.915,5.782-12.915,12.916c0,7.133,5.782,12.915,12.915,12.915
					c7.133,0,12.916-5.782,12.916-12.915C140.916,16.328,135.133,10.546,128,10.546z M128,29.711c-3.451,0-6.249-2.798-6.249-6.249
					s2.798-6.249,6.249-6.249c3.452,0,6.249,2.798,6.249,6.249S131.452,29.711,128,29.711z"/>
			</g>
			<g>
				<g>
					<path fill="#F79219" d="M136.078,13.383c1.775,2.212,2.838,5.021,2.838,8.078c0,7.133-5.782,12.915-12.916,12.915
						c-3.057,0-5.866-1.062-8.078-2.837c2.367,2.949,6.002,4.837,10.078,4.837c7.133,0,12.916-5.782,12.916-12.915
						C140.916,19.385,139.027,15.75,136.078,13.383z"/>
				</g>
			</g>
		</g>
	</g>
	<g>
		<g>
			<g>
				<g>
					<g>
						<g>
							<path fill="#478CF7" d="M158.068,163.359l0.002,0.007c0.152-0.407,0.488-0.734,0.931-0.854l8.027-2.165
								c0.816-0.22,1.637,0.336,1.734,1.175l0.542,4.65c0.079,0.681-0.352,1.317-1.014,1.496l-10.008,2.694
								c-0.763,0.205-1.565-0.153-1.921-0.858l0,0c-0.209-0.414-0.236-0.895-0.075-1.33L158.068,163.359z"/>
						</g>
					</g>
				</g>
				<g>
					<g>
						<g>
							<path fill="#478CF7" d="M97.04,163.359l-0.002,0.007c-0.152-0.407-0.488-0.734-0.931-0.854l-8.027-2.165
								c-0.816-0.22-1.637,0.336-1.734,1.175l-0.542,4.65c-0.079,0.681,0.352,1.317,1.014,1.496l10.008,2.694
								c0.763,0.205,1.565-0.153,1.921-0.858l0,0c0.209-0.414,0.236-0.895,0.075-1.33L97.04,163.359z"/>
						</g>
					</g>
				</g>
			</g>
			<g>
				<g>
					<g>
						<path fill="#414042" d="M102.5,210.761H91.921c-2.062,0-3.734-1.672-3.734-3.734v-17.907c0-2.062,1.672-3.734,3.734-3.734
							H102.5c2.062,0,3.734,1.672,3.734,3.734v17.907C106.233,209.09,104.562,210.761,102.5,210.761z"/>
					</g>
				</g>
				<g>
					<g>
						<path fill="#414042" d="M163.187,210.761h-10.579c-2.062,0-3.734-1.672-3.734-3.734v-17.907c0-2.062,1.672-3.734,3.734-3.734
							h10.579c2.062,0,3.734,1.672,3.734,3.734v17.907C166.92,209.09,165.249,210.761,163.187,210.761z"/>
					</g>
				</g>
			</g>
			<g>
				<g>
					<path fill="#5E9CF7" d="M161.97,201.952H93.137c-1.687,0-3.115-1.245-3.345-2.916l-2.849-20.724
						c-0.662-4.815,3.08-9.107,7.94-9.107h65.34c4.861,0,8.602,4.291,7.94,9.107l-2.849,20.724
						C165.085,200.707,163.657,201.952,161.97,201.952z"/>
				</g>
			</g>
			<g>
				<g>
					<path fill="#377DE2" d="M88.223,187.62l1.569,11.416c0.23,1.671,1.658,2.916,3.345,2.916h68.833
						c1.687,0,3.115-1.245,3.345-2.916l1.569-11.416H88.223z"/>
				</g>
			</g>
			<g>
				<g>
					<path fill="#5E9CF7" d="M148.288,149.957H106.82c-2.507,0-4.747,1.564-5.61,3.917l-5.625,15.331h63.939l-5.625-15.331
						C153.035,151.521,150.795,149.957,148.288,149.957z"/>
				</g>
			</g>
			<g>
				<g>
					<path fill="#D1D3D4" d="M109.342,183.418H94.155c-0.727,0-1.342-0.537-1.439-1.258l-0.307-2.272
						c-0.118-0.871,0.56-1.647,1.439-1.647h15.188c0.727,0,1.342,0.538,1.439,1.258l0.307,2.272
						C110.899,182.643,110.222,183.418,109.342,183.418z"/>
				</g>
			</g>
			<g>
				<g>
					<path fill="#D1D3D4" d="M145.765,183.418h15.188c0.727,0,1.342-0.537,1.439-1.258l0.307-2.272
						c0.118-0.871-0.56-1.647-1.439-1.647h-15.188c-0.727,0-1.342,0.538-1.439,1.258l-0.307,2.272
						C144.208,182.643,144.886,183.418,145.765,183.418z"/>
				</g>
			</g>
			<g>
				<g>
					<path fill="#E6E7E8" d="M153.719,169.205h-52.33l4.395-12.941c0.469-1.38,1.553-2.275,2.753-2.275h38.033
						c1.201,0,2.284,0.896,2.753,2.275L153.719,169.205z"/>
				</g>
			</g>
		</g>
	</g>
	<g>
		<g>
			<circle fill="#FFA91A" cx="128" cy="116.482" r="47.654"/>
		</g>
		<g>
			<path fill="#F79219" d="M156.325,78.157c5.862,7.918,9.329,17.717,9.329,28.325c0,26.318-21.335,47.654-47.654,47.654
				c-10.608,0-20.407-3.467-28.325-9.329c8.681,11.726,22.615,19.329,38.325,19.329c26.318,0,47.654-21.335,47.654-47.654
				C175.654,100.772,168.051,86.838,156.325,78.157z"/>
		</g>
		<g>
			<g>
				<g>
					<g>
						<path fill="#F1F2F2" d="M151.16,104.344c0.425,0.114,0.879-0.008,1.19-0.319l5.861-5.861c0.311-0.311,0.433-0.765,0.319-1.19
							l-0.478-1.782c-0.245-0.916-1.39-1.223-2.061-0.552l-4.374,4.374c-0.311,0.311-0.765,0.433-1.19,0.319l-3.476-0.931
							c-0.425-0.114-0.757-0.446-0.871-0.871l-0.931-3.476c-0.114-0.425,0.008-0.879,0.319-1.19l4.374-4.374
							c0.671-0.671,0.364-1.816-0.552-2.061l-1.782-0.478c-0.425-0.114-0.879,0.008-1.19,0.319l-5.861,5.861
							c-0.311,0.311-0.433,0.765-0.319,1.19l1.309,4.886l-31.721,31.721l-4.886-1.309c-0.425-0.114-0.879,0.008-1.19,0.319
							l-5.861,5.861c-0.311,0.311-0.433,0.765-0.319,1.19l0.478,1.782c0.245,0.916,1.39,1.223,2.061,0.552l4.374-4.374
							c0.311-0.311,0.765-0.433,1.19-0.319l3.476,0.931c0.425,0.114,0.757,0.446,0.871,0.871l0.931,3.476
							c0.114,0.425-0.008,0.879-0.319,1.19l-4.374,4.374c-0.671,0.671-0.364,1.816,0.552,2.061l1.782,0.478
							c0.425,0.114,0.879-0.008,1.19-0.319l5.861-5.861c0.311-0.311,0.433-0.765,0.319-1.19l-1.309-4.886l31.721-31.721
							L151.16,104.344z"/>
					</g>
				</g>
				<g>
					<g>
						<g>
							<path fill="#D1D3D4" d="M152.739,102.765l-8.006-2.145c-0.425-0.114-0.757-0.446-0.871-0.871l-2.145-8.006
								c-0.114-0.425,0.008-0.879,0.319-1.19l-1.579,1.579c-0.311,0.311-0.433,0.765-0.319,1.19l2.145,8.006
								c0.114,0.425,0.446,0.757,0.871,0.871l8.006,2.145c0.425,0.114,0.879-0.008,1.19-0.319l1.579-1.579
								C153.618,102.758,153.164,102.879,152.739,102.765z"/>
						</g>
					</g>
					<g>
						<g>
							<g>
								<path fill="#D1D3D4" d="M99.226,136.493l-0.478-1.782c-0.114-0.425,0.008-0.879,0.319-1.19l-1.278,1.278
									c-0.311,0.311-0.433,0.765-0.319,1.19l0.478,1.782c0.245,0.916,1.39,1.223,2.061,0.552l1.278-1.278
									C100.616,137.716,99.471,137.409,99.226,136.493z"/>
							</g>
						</g>
						<g>
							<g>
								<path fill="#D1D3D4" d="M109.771,145.734l-1.782-0.478c-0.916-0.245-1.223-1.39-0.552-2.061l-1.278,1.278
									c-0.671,0.671-0.364,1.816,0.552,2.061l1.782,0.478c0.425,0.114,0.879-0.008,1.19-0.319l1.278-1.278
									C110.65,145.726,110.196,145.847,109.771,145.734z"/>
							</g>
						</g>
						<g>
							<g>
								<path fill="#D1D3D4" d="M111.81,138.821c0.311-0.311,0.433-0.765,0.319-1.19l-0.931-3.476
									c-0.114-0.425-0.446-0.757-0.871-0.871l-3.476-0.931c-0.425-0.114-0.879,0.008-1.19,0.319l-1.278,1.278
									c0.311-0.311,0.765-0.433,1.19-0.319l3.476,0.931c0.425,0.114,0.757,0.446,0.871,0.871l0.931,3.476
									c0.114,0.425-0.008,0.879-0.319,1.19L111.81,138.821z"/>
							</g>
						</g>
					</g>
				</g>
				<g>
					<g>
						<path fill="#E6E7E8" d="M113.874,130.607L113.874,130.607c0.817,0.817,2.143,0.817,2.96,0l25.291-25.291
							c0.817-0.817,0.817-2.143,0-2.96l0,0c-0.817-0.817-2.143-0.817-2.96,0l-25.291,25.291
							C113.057,128.465,113.057,129.79,113.874,130.607z"/>
					</g>
				</g>
				<g>
					<g>
						<path fill="#D1D3D4" d="M142.126,102.356c-0.817-0.817-2.143-0.817-2.96,0l-0.92,0.92c0.817-0.817,2.143-0.817,2.96,0
							c0.817,0.817,0.817,2.143,0,2.96l0.92-0.92C142.943,104.499,142.943,103.174,142.126,102.356z"/>
					</g>
				</g>
			</g>
			<g>
				<g>
					<g>
						<path fill="#E63950" d="M124.401,118.583l5.673-5.673c0.983-0.983,2.576-0.983,3.559,0l22.14,22.14
							c0.983,0.983,0.983,2.576,0,3.559l-5.673,5.673c-0.983,0.983-2.576,0.983-3.559,0l-22.14-22.14
							C123.418,121.16,123.418,119.566,124.401,118.583z"/>
					</g>
				</g>
				<g>
					<g>
						<path fill="#D10028" d="M145.957,143.346l8.935-8.935c0.604-0.604,1.583-0.604,2.187,0l1.984,1.984
							c0.604,0.604,0.604,1.583,0,2.187l-8.935,8.935c-0.604,0.604-1.583,0.604-2.187,0l-1.984-1.984
							C145.353,144.929,145.353,143.95,145.957,143.346z"/>
					</g>
				</g>
				<g>
					<g>
						<g>
							
								<rect x="115.152" y="90.747" transform="matrix(-0.7071 0.7071 -0.7071 -0.7071 274.0531 97.2667)" fill="#E6E7E8" width="3.461" height="29.289"/>
						</g>
					</g>
					<g>
						<g>
							
								<rect x="116.092" y="90.747" transform="matrix(-0.7071 0.7071 -0.7071 -0.7071 274.0531 97.2667)" fill="#F1F2F2" width="1.581" height="29.289"/>
						</g>
					</g>
					<g>
						<g>
							<path fill="#E6E7E8" d="M96.636,87.746l2.6-2.6c0.193-0.193,0.502-0.204,0.708-0.025l5.147,4.461l2.676,4.215l-2.481,2.481
								l-4.215-2.676l-4.461-5.147C96.432,88.248,96.443,87.939,96.636,87.746z"/>
						</g>
					</g>
					<g>
						<g>
							<polygon fill="#D1D3D4" points="101.177,93.667 105.286,96.277 107.767,93.796 105.158,89.686 							"/>
						</g>
					</g>
				</g>
				<g>
					<g>
						
							<rect x="124.652" y="113.684" transform="matrix(-0.7071 0.7071 -0.7071 -0.7071 296.99 106.7674)" fill="#D1D3D4" width="3.461" height="2.417"/>
					</g>
				</g>
			</g>
		</g>
	</g>
</g>
</svg>
