<?xml version="1.0" encoding="utf-8"?>
<!-- Generator: Adobe Illustrator 24.0.0, SVG Export Plug-In . SVG Version: 6.00 Build 0)  -->
<svg version="1.1" id="Layer_1" xmlns="http://www.w3.org/2000/svg" xmlns:xlink="http://www.w3.org/1999/xlink" x="0px" y="0px"
	 viewBox="0 0 256 256" enable-background="new 0 0 256 256" xml:space="preserve">
<g>
	<g>
		<g>
			<path fill="#F1F2F2" d="M190.498,226.556H65.502c-5.017,0-9.084-4.067-9.084-9.084V38.528c0-5.017,4.067-9.084,9.084-9.084
				h124.995c5.017,0,9.084,4.067,9.084,9.084v178.944C199.581,222.489,195.515,226.556,190.498,226.556z"/>
		</g>
		<g>
			<path fill="#E6E7E8" d="M190.498,29.444h-0.916v178.028c0,5.017-4.067,9.083-9.084,9.083H56.419v0.917
				c0,5.017,4.067,9.083,9.084,9.083h124.995c5.017,0,9.084-4.067,9.084-9.083V38.528C199.581,33.511,195.515,29.444,190.498,29.444
				z"/>
		</g>
		<g>
			<path fill="#D1D3D4" d="M193.916,30.11c0.429,1.055,0.666,2.209,0.666,3.418v178.944c0,5.017-4.067,9.083-9.084,9.083H60.502
				c-1.209,0-2.363-0.237-3.418-0.666c1.35,3.323,4.61,5.666,8.418,5.666h124.995c5.017,0,9.084-4.067,9.084-9.083V38.528
				C199.581,34.72,197.238,31.46,193.916,30.11z"/>
		</g>
		<g>
			<path fill="#FFFFFF" d="M62.42,68.58c-1.1,0-2-0.9-2-2c0-1.101,0.9-2,2-2s2,0.899,2,2C64.42,67.68,63.52,68.58,62.42,68.58z
				 M62.42,60.58c-1.1,0-2-0.9-2-2V38.529c0-2.8,2.28-5.079,5.08-5.09h63.11c1.1,0,2,0.9,2,2c0,1.11-0.899,2-2,2H65.5
				c-0.58,0-1.08,0.5-1.08,1.09V58.58C64.42,59.68,63.52,60.58,62.42,60.58z"/>
		</g>
	</g>
	<g>
		<g>
			<rect x="79.679" y="74.009" fill="#58595B" width="10" height="118.43"/>
		</g>
		<g>
			<rect x="123" y="74.009" fill="#58595B" width="10" height="118.43"/>
		</g>
		<g>
			<path fill="#58595B" d="M163.321,138.224H84.679v-10h78.643c1.654,0,3-1.346,3-3V74.009h10v51.215
				C176.321,132.392,170.489,138.224,163.321,138.224z"/>
		</g>
		<g>
			<g>
				<g>
					<circle fill="#808285" cx="84.679" cy="74.009" r="11.599"/>
				</g>
				<g>
					<path fill="#58595B" d="M89.992,63.696c0.822,1.592,1.286,3.398,1.286,5.313c0,6.406-5.193,11.599-11.599,11.599
						c-1.915,0-3.721-0.464-5.313-1.286c1.927,3.733,5.822,6.286,10.313,6.286c6.406,0,11.599-5.193,11.599-11.599
						C96.278,69.518,93.725,65.623,89.992,63.696z"/>
				</g>
				<g>
					<circle fill="#808285" cx="128" cy="74.009" r="11.599"/>
				</g>
				<g>
					<circle fill="#808285" cx="171.321" cy="74.009" r="11.599"/>
				</g>
				<g>
					<path fill="#58595B" d="M176.634,63.696c0.822,1.592,1.286,3.398,1.286,5.313c0,6.406-5.193,11.599-11.599,11.599
						c-1.915,0-3.721-0.464-5.313-1.286c1.927,3.733,5.822,6.286,10.313,6.286c6.406,0,11.599-5.193,11.599-11.599
						C182.92,69.518,180.368,65.623,176.634,63.696z"/>
				</g>
			</g>
			<g>
				<g>
					<circle fill="#808285" cx="84.679" cy="192.439" r="11.599"/>
				</g>
				<g>
					<path fill="#58595B" d="M89.992,182.126c0.822,1.592,1.286,3.398,1.286,5.313c0,6.406-5.193,11.599-11.599,11.599
						c-1.915,0-3.721-0.464-5.313-1.286c1.927,3.733,5.822,6.286,10.313,6.286c6.406,0,11.599-5.193,11.599-11.599
						C96.278,187.948,93.725,184.053,89.992,182.126z"/>
				</g>
				<g>
					<circle fill="#808285" cx="128" cy="192.439" r="11.599"/>
				</g>
				<g>
					<path fill="#58595B" d="M133.313,182.126c0.822,1.592,1.286,3.398,1.286,5.313c0,6.406-5.193,11.599-11.599,11.599
						c-1.915,0-3.721-0.464-5.313-1.286c1.927,3.733,5.822,6.286,10.313,6.286c6.406,0,11.599-5.193,11.599-11.599
						C139.599,187.948,137.046,184.053,133.313,182.126z"/>
				</g>
			</g>
		</g>
		<g>
			<circle fill="#FFA91A" cx="128" cy="74.009" r="22.047"/>
		</g>
		<g>
			<path fill="#F79219" d="M140.889,56.12c2.616,3.625,4.158,8.077,4.158,12.889c0,12.176-9.871,22.047-22.047,22.047
				c-4.812,0-9.264-1.542-12.889-4.158c4.004,5.547,10.525,9.158,17.889,9.158c12.176,0,22.047-9.871,22.047-22.047
				C150.047,66.645,146.436,60.124,140.889,56.12z"/>
		</g>
	</g>
</g>
</svg>
