<?xml version="1.0" encoding="utf-8"?>
<!-- Generator: Adobe Illustrator 24.0.0, SVG Export Plug-In . SVG Version: 6.00 Build 0)  -->
<svg version="1.1" id="Layer_1" xmlns="http://www.w3.org/2000/svg" xmlns:xlink="http://www.w3.org/1999/xlink" x="0px" y="0px"
	 viewBox="0 0 256 256" enable-background="new 0 0 256 256" xml:space="preserve">
<g>
	<g>
		<path fill="#FFA91A" d="M232.254,191.549H23.746c-5.523,0-10-4.477-10-10V67.18c0-5.523,4.477-10,10-10h208.508
			c5.523,0,10,4.477,10,10v114.369C242.254,187.072,237.777,191.549,232.254,191.549z"/>
	</g>
	<g>
		<path fill="#F79219" d="M232.254,57.18v114.37c0,5.523-4.477,10-10,10H13.746c0,5.523,4.477,10,10,10h208.508
			c5.523,0,10-4.477,10-10V67.18C242.254,61.657,237.777,57.18,232.254,57.18z"/>
	</g>
	<g>
		<path fill="#EF7816" d="M236.37,58.063c0.568,1.255,0.884,2.649,0.884,4.116v114.37c0,5.523-4.477,10-10,10H18.746
			c-1.467,0-2.861-0.316-4.116-0.884c1.569,3.469,5.061,5.884,9.116,5.884h208.508c5.523,0,10-4.477,10-10V67.18
			C242.254,63.124,239.84,59.633,236.37,58.063z"/>
	</g>
	<g>
		<path fill="#808285" d="M215.107,169.229H40.893c-2.209,0-4-1.791-4-4V83.5c0-2.209,1.791-4,4-4h174.213c2.209,0,4,1.791,4,4
			v81.728C219.107,167.438,217.316,169.229,215.107,169.229z"/>
	</g>
	<g>
		<path fill="#58595B" d="M215.107,79.5h-1v80.728c0,2.209-1.791,4-4,4H36.893v1c0,2.209,1.791,4,4,4h174.213c2.209,0,4-1.791,4-4
			V83.5C219.107,81.291,217.316,79.5,215.107,79.5z"/>
	</g>
	<g>
		<g>
			<rect x="87.658" y="79.5" fill="#58595B" width="14.15" height="89.728"/>
		</g>
		<g>
			<rect x="154.192" y="79.5" fill="#58595B" width="14.15" height="89.728"/>
		</g>
	</g>
	<g>
		<path fill="#414042" d="M74.282,148.405H50.765c-2.209,0-4-1.791-4-4v-40.082c0-2.209,1.791-4,4-4h23.518c2.209,0,4,1.791,4,4
			v40.082C78.282,146.614,76.491,148.405,74.282,148.405z M54.765,140.405h15.518v-32.082H54.765V140.405z"/>
	</g>
	<g>
		<path fill="#414042" d="M139.759,148.405h-23.518c-2.209,0-4-1.791-4-4v-40.082c0-2.209,1.791-4,4-4h23.518c2.209,0,4,1.791,4,4
			v40.082C143.759,146.614,141.968,148.405,139.759,148.405z M120.241,140.405h15.518v-32.082h-15.518V140.405z"/>
	</g>
	<g>
		<path fill="#414042" d="M201.235,79.5v22.15h-15.518V79.5h-8v26.15c0,2.209,1.791,4,4,4h23.518c2.209,0,4-1.791,4-4V79.5H201.235z
			"/>
	</g>
	<g>
		<path fill="#FFC91D" d="M19.75,168.95c-1.11,0-2-0.9-2-2V67.18c0-3.3,2.69-6,6-6h93.95c1.1,0,2,0.9,2,2s-0.9,2-2,2H23.75
			c-1.1,0-2,0.9-2,2v99.77C21.75,168.05,20.85,168.95,19.75,168.95z M125.7,65.18c-1.11,0-2-0.9-2-2s0.89-2,2-2c1.1,0,2,0.9,2,2
			S126.8,65.18,125.7,65.18z"/>
	</g>
	<g>
		<path fill="#414042" d="M181.718,148.405h7.759v15.823h8v-19.823c0-2.209-1.791-4-4-4h-11.759c-2.209,0-4,1.791-4,4
			S179.509,148.405,181.718,148.405z"/>
	</g>
</g>
</svg>
