<?xml version="1.0" encoding="utf-8"?>
<!-- Generator: Adobe Illustrator 24.0.0, SVG Export Plug-In . SVG Version: 6.00 Build 0)  -->
<svg version="1.1" id="Layer_1" xmlns="http://www.w3.org/2000/svg" xmlns:xlink="http://www.w3.org/1999/xlink" x="0px" y="0px"
	 viewBox="0 0 256 256" enable-background="new 0 0 256 256" xml:space="preserve">
<g>
	<g>
		<g>
			<g>
				<circle fill="#76A34F" cx="128" cy="103.795" r="86.881"/>
			</g>
		</g>
		<g>
			<path fill="#91B56B" d="M47.12,105.79c-1.1,0-2-0.89-2-2c-0.451-34.543,22.99-67.266,55.66-78.28c1.02-0.36,2.19,0.21,2.549,1.22
				c0.36,1.05-0.19,2.19-1.23,2.55c-31.7,11.05-52.99,41-52.98,74.51C49.12,104.9,48.22,105.79,47.12,105.79z M109.11,27.14
				c-2.347-0.001-2.744-3.398-0.47-3.94C111.537,22.64,112.053,27.029,109.11,27.14z"/>
		</g>
		<g>
			<path fill="#648940" d="M156.487,21.692c23.16,15.605,38.394,42.075,38.394,72.102c0,47.983-38.898,86.881-86.881,86.881
				c-9.978,0-19.563-1.682-28.487-4.778c13.849,9.331,30.532,14.778,48.487,14.778c47.983,0,86.881-38.898,86.881-86.881
				C214.881,65.79,190.478,33.484,156.487,21.692z"/>
		</g>
		<g>
			<g>
				<path fill="#FFA91A" d="M173.609,195.485c0,4.575-6.974,7.991-8.314,12.119c-1.389,4.278,2.2,11.132-0.395,14.693
					c-2.618,3.6-10.261,2.291-13.858,4.908c-3.561,2.592-4.667,10.279-8.945,11.668c-4.128,1.34-9.522-4.185-14.1-4.185
					s-9.969,5.525-14.1,4.185c-4.278-1.389-5.384-9.076-8.945-11.668c-3.6-2.617-11.241-1.312-13.858-4.908
					c-2.592-3.561,0.994-10.415-0.395-14.693c-1.34-4.128-8.314-7.544-8.314-12.119s6.974-7.991,8.314-12.119
					c1.389-4.278-2.2-11.132,0.395-14.693c2.618-3.6,10.261-2.291,13.858-4.908c3.561-2.592,4.667-10.279,8.945-11.668
					c4.128-1.34,9.522,4.185,14.1,4.185s9.969-5.525,14.1-4.185c4.278,1.389,5.384,9.076,8.945,11.668
					c3.6,2.617,11.241,1.312,13.858,4.908c2.592,3.561-0.994,10.415,0.395,14.693C166.635,187.494,173.609,190.91,173.609,195.485z"
					/>
			</g>
			<g>
				<g>
					<path fill="#F79219" d="M165.295,207.604c1.34-4.128,8.314-7.544,8.314-12.119s-6.974-7.991-8.314-12.119
						c-1.389-4.278,2.197-11.132-0.395-14.693c-1.753-2.409-5.762-2.619-9.299-3.281c-0.4,2.803-1.031,5.74-0.306,7.974
						c1.34,4.128,8.314,7.544,8.314,12.119s-6.974,7.991-8.314,12.119c-1.389,4.278,2.2,11.132-0.395,14.693
						c-2.618,3.6-10.261,2.291-13.858,4.908c-3.561,2.592-4.667,10.279-8.945,11.668c-4.128,1.34-9.522-4.185-14.1-4.185
						c-3.633,0-7.778,3.479-11.399,4.246c2.388,3.318,3.756,8.789,7.299,9.939c4.131,1.34,9.522-4.185,14.1-4.185
						s9.972,5.525,14.1,4.185c4.278-1.389,5.384-9.076,8.945-11.668c3.597-2.617,11.24-1.308,13.858-4.908
						C167.495,218.736,163.906,211.882,165.295,207.604z"/>
				</g>
			</g>
			<g>
				<path fill="#EF7816" d="M165.3,207.604c1.34-4.128,8.314-7.544,8.314-12.119s-6.979-7.991-8.314-12.115
					c-1.389-4.278,2.2-11.132-0.395-14.693c-1.052-1.223-2.496-2.042-4.086-2.316c0.361,3.7-1.611,8.646-0.519,12.009
					c1.34,4.128,8.314,7.544,8.314,12.119s-6.974,7.991-8.314,12.119c-1.389,4.278,2.2,11.132-0.395,14.693
					c-2.618,3.6-10.261,2.291-13.858,4.908c-3.561,2.592-4.667,10.279-8.945,11.668c-4.128,1.34-9.522-4.185-14.1-4.185
					c-4.385,0-9.52,5.059-13.574,4.3c1.184,2.226,2.486,4.239,4.477,4.885c4.128,1.34,9.522-4.185,14.1-4.185
					c4.578,0,9.969,5.525,14.1,4.185c4.278-1.389,5.384-9.076,8.945-11.668c3.6-2.617,11.24-1.312,13.858-4.908
					C167.492,218.736,163.906,211.882,165.3,207.604z"/>
			</g>
			<g>
				<path fill="#F1F2F2" d="M113.861,196.122c-5.981,0-10.83-4.849-10.83-10.83c0-5.981,4.849-10.83,10.83-10.83
					c5.981,0,10.83,4.849,10.83,10.83C124.684,191.27,119.84,196.115,113.861,196.122z M113.861,179.463
					c-3.22,0-5.83,2.61-5.83,5.83c0,3.22,2.61,5.83,5.83,5.83c3.22,0,5.83-2.61,5.83-5.83c0,0,0-0.001,0-0.001
					C119.687,182.073,117.079,179.466,113.861,179.463z"/>
			</g>
			<g>
				<path fill="#F1F2F2" d="M142.138,216.508c-5.981,0-10.83-4.849-10.83-10.83s4.849-10.83,10.83-10.83s10.83,4.849,10.83,10.83
					C152.961,211.656,148.117,216.501,142.138,216.508z M142.138,199.849c-3.22,0-5.83,2.61-5.83,5.83s2.61,5.83,5.83,5.83
					s5.83-2.61,5.83-5.83c0,0,0-0.001,0-0.001C147.964,202.459,145.356,199.852,142.138,199.849z"/>
			</g>
			<g>
				<path fill="#F1F2F2" d="M109.7,216.288c-1.381,0-2.5-1.119-2.5-2.5c0-0.663,0.263-1.299,0.732-1.768l36.607-36.606
					c0.993-0.959,2.576-0.932,3.535,0.061c0.936,0.969,0.936,2.505,0,3.474l-36.607,36.607
					C110.999,216.025,110.363,216.288,109.7,216.288z"/>
			</g>
		</g>
	</g>
	<g>
		<g>
			<g>
				<path fill="#FFA91A" d="M130.05,30.803l4.779,14.709c0.289,0.888,1.116,1.49,2.05,1.49h15.466c2.088,0,2.957,2.672,1.267,3.9
					l-12.512,9.091c-0.756,0.549-1.072,1.522-0.783,2.41l4.779,14.709c0.645,1.986-1.628,3.638-3.317,2.41l-12.512-9.091
					c-0.756-0.549-1.779-0.549-2.534,0l-12.512,9.091c-1.69,1.228-3.963-0.424-3.317-2.41l4.779-14.709
					c0.289-0.888-0.028-1.861-0.783-2.41l-12.512-9.091c-1.69-1.228-0.821-3.9,1.267-3.9h15.466c0.934,0,1.762-0.601,2.05-1.49
					l4.779-14.709C126.595,28.817,129.405,28.817,130.05,30.803z"/>
			</g>
		</g>
		<g>
			<g>
				<path fill="#F79219" d="M152.346,47.002h-5.247l-10.998,7.991c-0.756,0.549-1.072,1.522-0.783,2.41l4.779,14.709
					c0.645,1.986-1.628,3.638-3.317,2.41l-12.512-9.091c-0.756-0.549-1.779-0.549-2.534,0l-9.208,6.69l-1.621,4.99
					c-0.645,1.986,1.628,3.638,3.317,2.41l12.512-9.091c0.756-0.549,1.779-0.549,2.534,0l12.512,9.091
					c1.69,1.228,3.963-0.424,3.317-2.41l-4.779-14.709c-0.289-0.888,0.028-1.861,0.783-2.41l12.512-9.091
					C155.303,49.674,154.434,47.002,152.346,47.002z"/>
			</g>
		</g>
		<g>
			<polygon fill="#FFA91A" points="86.035,75.07 86.035,93.065 128,117.925 169.965,93.064 169.965,75.07 128,99.929 			"/>
		</g>
		<g>
			<polygon fill="#F79219" points="164.965,78.031 164.965,88.064 123,112.925 86.035,91.027 86.035,93.065 128,117.925 
				169.965,93.064 169.965,75.07 			"/>
		</g>
		<g>
			<polygon fill="#FFA91A" points="86.035,102.287 86.035,120.282 128,145.142 169.965,120.282 169.965,102.287 128,127.147 			"/>
		</g>
		<g>
			<polygon fill="#F79219" points="164.965,105.249 164.965,115.282 123,140.142 86.035,118.244 86.035,120.282 128,145.142 
				169.965,120.282 169.965,102.287 			"/>
		</g>
	</g>
</g>
</svg>
