<?xml version="1.0" encoding="utf-8"?>
<!-- Generator: Adobe Illustrator 24.0.0, SVG Export Plug-In . SVG Version: 6.00 Build 0)  -->
<svg version="1.1" id="Layer_1" xmlns="http://www.w3.org/2000/svg" xmlns:xlink="http://www.w3.org/1999/xlink" x="0px" y="0px"
	 viewBox="0 0 256 256" enable-background="new 0 0 256 256" xml:space="preserve">
<g>
	<g>
		<g>
			<path fill="#377DE2" d="M36.535,91.16v130.845c0,5.051,4.095,9.146,9.146,9.146h164.636c5.051,0,9.146-4.095,9.146-9.146V91.16
				H36.535z"/>
		</g>
		<g>
			<g>
				<g>
					<path fill="#478CF7" d="M69.022,130.696h-14.33c-3.368,0-6.098-2.73-6.098-6.098v-14.33c0-3.368,2.73-6.098,6.098-6.098h14.33
						c3.368,0,6.098,2.73,6.098,6.098v14.33C75.12,127.966,72.39,130.696,69.022,130.696z"/>
				</g>
				<g>
					<path fill="#478CF7" d="M113.117,130.696h-14.33c-3.368,0-6.098-2.73-6.098-6.098v-14.33c0-3.368,2.73-6.098,6.098-6.098h14.33
						c3.368,0,6.098,2.73,6.098,6.098v14.33C119.215,127.966,116.485,130.696,113.117,130.696z"/>
				</g>
				<g>
					<path fill="#478CF7" d="M157.213,130.696h-14.33c-3.368,0-6.098-2.73-6.098-6.098v-14.33c0-3.368,2.73-6.098,6.098-6.098h14.33
						c3.368,0,6.098,2.73,6.098,6.098v14.33C163.31,127.966,160.58,130.696,157.213,130.696z"/>
				</g>
				<g>
					<path fill="#478CF7" d="M201.308,130.696h-14.33c-3.368,0-6.098-2.73-6.098-6.098v-14.33c0-3.368,2.73-6.098,6.098-6.098h14.33
						c3.368,0,6.098,2.73,6.098,6.098v14.33C207.406,127.966,204.676,130.696,201.308,130.696z"/>
				</g>
				<g>
					<g>
						<path fill="#478CF7" d="M69.022,174.792h-14.33c-3.368,0-6.098-2.73-6.098-6.098v-14.33c0-3.368,2.73-6.098,6.098-6.098h14.33
							c3.368,0,6.098,2.73,6.098,6.098v14.33C75.12,172.062,72.39,174.792,69.022,174.792z"/>
					</g>
					<g>
						<path fill="#478CF7" d="M113.117,174.792h-14.33c-3.368,0-6.098-2.73-6.098-6.098v-14.33c0-3.368,2.73-6.098,6.098-6.098
							h14.33c3.368,0,6.098,2.73,6.098,6.098v14.33C119.215,172.062,116.485,174.792,113.117,174.792z"/>
					</g>
					<g>
						<path fill="#478CF7" d="M157.213,174.792h-14.33c-3.368,0-6.098-2.73-6.098-6.098v-14.33c0-3.368,2.73-6.098,6.098-6.098
							h14.33c3.368,0,6.098,2.73,6.098,6.098v14.33C163.31,172.062,160.58,174.792,157.213,174.792z"/>
					</g>
					<g>
						<path fill="#478CF7" d="M201.308,174.792h-14.33c-3.368,0-6.098-2.73-6.098-6.098v-14.33c0-3.368,2.73-6.098,6.098-6.098
							h14.33c3.368,0,6.098,2.73,6.098,6.098v14.33C207.406,172.062,204.676,174.792,201.308,174.792z"/>
					</g>
				</g>
				<g>
					<g>
						<path fill="#478CF7" d="M69.022,218.887h-14.33c-3.368,0-6.098-2.73-6.098-6.098v-14.33c0-3.368,2.73-6.098,6.098-6.098h14.33
							c3.368,0,6.098,2.73,6.098,6.098v14.33C75.12,216.157,72.39,218.887,69.022,218.887z"/>
					</g>
					<g>
						<path fill="#478CF7" d="M113.117,218.887h-14.33c-3.368,0-6.098-2.73-6.098-6.098v-14.33c0-3.368,2.73-6.098,6.098-6.098
							h14.33c3.368,0,6.098,2.73,6.098,6.098v14.33C119.215,216.157,116.485,218.887,113.117,218.887z"/>
					</g>
					<g>
						<path fill="#478CF7" d="M157.213,218.887h-14.33c-3.368,0-6.098-2.73-6.098-6.098v-14.33c0-3.368,2.73-6.098,6.098-6.098
							h14.33c3.368,0,6.098,2.73,6.098,6.098v14.33C163.31,216.157,160.58,218.887,157.213,218.887z"/>
					</g>
					<g>
						<path fill="#478CF7" d="M201.308,218.887h-14.33c-3.368,0-6.098-2.73-6.098-6.098v-14.33c0-3.368,2.73-6.098,6.098-6.098
							h14.33c3.368,0,6.098,2.73,6.098,6.098v14.33C207.406,216.157,204.676,218.887,201.308,218.887z"/>
					</g>
				</g>
			</g>
			<g>
				<path fill="#F1F2F2" d="M210.318,48.223H45.682c-5.051,0-9.146,4.095-9.146,9.146V91.16h182.929V57.369
					C219.465,52.318,215.37,48.223,210.318,48.223z"/>
			</g>
			<g>
				<path fill="#E6E7E8" d="M210.318,48.223h-0.854V81.16H36.535v10h182.929V57.369C219.465,52.318,215.37,48.223,210.318,48.223z"
					/>
			</g>
			<g>
				<path fill="#D1D3D4" d="M213.784,48.903c0.438,1.069,0.68,2.239,0.68,3.466V86.16H36.535v5h182.929V57.369
					C219.465,53.544,217.117,50.269,213.784,48.903z"/>
			</g>
			<g>
				<path fill="#FFA91A" d="M86.841,71.597L86.841,71.597c-4.841,0-8.765-3.924-8.765-8.765V33.614c0-4.841,3.924-8.765,8.765-8.765
					h0c4.841,0,8.765,3.924,8.765,8.765v29.218C95.606,67.673,91.682,71.597,86.841,71.597z"/>
			</g>
			<g>
				<path fill="#F79219" d="M90.014,25.441c0.382,0.984,0.592,2.054,0.592,3.173v29.218c0,4.841-3.924,8.765-8.765,8.765h0
					c-1.119,0-2.189-0.21-3.173-0.592c1.271,3.273,4.451,5.592,8.173,5.592h0c4.841,0,8.765-3.924,8.765-8.765V33.614
					C95.606,29.892,93.286,26.712,90.014,25.441z"/>
			</g>
			<g>
				<path fill="#FFA91A" d="M169.159,71.597L169.159,71.597c-4.841,0-8.765-3.924-8.765-8.765V33.614
					c0-4.841,3.924-8.765,8.765-8.765h0c4.841,0,8.765,3.924,8.765,8.765v29.218C177.924,67.673,174,71.597,169.159,71.597z"/>
			</g>
			<g>
				<path fill="#F79219" d="M172.332,25.441c0.382,0.984,0.592,2.054,0.592,3.173v29.218c0,4.841-3.924,8.765-8.765,8.765h0
					c-1.119,0-2.189-0.21-3.173-0.592c1.271,3.273,4.451,5.592,8.173,5.592h0c4.841,0,8.765-3.924,8.765-8.765V33.614
					C177.924,29.892,175.604,26.712,172.332,25.441z"/>
			</g>
		</g>
		<g>
			<path fill="#FFFFFF" d="M42.54,76.65c-1.11,0-2-0.9-2-2s0.89-2,2-2c1.1,0,2,0.9,2,2S43.64,76.65,42.54,76.65z M42.54,68.65
				c-1.11,0-2-0.9-2-2v-9.28c0-2.83,2.31-5.14,5.14-5.15h22.15c1.11,0,2,0.9,2,2c0,1.11-0.89,2-2,2H45.68
				c-0.63,0-1.14,0.52-1.14,1.15v9.28C44.54,67.75,43.64,68.65,42.54,68.65z"/>
		</g>
		<g>
			<path fill="#2266D3" d="M214.465,91.16v125.845c0,5.051-4.095,9.146-9.146,9.146H40.682c-1.227,0-2.397-0.242-3.466-0.68
				c1.366,3.333,4.642,5.68,8.466,5.68h164.636c5.051,0,9.146-4.095,9.146-9.146V91.16H214.465z"/>
		</g>
	</g>
	<g>
		<g>
			<path fill="#FFA91A" d="M200.678,111.557c0-4.079-3.307-7.386-7.386-7.386h-40.456c-4.079,0-7.386,3.307-7.386,7.386v50.139
				c0,4.079,3.307,7.386,7.386,7.386h40.456c4.079,0,7.386-3.307,7.386-7.386L200.678,111.557z M192.269,143.869
				c0,1.714-1.389,3.103-3.103,3.103c-1.713,0-3.103-1.389-3.103-3.103v-14.485c0-1.713,1.389-3.103,3.103-3.103
				c1.714,0,3.103,1.389,3.103,3.103V143.869z"/>
		</g>
		<g>
			<g>
				<path fill="#F79219" d="M200.678,111.557c0-3.354-2.236-6.186-5.299-7.087c0.195,0.662,0.299,1.362,0.299,2.087l0,50.139
					c0,4.079-3.307,7.386-7.386,7.386h-40.456c-0.725,0-1.425-0.105-2.087-0.3c0.9,3.063,3.732,5.3,7.087,5.3h40.456
					c4.079,0,7.386-3.307,7.386-7.386L200.678,111.557z"/>
			</g>
		</g>
		<g>
			<g>
				<path fill="#E6E7E8" d="M68.47,148.686l76.98,0v-24.119l-76.98,0c-1.859,0-3.637,0.759-4.922,2.101l-7.28,7.601
					c-1.262,1.318-1.262,3.396,0,4.714l7.28,7.601C64.834,147.927,66.612,148.686,68.47,148.686z"/>
			</g>
			<g>
				<path fill="#D1D3D4" d="M69.977,148.686l10.414-10.414c1.331-1.331,3.489-1.331,4.819,0l3.407,3.407
					c0.639,0.639,1.506,0.998,2.41,0.998h8.79c0.904,0,1.771-0.359,2.41-0.998l2.717-2.717c1.331-1.331,3.489-1.331,4.819,0
					l3.354,3.354c0.639,0.639,1.506,0.998,2.41,0.998h18.599c0.904,0,1.771,0.359,2.41,0.998l4.373,4.373L69.977,148.686z"/>
			</g>
			<g>
				<g>
					<polygon fill="#D1D3D4" points="58.694,131.581 145.45,131.581 145.45,127.899 62.221,127.899 					"/>
				</g>
			</g>
		</g>
	</g>
	<g>
		<g>
			<g>
				<circle fill="#58595B" cx="128" cy="203.521" r="32.86"/>
			</g>
		</g>
		<g>
			<path fill="#414042" d="M148.602,177.919c4.541,5.635,7.258,12.801,7.258,20.602c0,18.148-14.712,32.86-32.86,32.86
				c-7.8,0-14.966-2.718-20.601-7.259c6.023,7.476,15.254,12.259,25.601,12.259c18.148,0,32.86-14.712,32.86-32.86
				C160.86,193.173,156.077,183.943,148.602,177.919z"/>
		</g>
		<g>
			<g>
				<g>
					<path fill="#FFA91A" d="M124.545,218.098c-1.423,0-2.846-0.543-3.932-1.628l-10.95-10.95c-2.171-2.172-2.171-5.692,0-7.864
						c2.172-2.171,5.692-2.171,7.864,0l7.018,7.019l13.927-13.928c2.172-2.171,5.692-2.171,7.864,0c2.171,2.172,2.171,5.692,0,7.864
						l-17.859,17.859C127.391,217.555,125.969,218.098,124.545,218.098z"/>
				</g>
			</g>
		</g>
	</g>
</g>
</svg>
