<?xml version="1.0" encoding="utf-8"?>
<!-- Generator: Adobe Illustrator 24.0.0, SVG Export Plug-In . SVG Version: 6.00 Build 0)  -->
<svg version="1.1" id="Layer_1" xmlns="http://www.w3.org/2000/svg" xmlns:xlink="http://www.w3.org/1999/xlink" x="0px" y="0px"
	 viewBox="0 0 256 256" enable-background="new 0 0 256 256" xml:space="preserve">
<g>
	<g>
		<g>
			<g>
				<g>
					<g>
						<g>
							<path fill="#377DE2" d="M202.709,55.614l0.004,0.014c0.3-0.802,0.961-1.448,1.836-1.684l15.824-4.269
								c1.608-0.434,3.226,0.663,3.419,2.317l1.069,9.167c0.156,1.342-0.694,2.597-1.998,2.949l-19.73,5.31
								c-1.504,0.405-3.085-0.302-3.787-1.692l0,0c-0.412-0.815-0.466-1.765-0.149-2.622L202.709,55.614z"/>
						</g>
					</g>
				</g>
				<g>
					<g>
						<g>
							<path fill="#377DE2" d="M54.652,55.614l-0.004,0.014c-0.3-0.802-0.961-1.448-1.836-1.684l-15.824-4.269
								c-1.608-0.434-3.226,0.663-3.419,2.317L32.5,61.159c-0.156,1.342,0.694,2.597,1.998,2.949l19.73,5.31
								c1.504,0.405,3.085-0.302,3.787-1.692h0c0.412-0.815,0.466-1.765,0.149-2.622L54.652,55.614z"/>
						</g>
					</g>
				</g>
			</g>
			<g>
				<g>
					<g>
						<path fill="#58595B" d="M69.412,157.649H44.388c-4.878,0-8.832-3.954-8.832-8.832v-42.359c0-4.878,3.954-8.832,8.832-8.832
							h25.025c4.878,0,8.832,3.954,8.832,8.832v42.359C78.245,153.695,74.29,157.649,69.412,157.649z"/>
					</g>
				</g>
				<g>
					<g>
						<path fill="#58595B" d="M212.973,157.649h-25.025c-4.878,0-8.832-3.954-8.832-8.832v-42.359c0-4.878,3.954-8.832,8.832-8.832
							h25.025c4.878,0,8.832,3.954,8.832,8.832v42.359C221.805,153.695,217.851,157.649,212.973,157.649z"/>
					</g>
				</g>
			</g>
			<g>
				<g>
					<path fill="#478CF7" d="M210.096,146.12H47.265c-3.991,0-7.369-2.945-7.912-6.899l-6.74-49.025
						c-1.566-11.391,7.285-21.542,18.783-21.542h154.567c11.498,0,20.349,10.152,18.783,21.542l-6.74,49.025
						C217.464,143.174,214.086,146.12,210.096,146.12z"/>
				</g>
			</g>
			<g>
				<path fill="#5E9CF7" d="M37.87,91.99c-2.456-0.028-2.685-3.626-0.27-3.98C40.409,87.751,40.693,91.9,37.87,91.99z M39.22,84.24
					c-1.455,0.023-2.483-1.642-1.77-2.93c0.55-1.05,1.22-2.03,1.99-2.91c2.84-3.26,6.95-5.13,11.28-5.13h111.84
					c2.558,0.042,2.705,3.921,0,4c0,0-111.84,0-111.84,0c-4.028-0.024-7.876,2.298-9.72,5.89C40.65,83.82,39.97,84.24,39.22,84.24z"
					/>
			</g>
			<g>
				<g>
					<path fill="#2266D3" d="M35.641,112.215l3.713,27.006c0.543,3.953,3.922,6.899,7.912,6.899h162.83
						c3.991,0,7.369-2.945,7.912-6.899l3.713-27.006H35.641z"/>
				</g>
			</g>
			<g>
				<g>
					<path fill="#478CF7" d="M177.729,23.12H79.632c-5.93,0-11.229,3.7-13.271,9.267L53.054,68.653h151.253l-13.306-36.267
						C188.958,26.82,183.659,23.12,177.729,23.12z"/>
				</g>
			</g>
			<g>
				<g>
					<path fill="#D1D3D4" d="M85.599,102.276H49.672c-1.72,0-3.175-1.271-3.405-2.976l-0.726-5.375
						c-0.279-2.062,1.324-3.896,3.405-3.896h35.928c1.72,0,3.174,1.272,3.405,2.976l0.726,5.375
						C89.283,100.442,87.68,102.276,85.599,102.276z"/>
				</g>
			</g>
			<g>
				<g>
					<path fill="#D1D3D4" d="M171.762,102.276h35.927c1.72,0,3.175-1.271,3.405-2.976l0.726-5.375
						c0.279-2.062-1.324-3.896-3.405-3.896h-35.928c-1.72,0-3.174,1.272-3.405,2.976l-0.726,5.375
						C168.078,100.442,169.681,102.276,171.762,102.276z"/>
				</g>
			</g>
			<g>
				<g>
					<path fill="#E6E7E8" d="M194.005,68.652H63.356l10.974-32.309c1.171-3.445,3.876-5.681,6.874-5.681h94.955
						c2.998,0,5.702,2.236,6.874,5.681L194.005,68.652z"/>
				</g>
			</g>
			<g>
				<g>
					<path fill="#D1D3D4" d="M191.535,68.652H65.826c2.364-3.45,5.649-5.617,9.323-5.617h107.063
						C185.886,63.035,189.171,65.202,191.535,68.652z"/>
				</g>
			</g>
			<g>
				<g>
					<g>
						<path fill="#5E9CF7" d="M158.81,137.157H97.19c-3.059,0-5.008-3.269-3.553-5.96l4.273-7.902
							c0.705-1.305,2.069-2.118,3.553-2.118h53.075c1.483,0,2.847,0.813,3.553,2.118l4.273,7.902
							C163.818,133.888,161.87,137.157,158.81,137.157z"/>
					</g>
				</g>
				<g>
					<path fill="#478CF7" d="M162.363,131.197l-4.273-7.902c-0.688-1.272-2.001-2.076-3.44-2.116l2.713,5.017
						c1.455,2.691-0.493,5.96-3.553,5.96H93.263c-0.611,2.45,1.224,5,3.926,5h61.621
						C161.87,137.157,163.818,133.888,162.363,131.197z"/>
				</g>
			</g>
			<g>
				<g>
					<g>
						<path fill="#5E9CF7" d="M74.946,127.637H53.244c-1.784,0-3.23-1.446-3.23-3.23l0,0c0-1.784,1.446-3.23,3.23-3.23h21.702
							c1.784,0,3.23,1.446,3.23,3.23l0,0C78.176,126.191,76.73,127.637,74.946,127.637z"/>
					</g>
				</g>
				<g>
					<g>
						<path fill="#5E9CF7" d="M204.117,127.637h-21.702c-1.784,0-3.23-1.446-3.23-3.23l0,0c0-1.784,1.446-3.23,3.23-3.23h21.702
							c1.784,0,3.23,1.446,3.23,3.23l0,0C207.347,126.191,205.901,127.637,204.117,127.637z"/>
					</g>
				</g>
			</g>
		</g>
		<g>
			<path fill="#FFA91A" d="M183.499,13.284c-2.11,4.592-5.817,8.298-10.408,10.408c-1.653,0.76-1.653,3.087,0,3.847
				c4.592,2.11,8.298,5.817,10.408,10.408c0.76,1.653,3.087,1.653,3.847,0c2.11-4.592,5.817-8.298,10.408-10.408
				c1.653-0.76,1.653-3.087,0-3.847c-4.592-2.11-8.298-5.817-10.408-10.408C186.586,11.632,184.258,11.632,183.499,13.284z"/>
		</g>
		<g>
			<g>
				<path fill="#F79219" d="M197.753,23.693c-1.386-0.637-2.691-1.419-3.895-2.327c-0.183,0.489-0.551,0.92-1.105,1.174
					c-4.592,2.11-8.298,5.817-10.408,10.408c-0.255,0.554-0.685,0.922-1.174,1.105c0.908,1.205,1.691,2.51,2.327,3.895
					c0.76,1.653,3.087,1.653,3.847,0c2.11-4.591,5.817-8.298,10.408-10.408C199.406,26.78,199.406,24.452,197.753,23.693z"/>
			</g>
		</g>
		<g>
			<path fill="#FFA91A" d="M152.831,56.321c-2.11,4.592-5.817,8.298-10.408,10.408c-1.653,0.76-1.653,3.087,0,3.847
				c4.592,2.11,8.298,5.817,10.408,10.408c0.76,1.653,3.087,1.653,3.847,0c2.11-4.592,5.817-8.298,10.408-10.408
				c1.653-0.76,1.653-3.087,0-3.847c-4.592-2.11-8.298-5.817-10.408-10.408C155.918,54.668,153.59,54.668,152.831,56.321z"/>
		</g>
		<g>
			<g>
				<path fill="#F79219" d="M167.086,66.729c-1.386-0.637-2.691-1.419-3.895-2.328c-0.183,0.489-0.551,0.92-1.105,1.174
					c-4.592,2.11-8.298,5.817-10.408,10.408c-0.255,0.554-0.685,0.922-1.174,1.105c0.908,1.205,1.691,2.51,2.327,3.895
					c0.76,1.653,3.087,1.653,3.847,0c2.11-4.592,5.817-8.298,10.408-10.408C168.738,69.816,168.738,67.489,167.086,66.729z"/>
			</g>
		</g>
		<g>
			<path fill="#FFA91A" d="M221.682,70.771c-2.11,4.592-5.817,8.298-10.408,10.408c-1.653,0.76-1.653,3.087,0,3.847
				c4.592,2.11,8.298,5.817,10.408,10.408c0.76,1.653,3.087,1.653,3.847,0c2.11-4.592,5.817-8.298,10.408-10.408
				c1.653-0.76,1.653-3.087,0-3.847c-4.592-2.11-8.298-5.817-10.408-10.408C224.769,69.118,222.442,69.118,221.682,70.771z"/>
		</g>
		<g>
			<g>
				<path fill="#F79219" d="M235.937,81.179c-1.386-0.637-2.691-1.419-3.896-2.328c-0.183,0.489-0.551,0.92-1.105,1.174
					c-4.591,2.11-8.298,5.817-10.408,10.408c-0.255,0.554-0.685,0.922-1.174,1.105c0.908,1.205,1.691,2.51,2.327,3.895
					c0.76,1.653,3.087,1.653,3.847,0c2.11-4.591,5.817-8.298,10.408-10.408C237.59,84.266,237.59,81.939,235.937,81.179z"/>
			</g>
		</g>
	</g>
	<g>
		<g>
			<g>
				<g>
					<path fill="#FCC4AE" d="M236.62,163.745c-10.14,8.04-45.06,35.2-68.99,47.34c-28.27,14.35-55.52,0-77.66-2.71
						c-13.166-1.977-26.465,6.151-33.62,14.08l-0.16,0.03l-3.01,0.42v-54.86c13.269-19.776,33.337-17.14,54.95-19.229
						c15.215-1.948,30.021-6.476,43.54-13.761c2.687-1.985,5.578-0.436,6.14,2.67c1.985,10.978-4.62,23.003-14.97,25.22
						c0,0-5.45,1.24-5.45,1.24c-1.9,0.455-1.702,3.133,0.19,3.46c19,6.56,38.32,2.23,56.85-5.84c12.25-5.33,31.85-18.92,42.9-4.18
						C238.73,159.495,238.4,162.335,236.62,163.745z"/>
				</g>
				<g>
					<g>
						<path fill="#F2AD97" d="M237.33,157.625c-2.663-3.552-5.823-5.459-9.256-6.233c-0.216,0.918-0.707,1.761-1.454,2.353
							c-10.14,8.04-45.06,35.2-68.99,47.34c-28.27,14.35-55.52,0-77.66-2.71c-9.693-1.455-19.458,2.566-26.79,7.953v16.577
							l3.01-0.42l0.16-0.03c7.155-7.929,20.454-16.057,33.62-14.08c22.14,2.71,49.39,17.06,77.66,2.71
							c23.93-12.14,58.85-39.3,68.99-47.34C238.4,162.335,238.73,159.495,237.33,157.625z"/>
					</g>
				</g>
				<g>
					<g>
						<path fill="#E59076" d="M237.33,157.625c-1.401-1.869-2.94-3.282-4.583-4.315c0.887,1.824,0.447,4.188-1.127,5.435
							c-10.14,8.04-45.06,35.2-68.99,47.34c-28.27,14.35-55.52,0-77.66-2.71c-12.114-1.819-24.34,4.916-31.79,12.181v7.349
							l3.01-0.42l0.16-0.03c7.155-7.929,20.454-16.057,33.62-14.08c22.14,2.71,49.39,17.06,77.66,2.71
							c23.93-12.14,58.85-39.3,68.99-47.34C238.4,162.335,238.73,159.495,237.33,157.625z"/>
					</g>
				</g>
				<g>
					<g>
						<g>
							<g>
								<path fill="#F1F2F2" d="M67.793,220.858l-11.441,1.601l-0.161,0.023l-3.009,0.423l-3.86,0.538
									c-2.489,0.35-4.784-1.389-5.134-3.878l-8.626-61.687c-0.35-2.489,1.385-4.784,3.874-5.134l18.471-2.586
									c1.178-0.161,2.319,0.138,3.225,0.778c1.003,0.69,1.721,1.79,1.909,3.101l0.497,3.57l6.404,45.779l1.141,8.17l0.584,4.173
									C72.017,218.213,70.278,220.508,67.793,220.858z"/>
							</g>
						</g>
						<g>
							<path fill="#E6E7E8" d="M71.667,215.728l-0.584-4.173l-1.141-8.17l-6.404-45.779l-0.497-3.57
								c-0.189-1.311-0.906-2.411-1.909-3.101c-0.831-0.587-1.863-0.868-2.936-0.79l0.342,2.46l6.404,45.779l1.141,8.17l0.584,4.173
								c0.35,2.484-1.389,4.78-3.874,5.13l-11.441,1.601l-0.161,0.023l-3.009,0.423l-3.86,0.538
								c-0.098,0.014-0.192,0.004-0.289,0.011l0.155,1.111c0.35,2.489,2.645,4.228,5.134,3.878l3.86-0.538l3.009-0.423l0.161-0.023
								l11.441-1.601C70.278,220.508,72.017,218.213,71.667,215.728z"/>
						</g>
						<g>
							<path fill="#995222" d="M23.974,227.509h20.483c3.41,0,6.174-2.764,6.174-6.174v-72.121c0-3.41-2.764-6.174-6.174-6.174
								H23.974c-3.41,0-6.174,2.764-6.174,6.174v72.121C17.799,224.744,20.564,227.509,23.974,227.509z"/>
						</g>
						<g>
							<path fill="#7C3108" d="M45.532,143.138c0.061,0.35,0.1,0.707,0.1,1.075v72.121c0,3.41-2.764,6.174-6.174,6.174H18.974
								c-0.367,0-0.725-0.038-1.075-0.1c0.509,2.897,3.032,5.1,6.075,5.1h20.483c3.41,0,6.174-2.764,6.174-6.174v-72.121
								C50.631,146.171,48.428,143.648,45.532,143.138z"/>
						</g>
					</g>
					<g>
						<g>
							
								<ellipse transform="matrix(0.2298 -0.9732 0.9732 0.2298 -172.1881 190.4301)" fill="#FFFFFF" cx="34.215" cy="203.999" rx="6.592" ry="6.592"/>
						</g>
					</g>
					<g>
						<path fill="#E6E7E8" d="M37.764,198.45c0.657,1.025,1.043,2.241,1.043,3.549c0,3.641-2.951,6.592-6.592,6.592
							c-1.308,0-2.524-0.386-3.549-1.043c1.172,1.828,3.216,3.043,5.549,3.043c3.641,0,6.592-2.951,6.592-6.592
							C40.807,201.667,39.592,199.622,37.764,198.45z"/>
					</g>
				</g>
			</g>
		</g>
	</g>
</g>
</svg>
