<?xml version="1.0" encoding="utf-8"?>
<!-- Generator: Adobe Illustrator 24.0.0, SVG Export Plug-In . SVG Version: 6.00 Build 0)  -->
<svg version="1.1" id="Layer_1" xmlns="http://www.w3.org/2000/svg" xmlns:xlink="http://www.w3.org/1999/xlink" x="0px" y="0px"
	 viewBox="0 0 256 256" enable-background="new 0 0 256 256" xml:space="preserve">
<g>
	<g>
		<g>
			<g>
				<g>
					<g>
						<path fill="#377DE2" d="M210.254,89.365l0.005,0.016c0.333-0.891,1.068-1.609,2.04-1.871l17.582-4.743
							c1.787-0.482,3.585,0.736,3.799,2.575l1.187,10.186c0.174,1.491-0.771,2.885-2.22,3.276l-21.922,5.9
							c-1.671,0.45-3.428-0.335-4.208-1.879l0,0c-0.458-0.906-0.517-1.961-0.165-2.913L210.254,89.365z"/>
					</g>
				</g>
			</g>
			<g>
				<g>
					<g>
						<path fill="#377DE2" d="M45.746,89.365l-0.005,0.016c-0.333-0.891-1.068-1.609-2.04-1.871l-17.582-4.743
							c-1.787-0.482-3.585,0.736-3.799,2.575l-1.187,10.186c-0.174,1.491,0.771,2.885,2.22,3.276l21.922,5.9
							c1.671,0.45,3.428-0.335,4.208-1.879l0,0c0.458-0.906,0.517-1.961,0.165-2.913L45.746,89.365z"/>
					</g>
				</g>
			</g>
		</g>
		<g>
			<g>
				<g>
					<path fill="#58595B" d="M62.147,202.739H34.341c-5.42,0-9.813-4.394-9.813-9.814v-47.066c0-5.42,4.394-9.814,9.813-9.814
						h27.805c5.42,0,9.814,4.394,9.814,9.814v47.066C71.96,198.345,67.567,202.739,62.147,202.739z"/>
				</g>
			</g>
			<g>
				<g>
					<path fill="#58595B" d="M221.659,202.739h-27.805c-5.42,0-9.814-4.394-9.814-9.814v-47.066c0-5.42,4.394-9.814,9.814-9.814
						h27.805c5.42,0,9.813,4.394,9.813,9.814v47.066C231.472,198.345,227.078,202.739,221.659,202.739z"/>
				</g>
			</g>
		</g>
		<g>
			<g>
				<path fill="#478CF7" d="M218.461,189.928H37.539c-4.434,0-8.188-3.273-8.791-7.665l-7.489-54.472
					c-1.74-12.656,8.095-23.936,20.87-23.936h171.742c12.775,0,22.61,11.279,20.87,23.936l-7.489,54.472
					C226.649,186.655,222.895,189.928,218.461,189.928z"/>
			</g>
		</g>
		<g>
			<path fill="#5E9CF7" d="M27.2,128.97c-0.99,0-1.841-0.74-1.98-1.72l0,0c-0.31-2.612,3.527-3.145,3.96-0.56l0.01,0.01
				C29.363,127.876,28.398,129.001,27.2,128.97z M28.21,121.13L28.21,121.13c-0.26,0-0.521-0.05-0.76-0.15
				c-0.5-0.21-0.881-0.59-1.08-1.09c-0.21-0.49-0.21-1.03,0-1.53c0.71-1.7,1.68-3.27,2.89-4.66c3.25-3.71,7.94-5.85,12.87-5.85
				l132.18,0.01c0.03-0.01,0.061-0.01,0.09-0.01h8c1.101,0,2,0.9,2,2c0,1.11-0.899,2-2,2H42.13c-3.78,0-7.37,1.64-9.85,4.48
				c-0.931,1.07-1.681,2.27-2.221,3.57v0.01C29.74,120.65,29.02,121.13,28.21,121.13z"/>
		</g>
		<g>
			<g>
				<path fill="#2266D3" d="M24.622,152.256l4.125,30.007c0.604,4.393,4.357,7.665,8.791,7.665h180.922
					c4.434,0,8.188-3.273,8.791-7.665l4.125-30.007H24.622z"/>
			</g>
		</g>
		<g>
			<g>
				<path fill="#478CF7" d="M182.499,53.261H73.501c-6.588,0-12.476,4.111-14.746,10.296l-14.785,40.296h168.059l-14.785-40.296
					C194.975,57.373,189.087,53.261,182.499,53.261z"/>
			</g>
		</g>
		<g>
			<g>
				<path fill="#E6E7E8" d="M80.132,141.212H40.213c-1.911,0-3.527-1.413-3.783-3.306l-0.807-5.972
					c-0.31-2.291,1.472-4.329,3.783-4.329h39.919c1.911,0,3.527,1.413,3.783,3.306l0.807,5.972
					C84.225,139.174,82.444,141.212,80.132,141.212z"/>
			</g>
		</g>
		<g>
			<path fill="#D1D3D4" d="M83.915,136.884l-0.807-5.972c-0.256-1.894-1.872-3.306-3.783-3.306h-0.988l0.578,4.278
				c0.31,2.291-1.471,4.329-3.783,4.329H36.201l0.229,1.694c0.256,1.894,1.872,3.306,3.783,3.306h39.919
				C82.444,141.212,84.225,139.174,83.915,136.884z"/>
		</g>
		<g>
			<g>
				<path fill="#E6E7E8" d="M175.868,141.212h39.919c1.911,0,3.527-1.413,3.783-3.306l0.807-5.972
					c0.31-2.291-1.472-4.329-3.783-4.329h-39.919c-1.911,0-3.527,1.413-3.783,3.306l-0.807,5.972
					C171.775,139.174,173.556,141.212,175.868,141.212z"/>
			</g>
		</g>
		<g>
			<path fill="#D1D3D4" d="M216.594,127.605h-1.308l-0.716,5.301c-0.256,1.894-1.872,3.306-3.783,3.306h-38.612l-0.091,0.671
				c-0.31,2.291,1.472,4.329,3.783,4.329h39.919c1.911,0,3.527-1.413,3.783-3.306l0.807-5.972
				C220.687,129.644,218.906,127.605,216.594,127.605z"/>
		</g>
		<g>
			<g>
				<path fill="#F1F2F2" d="M200.583,103.853H55.417L67.61,67.955c1.301-3.828,4.307-6.312,7.638-6.312h105.506
					c3.331,0,6.336,2.485,7.637,6.312L200.583,103.853z"/>
			</g>
		</g>
		<g>
			<path fill="#E6E7E8" d="M188.39,67.955c-1.302-3.828-4.307-6.312-7.637-6.312h-1.11l10.94,32.211H58.813l-3.397,10h145.167
				L188.39,67.955z"/>
		</g>
		<g>
			<path fill="#D1D3D4" d="M188.39,67.955c-0.995-2.925-2.984-5.065-5.354-5.912c0.129,0.295,0.247,0.599,0.354,0.912l12.193,35.898
				H57.115l-1.698,5h145.167L188.39,67.955z"/>
		</g>
		<g>
			<g>
				<g>
					<path fill="#5E9CF7" d="M162.234,179.969H93.766c-3.399,0-5.564-3.632-3.947-6.622l4.748-8.78
						c0.784-1.45,2.299-2.353,3.947-2.353h58.972c1.648,0,3.163,0.903,3.947,2.353l4.748,8.78
						C167.798,176.337,165.633,179.969,162.234,179.969z"/>
				</g>
			</g>
			<g>
				<path fill="#478CF7" d="M166.181,173.347l-4.748-8.78c-0.722-1.335-2.064-2.206-3.559-2.336l3.307,6.115
					c1.617,2.99-0.548,6.622-3.947,6.622H89.302c-0.296,2.538,1.666,5,4.464,5h68.467
					C165.633,179.969,167.798,176.337,166.181,173.347z"/>
			</g>
		</g>
		<g>
			<g>
				<g>
					<path fill="#5E9CF7" d="M68.295,169.392H44.181c-1.982,0-3.589-1.607-3.589-3.589l0,0c0-1.982,1.607-3.589,3.589-3.589h24.114
						c1.982,0,3.589,1.607,3.589,3.589l0,0C71.884,167.785,70.277,169.392,68.295,169.392z"/>
				</g>
			</g>
			<g>
				<g>
					<path fill="#5E9CF7" d="M211.819,169.392h-24.114c-1.982,0-3.589-1.607-3.589-3.589l0,0c0-1.982,1.607-3.589,3.589-3.589
						h24.114c1.982,0,3.589,1.607,3.589,3.589l0,0C215.408,167.785,213.801,169.392,211.819,169.392z"/>
				</g>
			</g>
		</g>
	</g>
	<g>
		<path fill="#FFA91A" d="M188.909,42.333c-2.345,5.102-6.463,9.22-11.565,11.565c-1.836,0.844-1.836,3.43,0,4.274
			c5.102,2.345,9.22,6.463,11.565,11.565c0.844,1.836,3.43,1.836,4.274,0c2.345-5.102,6.463-9.22,11.565-11.565
			c1.836-0.844,1.836-3.43,0-4.274c-5.102-2.345-9.22-6.463-11.565-11.565C192.339,40.497,189.753,40.497,188.909,42.333z"/>
	</g>
	<g>
		<g>
			<path fill="#F79219" d="M204.748,53.898c-1.313-0.604-2.562-1.325-3.731-2.151c-0.185,0.592-0.608,1.121-1.269,1.425
				c-5.102,2.345-9.22,6.463-11.565,11.565c-0.304,0.661-0.833,1.083-1.425,1.269c0.825,1.17,1.547,2.418,2.151,3.731
				c0.844,1.836,3.43,1.836,4.274,0c2.345-5.102,6.463-9.22,11.565-11.565C206.584,57.328,206.584,54.742,204.748,53.898z"/>
		</g>
	</g>
	<g>
		<path fill="#FFA91A" d="M154.834,90.151c-2.345,5.102-6.463,9.22-11.565,11.565c-1.836,0.844-1.836,3.43,0,4.274
			c5.102,2.345,9.22,6.463,11.565,11.565c0.844,1.836,3.43,1.836,4.274,0c2.345-5.102,6.463-9.22,11.565-11.565
			c1.836-0.844,1.836-3.43,0-4.274c-5.102-2.345-9.22-6.463-11.565-11.565C158.264,88.315,155.678,88.315,154.834,90.151z"/>
	</g>
	<g>
		<g>
			<path fill="#F79219" d="M170.672,101.716c-1.314-0.604-2.562-1.325-3.731-2.151c-0.185,0.592-0.608,1.121-1.269,1.425
				c-5.102,2.345-9.22,6.463-11.565,11.565c-0.304,0.661-0.833,1.083-1.425,1.269c0.825,1.17,1.547,2.418,2.151,3.731
				c0.844,1.836,3.43,1.836,4.274,0c2.345-5.102,6.463-9.22,11.565-11.565C172.509,105.146,172.509,102.56,170.672,101.716z"/>
		</g>
	</g>
	<g>
		<path fill="#FFA91A" d="M231.335,106.207c-2.345,5.102-6.463,9.22-11.565,11.565c-1.836,0.844-1.836,3.43,0,4.274
			c5.102,2.345,9.22,6.463,11.565,11.565c0.844,1.836,3.43,1.836,4.274,0c2.345-5.102,6.463-9.22,11.565-11.565
			c1.836-0.844,1.836-3.43,0-4.274c-5.102-2.345-9.22-6.463-11.565-11.565C234.765,104.37,232.179,104.37,231.335,106.207z"/>
	</g>
	<g>
		<g>
			<path fill="#F79219" d="M247.174,117.772c-1.313-0.604-2.562-1.325-3.731-2.151c-0.185,0.592-0.608,1.121-1.269,1.425
				c-5.102,2.345-9.22,6.463-11.565,11.565c-0.303,0.661-0.833,1.083-1.425,1.269c0.825,1.17,1.547,2.418,2.151,3.731
				c0.844,1.836,3.43,1.836,4.274,0c2.345-5.102,6.463-9.22,11.565-11.565C249.01,121.202,249.01,118.616,247.174,117.772z"/>
		</g>
	</g>
</g>
</svg>
