<?xml version="1.0" encoding="utf-8"?>
<!-- Generator: Adobe Illustrator 24.0.0, SVG Export Plug-In . SVG Version: 6.00 Build 0)  -->
<svg version="1.1" id="Layer_1" xmlns="http://www.w3.org/2000/svg" xmlns:xlink="http://www.w3.org/1999/xlink" x="0px" y="0px"
	 viewBox="0 0 256 256" enable-background="new 0 0 256 256" xml:space="preserve">
<g>
	<g>
		<circle fill="#FFA91A" cx="127.949" cy="128.11" r="71.944"/>
	</g>
	<g>
		<path fill="#F79219" d="M149.698,59.512c18.278,13.046,30.195,34.43,30.195,58.598c0,39.734-32.21,71.944-71.944,71.944
			c-7.581,0-14.888-1.173-21.75-3.346c11.772,8.402,26.184,13.346,41.75,13.346c39.734,0,71.944-32.21,71.944-71.944
			C199.893,95.957,178.8,68.73,149.698,59.512z"/>
	</g>
	<g>
		<path fill="#478CF7" d="M127.949,32.741c-52.671,0-95.369,42.698-95.369,95.369s42.698,95.369,95.369,95.369
			s95.369-42.698,95.369-95.369S180.619,32.741,127.949,32.741z M127.949,200.054c-39.734,0-71.944-32.21-71.944-71.944
			s32.21-71.944,71.944-71.944s71.944,32.211,71.944,71.944S167.682,200.054,127.949,200.054z"/>
	</g>
	<g>
		<g>
			<path fill="#377DE2" d="M190.2,55.859c14.406,16.705,23.118,38.461,23.118,62.251c0,52.671-42.698,95.369-95.369,95.369
				c-23.79,0-45.545-8.711-62.251-23.117c17.489,20.28,43.37,33.117,72.251,33.117c52.671,0,95.369-42.698,95.369-95.369
				C223.317,99.229,210.479,73.348,190.2,55.859z"/>
		</g>
	</g>
	<g>
		<g>
			<path fill="#2266D3" d="M192.838,58.22c15.811,17.021,25.479,39.826,25.479,64.889c0,52.671-42.698,95.369-95.369,95.369
				c-25.063,0-47.869-9.669-64.89-25.479c17.415,18.749,42.282,30.479,69.89,30.479c52.671,0,95.369-42.698,95.369-95.369
				C223.317,100.502,211.586,75.635,192.838,58.22z"/>
		</g>
	</g>
	<g>
		<path fill="#F1F2F2" d="M169.862,86.104L169.862,86.104c-2.602-2.602-6.821-2.602-9.423,0l-28.531,28.531
			c-1.241-0.363-2.55-0.566-3.909-0.566c-7.694,0-13.932,6.237-13.932,13.932s6.237,13.932,13.932,13.932
			s13.932-6.237,13.932-13.932c0-1.378-0.207-2.706-0.58-3.963l28.511-28.511C172.464,92.924,172.464,88.706,169.862,86.104z"/>
	</g>
	<g>
		<path fill="#58595B" d="M167.814,199.683H88.186c-2.209,0-4-1.791-4-4v-28.626c0-2.209,1.791-4,4-4h79.628c2.209,0,4,1.791,4,4
			v28.626C171.814,197.892,170.023,199.683,167.814,199.683z"/>
	</g>
	<g>
		<g>
			<path fill="#2266D3" d="M122.649,32.886c0,0.004,0,0.007,0,0.011v23.461c1.75-0.127,3.517-0.193,5.299-0.193
				c1.817,0,3.619,0.068,5.402,0.2V32.897c0-0.002,0-0.003,0-0.005c-1.788-0.1-3.589-0.151-5.402-0.151
				C126.17,32.741,124.404,32.79,122.649,32.886z"/>
		</g>
		<g>
			<path fill="#2266D3" d="M208.247,76.636l-20.319,11.731c1.968,2.964,3.722,6.082,5.24,9.332l20.348-11.748
				C211.931,82.74,210.17,79.631,208.247,76.636z"/>
		</g>
		<g>
			<path fill="#2266D3" d="M42.404,85.905l20.347,11.747c1.52-3.249,3.277-6.365,5.246-9.328L47.678,76.593
				C45.753,79.586,43.991,82.694,42.404,85.905z"/>
		</g>
		<g>
			<path fill="#2266D3" d="M48.664,181.128l20.348-11.748c-2.044-2.914-3.877-5.986-5.478-9.194l-20.319,11.731
				C44.862,175.096,46.682,178.171,48.664,181.128z"/>
		</g>
		<g>
			<path fill="#2266D3" d="M212.706,171.872l-20.319-11.731c-1.599,3.21-3.43,6.283-5.472,9.198l20.347,11.747
				C209.242,178.127,211.061,175.051,212.706,171.872z"/>
		</g>
	</g>
	<g>
		<g>
			<rect x="105.45" y="163.057" fill="#414042" width="11.861" height="36.626"/>
		</g>
		<g>
			<rect x="138.69" y="163.057" fill="#414042" width="11.861" height="36.626"/>
		</g>
	</g>
	<g>
		<path fill="#FFC91D" d="M62.01,130.11c-1.11,0-2.01-0.9-2.01-2c-0.331-27.771,18.102-54.161,44.15-63.64
			c1.01-0.38,2.199,0.17,2.57,1.17c0.39,1.03-0.14,2.19-1.17,2.57C80.7,77.54,64,101.61,64,128.11
			C64,129.21,63.11,130.11,62.01,130.11z M112.49,65.99c-2.339,0.002-2.738-3.386-0.47-3.94
			C114.919,61.488,115.442,65.877,112.49,65.99z"/>
	</g>
</g>
</svg>
