<?xml version="1.0" encoding="utf-8"?>
<!-- Generator: Adobe Illustrator 24.0.0, SVG Export Plug-In . SVG Version: 6.00 Build 0)  -->
<svg version="1.1" id="Layer_1" xmlns="http://www.w3.org/2000/svg" xmlns:xlink="http://www.w3.org/1999/xlink" x="0px" y="0px"
	 viewBox="0 0 256 256" enable-background="new 0 0 256 256" xml:space="preserve">
<g>
	<g>
		<g>
			<path fill="#5A7A39" d="M207.845,174.894H64.508c-2.709,0-4.906-2.196-4.906-4.906v-67.624c0-2.709,2.196-4.906,4.906-4.906
				h143.336c2.709,0,4.906,2.196,4.906,4.906v67.624C212.751,172.698,210.554,174.894,207.845,174.894z"/>
		</g>
		<g>
			<path fill="#648940" d="M199.668,166.718H56.332c-2.709,0-4.906-2.196-4.906-4.906V94.188c0-2.709,2.196-4.906,4.906-4.906
				h143.336c2.709,0,4.906,2.196,4.906,4.906v67.624C204.574,164.521,202.378,166.718,199.668,166.718z"/>
		</g>
		<g>
			<path fill="#76A34F" d="M191.492,158.541H48.155c-2.709,0-4.906-2.196-4.906-4.906V86.011c0-2.709,2.196-4.906,4.906-4.906
				h143.336c2.709,0,4.906,2.196,4.906,4.906v67.624C196.398,156.345,194.201,158.541,191.492,158.541z"/>
		</g>
		<g>
			<path fill="#91B56B" d="M189.677,132.212v-24.776c0-0.854-0.659-1.552-1.51-1.625c-8.562-0.742-15.385-7.739-16.095-16.514
				c-0.069-0.853-0.769-1.516-1.626-1.516H69.2c-0.856,0-1.557,0.662-1.626,1.516c-0.71,8.774-7.533,15.771-16.095,16.514
				c-0.851,0.074-1.51,0.771-1.51,1.625v24.776c0,0.854,0.659,1.552,1.51,1.625c8.562,0.742,15.385,7.739,16.095,16.514
				c0.069,0.853,0.769,1.516,1.626,1.516h101.247c0.856,0,1.557-0.662,1.626-1.516c0.71-8.774,7.533-15.771,16.095-16.514
				C189.018,133.763,189.677,133.065,189.677,132.212z"/>
		</g>
		<g>
			<circle fill="#FFFFFF" cx="119.823" cy="119.823" r="25.267"/>
		</g>
		<g>
			<g>
				<path fill="#648940" d="M122.324,135.576h-5c-4.55,0-8.251-3.701-8.251-8.251c0-1.104,0.896-2,2-2s2,0.896,2,2
					c0,2.344,1.907,4.251,4.251,4.251h5c2.344,0,4.251-1.907,4.251-4.251v-2.501c0-2.344-1.907-4.251-4.251-4.251h-5
					c-4.55,0-8.251-3.701-8.251-8.251s3.702-8.251,8.251-8.251h5c4.55,0,8.251,3.701,8.251,8.251c0,1.104-0.896,2-2,2s-2-0.896-2-2
					c0-2.344-1.907-4.251-4.251-4.251h-5c-2.344,0-4.251,1.907-4.251,4.251s1.907,4.251,4.251,4.251h5
					c4.55,0,8.251,3.701,8.251,8.251v2.501C130.575,131.875,126.874,135.576,122.324,135.576z"/>
			</g>
			<g>
				<path fill="#648940" d="M119.824,138.076c-1.104,0-2-0.896-2-2V103.57c0-1.104,0.896-2,2-2s2,0.896,2,2v32.506
					C121.824,137.181,120.928,138.076,119.824,138.076z"/>
			</g>
		</g>
	</g>
	<g>
		<g>
			<g>
				<g>
					<g>
						<path fill="#FCC4AE" d="M218.043,192.67c-8.406,6.665-37.353,29.18-57.19,39.243c-23.435,11.896-46.024,0-64.377-2.247
							c-10.914-1.639-21.939,5.099-27.87,11.672l-0.133,0.025l-2.495,0.348v-45.477c11-16.393,27.635-14.208,45.552-15.941
							c12.612-1.615,24.887-5.369,36.093-11.407c2.227-1.646,4.624-0.362,5.09,2.213c1.646,9.1-3.83,19.069-12.41,20.906
							c0,0-4.518,1.028-4.518,1.028c-1.575,0.377-1.411,2.597,0.158,2.868c15.75,5.438,31.766,1.849,47.126-4.841
							c10.155-4.418,26.403-15.684,35.563-3.465C219.792,189.146,219.518,191.501,218.043,192.67z"/>
					</g>
					<g>
						<g>
							<path fill="#F2AD97" d="M218.631,187.596c-2.806-3.743-6.277-5.282-10.034-5.49c-0.16,0.208-0.345,0.397-0.554,0.563
								c-8.406,6.665-37.353,29.18-57.19,39.243c-23.435,11.896-46.024,0-64.377-2.246c-7.303-1.097-14.655,1.557-20.498,5.403
								v16.642l2.495-0.348l0.133-0.025c5.931-6.573,16.956-13.311,27.87-11.672c18.353,2.246,40.943,14.142,64.377,2.246
								c19.837-10.063,48.784-32.578,57.19-39.243C219.518,191.501,219.792,189.146,218.631,187.596z"/>
						</g>
					</g>
					<g>
						<g>
							<path fill="#E59076" d="M218.631,187.596c-1.349-1.8-2.852-3.09-4.467-3.967c0.466,1.429,0.053,3.11-1.122,4.041
								c-8.406,6.665-37.353,29.18-57.19,39.243c-23.435,11.896-46.024,0-64.377-2.246c-9.591-1.44-19.267,3.589-25.498,9.29v7.755
								l2.495-0.348l0.133-0.025c5.931-6.573,16.956-13.311,27.87-11.672c18.353,2.246,40.943,14.142,64.377,2.246
								c19.837-10.063,48.784-32.578,57.19-39.243C219.518,191.501,219.792,189.146,218.631,187.596z"/>
						</g>
					</g>
					<g>
						<g>
							<g>
								<g>
									<path fill="#F1F2F2" d="M78.091,240.014l-9.484,1.327l-0.134,0.019l-2.494,0.351l-3.2,0.446
										c-2.063,0.29-3.966-1.152-4.256-3.215l-7.15-51.137c-0.29-2.063,1.148-3.966,3.211-4.256l15.312-2.143
										c0.976-0.133,1.922,0.114,2.673,0.645c0.831,0.572,1.426,1.483,1.583,2.57l0.412,2.959l5.309,37.949l0.946,6.773
										l0.484,3.459C81.592,237.821,80.151,239.724,78.091,240.014z"/>
								</g>
							</g>
							<g>
								<path fill="#E6E7E8" d="M81.303,235.762l-0.484-3.459l-0.946-6.773l-5.309-37.949l-0.412-2.959
									c-0.156-1.087-0.751-1.998-1.583-2.57c-0.689-0.486-1.544-0.72-2.434-0.655l0.284,2.039l5.309,37.949l0.946,6.773
									l0.484,3.459c0.29,2.059-1.152,3.962-3.211,4.252l-9.484,1.327l-0.134,0.019l-2.494,0.351l-3.2,0.446
									c-0.081,0.011-0.159,0.003-0.24,0.009l0.129,0.921c0.29,2.063,2.193,3.505,4.256,3.215l3.2-0.446l2.494-0.351l0.134-0.019
									l9.484-1.327C80.151,239.724,81.592,237.821,81.303,235.762z"/>
							</g>
							<g>
								<path fill="#8C3F0A" d="M41.767,245.527h16.98c2.827,0,5.118-2.292,5.118-5.118v-59.786c0-2.827-2.292-5.118-5.118-5.118
									h-16.98c-2.827,0-5.118,2.292-5.118,5.118v59.786C36.648,243.236,38.94,245.527,41.767,245.527z"/>
							</g>
							<g>
								<path fill="#7C3108" d="M59.637,175.587c0.051,0.29,0.083,0.586,0.083,0.891v59.786c0,2.827-2.292,5.118-5.118,5.118h-16.98
									c-0.304,0-0.601-0.032-0.891-0.083c0.422,2.401,2.514,4.227,5.036,4.227h16.98c2.827,0,5.118-2.292,5.118-5.118v-59.786
									C63.865,178.101,62.038,176.01,59.637,175.587z"/>
							</g>
						</g>
						<g>
							<g>
								
									<ellipse transform="matrix(0.2298 -0.9732 0.9732 0.2298 -181.2824 223.0181)" fill="#FFFFFF" cx="50.256" cy="226.039" rx="5.464" ry="5.464"/>
							</g>
						</g>
						<g>
							<path fill="#E6E7E8" d="M53.198,221.439c0.545,0.85,0.864,1.858,0.864,2.942c0,3.018-2.447,5.464-5.464,5.464
								c-1.084,0-2.092-0.32-2.942-0.864c0.971,1.515,2.666,2.522,4.6,2.522c3.018,0,5.464-2.447,5.464-5.464
								C55.721,224.105,54.714,222.41,53.198,221.439z"/>
						</g>
					</g>
				</g>
			</g>
		</g>
		<g>
			<g>
				<g>
					<g>
						<path fill="#FCC4AE" d="M37.957,63.33c8.406-6.665,37.353-29.18,57.19-39.243c23.435-11.896,46.024,0,64.377,2.247
							c10.914,1.639,21.939-5.099,27.87-11.672l0.133-0.025l2.495-0.348v45.477c-11,16.393-27.635,14.208-45.552,15.941
							c-12.612,1.615-24.887,5.369-36.093,11.407c-2.227,1.646-4.624,0.362-5.09-2.213c-1.646-9.1,3.83-19.069,12.41-20.906
							c0,0,4.518-1.028,4.518-1.028c1.575-0.377,1.411-2.597-0.158-2.868c-15.75-5.438-31.766-1.849-47.126,4.841
							c-10.155,4.418-26.403,15.684-35.563,3.465C36.208,66.854,36.482,64.499,37.957,63.33z"/>
					</g>
					<g>
						<g>
							<path fill="#F2AD97" d="M144.471,65.707c-12.612,1.614-24.887,5.368-36.093,11.407c-1.798,1.329-3.705,0.747-4.619-0.881
								c-0.791,2.784-0.995,5.769-0.471,8.667c0.466,2.575,2.862,3.859,5.09,2.213c11.206-6.038,23.48-9.792,36.093-11.407
								c17.916-1.732,34.552,0.453,45.552-15.941v-10C179.023,66.159,162.387,63.974,144.471,65.707z"/>
						</g>
					</g>
					<g>
						<g>
							<g>
								<g>
									<path fill="#F1F2F2" d="M177.909,15.986l9.484-1.327l0.134-0.019l2.494-0.351l3.2-0.446
										c2.063-0.29,3.966,1.152,4.256,3.215l7.15,51.137c0.29,2.063-1.148,3.966-3.211,4.256l-15.312,2.143
										c-0.976,0.133-1.922-0.114-2.673-0.645c-0.831-0.572-1.426-1.483-1.583-2.57l-0.412-2.959l-5.309-37.949l-0.946-6.773
										l-0.484-3.459C174.408,18.179,175.849,16.276,177.909,15.986z"/>
								</g>
							</g>
							<g>
								<path fill="#8C3F0A" d="M214.233,10.473h-16.98c-2.827,0-5.118,2.292-5.118,5.118v59.786c0,2.827,2.292,5.118,5.118,5.118
									h16.98c2.827,0,5.118-2.292,5.118-5.118V15.591C219.352,12.764,217.06,10.473,214.233,10.473z"/>
							</g>
							<g>
								<path fill="#7C3108" d="M214.35,10.474c0.001,0.039,0.001,0.078,0.001,0.117v59.786c0,2.827-2.292,5.118-5.118,5.118h-16.98
									c-0.039,0-0.078-0.001-0.117-0.001c0.062,2.773,2.329,5.001,5.117,5.001h16.98c2.827,0,5.118-2.292,5.118-5.118V15.591
									C219.352,12.803,217.123,10.536,214.35,10.474z"/>
							</g>
						</g>
						<g>
							<g>
								
									<ellipse transform="matrix(0.2298 -0.9732 0.9732 0.2298 129.314 223.3171)" fill="#FFFFFF" cx="205.744" cy="29.961" rx="5.464" ry="5.464"/>
							</g>
						</g>
					</g>
				</g>
			</g>
		</g>
	</g>
	<g>
		<g>
			<path fill="#FFD2C0" d="M43.71,68.439c-1.824,0.057-2.745-2.483-1.24-3.58c12.88-10.1,37.09-28.369,54.49-37.21
				c10.882-5.562,22.347-5.711,34.85-3.22c2.554,0.543,1.858,4.364-0.76,3.93c-11.622-2.32-22.203-2.275-32.28,2.86
				C80.43,40.51,52.95,61.71,44.95,68c0,0,0,0.01-0.01,0.01C44.59,68.29,44.16,68.439,43.71,68.439z M139.25,30.13
				c-2.95-0.141-2.449-4.493,0.46-3.95C141.989,26.74,141.578,30.12,139.25,30.13z"/>
		</g>
	</g>
</g>
</svg>
