<?xml version="1.0" encoding="utf-8"?>
<!-- Generator: Adobe Illustrator 24.0.0, SVG Export Plug-In . SVG Version: 6.00 Build 0)  -->
<svg version="1.1" id="Layer_1" xmlns="http://www.w3.org/2000/svg" xmlns:xlink="http://www.w3.org/1999/xlink" x="0px" y="0px"
	 viewBox="0 0 256 256" enable-background="new 0 0 256 256" xml:space="preserve">
<g>
	<g>
		<g>
			<path fill="#F1F2F2" d="M220.47,186.529c10.887-17.165,17.129-37.567,16.951-59.439
				c-0.485-59.666-49.676-108.473-109.344-108.514C66.348,18.533,16.537,69.605,18.64,131.795
				c1.928,57.003,48.118,103.39,105.112,105.549c23.294,0.882,45.038-5.527,63.148-17.117c1.644-1.052,3.667-1.322,5.506-0.666
				l30.322,10.819c4.939,1.762,9.707-3.006,7.945-7.945l-10.854-30.422C219.166,190.183,219.43,188.169,220.47,186.529z"/>
		</g>
		<g>
			<path fill="#E6E7E8" d="M219.818,192.013c-0.653-1.83-0.389-3.844,0.652-5.484c10.888-17.165,17.129-37.567,16.951-59.439
				c-0.262-32.202-14.711-61.24-37.336-81.157c16.801,19.085,27.115,43.995,27.336,71.157c0.178,21.872-6.063,42.274-16.951,59.439
				c-1.041,1.64-1.305,3.654-0.652,5.484l10.854,30.422c1.762,4.939-3.006,9.707-7.945,7.945l-30.323-10.819
				c-1.838-0.656-3.862-0.386-5.505,0.666c-18.11,11.591-39.854,18-63.148,17.117c-25.908-0.981-49.583-11.102-67.884-27.205
				c19.218,21.842,46.961,36.033,77.884,37.205c23.294,0.882,45.038-5.527,63.148-17.117c1.644-1.052,3.667-1.322,5.505-0.666
				l30.323,10.819c4.939,1.762,9.707-3.006,7.945-7.945L219.818,192.013z"/>
		</g>
		<g>
			<path fill="#D1D3D4" d="M219.818,192.013c-0.653-1.83-0.389-3.844,0.652-5.484c10.888-17.165,17.129-37.567,16.951-59.439
				c-0.252-30.939-13.599-58.958-34.713-78.772c18.2,19.396,29.482,45.352,29.713,73.772c0.178,21.872-6.063,42.274-16.951,59.439
				c-1.041,1.64-1.305,3.654-0.652,5.484l10.854,30.422c1.762,4.939-3.006,9.707-7.945,7.945l-30.323-10.819
				c-1.838-0.656-3.862-0.386-5.505,0.666c-18.11,11.591-39.854,18-63.148,17.117c-27.16-1.029-51.866-12.101-70.498-29.58
				c19.093,20.349,45.832,33.456,75.498,34.58c23.294,0.882,45.038-5.527,63.148-17.117c1.644-1.052,3.667-1.322,5.505-0.666
				l30.323,10.819c4.939,1.762,9.707-3.006,7.945-7.945L219.818,192.013z"/>
		</g>
		<g>
			<path fill="#FFFFFF" d="M24.64,133.59c-2.837-0.145-1.875-3.751-2.07-5.62C22.113,89.183,45.105,51.908,79.52,34.3
				c10.059-5.21,20.86-8.74,32.11-10.48c2.563-0.315,3.241,3.481,0.61,3.96C64.142,34.418,25.736,79.322,26.57,127.97
				C26.369,129.891,27.564,133.42,24.64,133.59z M119.88,26.89c-2.532-0.036-2.685-3.761-0.16-4
				C122.455,22.75,122.598,26.82,119.88,26.89z"/>
		</g>
	</g>
	<g>
		<g>
			<g>
				<g>
					<g>
						<path fill="#FFA91A" d="M119.493,118.838H59.056c-2.012,0-3.643,1.631-3.643,3.643v60.437c0,2.012,1.631,3.643,3.643,3.643
							h60.437c2.012,0,3.643-1.631,3.643-3.643v-60.437C123.135,120.469,121.504,118.838,119.493,118.838z"/>
					</g>
					<g>
						<path fill="#F79219" d="M119.493,118.838h-1.357v59.079c0,2.012-1.631,3.643-3.643,3.643H55.413v1.357
							c0,2.012,1.631,3.643,3.643,3.643h60.437c2.012,0,3.643-1.631,3.643-3.643v-60.437
							C123.135,120.469,121.504,118.838,119.493,118.838z"/>
					</g>
					<g>
						<path fill="#EF7816" d="M109.436,175.117H98.324c-0.871,0-1.576-0.706-1.576-1.576v-6.551c0-0.871,0.706-1.576,1.576-1.576
							h11.112c0.871,0,1.576,0.706,1.576,1.576v6.551C111.012,174.412,110.307,175.117,109.436,175.117z"/>
					</g>
					<g>
						<path fill="#EF7816" d="M74.088,175.117H63.026c-0.884,0-1.601-0.717-1.601-1.601l0,0c0-0.884,0.717-1.601,1.601-1.601h11.063
							c0.884,0,1.601,0.717,1.601,1.601l0,0C75.69,174.4,74.973,175.117,74.088,175.117z"/>
					</g>
					<g>
						<path fill="#EF7816" d="M74.088,169.392H63.026c-0.884,0-1.601-0.717-1.601-1.601l0,0c0-0.884,0.717-1.601,1.601-1.601h11.063
							c0.884,0,1.601,0.717,1.601,1.601l0,0C75.69,168.675,74.973,169.392,74.088,169.392z"/>
					</g>
					<g>
						<path fill="#EF7816" d="M81.594,118.838v20.885c0,2.012,1.631,3.643,3.643,3.643h8.075c2.012,0,3.643-1.631,3.643-3.643
							v-20.885H81.594z"/>
					</g>
				</g>
			</g>
			<g>
				<g>
					<g>
						<path fill="#FFA91A" d="M196.944,118.838h-60.437c-2.012,0-3.643,1.631-3.643,3.643v60.437c0,2.012,1.631,3.643,3.643,3.643
							h60.437c2.012,0,3.643-1.631,3.643-3.643v-60.437C200.587,120.469,198.956,118.838,196.944,118.838z"/>
					</g>
					<g>
						<path fill="#F79219" d="M196.944,118.838h-1.357v59.079c0,2.012-1.631,3.643-3.643,3.643h-59.079v1.357
							c0,2.012,1.631,3.643,3.643,3.643h60.437c2.012,0,3.643-1.631,3.643-3.643v-60.437
							C200.587,120.469,198.956,118.838,196.944,118.838z"/>
					</g>
					<g>
						<path fill="#EF7816" d="M186.888,175.117h-11.112c-0.871,0-1.576-0.706-1.576-1.576v-6.551c0-0.871,0.706-1.576,1.576-1.576
							h11.112c0.871,0,1.576,0.706,1.576,1.576v6.551C188.464,174.412,187.758,175.117,186.888,175.117z"/>
					</g>
					<g>
						<path fill="#EF7816" d="M151.54,175.117h-11.063c-0.884,0-1.601-0.717-1.601-1.601l0,0c0-0.884,0.717-1.601,1.601-1.601
							h11.063c0.884,0,1.601,0.717,1.601,1.601l0,0C153.141,174.4,152.424,175.117,151.54,175.117z"/>
					</g>
					<g>
						<path fill="#EF7816" d="M151.54,169.392h-11.063c-0.884,0-1.601-0.717-1.601-1.601l0,0c0-0.884,0.717-1.601,1.601-1.601
							h11.063c0.884,0,1.601,0.717,1.601,1.601l0,0C153.141,168.675,152.424,169.392,151.54,169.392z"/>
					</g>
					<g>
						<path fill="#EF7816" d="M159.045,118.838v20.885c0,2.012,1.631,3.643,3.643,3.643h8.075c2.012,0,3.643-1.631,3.643-3.643
							v-20.885H159.045z"/>
					</g>
				</g>
			</g>
		</g>
		<g>
			<g>
				<g>
					<path fill="#FFA91A" d="M158.218,51.116H97.782c-2.012,0-3.643,1.631-3.643,3.643v60.437c0,2.012,1.631,3.643,3.643,3.643
						h60.437c2.012,0,3.643-1.631,3.643-3.643V54.759C161.861,52.747,160.23,51.116,158.218,51.116z"/>
				</g>
				<g>
					<path fill="#F79219" d="M158.218,51.116h-1.357v59.079c0,2.012-1.631,3.643-3.643,3.643H94.139v1.357
						c0,2.012,1.631,3.643,3.643,3.643h60.437c2.012,0,3.643-1.631,3.643-3.643V54.759C161.861,52.747,160.23,51.116,158.218,51.116
						z"/>
				</g>
				<g>
					<path fill="#EF7816" d="M148.162,107.395h-11.112c-0.871,0-1.576-0.706-1.576-1.576v-6.551c0-0.871,0.706-1.576,1.576-1.576
						h11.112c0.871,0,1.576,0.706,1.576,1.576v6.551C149.738,106.689,149.032,107.395,148.162,107.395z"/>
				</g>
				<g>
					<path fill="#EF7816" d="M112.814,107.395h-11.063c-0.884,0-1.601-0.717-1.601-1.601v0c0-0.884,0.717-1.601,1.601-1.601h11.063
						c0.884,0,1.601,0.717,1.601,1.601v0C114.415,106.678,113.698,107.395,112.814,107.395z"/>
				</g>
				<g>
					<path fill="#EF7816" d="M112.814,101.67h-11.063c-0.884,0-1.601-0.717-1.601-1.601v0c0-0.884,0.717-1.601,1.601-1.601h11.063
						c0.884,0,1.601,0.717,1.601,1.601v0C114.415,100.953,113.698,101.67,112.814,101.67z"/>
				</g>
				<g>
					<path fill="#EF7816" d="M120.32,51.116v20.885c0,2.012,1.631,3.643,3.643,3.643h8.075c2.012,0,3.643-1.631,3.643-3.643V51.116
						H120.32z"/>
				</g>
			</g>
		</g>
	</g>
</g>
</svg>
