<?xml version="1.0" encoding="utf-8"?>
<!-- Generator: Adobe Illustrator 24.0.0, SVG Export Plug-In . SVG Version: 6.00 Build 0)  -->
<svg version="1.1" id="Layer_1" xmlns="http://www.w3.org/2000/svg" xmlns:xlink="http://www.w3.org/1999/xlink" x="0px" y="0px"
	 viewBox="0 0 256 256" enable-background="new 0 0 256 256" xml:space="preserve">
<g>
	<g>
		<g>
			<path fill="#F1F2F2" d="M220.47,186.529c10.887-17.165,17.129-37.567,16.951-59.439
				c-0.485-59.666-49.676-108.473-109.344-108.514C66.348,18.533,16.537,69.605,18.64,131.795
				c1.928,57.003,48.118,103.39,105.112,105.549c23.294,0.882,45.038-5.527,63.148-17.117c1.644-1.052,3.667-1.322,5.506-0.666
				l30.322,10.819c4.939,1.762,9.707-3.006,7.945-7.945l-10.854-30.422C219.166,190.183,219.43,188.169,220.47,186.529z"/>
		</g>
		<g>
			<path fill="#E6E7E8" d="M219.818,192.013c-0.653-1.83-0.389-3.844,0.652-5.484c10.888-17.165,17.129-37.567,16.951-59.439
				c-0.262-32.202-14.711-61.24-37.336-81.157c16.801,19.085,27.115,43.995,27.336,71.157c0.178,21.872-6.063,42.274-16.951,59.439
				c-1.041,1.64-1.305,3.654-0.652,5.484l10.854,30.422c1.762,4.939-3.006,9.707-7.945,7.945l-30.323-10.819
				c-1.838-0.656-3.862-0.386-5.505,0.666c-18.11,11.591-39.854,18-63.148,17.117c-25.908-0.981-49.583-11.102-67.884-27.205
				c19.218,21.842,46.961,36.033,77.884,37.205c23.294,0.882,45.038-5.527,63.148-17.117c1.644-1.052,3.667-1.322,5.505-0.666
				l30.323,10.819c4.939,1.762,9.707-3.006,7.945-7.945L219.818,192.013z"/>
		</g>
		<g>
			<path fill="#D1D3D4" d="M219.818,192.013c-0.653-1.83-0.389-3.844,0.652-5.484c10.888-17.165,17.129-37.567,16.951-59.439
				c-0.252-30.939-13.599-58.958-34.713-78.772c18.2,19.396,29.482,45.352,29.713,73.772c0.178,21.872-6.063,42.274-16.951,59.439
				c-1.041,1.64-1.305,3.654-0.652,5.484l10.854,30.422c1.762,4.939-3.006,9.707-7.945,7.945l-30.323-10.819
				c-1.838-0.656-3.862-0.386-5.505,0.666c-18.11,11.591-39.854,18-63.148,17.117c-27.16-1.029-51.866-12.101-70.498-29.58
				c19.093,20.349,45.832,33.456,75.498,34.58c23.294,0.882,45.038-5.527,63.148-17.117c1.644-1.052,3.667-1.322,5.505-0.666
				l30.323,10.819c4.939,1.762,9.707-3.006,7.945-7.945L219.818,192.013z"/>
		</g>
		<g>
			<path fill="#FFFFFF" d="M24.64,133.59c-2.841-0.158-1.871-3.715-2.06-5.62C22.108,89.175,45.111,51.911,79.52,34.3
				c10.059-5.21,20.86-8.74,32.11-10.48c2.559-0.318,3.237,3.486,0.61,3.96C62.868,34.55,23.993,81.646,26.63,131.51
				C26.707,132.63,25.76,133.598,24.64,133.59z M119.88,26.89c-2.534-0.043-2.682-3.766-0.16-4
				C122.466,22.797,122.608,26.787,119.88,26.89z"/>
		</g>
	</g>
	<g>
		<g>
			<g>
				<circle fill="#58595B" cx="81.915" cy="127.996" r="39.441"/>
			</g>
			<g>
				<circle fill="#E6E7E8" cx="81.915" cy="127.996" r="27.359"/>
			</g>
			<g>
				<path fill="#FFA91A" d="M103.44,111.107c-1.355-1.724-2.912-3.281-4.636-4.636l-13.612,13.612v-19.251
					c-1.075-0.128-2.168-0.195-3.278-0.195c-1.109,0-2.203,0.067-3.278,0.195v19.251l-13.612-13.612
					c-1.724,1.354-3.281,2.912-4.636,4.636l13.612,13.612H54.751c-0.128,1.075-0.195,2.169-0.195,3.278
					c0,1.109,0.067,2.203,0.195,3.278h19.251L60.39,144.886c1.355,1.724,2.912,3.281,4.636,4.636l13.612-13.611v19.251
					c1.075,0.128,2.169,0.195,3.278,0.195c1.109,0,2.203-0.067,3.278-0.195V135.91l13.612,13.612
					c1.724-1.355,3.281-2.912,4.636-4.636l-13.612-13.611h19.251c0.128-1.075,0.195-2.169,0.195-3.278
					c0-1.109-0.067-2.203-0.195-3.278H89.828L103.44,111.107z"/>
			</g>
			<g>
				<circle fill="#F79219" cx="81.915" cy="127.996" r="10.956"/>
			</g>
		</g>
		<g>
			<g>
				<path fill="#8C3F0A" d="M174.085,88.563c-21.783,0-39.441,17.658-39.441,39.441c0,21.783,17.658,39.441,39.441,39.441
					s39.441-17.658,39.441-39.441C213.526,106.221,195.868,88.563,174.085,88.563z M174.085,155.363
					c-15.11,0-27.359-12.249-27.359-27.359c0-15.11,12.249-27.359,27.359-27.359s27.359,12.249,27.359,27.359
					C201.444,143.114,189.195,155.363,174.085,155.363z"/>
			</g>
			<g>
				<rect x="138.961" y="122.504" fill="#8C3F0A" width="70.247" height="11"/>
			</g>
			<g>
				
					<rect x="155.086" y="138.628" transform="matrix(-1.836970e-16 1 -1 -1.836970e-16 318.2135 -29.9566)" fill="#8C3F0A" width="37.998" height="11"/>
			</g>
			<g>
				<path fill="#F79219" d="M181.691,138.895h-15.213c-4.583,0-8.298-3.715-8.298-8.298v-5.186c0-4.583,3.715-8.298,8.298-8.298
					h15.213c4.583,0,8.298,3.715,8.298,8.298v5.186C189.989,135.18,186.274,138.895,181.691,138.895z"/>
			</g>
		</g>
	</g>
	<g>
		<g>
			<path fill="#FFA91A" d="M134.75,46.746v40.053c0,0.785-0.214,1.554-0.618,2.226l-5.472,9.089c-0.583,0.968-1.987,0.968-2.57,0
				l-5.472-9.089c-0.405-0.672-0.618-1.442-0.618-2.226V46.746H134.75z"/>
		</g>
		<g>
			<path fill="#EF7816" d="M129.031,89.025l-4.206,6.987l1.265,2.102c0.583,0.969,1.987,0.969,2.57,0l5.472-9.089
				c0.405-0.672,0.618-1.441,0.618-2.226V46.746h-5.101v40.054C129.649,87.584,129.436,88.353,129.031,89.025z"/>
		</g>
		<g>
			<path fill="#F79219" d="M146.564,36.683v7.063c0,1.657-1.343,3-3,3h-31.127c-1.657,0-3-1.343-3-3v-7.063c0-1.657,1.343-3,3-3
				h31.127C145.22,33.682,146.564,35.026,146.564,36.683z"/>
		</g>
		<g>
			<path fill="#EF7816" d="M135.313,36.683v7.063c0,1.657-1.343,3-3,3h11.251c1.657,0,3-1.343,3-3v-7.063c0-1.657-1.343-3-3-3
				h-11.251C133.97,33.682,135.313,35.026,135.313,36.683z"/>
		</g>
		<g>
			<g>
				<path fill="#F79219" d="M137.001,84.404L137.001,84.404c0,1.294-1.049,2.344-2.344,2.344h-14.563
					c-1.294,0-2.344-1.049-2.344-2.344l0,0c0-1.295,1.049-2.344,2.344-2.344h14.563C135.951,82.06,137.001,83.11,137.001,84.404z"/>
			</g>
			<g>
				<path fill="#F79219" d="M137.001,73.731L137.001,73.731c0,1.295-1.049,2.344-2.344,2.344h-14.563
					c-1.294,0-2.344-1.049-2.344-2.344l0,0c0-1.294,1.049-2.344,2.344-2.344h14.563C135.951,71.387,137.001,72.436,137.001,73.731z"
					/>
			</g>
			<g>
				<path fill="#F79219" d="M137.001,63.057L137.001,63.057c0,1.294-1.049,2.344-2.344,2.344h-14.563
					c-1.294,0-2.344-1.049-2.344-2.344l0,0c0-1.295,1.049-2.344,2.344-2.344h14.563C135.951,60.713,137.001,61.763,137.001,63.057z"
					/>
			</g>
			<g>
				<path fill="#F79219" d="M137.001,52.384L137.001,52.384c0,1.294-1.049,2.344-2.344,2.344h-14.563
					c-1.294,0-2.344-1.049-2.344-2.344l0,0c0-1.294,1.049-2.344,2.344-2.344h14.563C135.951,50.04,137.001,51.089,137.001,52.384z"
					/>
			</g>
		</g>
	</g>
	<g>
		<g>
			<path fill="#F79219" d="M157.031,199.208l-7.554-6.716c0.122-1.32,0.122-2.677,0-3.997l7.554-6.715
				c0.78-0.693,0.965-1.839,0.443-2.743l-4.816-8.341c-0.522-0.904-1.606-1.316-2.596-0.987l-9.592,3.184
				c-1.084-0.77-2.243-1.442-3.463-2.003l-2.037-9.895c-0.21-1.022-1.11-1.755-2.153-1.755h-9.632c-1.043,0-1.943,0.733-2.153,1.755
				l-2.038,9.895c-1.22,0.561-2.379,1.233-3.463,2.003l-9.592-3.184c-0.99-0.329-2.075,0.084-2.596,0.987l-4.816,8.341
				c-0.522,0.903-0.337,2.049,0.443,2.743l7.554,6.715c-0.122,1.32-0.122,2.677,0,3.997l-7.554,6.716
				c-0.78,0.693-0.965,1.839-0.443,2.742l4.816,8.342c0.522,0.903,1.606,1.315,2.596,0.987l9.592-3.184
				c1.084,0.77,2.243,1.442,3.463,2.003l2.038,9.895c0.21,1.022,1.11,1.755,2.153,1.755h9.632c1.043,0,1.943-0.733,2.153-1.755
				l2.037-9.895c1.22-0.562,2.379-1.233,3.464-2.003l9.592,3.184c0.99,0.328,2.075-0.084,2.596-0.987l4.816-8.342
				C157.996,201.047,157.811,199.901,157.031,199.208z M128,202.332c-6.538,0-11.837-5.3-11.837-11.837
				c0-6.538,5.3-11.838,11.837-11.838c6.538,0,11.838,5.3,11.838,11.838C139.837,197.032,134.538,202.332,128,202.332z"/>
			<g>
				<g>
					<path fill="#EF7816" d="M128,168.925c-11.912,0-21.569,9.657-21.569,21.569c0,11.912,9.657,21.568,21.569,21.568
						c11.912,0,21.569-9.656,21.569-21.568C149.569,178.582,139.912,168.925,128,168.925z M128,202.332
						c-6.538,0-11.837-5.3-11.837-11.837c0-6.538,5.3-11.838,11.837-11.838c6.538,0,11.837,5.3,11.837,11.838
						C139.837,197.032,134.538,202.332,128,202.332z"/>
				</g>
			</g>
			<path fill="#FFA91A" d="M128,174.242c-8.975,0-16.252,7.276-16.252,16.252c0,8.975,7.276,16.252,16.252,16.252
				c8.976,0,16.252-7.276,16.252-16.252C144.252,181.519,136.975,174.242,128,174.242z M128,202.332
				c-6.538,0-11.837-5.3-11.837-11.837c0-6.538,5.3-11.838,11.837-11.838c6.538,0,11.838,5.3,11.838,11.838
				C139.837,197.032,134.538,202.332,128,202.332z"/>
		</g>
	</g>
</g>
</svg>
