<?xml version="1.0" encoding="utf-8"?>
<!-- Generator: Adobe Illustrator 24.0.0, SVG Export Plug-In . SVG Version: 6.00 Build 0)  -->
<svg version="1.1" id="Layer_1" xmlns="http://www.w3.org/2000/svg" xmlns:xlink="http://www.w3.org/1999/xlink" x="0px" y="0px"
	 viewBox="0 0 256 256" enable-background="new 0 0 256 256" xml:space="preserve">
<g>
	<g>
		<circle fill="#FFA91A" cx="128" cy="128" r="109.424"/>
	</g>
	<g>
		<path fill="#F79219" d="M200.214,45.786c16.939,19.269,27.211,44.542,27.211,72.214c0,60.433-48.991,109.424-109.424,109.424
			c-27.672,0-52.945-10.272-72.214-27.211C65.84,223.027,95.239,237.424,128,237.424c60.433,0,109.424-48.991,109.424-109.424
			C237.424,95.239,223.027,65.84,200.214,45.786z"/>
	</g>
	<g>
		<path fill="#EF7816" d="M202.834,48.166c18.351,19.57,29.59,45.889,29.59,74.834c0,60.433-48.991,109.424-109.424,109.424
			c-28.945,0-55.264-11.239-74.834-29.59c19.964,21.289,48.346,34.59,79.834,34.59c60.433,0,109.424-48.991,109.424-109.424
			C237.424,96.511,224.124,68.13,202.834,48.166z"/>
	</g>
	<g>
		<g>
			<g>
				<g>
					<g>
						<path fill="#E63950" d="M118.658,116.838H52.293c-2.209,0-4,1.791-4,4v66.365c0,2.209,1.791,4,4,4h66.365c2.209,0,4-1.791,4-4
							v-66.365C122.658,118.629,120.867,116.838,118.658,116.838z"/>
					</g>
					<g>
						<path fill="#D10028" d="M107.615,178.638H95.413c-0.956,0-1.731-0.775-1.731-1.731v-7.194c0-0.956,0.775-1.731,1.731-1.731
							h12.202c0.956,0,1.731,0.775,1.731,1.731v7.194C109.346,177.863,108.571,178.638,107.615,178.638z"/>
					</g>
					<g>
						<path fill="#D10028" d="M68.8,178.638H56.652c-0.971,0-1.758-0.787-1.758-1.758l0,0c0-0.971,0.787-1.758,1.758-1.758H68.8
							c0.971,0,1.758,0.787,1.758,1.758l0,0C70.558,177.851,69.771,178.638,68.8,178.638z"/>
					</g>
					<g>
						<path fill="#D10028" d="M68.8,172.351H56.652c-0.971,0-1.758-0.787-1.758-1.758l0,0c0-0.971,0.787-1.758,1.758-1.758H68.8
							c0.971,0,1.758,0.787,1.758,1.758l0,0C70.558,171.564,69.771,172.351,68.8,172.351z"/>
					</g>
					<g>
						<path fill="#D10028" d="M118.658,116.838h-1v65.365c0,2.209-1.791,4-4,4H48.293v1c0,2.209,1.791,4,4,4h66.365
							c2.209,0,4-1.791,4-4v-66.365C122.658,118.629,120.867,116.838,118.658,116.838z"/>
					</g>
					<g>
						<path fill="#D10028" d="M77.042,116.838v22.934c0,2.209,1.791,4,4,4h8.868c2.209,0,4-1.791,4-4v-22.934H77.042z"/>
					</g>
				</g>
			</g>
			<g>
				<g>
					<g>
						<path fill="#E63950" d="M203.707,116.838h-66.365c-2.209,0-4,1.791-4,4v66.365c0,2.209,1.791,4,4,4h66.365
							c2.209,0,4-1.791,4-4v-66.365C207.707,118.629,205.916,116.838,203.707,116.838z"/>
					</g>
					<g>
						<path fill="#D10028" d="M192.664,178.638h-12.202c-0.956,0-1.731-0.775-1.731-1.731v-7.194c0-0.956,0.775-1.731,1.731-1.731
							h12.202c0.956,0,1.731,0.775,1.731,1.731v7.194C194.395,177.863,193.62,178.638,192.664,178.638z"/>
					</g>
					<g>
						<path fill="#D10028" d="M153.849,178.638h-12.148c-0.971,0-1.758-0.787-1.758-1.758l0,0c0-0.971,0.787-1.758,1.758-1.758
							h12.148c0.971,0,1.758,0.787,1.758,1.758l0,0C155.607,177.851,154.82,178.638,153.849,178.638z"/>
					</g>
					<g>
						<path fill="#D10028" d="M153.849,172.351h-12.148c-0.971,0-1.758-0.787-1.758-1.758l0,0c0-0.971,0.787-1.758,1.758-1.758
							h12.148c0.971,0,1.758,0.787,1.758,1.758l0,0C155.607,171.564,154.82,172.351,153.849,172.351z"/>
					</g>
					<g>
						<path fill="#D10028" d="M203.707,116.838h-1v65.365c0,2.209-1.791,4-4,4h-65.365v1c0,2.209,1.791,4,4,4h66.365
							c2.209,0,4-1.791,4-4v-66.365C207.707,118.629,205.916,116.838,203.707,116.838z"/>
					</g>
					<g>
						<path fill="#D10028" d="M162.091,116.838v22.934c0,2.209,1.791,4,4,4h8.868c2.209,0,4-1.791,4-4v-22.934H162.091z"/>
					</g>
				</g>
			</g>
		</g>
		<g>
			<g>
				<g>
					<path fill="#E63950" d="M161.183,42.473H94.817c-2.209,0-4,1.791-4,4v66.365c0,2.209,1.791,4,4,4h66.365c2.209,0,4-1.791,4-4
						V46.473C165.183,44.264,163.392,42.473,161.183,42.473z"/>
				</g>
				<g>
					<path fill="#D10028" d="M150.139,104.273h-12.202c-0.956,0-1.731-0.775-1.731-1.731v-7.194c0-0.956,0.775-1.731,1.731-1.731
						h12.202c0.956,0,1.731,0.775,1.731,1.731v7.194C151.87,103.498,151.095,104.273,150.139,104.273z"/>
				</g>
				<g>
					<path fill="#D10028" d="M111.324,104.273H99.177c-0.971,0-1.758-0.787-1.758-1.758v0c0-0.971,0.787-1.758,1.758-1.758h12.148
						c0.971,0,1.758,0.787,1.758,1.758v0C113.083,103.486,112.295,104.273,111.324,104.273z"/>
				</g>
				<g>
					<path fill="#D10028" d="M111.324,97.986H99.177c-0.971,0-1.758-0.787-1.758-1.758v0c0-0.971,0.787-1.758,1.758-1.758h12.148
						c0.971,0,1.758,0.787,1.758,1.758v0C113.083,97.199,112.295,97.986,111.324,97.986z"/>
				</g>
				<g>
					<path fill="#D10028" d="M161.183,42.473h-1v65.365c0,2.209-1.791,4-4,4H90.817v1c0,2.209,1.791,4,4,4h66.365
						c2.209,0,4-1.791,4-4V46.473C165.183,44.264,163.392,42.473,161.183,42.473z"/>
				</g>
				<g>
					<path fill="#D10028" d="M119.566,42.473v22.934c0,2.209,1.791,4,4,4h8.868c2.209,0,4-1.791,4-4V42.473H119.566z"/>
				</g>
			</g>
		</g>
	</g>
	<g>
		<path fill="#F1F2F2" d="M66.667,78.789l1.76,5.418c0.379,1.167,1.466,1.957,2.693,1.957h5.696c2.743,0,3.884,3.511,1.665,5.123
			l-4.608,3.348c-0.993,0.721-1.408,1.999-1.029,3.166l1.76,5.418c0.848,2.609-2.139,4.779-4.358,3.166l-4.608-3.348
			c-0.993-0.721-2.337-0.721-3.329,0l-4.608,3.348c-2.219,1.613-5.206-0.557-4.358-3.166l1.76-5.418
			c0.379-1.167-0.036-2.445-1.029-3.166l-4.608-3.348c-2.219-1.613-1.079-5.123,1.665-5.123h5.696c1.227,0,2.314-0.79,2.693-1.957
			l1.76-5.418C62.128,76.18,65.819,76.18,66.667,78.789z"/>
	</g>
	<g>
		<path fill="#F1F2F2" d="M194.72,78.789l1.76,5.418c0.379,1.167,1.466,1.957,2.693,1.957h5.696c2.743,0,3.884,3.511,1.665,5.123
			l-4.608,3.348c-0.993,0.721-1.408,1.999-1.029,3.166l1.76,5.418c0.848,2.609-2.139,4.779-4.358,3.166l-4.608-3.348
			c-0.993-0.721-2.337-0.721-3.329,0l-4.608,3.348c-2.219,1.613-5.206-0.557-4.358-3.166l1.76-5.418
			c0.379-1.167-0.036-2.445-1.029-3.166l-4.608-3.348c-2.219-1.613-1.079-5.123,1.665-5.123h5.696c1.227,0,2.314-0.79,2.693-1.957
			l1.76-5.418C190.181,76.18,193.872,76.18,194.72,78.789z"/>
	</g>
	<g>
		<path fill="#F1F2F2" d="M130.693,195.667l1.76,5.418c0.379,1.167,1.467,1.957,2.693,1.957h5.696c2.743,0,3.884,3.511,1.665,5.123
			l-4.608,3.348c-0.993,0.721-1.408,1.999-1.029,3.166l1.76,5.418c0.848,2.609-2.139,4.779-4.358,3.166l-4.608-3.348
			c-0.993-0.721-2.337-0.721-3.329,0l-4.608,3.348c-2.219,1.613-5.206-0.557-4.358-3.166l1.76-5.418
			c0.379-1.167-0.036-2.445-1.029-3.166l-4.608-3.348c-2.219-1.613-1.079-5.123,1.665-5.123h5.696c1.227,0,2.314-0.79,2.693-1.957
			l1.76-5.418C126.154,193.058,129.846,193.058,130.693,195.667z"/>
	</g>
	<g>
		<path fill="#FFC91D" d="M24.63,133.59c-2.821-0.144-1.874-3.766-2.06-5.62C22.114,89.184,45.105,51.899,79.52,34.3
			c10.059-5.21,20.86-8.74,32.11-10.47c2.561-0.32,3.238,3.471,0.61,3.95C64.135,34.429,25.738,79.316,26.57,127.97
			C26.379,129.938,27.572,133.409,24.63,133.59z M119.88,26.89c-2.534-0.035-2.683-3.767-0.16-4
			C122.464,22.762,122.604,26.794,119.88,26.89z"/>
	</g>
</g>
</svg>
