<?xml version="1.0" encoding="utf-8"?>
<!-- Generator: Adobe Illustrator 24.0.0, SVG Export Plug-In . SVG Version: 6.00 Build 0)  -->
<svg version="1.1" id="Layer_1" xmlns="http://www.w3.org/2000/svg" xmlns:xlink="http://www.w3.org/1999/xlink" x="0px" y="0px"
	 viewBox="0 0 256 256" enable-background="new 0 0 256 256" xml:space="preserve">
<g>
	<g>
		<g>
			<g>
				<path fill="#478CF7" d="M190.098,240.001H65.902c-2.509,0-4.544-2.034-4.544-4.544V67.265c0-2.509,2.034-4.544,4.544-4.544
					h124.196c2.509,0,4.544,2.034,4.544,4.544v168.193C194.642,237.967,192.607,240.001,190.098,240.001z"/>
			</g>
			<g>
				<path fill="#377DE2" d="M190.098,62.721h-1.724v166.469c0,2.51-2.034,4.544-4.544,4.544H61.358v1.724
					c0,2.51,2.034,4.544,4.544,4.544h124.196c2.509,0,4.544-2.035,4.544-4.544V67.265C194.642,64.755,192.607,62.721,190.098,62.721
					z"/>
			</g>
			<g>
				<path fill="#377DE2" d="M190.098,62.721H65.902c-2.509,0-4.544,2.034-4.544,4.544v49.984h133.284V67.265
					C194.642,64.755,192.607,62.721,190.098,62.721z"/>
			</g>
			<g>
				<path fill="#5E9CF7" d="M67.36,86.99c-1.1,0-2-0.9-2-2c0-1.11,0.9-2,2-2s2,0.89,2,2C69.36,86.09,68.46,86.99,67.36,86.99z
					 M67.36,78.99c-1.1,0-2-0.9-2-2v-8.27c0-0.53,0.21-1.04,0.58-1.41c0.38-0.38,0.89-0.59,1.42-0.59h121.28c1.11,0,2,0.9,2,2
					s-0.89,2-2,2H69.36v6.27C69.36,78.09,68.46,78.99,67.36,78.99z"/>
			</g>
		</g>
		<g>
			<g>
				<path fill="#FFA91A" d="M182.767,109.356H73.232c-1.255,0-2.272-1.017-2.272-2.272V92.412c0-1.255,1.017-2.272,2.272-2.272
					h109.535c1.255,0,2.272,1.017,2.272,2.272v14.673C185.039,108.339,184.022,109.356,182.767,109.356z"/>
			</g>
		</g>
		<g>
			<path fill="#F79219" d="M182.767,90.14h-7.728v6.944c0,1.255-1.017,2.272-2.272,2.272H70.961v7.728
				c0,1.255,1.017,2.272,2.272,2.272h109.535c1.255,0,2.272-1.017,2.272-2.272V92.412C185.039,91.157,184.022,90.14,182.767,90.14z"
				/>
		</g>
		<g>
			<path fill="#EF7816" d="M182.767,90.14h-2.728v11.944c0,1.255-1.017,2.272-2.272,2.272H70.961v2.728
				c0,1.255,1.017,2.272,2.272,2.272h109.535c1.255,0,2.272-1.017,2.272-2.272V92.412C185.039,91.157,184.022,90.14,182.767,90.14z"
				/>
		</g>
		<g>
			<g>
				<g>
					<path fill="#D1D3D4" d="M165.427,126.419c0-1.022-0.829-1.851-1.851-1.851H153.22c-1.023,0-1.851,0.829-1.851,1.851v1.139
						c0,1.023,0.829,1.851,1.851,1.851h10.355c1.023,0,1.851-0.829,1.851-1.851V126.419z"/>
				</g>
			</g>
			<g>
				<g>
					<path fill="#D1D3D4" d="M185.039,126.419c0-1.022-0.829-1.851-1.851-1.851h-10.355c-1.023,0-1.851,0.829-1.851,1.851v1.139
						c0,1.023,0.829,1.851,1.851,1.851h10.355c1.023,0,1.851-0.829,1.851-1.851V126.419z"/>
				</g>
			</g>
			<g>
				<g>
					<path fill="#D1D3D4" d="M145.815,126.419c0-1.022-0.829-1.851-1.851-1.851h-10.355c-1.023,0-1.851,0.829-1.851,1.851v1.139
						c0,1.023,0.829,1.851,1.851,1.851h10.355c1.023,0,1.851-0.829,1.851-1.851V126.419z"/>
				</g>
			</g>
		</g>
		<g>
			<path fill="#FFFFFF" d="M93.845,143.053v15.775c0,2.51-2.034,4.544-4.544,4.544H75.504c-2.509,0-4.544-2.035-4.544-4.544v-15.775
				c0-2.509,2.034-4.543,4.544-4.543h13.797C91.811,138.51,93.845,140.544,93.845,143.053z M89.301,170.886H75.504
				c-2.509,0-4.544,2.034-4.544,4.543v15.775c0,2.51,2.034,4.543,4.544,4.543h13.797c2.509,0,4.544-2.034,4.544-4.543V175.43
				C93.845,172.92,91.811,170.886,89.301,170.886z M89.301,203.262H75.504c-2.509,0-4.544,2.034-4.544,4.543v15.775
				c0,2.51,2.034,4.543,4.544,4.543h13.797c2.509,0,4.544-2.034,4.544-4.543v-15.775C93.845,205.296,91.811,203.262,89.301,203.262z
				 M119.699,138.51h-13.797c-2.509,0-4.544,2.035-4.544,4.543v15.775c0,2.51,2.034,4.544,4.544,4.544h13.797
				c2.509,0,4.544-2.035,4.544-4.544v-15.775C124.243,140.544,122.209,138.51,119.699,138.51z M119.699,170.886h-13.797
				c-2.509,0-4.544,2.034-4.544,4.543v15.775c0,2.51,2.034,4.543,4.544,4.543h13.797c2.509,0,4.544-2.034,4.544-4.543V175.43
				C124.243,172.92,122.209,170.886,119.699,170.886z M119.699,203.262h-13.797c-2.509,0-4.544,2.034-4.544,4.543v15.775
				c0,2.51,2.034,4.543,4.544,4.543h13.797c2.509,0,4.544-2.034,4.544-4.543v-15.775
				C124.243,205.296,122.209,203.262,119.699,203.262z M150.097,138.51h-13.797c-2.509,0-4.544,2.035-4.544,4.543v15.775
				c0,2.51,2.034,4.544,4.544,4.544h13.797c2.509,0,4.544-2.035,4.544-4.544v-15.775C154.641,140.544,152.607,138.51,150.097,138.51
				z M150.097,170.886h-13.797c-2.509,0-4.544,2.034-4.544,4.543v15.775c0,2.51,2.034,4.543,4.544,4.543h13.797
				c2.509,0,4.544-2.034,4.544-4.543V175.43C154.641,172.92,152.607,170.886,150.097,170.886z M150.097,203.262h-13.797
				c-2.509,0-4.544,2.034-4.544,4.543v15.775c0,2.51,2.034,4.543,4.544,4.543h13.797c2.509,0,4.544-2.034,4.544-4.543v-15.775
				C154.641,205.296,152.607,203.262,150.097,203.262z M180.496,138.51h-13.797c-2.509,0-4.544,2.035-4.544,4.543v15.775
				c0,2.51,2.034,4.544,4.544,4.544h13.797c2.509,0,4.544-2.035,4.544-4.544v-15.775C185.039,140.544,183.005,138.51,180.496,138.51
				z M180.496,170.886h-13.797c-2.509,0-4.544,2.034-4.544,4.543v15.775c0,2.51,2.034,4.543,4.544,4.543h13.797
				c2.509,0,4.544-2.034,4.544-4.543V175.43C185.039,172.92,183.005,170.886,180.496,170.886z M180.496,203.262h-13.797
				c-2.509,0-4.544,2.034-4.544,4.543v15.775c0,2.51,2.034,4.543,4.544,4.543h13.797c2.509,0,4.544-2.034,4.544-4.543v-15.775
				C185.039,205.296,183.005,203.262,180.496,203.262z"/>
		</g>
		<g>
			<g>
				<path fill="#E6E7E8" d="M121.405,171.218c0.213,0.527,0.331,1.102,0.331,1.705v15.775c0,2.51-2.034,4.543-4.544,4.543h-13.797
					c-0.603,0-1.179-0.118-1.706-0.331c0.674,1.664,2.306,2.838,4.213,2.838h13.797c2.509,0,4.544-2.034,4.544-4.543V175.43
					C124.243,173.524,123.069,171.892,121.405,171.218z"/>
			</g>
			<g>
				<path fill="#E6E7E8" d="M121.405,203.593c0.213,0.526,0.331,1.102,0.331,1.705v15.775c0,2.51-2.034,4.543-4.544,4.543h-13.797
					c-0.603,0-1.179-0.118-1.706-0.331c0.674,1.664,2.306,2.838,4.213,2.838h13.797c2.509,0,4.544-2.034,4.544-4.543v-15.775
					C124.243,205.9,123.069,204.268,121.405,203.593z"/>
			</g>
			<g>
				<path fill="#E6E7E8" d="M91.007,171.218c0.213,0.527,0.331,1.102,0.331,1.705v15.775c0,2.51-2.034,4.543-4.544,4.543H72.997
					c-0.603,0-1.179-0.118-1.706-0.331c0.674,1.664,2.306,2.838,4.213,2.838h13.797c2.509,0,4.544-2.034,4.544-4.543V175.43
					C93.845,173.524,92.671,171.892,91.007,171.218z"/>
			</g>
			<g>
				<path fill="#E6E7E8" d="M91.007,203.593c0.213,0.526,0.331,1.102,0.331,1.705v15.775c0,2.51-2.034,4.543-4.544,4.543H72.997
					c-0.603,0-1.179-0.118-1.706-0.331c0.674,1.664,2.306,2.838,4.213,2.838h13.797c2.509,0,4.544-2.034,4.544-4.543v-15.775
					C93.845,205.9,92.671,204.268,91.007,203.593z"/>
			</g>
			<g>
				<path fill="#E6E7E8" d="M91.007,138.841c0.213,0.527,0.331,1.102,0.331,1.705v15.775c0,2.51-2.034,4.544-4.544,4.544H72.997
					c-0.603,0-1.179-0.118-1.705-0.331c0.675,1.664,2.306,2.838,4.212,2.838h13.797c2.509,0,4.544-2.035,4.544-4.544v-15.775
					C93.845,141.147,92.671,139.516,91.007,138.841z"/>
			</g>
			<g>
				<path fill="#E6E7E8" d="M121.405,138.841c0.213,0.527,0.331,1.102,0.331,1.705v15.775c0,2.51-2.034,4.544-4.544,4.544h-13.797
					c-0.603,0-1.179-0.118-1.705-0.331c0.675,1.664,2.306,2.838,4.212,2.838h13.797c2.509,0,4.544-2.035,4.544-4.544v-15.775
					C124.243,141.147,123.069,139.516,121.405,138.841z"/>
			</g>
			<g>
				<path fill="#E6E7E8" d="M151.803,203.593c0.213,0.526,0.331,1.102,0.331,1.705v15.775c0,2.51-2.034,4.543-4.544,4.543h-13.797
					c-0.603,0-1.179-0.118-1.706-0.331c0.674,1.664,2.306,2.838,4.213,2.838h13.797c2.509,0,4.544-2.034,4.544-4.543v-15.775
					C154.641,205.9,153.467,204.268,151.803,203.593z"/>
			</g>
			<g>
				<path fill="#E6E7E8" d="M182.201,138.841c0.213,0.527,0.331,1.102,0.331,1.705v15.775c0,2.51-2.034,4.544-4.544,4.544h-13.797
					c-0.603,0-1.179-0.118-1.705-0.331c0.674,1.664,2.306,2.838,4.212,2.838h13.797c2.509,0,4.544-2.035,4.544-4.544v-15.775
					C185.039,141.147,183.865,139.516,182.201,138.841z"/>
			</g>
			<g>
				<path fill="#E6E7E8" d="M182.201,171.218c0.213,0.527,0.331,1.102,0.331,1.705v15.775c0,2.51-2.034,4.543-4.544,4.543h-13.797
					c-0.603,0-1.179-0.118-1.706-0.331c0.674,1.664,2.306,2.838,4.213,2.838h13.797c2.509,0,4.544-2.034,4.544-4.543V175.43
					C185.039,173.524,183.865,171.892,182.201,171.218z"/>
			</g>
			<g>
				<path fill="#E6E7E8" d="M151.803,171.218c0.213,0.527,0.331,1.102,0.331,1.705v15.775c0,2.51-2.034,4.543-4.544,4.543h-13.797
					c-0.603,0-1.179-0.118-1.706-0.331c0.674,1.664,2.306,2.838,4.213,2.838h13.797c2.509,0,4.544-2.034,4.544-4.543V175.43
					C154.641,173.524,153.467,171.892,151.803,171.218z"/>
			</g>
			<g>
				<path fill="#E6E7E8" d="M151.803,138.841c0.213,0.527,0.331,1.102,0.331,1.705v15.775c0,2.51-2.034,4.544-4.544,4.544h-13.797
					c-0.603,0-1.179-0.118-1.705-0.331c0.675,1.664,2.306,2.838,4.212,2.838h13.797c2.509,0,4.544-2.035,4.544-4.544v-15.775
					C154.641,141.147,153.467,139.516,151.803,138.841z"/>
			</g>
			<g>
				<path fill="#E6E7E8" d="M182.201,203.593c0.213,0.526,0.331,1.102,0.331,1.705v15.775c0,2.51-2.034,4.543-4.544,4.543h-13.797
					c-0.603,0-1.179-0.118-1.706-0.331c0.674,1.664,2.306,2.838,4.213,2.838h13.797c2.509,0,4.544-2.034,4.544-4.543v-15.775
					C185.039,205.9,183.865,204.268,182.201,203.593z"/>
			</g>
		</g>
		<g>
			<g>
				<path fill="#2266D3" d="M121.971,122.597H73.232c-1.255,0-2.272,1.017-2.272,2.272v5.538c0,1.255,1.017,2.272,2.272,2.272
					h48.739c1.255,0,2.272-1.017,2.272-2.272v-5.538C124.243,123.614,123.226,122.597,121.971,122.597z"/>
			</g>
		</g>
	</g>
	<g>
		<g>
			<g>
				<path fill="#2266D3" d="M157.138,78.102H98.862c-2.262,0-4.096-1.834-4.096-4.096v0c0-2.262,1.834-4.096,4.096-4.096h58.275
					c2.262,0,4.096,1.834,4.096,4.096v0C161.234,76.268,159.4,78.102,157.138,78.102z"/>
			</g>
			<g>
				<g>
					<path fill="#EF7816" d="M161.234,49.233c0,7.858-2.732,15.073-7.283,20.766c-2.614,3.265-5.836,6.023-9.482,8.103h-32.938
						c-3.646-2.081-6.868-4.838-9.482-8.103c-4.551-5.693-7.283-12.908-7.283-20.766c0-18.355,14.879-33.234,33.234-33.234
						C146.355,15.999,161.234,30.877,161.234,49.233z"/>
				</g>
				<g>
					<circle fill="#FFA91A" cx="128" cy="49.233" r="26.092"/>
				</g>
				<g>
					<path fill="#F79219" d="M143.781,28.452c3.333,4.382,5.312,9.85,5.312,15.781c0,14.41-11.682,26.092-26.092,26.092
						c-5.93,0-11.398-1.979-15.781-5.312C111.985,71.28,119.52,75.325,128,75.325c14.41,0,26.092-11.682,26.092-26.092
						C154.092,40.753,150.047,33.218,143.781,28.452z"/>
				</g>
			</g>
		</g>
		<g>
			<g>
				<path fill="#FFFFFF" d="M130.462,64.938h-4.924c-4.497,0-8.155-3.658-8.155-8.155c0-1.104,0.896-2,2-2s2,0.896,2,2
					c0,2.291,1.864,4.155,4.155,4.155h4.924c2.291,0,4.155-1.864,4.155-4.155v-2.462c0-2.291-1.864-4.155-4.155-4.155h-4.924
					c-4.497,0-8.155-3.658-8.155-8.155s3.658-8.155,8.155-8.155h4.924c4.497,0,8.155,3.658,8.155,8.155c0,1.104-0.896,2-2,2
					s-2-0.896-2-2c0-2.291-1.864-4.155-4.155-4.155h-4.924c-2.291,0-4.155,1.864-4.155,4.155s1.864,4.155,4.155,4.155h4.924
					c4.497,0,8.155,3.658,8.155,8.155v2.462C138.617,61.28,134.958,64.938,130.462,64.938z"/>
			</g>
			<g>
				<path fill="#FFFFFF" d="M128,67.4c-1.104,0-2-0.896-2-2V33.395c0-1.104,0.896-2,2-2s2,0.896,2,2V65.4
					C130,66.504,129.104,67.4,128,67.4z"/>
			</g>
		</g>
	</g>
</g>
</svg>
