<?xml version="1.0" encoding="utf-8"?>
<!-- Generator: Adobe Illustrator 24.0.0, SVG Export Plug-In . SVG Version: 6.00 Build 0)  -->
<svg version="1.1" id="Layer_1" xmlns="http://www.w3.org/2000/svg" xmlns:xlink="http://www.w3.org/1999/xlink" x="0px" y="0px"
	 viewBox="0 0 256 256" enable-background="new 0 0 256 256" xml:space="preserve">
<g>
	<g>
		<g>
			<path fill="#8C3F0A" d="M112.03,84.989L79.931,44.134c-4.317-5.495-12.602-5.607-17.067-0.232L28.789,84.924
				c-1.636,1.97-2.532,4.45-2.532,7.01v113.154c0,6.059,4.912,10.971,10.971,10.971h66.173c6.059,0,10.971-4.912,10.971-10.971
				V91.767C114.374,89.309,113.548,86.922,112.03,84.989z M70.316,76.864c-4.555,0-8.247-3.692-8.247-8.247
				c0-4.555,3.692-8.247,8.247-8.247s8.247,3.692,8.247,8.247C78.563,73.172,74.87,76.864,70.316,76.864z"/>
		</g>
		<g>
			<g>
				<path fill="#7C3108" d="M112.03,84.989L79.931,44.134c-1.341-1.707-3.066-2.895-4.94-3.56l27.038,34.415
					c1.519,1.933,2.344,4.32,2.344,6.778v113.322c0,6.059-4.912,10.971-10.971,10.971H27.229c-0.314,0-0.624-0.014-0.932-0.04
					c0.473,5.623,5.186,10.04,10.932,10.04h66.173c6.059,0,10.971-4.912,10.971-10.971V91.767
					C114.374,89.309,113.548,86.922,112.03,84.989z"/>
			</g>
		</g>
		<g>
			<g>
				<path fill="#6D2E03" d="M112.03,84.989L79.931,44.134c-0.933-1.188-2.052-2.123-3.277-2.807l30.375,38.662
					c1.519,1.933,2.344,4.32,2.344,6.778v113.322c0,6.059-4.912,10.971-10.971,10.971H32.229c-1.739,0-3.384-0.406-4.845-1.126
					c1.789,3.629,5.525,6.126,9.845,6.126h66.173c6.059,0,10.971-4.912,10.971-10.971V91.767
					C114.374,89.309,113.548,86.922,112.03,84.989z"/>
			</g>
		</g>
		<g>
			<path fill="#808285" d="M227.398,84.989L195.3,44.134c-4.317-5.495-12.602-5.607-17.067-0.232l-34.075,41.023
				c-1.636,1.97-2.532,4.45-2.532,7.01v113.154c0,6.059,4.912,10.971,10.971,10.971h66.173c6.059,0,10.971-4.912,10.971-10.971
				V91.767C229.742,89.309,228.917,86.922,227.398,84.989z M185.684,76.864c-4.555,0-8.247-3.692-8.247-8.247
				c0-4.555,3.692-8.247,8.247-8.247s8.247,3.692,8.247,8.247C193.931,73.172,190.239,76.864,185.684,76.864z"/>
		</g>
		<g>
			<g>
				<path fill="#58595B" d="M227.398,84.989L195.3,44.134c-0.933-1.188-2.052-2.123-3.277-2.807l30.375,38.662
					c1.519,1.933,2.344,4.32,2.344,6.778v113.322c0,6.059-4.912,10.971-10.971,10.971h-66.173c-1.739,0-3.384-0.406-4.845-1.126
					c1.789,3.629,5.525,6.126,9.845,6.126h66.173c6.059,0,10.971-4.912,10.971-10.971V91.767
					C229.742,89.309,228.917,86.922,227.398,84.989z"/>
			</g>
		</g>
	</g>
	<g>
		<g>
			<path fill="#FFFFFF" d="M75.204,176.731h-9.777c-7.842,0-14.221-6.379-14.221-14.221c0-1.104,0.896-2,2-2s2,0.896,2,2
				c0,5.636,4.585,10.221,10.221,10.221h9.777c5.636,0,10.221-4.585,10.221-10.221v-4.889c0-5.636-4.585-10.221-10.221-10.221
				h-9.777c-7.842,0-14.221-6.379-14.221-14.221c0-7.842,6.379-14.221,14.221-14.221h9.777c7.842,0,14.221,6.379,14.221,14.221
				c0,1.104-0.896,2-2,2s-2-0.896-2-2c0-5.636-4.585-10.221-10.221-10.221h-9.777c-5.636,0-10.221,4.585-10.221,10.221
				S59.792,143.4,65.427,143.4h9.777c7.842,0,14.221,6.379,14.221,14.221v4.889C89.425,170.352,83.046,176.731,75.204,176.731z"/>
		</g>
		<g>
			<path fill="#FFFFFF" d="M70.316,181.62c-1.104,0-2-0.896-2-2v-63.55c0-1.104,0.896-2,2-2s2,0.896,2,2v63.55
				C72.316,180.724,71.42,181.62,70.316,181.62z"/>
		</g>
	</g>
	<g>
		<g>
			<g>
				<circle fill="#58595B" cx="185.684" cy="141.979" r="32.86"/>
			</g>
		</g>
		<g>
			<path fill="#414042" d="M206.286,116.378c4.541,5.635,7.258,12.801,7.258,20.601c0,18.148-14.712,32.86-32.86,32.86
				c-7.8,0-14.966-2.718-20.601-7.258c6.023,7.476,15.254,12.258,25.601,12.258c18.148,0,32.86-14.712,32.86-32.86
				C218.544,131.631,213.762,122.401,206.286,116.378z"/>
		</g>
		<g>
			<g>
				<g>
					<path fill="#FFA91A" d="M182.23,156.556c-1.423,0-2.846-0.543-3.932-1.628l-10.95-10.95c-2.171-2.172-2.171-5.692,0-7.864
						c2.172-2.171,5.692-2.171,7.864,0l7.018,7.019l13.927-13.928c2.172-2.171,5.692-2.171,7.864,0c2.171,2.172,2.171,5.692,0,7.864
						l-17.859,17.859C185.076,156.013,183.653,156.556,182.23,156.556z"/>
				</g>
			</g>
		</g>
		<g>
			<g>
				<path fill="#F79219" d="M204.02,129.206c-0.95-0.949-2.157-1.483-3.397-1.602c0.153,1.595-0.381,3.244-1.603,4.466
					l-17.859,17.859c-1.086,1.085-2.508,1.628-3.932,1.628c-1.423,0-2.846-0.543-3.932-1.628l5,5
					c1.086,1.085,2.509,1.628,3.932,1.628c1.423,0,2.846-0.543,3.932-1.628l17.859-17.859
					C206.192,134.897,206.192,131.378,204.02,129.206z"/>
			</g>
		</g>
	</g>
	<g>
		<g>
			<path fill="#FFA91A" d="M143.014,44.083h-30.029c-3.008,0-5.446-2.438-5.446-5.446v0c0-3.008,2.438-5.446,5.446-5.446h30.029
				c3.008,0,5.446,2.438,5.446,5.446v0C148.46,41.645,146.022,44.083,143.014,44.083z"/>
		</g>
		<g>
			<path fill="#F79219" d="M143.443,33.208c0.011,0.142,0.017,0.285,0.017,0.429l0,0c0,3.008-2.438,5.446-5.446,5.446h-30.029
				c-0.144,0-0.287-0.006-0.429-0.017c0.219,2.807,2.566,5.017,5.429,5.017h30.029c3.008,0,5.446-2.438,5.446-5.446l0,0
				C148.46,35.774,146.25,33.427,143.443,33.208z"/>
		</g>
		<g>
			<path fill="#FFA91A" d="M143.014,64.892h-30.029c-3.008,0-5.446-2.438-5.446-5.446v0c0-3.008,2.438-5.446,5.446-5.446h30.029
				c3.008,0,5.446,2.438,5.446,5.446v0C148.46,62.453,146.022,64.892,143.014,64.892z"/>
		</g>
		<g>
			<path fill="#F79219" d="M143.443,54.017c0.011,0.142,0.017,0.285,0.017,0.429c0,3.008-2.438,5.446-5.446,5.446h-30.029
				c-0.144,0-0.287-0.006-0.429-0.017c0.219,2.807,2.566,5.017,5.429,5.017h30.029c3.008,0,5.446-2.438,5.446-5.446
				C148.46,56.583,146.25,54.235,143.443,54.017z"/>
		</g>
	</g>
	<g>
		<path fill="#995222" d="M32.26,192.66c-1.11,0-2-0.9-2-2V91.94c0-1.63,0.57-3.21,1.61-4.46l11.39-13.71
			c1.708-1.937,4.721,0.457,3.08,2.55c0,0-11.4,13.72-11.4,13.72c-0.44,0.53-0.68,1.2-0.68,1.9v98.71
			C34.265,191.753,33.363,192.66,32.26,192.66z M49.91,70.89c-1.691,0.051-2.653-2.128-1.48-3.348
			c0.715-0.779,2.037-0.856,2.827-0.134C52.606,68.554,51.684,70.958,49.91,70.89z"/>
	</g>
</g>
</svg>
