<?xml version="1.0" encoding="utf-8"?>
<!-- Generator: Adobe Illustrator 24.0.0, SVG Export Plug-In . SVG Version: 6.00 Build 0)  -->
<svg version="1.1" id="Layer_1" xmlns="http://www.w3.org/2000/svg" xmlns:xlink="http://www.w3.org/1999/xlink" x="0px" y="0px"
	 viewBox="0 0 256 256" enable-background="new 0 0 256 256" xml:space="preserve">
<g>
	<g>
		<g>
			<g>
				<path fill="#76A34F" d="M128,46.5c-45.011,0-81.5,36.489-81.5,81.5s36.489,81.5,81.5,81.5s81.5-36.489,81.5-81.5
					S173.011,46.5,128,46.5z"/>
			</g>
			<g>
				<path fill="#648940" d="M180.413,65.587C192.325,79.756,199.5,98.04,199.5,118c0,45.011-36.489,81.5-81.5,81.5
					c-19.96,0-38.244-7.176-52.413-19.087C80.537,198.197,102.949,209.5,128,209.5c45.011,0,81.5-36.489,81.5-81.5
					C209.5,102.948,198.197,80.537,180.413,65.587z"/>
			</g>
			<g>
				<path fill="#5A7A39" d="M183.075,67.925C196.38,82.429,204.5,101.766,204.5,123c0,45.011-36.489,81.5-81.5,81.5
					c-21.234,0-40.571-8.12-55.075-21.425C82.823,199.318,104.222,209.5,128,209.5c45.011,0,81.5-36.489,81.5-81.5
					C209.5,104.222,199.318,82.823,183.075,67.925z"/>
			</g>
			<g>
				<g>
					<path fill="#5A7A39" d="M207.383,109.467l19.814-17.48c2.983-2.632,3.699-7.002,1.709-10.448l-10.539-18.254
						c-1.989-3.445-6.131-5.011-9.902-3.743l-25.269,8.495C195.021,78.927,203.616,93.27,207.383,109.467z"/>
				</g>
				<g>
					<path fill="#648940" d="M28.803,91.987l19.814,17.48c3.767-16.197,12.362-30.539,24.187-41.43l-25.269-8.495
						c-3.771-1.268-7.914,0.298-9.902,3.743L27.094,81.539C25.104,84.985,25.819,89.355,28.803,91.987z"/>
				</g>
				<g>
					<path fill="#648940" d="M128,46.5c8.304,0,16.316,1.242,23.864,3.551l-5.132-25.407c-0.787-3.9-4.215-6.704-8.194-6.704
						h-21.077c-3.979,0-7.406,2.804-8.194,6.704l-5.132,25.407C111.684,47.742,119.696,46.5,128,46.5z"/>
				</g>
				<g>
					<path fill="#5A7A39" d="M226.553,162.897l-19.066-16.82c-3.636,16.058-12.014,30.315-23.583,41.225l23.917,8.041
						c3.771,1.268,7.914-0.298,9.902-3.744l10.539-18.254C230.252,169.9,229.537,165.53,226.553,162.897z"/>
				</g>
				<g>
					<path fill="#5A7A39" d="M128,209.5c-8.304,0-16.316-1.242-23.864-3.551l5.132,25.407c0.787,3.9,4.215,6.704,8.194,6.704h21.077
						c3.979,0,7.406-2.804,8.194-6.704l5.132-25.407C144.316,208.258,136.304,209.5,128,209.5z"/>
				</g>
				<g>
					<path fill="#648940" d="M48.513,146.077l-19.066,16.82c-2.983,2.633-3.699,7.003-1.709,10.448l10.539,18.254
						c1.989,3.446,6.131,5.012,9.902,3.744l23.917-8.041C60.526,176.392,52.149,162.135,48.513,146.077z"/>
				</g>
			</g>
		</g>
	</g>
	<g>
		<g>
			<path fill="#FFA91A" d="M89.442,124.879L76.99,103.504c-1.032-1.772-3.591-1.772-4.623,0l-12.451,21.375
				c-1.039,1.784,0.248,4.022,2.312,4.022h4.523v23.323c0,0.883,0.716,1.599,1.599,1.599h12.658c0.883,0,1.599-0.716,1.599-1.599
				v-23.323h4.523C89.194,128.901,90.481,126.663,89.442,124.879z"/>
		</g>
		<g>
			<g>
				<path fill="#F79219" d="M89.442,124.879L76.99,103.504c-0.616-1.058-1.777-1.484-2.832-1.278l10.283,17.653
					c1.039,1.784-0.248,4.022-2.312,4.022h-4.523v23.323c0,0.883-0.716,1.599-1.599,1.599H66.75v3.401
					c0,0.883,0.716,1.599,1.599,1.599h12.658c0.883,0,1.599-0.716,1.599-1.599v-23.323h4.523
					C89.194,128.901,90.481,126.663,89.442,124.879z"/>
			</g>
		</g>
		<g>
			<path fill="#FFA91A" d="M196.084,124.879l-12.451-21.375c-1.032-1.772-3.591-1.772-4.623,0l-12.451,21.375
				c-1.039,1.784,0.248,4.022,2.312,4.022h4.523v23.323c0,0.883,0.716,1.599,1.599,1.599h12.658c0.883,0,1.599-0.716,1.599-1.599
				v-23.323h4.523C195.836,128.901,197.123,126.663,196.084,124.879z"/>
		</g>
		<g>
			<g>
				<path fill="#F79219" d="M196.084,124.879l-12.451-21.375c-0.616-1.058-1.777-1.484-2.832-1.278l10.283,17.653
					c1.039,1.784-0.248,4.022-2.312,4.022h-4.523v23.323c0,0.883-0.716,1.599-1.599,1.599h-9.258v3.401
					c0,0.883,0.716,1.599,1.599,1.599h12.658c0.883,0,1.599-0.716,1.599-1.599v-23.323h4.523
					C195.836,128.901,197.123,126.663,196.084,124.879z"/>
			</g>
		</g>
	</g>
	<g>
		<path fill="#91B56B" d="M52.5,130c-1.1,0-2-0.9-2-2c-0.228-27.591,15.493-54.237,39.58-67.58c0.94-0.521,2.21-0.16,2.73,0.76
			c0.54,0.97,0.2,2.19-0.76,2.73C68.88,76.96,54.5,101.52,54.5,128C54.5,129.1,53.6,130,52.5,130z M98.23,60.62
			c-2.134,0.035-2.769-3.015-0.8-3.84C100.443,55.727,101.422,60.412,98.23,60.62z"/>
	</g>
	<g>
		<g>
			<path fill="#FFFFFF" d="M135.394,170.663h-14.787c-11.294,0-20.483-9.188-20.483-20.483c0-1.104,0.896-2,2-2s2,0.896,2,2
				c0,9.089,7.394,16.483,16.483,16.483h14.787c9.089,0,16.483-7.395,16.483-16.483v-7.393c0-9.089-7.394-16.483-16.483-16.483
				h-14.787c-11.294,0-20.483-9.188-20.483-20.483s9.188-20.483,20.483-20.483h14.787c11.294,0,20.483,9.188,20.483,20.483
				c0,1.104-0.896,2-2,2s-2-0.896-2-2c0-9.089-7.394-16.483-16.483-16.483h-14.787c-9.089,0-16.483,7.395-16.483,16.483
				s7.394,16.483,16.483,16.483h14.787c11.294,0,20.483,9.188,20.483,20.483v7.393C155.876,161.475,146.688,170.663,135.394,170.663
				z"/>
		</g>
		<g>
			<path fill="#FFFFFF" d="M128,178.057c-1.104,0-2-0.896-2-2V79.943c0-1.104,0.896-2,2-2s2,0.896,2,2v96.113
				C130,177.161,129.104,178.057,128,178.057z"/>
		</g>
	</g>
</g>
</svg>
