<?xml version="1.0" encoding="utf-8"?>
<!-- Generator: Adobe Illustrator 24.0.0, SVG Export Plug-In . SVG Version: 6.00 Build 0)  -->
<svg version="1.1" id="Layer_1" xmlns="http://www.w3.org/2000/svg" xmlns:xlink="http://www.w3.org/1999/xlink" x="0px" y="0px"
	 viewBox="0 0 256 256" enable-background="new 0 0 256 256" xml:space="preserve">
<g>
	<g>
		<g>
			<g>
				<path fill="#F1F2F2" d="M200.2,227.388H55.8c-4.119,0-7.458-3.339-7.458-7.458V36.07c0-4.119,3.339-7.458,7.458-7.458H200.2
					c4.119,0,7.458,3.339,7.458,7.458V219.93C207.658,224.049,204.319,227.388,200.2,227.388z"/>
			</g>
			<g>
				<path fill="#FFFFFF" d="M54.34,181.27c-1.1,0-2-0.9-2-2c0-1.1,0.9-2,2-2c1.11,0,2,0.9,2,2
					C56.34,180.37,55.45,181.27,54.34,181.27z M54.34,173.27c-1.1,0-2-0.9-2-2v-88c0-1.1,0.9-2,2-2c1.11,0,2,0.9,2,2v88
					C56.34,172.37,55.45,173.27,54.34,173.27z"/>
			</g>
		</g>
		<g>
			<g>
				<g>
					<path fill="#FFA91A" d="M158.788,190.694H97.206c-1.657,0-3-1.343-3-3s1.343-3,3-3h61.583c1.657,0,3,1.343,3,3
						S160.445,190.694,158.788,190.694z"/>
				</g>
				<g>
					<path fill="#939598" d="M178.278,208.811H77.715c-1.657,0-3-1.343-3-3s1.343-3,3-3h100.563c1.657,0,3,1.343,3,3
						S179.935,208.811,178.278,208.811z"/>
				</g>
			</g>
		</g>
		<g>
			<path fill="#E6E7E8" d="M200.2,28.612H55.8c-4.119,0-7.458,3.339-7.458,7.458v2.542H190.2c4.119,0,7.458,3.339,7.458,7.458
				v181.317h2.542c4.119,0,7.458-3.339,7.458-7.458V36.07C207.658,31.951,204.319,28.612,200.2,28.612z"/>
		</g>
		<g>
			<path fill="#D1D3D4" d="M200.2,28.612H55.8c-3.373,0-6.223,2.24-7.145,5.314c0.679-0.204,1.399-0.314,2.145-0.314H195.2
				c4.119,0,7.458,3.339,7.458,7.458V224.93c0,0.746-0.11,1.465-0.314,2.145c3.074-0.921,5.314-3.771,5.314-7.145V36.07
				C207.658,31.951,204.319,28.612,200.2,28.612z"/>
		</g>
		<g>
			<g>
				<g>
					<g>
						<g>
							<path fill="#8C3F0A" d="M115.111,107.326l-4.266-12.953c-0.302-0.918-1.442-1.231-2.171-0.597l-10.288,8.952
								c-1.01,0.878-2.545-0.087-2.19-1.378l14.01-50.959l21.502,5.911l-14.01,50.959
								C117.343,108.552,115.529,108.597,115.111,107.326z"/>
						</g>
					</g>
					<g>
						<g>
							<path fill="#7C3108" d="M110.206,50.392l-0.535,1.946l14.424,3.966l-11.733,42.675l2.749,8.348
								c0.418,1.271,2.232,1.226,2.587-0.065l14.01-50.958L110.206,50.392z"/>
						</g>
					</g>
					<g>
						<g>
							<path fill="#8C3F0A" d="M140.889,107.326l4.266-12.953c0.302-0.918,1.442-1.231,2.171-0.597l10.288,8.952
								c1.01,0.878,2.545-0.087,2.19-1.378l-14.01-50.959l-21.502,5.911l14.01,50.959
								C138.657,108.552,140.471,108.597,140.889,107.326z"/>
						</g>
					</g>
					<g>
						<g>
							<path fill="#7C3108" d="M159.804,101.351l-14.01-50.959l-7.078,1.946l12.268,44.622l6.63,5.769
								C158.624,103.607,160.159,102.641,159.804,101.351z"/>
						</g>
					</g>
				</g>
				<g>
					<g>
						<path fill="#FFC91D" d="M133.145,10.742L133.145,10.742c4.371-4.841,12.4-1.515,12.067,4.998v0
							c-0.21,4.102,3.174,7.485,7.276,7.276l0,0c6.514-0.333,9.84,7.696,4.998,12.067l0,0c-3.049,2.752-3.049,7.537,0,10.29l0,0
							c4.841,4.371,1.515,12.4-4.998,12.067l0,0c-4.102-0.21-7.485,3.174-7.276,7.276l0,0c0.333,6.514-7.696,9.84-12.067,4.998l0,0
							c-2.752-3.049-7.537-3.049-10.29,0l0,0c-4.371,4.841-12.4,1.515-12.067-4.998l0,0c0.21-4.102-3.174-7.485-7.276-7.276l0,0
							c-6.514,0.333-9.84-7.697-4.998-12.067l0,0c3.049-2.752,3.049-7.537,0-10.29l0,0c-4.841-4.371-1.515-12.4,4.998-12.067l0,0
							c4.102,0.209,7.485-3.174,7.276-7.276v0c-0.333-6.514,7.696-9.84,12.067-4.998l0,0
							C125.608,13.79,130.392,13.79,133.145,10.742z"/>
					</g>
				</g>
				<g>
					<g>
						
							<ellipse transform="matrix(0.8847 -0.4662 0.4662 0.8847 -3.9921 64.3196)" fill="#F79219" cx="128" cy="40.228" rx="22.517" ry="22.517"/>
					</g>
				</g>
				<g>
					<g>
						<circle fill="#8C3F0A" cx="128" cy="40.228" r="17.457"/>
					</g>
				</g>
				<g>
					<g>
						<path fill="#FFC91D" d="M130.571,30.234l0.95,2.924c0.362,1.114,1.4,1.868,2.571,1.868h3.075c2.618,0,3.707,3.351,1.589,4.89
							l-2.487,1.807c-0.947,0.688-1.344,1.908-0.982,3.022l0.95,2.924c0.809,2.49-2.041,4.561-4.16,3.022l-2.487-1.807
							c-0.947-0.688-2.23-0.688-3.178,0l-2.487,1.807c-2.118,1.539-4.969-0.532-4.16-3.022l0.95-2.924
							c0.362-1.114-0.035-2.334-0.982-3.022l-2.487-1.807c-2.118-1.539-1.03-4.89,1.589-4.89h3.075c1.171,0,2.209-0.754,2.571-1.868
							l0.95-2.924C126.238,27.744,129.762,27.744,130.571,30.234z"/>
					</g>
				</g>
			</g>
		</g>
	</g>
	<g>
		<g>
			<g>
				<g>
					<g>
						<g>
							<path fill="#478CF7" d="M157.548,128.518l0.002,0.007c0.147-0.394,0.472-0.711,0.902-0.827l7.773-2.097
								c0.79-0.213,1.585,0.326,1.679,1.138l0.525,4.503c0.077,0.659-0.341,1.276-0.982,1.448l-9.692,2.608
								c-0.739,0.199-1.515-0.148-1.86-0.831l0,0c-0.202-0.4-0.229-0.867-0.073-1.288L157.548,128.518z"/>
						</g>
					</g>
				</g>
				<g>
					<g>
						<g>
							<path fill="#478CF7" d="M98.452,128.518l-0.002,0.007c-0.147-0.394-0.472-0.711-0.902-0.827l-7.773-2.097
								c-0.79-0.213-1.585,0.326-1.679,1.138l-0.525,4.503c-0.077,0.659,0.341,1.276,0.982,1.448l9.692,2.608
								c0.739,0.199,1.515-0.148,1.86-0.831l0,0c0.202-0.4,0.229-0.867,0.073-1.288L98.452,128.518z"/>
						</g>
					</g>
				</g>
			</g>
			<g>
				<g>
					<g>
						<path fill="#58595B" d="M103.739,174.42H93.495c-1.997,0-3.615-1.619-3.615-3.616v-17.34c0-1.997,1.619-3.615,3.615-3.615
							h10.244c1.997,0,3.616,1.619,3.616,3.615v17.34C107.354,172.801,105.735,174.42,103.739,174.42z"/>
					</g>
				</g>
				<g>
					<g>
						<path fill="#58595B" d="M162.505,174.42h-10.244c-1.997,0-3.615-1.619-3.615-3.616v-17.34c0-1.997,1.619-3.615,3.615-3.615
							h10.244c1.997,0,3.615,1.619,3.615,3.615v17.34C166.121,172.801,164.502,174.42,162.505,174.42z"/>
					</g>
				</g>
			</g>
			<g>
				<g>
					<path fill="#5E9CF7" d="M161.327,165.89H94.673c-1.634,0-3.016-1.206-3.239-2.824l-2.759-20.068
						c-0.641-4.663,2.982-8.818,7.689-8.818h63.272c4.707,0,8.33,4.156,7.689,8.818l-2.759,20.068
						C164.344,164.684,162.961,165.89,161.327,165.89z"/>
				</g>
			</g>
			<g>
				<path fill="#478CF7" d="M162.024,134.553c0.348,1.073,0.467,2.242,0.301,3.445l-2.759,20.068
					c-0.222,1.618-1.605,2.824-3.239,2.824H91.135l0.299,2.176c0.222,1.618,1.605,2.824,3.239,2.824h66.655
					c1.634,0,3.016-1.206,3.239-2.824l2.759-20.068C167.852,139.163,165.495,135.672,162.024,134.553z"/>
			</g>
			<g>
				<g>
					<path fill="#377DE2" d="M89.914,152.011l1.52,11.055c0.222,1.618,1.605,2.824,3.239,2.824h66.655
						c1.634,0,3.016-1.206,3.239-2.824l1.52-11.055H89.914z"/>
				</g>
			</g>
			<g>
				<g>
					<path fill="#5E9CF7" d="M148.078,115.54h-40.156c-2.427,0-4.597,1.515-5.433,3.793l-5.447,14.846h61.916l-5.447-14.846
						C152.675,117.055,150.505,115.54,148.078,115.54z"/>
				</g>
			</g>
			<g>
				<g>
					<path fill="#D1D3D4" d="M110.365,147.942H95.658c-0.704,0-1.299-0.52-1.394-1.218l-0.297-2.2
						c-0.114-0.844,0.542-1.595,1.394-1.595h14.707c0.704,0,1.299,0.521,1.394,1.218l0.297,2.2
						C111.873,147.192,111.216,147.942,110.365,147.942z"/>
				</g>
			</g>
			<g>
				<g>
					<path fill="#D1D3D4" d="M145.635,147.942h14.707c0.704,0,1.3-0.52,1.394-1.218l0.297-2.2c0.114-0.844-0.542-1.595-1.394-1.595
						h-14.707c-0.704,0-1.299,0.521-1.394,1.218l-0.297,2.2C144.127,147.192,144.784,147.942,145.635,147.942z"/>
				</g>
			</g>
			<g>
				<g>
					<path fill="#E6E7E8" d="M152.806,134.179h-49.612l4.167-12.269c0.445-1.308,1.472-2.157,2.61-2.157h36.058
						c1.138,0,2.165,0.849,2.61,2.157L152.806,134.179z"/>
				</g>
			</g>
		</g>
	</g>
</g>
</svg>
