<?xml version="1.0" encoding="utf-8"?>
<!-- Generator: Adobe Illustrator 24.0.0, SVG Export Plug-In . SVG Version: 6.00 Build 0)  -->
<svg version="1.1" id="Layer_1" xmlns="http://www.w3.org/2000/svg" xmlns:xlink="http://www.w3.org/1999/xlink" x="0px" y="0px"
	 viewBox="0 0 256 256" enable-background="new 0 0 256 256" xml:space="preserve">
<g>
	<g>
		<g>
			<g>
				<g>
					<g>
						<g>
							<path fill="#E6E7E8" d="M198.447,214.636l16.027-16.027c0.311-0.311,0.648-0.577,0.999-0.816l-11.771-11.771
								c-5.134,6.706-11.136,12.708-17.842,17.842l11.772,11.771C197.87,215.284,198.137,214.946,198.447,214.636z"/>
						</g>
						<g>
							<path fill="#D1D3D4" d="M210.488,192.801l-17.865,17.819l4.993,5.007c0.239-0.35,0.506-0.687,0.817-0.998l16.048-16.007
								c0.311-0.31,0.649-0.576,1-0.814L210.488,192.801z"/>
						</g>
						<g>
							<path fill="#8C3F0A" d="M219.141,245.007l-20.694-20.694c-2.672-2.672-2.672-7.005,0-9.677l16.027-16.027
								c2.672-2.672,7.005-2.672,9.677,0l20.694,20.694c2.672,2.672,2.672,7.005,0,9.677l-16.027,16.027
								C226.146,247.679,221.813,247.679,219.141,245.007z"/>
						</g>
						<g>
							<path fill="#7C3108" d="M244.846,219.302l-5-4.999c2.671,2.672,2.671,7.004,0,9.676l-16.028,16.027
								c-2.672,2.672-7.005,2.672-9.677,0l5,5c2.672,2.672,7.005,2.672,9.677,0l16.028-16.027
								C247.518,226.307,247.518,221.975,244.846,219.302z"/>
						</g>
					</g>
					<g>
						<g>
							<path fill="#E6E7E8" d="M127.949,32.741c-52.671,0-95.369,42.698-95.369,95.369s42.698,95.369,95.369,95.369
								s95.369-42.698,95.369-95.369S180.619,32.741,127.949,32.741z M127.949,200.054c-39.734,0-71.944-32.21-71.944-71.944
								s32.21-71.944,71.944-71.944s71.944,32.211,71.944,71.944S167.682,200.054,127.949,200.054z"/>
						</g>
						<g>
							<path fill="#D1D3D4" d="M127.949,47.845c-44.329,0-80.264,35.935-80.264,80.264s35.935,80.264,80.264,80.264
								s80.264-35.935,80.264-80.264S172.277,47.845,127.949,47.845z M127.949,200.054c-39.734,0-71.944-32.21-71.944-71.944
								s32.21-71.944,71.944-71.944s71.944,32.211,71.944,71.944S167.682,200.054,127.949,200.054z"/>
						</g>
					</g>
				</g>
			</g>
			<g>
				<circle fill="#E63950" cx="127.935" cy="128.11" r="71.944"/>
			</g>
			<g>
				<path fill="#E8566F" d="M61.99,130.11c-1.1,0-2-0.9-2-2s0.9-2,2-2s2,0.9,2,2S63.09,130.11,61.99,130.11z M62.47,122.13
					c-0.08,0-0.16,0-0.24-0.01c-0.53-0.07-1-0.33-1.33-0.76c-0.33-0.42-0.48-0.94-0.41-1.47c1.98-16.34,9.88-31.43,22.24-42.46
					c12.46-11.13,28.52-17.26,45.2-17.26c1.11,0,2.01,0.89,2.01,2c0,1.1-0.899,2-2.01,2h-0.01c-32.3,0-59.59,24.16-63.46,56.2
					C64.33,121.38,63.48,122.13,62.47,122.13z"/>
			</g>
			<g>
				<path fill="#D10028" d="M149.684,59.512c18.278,13.046,30.195,34.43,30.195,58.598c0,39.734-32.21,71.944-71.944,71.944
					c-7.581,0-14.888-1.173-21.75-3.346c11.772,8.403,26.184,13.346,41.75,13.346c39.734,0,71.944-32.21,71.944-71.944
					C199.879,95.957,178.787,68.73,149.684,59.512z"/>
			</g>
		</g>
	</g>
	<g>
		<g>
			<circle fill="#808285" cx="128" cy="203.521" r="32.86"/>
		</g>
	</g>
	<g>
		<path fill="#58595B" d="M145.694,175.827c3.27,5.108,5.166,11.179,5.166,17.694c0,18.148-14.712,32.86-32.86,32.86
			c-6.515,0-12.587-1.896-17.694-5.166c5.839,9.12,16.061,15.166,27.694,15.166c18.148,0,32.86-14.712,32.86-32.86
			C160.86,191.887,154.815,181.666,145.694,175.827z"/>
	</g>
	<g>
		<path fill="#414042" d="M148.602,177.919c4.541,5.635,7.258,12.801,7.258,20.602c0,18.148-14.712,32.86-32.86,32.86
			c-7.8,0-14.966-2.718-20.601-7.259c6.023,7.476,15.254,12.259,25.601,12.259c18.148,0,32.86-14.712,32.86-32.86
			C160.86,193.173,156.077,183.943,148.602,177.919z"/>
	</g>
	<g>
		<g>
			<g>
				<path fill="#FFA91A" d="M124.545,218.098c-1.423,0-2.846-0.543-3.932-1.628l-10.95-10.95c-2.171-2.172-2.171-5.692,0-7.864
					c2.172-2.171,5.692-2.171,7.864,0l7.018,7.019l13.927-13.928c2.172-2.171,5.692-2.171,7.864,0c2.171,2.172,2.171,5.692,0,7.864
					l-17.859,17.859C127.391,217.555,125.969,218.098,124.545,218.098z"/>
			</g>
		</g>
	</g>
	<g>
		<g>
			<path fill="#F79219" d="M146.336,190.748c-0.95-0.949-2.157-1.483-3.397-1.602c0.153,1.595-0.381,3.244-1.603,4.466
				l-17.859,17.859c-1.086,1.085-2.508,1.628-3.932,1.628c-1.423,0-2.845-0.543-3.931-1.627l4.999,4.999
				c1.086,1.085,2.509,1.628,3.932,1.628c1.423,0,2.846-0.543,3.932-1.628l17.859-17.859
				C148.507,196.439,148.507,192.919,146.336,190.748z"/>
		</g>
		<g>
			<path fill="#F79219" d="M119.545,199.675L119.545,199.675l-2.018-2.019c-0.007-0.007-0.014-0.013-0.02-0.02L119.545,199.675z"/>
		</g>
	</g>
	<g>
		<g>
			<g>
				<g>
					<g>
						<path fill="#FFA91A" d="M122.269,116.331H81.553c-1.355,0-2.454,1.099-2.454,2.454v40.716c0,1.355,1.099,2.454,2.454,2.454
							h40.716c1.355,0,2.454-1.099,2.454-2.454v-40.716C124.723,117.43,123.624,116.331,122.269,116.331z"/>
					</g>
					<g>
						<path fill="#F79219" d="M122.269,116.331h-2.546v38.17c0,1.355-1.099,2.454-2.454,2.454h-38.17v2.546
							c0,1.355,1.099,2.454,2.454,2.454h40.716c1.355,0,2.454-1.099,2.454-2.454v-40.716
							C124.723,117.43,123.624,116.331,122.269,116.331z"/>
					</g>
					<g>
						<path fill="#EF7816" d="M115.494,154.246h-7.486c-0.587,0-1.062-0.475-1.062-1.062v-4.414c0-0.587,0.475-1.062,1.062-1.062
							h7.486c0.587,0,1.062,0.475,1.062,1.062v4.414C116.556,153.77,116.08,154.246,115.494,154.246z"/>
					</g>
					<g>
						<path fill="#EF7816" d="M91.68,154.246h-7.453c-0.596,0-1.079-0.483-1.079-1.079l0,0c0-0.596,0.483-1.079,1.079-1.079h7.453
							c0.596,0,1.079,0.483,1.079,1.079l0,0C92.759,153.763,92.276,154.246,91.68,154.246z"/>
					</g>
					<g>
						<path fill="#EF7816" d="M91.68,150.389h-7.453c-0.596,0-1.079-0.483-1.079-1.079l0,0c0-0.596,0.483-1.079,1.079-1.079h7.453
							c0.596,0,1.079,0.483,1.079,1.079l0,0C92.759,149.906,92.276,150.389,91.68,150.389z"/>
					</g>
					<g>
						<path fill="#EF7816" d="M96.737,116.331v14.07c0,1.355,1.099,2.454,2.454,2.454h5.44c1.355,0,2.454-1.099,2.454-2.454v-14.07
							H96.737z"/>
					</g>
				</g>
			</g>
			<g>
				<g>
					<g>
						<path fill="#FFA91A" d="M174.447,116.331h-40.716c-1.355,0-2.454,1.099-2.454,2.454v40.716c0,1.355,1.099,2.454,2.454,2.454
							h40.716c1.355,0,2.454-1.099,2.454-2.454v-40.716C176.901,117.43,175.802,116.331,174.447,116.331z"/>
					</g>
					<g>
						<path fill="#F79219" d="M174.447,116.331h-2.546v38.17c0,1.355-1.099,2.454-2.454,2.454h-38.17v2.546
							c0,1.355,1.099,2.454,2.454,2.454h40.716c1.355,0,2.454-1.099,2.454-2.454v-40.716
							C176.901,117.43,175.802,116.331,174.447,116.331z"/>
					</g>
					<g>
						<path fill="#EF7816" d="M167.672,154.246h-7.486c-0.587,0-1.062-0.475-1.062-1.062v-4.414c0-0.587,0.475-1.062,1.062-1.062
							h7.486c0.587,0,1.062,0.475,1.062,1.062v4.414C168.734,153.77,168.259,154.246,167.672,154.246z"/>
					</g>
					<g>
						<path fill="#EF7816" d="M143.859,154.246h-7.453c-0.596,0-1.079-0.483-1.079-1.079l0,0c0-0.596,0.483-1.079,1.079-1.079h7.453
							c0.596,0,1.079,0.483,1.079,1.079l0,0C144.937,153.763,144.454,154.246,143.859,154.246z"/>
					</g>
					<g>
						<path fill="#EF7816" d="M143.859,150.389h-7.453c-0.596,0-1.079-0.483-1.079-1.079l0,0c0-0.596,0.483-1.079,1.079-1.079h7.453
							c0.596,0,1.079,0.483,1.079,1.079l0,0C144.937,149.906,144.454,150.389,143.859,150.389z"/>
					</g>
					<g>
						<path fill="#EF7816" d="M148.915,116.331v14.07c0,1.355,1.099,2.454,2.454,2.454h5.44c1.355,0,2.454-1.099,2.454-2.454v-14.07
							H148.915z"/>
					</g>
				</g>
			</g>
		</g>
		<g>
			<g>
				<g>
					<path fill="#FFA91A" d="M148.358,70.707h-40.716c-1.355,0-2.454,1.099-2.454,2.454v40.716c0,1.355,1.099,2.454,2.454,2.454
						h40.716c1.355,0,2.454-1.099,2.454-2.454V73.161C150.812,71.806,149.713,70.707,148.358,70.707z"/>
				</g>
				<g>
					<path fill="#F79219" d="M148.358,70.707h-2.546v38.17c0,1.355-1.099,2.454-2.454,2.454h-38.17v2.546
						c0,1.355,1.099,2.454,2.454,2.454h40.716c1.355,0,2.454-1.099,2.454-2.454V73.161
						C150.812,71.806,149.713,70.707,148.358,70.707z"/>
				</g>
				<g>
					<path fill="#EF7816" d="M141.583,108.622h-7.486c-0.587,0-1.062-0.475-1.062-1.062v-4.414c0-0.587,0.475-1.062,1.062-1.062
						h7.486c0.587,0,1.062,0.475,1.062,1.062v4.414C142.645,108.147,142.169,108.622,141.583,108.622z"/>
				</g>
				<g>
					<path fill="#EF7816" d="M117.769,108.622h-7.453c-0.596,0-1.079-0.483-1.079-1.079v0c0-0.596,0.483-1.079,1.079-1.079h7.453
						c0.596,0,1.079,0.483,1.079,1.079v0C118.848,108.139,118.365,108.622,117.769,108.622z"/>
				</g>
				<g>
					<path fill="#EF7816" d="M117.769,104.765h-7.453c-0.596,0-1.079-0.483-1.079-1.079v0c0-0.596,0.483-1.079,1.079-1.079h7.453
						c0.596,0,1.079,0.483,1.079,1.079v0C118.848,104.282,118.365,104.765,117.769,104.765z"/>
				</g>
				<g>
					<path fill="#EF7816" d="M122.826,70.707v14.07c0,1.355,1.099,2.454,2.454,2.454h5.44c1.355,0,2.454-1.099,2.454-2.454v-14.07
						H122.826z"/>
				</g>
			</g>
		</g>
	</g>
</g>
</svg>
