<?xml version="1.0" encoding="utf-8"?>
<!-- Generator: Adobe Illustrator 24.0.0, SVG Export Plug-In . SVG Version: 6.00 Build 0)  -->
<svg version="1.1" id="Layer_1" xmlns="http://www.w3.org/2000/svg" xmlns:xlink="http://www.w3.org/1999/xlink" x="0px" y="0px"
	 viewBox="0 0 256 256" enable-background="new 0 0 256 256" xml:space="preserve">
<g>
	<g>
		<path fill="#E63950" d="M127.949,32.741c-52.671,0-95.369,42.698-95.369,95.369s42.698,95.369,95.369,95.369
			s95.369-42.698,95.369-95.369S180.619,32.741,127.949,32.741z M127.949,200.054c-39.734,0-71.944-32.21-71.944-71.944
			s32.21-71.944,71.944-71.944s71.944,32.211,71.944,71.944S167.682,200.054,127.949,200.054z"/>
	</g>
	<g>
		<path fill="#E8566F" d="M38.58,130.11c-1.101,0-2-0.9-2-2v-0.01c0.01-1.1,0.899-1.99,2-1.99c1.1,0,2,0.9,2,2
			S39.68,130.11,38.58,130.11z M38.93,122.12c-0.05,0-0.11,0-0.17,0c-0.53-0.05-1.02-0.3-1.36-0.71c-0.34-0.41-0.51-0.93-0.46-1.46
			c2.021-22.63,12.38-43.6,29.2-59.07C83.05,45.32,105,36.74,127.95,36.74c1.1,0,2,0.9,2,2s-0.9,2-2,2
			c-44.841,0-83.061,34.95-87.021,79.56v0.01C40.83,121.34,39.97,122.12,38.93,122.12z"/>
	</g>
	<g>
		<g>
			<path fill="#B7022D" d="M192.838,58.22c15.811,17.021,25.479,39.826,25.479,64.889c0,52.671-42.698,95.369-95.369,95.369
				c-25.063,0-47.869-9.669-64.89-25.479c17.415,18.748,42.282,30.479,69.89,30.479c52.671,0,95.369-42.698,95.369-95.369
				C223.317,100.503,211.586,75.635,192.838,58.22z"/>
		</g>
	</g>
	<g>
		<circle fill="#FFA91A" cx="127.935" cy="128.11" r="71.944"/>
	</g>
	<g>
		<path fill="#F79219" d="M173.562,72.482c10.196,12.416,16.317,28.307,16.317,45.627c0,39.734-32.21,71.944-71.944,71.944
			c-17.32,0-33.211-6.121-45.627-16.317c13.194,16.067,33.214,26.317,55.627,26.317c39.734,0,71.944-32.21,71.944-71.944
			C199.879,105.696,189.629,85.677,173.562,72.482z"/>
	</g>
	<g>
		<path fill="#EF7816" d="M176.246,74.799c11.579,12.769,18.633,29.716,18.633,48.311c0,39.734-32.21,71.944-71.944,71.944
			c-18.595,0-35.542-7.055-48.311-18.633c13.163,14.516,32.172,23.633,53.311,23.633c39.734,0,71.944-32.21,71.944-71.944
			C199.879,106.971,190.762,87.961,176.246,74.799z"/>
	</g>
	<g>
		<g>
			<g>
				<g>
					<g>
						<g>
							<path fill="#478CF7" d="M164.917,103.947l0.003,0.009c0.186-0.498,0.597-0.899,1.14-1.046l9.829-2.652
								c0.999-0.269,2.004,0.412,2.124,1.439l0.664,5.694c0.097,0.834-0.431,1.613-1.241,1.831l-12.255,3.298
								c-0.934,0.251-1.916-0.187-2.352-1.051v0c-0.256-0.506-0.289-1.096-0.092-1.628L164.917,103.947z"/>
						</g>
					</g>
				</g>
				<g>
					<g>
						<g>
							<path fill="#478CF7" d="M90.19,103.947l-0.003,0.009c-0.186-0.498-0.597-0.899-1.14-1.046l-9.829-2.652
								c-0.999-0.269-2.004,0.412-2.124,1.439l-0.664,5.694c-0.097,0.834,0.431,1.613,1.241,1.831l12.255,3.298
								c0.934,0.251,1.916-0.187,2.352-1.051v0c0.256-0.506,0.289-1.096,0.092-1.628L90.19,103.947z"/>
						</g>
					</g>
				</g>
			</g>
			<g>
				<g>
					<g>
						<path fill="#414042" d="M96.875,161.99H83.922c-2.525,0-4.572-2.047-4.572-4.572v-21.926c0-2.525,2.047-4.572,4.572-4.572
							h12.953c2.525,0,4.572,2.047,4.572,4.572v21.926C101.447,159.943,99.4,161.99,96.875,161.99z"/>
					</g>
				</g>
				<g>
					<g>
						<path fill="#414042" d="M171.186,161.99h-12.953c-2.525,0-4.572-2.047-4.572-4.572v-21.926c0-2.525,2.047-4.572,4.572-4.572
							h12.953c2.525,0,4.572,2.047,4.572,4.572v21.926C175.757,159.943,173.711,161.99,171.186,161.99z"/>
					</g>
				</g>
			</g>
			<g>
				<g>
					<path fill="#5E9CF7" d="M169.696,151.203H85.412c-2.066,0-3.814-1.525-4.096-3.571l-3.489-25.376
						c-0.811-5.896,3.771-11.151,9.723-11.151h80.008c5.952,0,10.533,5.255,9.723,11.151l-3.489,25.376
						C173.51,149.679,171.762,151.203,169.696,151.203z"/>
				</g>
			</g>
			<g>
				<path fill="#478CF7" d="M171.532,111.942c0.714,1.605,1.008,3.426,0.748,5.314l-3.489,25.376
					c-0.281,2.046-2.03,3.571-4.096,3.571H81.12l0.196,1.429c0.281,2.046,2.03,3.571,4.096,3.571h84.284
					c2.066,0,3.814-1.525,4.096-3.571l3.489-25.376C177.897,117.768,175.39,113.652,171.532,111.942z"/>
			</g>
			<g>
				<g>
					<path fill="#377DE2" d="M79.394,133.654l1.922,13.979c0.281,2.046,2.03,3.571,4.096,3.571h84.285
						c2.066,0,3.814-1.525,4.096-3.571l1.922-13.979H79.394z"/>
				</g>
			</g>
			<g>
				<g>
					<path fill="#5E9CF7" d="M152.943,87.536h-50.778c-3.069,0-5.812,1.915-6.869,4.797l-6.888,18.772H166.7l-6.888-18.772
						C158.755,89.451,156.012,87.536,152.943,87.536z"/>
				</g>
			</g>
			<g>
				<g>
					<path fill="#D1D3D4" d="M105.254,128.509H86.657c-0.89,0-1.643-0.658-1.762-1.54l-0.376-2.782
						c-0.144-1.067,0.686-2.017,1.762-2.017h18.597c0.89,0,1.643,0.658,1.762,1.54l0.376,2.782
						C107.161,127.559,106.331,128.509,105.254,128.509z"/>
				</g>
			</g>
			<g>
				<g>
					<path fill="#D1D3D4" d="M149.854,128.509h18.597c0.89,0,1.643-0.658,1.762-1.54l0.376-2.782
						c0.144-1.067-0.686-2.017-1.762-2.017h-18.597c-0.89,0-1.643,0.658-1.762,1.54l-0.376,2.782
						C147.947,127.559,148.777,128.509,149.854,128.509z"/>
				</g>
			</g>
			<g>
				<g>
					<path fill="#E6E7E8" d="M159.592,111.105H95.516l5.382-15.846c0.574-1.69,1.901-2.786,3.371-2.786h46.57
						c1.47,0,2.797,1.097,3.371,2.786L159.592,111.105z"/>
				</g>
			</g>
		</g>
	</g>
	<g>
		<g>
			<circle fill="#58595B" cx="128" cy="203.521" r="32.86"/>
		</g>
	</g>
	<g>
		<path fill="#414042" d="M148.602,177.919c4.541,5.635,7.258,12.801,7.258,20.601c0,18.148-14.712,32.86-32.86,32.86
			c-7.8,0-14.966-2.718-20.601-7.258c6.023,7.476,15.254,12.258,25.601,12.258c18.148,0,32.86-14.712,32.86-32.86
			C160.86,193.173,156.077,183.943,148.602,177.919z"/>
	</g>
	<g>
		<path fill="#FFA91A" d="M146.874,207.472h-37.748c-2.762,0-5-2.239-5-5s2.238-5,5-5h37.748c2.762,0,5,2.239,5,5
			S149.636,207.472,146.874,207.472z"/>
	</g>
</g>
</svg>
