<?xml version="1.0" encoding="utf-8"?>
<!-- Generator: Adobe Illustrator 24.0.0, SVG Export Plug-In . SVG Version: 6.00 Build 0)  -->
<svg version="1.1" id="Layer_1" xmlns="http://www.w3.org/2000/svg" xmlns:xlink="http://www.w3.org/1999/xlink" x="0px" y="0px"
	 viewBox="0 0 256 256" enable-background="new 0 0 256 256" xml:space="preserve">
<g>
	<g>
		<g>
			<circle fill="#FFA91A" cx="128" cy="128" r="82.593"/>
		</g>
		<g>
			<path fill="#F79219" d="M181.188,64.812c12.108,14.37,19.404,32.927,19.404,53.188c0,45.615-36.978,82.593-82.593,82.593
				c-20.262,0-38.819-7.296-53.188-19.404c15.151,17.98,37.835,29.404,63.188,29.404c45.615,0,82.593-36.978,82.593-82.593
				C210.593,102.647,199.169,79.962,181.188,64.812z"/>
		</g>
		<g>
			<path fill="#EF7816" d="M183.848,67.152c13.502,14.703,21.744,34.313,21.744,55.848c0,45.615-36.978,82.593-82.593,82.593
				c-21.535,0-41.146-8.242-55.848-21.744c15.097,16.44,36.769,26.744,60.848,26.744c45.615,0,82.593-36.978,82.593-82.593
				C210.593,103.921,200.288,82.248,183.848,67.152z"/>
		</g>
		<g>
			<g>
				<g>
					<g>
						<path fill="#F1F2F2" d="M168.14,106.963c0.737,0.198,1.523-0.013,2.062-0.553l10.158-10.158
							c0.539-0.539,0.75-1.325,0.553-2.062l-0.828-3.089c-0.425-1.588-2.41-2.119-3.572-0.957l-7.581,7.581
							c-0.539,0.539-1.326,0.75-2.062,0.553l-6.024-1.614c-0.737-0.197-1.312-0.773-1.51-1.51l-1.614-6.024
							c-0.197-0.737,0.013-1.523,0.553-2.062l7.581-7.581c1.162-1.162,0.63-3.147-0.957-3.572l-3.089-0.828
							c-0.737-0.197-1.523,0.013-2.062,0.553l-10.158,10.158c-0.539,0.539-0.75,1.326-0.553,2.062l2.269,8.468l-54.978,54.978
							l-8.468-2.269c-0.737-0.197-1.523,0.013-2.062,0.553l-10.158,10.158c-0.539,0.539-0.75,1.326-0.553,2.062l0.828,3.089
							c0.425,1.588,2.41,2.119,3.572,0.957l7.581-7.581c0.539-0.539,1.325-0.75,2.062-0.553l6.024,1.614
							c0.737,0.197,1.312,0.773,1.51,1.51l1.614,6.024c0.197,0.737-0.013,1.523-0.553,2.062l-7.581,7.581
							c-1.162,1.162-0.631,3.147,0.957,3.572l3.089,0.828c0.737,0.198,1.523-0.013,2.062-0.553l10.158-10.158
							c0.539-0.539,0.75-1.325,0.553-2.062l-2.269-8.468l54.978-54.978L168.14,106.963z"/>
					</g>
				</g>
				<g>
					<g>
						<g>
							<path fill="#D1D3D4" d="M170.877,104.227l-13.876-3.718c-0.737-0.197-1.312-0.773-1.51-1.51l-3.718-13.876
								c-0.197-0.737,0.013-1.523,0.553-2.062l-2.736,2.736c-0.539,0.539-0.75,1.326-0.553,2.062l3.718,13.876
								c0.197,0.737,0.773,1.312,1.51,1.51l13.876,3.718c0.737,0.197,1.523-0.013,2.062-0.553l2.736-2.736
								C172.4,104.214,171.614,104.424,170.877,104.227z"/>
						</g>
					</g>
					<g>
						<g>
							<g>
								<path fill="#D1D3D4" d="M78.129,162.683l-0.828-3.089c-0.197-0.737,0.013-1.523,0.553-2.062l-2.215,2.215
									c-0.539,0.539-0.75,1.326-0.553,2.062l0.828,3.089c0.425,1.588,2.41,2.119,3.572,0.957l2.215-2.215
									C80.539,164.803,78.555,164.271,78.129,162.683z"/>
							</g>
						</g>
						<g>
							<g>
								<path fill="#D1D3D4" d="M96.406,178.698l-3.089-0.828c-1.588-0.425-2.119-2.41-0.957-3.572l-2.215,2.215
									c-1.162,1.162-0.63,3.147,0.957,3.572l3.089,0.828c0.737,0.197,1.523-0.013,2.062-0.553l2.215-2.215
									C97.929,178.685,97.142,178.896,96.406,178.698z"/>
							</g>
						</g>
						<g>
							<g>
								<path fill="#D1D3D4" d="M99.94,166.718c0.539-0.539,0.75-1.326,0.553-2.062l-1.614-6.024
									c-0.197-0.737-0.773-1.312-1.51-1.51l-6.024-1.614c-0.737-0.197-1.523,0.013-2.062,0.553l-2.215,2.215
									c0.539-0.539,1.326-0.75,2.062-0.553l6.024,1.614c0.737,0.197,1.312,0.773,1.51,1.51l1.614,6.024
									c0.197,0.737-0.013,1.523-0.553,2.062L99.94,166.718z"/>
							</g>
						</g>
					</g>
				</g>
				<g>
					<g>
						<path fill="#E6E7E8" d="M103.518,152.482L103.518,152.482c1.417,1.417,3.714,1.417,5.13,0l43.834-43.834
							c1.417-1.417,1.417-3.714,0-5.13l0,0c-1.417-1.417-3.714-1.417-5.13,0l-43.834,43.834
							C102.101,148.769,102.101,151.065,103.518,152.482z"/>
					</g>
				</g>
				<g>
					<g>
						<path fill="#D1D3D4" d="M152.482,103.518c-1.417-1.417-3.713-1.417-5.13,0l-1.594,1.594c1.417-1.417,3.713-1.417,5.13,0
							c1.417,1.417,1.417,3.714,0,5.13l1.594-1.594C153.899,107.231,153.899,104.935,152.482,103.518z"/>
					</g>
				</g>
			</g>
			<g>
				<g>
					<g>
						<path fill="#E63950" d="M121.762,131.642l9.832-9.831c1.703-1.703,4.465-1.704,6.169,0l38.373,38.373
							c1.703,1.703,1.703,4.465,0,6.169l-9.832,9.831c-1.703,1.703-4.465,1.704-6.169,0l-38.373-38.373
							C120.059,136.108,120.059,133.346,121.762,131.642z"/>
					</g>
				</g>
				<g>
					<g>
						
							<rect x="149.261" y="156.883" transform="matrix(-0.7071 0.7071 -0.7071 -0.7071 387.6954 160.6569)" fill="#D10028" width="22.628" height="7.481"/>
					</g>
				</g>
				<g>
					<g>
						<path fill="#D10028" d="M159.122,174.56l15.486-15.486c1.047-1.047,2.744-1.047,3.791,0l3.438,3.438
							c1.047,1.047,1.047,2.744,0,3.791l-15.486,15.486c-1.047,1.047-2.744,1.047-3.791,0l-3.438-3.438
							C158.075,177.305,158.075,175.607,159.122,174.56z"/>
					</g>
				</g>
				<g>
					<g>
						<g>
							
								<rect x="105.732" y="83.397" transform="matrix(-0.7071 0.7071 -0.7071 -0.7071 262.5327 108.8127)" fill="#E6E7E8" width="5.998" height="50.764"/>
						</g>
					</g>
					<g>
						<g>
							
								<rect x="107.361" y="83.397" transform="matrix(-0.7071 0.7071 -0.7071 -0.7071 262.5327 108.8127)" fill="#F1F2F2" width="2.74" height="50.764"/>
						</g>
					</g>
					<g>
						<g>
							<path fill="#E6E7E8" d="M73.641,78.196l4.507-4.507c0.334-0.334,0.87-0.353,1.227-0.044l8.92,7.731l4.638,7.305l-4.299,4.299
								l-7.305-4.638l-7.731-8.92C73.288,79.066,73.307,78.53,73.641,78.196z"/>
						</g>
					</g>
					<g>
						<g>
							<polygon fill="#D1D3D4" points="81.51,88.458 88.633,92.981 92.932,88.681 88.41,81.558 							"/>
						</g>
					</g>
				</g>
				<g>
					<g>
						
							<rect x="122.198" y="123.15" transform="matrix(-0.7071 0.7071 -0.7071 -0.7071 302.2863 125.2792)" fill="#D1D3D4" width="5.998" height="4.19"/>
					</g>
				</g>
			</g>
		</g>
	</g>
	<g>
		<g>
			<g>
				<g>
					<path fill="#478CF7" d="M94.066,235.7C36.22,217.502,2.298,155.904,19.616,96.368C35.997,40.049,93.575,5.453,150.992,17.43
						c62.984,13.138,102.025,76.032,86.603,137.887c-7.908,31.717-29.157,58.433-58.298,73.297l-5.907-11.581
						c25.789-13.154,44.593-36.796,51.591-64.862c13.647-54.735-20.9-110.388-76.633-122.013
						C97.541,19.56,46.591,50.174,32.095,100.009c-15.323,52.68,14.689,107.183,65.87,123.289c3.279,1.032,5.192,4.431,4.361,7.766
						v0C101.42,234.697,97.637,236.823,94.066,235.7z"/>
				</g>
			</g>
			<g>
				<g>
					<path fill="#377DE2" d="M205.256,45.65c25.377,27.065,36.963,66.068,27.339,104.667c-7.732,31.01-28.222,57.233-56.367,72.28
						l3.07,6.018c29.141-14.864,50.39-41.58,58.298-73.297C247.83,114.268,234.072,72.768,205.256,45.65z"/>
				</g>
			</g>
			<g>
				<path fill="#478CF7" d="M195.677,232.412l-18.482-30.759c-1.625-2.704-5.605-2.513-6.963,0.334l-13.997,29.342
					c-1.221,2.559,0.567,5.533,3.399,5.657l32.479,1.417C195.264,238.541,197.302,235.116,195.677,232.412z"/>
			</g>
			<g>
				<path fill="#377DE2" d="M195.677,232.412l-18.482-30.759c-0.725-1.207-1.92-1.833-3.142-1.908l16.624,27.667
					c1.625,2.704-0.413,6.129-3.564,5.991l-31.132-1.358c-0.62,2.367,1.082,4.829,3.653,4.941l32.479,1.417
					C195.264,238.541,197.302,235.116,195.677,232.412z"/>
			</g>
		</g>
		<g>
			<g>
				<circle fill="#E6E7E8" cx="128" cy="203.988" r="27.915"/>
			</g>
			<g>
				<path fill="#D1D3D4" d="M147.739,184.249c-0.847-0.847-1.74-1.621-2.663-2.337c8.491,10.95,7.717,26.761-2.337,36.815
					s-25.865,10.828-36.815,2.337c0.716,0.923,1.489,1.816,2.337,2.663c10.902,10.901,28.576,10.901,39.478,0
					S158.641,195.151,147.739,184.249z"/>
			</g>
			<g>
				<g>
					<path fill="#478CF7" d="M124.977,218.782c-1.252,0-2.504-0.478-3.46-1.433l-9.634-9.634c-1.91-1.911-1.91-5.008,0-6.919
						c1.911-1.91,5.008-1.91,6.919,0l6.175,6.176l12.254-12.255c1.911-1.91,5.008-1.91,6.919,0c1.91,1.911,1.91,5.008,0,6.919
						l-15.714,15.714C127.481,218.305,126.229,218.782,124.977,218.782z"/>
				</g>
			</g>
			<g>
				<g>
					<polygon fill="#377DE2" points="122.977,204.972 122.977,204.972 118.802,200.796 118.801,200.795 					"/>
				</g>
				<g>
					<path fill="#377DE2" d="M144.15,194.717c-0.35-0.35-0.749-0.613-1.164-0.835c0.988,1.851,0.724,4.194-0.836,5.754
						l-15.714,15.714c-0.955,0.955-2.207,1.433-3.459,1.433s-2.504-0.478-3.459-1.433l2,2c0.955,0.955,2.207,1.433,3.459,1.433
						s2.504-0.478,3.459-1.433l15.714-15.714C146.06,199.725,146.06,196.628,144.15,194.717z"/>
				</g>
			</g>
		</g>
	</g>
	<g>
		<path fill="#FFFFFF" d="M106.08,205.99c-1.101,0-2-0.9-2-2c0-0.01,0.01-0.01,0.01-0.01c0-1.1,0.9-1.99,1.99-1.99
			c1.1,0,2,0.89,2,1.99c0,0,0.01,0,0.01,0.01C108.09,205.09,107.189,205.99,106.08,205.99z M107.53,198.17
			c-0.25,0-0.49-0.05-0.721-0.14c-1.029-0.39-1.55-1.55-1.149-2.58c1.71-4.47,4.699-8.29,8.64-11.06c4.03-2.82,8.77-4.31,13.7-4.32
			c1.1,0,2,0.9,2,2c0,1.11-0.9,2-2,2c-8.19,0-15.67,5.15-18.601,12.81C109.1,197.65,108.35,198.17,107.53,198.17z"/>
	</g>
</g>
</svg>
