<?xml version="1.0" encoding="utf-8"?>
<!-- Generator: Adobe Illustrator 24.0.0, SVG Export Plug-In . SVG Version: 6.00 Build 0)  -->
<svg version="1.1" id="Layer_1" xmlns="http://www.w3.org/2000/svg" xmlns:xlink="http://www.w3.org/1999/xlink" x="0px" y="0px"
	 viewBox="0 0 256 256" enable-background="new 0 0 256 256" xml:space="preserve">
<g>
	<g>
		<g>
			<circle fill="#FFA91A" cx="128" cy="103.795" r="86.881"/>
		</g>
		<g>
			<path fill="#FFC91D" d="M47.12,105.79c-1.101,0-2-0.89-2-2c-0.452-34.54,22.992-67.272,55.66-78.28
				c1.019-0.36,2.189,0.21,2.539,1.23c0.37,1.04-0.18,2.18-1.22,2.54c-31.7,11.05-52.99,41-52.979,74.51
				C49.12,104.9,48.22,105.79,47.12,105.79z M109.109,27.14c-2.639-0.044-2.629-3.953,0-4
				C111.723,23.178,111.744,27.101,109.109,27.14z"/>
		</g>
		<g>
			<path fill="#F79219" d="M184.231,37.563c12.879,15.155,20.65,34.785,20.65,56.231c0,47.983-38.898,86.881-86.881,86.881
				c-21.446,0-41.077-7.771-56.231-20.649c15.936,18.752,39.694,30.649,66.231,30.649c47.983,0,86.881-38.898,86.881-86.881
				C214.881,77.258,202.983,53.5,184.231,37.563z"/>
		</g>
		<g>
			<path fill="#EF7816" d="M186.883,39.911c14.277,15.481,22.997,36.164,22.997,58.883c0,47.983-38.898,86.881-86.881,86.881
				c-22.719,0-43.402-8.721-58.883-22.998c15.875,17.214,38.62,27.998,63.883,27.998c47.983,0,86.881-38.898,86.881-86.881
				C214.881,78.531,204.098,55.787,186.883,39.911z"/>
		</g>
		<g>
			<g>
				<g>
					<g>
						<path fill="#F1F2F2" d="M168.008,82.828c0.735,0.197,1.518-0.013,2.056-0.551l10.124-10.124
							c0.538-0.538,0.748-1.321,0.551-2.056l-0.825-3.079c-0.424-1.582-2.402-2.112-3.56-0.954l-7.556,7.556
							c-0.538,0.538-1.321,0.748-2.056,0.551l-6.004-1.609c-0.734-0.197-1.308-0.77-1.505-1.505l-1.609-6.004
							c-0.197-0.734,0.013-1.518,0.551-2.055l7.556-7.556c1.158-1.158,0.628-3.136-0.954-3.56l-3.079-0.825
							c-0.734-0.197-1.518,0.013-2.056,0.551l-10.124,10.124c-0.538,0.538-0.748,1.321-0.551,2.056l2.262,8.44l-54.796,54.796
							l-8.44-2.262c-0.734-0.197-1.518,0.013-2.056,0.551l-10.124,10.124c-0.538,0.538-0.748,1.321-0.551,2.056l0.825,3.079
							c0.424,1.582,2.402,2.112,3.56,0.954l7.556-7.556c0.538-0.538,1.321-0.748,2.055-0.551l6.004,1.609
							c0.734,0.197,1.308,0.77,1.505,1.505l1.609,6.004c0.197,0.734-0.013,1.518-0.551,2.056l-7.556,7.556
							c-1.158,1.158-0.628,3.136,0.954,3.56l3.079,0.825c0.735,0.197,1.518-0.013,2.056-0.551l10.124-10.124
							c0.538-0.538,0.748-1.321,0.551-2.056l-2.262-8.44l54.796-54.796L168.008,82.828z"/>
					</g>
				</g>
				<g>
					<g>
						<g>
							<path fill="#D1D3D4" d="M170.735,80.1l-13.83-3.706c-0.734-0.197-1.308-0.77-1.505-1.505l-3.706-13.83
								c-0.197-0.734,0.013-1.518,0.551-2.056l-2.727,2.727c-0.538,0.538-0.748,1.321-0.551,2.056l3.706,13.83
								c0.197,0.734,0.77,1.308,1.505,1.505l13.83,3.706c0.734,0.197,1.518-0.013,2.056-0.551l2.727-2.727
								C172.253,80.087,171.47,80.297,170.735,80.1z"/>
						</g>
					</g>
					<g>
						<g>
							<g>
								<path fill="#D1D3D4" d="M78.294,138.363l-0.825-3.079c-0.197-0.734,0.013-1.518,0.551-2.056l-2.208,2.208
									c-0.538,0.538-0.748,1.321-0.551,2.056l0.825,3.079c0.424,1.582,2.402,2.112,3.56,0.954l2.208-2.208
									C80.696,140.476,78.718,139.946,78.294,138.363z"/>
							</g>
						</g>
						<g>
							<g>
								<path fill="#D1D3D4" d="M96.51,154.325l-3.079-0.825c-1.582-0.424-2.112-2.402-0.954-3.56l-2.208,2.208
									c-1.158,1.158-0.628,3.136,0.954,3.56l3.079,0.825c0.734,0.197,1.518-0.013,2.056-0.551l2.208-2.208
									C98.028,154.312,97.244,154.522,96.51,154.325z"/>
							</g>
						</g>
						<g>
							<g>
								<path fill="#D1D3D4" d="M100.033,142.384c0.538-0.538,0.748-1.321,0.551-2.056l-1.609-6.004
									c-0.197-0.734-0.77-1.308-1.505-1.505l-6.004-1.609c-0.734-0.197-1.518,0.013-2.056,0.551l-2.208,2.208
									c0.538-0.538,1.321-0.748,2.056-0.551l6.004,1.609c0.734,0.197,1.308,0.77,1.505,1.505l1.609,6.004
									c0.197,0.734-0.013,1.518-0.551,2.056L100.033,142.384z"/>
							</g>
						</g>
					</g>
				</g>
				<g>
					<g>
						<path fill="#E6E7E8" d="M103.599,128.196L103.599,128.196c1.412,1.412,3.701,1.412,5.113,0l43.689-43.689
							c1.412-1.412,1.412-3.701,0-5.113l0,0c-1.412-1.412-3.701-1.412-5.113,0l-43.689,43.689
							C102.187,124.495,102.187,126.784,103.599,128.196z"/>
					</g>
				</g>
				<g>
					<g>
						<path fill="#D1D3D4" d="M152.401,79.393c-1.412-1.412-3.701-1.412-5.113,0l-1.589,1.589c1.412-1.412,3.701-1.412,5.113,0
							c1.412,1.412,1.412,3.701,0,5.113l1.589-1.589C153.813,83.095,153.813,80.805,152.401,79.393z"/>
					</g>
				</g>
			</g>
			<g>
				<g>
					<g>
						<path fill="#E63950" d="M121.783,107.425l9.799-9.799c1.698-1.698,4.451-1.698,6.148,0l38.246,38.246
							c1.698,1.698,1.698,4.451,0,6.148l-9.799,9.799c-1.698,1.698-4.451,1.698-6.148,0l-38.246-38.246
							C120.085,111.875,120.085,109.123,121.783,107.425z"/>
					</g>
				</g>
				<g>
					<g>
						
							<rect x="149.19" y="132.582" transform="matrix(-0.7071 0.7071 -0.7071 -0.7071 370.3196 119.2278)" fill="#D10028" width="22.553" height="7.456"/>
					</g>
				</g>
				<g>
					<g>
						<path fill="#D10028" d="M159.019,150.201l15.435-15.435c1.043-1.043,2.735-1.043,3.779,0l3.426,3.426
							c1.043,1.043,1.043,2.735,0,3.779l-15.435,15.435c-1.043,1.043-2.735,1.043-3.779,0l-3.426-3.426
							C157.976,152.936,157.976,151.244,159.019,150.201z"/>
					</g>
				</g>
				<g>
					<g>
						<g>
							
								<rect x="105.805" y="59.339" transform="matrix(-0.7071 0.7071 -0.7071 -0.7071 245.5705 67.5549)" fill="#E6E7E8" width="5.978" height="50.596"/>
						</g>
					</g>
					<g>
						<g>
							
								<rect x="107.429" y="59.339" transform="matrix(-0.7071 0.7071 -0.7071 -0.7071 245.5705 67.5549)" fill="#F1F2F2" width="2.731" height="50.596"/>
						</g>
					</g>
					<g>
						<g>
							<path fill="#E6E7E8" d="M73.821,54.155l4.492-4.492c0.333-0.333,0.867-0.352,1.223-0.044l8.891,7.705l4.622,7.281
								l-4.285,4.285l-7.281-4.622l-7.705-8.891C73.469,55.022,73.488,54.488,73.821,54.155z"/>
						</g>
					</g>
					<g>
						<g>
							<polygon fill="#D1D3D4" points="81.664,64.384 88.763,68.891 93.048,64.606 88.541,57.507 							"/>
						</g>
					</g>
				</g>
				<g>
					<g>
						
							<rect x="122.217" y="98.961" transform="matrix(-0.7071 0.7071 -0.7071 -0.7071 285.1927 83.967)" fill="#D1D3D4" width="5.978" height="4.176"/>
					</g>
				</g>
			</g>
		</g>
	</g>
	<g>
		<g>
			<path fill="#478CF7" d="M173.609,195.485c0,4.575-6.974,7.991-8.314,12.119c-1.389,4.278,2.2,11.132-0.395,14.693
				c-2.618,3.6-10.261,2.291-13.858,4.908c-3.561,2.592-4.667,10.279-8.945,11.668c-4.128,1.34-9.522-4.185-14.1-4.185
				s-9.969,5.525-14.1,4.185c-4.278-1.389-5.384-9.076-8.945-11.668c-3.6-2.617-11.241-1.312-13.858-4.908
				c-2.592-3.561,0.994-10.415-0.395-14.693c-1.34-4.128-8.314-7.544-8.314-12.119s6.974-7.991,8.314-12.119
				c1.389-4.278-2.2-11.132,0.395-14.693c2.618-3.6,10.261-2.291,13.858-4.908c3.561-2.592,4.667-10.279,8.945-11.668
				c4.128-1.34,9.522,4.185,14.1,4.185s9.969-5.525,14.1-4.185c4.278,1.389,5.384,9.076,8.945,11.668
				c3.6,2.617,11.241,1.312,13.858,4.908c2.592,3.561-0.994,10.415,0.395,14.693C166.635,187.494,173.609,190.91,173.609,195.485z"
				/>
		</g>
		<g>
			<path fill="#377DE2" d="M165.3,207.604c1.34-4.128,8.314-7.544,8.314-12.119s-6.979-7.991-8.314-12.115
				c-1.389-4.278,2.2-11.132-0.395-14.693c-1.052-1.223-2.496-2.042-4.086-2.316c0.361,3.7-1.611,8.646-0.519,12.009
				c1.34,4.128,8.314,7.544,8.314,12.119s-6.974,7.991-8.314,12.119c-1.389,4.278,2.2,11.132-0.395,14.693
				c-2.618,3.6-10.261,2.291-13.858,4.908c-3.561,2.592-4.667,10.279-8.945,11.668c-4.128,1.34-9.522-4.185-14.1-4.185
				c-4.385,0-9.52,5.059-13.574,4.3c1.184,2.226,2.486,4.239,4.477,4.885c4.128,1.34,9.522-4.185,14.1-4.185
				c4.578,0,9.969,5.525,14.1,4.185c4.278-1.389,5.384-9.076,8.945-11.668c3.6-2.617,11.24-1.312,13.858-4.908
				C167.492,218.736,163.906,211.882,165.3,207.604z"/>
		</g>
		<g>
			<path fill="#F1F2F2" d="M113.861,196.122c-5.981,0-10.83-4.849-10.83-10.83c0-5.981,4.849-10.83,10.83-10.83
				c5.981,0,10.83,4.849,10.83,10.83C124.684,191.27,119.84,196.115,113.861,196.122z M113.861,179.463c-3.22,0-5.83,2.61-5.83,5.83
				c0,3.22,2.61,5.83,5.83,5.83c3.22,0,5.83-2.61,5.83-5.83c0,0,0-0.001,0-0.001C119.687,182.073,117.079,179.466,113.861,179.463z"
				/>
		</g>
		<g>
			<path fill="#F1F2F2" d="M142.138,216.508c-5.981,0-10.83-4.849-10.83-10.83s4.849-10.83,10.83-10.83s10.83,4.849,10.83,10.83
				C152.961,211.656,148.117,216.501,142.138,216.508z M142.138,199.849c-3.22,0-5.83,2.61-5.83,5.83s2.61,5.83,5.83,5.83
				s5.83-2.61,5.83-5.83c0,0,0-0.001,0-0.001C147.964,202.459,145.356,199.852,142.138,199.849z"/>
		</g>
		<g>
			<path fill="#F1F2F2" d="M109.7,216.288c-1.381,0-2.5-1.119-2.5-2.5c0-0.663,0.263-1.299,0.732-1.768l36.607-36.606
				c0.993-0.959,2.576-0.932,3.535,0.061c0.936,0.969,0.936,2.505,0,3.474l-36.607,36.607
				C110.999,216.025,110.363,216.288,109.7,216.288z"/>
		</g>
	</g>
</g>
</svg>
