<?xml version="1.0" encoding="utf-8"?>
<!-- Generator: Adobe Illustrator 24.0.0, SVG Export Plug-In . SVG Version: 6.00 Build 0)  -->
<svg version="1.1" id="Layer_1" xmlns="http://www.w3.org/2000/svg" xmlns:xlink="http://www.w3.org/1999/xlink" x="0px" y="0px"
	 viewBox="0 0 256 256" enable-background="new 0 0 256 256" xml:space="preserve">
<g>
	<g>
		<g>
			<path fill="#FFA91A" d="M216.105,102.26c0,59.863-63.941,120.253-82.88,136.827c-3.002,2.627-7.468,2.646-10.491,0.044
				c-18.99-16.347-82.839-75.849-82.839-136.872c0-48.659,39.446-88.105,88.105-88.105S216.105,53.602,216.105,102.26z"/>
		</g>
		<g>
			<path fill="#FFC91D" d="M79,185.86c-1.007,0.035-1.607-0.73-2.263-1.692c-21.86-29.566-32.898-57.064-32.836-82.201
				c-0.14-28.475,15.359-56.069,39.551-71.019c7.98-5.004,16.644-8.593,25.801-10.685c1.07-0.193,2.127,0.519,2.325,1.6
				c0.13,0.692-0.112,1.371-0.593,1.824c-0.513,0.519-1.305,0.552-2.002,0.749c-35.745,8.625-61.55,42.056-61.079,78.554
				c0.208,24.102,11.204,50.901,32.697,79.661c0,0.01,0,0.01,0,0.01C81.596,183.928,80.602,185.9,79,185.86z M117.48,22.83
				c-2.462-0.028-2.702-3.653-0.25-3.99C120.027,18.614,120.287,22.719,117.48,22.83z"/>
		</g>
		<g>
			<path fill="#F79219" d="M185.099,35.161c13.099,15.378,21.005,35.315,21.005,57.099c0,59.863-63.94,120.253-82.88,136.828
				c-3.002,2.627-7.468,2.646-10.491,0.044c-3.299-2.84-7.953-6.984-13.391-12.211c9.667,10.059,18.203,17.745,23.391,22.211
				c3.023,2.602,7.489,2.583,10.491-0.044c18.939-16.575,82.88-76.965,82.88-136.828C216.105,75.385,204.072,51.321,185.099,35.161z
				"/>
		</g>
		<g>
			<path fill="#EF7816" d="M187.749,37.511c14.498,15.703,23.356,36.692,23.356,59.75c0,59.863-63.94,120.253-82.88,136.828
				c-3.002,2.627-7.468,2.646-10.491,0.044c-3.803-3.274-9.405-8.279-15.933-14.68c8.647,8.82,16.19,15.596,20.933,19.68
				c3.023,2.602,7.489,2.583,10.491-0.044c18.939-16.575,82.88-76.965,82.88-136.828C216.105,76.659,205.185,53.608,187.749,37.511z
				"/>
		</g>
		<g>
			<g>
				<g>
					<g>
						<path fill="#F1F2F2" d="M167.62,81.497c0.727,0.195,1.503-0.013,2.036-0.545l10.026-10.026
							c0.532-0.532,0.74-1.308,0.545-2.036l-0.817-3.049c-0.42-1.567-2.379-2.092-3.526-0.945l-7.483,7.483
							c-0.532,0.532-1.308,0.74-2.036,0.545l-5.946-1.593c-0.727-0.195-1.295-0.763-1.49-1.49l-1.593-5.946
							c-0.195-0.727,0.013-1.503,0.546-2.036l7.483-7.483c1.147-1.147,0.622-3.106-0.945-3.526l-3.049-0.817
							c-0.727-0.195-1.503,0.013-2.036,0.545l-10.026,10.026c-0.532,0.532-0.74,1.308-0.545,2.036l2.24,8.359l-54.265,54.265
							l-8.359-2.24c-0.727-0.195-1.503,0.013-2.036,0.545l-10.026,10.026c-0.532,0.532-0.74,1.308-0.545,2.036l0.817,3.049
							c0.42,1.567,2.379,2.092,3.526,0.945l7.483-7.483c0.532-0.532,1.308-0.74,2.036-0.546l5.946,1.593
							c0.727,0.195,1.295,0.763,1.49,1.49l1.593,5.946c0.195,0.727-0.013,1.503-0.545,2.036l-7.483,7.483
							c-1.147,1.147-0.622,3.106,0.945,3.526l3.049,0.817c0.727,0.195,1.503-0.013,2.036-0.545l10.026-10.026
							c0.532-0.532,0.741-1.308,0.545-2.036l-2.24-8.358l54.265-54.265L167.62,81.497z"/>
					</g>
				</g>
				<g>
					<g>
						<g>
							<path fill="#D1D3D4" d="M170.321,78.796l-13.696-3.67c-0.727-0.195-1.295-0.763-1.49-1.49l-3.67-13.696
								c-0.195-0.727,0.013-1.503,0.545-2.036l-2.701,2.701c-0.532,0.532-0.74,1.308-0.545,2.036l3.67,13.696
								c0.195,0.727,0.763,1.295,1.49,1.49l13.696,3.67c0.727,0.195,1.503-0.013,2.036-0.545l2.701-2.701
								C171.825,78.782,171.048,78.99,170.321,78.796z"/>
						</g>
					</g>
					<g>
						<g>
							<g>
								<path fill="#D1D3D4" d="M78.776,136.494l-0.817-3.049c-0.195-0.727,0.013-1.503,0.545-2.036l-2.186,2.186
									c-0.532,0.532-0.74,1.308-0.545,2.036l0.817,3.049c0.42,1.567,2.379,2.092,3.526,0.945l2.186-2.186
									C81.154,138.586,79.196,138.061,78.776,136.494z"/>
							</g>
						</g>
						<g>
							<g>
								<path fill="#D1D3D4" d="M96.815,152.302l-3.049-0.817c-1.567-0.42-2.092-2.379-0.945-3.526l-2.186,2.186
									c-1.147,1.147-0.622,3.106,0.945,3.526l3.049,0.817c0.727,0.195,1.503-0.013,2.036-0.545l2.186-2.186
									C98.318,152.289,97.542,152.497,96.815,152.302z"/>
							</g>
						</g>
						<g>
							<g>
								<path fill="#D1D3D4" d="M100.304,140.476c0.532-0.532,0.74-1.308,0.545-2.036l-1.593-5.946
									c-0.195-0.727-0.763-1.295-1.49-1.49l-5.946-1.593c-0.727-0.195-1.503,0.013-2.036,0.545l-2.186,2.186
									c0.532-0.532,1.308-0.74,2.036-0.545l5.946,1.593c0.727,0.195,1.295,0.763,1.49,1.49l1.593,5.946
									c0.195,0.727-0.013,1.503-0.545,2.036L100.304,140.476z"/>
							</g>
						</g>
					</g>
				</g>
				<g>
					<g>
						<path fill="#E6E7E8" d="M103.835,126.425L103.835,126.425c1.398,1.398,3.665,1.398,5.064,0l43.266-43.266
							c1.398-1.398,1.398-3.665,0-5.064l0,0c-1.398-1.398-3.665-1.398-5.064,0l-43.266,43.266
							C102.437,122.76,102.437,125.027,103.835,126.425z"/>
					</g>
				</g>
				<g>
					<g>
						<path fill="#D1D3D4" d="M152.165,78.096c-1.398-1.398-3.665-1.398-5.064,0l-1.574,1.574c1.398-1.398,3.665-1.398,5.064,0
							c1.398,1.398,1.398,3.665,0,5.064l1.574-1.574C153.563,81.761,153.563,79.494,152.165,78.096z"/>
					</g>
				</g>
			</g>
			<g>
				<g>
					<g>
						<path fill="#E63950" d="M121.843,105.855l9.704-9.704c1.681-1.681,4.407-1.681,6.089,0l37.875,37.875
							c1.681,1.681,1.681,4.407,0,6.089l-9.704,9.704c-1.681,1.681-4.408,1.681-6.089,0l-37.875-37.875
							C120.162,110.263,120.162,107.537,121.843,105.855z"/>
					</g>
				</g>
				<g>
					<g>
						
							<rect x="148.985" y="130.769" transform="matrix(-0.7071 0.7071 -0.7071 -0.7071 368.4752 116.2935)" fill="#D10028" width="22.335" height="7.384"/>
					</g>
				</g>
				<g>
					<g>
						<path fill="#D10028" d="M158.719,148.217l15.286-15.286c1.033-1.033,2.709-1.033,3.742,0l3.393,3.393
							c1.033,1.033,1.033,2.709,0,3.742l-15.286,15.286c-1.033,1.033-2.709,1.033-3.742,0l-3.393-3.393
							C157.686,150.926,157.685,149.251,158.719,148.217z"/>
					</g>
				</g>
				<g>
					<g>
						<g>
							
								<rect x="106.02" y="58.235" transform="matrix(-0.7071 0.7071 -0.7071 -0.7071 244.9345 65.1211)" fill="#E6E7E8" width="5.92" height="50.106"/>
						</g>
					</g>
					<g>
						<g>
							
								<rect x="107.628" y="58.235" transform="matrix(-0.7071 0.7071 -0.7071 -0.7071 244.9345 65.1211)" fill="#F1F2F2" width="2.704" height="50.106"/>
						</g>
					</g>
					<g>
						<g>
							<path fill="#E6E7E8" d="M74.346,53.102l4.448-4.448c0.33-0.33,0.858-0.349,1.211-0.043l8.805,7.631l4.578,7.21l-4.244,4.244
								l-7.21-4.578l-7.631-8.805C73.997,53.96,74.016,53.431,74.346,53.102z"/>
						</g>
					</g>
					<g>
						<g>
							<polygon fill="#D1D3D4" points="82.113,63.231 89.143,67.695 93.387,63.451 88.923,56.421 							"/>
						</g>
					</g>
				</g>
				<g>
					<g>
						
							<rect x="122.273" y="97.474" transform="matrix(-0.7071 0.7071 -0.7071 -0.7071 284.1729 81.3742)" fill="#D1D3D4" width="5.92" height="4.135"/>
					</g>
				</g>
			</g>
		</g>
	</g>
	<g>
		<g>
			<g>
				<path fill="#E63950" d="M128,163.528c-13.101,0-23.721,10.62-23.721,23.721s10.62,23.721,23.721,23.721
					s23.721-10.62,23.721-23.721S141.101,163.528,128,163.528z M128,197.64c-5.738,0-10.391-4.652-10.391-10.391
					s4.652-10.391,10.391-10.391s10.391,4.652,10.391,10.391S133.738,197.64,128,197.64z"/>
			</g>
			<g>
				<g>
					<path fill="#D10028" d="M143.28,169.111c3.481,4.128,5.582,9.457,5.582,15.28c0,13.101-10.62,23.721-23.721,23.721
						c-5.822,0-11.152-2.101-15.28-5.582c4.351,5.16,10.861,8.441,18.139,8.441c13.101,0,23.721-10.62,23.721-23.721
						C151.721,179.971,148.44,173.462,143.28,169.111z"/>
				</g>
			</g>
			<g>
				<g>
					<path fill="#B7022D" d="M151.105,181.855l5.767-5.088c0.868-0.766,1.077-2.038,0.497-3.041l-3.067-5.313
						c-0.579-1.003-1.785-1.458-2.882-1.09l-7.355,2.473C147.507,172.967,150.009,177.141,151.105,181.855z"/>
				</g>
				<g>
					<path fill="#D10028" d="M99.128,176.768l5.767,5.088c1.096-4.714,3.598-8.889,7.04-12.059l-7.355-2.473
						c-1.098-0.369-2.303,0.087-2.882,1.09l-3.067,5.313C98.051,174.73,98.259,176.002,99.128,176.768z"/>
				</g>
				<g>
					<path fill="#D10028" d="M128,163.528c2.417,0,4.749,0.362,6.946,1.033l-1.494-7.395c-0.229-1.135-1.227-1.951-2.385-1.951
						h-6.135c-1.158,0-2.156,0.816-2.385,1.951l-1.494,7.395C123.251,163.89,125.583,163.528,128,163.528z"/>
				</g>
				<g>
					<path fill="#B7022D" d="M156.685,197.407l-5.549-4.896c-1.058,4.674-3.497,8.824-6.864,11.999l6.961,2.34
						c1.098,0.369,2.303-0.087,2.882-1.09l3.067-5.313C157.761,199.445,157.553,198.173,156.685,197.407z"/>
				</g>
				<g>
					<path fill="#B7022D" d="M128,210.971c-2.417,0-4.749-0.362-6.946-1.033l1.494,7.395c0.229,1.135,1.227,1.951,2.385,1.951h6.135
						c1.158,0,2.156-0.816,2.385-1.951l1.494-7.395C132.749,210.61,130.417,210.971,128,210.971z"/>
				</g>
				<g>
					<path fill="#D10028" d="M104.865,192.511l-5.549,4.896c-0.868,0.766-1.077,2.038-0.497,3.041l3.067,5.313
						c0.579,1.003,1.785,1.459,2.882,1.09l6.961-2.34C108.361,201.335,105.923,197.185,104.865,192.511z"/>
				</g>
			</g>
		</g>
	</g>
</g>
</svg>
