<?xml version="1.0" encoding="utf-8"?>
<!-- Generator: Adobe Illustrator 24.0.0, SVG Export Plug-In . SVG Version: 6.00 Build 0)  -->
<svg version="1.1" id="Layer_1" xmlns="http://www.w3.org/2000/svg" xmlns:xlink="http://www.w3.org/1999/xlink" x="0px" y="0px"
	 viewBox="0 0 256 256" enable-background="new 0 0 256 256" xml:space="preserve">
<g>
	<g>
		<g>
			<g>
				<g>
					<g>
						<g>
							<path fill="#D10028" d="M194.371,64.223l0.005,0.016c0.333-0.891,1.068-1.608,2.04-1.871l17.577-4.742
								c1.786-0.482,3.584,0.736,3.798,2.574l1.187,10.183c0.174,1.491-0.77,2.884-2.22,3.275l-21.915,5.898
								c-1.67,0.45-3.427-0.335-4.207-1.879v0c-0.457-0.906-0.517-1.961-0.165-2.912L194.371,64.223z"/>
						</g>
					</g>
				</g>
				<g>
					<g>
						<g>
							<path fill="#D10028" d="M60.737,64.223l-0.005,0.016c-0.333-0.891-1.068-1.608-2.04-1.871l-17.577-4.742
								c-1.786-0.482-3.584,0.736-3.798,2.574l-1.187,10.183c-0.174,1.491,0.77,2.884,2.22,3.275l21.915,5.898
								c1.67,0.45,3.427-0.335,4.207-1.879v0c0.457-0.906,0.517-1.961,0.165-2.912L60.737,64.223z"/>
						</g>
					</g>
				</g>
			</g>
			<g>
				<g>
					<g>
						<path fill="#414042" d="M72.692,168.019H49.528c-4.515,0-8.175-3.66-8.175-8.176v-39.21c0-4.515,3.66-8.176,8.175-8.176
							h23.164c4.515,0,8.176,3.66,8.176,8.176v39.21C80.868,164.358,77.207,168.019,72.692,168.019z"/>
					</g>
				</g>
				<g>
					<g>
						<path fill="#414042" d="M205.58,168.019h-23.164c-4.515,0-8.176-3.66-8.176-8.176v-39.21c0-4.515,3.66-8.176,8.176-8.176
							h23.164c4.515,0,8.175,3.66,8.175,8.176v39.21C213.755,164.358,210.095,168.019,205.58,168.019z"/>
					</g>
				</g>
			</g>
			<g>
				<g>
					<path fill="#E63950" d="M202.916,148.73H52.192c-3.694,0-6.821-2.727-7.324-6.386l-6.239-45.38
						c-1.45-10.544,6.744-19.941,17.387-19.941h143.076c10.643,0,18.836,9.397,17.387,19.941l-6.239,45.38
						C209.737,146.003,206.61,148.73,202.916,148.73z"/>
				</g>
			</g>
			<g>
				<path fill="#D10028" d="M208.744,79.91c2.254,3.41,3.343,7.631,2.735,12.054l-6.239,45.38c-0.503,3.659-3.63,6.386-7.324,6.386
					H47.192c-0.724,0-1.426-0.105-2.091-0.301c0.912,3.1,3.773,5.301,7.091,5.301h150.724c3.694,0,6.821-2.727,7.324-6.386
					l6.239-45.38C217.44,89.974,214.163,83.488,208.744,79.91z"/>
			</g>
			<g>
				<g>
					<path fill="#B7022D" d="M41.431,117.346l3.437,24.998c0.503,3.659,3.63,6.386,7.324,6.386h150.724
						c3.694,0,6.821-2.727,7.324-6.386l3.437-24.998H41.431z"/>
				</g>
			</g>
			<g>
				<g>
					<path fill="#E63950" d="M172.956,34.875H82.152c-5.489,0-10.394,3.425-12.284,8.578L57.55,77.023h140.008l-12.317-33.57
						C183.35,38.3,178.445,34.875,172.956,34.875z"/>
				</g>
			</g>
			<g>
				<g>
					<path fill="#F1F2F2" d="M87.676,108.146H54.419c-1.592,0-2.939-1.177-3.152-2.754l-0.672-4.975
						c-0.258-1.908,1.226-3.606,3.152-3.606h33.256c1.592,0,2.938,1.177,3.151,2.754l0.672,4.975
						C91.085,106.448,89.601,108.146,87.676,108.146z"/>
				</g>
			</g>
			<g>
				<g>
					<path fill="#F1F2F2" d="M167.432,108.146h33.256c1.592,0,2.939-1.177,3.152-2.754l0.672-4.975
						c0.258-1.908-1.226-3.606-3.152-3.606h-33.256c-1.592,0-2.938,1.177-3.151,2.754l-0.672,4.975
						C164.023,106.448,165.506,108.146,167.432,108.146z"/>
				</g>
			</g>
			<g>
				<g>
					<path fill="#E6E7E8" d="M184.847,77.022H70.26l9.625-28.336c1.027-3.021,3.4-4.982,6.029-4.982h83.281
						c2.629,0,5.001,1.961,6.029,4.982L184.847,77.022z"/>
				</g>
			</g>
		</g>
	</g>
	<g>
		<g>
			<circle fill="#FFA91A" cx="128" cy="178" r="65.527"/>
		</g>
		<g>
			<path fill="#F79219" d="M169.065,126.935c9.047,11.235,14.461,25.518,14.461,41.065c0,36.189-29.337,65.527-65.527,65.527
				c-15.547,0-29.83-5.415-41.065-14.461c12.011,14.917,30.423,24.461,51.065,24.461c36.189,0,65.527-29.337,65.527-65.527
				C193.527,157.358,183.982,138.945,169.065,126.935z"/>
		</g>
		<g>
			<path fill="#EF7816" d="M171.768,129.233c10.42,11.603,16.759,26.945,16.759,43.767c0,36.189-29.337,65.527-65.527,65.527
				c-16.823,0-32.164-6.339-43.767-16.759c11.996,13.358,29.4,21.759,48.767,21.759c36.189,0,65.527-29.337,65.527-65.527
				C193.527,158.633,185.125,141.229,171.768,129.233z"/>
		</g>
		<g>
			<g>
				<g>
					<g>
						<path fill="#F1F2F2" d="M159.846,161.31c0.585,0.157,1.208-0.011,1.636-0.438l8.059-8.059
							c0.428-0.428,0.595-1.052,0.438-1.636l-0.657-2.451c-0.337-1.26-1.912-1.681-2.834-0.759l-6.014,6.014
							c-0.428,0.428-1.052,0.595-1.636,0.438l-4.779-1.281c-0.585-0.157-1.041-0.613-1.198-1.198l-1.281-4.779
							c-0.157-0.585,0.011-1.208,0.439-1.636l6.014-6.014c0.922-0.922,0.5-2.497-0.759-2.834l-2.451-0.657
							c-0.585-0.157-1.208,0.01-1.636,0.438l-8.059,8.059c-0.428,0.428-0.595,1.052-0.438,1.636l1.8,6.719l-43.618,43.618
							l-6.719-1.8c-0.585-0.157-1.208,0.01-1.636,0.438l-8.059,8.059c-0.428,0.428-0.595,1.052-0.438,1.636l0.657,2.451
							c0.337,1.26,1.912,1.682,2.834,0.759l6.014-6.014c0.428-0.428,1.052-0.595,1.636-0.439l4.779,1.281
							c0.585,0.157,1.041,0.613,1.198,1.198l1.281,4.779c0.157,0.585-0.01,1.208-0.438,1.636l-6.014,6.014
							c-0.922,0.922-0.5,2.497,0.759,2.834l2.451,0.657c0.585,0.157,1.208-0.011,1.636-0.438l8.059-8.059
							c0.428-0.428,0.595-1.052,0.438-1.636l-1.8-6.718l43.618-43.618L159.846,161.31z"/>
					</g>
				</g>
				<g>
					<g>
						<g>
							<path fill="#D1D3D4" d="M162.017,159.139l-11.009-2.95c-0.585-0.157-1.041-0.613-1.198-1.198l-2.95-11.009
								c-0.157-0.585,0.01-1.208,0.438-1.636l-2.171,2.171c-0.428,0.428-0.595,1.052-0.438,1.636l2.95,11.009
								c0.157,0.585,0.613,1.041,1.198,1.198l11.009,2.95c0.584,0.157,1.208-0.01,1.636-0.438l2.171-2.171
								C163.226,159.129,162.602,159.296,162.017,159.139z"/>
						</g>
					</g>
					<g>
						<g>
							<g>
								<path fill="#D1D3D4" d="M88.434,205.517l-0.657-2.451c-0.157-0.585,0.01-1.208,0.438-1.636l-1.757,1.757
									c-0.428,0.428-0.595,1.052-0.438,1.636l0.657,2.451c0.337,1.26,1.912,1.681,2.834,0.759l1.757-1.757
									C90.346,207.198,88.772,206.776,88.434,205.517z"/>
							</g>
						</g>
						<g>
							<g>
								<path fill="#D1D3D4" d="M102.934,218.223l-2.451-0.657c-1.26-0.337-1.681-1.912-0.759-2.834l-1.757,1.757
									c-0.922,0.922-0.5,2.497,0.759,2.834l2.451,0.657c0.585,0.157,1.208-0.011,1.636-0.438l1.757-1.757
									C104.142,218.212,103.518,218.379,102.934,218.223z"/>
							</g>
						</g>
						<g>
							<g>
								<path fill="#D1D3D4" d="M105.738,208.718c0.428-0.428,0.595-1.052,0.438-1.636l-1.281-4.779
									c-0.157-0.585-0.613-1.041-1.198-1.198l-4.779-1.281c-0.585-0.157-1.208,0.01-1.636,0.438l-1.757,1.757
									c0.428-0.428,1.052-0.595,1.636-0.438l4.779,1.281c0.585,0.157,1.041,0.613,1.198,1.198l1.281,4.779
									c0.157,0.585-0.01,1.208-0.438,1.636L105.738,208.718z"/>
							</g>
						</g>
					</g>
				</g>
				<g>
					<g>
						<path fill="#E6E7E8" d="M108.577,197.423L108.577,197.423c1.124,1.124,2.946,1.124,4.07,0l34.777-34.777
							c1.124-1.124,1.124-2.946,0-4.07l0,0c-1.124-1.124-2.946-1.124-4.07,0l-34.777,34.777
							C107.453,194.477,107.453,196.299,108.577,197.423z"/>
					</g>
				</g>
				<g>
					<g>
						<path fill="#D1D3D4" d="M147.423,158.577c-1.124-1.124-2.946-1.124-4.07,0l-1.265,1.265c1.124-1.124,2.946-1.124,4.07,0
							c1.124,1.124,1.124,2.946,0,4.07l1.265-1.265C148.547,161.523,148.547,159.701,147.423,158.577z"/>
					</g>
				</g>
			</g>
			<g>
				<g>
					<g>
						<path fill="#E63950" d="M123.051,180.89l7.8-7.8c1.351-1.351,3.543-1.352,4.894,0l30.444,30.444
							c1.351,1.351,1.351,3.543,0,4.894l-7.8,7.8c-1.351,1.351-3.543,1.352-4.894,0l-30.444-30.444
							C121.7,184.432,121.7,182.241,123.051,180.89z"/>
					</g>
				</g>
				<g>
					<g>
						
							<rect x="144.868" y="200.915" transform="matrix(-0.7071 0.7071 -0.7071 -0.7071 406.794 239.2644)" fill="#D10028" width="17.952" height="5.935"/>
					</g>
				</g>
				<g>
					<g>
						<path fill="#D10028" d="M152.691,214.94l12.286-12.286c0.831-0.831,2.177-0.831,3.008,0l2.727,2.728
							c0.831,0.831,0.831,2.177,0,3.008l-12.286,12.286c-0.831,0.831-2.177,0.831-3.008,0l-2.728-2.727
							C151.861,217.117,151.861,215.77,152.691,214.94z"/>
					</g>
				</g>
				<g>
					<g>
						<g>
							
								<rect x="110.333" y="142.613" transform="matrix(-0.7071 0.7071 -0.7071 -0.7071 307.4935 198.1327)" fill="#E6E7E8" width="4.758" height="40.275"/>
						</g>
					</g>
					<g>
						<g>
							
								<rect x="111.625" y="142.613" transform="matrix(-0.7071 0.7071 -0.7071 -0.7071 307.4935 198.1327)" fill="#F1F2F2" width="2.174" height="40.275"/>
						</g>
					</g>
					<g>
						<g>
							<path fill="#E6E7E8" d="M84.873,138.487l3.575-3.575c0.265-0.265,0.69-0.28,0.973-0.035l7.077,6.133l3.679,5.795
								l-3.411,3.411l-5.795-3.679l-6.133-7.077C84.593,139.177,84.608,138.752,84.873,138.487z"/>
						</g>
					</g>
					<g>
						<g>
							<polygon fill="#D1D3D4" points="91.116,146.629 96.767,150.217 100.178,146.806 96.591,141.155 							"/>
						</g>
					</g>
				</g>
				<g>
					<g>
						
							<rect x="123.397" y="174.152" transform="matrix(-0.7071 0.7071 -0.7071 -0.7071 339.0329 211.1967)" fill="#D1D3D4" width="4.758" height="3.324"/>
					</g>
				</g>
			</g>
		</g>
		<g>
			<g>
				<g>
					<path fill="#F1F2F2" d="M130.029,130.222l1.326,4.082c0.286,0.879,1.105,1.474,2.029,1.474h4.292
						c2.067,0,2.927,2.645,1.254,3.86l-3.472,2.523c-0.748,0.543-1.061,1.507-0.775,2.386l1.326,4.082
						c0.639,1.966-1.611,3.601-3.284,2.386l-3.472-2.523c-0.748-0.543-1.761-0.543-2.508,0l-3.472,2.523
						c-1.672,1.215-3.922-0.42-3.284-2.386l1.326-4.082c0.286-0.879-0.027-1.842-0.775-2.386l-3.472-2.523
						c-1.672-1.215-0.813-3.86,1.254-3.86h4.292c0.924,0,1.744-0.595,2.029-1.474l1.326-4.082
						C126.609,128.256,129.391,128.256,130.029,130.222z"/>
				</g>
				<g>
					<path fill="#F1F2F2" d="M130.029,206.042l1.326,4.082c0.286,0.879,1.105,1.474,2.029,1.474h4.292
						c2.067,0,2.927,2.645,1.254,3.86l-3.472,2.523c-0.748,0.543-1.061,1.507-0.775,2.386l1.326,4.082
						c0.639,1.966-1.611,3.601-3.284,2.386l-3.472-2.523c-0.748-0.543-1.761-0.543-2.508,0l-3.472,2.523
						c-1.672,1.215-3.922-0.42-3.284-2.386l1.326-4.082c0.286-0.879-0.027-1.842-0.775-2.386l-3.472-2.523
						c-1.672-1.215-0.813-3.86,1.254-3.86h4.292c0.924,0,1.744-0.595,2.029-1.474l1.326-4.082
						C126.609,204.076,129.391,204.076,130.029,206.042z"/>
				</g>
			</g>
			<g>
				<g>
					<path fill="#F1F2F2" d="M167.939,168.132l1.326,4.082c0.286,0.879,1.105,1.474,2.029,1.474h4.292
						c2.067,0,2.927,2.645,1.254,3.86l-3.472,2.523c-0.748,0.543-1.061,1.507-0.775,2.386l1.326,4.082
						c0.639,1.966-1.611,3.601-3.284,2.386l-3.472-2.523c-0.748-0.543-1.761-0.543-2.508,0l-3.472,2.523
						c-1.672,1.215-3.922-0.42-3.284-2.386l1.326-4.082c0.286-0.879-0.027-1.842-0.775-2.386l-3.472-2.523
						c-1.672-1.215-0.813-3.86,1.254-3.86l4.292,0c0.924,0,1.744-0.595,2.029-1.474l1.326-4.082
						C164.519,166.166,167.301,166.166,167.939,168.132z"/>
				</g>
				<g>
					<path fill="#F1F2F2" d="M92.119,168.132l1.326,4.082c0.286,0.879,1.105,1.474,2.029,1.474h4.292
						c2.067,0,2.927,2.645,1.254,3.86l-3.472,2.523c-0.748,0.543-1.061,1.507-0.775,2.386l1.326,4.082
						c0.639,1.966-1.611,3.601-3.284,2.386l-3.472-2.523c-0.748-0.543-1.761-0.543-2.508,0l-3.472,2.523
						c-1.672,1.215-3.922-0.42-3.284-2.386l1.326-4.082c0.286-0.879-0.027-1.842-0.775-2.386l-3.472-2.523
						c-1.672-1.215-0.813-3.86,1.254-3.86h4.292c0.924,0,1.744-0.595,2.029-1.474l1.326-4.082
						C88.699,166.166,91.481,166.166,92.119,168.132z"/>
				</g>
			</g>
		</g>
	</g>
	<g>
		<path fill="#E8566F" d="M44.57,98.15c-0.99,0-1.84-0.75-1.98-1.73c-0.08-0.61-0.13-1.23-0.13-1.85c0-3.28,1.19-6.44,3.34-8.9
			c2.57-2.95,6.3-4.65,10.22-4.65h100.27c1.1,0,2,0.9,2,2c0,1.11-0.9,2-2,2H56.02c-2.76,0-5.39,1.2-7.2,3.28
			c-1.52,1.73-2.36,3.96-2.36,6.27c0,0.43,0.04,0.87,0.09,1.3c0.08,0.53-0.06,1.06-0.38,1.48c-0.32,0.43-0.79,0.7-1.32,0.78
			C44.75,98.14,44.66,98.15,44.57,98.15z M164.29,85.02c-1.1,0-2-0.89-2-2c0-1.1,0.9-2,2-2c1.1,0,2,0.9,2,2
			C166.29,84.13,165.39,85.02,164.29,85.02z"/>
	</g>
</g>
</svg>
