<?xml version="1.0" encoding="utf-8"?>
<!-- Generator: Adobe Illustrator 24.0.0, SVG Export Plug-In . SVG Version: 6.00 Build 0)  -->
<svg version="1.1" id="Layer_1" xmlns="http://www.w3.org/2000/svg" xmlns:xlink="http://www.w3.org/1999/xlink" x="0px" y="0px"
	 viewBox="0 0 256 256" enable-background="new 0 0 256 256" xml:space="preserve">
<g>
	<g>
		<g>
			<path fill="#377DE2" d="M36.535,91.16v130.845c0,5.051,4.095,9.146,9.146,9.146h164.636c5.051,0,9.146-4.095,9.146-9.146V91.16
				H36.535z"/>
		</g>
		<g>
			<g>
				<g>
					<path fill="#478CF7" d="M69.022,130.696h-14.33c-3.368,0-6.098-2.73-6.098-6.098v-14.33c0-3.368,2.73-6.098,6.098-6.098h14.33
						c3.368,0,6.098,2.73,6.098,6.098v14.33C75.12,127.966,72.39,130.696,69.022,130.696z"/>
				</g>
				<g>
					<path fill="#478CF7" d="M113.117,130.696h-14.33c-3.368,0-6.098-2.73-6.098-6.098v-14.33c0-3.368,2.73-6.098,6.098-6.098h14.33
						c3.368,0,6.098,2.73,6.098,6.098v14.33C119.215,127.966,116.485,130.696,113.117,130.696z"/>
				</g>
				<g>
					<path fill="#478CF7" d="M157.213,130.696h-14.33c-3.368,0-6.098-2.73-6.098-6.098v-14.33c0-3.368,2.73-6.098,6.098-6.098h14.33
						c3.368,0,6.098,2.73,6.098,6.098v14.33C163.31,127.966,160.58,130.696,157.213,130.696z"/>
				</g>
				<g>
					<path fill="#478CF7" d="M201.308,130.696h-14.33c-3.368,0-6.098-2.73-6.098-6.098v-14.33c0-3.368,2.73-6.098,6.098-6.098h14.33
						c3.368,0,6.098,2.73,6.098,6.098v14.33C207.406,127.966,204.676,130.696,201.308,130.696z"/>
				</g>
				<g>
					<g>
						<path fill="#478CF7" d="M69.022,174.792h-14.33c-3.368,0-6.098-2.73-6.098-6.098v-14.33c0-3.368,2.73-6.098,6.098-6.098h14.33
							c3.368,0,6.098,2.73,6.098,6.098v14.33C75.12,172.062,72.39,174.792,69.022,174.792z"/>
					</g>
					<g>
						<path fill="#478CF7" d="M113.117,174.792h-14.33c-3.368,0-6.098-2.73-6.098-6.098v-14.33c0-3.368,2.73-6.098,6.098-6.098
							h14.33c3.368,0,6.098,2.73,6.098,6.098v14.33C119.215,172.062,116.485,174.792,113.117,174.792z"/>
					</g>
					<g>
						<path fill="#478CF7" d="M157.213,174.792h-14.33c-3.368,0-6.098-2.73-6.098-6.098v-14.33c0-3.368,2.73-6.098,6.098-6.098
							h14.33c3.368,0,6.098,2.73,6.098,6.098v14.33C163.31,172.062,160.58,174.792,157.213,174.792z"/>
					</g>
					<g>
						<path fill="#478CF7" d="M201.308,174.792h-14.33c-3.368,0-6.098-2.73-6.098-6.098v-14.33c0-3.368,2.73-6.098,6.098-6.098
							h14.33c3.368,0,6.098,2.73,6.098,6.098v14.33C207.406,172.062,204.676,174.792,201.308,174.792z"/>
					</g>
				</g>
				<g>
					<g>
						<path fill="#478CF7" d="M69.022,218.887h-14.33c-3.368,0-6.098-2.73-6.098-6.098v-14.33c0-3.368,2.73-6.098,6.098-6.098h14.33
							c3.368,0,6.098,2.73,6.098,6.098v14.33C75.12,216.157,72.39,218.887,69.022,218.887z"/>
					</g>
					<g>
						<path fill="#478CF7" d="M113.117,218.887h-14.33c-3.368,0-6.098-2.73-6.098-6.098v-14.33c0-3.368,2.73-6.098,6.098-6.098
							h14.33c3.368,0,6.098,2.73,6.098,6.098v14.33C119.215,216.157,116.485,218.887,113.117,218.887z"/>
					</g>
					<g>
						<path fill="#478CF7" d="M157.213,218.887h-14.33c-3.368,0-6.098-2.73-6.098-6.098v-14.33c0-3.368,2.73-6.098,6.098-6.098
							h14.33c3.368,0,6.098,2.73,6.098,6.098v14.33C163.31,216.157,160.58,218.887,157.213,218.887z"/>
					</g>
					<g>
						<path fill="#478CF7" d="M201.308,218.887h-14.33c-3.368,0-6.098-2.73-6.098-6.098v-14.33c0-3.368,2.73-6.098,6.098-6.098
							h14.33c3.368,0,6.098,2.73,6.098,6.098v14.33C207.406,216.157,204.676,218.887,201.308,218.887z"/>
					</g>
				</g>
			</g>
			<g>
				<path fill="#F1F2F2" d="M210.318,48.223H45.682c-5.051,0-9.146,4.095-9.146,9.146V91.16h182.929V57.369
					C219.465,52.318,215.37,48.223,210.318,48.223z"/>
			</g>
			<g>
				<path fill="#E6E7E8" d="M210.318,48.223h-0.854V81.16H36.535v10h182.929V57.369C219.465,52.318,215.37,48.223,210.318,48.223z"
					/>
			</g>
			<g>
				<path fill="#D1D3D4" d="M213.784,48.903c0.438,1.069,0.68,2.239,0.68,3.466V86.16H36.535v5h182.929V57.369
					C219.465,53.544,217.117,50.269,213.784,48.903z"/>
			</g>
			<g>
				<path fill="#FFA91A" d="M86.841,71.597L86.841,71.597c-4.841,0-8.765-3.924-8.765-8.765V33.614c0-4.841,3.924-8.765,8.765-8.765
					h0c4.841,0,8.765,3.924,8.765,8.765v29.218C95.606,67.673,91.682,71.597,86.841,71.597z"/>
			</g>
			<g>
				<path fill="#F79219" d="M90.014,25.441c0.382,0.984,0.592,2.054,0.592,3.173v29.218c0,4.841-3.924,8.765-8.765,8.765h0
					c-1.119,0-2.189-0.21-3.173-0.592c1.271,3.273,4.451,5.592,8.173,5.592h0c4.841,0,8.765-3.924,8.765-8.765V33.614
					C95.606,29.892,93.286,26.712,90.014,25.441z"/>
			</g>
			<g>
				<path fill="#FFA91A" d="M169.159,71.597L169.159,71.597c-4.841,0-8.765-3.924-8.765-8.765V33.614
					c0-4.841,3.924-8.765,8.765-8.765h0c4.841,0,8.765,3.924,8.765,8.765v29.218C177.924,67.673,174,71.597,169.159,71.597z"/>
			</g>
			<g>
				<path fill="#F79219" d="M172.332,25.441c0.382,0.984,0.592,2.054,0.592,3.173v29.218c0,4.841-3.924,8.765-8.765,8.765h0
					c-1.119,0-2.189-0.21-3.173-0.592c1.271,3.273,4.451,5.592,8.173,5.592h0c4.841,0,8.765-3.924,8.765-8.765V33.614
					C177.924,29.892,175.604,26.712,172.332,25.441z"/>
			</g>
		</g>
		<g>
			<path fill="#FFFFFF" d="M42.53,76.65c-1.101,0-1.99-0.9-1.99-2s0.89-2,1.99-2c1.109,0,2,0.9,2,2S43.64,76.65,42.53,76.65z
				 M42.53,68.65c-1.101,0-1.99-0.9-1.99-2v-9.28c0-2.83,2.31-5.14,5.14-5.15h22.15c1.109,0,2,0.9,2,2c0,1.11-0.891,2-2,2H45.68
				c-0.63,0-1.14,0.52-1.149,1.15v9.27l0.01,0.01C44.54,67.75,43.64,68.65,42.53,68.65z"/>
		</g>
		<g>
			<path fill="#2266D3" d="M214.465,91.16v125.845c0,5.051-4.095,9.146-9.146,9.146H40.682c-1.227,0-2.397-0.242-3.466-0.68
				c1.366,3.333,4.642,5.68,8.466,5.68h164.636c5.051,0,9.146-4.095,9.146-9.146V91.16H214.465z"/>
		</g>
	</g>
	<g>
		<g>
			<g>
				<g>
					<path fill="#F1F2F2" d="M169.161,139.803c0.756,0.203,1.562-0.014,2.115-0.567l10.416-10.416
						c0.553-0.553,0.769-1.359,0.567-2.115l-0.849-3.168c-0.436-1.628-2.471-2.173-3.663-0.981l-7.773,7.773
						c-0.553,0.553-1.359,0.769-2.115,0.567l-6.177-1.655c-0.756-0.202-1.346-0.793-1.548-1.548l-1.655-6.177
						c-0.202-0.756,0.014-1.562,0.567-2.115l7.773-7.773c1.192-1.192,0.646-3.227-0.982-3.663l-3.168-0.849
						c-0.756-0.202-1.562,0.014-2.115,0.567l-10.416,10.416c-0.553,0.553-0.769,1.359-0.567,2.115l2.327,8.684l-56.375,56.375
						l-8.684-2.327c-0.755-0.202-1.562,0.014-2.115,0.567l-10.416,10.416c-0.553,0.553-0.769,1.359-0.567,2.115l0.849,3.168
						c0.436,1.628,2.471,2.173,3.663,0.982l7.773-7.773c0.553-0.553,1.359-0.769,2.115-0.567l6.177,1.655
						c0.756,0.202,1.346,0.793,1.548,1.548l1.655,6.177c0.202,0.756-0.014,1.562-0.567,2.115l-7.773,7.773
						c-1.192,1.192-0.647,3.227,0.981,3.663l3.168,0.849c0.756,0.203,1.562-0.014,2.115-0.567l10.416-10.416
						c0.553-0.553,0.769-1.359,0.567-2.115l-2.327-8.683l56.375-56.375L169.161,139.803z"/>
				</g>
			</g>
			<g>
				<g>
					<g>
						<path fill="#D1D3D4" d="M171.967,136.997l-14.229-3.813c-0.756-0.202-1.346-0.793-1.548-1.548l-3.813-14.229
							c-0.203-0.755,0.014-1.562,0.567-2.115l-2.806,2.806c-0.553,0.553-0.769,1.359-0.567,2.115l3.813,14.229
							c0.202,0.756,0.793,1.346,1.548,1.548l14.229,3.813c0.755,0.202,1.562-0.014,2.115-0.567l2.806-2.806
							C173.529,136.984,172.722,137.2,171.967,136.997z"/>
					</g>
				</g>
				<g>
					<g>
						<g>
							<path fill="#D1D3D4" d="M76.862,196.94l-0.849-3.168c-0.202-0.755,0.014-1.562,0.567-2.115l-2.271,2.271
								c-0.553,0.553-0.769,1.359-0.567,2.115l0.849,3.168c0.436,1.628,2.471,2.173,3.663,0.981l2.271-2.271
								C79.333,199.113,77.298,198.568,76.862,196.94z"/>
						</g>
					</g>
					<g>
						<g>
							<path fill="#D1D3D4" d="M95.603,213.362l-3.168-0.849c-1.628-0.436-2.173-2.471-0.981-3.663l-2.271,2.271
								c-1.192,1.192-0.646,3.227,0.981,3.663l3.168,0.849c0.755,0.202,1.562-0.014,2.115-0.567l2.271-2.271
								C97.164,213.348,96.358,213.564,95.603,213.362z"/>
						</g>
					</g>
					<g>
						<g>
							<path fill="#D1D3D4" d="M99.227,201.077c0.553-0.553,0.769-1.359,0.567-2.115l-1.655-6.177
								c-0.202-0.755-0.793-1.346-1.548-1.548l-6.177-1.655c-0.755-0.203-1.562,0.014-2.115,0.567l-2.271,2.271
								c0.553-0.553,1.359-0.769,2.115-0.567l6.177,1.655c0.755,0.202,1.346,0.793,1.548,1.548l1.655,6.177
								c0.202,0.755-0.014,1.562-0.567,2.115L99.227,201.077z"/>
						</g>
					</g>
				</g>
			</g>
			<g>
				<g>
					<path fill="#E6E7E8" d="M102.896,186.479L102.896,186.479c1.453,1.453,3.808,1.453,5.261,0l44.948-44.948
						c1.453-1.453,1.453-3.808,0-5.261l0,0c-1.453-1.453-3.808-1.453-5.261,0l-44.948,44.948
						C101.443,182.671,101.443,185.026,102.896,186.479z"/>
				</g>
			</g>
			<g>
				<g>
					<path fill="#D1D3D4" d="M153.105,136.27c-1.453-1.453-3.808-1.453-5.261,0l-1.635,1.635c1.453-1.453,3.808-1.453,5.261,0
						c1.453,1.453,1.453,3.808,0,5.261l1.635-1.635C154.557,140.078,154.557,137.723,153.105,136.27z"/>
				</g>
			</g>
		</g>
		<g>
			<g>
				<g>
					<path fill="#E63950" d="M121.604,165.109l10.081-10.081c1.747-1.747,4.579-1.747,6.326,0l39.348,39.348
						c1.747,1.747,1.747,4.579,0,6.326l-10.081,10.081c-1.747,1.747-4.579,1.747-6.326,0l-39.348-39.348
						C119.857,169.688,119.857,166.856,121.604,165.109z"/>
				</g>
			</g>
			<g>
				<g>
					
						<rect x="149.801" y="190.991" transform="matrix(-0.7071 0.7071 -0.7071 -0.7071 413.2948 218.4609)" fill="#D10028" width="23.203" height="7.671"/>
				</g>
			</g>
			<g>
				<g>
					<path fill="#D10028" d="M159.913,209.118l15.88-15.88c1.074-1.074,2.814-1.073,3.888,0l3.525,3.525
						c1.074,1.074,1.074,2.814,0,3.888l-15.88,15.88c-1.074,1.074-2.814,1.074-3.888,0l-3.525-3.525
						C158.84,211.932,158.84,210.192,159.913,209.118z"/>
				</g>
			</g>
			<g>
				<g>
					<g>
						
							<rect x="105.166" y="115.637" transform="matrix(-0.7071 0.7071 -0.7071 -0.7071 284.9503 165.2988)" fill="#E6E7E8" width="6.15" height="52.054"/>
					</g>
				</g>
				<g>
					<g>
						
							<rect x="106.836" y="115.637" transform="matrix(-0.7071 0.7071 -0.7071 -0.7071 284.9503 165.2988)" fill="#F1F2F2" width="2.809" height="52.054"/>
					</g>
				</g>
				<g>
					<g>
						<path fill="#E6E7E8" d="M72.259,110.304l4.621-4.621c0.343-0.343,0.892-0.362,1.258-0.045l9.147,7.927l4.756,7.491
							l-4.409,4.409l-7.491-4.756l-7.927-9.147C71.897,111.196,71.917,110.647,72.259,110.304z"/>
					</g>
				</g>
				<g>
					<g>
						<polygon fill="#D1D3D4" points="80.328,120.828 87.632,125.465 92.041,121.056 87.404,113.752 						"/>
					</g>
				</g>
			</g>
			<g>
				<g>
					
						<rect x="122.051" y="156.402" transform="matrix(-0.7071 0.7071 -0.7071 -0.7071 325.7145 182.1838)" fill="#D1D3D4" width="6.15" height="4.296"/>
				</g>
			</g>
		</g>
	</g>
</g>
</svg>
