<?xml version="1.0" encoding="utf-8"?>
<!-- Generator: Adobe Illustrator 24.0.0, SVG Export Plug-In . SVG Version: 6.00 Build 0)  -->
<svg version="1.1" id="Layer_1" xmlns="http://www.w3.org/2000/svg" xmlns:xlink="http://www.w3.org/1999/xlink" x="0px" y="0px"
	 viewBox="0 0 256 256" enable-background="new 0 0 256 256" xml:space="preserve">
<g>
	<g>
		<g>
			<g>
				<path fill="#478CF7" d="M213.483,85.922H42.517v124.649c0,6.771,5.489,12.261,12.261,12.261h146.445
					c6.771,0,12.261-5.489,12.261-12.261V85.922z"/>
			</g>
			<g>
				<path fill="#377DE2" d="M203.483,85.922v114.649c0,6.771-5.489,12.26-12.26,12.26H44.777c-0.71,0-1.406-0.061-2.083-0.177
					c0.989,5.779,6.022,10.177,12.083,10.177h146.445c6.771,0,12.26-5.489,12.26-12.26V85.922H203.483z"/>
			</g>
			<g>
				<path fill="#2266D3" d="M208.483,85.922v119.649c0,6.771-5.489,12.26-12.26,12.26H49.777c-2.099,0-4.075-0.528-5.803-1.458
					c2.069,3.844,6.131,6.458,10.803,6.458h146.445c6.771,0,12.26-5.489,12.26-12.26V85.922H208.483z"/>
			</g>
			<g>
				<path fill="#5E9CF7" d="M48.52,196.27c-1.109,0-2-0.9-2-2c0-1.11,0.891-2,2-2c1.101,0,2,0.89,2,2
					C50.52,195.37,49.62,196.27,48.52,196.27z M48.52,188.27c-1.109,0-2-0.9-2-2v-56.58c0-1.1,0.891-1.99,2-1.99
					c1.101,0,2,0.89,2,1.99v56.58C50.52,187.37,49.62,188.27,48.52,188.27z"/>
			</g>
			<g>
				<g>
					<path fill="#FFA91A" d="M53.907,119.651L53.907,119.651c-10.23,0-18.523-8.293-18.523-18.523V85.922H72.43v15.206
						C72.43,111.358,64.137,119.651,53.907,119.651z"/>
				</g>
				<g>
					<path fill="#F79219" d="M62.43,85.922v5.206c0,10.23-8.293,18.523-18.523,18.523c-2.518,0-4.917-0.507-7.106-1.417
						c2.788,6.703,9.394,11.417,17.106,11.417c10.23,0,18.523-8.293,18.523-18.523V85.922H62.43z"/>
				</g>
				<g>
					<path fill="#FFA91A" d="M90.954,119.651L90.954,119.651c-10.23,0-18.523-8.293-18.523-18.523V85.922h37.046v15.206
						C109.477,111.358,101.184,119.651,90.954,119.651z"/>
				</g>
				<g>
					<path fill="#F79219" d="M99.477,85.922v5.206c0,10.23-8.293,18.523-18.523,18.523c-2.518,0-4.917-0.507-7.106-1.417
						c2.788,6.703,9.394,11.417,17.106,11.417c10.23,0,18.523-8.293,18.523-18.523V85.922H99.477z"/>
				</g>
				<g>
					<path fill="#FFA91A" d="M128,119.651L128,119.651c-10.23,0-18.523-8.293-18.523-18.523V85.922h37.046v15.206
						C146.523,111.358,138.23,119.651,128,119.651z"/>
				</g>
				<g>
					<path fill="#F79219" d="M136.523,85.922v5.206c0,10.23-8.293,18.523-18.523,18.523h0c-2.518,0-4.917-0.507-7.106-1.417
						c2.788,6.703,9.394,11.417,17.106,11.417c10.23,0,18.523-8.293,18.523-18.523V85.922H136.523z"/>
				</g>
				<g>
					<path fill="#FFA91A" d="M165.046,119.651L165.046,119.651c-10.23,0-18.523-8.293-18.523-18.523V85.922h37.046v15.206
						C183.57,111.358,175.276,119.651,165.046,119.651z"/>
				</g>
				<g>
					<path fill="#F79219" d="M173.57,85.922v5.206c0,10.23-8.293,18.523-18.523,18.523c-2.518,0-4.917-0.507-7.106-1.417
						c2.788,6.703,9.394,11.417,17.106,11.417c10.23,0,18.523-8.293,18.523-18.523V85.922H173.57z"/>
				</g>
				<g>
					<path fill="#FFA91A" d="M202.093,119.651L202.093,119.651c-10.23,0-18.523-8.293-18.523-18.523V85.922h37.046v15.206
						C220.616,111.358,212.323,119.651,202.093,119.651z"/>
				</g>
				<g>
					<path fill="#F79219" d="M210.616,85.922v5.206c0,10.23-8.293,18.523-18.523,18.523h0c-2.518,0-4.917-0.507-7.106-1.417
						c2.788,6.703,9.394,11.417,17.106,11.417h0c10.23,0,18.523-8.293,18.523-18.523V85.922H210.616z"/>
				</g>
			</g>
			<g>
				<polygon fill="#995222" points="211.408,48.372 45.921,48.372 35.384,85.922 220.616,85.922 				"/>
			</g>
			<g>
				<polygon fill="#8C3F0A" points="211.408,48.372 193.86,48.372 200.616,75.922 38.19,75.922 35.384,85.922 220.616,85.922 				
					"/>
			</g>
			<g>
				<path fill="#8C3F0A" d="M203.433,33.169H53.896c-4.405,0-7.975,3.571-7.975,7.975v7.228h165.487v-7.228
					C211.408,36.74,207.838,33.169,203.433,33.169z"/>
			</g>
			<g>
				<path fill="#7C3108" d="M203.433,33.169h-20c4.405,0,7.975,3.571,7.975,7.975v7.228h20v-7.228
					C211.408,36.74,207.838,33.169,203.433,33.169z"/>
			</g>
		</g>
	</g>
	<g>
		<path fill="#7C3108" d="M177.628,133.403H78.372c-4.418,0-8,3.582-8,8v81.428h115.256v-81.428
			C185.628,136.985,182.046,133.403,177.628,133.403z"/>
	</g>
	<g>
		<path fill="#6D2E03" d="M177.628,133.403h-20c4.418,0,8,3.582,8,8v81.428h20v-81.428
			C185.628,136.985,182.046,133.403,177.628,133.403z"/>
	</g>
	<g>
		<g>
			<g>
				<g>
					<g>
						<g>
							<path fill="#478CF7" d="M157.548,176.651l0.002,0.007c0.147-0.394,0.472-0.711,0.902-0.827l7.773-2.097
								c0.79-0.213,1.585,0.326,1.679,1.138l0.525,4.503c0.077,0.659-0.341,1.276-0.982,1.448l-9.692,2.608
								c-0.739,0.199-1.515-0.148-1.86-0.831l0,0c-0.202-0.4-0.229-0.867-0.073-1.288L157.548,176.651z"/>
						</g>
					</g>
				</g>
				<g>
					<g>
						<g>
							<path fill="#478CF7" d="M98.452,176.651l-0.002,0.007c-0.147-0.394-0.472-0.711-0.902-0.827l-7.773-2.097
								c-0.79-0.213-1.585,0.326-1.679,1.138l-0.525,4.503c-0.077,0.659,0.341,1.276,0.982,1.448l9.692,2.608
								c0.739,0.199,1.515-0.148,1.86-0.831l0,0c0.202-0.4,0.229-0.867,0.073-1.288L98.452,176.651z"/>
						</g>
					</g>
				</g>
			</g>
			<g>
				<g>
					<g>
						<path fill="#414042" d="M103.739,222.553H93.495c-1.997,0-3.615-1.619-3.615-3.615v-17.34c0-1.997,1.619-3.616,3.615-3.616
							h10.244c1.997,0,3.616,1.619,3.616,3.616v17.34C107.354,220.934,105.735,222.553,103.739,222.553z"/>
					</g>
				</g>
				<g>
					<g>
						<path fill="#414042" d="M162.505,222.553h-10.244c-1.997,0-3.615-1.619-3.615-3.615v-17.34c0-1.997,1.619-3.616,3.615-3.616
							h10.244c1.997,0,3.615,1.619,3.615,3.616v17.34C166.121,220.934,164.502,222.553,162.505,222.553z"/>
					</g>
				</g>
			</g>
			<g>
				<g>
					<path fill="#5E9CF7" d="M161.327,214.023H94.673c-1.634,0-3.016-1.206-3.239-2.824l-2.759-20.068
						c-0.641-4.663,2.982-8.818,7.689-8.818h63.272c4.707,0,8.33,4.156,7.689,8.818l-2.759,20.068
						C164.344,212.817,162.961,214.023,161.327,214.023z"/>
				</g>
			</g>
			<g>
				<g>
					<path fill="#377DE2" d="M89.914,200.144l1.52,11.055c0.222,1.618,1.605,2.824,3.239,2.824h66.655
						c1.634,0,3.016-1.206,3.239-2.824l1.52-11.055H89.914z"/>
				</g>
			</g>
			<g>
				<g>
					<path fill="#5E9CF7" d="M148.078,163.673h-40.156c-2.427,0-4.597,1.515-5.433,3.793l-5.447,14.846h61.916l-5.447-14.846
						C152.675,165.187,150.505,163.673,148.078,163.673z"/>
				</g>
			</g>
			<g>
				<g>
					<path fill="#D1D3D4" d="M110.365,196.075H95.658c-0.704,0-1.299-0.52-1.394-1.218l-0.297-2.2
						c-0.114-0.844,0.542-1.595,1.394-1.595h14.707c0.704,0,1.299,0.52,1.394,1.218l0.297,2.2
						C111.873,195.324,111.216,196.075,110.365,196.075z"/>
				</g>
			</g>
			<g>
				<g>
					<path fill="#D1D3D4" d="M145.635,196.075h14.707c0.704,0,1.3-0.52,1.394-1.218l0.297-2.2c0.114-0.844-0.542-1.595-1.394-1.595
						h-14.707c-0.704,0-1.299,0.52-1.394,1.218l-0.297,2.2C144.127,195.324,144.784,196.075,145.635,196.075z"/>
				</g>
			</g>
			<g>
				<g>
					<path fill="#E6E7E8" d="M153.337,182.311h-50.674l4.256-12.531c0.454-1.336,1.503-2.203,2.666-2.203h36.829
						c1.163,0,2.212,0.867,2.666,2.203L153.337,182.311z"/>
				</g>
			</g>
		</g>
	</g>
</g>
</svg>
