<?xml version="1.0" encoding="utf-8"?>
<!-- Generator: Adobe Illustrator 24.0.0, SVG Export Plug-In . SVG Version: 6.00 Build 0)  -->
<svg version="1.1" id="Layer_1" xmlns="http://www.w3.org/2000/svg" xmlns:xlink="http://www.w3.org/1999/xlink" x="0px" y="0px"
	 viewBox="0 0 256 256" enable-background="new 0 0 256 256" xml:space="preserve">
<g>
	<g>
		<path fill="#F1F2F2" d="M230.777,219.037H25.223c-6.162,0-11.157-4.995-11.157-11.157V77.39h227.867v130.491
			C241.934,214.042,236.939,219.037,230.777,219.037z"/>
	</g>
	<g>
		<path fill="#FFFFFF" d="M20.07,200.89c-1.11,0-2-0.9-2-2v-70c0-1.1,0.89-2,2-2c1.1,0,2,0.9,2,2v70
			C22.07,199.99,21.17,200.89,20.07,200.89z M20.07,122.89c-1.11,0-2-0.9-2-2c0-1.1,0.89-2,2-2c1.1,0,2,0.9,2,2
			C22.07,121.99,21.17,122.89,20.07,122.89z"/>
	</g>
	<g>
		<path fill="#E6E7E8" d="M231.934,77.39v120.491c0,6.161-4.995,11.156-11.156,11.156H15.223c-0.372,0-0.74-0.019-1.102-0.054
			c0.554,5.644,5.313,10.054,11.102,10.054h205.554c6.161,0,11.156-4.995,11.156-11.156V77.39H231.934z"/>
	</g>
	<g>
		<path fill="#D1D3D4" d="M236.934,77.39v125.491c0,6.161-4.995,11.156-11.156,11.156H20.223c-1.791,0-3.483-0.423-4.983-1.173
			c1.83,3.66,5.613,6.173,9.983,6.173h205.554c6.161,0,11.156-4.995,11.156-11.156V77.39H236.934z"/>
	</g>
	<g>
		<g>
			<g>
				<path fill="#D10028" d="M30.343,104.34L30.343,104.34c-8.989,0-16.276-7.287-16.276-16.276V77.39h32.552v10.674
					C46.619,97.052,39.332,104.34,30.343,104.34z"/>
			</g>
			<g>
				<path fill="#F79219" d="M62.895,104.34L62.895,104.34c-8.989,0-16.276-7.287-16.276-16.276V77.39h32.552v10.674
					C79.171,97.052,71.884,104.34,62.895,104.34z"/>
			</g>
			<g>
				<path fill="#D10028" d="M95.448,104.34L95.448,104.34c-8.989,0-16.276-7.287-16.276-16.276V77.39h32.552v10.674
					C111.724,97.052,104.437,104.34,95.448,104.34z"/>
			</g>
			<g>
				<path fill="#F79219" d="M128,104.34L128,104.34c-8.989,0-16.276-7.287-16.276-16.276V77.39h32.552v10.674
					C144.276,97.052,136.989,104.34,128,104.34z"/>
			</g>
			<g>
				<path fill="#D10028" d="M160.552,104.34L160.552,104.34c-8.989,0-16.276-7.287-16.276-16.276V77.39h32.552v10.674
					C176.829,97.052,169.541,104.34,160.552,104.34z"/>
			</g>
			<g>
				<path fill="#F79219" d="M193.105,104.34L193.105,104.34c-8.989,0-16.276-7.287-16.276-16.276V77.39h32.552v10.674
					C209.381,97.052,202.094,104.34,193.105,104.34z"/>
			</g>
			<g>
				<path fill="#D10028" d="M225.657,104.34L225.657,104.34c-8.989,0-16.276-7.287-16.276-16.276V77.39h32.552v10.674
					C241.934,97.052,234.646,104.34,225.657,104.34z"/>
			</g>
		</g>
		<g>
			<path fill="#E63950" d="M58.404,48.046H38.37c-3.927,0-7.383,1.256-8.484,3.084L14.066,77.39h32.552L58.404,48.046z"/>
		</g>
		<g>
			<polygon fill="#FFA91A" points="85.064,48.046 58.404,48.046 46.619,77.39 79.171,77.39 			"/>
		</g>
		<g>
			<polygon fill="#E63950" points="111.724,48.046 85.064,48.046 79.171,77.39 111.724,77.39 			"/>
		</g>
		<g>
			<rect x="111.724" y="48.046" fill="#FFA91A" width="32.552" height="29.343"/>
		</g>
		<g>
			<polygon fill="#E63950" points="170.936,48.046 144.276,48.046 144.276,77.39 176.829,77.39 			"/>
		</g>
		<g>
			<polygon fill="#FFA91A" points="197.596,48.046 170.936,48.046 176.829,77.39 209.381,77.39 			"/>
		</g>
		<g>
			<path fill="#E63950" d="M217.63,48.046h-20.034l11.785,29.343h32.552l-15.82-26.259C225.013,49.303,221.557,48.046,217.63,48.046
				z"/>
		</g>
	</g>
	<g>
		<g>
			<path fill="#7C3108" d="M216.604,128.056H91.66c-2.056,0-3.723,1.667-3.723,3.723v87.257h132.392V131.78
				C220.328,129.723,218.661,128.056,216.604,128.056z"/>
		</g>
		<g>
			<path fill="#6D2E03" d="M216.604,128.056h-16.277v80.981H87.936v10h132.392V131.78
				C220.328,129.723,218.661,128.056,216.604,128.056z"/>
		</g>
		<g>
			<g>
				<path fill="#FFA91A" d="M76.641,211.869v-65.655V131.78c0-2.056-1.667-3.723-3.723-3.723H39.396
					c-2.056,0-3.723,1.667-3.723,3.723v87.257h40.969V211.869z"/>
			</g>
			<g>
				<rect x="35.672" y="173.687" fill="#F79219" width="40.969" height="22.632"/>
			</g>
			<g>
				<path fill="#F1F2F2" d="M65.041,194.021h5.355c1.232,0,2.231-0.999,2.231-2.231v-12.328c0-1.232-0.999-2.231-2.231-2.231h-5.355
					V194.021z"/>
			</g>
			<g>
				<rect x="65.041" y="177.231" fill="#D0D2D3" width="2.231" height="16.791"/>
			</g>
		</g>
	</g>
	<g>
		<g>
			<g>
				<g>
					<g>
						<g>
							<path fill="#478CF7" d="M183.68,173.135l0.002,0.007c0.147-0.394,0.472-0.711,0.902-0.827l7.773-2.097
								c0.79-0.213,1.585,0.326,1.68,1.138l0.525,4.503c0.077,0.659-0.341,1.276-0.982,1.448l-9.692,2.608
								c-0.739,0.199-1.515-0.148-1.86-0.831l0,0c-0.202-0.4-0.229-0.867-0.073-1.288L183.68,173.135z"/>
						</g>
					</g>
				</g>
				<g>
					<g>
						<g>
							<path fill="#478CF7" d="M124.584,173.135l-0.002,0.007c-0.147-0.394-0.472-0.711-0.902-0.827l-7.773-2.097
								c-0.79-0.213-1.585,0.326-1.68,1.138l-0.525,4.503c-0.077,0.659,0.341,1.276,0.982,1.448l9.692,2.608
								c0.739,0.199,1.515-0.148,1.86-0.831l0,0c0.202-0.4,0.229-0.867,0.073-1.288L124.584,173.135z"/>
						</g>
					</g>
				</g>
			</g>
			<g>
				<g>
					<g>
						<path fill="#808285" d="M129.87,219.037h-10.244c-1.997,0-3.615-1.619-3.615-3.615v-17.34c0-1.997,1.619-3.616,3.615-3.616
							h10.244c1.997,0,3.616,1.619,3.616,3.616v17.34C133.486,217.418,131.867,219.037,129.87,219.037z"/>
					</g>
				</g>
				<g>
					<g>
						<path fill="#808285" d="M188.637,219.037h-10.244c-1.997,0-3.615-1.619-3.615-3.615v-17.34c0-1.997,1.619-3.616,3.615-3.616
							h10.244c1.997,0,3.615,1.619,3.615,3.616v17.34C192.253,217.418,190.634,219.037,188.637,219.037z"/>
					</g>
				</g>
			</g>
			<g>
				<g>
					<path fill="#5E9CF7" d="M187.459,210.507h-66.655c-1.634,0-3.016-1.206-3.239-2.824l-2.759-20.068
						c-0.641-4.663,2.982-8.818,7.689-8.818h63.272c4.707,0,8.33,4.156,7.689,8.818l-2.759,20.068
						C190.476,209.301,189.093,210.507,187.459,210.507z"/>
				</g>
			</g>
			<g>
				<g>
					<path fill="#377DE2" d="M116.046,196.628l1.52,11.055c0.222,1.618,1.605,2.824,3.239,2.824h66.655
						c1.634,0,3.016-1.206,3.239-2.824l1.52-11.055H116.046z"/>
				</g>
			</g>
			<g>
				<g>
					<path fill="#5E9CF7" d="M174.21,160.157h-40.156c-2.427,0-4.597,1.515-5.433,3.793l-5.447,14.846h61.916l-5.447-14.846
						C178.807,161.672,176.637,160.157,174.21,160.157z"/>
				</g>
			</g>
			<g>
				<g>
					<path fill="#D1D3D4" d="M136.497,192.559H121.79c-0.704,0-1.3-0.52-1.394-1.218l-0.297-2.2
						c-0.114-0.844,0.542-1.595,1.394-1.595h14.707c0.704,0,1.299,0.52,1.394,1.218l0.297,2.2
						C138.004,191.809,137.348,192.559,136.497,192.559z"/>
				</g>
			</g>
			<g>
				<g>
					<path fill="#D1D3D4" d="M171.767,192.559h14.707c0.704,0,1.3-0.52,1.394-1.218l0.297-2.2c0.114-0.844-0.542-1.595-1.394-1.595
						h-14.707c-0.704,0-1.299,0.52-1.394,1.218l-0.297,2.2C170.259,191.809,170.916,192.559,171.767,192.559z"/>
				</g>
			</g>
			<g>
				<g>
					<path fill="#E6E7E8" d="M178.938,178.796h-49.612l4.167-12.269c0.445-1.308,1.472-2.157,2.61-2.157h36.058
						c1.138,0,2.165,0.849,2.61,2.157L178.938,178.796z"/>
				</g>
			</g>
		</g>
	</g>
</g>
</svg>
