<?xml version="1.0" encoding="utf-8"?>
<!-- Generator: Adobe Illustrator 24.0.0, SVG Export Plug-In . SVG Version: 6.00 Build 0)  -->
<svg version="1.1" id="Layer_1" xmlns="http://www.w3.org/2000/svg" xmlns:xlink="http://www.w3.org/1999/xlink" x="0px" y="0px"
	 viewBox="0 0 256 256" enable-background="new 0 0 256 256" xml:space="preserve">
<g>
	<g>
		<g>
			<g>
				<g>
					<g>
						<g>
							<g>
								<path fill="#377DE2" d="M165.364,52.071l0.003,0.009c0.186-0.498,0.597-0.899,1.14-1.046l9.829-2.652
									c0.999-0.269,2.004,0.412,2.124,1.439l0.664,5.694c0.097,0.834-0.431,1.613-1.241,1.831l-12.255,3.298
									c-0.934,0.251-1.916-0.187-2.352-1.051l0,0c-0.256-0.506-0.289-1.096-0.092-1.628L165.364,52.071z"/>
							</g>
						</g>
					</g>
					<g>
						<g>
							<g>
								<path fill="#377DE2" d="M90.636,52.071l-0.003,0.009c-0.186-0.498-0.597-0.899-1.14-1.046l-9.829-2.652
									c-0.999-0.269-2.004,0.412-2.124,1.439l-0.664,5.694c-0.097,0.834,0.431,1.613,1.241,1.831l12.255,3.298
									c0.934,0.251,1.916-0.187,2.352-1.051v0c0.256-0.506,0.289-1.096,0.092-1.628L90.636,52.071z"/>
							</g>
						</g>
					</g>
				</g>
				<g>
					<g>
						<g>
							<path fill="#414042" d="M97.322,110.113H84.368c-2.525,0-4.572-2.047-4.572-4.572V83.615c0-2.525,2.047-4.572,4.572-4.572
								h12.953c2.525,0,4.572,2.047,4.572,4.572v21.926C101.893,108.066,99.846,110.113,97.322,110.113z"/>
						</g>
					</g>
					<g>
						<g>
							<path fill="#414042" d="M171.632,110.113h-12.953c-2.525,0-4.572-2.047-4.572-4.572V83.615c0-2.525,2.047-4.572,4.572-4.572
								h12.953c2.525,0,4.572,2.047,4.572,4.572v21.926C176.204,108.066,174.157,110.113,171.632,110.113z"/>
						</g>
					</g>
				</g>
				<g>
					<g>
						<path fill="#478CF7" d="M170.142,99.327H85.858c-2.066,0-3.814-1.525-4.096-3.571L78.274,70.38
							c-0.811-5.896,3.771-11.151,9.723-11.151h80.008c5.952,0,10.533,5.255,9.723,11.151l-3.489,25.376
							C173.956,97.802,172.208,99.327,170.142,99.327z"/>
					</g>
				</g>
				<g>
					<path fill="#377DE2" d="M171.978,60.066c0.714,1.605,1.008,3.426,0.748,5.314l-3.489,25.376
						c-0.281,2.046-2.03,3.571-4.095,3.571H81.566l0.196,1.429c0.281,2.046,2.03,3.571,4.096,3.571h84.285
						c2.066,0,3.814-1.525,4.095-3.571l3.489-25.376C178.344,65.891,175.836,61.776,171.978,60.066z"/>
				</g>
				<g>
					<g>
						<path fill="#2266D3" d="M79.84,81.777l1.922,13.979c0.281,2.046,2.03,3.571,4.096,3.571h84.284
							c2.066,0,3.814-1.525,4.096-3.571l1.922-13.979H79.84z"/>
					</g>
				</g>
				<g>
					<g>
						<path fill="#478CF7" d="M153.389,35.66h-50.778c-3.069,0-5.812,1.915-6.869,4.797l-6.888,18.772h78.292l-6.888-18.772
							C159.201,37.575,156.458,35.66,153.389,35.66z"/>
					</g>
				</g>
				<g>
					<g>
						<path fill="#D1D3D4" d="M105.7,76.632H87.103c-0.89,0-1.643-0.658-1.762-1.54l-0.376-2.782
							c-0.144-1.067,0.686-2.017,1.762-2.017h18.597c0.89,0,1.643,0.658,1.762,1.54l0.376,2.782
							C107.607,75.683,106.777,76.632,105.7,76.632z"/>
					</g>
				</g>
				<g>
					<g>
						<path fill="#D1D3D4" d="M150.3,76.632h18.597c0.89,0,1.643-0.658,1.762-1.54l0.376-2.782c0.144-1.067-0.686-2.017-1.762-2.017
							h-18.597c-0.89,0-1.643,0.658-1.762,1.54l-0.376,2.782C148.393,75.683,149.223,76.632,150.3,76.632z"/>
					</g>
				</g>
				<g>
					<g>
						<path fill="#E6E7E8" d="M160.038,59.228H95.962l5.382-15.846c0.574-1.69,1.901-2.786,3.371-2.786h46.57
							c1.47,0,2.797,1.097,3.371,2.786L160.038,59.228z"/>
					</g>
				</g>
			</g>
		</g>
		<g>
			<g>
				<g>
					<g>
						<g>
							<g>
								<path fill="#893ADD" d="M165.364,162.298l0.003,0.009c0.186-0.498,0.597-0.899,1.14-1.046l9.829-2.652
									c0.999-0.269,2.004,0.412,2.124,1.439l0.664,5.694c0.097,0.834-0.431,1.613-1.241,1.831l-12.255,3.298
									c-0.934,0.251-1.916-0.187-2.352-1.051h0c-0.256-0.506-0.289-1.096-0.092-1.628L165.364,162.298z"/>
							</g>
						</g>
					</g>
					<g>
						<g>
							<g>
								<path fill="#893ADD" d="M90.636,162.298l-0.003,0.009c-0.186-0.498-0.597-0.899-1.14-1.046l-9.829-2.652
									c-0.999-0.269-2.004,0.412-2.124,1.439l-0.664,5.694c-0.097,0.834,0.431,1.613,1.241,1.831l12.255,3.298
									c0.934,0.251,1.916-0.187,2.352-1.051l0,0c0.256-0.506,0.289-1.096,0.092-1.628L90.636,162.298z"/>
							</g>
						</g>
					</g>
				</g>
				<g>
					<g>
						<g>
							<path fill="#414042" d="M97.322,220.34H84.368c-2.525,0-4.572-2.047-4.572-4.572v-21.926c0-2.525,2.047-4.572,4.572-4.572
								h12.953c2.525,0,4.572,2.047,4.572,4.572v21.926C101.893,218.294,99.846,220.34,97.322,220.34z"/>
						</g>
					</g>
					<g>
						<g>
							<path fill="#414042" d="M171.632,220.34h-12.953c-2.525,0-4.572-2.047-4.572-4.572v-21.926c0-2.525,2.047-4.572,4.572-4.572
								h12.953c2.525,0,4.572,2.047,4.572,4.572v21.926C176.204,218.294,174.157,220.34,171.632,220.34z"/>
						</g>
					</g>
				</g>
				<g>
					<g>
						<path fill="#A54AF4" d="M170.142,209.554H85.858c-2.066,0-3.814-1.525-4.096-3.571l-3.489-25.376
							c-0.811-5.896,3.771-11.151,9.723-11.151h80.008c5.952,0,10.533,5.255,9.723,11.151l-3.489,25.376
							C173.956,208.029,172.208,209.554,170.142,209.554z"/>
					</g>
				</g>
				<g>
					<path fill="#893ADD" d="M171.978,170.293c0.714,1.605,1.008,3.426,0.748,5.314l-3.489,25.376
						c-0.281,2.046-2.03,3.571-4.095,3.571H81.566l0.196,1.429c0.281,2.046,2.03,3.571,4.096,3.571h84.285
						c2.066,0,3.814-1.525,4.095-3.571l3.489-25.376C178.344,176.119,175.836,172.003,171.978,170.293z"/>
				</g>
				<g>
					<g>
						<path fill="#6C2BC1" d="M79.84,192.004l1.922,13.979c0.281,2.046,2.03,3.571,4.096,3.571h84.284
							c2.066,0,3.814-1.525,4.096-3.571l1.922-13.979H79.84z"/>
					</g>
				</g>
				<g>
					<g>
						<path fill="#A54AF4" d="M153.389,145.887h-50.778c-3.069,0-5.812,1.915-6.869,4.797l-6.888,18.772h78.292l-6.888-18.772
							C159.201,147.802,156.458,145.887,153.389,145.887z"/>
					</g>
				</g>
				<g>
					<g>
						<path fill="#D1D3D4" d="M105.7,186.86H87.103c-0.89,0-1.643-0.658-1.762-1.54l-0.376-2.782
							c-0.144-1.067,0.686-2.017,1.762-2.017h18.597c0.89,0,1.643,0.658,1.762,1.54l0.376,2.782
							C107.607,185.91,106.777,186.86,105.7,186.86z"/>
					</g>
				</g>
				<g>
					<g>
						<path fill="#D1D3D4" d="M150.3,186.86h18.597c0.89,0,1.643-0.658,1.762-1.54l0.376-2.782c0.144-1.067-0.686-2.017-1.762-2.017
							h-18.597c-0.89,0-1.643,0.658-1.762,1.54l-0.376,2.782C148.393,185.91,149.223,186.86,150.3,186.86z"/>
					</g>
				</g>
				<g>
					<g>
						<path fill="#F1F2F2" d="M160.038,169.455H95.962l5.382-15.846c0.574-1.69,1.901-2.786,3.371-2.786h46.57
							c1.47,0,2.797,1.097,3.371,2.786L160.038,169.455z"/>
					</g>
				</g>
				<g>
					<path fill="#E6E7E8" d="M154.656,153.61c-0.575-1.69-1.901-2.786-3.371-2.786h-4.179l2.932,8.632h-50.68l-3.397,10h64.077
						L154.656,153.61z"/>
				</g>
				<g>
					<path fill="#D1D3D4" d="M154.656,153.61c-0.575-1.69-1.901-2.786-3.371-2.786h-0.877l4.63,13.632H97.66l-1.698,5h64.077
						L154.656,153.61z"/>
				</g>
			</g>
		</g>
	</g>
	<g>
		<g>
			<path fill="#808285" d="M59.839,181.387h-40c-2.209,0-4-1.791-4-4V78.613c0-2.209,1.791-4,4-4h40c2.209,0,4,1.791,4,4
				s-1.791,4-4,4h-36v90.773h36c2.209,0,4,1.791,4,4S62.048,181.387,59.839,181.387z"/>
		</g>
		<g>
			<path fill="#808285" d="M236.161,181.387h-40c-2.209,0-4-1.791-4-4s1.791-4,4-4h36V82.613h-36c-2.209,0-4-1.791-4-4s1.791-4,4-4
				h40c2.209,0,4,1.791,4,4v98.773C240.161,179.596,238.37,181.387,236.161,181.387z"/>
		</g>
	</g>
	<g>
		<g>
			<path fill="#808285" d="M207.209,95.475c-1.023,0-2.048-0.391-2.828-1.171L191.52,81.442c-1.563-1.563-1.563-4.095,0-5.657
				l12.861-12.862c1.561-1.562,4.094-1.562,5.656,0c1.563,1.562,1.563,4.095,0,5.657l-10.032,10.033l10.032,10.033
				c1.563,1.563,1.563,4.095,0,5.657C209.257,95.084,208.232,95.475,207.209,95.475z"/>
		</g>
		<g>
			<path fill="#808285" d="M48.791,194.249c-1.023,0-2.048-0.391-2.828-1.171c-1.563-1.563-1.563-4.095,0-5.657l10.032-10.033
				l-10.032-10.034c-1.563-1.562-1.563-4.095,0-5.657c1.561-1.562,4.094-1.562,5.656,0l12.861,12.862
				c1.563,1.562,1.563,4.094,0,5.657l-12.861,12.861C50.839,193.858,49.814,194.249,48.791,194.249z"/>
		</g>
	</g>
	<g>
		<path fill="#5E9CF7" d="M85.12,68.54c-0.48,0-0.95-0.18-1.311-0.5c-0.41-0.35-0.649-0.83-0.68-1.37
			c-0.04-0.53,0.13-1.05,0.479-1.45c0.4-0.46,1.891-1.99,4.391-1.99h46.74c1.1,0,2,0.9,2,2s-0.9,2-2,2H88
			c-0.7,0-1.101,0.33-1.37,0.62C86.25,68.29,85.7,68.54,85.12,68.54z M142.74,67.23c-1.101,0-2-0.9-2-2s0.899-2,2-2c1.1,0,2,0.9,2,2
			S143.84,67.23,142.74,67.23z"/>
	</g>
</g>
</svg>
