<?xml version="1.0" encoding="utf-8"?>
<!-- Generator: Adobe Illustrator 24.0.0, SVG Export Plug-In . SVG Version: 6.00 Build 0)  -->
<svg version="1.1" id="Layer_1" xmlns="http://www.w3.org/2000/svg" xmlns:xlink="http://www.w3.org/1999/xlink" x="0px" y="0px"
	 viewBox="0 0 256 256" enable-background="new 0 0 256 256" xml:space="preserve">
<g>
	<g>
		<g>
			<path fill="#5A7A39" d="M224.086,184.433H51.594c-3.261,0-5.904-2.643-5.904-5.904V97.15c0-3.261,2.643-5.904,5.904-5.904
				h172.492c3.261,0,5.904,2.643,5.904,5.904v81.379C229.99,181.79,227.346,184.433,224.086,184.433z"/>
		</g>
		<g>
			<path fill="#648940" d="M214.246,174.594H41.754c-3.261,0-5.904-2.643-5.904-5.904V87.31c0-3.261,2.643-5.904,5.904-5.904
				h172.492c3.261,0,5.904,2.643,5.904,5.904v81.379C220.15,171.95,217.507,174.594,214.246,174.594z"/>
		</g>
		<g>
			<path fill="#76A34F" d="M204.406,164.754H31.914c-3.261,0-5.904-2.643-5.904-5.904V77.471c0-3.261,2.643-5.904,5.904-5.904
				h172.492c3.261,0,5.904,2.643,5.904,5.904v81.379C210.31,162.111,207.667,164.754,204.406,164.754z"/>
		</g>
		<g>
			<path fill="#91B56B" d="M202.223,133.068v-29.816c0-1.028-0.793-1.867-1.817-1.956c-10.304-0.893-18.514-9.314-19.369-19.873
				c-0.083-1.027-0.926-1.824-1.956-1.824H57.24c-1.03,0-1.873,0.797-1.956,1.824c-0.855,10.559-9.065,18.979-19.369,19.873
				c-1.024,0.089-1.817,0.928-1.817,1.956v29.816c0,1.028,0.793,1.867,1.817,1.956c10.304,0.893,18.514,9.314,19.369,19.873
				c0.083,1.027,0.926,1.824,1.956,1.824h121.841c1.03,0,1.873-0.797,1.956-1.824c0.855-10.559,9.065-18.979,19.369-19.873
				C201.43,134.935,202.223,134.096,202.223,133.068z"/>
		</g>
		<g>
			<circle fill="#FFFFFF" cx="118.16" cy="118.16" r="30.406"/>
		</g>
		<g>
			<g>
				<path fill="#648940" d="M121.169,136.71h-6.018c-5.251,0-9.522-4.271-9.522-9.522c0-1.104,0.896-2,2-2s2,0.896,2,2
					c0,3.045,2.478,5.522,5.522,5.522h6.018c3.046,0,5.523-2.478,5.523-5.522v-3.009c0-3.045-2.478-5.522-5.523-5.522h-6.018
					c-5.251,0-9.522-4.272-9.522-9.523s4.271-9.522,9.522-9.522h6.018c5.251,0,9.523,4.271,9.523,9.522c0,1.104-0.896,2-2,2
					s-2-0.896-2-2c0-3.045-2.478-5.522-5.523-5.522h-6.018c-3.045,0-5.522,2.478-5.522,5.522c0,3.046,2.478,5.523,5.522,5.523h6.018
					c5.251,0,9.523,4.271,9.523,9.522v3.009C130.692,132.438,126.42,136.71,121.169,136.71z"/>
			</g>
			<g>
				<path fill="#648940" d="M118.16,139.72c-1.104,0-2-0.896-2-2V98.602c0-1.104,0.896-2,2-2s2,0.896,2,2v39.118
					C120.16,138.824,119.265,139.72,118.16,139.72z"/>
			</g>
		</g>
	</g>
	<g>
		<g>
			<path fill="#FFA91A" d="M246.359,89.32c0,4.574-6.973,7.989-8.312,12.117c-1.389,4.277,2.2,11.13-0.395,14.69
				c-2.618,3.599-10.259,2.291-13.855,4.907c-3.56,2.591-4.666,10.277-8.943,11.666c-4.127,1.34-9.52-4.184-14.097-4.184
				s-9.967,5.524-14.097,4.184c-4.277-1.389-5.383-9.074-8.943-11.666c-3.599-2.617-11.239-1.312-13.855-4.907
				c-2.592-3.56,0.994-10.413-0.395-14.69c-1.34-4.127-8.312-7.543-8.312-12.117s6.973-7.989,8.312-12.117
				c1.389-4.277-2.2-11.13,0.395-14.69c2.618-3.599,10.259-2.291,13.855-4.907c3.56-2.591,4.666-10.277,8.943-11.666
				c4.127-1.34,9.52,4.184,14.097,4.184s9.967-5.524,14.097-4.184c4.277,1.389,5.383,9.074,8.943,11.666
				c3.599,2.617,11.239,1.312,13.855,4.907c2.591,3.56-0.994,10.413,0.395,14.69C239.386,81.331,246.359,84.746,246.359,89.32z"/>
		</g>
	</g>
	<g>
		<g>
			<path fill="#F79219" d="M238.046,101.437c1.34-4.127,8.313-7.543,8.313-12.117c0-4.574-6.973-7.99-8.313-12.117
				c-1.389-4.277,2.197-11.13-0.395-14.69c-1.753-2.409-5.762-2.618-9.299-3.281c-0.4,2.802-1.031,5.738-0.306,7.971
				c1.34,4.127,8.313,7.542,8.313,12.117c0,4.574-6.973,7.99-8.313,12.117c-1.389,4.277,2.2,11.13-0.395,14.69
				c-2.618,3.599-10.259,2.291-13.855,4.907c-3.56,2.592-4.666,10.277-8.943,11.666c-4.127,1.34-9.52-4.184-14.097-4.184
				c-3.632,0-7.776,3.478-11.396,4.245c2.389,3.317,3.756,8.789,7.299,9.939c4.13,1.34,9.52-4.184,14.097-4.184
				c4.577,0,9.97,5.524,14.097,4.184c4.277-1.389,5.383-9.074,8.943-11.666c3.596-2.616,11.238-1.308,13.855-4.907
				C240.246,112.567,236.657,105.714,238.046,101.437z"/>
		</g>
	</g>
	<g>
		<g>
			<path fill="#EF7816" d="M238.046,101.437c1.34-4.127,8.313-7.543,8.313-12.117c0-4.574-6.973-7.99-8.313-12.117
				c-1.389-4.277,2.197-11.13-0.395-14.69c-0.893-1.228-2.372-1.884-4.076-2.32c0.361,3.695-1.621,8.648-0.529,12.01
				c1.34,4.127,8.313,7.542,8.313,12.117c0,4.574-6.973,7.99-8.313,12.117c-1.389,4.277,2.2,11.13-0.395,14.69
				c-2.618,3.599-10.259,2.291-13.855,4.907c-3.56,2.592-4.666,10.277-8.943,11.666c-4.127,1.34-9.52-4.184-14.097-4.184
				c-4.384,0-9.513,5.066-13.567,4.318c1.182,2.219,2.484,4.221,4.469,4.866c4.13,1.34,9.52-4.184,14.097-4.184
				c4.577,0,9.97,5.524,14.097,4.184c4.277-1.389,5.383-9.074,8.943-11.666c3.596-2.616,11.238-1.308,13.855-4.907
				C240.246,112.567,236.657,105.714,238.046,101.437z"/>
		</g>
	</g>
	<g>
		<g>
			<g>
				<g>
					<path fill="#F1F2F2" d="M196.404,105.495c-1.388,0-2.775-0.53-3.835-1.588l-12.801-12.801c-2.118-2.118-2.118-5.551,0-7.669
						c2.118-2.117,5.551-2.117,7.669,0l8.967,8.968l17.67-17.671c2.118-2.117,5.551-2.117,7.669,0c2.118,2.118,2.118,5.551,0,7.669
						l-21.505,21.505C199.179,104.965,197.792,105.495,196.404,105.495z"/>
				</g>
			</g>
		</g>
	</g>
	<g>
		<path fill="#FFC91D" d="M169.17,81.06c-3.058-0.158-2.339-4.677,0.62-3.91C171.931,77.852,171.419,81.058,169.17,81.06z
			 M169.5,73.13c-2.049-0.046-2.037-2.115-2.26-3.65c-0.845-4.804-0.47-5.233,4.329-5.92c10.43-1.335,10.6-4.728,15.35-12.87
			c1.392-1.832,3.685-0.042,5.25,0.63c6.676,3.7,10.593,3.646,17.18-0.01c1.691-0.794,4.47-2.667,5.521-0.089
			c0.35,1.04-0.21,2.18-1.25,2.53c-0.673,0.217-2.167,0.991-2.82,1.31c-8.443,4.691-13.793,3.498-21.45-0.67
			c-4.612,9.558-7.857,11.861-18.319,13.32C171.207,69.721,172.515,72.89,169.5,73.13z"/>
	</g>
</g>
</svg>
