<?xml version="1.0" encoding="utf-8"?>
<!-- Generator: Adobe Illustrator 24.0.0, SVG Export Plug-In . SVG Version: 6.00 Build 0)  -->
<svg version="1.1" id="Layer_1" xmlns="http://www.w3.org/2000/svg" xmlns:xlink="http://www.w3.org/1999/xlink" x="0px" y="0px"
	 viewBox="0 0 256 256" enable-background="new 0 0 256 256" xml:space="preserve">
<g>
	<g>
		<g>
			<g>
				<g>
					<g>
						<g>
							<path fill="#648940" d="M202.029,56.229l0.004,0.014c0.3-0.802,0.961-1.448,1.836-1.684l15.824-4.269
								c1.608-0.434,3.226,0.663,3.419,2.317l1.069,9.167c0.156,1.342-0.694,2.597-1.998,2.949l-19.73,5.31
								c-1.504,0.405-3.085-0.302-3.787-1.692v0c-0.412-0.815-0.466-1.765-0.149-2.622L202.029,56.229z"/>
						</g>
					</g>
				</g>
				<g>
					<g>
						<g>
							<path fill="#648940" d="M53.971,56.229l-0.004,0.014c-0.3-0.802-0.961-1.448-1.836-1.684l-15.824-4.269
								c-1.608-0.434-3.226,0.663-3.419,2.317l-1.069,9.167c-0.156,1.342,0.694,2.597,1.998,2.949l19.73,5.31
								c1.504,0.405,3.085-0.302,3.787-1.692v0c0.412-0.815,0.466-1.765,0.149-2.622L53.971,56.229z"/>
						</g>
					</g>
				</g>
			</g>
			<g>
				<g>
					<g>
						<path fill="#58595B" d="M68.732,158.265H43.707c-4.878,0-8.832-3.954-8.832-8.832v-42.359c0-4.878,3.954-8.832,8.832-8.832
							h25.025c4.878,0,8.832,3.954,8.832,8.832v42.359C77.564,154.31,73.61,158.265,68.732,158.265z"/>
					</g>
				</g>
				<g>
					<g>
						<path fill="#58595B" d="M212.293,158.265h-25.025c-4.878,0-8.832-3.954-8.832-8.832v-42.359c0-4.878,3.954-8.832,8.832-8.832
							h25.025c4.878,0,8.832,3.954,8.832,8.832v42.359C221.125,154.31,217.171,158.265,212.293,158.265z"/>
					</g>
				</g>
			</g>
			<g>
				<g>
					<path fill="#76A34F" d="M209.415,146.735H46.585c-3.991,0-7.369-2.945-7.912-6.899l-6.74-49.025
						c-1.566-11.391,7.285-21.542,18.783-21.542h154.567c11.498,0,20.349,10.152,18.783,21.542l-6.74,49.025
						C216.784,143.789,213.406,146.735,209.415,146.735z"/>
				</g>
			</g>
			<g>
				<g>
					<path fill="#5A7A39" d="M34.96,112.83l3.713,27.006c0.543,3.953,3.922,6.899,7.912,6.899h162.83
						c3.991,0,7.369-2.945,7.912-6.899l3.713-27.006H34.96z"/>
				</g>
			</g>
			<g>
				<g>
					<path fill="#76A34F" d="M177.049,23.735H78.951c-5.93,0-11.229,3.7-13.271,9.267L52.374,69.269h151.253L190.32,33.002
						C188.277,27.436,182.978,23.735,177.049,23.735z"/>
				</g>
			</g>
			<g>
				<g>
					<path fill="#D1D3D4" d="M84.919,102.891H48.992c-1.72,0-3.175-1.271-3.405-2.976l-0.726-5.375
						c-0.279-2.062,1.324-3.896,3.405-3.896h35.928c1.72,0,3.174,1.272,3.405,2.976l0.726,5.375
						C88.602,101.057,86.999,102.891,84.919,102.891z"/>
				</g>
			</g>
			<g>
				<g>
					<path fill="#D1D3D4" d="M171.081,102.891h35.927c1.72,0,3.175-1.271,3.405-2.976l0.726-5.375
						c0.279-2.062-1.324-3.896-3.405-3.896h-35.928c-1.72,0-3.174,1.272-3.405,2.976l-0.726,5.375
						C167.398,101.057,169.001,102.891,171.081,102.891z"/>
				</g>
			</g>
			<g>
				<g>
					<path fill="#E6E7E8" d="M193.325,69.268H62.675l10.974-32.309c1.171-3.445,3.876-5.681,6.874-5.681h94.955
						c2.998,0,5.702,2.236,6.874,5.681L193.325,69.268z"/>
				</g>
			</g>
			<g>
				<g>
					<path fill="#D1D3D4" d="M190.854,69.268H65.146c2.364-3.45,5.649-5.617,9.323-5.617h107.063
						C185.205,63.65,188.49,65.817,190.854,69.268z"/>
				</g>
			</g>
			<g>
				<g>
					<g>
						<path fill="#76A34F" d="M158.81,137.772H97.19c-3.059,0-5.008-3.269-3.553-5.96l4.273-7.902
							c0.705-1.305,2.069-2.118,3.553-2.118h53.075c1.483,0,2.847,0.813,3.553,2.118l4.273,7.902
							C163.818,134.503,161.87,137.772,158.81,137.772z"/>
					</g>
				</g>
				<g>
					<path fill="#648940" d="M162.363,131.812l-4.273-7.902c-0.688-1.272-2.001-2.076-3.44-2.116l2.713,5.017
						c1.455,2.691-0.493,5.96-3.553,5.96H93.263c-0.611,2.45,1.224,5,3.926,5h61.621
						C161.87,137.772,163.818,134.503,162.363,131.812z"/>
				</g>
			</g>
			<g>
				<g>
					<g>
						<path fill="#76A34F" d="M74.266,128.253H52.563c-1.784,0-3.23-1.446-3.23-3.23l0,0c0-1.784,1.446-3.23,3.23-3.23h21.702
							c1.784,0,3.23,1.446,3.23,3.23l0,0C77.496,126.807,76.049,128.253,74.266,128.253z"/>
					</g>
				</g>
				<g>
					<g>
						<path fill="#76A34F" d="M203.437,128.253h-21.702c-1.784,0-3.23-1.446-3.23-3.23l0,0c0-1.784,1.446-3.23,3.23-3.23h21.702
							c1.784,0,3.23,1.446,3.23,3.23l0,0C206.667,126.807,205.221,128.253,203.437,128.253z"/>
					</g>
				</g>
			</g>
		</g>
		<g>
			<g>
				<circle fill="#E63950" cx="210.016" cy="71.596" r="36.246"/>
			</g>
			<g>
				<path fill="#D10028" d="M230.156,41.456c3.857,5.76,6.106,12.687,6.106,20.14c0,20.018-16.228,36.246-36.246,36.246
					c-7.453,0-14.38-2.25-20.14-6.106c6.503,9.712,17.574,16.106,30.14,16.106c20.018,0,36.246-16.228,36.246-36.246
					C246.262,59.031,239.868,47.959,230.156,41.456z"/>
			</g>
			<g>
				<g>
					<g>
						<path fill="#FFFFFF" d="M202.508,87.805h-11.567c-1.637,0-3.107-0.844-3.932-2.258c-0.825-1.414-0.836-3.109-0.031-4.533
							l5.811-10.28c0.662-1.171,2.147-1.584,3.318-0.922c1.17,0.662,1.583,2.147,0.921,3.317l-5.545,9.808h11.024
							c1.344,0,2.435,1.09,2.435,2.434C204.942,86.715,203.852,87.805,202.508,87.805z"/>
					</g>
				</g>
				<g>
					<g>
						<path fill="#FFFFFF" d="M217.526,60.925c-0.849,0-1.674-0.445-2.121-1.236l-5.39-9.534l-5.388,9.534
							c-0.663,1.171-2.15,1.58-3.318,0.922c-1.17-0.662-1.583-2.147-0.921-3.317l5.664-10.022c0.806-1.426,2.325-2.312,3.963-2.312
							s3.156,0.886,3.963,2.312l5.665,10.021c0.662,1.171,0.249,2.656-0.921,3.317C218.344,60.823,217.933,60.925,217.526,60.925z"
							/>
					</g>
				</g>
				<g>
					<g>
						<path fill="#FFFFFF" d="M229.091,87.805h-11.567c-1.344,0-2.435-1.09-2.435-2.434c0-1.345,1.091-2.434,2.435-2.434h11.024
							l-5.546-9.808c-0.662-1.17-0.249-2.656,0.921-3.317c1.17-0.661,2.656-0.25,3.318,0.921l5.812,10.281
							c0.805,1.426,0.793,3.121-0.032,4.534C232.196,86.961,230.727,87.805,229.091,87.805z"/>
					</g>
				</g>
				<g>
					<g>
						<path fill="#FFFFFF" d="M219.213,79.401v11.938c0,1.682-1.949,2.615-3.259,1.559l-7.402-5.969
							c-0.994-0.801-0.994-2.316,0-3.117l7.402-5.969C217.264,76.787,219.213,77.719,219.213,79.401z"/>
					</g>
				</g>
				<g>
					<g>
						<path fill="#FFFFFF" d="M211.8,60.32l10.48-5.716c1.477-0.806,3.229,0.459,2.929,2.115l-1.696,9.357
							c-0.228,1.256-1.557,1.981-2.737,1.493l-8.785-3.641C210.438,63.284,210.323,61.126,211.8,60.32z"/>
					</g>
				</g>
				<g>
					<g>
						<path fill="#FFFFFF" d="M189.064,70.001l10.48,5.716c1.477,0.806,3.229-0.459,2.929-2.115l-1.696-9.357
							c-0.228-1.256-1.557-1.981-2.737-1.493l-8.784,3.641C187.702,67.038,187.587,69.196,189.064,70.001z"/>
					</g>
				</g>
			</g>
		</g>
	</g>
	<g>
		<g>
			<g>
				<g>
					<path fill="#FCC4AE" d="M236.62,163.745c-10.14,8.04-45.06,35.2-68.99,47.34c-28.27,14.35-55.52,0-77.66-2.71
						c-13.166-1.977-26.465,6.151-33.62,14.08l-0.16,0.03l-3.01,0.42v-54.86c13.269-19.776,33.337-17.14,54.95-19.229
						c15.215-1.948,30.021-6.476,43.54-13.761c2.687-1.985,5.578-0.436,6.14,2.67c1.985,10.978-4.62,23.003-14.97,25.22
						c0,0-5.45,1.24-5.45,1.24c-1.9,0.455-1.702,3.133,0.19,3.46c19,6.56,38.32,2.23,56.85-5.84c12.25-5.33,31.85-18.92,42.9-4.18
						C238.73,159.495,238.4,162.335,236.62,163.745z"/>
				</g>
				<g>
					<g>
						<path fill="#F2AD97" d="M237.33,157.625c-2.663-3.552-5.823-5.459-9.256-6.233c-0.216,0.918-0.707,1.761-1.454,2.353
							c-10.14,8.04-45.06,35.2-68.99,47.34c-28.27,14.35-55.52,0-77.66-2.71c-9.693-1.455-19.458,2.566-26.79,7.953v16.577
							l3.01-0.42l0.16-0.03c7.155-7.929,20.454-16.057,33.62-14.08c22.14,2.71,49.39,17.06,77.66,2.71
							c23.93-12.14,58.85-39.3,68.99-47.34C238.4,162.335,238.73,159.495,237.33,157.625z"/>
					</g>
				</g>
				<g>
					<g>
						<path fill="#E59076" d="M237.33,157.625c-1.401-1.869-2.94-3.282-4.583-4.315c0.887,1.824,0.447,4.188-1.127,5.435
							c-10.14,8.04-45.06,35.2-68.99,47.34c-28.27,14.35-55.52,0-77.66-2.71c-12.114-1.819-24.34,4.916-31.79,12.181v7.349
							l3.01-0.42l0.16-0.03c7.155-7.929,20.454-16.057,33.62-14.08c22.14,2.71,49.39,17.06,77.66,2.71
							c23.93-12.14,58.85-39.3,68.99-47.34C238.4,162.335,238.73,159.495,237.33,157.625z"/>
					</g>
				</g>
				<g>
					<g>
						<g>
							<g>
								<path fill="#F1F2F2" d="M67.793,220.858l-11.441,1.601l-0.161,0.023l-3.009,0.423l-3.86,0.538
									c-2.489,0.35-4.784-1.389-5.134-3.878l-8.626-61.687c-0.35-2.489,1.385-4.784,3.874-5.134l18.471-2.586
									c1.178-0.161,2.319,0.138,3.225,0.778c1.003,0.69,1.721,1.79,1.909,3.101l0.497,3.57l6.404,45.779l1.141,8.17l0.584,4.173
									C72.017,218.213,70.278,220.508,67.793,220.858z"/>
							</g>
						</g>
						<g>
							<path fill="#E6E7E8" d="M71.667,215.728l-0.584-4.173l-1.141-8.17l-6.404-45.779l-0.497-3.57
								c-0.189-1.311-0.906-2.411-1.909-3.101c-0.831-0.587-1.863-0.868-2.936-0.79l0.342,2.46l6.404,45.779l1.141,8.17l0.584,4.173
								c0.35,2.484-1.389,4.78-3.874,5.13l-11.441,1.601l-0.161,0.023l-3.009,0.423l-3.86,0.538
								c-0.098,0.014-0.192,0.004-0.289,0.011l0.155,1.111c0.35,2.489,2.645,4.228,5.134,3.878l3.86-0.538l3.009-0.423l0.161-0.023
								l11.441-1.601C70.278,220.508,72.017,218.213,71.667,215.728z"/>
						</g>
						<g>
							<path fill="#8C3F0A" d="M23.974,227.509h20.483c3.41,0,6.174-2.764,6.174-6.174v-72.121c0-3.41-2.764-6.174-6.174-6.174
								H23.974c-3.41,0-6.174,2.764-6.174,6.174v72.121C17.799,224.744,20.564,227.509,23.974,227.509z"/>
						</g>
						<g>
							<path fill="#7C3108" d="M45.532,143.138c0.061,0.35,0.1,0.707,0.1,1.075v72.121c0,3.41-2.764,6.174-6.174,6.174H18.974
								c-0.367,0-0.725-0.038-1.075-0.1c0.509,2.897,3.032,5.1,6.075,5.1h20.483c3.41,0,6.174-2.764,6.174-6.174v-72.121
								C50.631,146.171,48.428,143.648,45.532,143.138z"/>
						</g>
					</g>
					<g>
						<g>
							
								<ellipse transform="matrix(0.2298 -0.9732 0.9732 0.2298 -172.1881 190.4301)" fill="#FFFFFF" cx="34.215" cy="203.999" rx="6.592" ry="6.592"/>
						</g>
					</g>
					<g>
						<path fill="#E6E7E8" d="M37.764,198.45c0.657,1.025,1.043,2.241,1.043,3.549c0,3.641-2.951,6.592-6.592,6.592
							c-1.308,0-2.524-0.386-3.549-1.043c1.172,1.828,3.216,3.043,5.549,3.043c3.641,0,6.592-2.951,6.592-6.592
							C40.807,201.667,39.592,199.622,37.764,198.45z"/>
					</g>
				</g>
			</g>
		</g>
	</g>
	<g>
		<path fill="#91B56B" d="M37.87,91.99c-2.453-0.025-2.683-3.626-0.27-3.98C40.399,87.746,40.7,91.888,37.87,91.99z M39.22,84.24
			c-0.852,0.009-1.66-0.593-1.9-1.4c-0.412-1.714,1.193-3.154,2.12-4.44c2.84-3.26,6.95-5.13,11.28-5.13h111.84
			c2.55,0.04,2.712,3.92,0,4c0,0-111.84,0-111.84,0c-4.026-0.024-7.868,2.297-9.72,5.88C40.667,83.818,39.967,84.239,39.22,84.24z"
			/>
	</g>
</g>
</svg>
