<?xml version="1.0" encoding="utf-8"?>
<!-- Generator: Adobe Illustrator 24.0.0, SVG Export Plug-In . SVG Version: 6.00 Build 0)  -->
<svg version="1.1" id="Layer_1" xmlns="http://www.w3.org/2000/svg" xmlns:xlink="http://www.w3.org/1999/xlink" x="0px" y="0px"
	 viewBox="0 0 256 256" enable-background="new 0 0 256 256" xml:space="preserve">
<g>
	<g>
		<g>
			<g>
				<g>
					<g>
						<path fill="#648940" d="M210.254,89.365l0.005,0.016c0.333-0.891,1.068-1.609,2.04-1.871l17.582-4.743
							c1.787-0.482,3.585,0.736,3.799,2.575l1.187,10.186c0.174,1.491-0.771,2.885-2.22,3.276l-21.922,5.9
							c-1.671,0.45-3.428-0.335-4.208-1.879l0,0c-0.458-0.906-0.517-1.961-0.165-2.913L210.254,89.365z"/>
					</g>
				</g>
			</g>
			<g>
				<g>
					<g>
						<path fill="#648940" d="M45.746,89.365l-0.005,0.016c-0.333-0.891-1.068-1.609-2.04-1.871l-17.582-4.743
							c-1.787-0.482-3.585,0.736-3.799,2.575l-1.187,10.186c-0.174,1.491,0.771,2.885,2.22,3.276l21.922,5.9
							c1.671,0.45,3.428-0.335,4.208-1.879l0,0c0.458-0.906,0.517-1.961,0.165-2.913L45.746,89.365z"/>
					</g>
				</g>
			</g>
		</g>
		<g>
			<g>
				<g>
					<path fill="#58595B" d="M62.147,202.739H34.341c-5.42,0-9.813-4.394-9.813-9.814v-47.066c0-5.42,4.394-9.814,9.813-9.814
						h27.805c5.42,0,9.814,4.394,9.814,9.814v47.066C71.96,198.345,67.567,202.739,62.147,202.739z"/>
				</g>
			</g>
			<g>
				<g>
					<path fill="#58595B" d="M221.659,202.739h-27.805c-5.42,0-9.814-4.394-9.814-9.814v-47.066c0-5.42,4.394-9.814,9.814-9.814
						h27.805c5.42,0,9.813,4.394,9.813,9.814v47.066C231.472,198.345,227.078,202.739,221.659,202.739z"/>
				</g>
			</g>
		</g>
		<g>
			<g>
				<path fill="#76A34F" d="M218.461,189.928H37.539c-4.434,0-8.188-3.273-8.791-7.665l-7.489-54.472
					c-1.74-12.656,8.095-23.936,20.87-23.936h171.742c12.775,0,22.61,11.279,20.87,23.936l-7.489,54.472
					C226.649,186.655,222.895,189.928,218.461,189.928z"/>
			</g>
		</g>
		<g>
			<g>
				<path fill="#5A7A39" d="M24.622,152.256l4.125,30.007c0.604,4.393,4.357,7.665,8.791,7.665h180.922
					c4.434,0,8.188-3.273,8.791-7.665l4.125-30.007H24.622z"/>
			</g>
		</g>
		<g>
			<g>
				<path fill="#76A34F" d="M182.499,53.261H73.501c-6.588,0-12.476,4.111-14.746,10.296l-14.785,40.296h168.059l-14.785-40.296
					C194.975,57.373,189.087,53.261,182.499,53.261z"/>
			</g>
		</g>
		<g>
			<g>
				<path fill="#D1D3D4" d="M80.132,141.212H40.213c-1.911,0-3.527-1.413-3.783-3.306l-0.807-5.972
					c-0.31-2.291,1.472-4.329,3.783-4.329h39.919c1.911,0,3.527,1.413,3.783,3.306l0.807,5.972
					C84.225,139.174,82.444,141.212,80.132,141.212z"/>
			</g>
		</g>
		<g>
			<g>
				<path fill="#D1D3D4" d="M175.868,141.212h39.919c1.911,0,3.527-1.413,3.783-3.306l0.807-5.972
					c0.31-2.291-1.472-4.329-3.783-4.329h-39.919c-1.911,0-3.527,1.413-3.783,3.306l-0.807,5.972
					C171.775,139.174,173.556,141.212,175.868,141.212z"/>
			</g>
		</g>
		<g>
			<g>
				<path fill="#E6E7E8" d="M200.583,103.853H55.417L67.61,67.955c1.301-3.828,4.307-6.312,7.638-6.312h105.506
					c3.331,0,6.336,2.485,7.637,6.312L200.583,103.853z"/>
			</g>
		</g>
		<g>
			<g>
				<path fill="#D1D3D4" d="M197.838,103.853H58.162c2.627-3.834,6.277-6.241,10.359-6.241h118.959
					C191.561,97.612,195.212,100.019,197.838,103.853z"/>
			</g>
		</g>
		<g>
			<g>
				<g>
					<path fill="#76A34F" d="M68.295,169.392H44.181c-1.982,0-3.589-1.607-3.589-3.589l0,0c0-1.982,1.607-3.589,3.589-3.589h24.114
						c1.982,0,3.589,1.607,3.589,3.589l0,0C71.884,167.785,70.277,169.392,68.295,169.392z"/>
				</g>
			</g>
			<g>
				<g>
					<path fill="#76A34F" d="M211.819,169.392h-24.114c-1.982,0-3.589-1.607-3.589-3.589l0,0c0-1.982,1.607-3.589,3.589-3.589
						h24.114c1.982,0,3.589,1.607,3.589,3.589l0,0C215.408,167.785,213.801,169.392,211.819,169.392z"/>
				</g>
			</g>
		</g>
	</g>
	<g>
		<g>
			<circle fill="#E63950" cx="128" cy="186.802" r="49.579"/>
		</g>
		<g>
			<path fill="#D10028" d="M157.702,147.1c6.203,8.278,9.878,18.561,9.878,29.702c0,27.382-22.198,49.579-49.579,49.579
				c-11.141,0-21.423-3.675-29.701-9.878c9.043,12.068,23.46,19.878,39.701,19.878c27.382,0,49.579-22.198,49.579-49.579
				C177.579,170.56,169.77,156.143,157.702,147.1z"/>
		</g>
		<g>
			<path fill="#B7022D" d="M160.469,149.332c7.544,8.699,12.11,20.051,12.11,32.469c0,27.382-22.198,49.579-49.579,49.579
				c-12.419,0-23.771-4.566-32.469-12.11c9.091,10.481,22.506,17.11,37.469,17.11c27.382,0,49.579-22.198,49.579-49.579
				C177.579,171.838,170.951,158.423,160.469,149.332z"/>
		</g>
		<g>
			<g>
				<g>
					<path fill="#FFFFFF" d="M117.73,208.972h-15.821c-2.238,0-4.249-1.155-5.378-3.089c-1.128-1.935-1.144-4.252-0.042-6.201
						l7.949-14.062c0.905-1.602,2.937-2.166,4.538-1.261c1.601,0.905,2.165,2.936,1.26,4.537l-7.584,13.416h15.079
						c1.838,0,3.33,1.491,3.33,3.33C121.06,207.482,119.568,208.972,117.73,208.972z"/>
				</g>
			</g>
			<g>
				<g>
					<path fill="#FFFFFF" d="M138.273,172.206c-1.161,0-2.29-0.608-2.902-1.691L128,157.473l-7.371,13.04
						c-0.906,1.602-2.941,2.161-4.538,1.261c-1.601-0.905-2.165-2.936-1.26-4.537l7.748-13.708c1.103-1.951,3.18-3.163,5.42-3.163
						c2.24,0,4.317,1.212,5.42,3.163l7.749,13.707c0.905,1.602,0.341,3.633-1.26,4.537
						C139.392,172.066,138.829,172.206,138.273,172.206z"/>
				</g>
			</g>
			<g>
				<g>
					<path fill="#FFFFFF" d="M154.092,208.972h-15.821c-1.838,0-3.33-1.491-3.33-3.33c0-1.839,1.492-3.33,3.33-3.33h15.079
						l-7.586-13.415c-0.905-1.601-0.341-3.632,1.26-4.537c1.601-0.904,3.633-0.342,4.538,1.259l7.95,14.062
						c1.102,1.951,1.085,4.269-0.044,6.202C158.34,207.819,156.33,208.972,154.092,208.972z"/>
				</g>
			</g>
			<g>
				<g>
					<path fill="#FFFFFF" d="M140.581,197.478v16.329c0,2.301-2.666,3.577-4.458,2.132l-10.125-8.164
						c-1.36-1.096-1.36-3.168,0-4.264l10.125-8.164C137.914,193.902,140.581,195.177,140.581,197.478z"/>
				</g>
			</g>
			<g>
				<g>
					<path fill="#FFFFFF" d="M130.441,171.378l14.336-7.818c2.02-1.102,4.417,0.629,4.006,2.893l-2.32,12.798
						c-0.312,1.718-2.13,2.71-3.743,2.042l-12.016-4.98C128.578,175.431,128.421,172.48,130.441,171.378z"/>
				</g>
			</g>
			<g>
				<g>
					<path fill="#FFFFFF" d="M99.341,184.62l14.336,7.818c2.02,1.102,4.417-0.629,4.006-2.893l-2.32-12.798
						c-0.312-1.718-2.13-2.71-3.744-2.042l-12.016,4.98C97.478,180.567,97.321,183.518,99.341,184.62z"/>
				</g>
			</g>
		</g>
	</g>
	<g>
		<path fill="#91B56B" d="M27.2,128.97c-1.598,0.044-2.598-1.953-1.59-3.21c0.996-1.407,3.379-0.774,3.57,0.93l0.01,0.01
			C29.377,127.869,28.368,129.005,27.2,128.97z M28.22,121.13c-1.394,0.03-2.412-1.492-1.85-2.77c0.71-1.7,1.69-3.27,2.9-4.66
			c3.24-3.71,7.93-5.85,12.86-5.85h140.27c2.515,0.037,2.738,3.917,0,4c0,0-140.269,0-140.269,0c-5.2-0.045-10.107,3.247-12.07,8.05
			C29.75,120.65,29.03,121.13,28.22,121.13z"/>
	</g>
</g>
</svg>
