<?xml version="1.0" encoding="utf-8"?>
<!-- Generator: Adobe Illustrator 24.0.0, SVG Export Plug-In . SVG Version: 6.00 Build 0)  -->
<svg version="1.1" id="Layer_1" xmlns="http://www.w3.org/2000/svg" xmlns:xlink="http://www.w3.org/1999/xlink" x="0px" y="0px"
	 viewBox="0 0 256 256" enable-background="new 0 0 256 256" xml:space="preserve">
<g>
	<g>
		<g>
			<g>
				<g>
					<g>
						<path fill="#D10028" d="M210.254,89.365l0.005,0.016c0.333-0.891,1.068-1.609,2.04-1.871l17.582-4.743
							c1.787-0.482,3.585,0.736,3.799,2.575l1.187,10.186c0.174,1.491-0.771,2.885-2.22,3.276l-21.922,5.9
							c-1.671,0.45-3.428-0.335-4.208-1.879l0,0c-0.458-0.906-0.517-1.961-0.165-2.913L210.254,89.365z"/>
					</g>
				</g>
			</g>
			<g>
				<g>
					<g>
						<path fill="#D10028" d="M45.746,89.365l-0.005,0.016c-0.333-0.891-1.068-1.609-2.04-1.871l-17.582-4.743
							c-1.787-0.482-3.585,0.736-3.799,2.575l-1.187,10.186c-0.174,1.491,0.771,2.885,2.22,3.276l21.922,5.9
							c1.671,0.45,3.428-0.335,4.208-1.879l0,0c0.458-0.906,0.517-1.961,0.165-2.913L45.746,89.365z"/>
					</g>
				</g>
			</g>
		</g>
		<g>
			<g>
				<g>
					<path fill="#58595B" d="M62.147,202.739H34.341c-5.42,0-9.813-4.394-9.813-9.814v-47.066c0-5.42,4.394-9.814,9.813-9.814
						h27.805c5.42,0,9.814,4.394,9.814,9.814v47.066C71.96,198.345,67.567,202.739,62.147,202.739z"/>
				</g>
			</g>
			<g>
				<g>
					<path fill="#58595B" d="M221.659,202.739h-27.805c-5.42,0-9.814-4.394-9.814-9.814v-47.066c0-5.42,4.394-9.814,9.814-9.814
						h27.805c5.42,0,9.813,4.394,9.813,9.814v47.066C231.472,198.345,227.078,202.739,221.659,202.739z"/>
				</g>
			</g>
		</g>
		<g>
			<g>
				<path fill="#E63950" d="M218.461,189.928H37.539c-4.434,0-8.188-3.273-8.791-7.665l-7.489-54.472
					c-1.74-12.656,8.095-23.936,20.87-23.936h171.742c12.775,0,22.61,11.279,20.87,23.936l-7.489,54.472
					C226.649,186.655,222.895,189.928,218.461,189.928z"/>
			</g>
		</g>
		<g>
			<path fill="#D10028" d="M226.05,107.727c2.981,4.192,4.457,9.494,3.691,15.063l-7.489,54.472
				c-0.604,4.393-4.357,7.665-8.791,7.665H32.539c-1.145,0-2.244-0.219-3.256-0.618c1.309,3.324,4.544,5.618,8.256,5.618h180.922
				c4.434,0,8.188-3.273,8.791-7.665l7.489-54.472C235.859,119.658,232.198,112.095,226.05,107.727z"/>
		</g>
		<g>
			<g>
				<path fill="#B7022D" d="M24.622,152.256l4.125,30.007c0.604,4.393,4.357,7.665,8.791,7.665h180.922
					c4.434,0,8.188-3.273,8.791-7.665l4.125-30.007H24.622z"/>
			</g>
		</g>
		<g>
			<g>
				<path fill="#E63950" d="M182.499,53.261H73.501c-6.588,0-12.476,4.111-14.746,10.296l-14.785,40.296h168.059l-14.785-40.296
					C194.975,57.373,189.087,53.261,182.499,53.261z"/>
			</g>
		</g>
		<g>
			<g>
				<path fill="#D1D3D4" d="M80.132,141.212H40.213c-1.911,0-3.527-1.413-3.783-3.306l-0.807-5.972
					c-0.31-2.291,1.472-4.329,3.783-4.329h39.919c1.911,0,3.527,1.413,3.783,3.306l0.807,5.972
					C84.225,139.174,82.444,141.212,80.132,141.212z"/>
			</g>
		</g>
		<g>
			<g>
				<path fill="#D1D3D4" d="M175.868,141.212h39.919c1.911,0,3.527-1.413,3.783-3.306l0.807-5.972
					c0.31-2.291-1.472-4.329-3.783-4.329h-39.919c-1.911,0-3.527,1.413-3.783,3.306l-0.807,5.972
					C171.775,139.174,173.556,141.212,175.868,141.212z"/>
			</g>
		</g>
		<g>
			<g>
				<path fill="#E6E7E8" d="M200.583,103.853H55.417L67.61,67.955c1.301-3.828,4.307-6.312,7.638-6.312h105.506
					c3.331,0,6.336,2.485,7.637,6.312L200.583,103.853z"/>
			</g>
		</g>
		<g>
			<g>
				<path fill="#D1D3D4" d="M197.838,103.853H58.162c2.627-3.834,6.277-6.241,10.359-6.241h118.959
					C191.561,97.612,195.212,100.019,197.838,103.853z"/>
			</g>
		</g>
		<g>
			<g>
				<g>
					<path fill="#E63950" d="M68.295,169.392H44.181c-1.982,0-3.589-1.607-3.589-3.589l0,0c0-1.982,1.607-3.589,3.589-3.589h24.114
						c1.982,0,3.589,1.607,3.589,3.589l0,0C71.884,167.785,70.277,169.392,68.295,169.392z"/>
				</g>
			</g>
			<g>
				<g>
					<path fill="#E63950" d="M211.819,169.392h-24.114c-1.982,0-3.589-1.607-3.589-3.589l0,0c0-1.982,1.607-3.589,3.589-3.589
						h24.114c1.982,0,3.589,1.607,3.589,3.589l0,0C215.408,167.785,213.801,169.392,211.819,169.392z"/>
				</g>
			</g>
		</g>
	</g>
	<g>
		<g>
			<circle fill="#FFA91A" cx="128" cy="186.802" r="49.579"/>
		</g>
	</g>
	<g>
		<path fill="#F79219" d="M157.702,147.1c6.203,8.278,9.878,18.561,9.878,29.701c0,27.382-22.198,49.58-49.579,49.58
			c-11.141,0-21.423-3.675-29.701-9.878c9.043,12.068,23.46,19.878,39.701,19.878c27.382,0,49.579-22.198,49.579-49.58
			C177.579,170.56,169.77,156.143,157.702,147.1z"/>
	</g>
	<g>
		<path fill="#EF7816" d="M160.469,149.332c7.545,8.699,12.11,20.051,12.11,32.469c0,27.382-22.198,49.58-49.579,49.58
			c-12.419,0-23.771-4.566-32.469-12.11c9.091,10.481,22.506,17.11,37.469,17.11c27.382,0,49.579-22.198,49.579-49.58
			C177.579,171.838,170.95,158.423,160.469,149.332z"/>
	</g>
	<g>
		<g>
			<path fill="#FFFFFF" d="M132.195,211.877h-8.391c-6.887,0-12.489-5.603-12.489-12.489c0-1.104,0.896-2,2-2s2,0.896,2,2
				c0,4.681,3.809,8.489,8.489,8.489h8.391c4.681,0,8.489-3.808,8.489-8.489v-4.195c0-4.681-3.809-8.489-8.489-8.489h-8.391
				c-6.887,0-12.489-5.603-12.489-12.489s5.603-12.489,12.489-12.489h8.391c6.887,0,12.489,5.603,12.489,12.489c0,1.104-0.896,2-2,2
				s-2-0.896-2-2c0-4.681-3.809-8.489-8.489-8.489h-8.391c-4.681,0-8.489,3.808-8.489,8.489s3.809,8.489,8.489,8.489h8.391
				c6.887,0,12.489,5.603,12.489,12.489v4.195C144.685,206.275,139.082,211.877,132.195,211.877z"/>
		</g>
		<g>
			<path fill="#FFFFFF" d="M128,216.073c-1.104,0-2-0.896-2-2V159.53c0-1.104,0.896-2,2-2s2,0.896,2,2v54.542
				C130,215.177,129.104,216.073,128,216.073z"/>
		</g>
	</g>
	<g>
		<path fill="#E8566F" d="M27.2,128.97c-0.99,0-1.851-0.74-1.98-1.72c-0.11-0.78-0.16-1.56-0.16-2.33c0-4.13,1.49-8.11,4.2-11.21
			c3.25-3.72,7.93-5.85,12.87-5.85h94.27c1.101,0,2,0.89,2,1.99c0,1.11-0.899,2-2,2H42.13c-3.78,0-7.37,1.64-9.85,4.48
			c-2.08,2.38-3.221,5.43-3.221,8.59c0,0.59,0.04,1.19,0.13,1.78c0.07,0.53-0.069,1.06-0.39,1.48c-0.33,0.43-0.8,0.7-1.32,0.77
			C27.38,128.97,27.29,128.97,27.2,128.97z M144.399,111.85c-1.1,0-2-0.89-2-2c0-1.1,0.9-1.99,2-1.99c1.101,0,2,0.89,2,1.99
			C146.399,110.96,145.5,111.85,144.399,111.85z"/>
	</g>
</g>
</svg>
