<?xml version="1.0" encoding="utf-8"?>
<!-- Generator: Adobe Illustrator 24.0.0, SVG Export Plug-In . SVG Version: 6.00 Build 0)  -->
<svg version="1.1" id="Layer_1" xmlns="http://www.w3.org/2000/svg" xmlns:xlink="http://www.w3.org/1999/xlink" x="0px" y="0px"
	 viewBox="0 0 256 256" enable-background="new 0 0 256 256" xml:space="preserve">
<g>
	<g>
		<path fill="#F79219" d="M128,173.708c-2.209,0-4-1.791-4-4v-20.979c0-2.209,1.791-4,4-4s4,1.791,4,4v20.979
			C132,171.917,130.209,173.708,128,173.708z"/>
	</g>
	<g>
		<g>
			<path fill="#F79219" d="M41.696,210.342H19.839c-2.209,0-4-1.791-4-4v-98.774c0-2.209,1.791-4,4-4h10.248c2.209,0,4,1.791,4,4
				s-1.791,4-4,4h-6.248v90.774h17.857c2.209,0,4,1.791,4,4S43.905,210.342,41.696,210.342z"/>
		</g>
		<g>
			<path fill="#F79219" d="M236.161,210.342h-21.789c-2.209,0-4-1.791-4-4s1.791-4,4-4h17.789v-90.774h-7.22c-2.209,0-4-1.791-4-4
				s1.791-4,4-4h11.22c2.209,0,4,1.791,4,4v98.774C240.161,208.551,238.37,210.342,236.161,210.342z"/>
		</g>
	</g>
	<g>
		<g>
			<g>
				<g>
					<g>
						<circle fill="#58595B" cx="192.9" cy="206.342" r="26.097"/>
					</g>
					<g>
						<circle fill="#E6E7E8" cx="192.9" cy="206.342" r="18.103"/>
					</g>
					<g>
						<path fill="#FFA91A" d="M207.143,195.166c-0.896-1.141-1.927-2.171-3.067-3.067l-9.007,9.007v-12.738
							c-0.711-0.085-1.435-0.129-2.169-0.129c-0.734,0-1.458,0.044-2.169,0.129v12.738l-9.007-9.007
							c-1.141,0.896-2.171,1.927-3.067,3.067l9.007,9.007h-12.738c-0.085,0.711-0.129,1.435-0.129,2.169
							c0,0.734,0.044,1.458,0.129,2.169h12.738l-9.007,9.007c0.896,1.141,1.927,2.171,3.067,3.067l9.007-9.007v12.738
							c0.711,0.085,1.435,0.129,2.169,0.129c0.734,0,1.458-0.044,2.169-0.129v-12.738l9.007,9.007
							c1.141-0.896,2.171-1.927,3.067-3.067l-9.007-9.007h12.738c0.085-0.711,0.129-1.435,0.129-2.169
							c0-0.734-0.044-1.458-0.129-2.169h-12.738L207.143,195.166z"/>
					</g>
					<g>
						<circle fill="#F79219" cx="192.9" cy="206.342" r="7.25"/>
					</g>
				</g>
			</g>
			<g>
				<g>
					<path fill="#8C3F0A" d="M63.636,179.708c-14.709,0-26.634,11.924-26.634,26.633c0,14.709,11.924,26.634,26.634,26.634
						s26.634-11.924,26.634-26.634C90.27,191.632,78.346,179.708,63.636,179.708z M63.636,224.817
						c-10.203,0-18.475-8.272-18.475-18.475c0-10.203,8.272-18.475,18.475-18.475s18.475,8.272,18.475,18.475
						C82.111,216.545,73.84,224.817,63.636,224.817z"/>
				</g>
				<g>
					<rect x="39.918" y="202.627" fill="#8C3F0A" width="47.437" height="7.428"/>
				</g>
				<g>
					
						<rect x="50.807" y="213.516" transform="matrix(-1.836970e-16 1 -1 -1.836970e-16 280.8668 153.5939)" fill="#8C3F0A" width="25.659" height="7.428"/>
				</g>
				<g>
					<path fill="#F79219" d="M68.773,213.696H58.5c-3.095,0-5.603-2.509-5.603-5.603v-3.502c0-3.095,2.509-5.603,5.603-5.603h10.273
						c3.095,0,5.603,2.509,5.603,5.603v3.502C74.376,211.187,71.868,213.696,68.773,213.696z"/>
				</g>
			</g>
		</g>
		<g>
			<g>
				<path fill="#F79219" d="M153.533,214.006l-6.644-5.906c0.107-1.161,0.107-2.354,0-3.515l6.644-5.906
					c0.686-0.61,0.849-1.618,0.39-2.412l-4.236-7.336c-0.459-0.795-1.413-1.158-2.284-0.868l-8.437,2.8
					c-0.954-0.677-1.973-1.268-3.046-1.762l-1.792-8.703c-0.185-0.899-0.976-1.544-1.894-1.544h-8.471
					c-0.917,0-1.709,0.645-1.894,1.544l-1.792,8.703c-1.073,0.494-2.092,1.085-3.046,1.762l-8.437-2.8
					c-0.871-0.289-1.825,0.073-2.284,0.868l-4.235,7.336c-0.459,0.795-0.296,1.802,0.39,2.412l6.644,5.906
					c-0.107,1.161-0.107,2.354,0,3.516l-6.644,5.906c-0.686,0.61-0.849,1.617-0.39,2.412l4.235,7.337
					c0.459,0.795,1.413,1.157,2.284,0.868l8.436-2.801c0.954,0.677,1.973,1.268,3.046,1.762l1.792,8.703
					c0.185,0.899,0.976,1.543,1.894,1.543h8.471c0.918,0,1.709-0.645,1.894-1.543l1.792-8.703c1.073-0.494,2.092-1.085,3.046-1.762
					l8.436,2.801c0.871,0.289,1.825-0.074,2.284-0.868l4.236-7.337C154.382,215.623,154.219,214.615,153.533,214.006z M128,216.753
					c-5.75,0-10.411-4.661-10.411-10.411c0-5.75,4.661-10.411,10.411-10.411c5.75,0,10.411,4.661,10.411,10.411
					C138.411,212.092,133.75,216.753,128,216.753z"/>
				<g>
					<g>
						<path fill="#EF7816" d="M128,187.372c-10.477,0-18.97,8.493-18.97,18.97c0,10.477,8.493,18.969,18.97,18.969
							c10.477,0,18.97-8.493,18.97-18.969C146.97,195.865,138.477,187.372,128,187.372z M128,216.753
							c-5.75,0-10.411-4.661-10.411-10.411c0-5.75,4.661-10.411,10.411-10.411c5.75,0,10.411,4.661,10.411,10.411
							C138.411,212.092,133.75,216.753,128,216.753z"/>
					</g>
				</g>
				<path fill="#FFA91A" d="M128,192.048c-7.894,0-14.293,6.4-14.293,14.294c0,7.894,6.399,14.293,14.293,14.293
					c7.894,0,14.294-6.4,14.294-14.293C142.294,198.448,135.894,192.048,128,192.048z M128,216.753
					c-5.75,0-10.411-4.661-10.411-10.411c0-5.75,4.661-10.411,10.411-10.411c5.75,0,10.411,4.661,10.411,10.411
					C138.411,212.092,133.75,216.753,128,216.753z"/>
			</g>
		</g>
	</g>
	<g>
		<g>
			<g>
				<g>
					<g>
						<g>
							<path fill="#D10028" d="M194.371,64.223l0.005,0.016c0.333-0.891,1.068-1.608,2.04-1.871l17.577-4.742
								c1.786-0.482,3.584,0.736,3.798,2.574l1.187,10.183c0.174,1.491-0.77,2.884-2.22,3.275l-21.915,5.898
								c-1.67,0.45-3.427-0.335-4.207-1.879v0c-0.457-0.906-0.517-1.961-0.165-2.912L194.371,64.223z"/>
						</g>
					</g>
				</g>
				<g>
					<g>
						<g>
							<path fill="#D10028" d="M60.737,64.223l-0.005,0.016c-0.333-0.891-1.068-1.608-2.04-1.871l-17.577-4.742
								c-1.786-0.482-3.584,0.736-3.798,2.574l-1.187,10.183c-0.174,1.491,0.77,2.884,2.22,3.275l21.915,5.898
								c1.67,0.45,3.427-0.335,4.207-1.879v0c0.457-0.906,0.517-1.961,0.165-2.912L60.737,64.223z"/>
						</g>
					</g>
				</g>
			</g>
			<g>
				<g>
					<g>
						<path fill="#414042" d="M72.692,168.019H49.528c-4.515,0-8.175-3.66-8.175-8.176v-39.21c0-4.515,3.66-8.176,8.175-8.176
							h23.164c4.515,0,8.176,3.66,8.176,8.176v39.21C80.868,164.358,77.207,168.019,72.692,168.019z"/>
					</g>
				</g>
				<g>
					<g>
						<path fill="#414042" d="M205.58,168.019h-23.164c-4.515,0-8.176-3.66-8.176-8.176v-39.21c0-4.515,3.66-8.176,8.176-8.176
							h23.164c4.515,0,8.175,3.66,8.175,8.176v39.21C213.755,164.358,210.095,168.019,205.58,168.019z"/>
					</g>
				</g>
			</g>
			<g>
				<g>
					<path fill="#E63950" d="M202.916,148.73H52.192c-3.694,0-6.821-2.727-7.324-6.386l-6.239-45.38
						c-1.45-10.544,6.744-19.941,17.387-19.941h143.076c10.643,0,18.836,9.397,17.387,19.941l-6.239,45.38
						C209.737,146.003,206.61,148.73,202.916,148.73z"/>
				</g>
			</g>
			<g>
				<path fill="#D10028" d="M208.744,79.91c2.254,3.41,3.343,7.631,2.735,12.054l-6.239,45.38c-0.503,3.659-3.63,6.386-7.324,6.386
					H47.192c-0.724,0-1.426-0.105-2.091-0.301c0.912,3.101,3.773,5.301,7.091,5.301h150.724c3.694,0,6.821-2.727,7.324-6.386
					l6.239-45.38C217.44,89.974,214.163,83.488,208.744,79.91z"/>
			</g>
			<g>
				<g>
					<path fill="#D10028" d="M41.431,117.346l3.437,24.998c0.503,3.659,3.63,6.386,7.324,6.386h150.724
						c3.694,0,6.821-2.727,7.324-6.386l3.437-24.998H41.431z"/>
				</g>
			</g>
			<g>
				<g>
					<path fill="#E63950" d="M172.956,34.875H82.152c-5.489,0-10.394,3.425-12.284,8.578L57.55,77.023h140.008l-12.317-33.57
						C183.35,38.3,178.445,34.875,172.956,34.875z"/>
				</g>
			</g>
			<g>
				<g>
					<path fill="#F1F2F2" d="M87.676,108.146H54.419c-1.592,0-2.939-1.177-3.152-2.754l-0.672-4.975
						c-0.258-1.908,1.226-3.606,3.152-3.606h33.256c1.592,0,2.938,1.177,3.151,2.754l0.672,4.975
						C91.085,106.448,89.601,108.146,87.676,108.146z"/>
				</g>
			</g>
			<g>
				<g>
					<path fill="#F1F2F2" d="M167.432,108.146h33.256c1.592,0,2.939-1.177,3.152-2.754l0.672-4.975
						c0.258-1.908-1.226-3.606-3.152-3.606h-33.256c-1.592,0-2.938,1.177-3.151,2.754l-0.672,4.975
						C164.023,106.448,165.506,108.146,167.432,108.146z"/>
				</g>
			</g>
			<g>
				<g>
					<path fill="#F1F2F2" d="M184.847,77.022H70.26l9.625-28.336c1.027-3.021,3.4-4.982,6.029-4.982h83.281
						c2.629,0,5.001,1.961,6.029,4.982L184.847,77.022z"/>
				</g>
			</g>
			<g>
				<path fill="#E6E7E8" d="M175.223,48.686c-1.027-3.021-3.4-4.983-6.029-4.983h-2.267l7.92,23.319H73.657l-3.397,10h114.587
					L175.223,48.686z"/>
			</g>
			<g>
				<path fill="#D1D3D4" d="M175.223,48.686c-0.885-2.604-2.77-4.42-4.957-4.873l9.581,28.209H71.959l-1.698,5h114.587
					L175.223,48.686z"/>
			</g>
		</g>
	</g>
	<g>
		<path fill="#E8566F" d="M44.57,98.15c-0.99,0-1.84-0.74-1.98-1.73c-0.08-0.62-0.13-1.24-0.13-1.85c0-3.27,1.19-6.44,3.34-8.9
			c2.58-2.95,6.3-4.65,10.22-4.65h100.27c1.1,0,2,0.9,2,2c0,1.11-0.9,2-2,2H56.02c-2.76,0-5.39,1.2-7.2,3.28
			c-1.52,1.74-2.36,3.96-2.36,6.27c0,0.42,0.03,0.86,0.09,1.3c0.08,0.53-0.06,1.06-0.38,1.48c-0.32,0.43-0.79,0.71-1.32,0.78
			C44.76,98.14,44.67,98.15,44.57,98.15z M164.29,85.02c-1.101,0-2-0.89-2-2c0-1.1,0.899-2,2-2c1.109,0,2,0.9,2,2
			C166.29,84.13,165.399,85.02,164.29,85.02z"/>
	</g>
</g>
</svg>
