<?xml version="1.0" encoding="utf-8"?>
<!-- Generator: Adobe Illustrator 24.0.0, SVG Export Plug-In . SVG Version: 6.00 Build 0)  -->
<svg version="1.1" id="Layer_1" xmlns="http://www.w3.org/2000/svg" xmlns:xlink="http://www.w3.org/1999/xlink" x="0px" y="0px"
	 viewBox="0 0 256 256" enable-background="new 0 0 256 256" xml:space="preserve">
<g>
	<g>
		<path fill="#F79219" d="M45.298,195.181H30.262c-7.72,0-14-6.28-14-14v-63.776c0-7.72,6.28-14,14-14h15.036c2.209,0,4,1.791,4,4
			s-1.791,4-4,4H30.262c-3.309,0-6,2.691-6,6v63.776c0,3.309,2.691,6,6,6h15.036c2.209,0,4,1.791,4,4S47.507,195.181,45.298,195.181
			z"/>
	</g>
	<g>
		<path fill="#F79219" d="M225.813,195.181h-15.036c-2.209,0-4-1.791-4-4s1.791-4,4-4h15.036c3.309,0,6-2.691,6-6v-63.776
			c0-3.309-2.691-6-6-6h-15.036c-2.209,0-4-1.791-4-4s1.791-4,4-4h15.036c7.72,0,14,6.28,14,14v63.776
			C239.813,188.9,233.533,195.181,225.813,195.181z"/>
	</g>
	<g>
		<path fill="#58595B" d="M202.263,226.935H85.219c-1.97,0-3.877-0.689-5.393-1.948l-31.557-26.212
			c-4.135-3.435-4.048-9.808,0.179-13.128l31.428-24.692c1.487-1.168,3.323-1.803,5.214-1.803h117.173c4.661,0,8.44,3.779,8.44,8.44
			v50.904C210.702,223.156,206.924,226.935,202.263,226.935z"/>
	</g>
	<g>
		<path fill="#414042" d="M204.054,159.342c0.417,1,0.648,2.097,0.648,3.248v50.904c0,4.661-3.779,8.44-8.44,8.44H79.219
			c-1.97,0-3.877-0.689-5.393-1.948l-25.9-21.513c0.111,0.102,0.225,0.203,0.343,0.301l31.557,26.212
			c1.515,1.259,3.423,1.948,5.393,1.948h117.044c4.661,0,8.44-3.779,8.44-8.44v-50.904
			C210.702,163.545,207.854,160.164,204.054,159.342z"/>
	</g>
	<g>
		<g>
			<g>
				<path fill="#E6E7E8" d="M152.423,211.108h-5.233c-4.71,0-8.541-3.832-8.541-8.542c0-1.104,0.896-2,2-2s2,0.896,2,2
					c0,2.504,2.037,4.542,4.541,4.542h5.233c2.505,0,4.542-2.037,4.542-4.542v-7.85c0-2.504-2.037-4.542-4.542-4.542h-5.233
					c-4.71,0-8.541-3.832-8.541-8.542v-6.542c0-1.104,0.896-2,2-2h18.316c1.104,0,2,0.896,2,2s-0.896,2-2,2h-16.316v4.542
					c0,2.504,2.037,4.542,4.541,4.542h5.233c4.71,0,8.542,3.832,8.542,8.542v7.85C160.965,207.277,157.133,211.108,152.423,211.108z
					"/>
			</g>
			<g>
				<path fill="#E6E7E8" d="M130.099,211.108c-1.104,0-2-0.896-2-2V179.92l-3.128,3.127c-0.781,0.781-2.047,0.781-2.828,0
					c-0.781-0.781-0.781-2.047,0-2.828l6.542-6.542c0.572-0.573,1.431-0.744,2.18-0.434c0.747,0.31,1.234,1.039,1.234,1.848v34.017
					C132.099,210.213,131.203,211.108,130.099,211.108z"/>
			</g>
			<g>
				<g>
					<path fill="#E6E7E8" d="M169.515,211.108c-1.104,0-2-0.896-2-2v-34.017c0-1.104,0.896-2,2-2s2,0.896,2,2v34.017
						C171.515,210.213,170.619,211.108,169.515,211.108z"/>
				</g>
				<g>
					<path fill="#E6E7E8" d="M187.831,211.108c-1.104,0-2-0.896-2-2v-6.542c0-2.504-2.037-4.542-4.541-4.542h-11.775
						c-0.785,0-1.497-0.459-1.821-1.173c-0.324-0.715-0.2-1.553,0.316-2.144l18.316-20.934c0.728-0.831,1.99-0.915,2.822-0.188
						c0.831,0.728,0.915,1.991,0.188,2.822l-15.414,17.617h7.368c4.71,0,8.541,3.832,8.541,8.542v6.542
						C189.831,210.213,188.936,211.108,187.831,211.108z"/>
				</g>
			</g>
			<g>
				<g>
					<path fill="#E6E7E8" d="M106.466,208.492h-5.233c-4.71,0-8.542-3.832-8.542-8.542c0-1.104,0.896-2,2-2s2,0.896,2,2
						c0,2.504,2.037,4.542,4.542,4.542h5.233c2.504,0,4.541-2.037,4.541-4.542v-2.617c0-2.504-2.037-4.542-4.541-4.542h-5.233
						c-4.71,0-8.542-3.832-8.542-8.542s3.832-8.542,8.542-8.542h5.233c4.71,0,8.541,3.832,8.541,8.542c0,1.104-0.896,2-2,2
						s-2-0.896-2-2c0-2.504-2.037-4.542-4.541-4.542h-5.233c-2.505,0-4.542,2.038-4.542,4.542s2.037,4.542,4.542,4.542h5.233
						c4.71,0,8.541,3.832,8.541,8.542v2.617C115.007,204.66,111.176,208.492,106.466,208.492z"/>
				</g>
				<g>
					<path fill="#E6E7E8" d="M103.849,211.108c-1.104,0-2-0.896-2-2v-34.017c0-1.104,0.896-2,2-2s2,0.896,2,2v34.017
						C105.849,210.213,104.953,211.108,103.849,211.108z"/>
				</g>
			</g>
		</g>
		<g>
			<path fill="#E6E7E8" d="M84.928,211.108c-0.431,0-0.863-0.138-1.229-0.422l-21.824-17.008c-0.486-0.379-0.771-0.961-0.771-1.578
				s0.284-1.199,0.771-1.578l21.824-17.009c0.87-0.679,2.129-0.523,2.807,0.348c0.68,0.871,0.523,2.128-0.348,2.807l-19.8,15.431
				l19.8,15.431c0.871,0.679,1.027,1.936,0.348,2.807C86.112,210.844,85.522,211.108,84.928,211.108z"/>
		</g>
	</g>
	<g>
		<g>
			<g>
				<g>
					<g>
						<g>
							<path fill="#377DE2" d="M193.803,57.092l0.004,0.013c0.266-0.713,0.854-1.287,1.632-1.497l14.066-3.794
								c1.429-0.386,2.868,0.589,3.039,2.06l0.95,8.149c0.139,1.193-0.617,2.308-1.776,2.621l-17.537,4.72
								c-1.337,0.36-2.742-0.268-3.366-1.504v0c-0.366-0.725-0.414-1.569-0.132-2.33L193.803,57.092z"/>
						</g>
					</g>
				</g>
				<g>
					<g>
						<g>
							<path fill="#377DE2" d="M62.197,57.092l-0.004,0.013c-0.266-0.713-0.854-1.287-1.632-1.497l-14.066-3.794
								c-1.429-0.386-2.868,0.589-3.039,2.06l-0.95,8.149c-0.139,1.193,0.617,2.308,1.776,2.621l17.537,4.72
								c1.337,0.36,2.742-0.268,3.366-1.504v0c0.366-0.725,0.414-1.569,0.132-2.33L62.197,57.092z"/>
						</g>
					</g>
				</g>
			</g>
			<g>
				<g>
					<g>
						<path fill="#58595B" d="M75.317,147.791H53.073c-4.336,0-7.851-3.515-7.851-7.851v-37.653c0-4.336,3.515-7.851,7.851-7.851
							h22.244c4.336,0,7.851,3.515,7.851,7.851v37.653C83.168,144.276,79.653,147.791,75.317,147.791z"/>
					</g>
				</g>
				<g>
					<g>
						<path fill="#58595B" d="M202.927,147.791h-22.244c-4.336,0-7.851-3.515-7.851-7.851v-37.653c0-4.336,3.515-7.851,7.851-7.851
							h22.244c4.336,0,7.851,3.515,7.851,7.851v37.653C210.778,144.276,207.263,147.791,202.927,147.791z"/>
					</g>
				</g>
			</g>
			<g>
				<g>
					<path fill="#478CF7" d="M200.369,137.542H55.631c-3.547,0-6.55-2.618-7.033-6.132l-5.991-43.578
						c-1.392-10.125,6.476-19.149,16.696-19.149h137.393c10.22,0,18.088,9.024,16.696,19.149l-5.991,43.578
						C206.919,134.924,203.916,137.542,200.369,137.542z"/>
				</g>
			</g>
			<g>
				<g>
					<path fill="#2266D3" d="M45.298,107.404l3.3,24.005c0.483,3.514,3.486,6.132,7.033,6.132h144.738
						c3.547,0,6.55-2.618,7.033-6.132l3.3-24.005H45.298z"/>
				</g>
			</g>
			<g>
				<g>
					<path fill="#478CF7" d="M171.599,28.209H84.401c-5.271,0-9.981,3.289-11.797,8.237L60.776,68.683h134.447l-11.828-32.237
						C181.58,31.498,176.87,28.209,171.599,28.209z"/>
				</g>
			</g>
			<g>
				<g>
					<path fill="#E6E7E8" d="M89.706,98.57H57.77c-1.529,0-2.822-1.13-3.026-2.645l-0.646-4.777
						c-0.248-1.832,1.177-3.463,3.026-3.463H89.06c1.529,0,2.822,1.13,3.026,2.645l0.646,4.777
						C92.98,96.939,91.555,98.57,89.706,98.57z"/>
				</g>
			</g>
			<g>
				<path fill="#D1D3D4" d="M92.732,95.107l-0.646-4.778c-0.205-1.515-1.498-2.645-3.026-2.645h-1.656l0.327,2.423
					c0.248,1.832-1.177,3.463-3.026,3.463h-30.28l0.318,2.355c0.205,1.515,1.498,2.645,3.026,2.645h31.935
					C91.555,98.57,92.98,96.939,92.732,95.107z"/>
			</g>
			<g>
				<g>
					<path fill="#E6E7E8" d="M166.294,98.57h31.935c1.529,0,2.822-1.13,3.026-2.645l0.646-4.777
						c0.248-1.832-1.177-3.463-3.026-3.463H166.94c-1.529,0-2.822,1.13-3.026,2.645l-0.646,4.777
						C163.02,96.939,164.445,98.57,166.294,98.57z"/>
				</g>
			</g>
			<g>
				<path fill="#D1D3D4" d="M198.875,87.684h-2.181l-0.438,3.241c-0.205,1.515-1.498,2.645-3.026,2.645h-29.754l-0.208,1.537
					c-0.248,1.832,1.177,3.463,3.026,3.463h31.935c1.529,0,2.822-1.13,3.026-2.645l0.646-4.778
					C202.15,89.315,200.725,87.684,198.875,87.684z"/>
			</g>
			<g>
				<g>
					<path fill="#F1F2F2" d="M186.067,68.682H69.933l9.754-28.719c1.041-3.062,3.445-5.05,6.11-5.05h84.405
						c2.664,0,5.069,1.988,6.11,5.05L186.067,68.682z"/>
				</g>
			</g>
			<g>
				<path fill="#E6E7E8" d="M176.312,39.964c-1.041-3.062-3.446-5.05-6.11-5.05h-2.209l8.073,23.768H73.33l-3.397,10h116.133
					L176.312,39.964z"/>
			</g>
			<g>
				<path fill="#D1D3D4" d="M176.312,39.964c-0.891-2.62-2.78-4.453-4.975-4.928l9.73,28.647H71.632l-1.698,5h116.133
					L176.312,39.964z"/>
			</g>
			<g>
				<g>
					<g>
						<path fill="#5E9CF7" d="M155.387,129.575h-54.774c-2.719,0-4.451-2.906-3.158-5.298l3.798-7.024
							c0.627-1.16,1.839-1.882,3.158-1.882h47.177c1.318,0,2.531,0.723,3.158,1.882l3.798,7.024
							C159.838,126.669,158.106,129.575,155.387,129.575z"/>
					</g>
				</g>
				<g>
					<path fill="#478CF7" d="M158.545,124.277l-3.798-7.024c-0.627-1.16-1.839-1.882-3.158-1.882h-0.156l2.112,3.906
						c1.294,2.392-0.438,5.298-3.158,5.298H97.311c-1.005,2.328,0.695,5,3.302,5h54.774
						C158.106,129.575,159.838,126.669,158.545,124.277z"/>
				</g>
			</g>
			<g>
				<g>
					<g>
						<path fill="#5E9CF7" d="M80.236,121.113H60.945c-1.586,0-2.871-1.285-2.871-2.871l0,0c0-1.586,1.285-2.871,2.871-2.871h19.291
							c1.586,0,2.871,1.285,2.871,2.871l0,0C83.107,119.828,81.822,121.113,80.236,121.113z"/>
					</g>
				</g>
				<g>
					<g>
						<path fill="#5E9CF7" d="M195.055,121.113h-19.291c-1.586,0-2.871-1.285-2.871-2.871l0,0c0-1.586,1.285-2.871,2.871-2.871
							h19.291c1.586,0,2.871,1.285,2.871,2.871l0,0C197.926,119.828,196.641,121.113,195.055,121.113z"/>
					</g>
				</g>
			</g>
		</g>
	</g>
	<g>
		<path fill="#5E9CF7" d="M48.55,89.01c-2.46-0.033-2.702-3.62-0.269-3.98C51.07,84.758,51.368,88.931,48.55,89.01z M50.35,81.41
			c-1.561,0.033-2.583-1.871-1.649-3.14c0.29-0.42,0.6-0.82,0.92-1.18c2.439-2.8,5.97-4.41,9.68-4.41l137.4,0.01
			c2.536,0.036,2.721,3.909,0,3.99c0,0-137.4,0-137.4,0c-2.904-0.011-5.648,1.458-7.3,3.84c0,0.01,0,0.01,0,0.02
			C51.62,81.08,51.01,81.41,50.35,81.41z"/>
	</g>
</g>
</svg>
