<?xml version="1.0" encoding="utf-8"?>
<!-- Generator: Adobe Illustrator 24.0.0, SVG Export Plug-In . SVG Version: 6.00 Build 0)  -->
<svg version="1.1" id="Layer_1" xmlns="http://www.w3.org/2000/svg" xmlns:xlink="http://www.w3.org/1999/xlink" x="0px" y="0px"
	 viewBox="0 0 256 256" enable-background="new 0 0 256 256" xml:space="preserve">
<g>
	<g>
		<g>
			<g>
				<path fill="#808285" d="M195.703,240.735H60.297c-5.522,0-9.999-4.477-9.999-9.999V42.626c0-5.522,4.477-9.999,9.999-9.999
					h135.405c5.522,0,9.999,4.477,9.999,9.999v188.109C205.702,236.258,201.225,240.735,195.703,240.735z"/>
			</g>
			<g>
				<path fill="#58595B" d="M199.818,33.51c0.568,1.255,0.884,2.649,0.884,4.116v188.109c0,5.522-4.477,9.999-9.999,9.999H55.297
					c-1.467,0-2.86-0.316-4.116-0.884c1.569,3.469,5.06,5.884,9.116,5.884h135.405c5.522,0,9.999-4.477,9.999-9.999V42.626
					C205.702,38.571,203.288,35.08,199.818,33.51z"/>
			</g>
			<g>
				<path fill="#FFFFFF" d="M189.106,226.794H66.894c-1.841,0-3.333-1.492-3.333-3.333V49.934c0-1.841,1.492-3.333,3.333-3.333
					h122.212c1.841,0,3.333,1.492,3.333,3.333v173.527C192.439,225.302,190.947,226.794,189.106,226.794z"/>
			</g>
			<g>
				<path fill="#F1F2F2" d="M189.106,46.601h-16.667v166.86c0,1.841-1.492,3.333-3.333,3.333H63.561v6.667
					c0,1.841,1.492,3.333,3.333,3.333h122.212c1.841,0,3.333-1.492,3.333-3.333V49.934
					C192.439,48.093,190.947,46.601,189.106,46.601z"/>
			</g>
			<g>
				<path fill="#939598" d="M56.3,121.27c-1.11,0-2-0.89-2-2V42.62c0-3.3,2.69-5.99,6-5.99h7.07c1.1,0,1.989,0.89,1.989,2
					c0,1.1-0.89,2-1.989,2H60.3c-1.1,0-2,0.9-2,1.99v76.65C58.3,120.38,57.399,121.27,56.3,121.27z M75.37,40.63c-1.11,0-2-0.9-2-2
					c0-1.11,0.89-2,2-2c1.1,0,2,0.89,2,2C77.37,39.73,76.47,40.63,75.37,40.63z"/>
			</g>
		</g>
		<g>
			<g>
				<path fill="#FFA91A" d="M166.473,46.252l-4.994-17.915c-0.803-2.882-3.429-4.876-6.421-4.876h-20.808
					c0,3.451-2.798,6.249-6.249,6.249c-3.451,0-6.249-2.798-6.249-6.249h-20.808c-2.992,0-5.618,1.994-6.421,4.876l-4.994,17.915
					c-1.184,4.249,2.011,8.456,6.422,8.456h64.102C164.463,54.708,167.657,50.501,166.473,46.252z"/>
			</g>
			<g>
				<path fill="#F79219" d="M166.473,46.252l-4.994-17.915c-0.803-2.882-3.429-4.876-6.421-4.876h-2.151l3.566,12.791
					c1.185,4.249-2.01,8.456-6.421,8.456H89.958l-0.43,1.544c-1.184,4.249,2.011,8.456,6.422,8.456h64.102
					C164.463,54.708,167.657,50.501,166.473,46.252z"/>
			</g>
			<g>
				<g>
					<path fill="#EF7816" d="M166.473,46.252l-4.994-17.915c-0.665-2.387-2.58-4.164-4.918-4.705l4.912,17.62
						c1.185,4.249-2.01,8.456-6.421,8.456H90.949c-0.519,0-1.02-0.059-1.5-0.168c0.671,2.894,3.257,5.168,6.5,5.168h64.102
						C164.463,54.708,167.657,50.501,166.473,46.252z"/>
				</g>
			</g>
			<g>
				<path fill="#FFA91A" d="M128,10.546c-7.133,0-12.915,5.782-12.915,12.916c0,7.133,5.782,12.915,12.915,12.915
					c7.133,0,12.916-5.782,12.916-12.915C140.916,16.328,135.133,10.546,128,10.546z M128,29.711c-3.451,0-6.249-2.798-6.249-6.249
					s2.798-6.249,6.249-6.249c3.452,0,6.249,2.798,6.249,6.249S131.452,29.711,128,29.711z"/>
			</g>
			<g>
				<g>
					<path fill="#F79219" d="M136.078,13.383c1.775,2.212,2.838,5.021,2.838,8.078c0,7.133-5.782,12.915-12.916,12.915
						c-3.057,0-5.866-1.062-8.078-2.837c2.367,2.949,6.002,4.837,10.078,4.837c7.133,0,12.916-5.782,12.916-12.915
						C140.916,19.385,139.027,15.75,136.078,13.383z"/>
				</g>
			</g>
		</g>
	</g>
	<g>
		<g>
			<path fill="#D1D3D4" d="M172.363,86.374H140.93c-2.507,0-4.54-2.032-4.54-4.54v0c0-2.507,2.032-4.54,4.54-4.54h31.433
				c2.507,0,4.54,2.032,4.54,4.54v0C176.902,84.341,174.87,86.374,172.363,86.374z"/>
		</g>
	</g>
	<g>
		<path fill="#D1D3D4" d="M181.278,102.107H140.93c-2.507,0-4.54-2.032-4.54-4.54v0c0-2.507,2.032-4.54,4.54-4.54h40.348
			c2.507,0,4.54,2.032,4.54,4.54v0C185.818,100.074,183.785,102.107,181.278,102.107z"/>
	</g>
	<g>
		<g>
			<path fill="#D1D3D4" d="M172.363,133.796H140.93c-2.507,0-4.54-2.032-4.54-4.54v0c0-2.507,2.032-4.54,4.54-4.54h31.433
				c2.507,0,4.54,2.032,4.54,4.54v0C176.902,131.763,174.87,133.796,172.363,133.796z"/>
		</g>
	</g>
	<g>
		<path fill="#D1D3D4" d="M181.278,149.528H140.93c-2.507,0-4.54-2.032-4.54-4.54v0c0-2.507,2.032-4.54,4.54-4.54h40.348
			c2.507,0,4.54,2.032,4.54,4.54v0C185.818,147.496,183.785,149.528,181.278,149.528z"/>
	</g>
	<g>
		<g>
			<path fill="#D1D3D4" d="M172.363,181.218H140.93c-2.507,0-4.54-2.032-4.54-4.54v0c0-2.507,2.032-4.54,4.54-4.54h31.433
				c2.507,0,4.54,2.032,4.54,4.54v0C176.902,179.185,174.87,181.218,172.363,181.218z"/>
		</g>
	</g>
	<g>
		<path fill="#D1D3D4" d="M181.278,196.95H140.93c-2.507,0-4.54-2.032-4.54-4.54l0,0c0-2.507,2.032-4.54,4.54-4.54h40.348
			c2.507,0,4.54,2.032,4.54,4.54l0,0C185.818,194.918,183.785,196.95,181.278,196.95z"/>
	</g>
	<g>
		<g>
			<g>
				<g>
					<g>
						<g>
							<path fill="#478CF7" d="M115.618,81.323l0.001,0.004c0.084-0.226,0.27-0.407,0.517-0.474l4.452-1.201
								c0.452-0.122,0.908,0.186,0.962,0.652l0.301,2.579c0.044,0.378-0.195,0.731-0.562,0.83l-5.551,1.494
								c-0.423,0.114-0.868-0.085-1.065-0.476l0,0c-0.116-0.229-0.131-0.497-0.042-0.738L115.618,81.323z"/>
						</g>
					</g>
				</g>
				<g>
					<g>
						<g>
							<path fill="#478CF7" d="M81.77,81.323l-0.001,0.004c-0.084-0.226-0.27-0.407-0.517-0.474l-4.452-1.201
								c-0.452-0.122-0.908,0.186-0.962,0.652l-0.301,2.579c-0.044,0.378,0.195,0.731,0.562,0.83l5.551,1.494
								c0.423,0.114,0.868-0.085,1.065-0.476l0,0c0.116-0.229,0.131-0.497,0.042-0.738L81.77,81.323z"/>
						</g>
					</g>
				</g>
			</g>
			<g>
				<g>
					<g>
						<path fill="#414042" d="M84.798,107.613h-5.867c-1.144,0-2.071-0.927-2.071-2.071v-9.931c0-1.144,0.927-2.071,2.071-2.071
							h5.867c1.144,0,2.071,0.927,2.071,2.071v9.931C86.869,106.686,85.942,107.613,84.798,107.613z"/>
					</g>
				</g>
				<g>
					<g>
						<path fill="#414042" d="M118.457,107.613h-5.867c-1.144,0-2.071-0.927-2.071-2.071v-9.931c0-1.144,0.927-2.071,2.071-2.071
							h5.867c1.144,0,2.071,0.927,2.071,2.071v9.931C120.528,106.686,119.601,107.613,118.457,107.613z"/>
					</g>
				</g>
			</g>
			<g>
				<g>
					<path fill="#5E9CF7" d="M117.782,102.727H79.606c-0.936,0-1.728-0.691-1.855-1.617l-1.58-11.494
						c-0.367-2.671,1.708-5.051,4.404-5.051h36.239c2.696,0,4.771,2.38,4.404,5.051l-1.58,11.494
						C119.51,102.037,118.718,102.727,117.782,102.727z"/>
				</g>
			</g>
			<g>
				<g>
					<path fill="#377DE2" d="M76.88,94.778l0.87,6.332c0.127,0.927,0.919,1.617,1.855,1.617h38.176c0.936,0,1.728-0.691,1.855-1.617
						l0.87-6.332H76.88z"/>
				</g>
			</g>
			<g>
				<g>
					<path fill="#5E9CF7" d="M110.194,73.889H87.194c-1.39,0-2.633,0.868-3.111,2.173l-3.12,8.503h35.462l-3.12-8.503
						C112.827,74.757,111.584,73.889,110.194,73.889z"/>
				</g>
			</g>
			<g>
				<g>
					<path fill="#D1D3D4" d="M88.594,92.547H80.17c-0.403,0-0.744-0.298-0.798-0.698l-0.17-1.26
						c-0.065-0.483,0.311-0.913,0.798-0.913h8.423c0.403,0,0.744,0.298,0.798,0.698l0.17,1.26
						C89.457,92.117,89.081,92.547,88.594,92.547z"/>
				</g>
			</g>
			<g>
				<g>
					<path fill="#D1D3D4" d="M108.795,92.547h8.423c0.403,0,0.744-0.298,0.798-0.698l0.17-1.26c0.065-0.483-0.311-0.913-0.798-0.913
						h-8.423c-0.403,0-0.744,0.298-0.798,0.698l-0.17,1.26C107.931,92.117,108.307,92.547,108.795,92.547z"/>
				</g>
			</g>
			<g>
				<g>
					<path fill="#E6E7E8" d="M113.049,84.565h-28.71l2.411-7.1c0.257-0.757,0.852-1.248,1.51-1.248h20.866
						c0.659,0,1.253,0.491,1.51,1.248L113.049,84.565z"/>
				</g>
			</g>
		</g>
	</g>
	<g>
		<g>
			<g>
				<g>
					<g>
						<g>
							<path fill="#478CF7" d="M115.618,127.694l0.001,0.004c0.084-0.226,0.27-0.407,0.517-0.474l4.452-1.201
								c0.452-0.122,0.908,0.186,0.962,0.652l0.301,2.579c0.044,0.378-0.195,0.731-0.562,0.83l-5.551,1.494
								c-0.423,0.114-0.868-0.085-1.065-0.476l0,0c-0.116-0.229-0.131-0.497-0.042-0.738L115.618,127.694z"/>
						</g>
					</g>
				</g>
				<g>
					<g>
						<g>
							<path fill="#478CF7" d="M81.77,127.694l-0.001,0.004c-0.084-0.226-0.27-0.407-0.517-0.474l-4.452-1.201
								c-0.452-0.122-0.908,0.186-0.962,0.652l-0.301,2.579c-0.044,0.378,0.195,0.731,0.562,0.83l5.551,1.494
								c0.423,0.114,0.868-0.085,1.065-0.476l0,0c0.116-0.229,0.131-0.497,0.042-0.738L81.77,127.694z"/>
						</g>
					</g>
				</g>
			</g>
			<g>
				<g>
					<g>
						<path fill="#414042" d="M84.798,153.984h-5.867c-1.144,0-2.071-0.927-2.071-2.071v-9.931c0-1.144,0.927-2.071,2.071-2.071
							h5.867c1.144,0,2.071,0.927,2.071,2.071v9.931C86.869,153.057,85.942,153.984,84.798,153.984z"/>
					</g>
				</g>
				<g>
					<g>
						<path fill="#414042" d="M118.457,153.984h-5.867c-1.144,0-2.071-0.927-2.071-2.071v-9.931c0-1.144,0.927-2.071,2.071-2.071
							h5.867c1.144,0,2.071,0.927,2.071,2.071v9.931C120.528,153.057,119.601,153.984,118.457,153.984z"/>
					</g>
				</g>
			</g>
			<g>
				<g>
					<path fill="#5E9CF7" d="M117.782,149.099H79.606c-0.936,0-1.728-0.691-1.855-1.617l-1.58-11.494
						c-0.367-2.671,1.708-5.051,4.404-5.051h36.239c2.696,0,4.771,2.38,4.404,5.051l-1.58,11.494
						C119.51,148.408,118.718,149.099,117.782,149.099z"/>
				</g>
			</g>
			<g>
				<g>
					<path fill="#377DE2" d="M76.88,141.15l0.87,6.332c0.127,0.927,0.919,1.617,1.855,1.617h38.176c0.936,0,1.728-0.691,1.855-1.617
						l0.87-6.332H76.88z"/>
				</g>
			</g>
			<g>
				<g>
					<path fill="#5E9CF7" d="M110.194,120.261H87.194c-1.39,0-2.633,0.868-3.111,2.173l-3.12,8.503h35.462l-3.12-8.503
						C112.827,121.128,111.584,120.261,110.194,120.261z"/>
				</g>
			</g>
			<g>
				<g>
					<path fill="#D1D3D4" d="M88.594,138.819H80.17c-0.403,0-0.744-0.298-0.798-0.698l-0.17-1.26
						c-0.065-0.483,0.311-0.913,0.798-0.913h8.423c0.403,0,0.744,0.298,0.798,0.698l0.17,1.26
						C89.457,138.389,89.081,138.819,88.594,138.819z"/>
				</g>
			</g>
			<g>
				<g>
					<path fill="#D1D3D4" d="M108.795,138.819h8.423c0.403,0,0.744-0.298,0.798-0.698l0.17-1.26
						c0.065-0.483-0.311-0.913-0.798-0.913h-8.423c-0.403,0-0.744,0.298-0.798,0.698l-0.17,1.26
						C107.931,138.389,108.307,138.819,108.795,138.819z"/>
				</g>
			</g>
			<g>
				<g>
					<path fill="#E6E7E8" d="M113.049,130.936h-28.71l2.411-7.1c0.257-0.757,0.852-1.248,1.51-1.248h20.866
						c0.659,0,1.253,0.491,1.51,1.248L113.049,130.936z"/>
				</g>
			</g>
		</g>
	</g>
	<g>
		<g>
			<g>
				<g>
					<g>
						<g>
							<path fill="#478CF7" d="M115.618,174.066l0.001,0.004c0.084-0.226,0.27-0.407,0.517-0.474l4.452-1.201
								c0.452-0.122,0.908,0.186,0.962,0.652l0.301,2.579c0.044,0.378-0.195,0.731-0.562,0.83l-5.551,1.494
								c-0.423,0.114-0.868-0.085-1.065-0.476l0,0c-0.116-0.229-0.131-0.497-0.042-0.738L115.618,174.066z"/>
						</g>
					</g>
				</g>
				<g>
					<g>
						<g>
							<path fill="#478CF7" d="M81.77,174.066l-0.001,0.004c-0.084-0.226-0.27-0.407-0.517-0.474l-4.452-1.201
								c-0.452-0.122-0.908,0.186-0.962,0.652l-0.301,2.579c-0.044,0.378,0.195,0.731,0.562,0.83l5.551,1.494
								c0.423,0.114,0.868-0.085,1.065-0.476l0,0c0.116-0.229,0.131-0.497,0.042-0.738L81.77,174.066z"/>
						</g>
					</g>
				</g>
			</g>
			<g>
				<g>
					<g>
						<path fill="#414042" d="M84.798,200.356h-5.867c-1.144,0-2.071-0.927-2.071-2.071v-9.931c0-1.144,0.927-2.071,2.071-2.071
							h5.867c1.144,0,2.071,0.927,2.071,2.071v9.931C86.869,199.429,85.942,200.356,84.798,200.356z"/>
					</g>
				</g>
				<g>
					<g>
						<path fill="#414042" d="M118.457,200.356h-5.867c-1.144,0-2.071-0.927-2.071-2.071v-9.931c0-1.144,0.927-2.071,2.071-2.071
							h5.867c1.144,0,2.071,0.927,2.071,2.071v9.931C120.528,199.429,119.601,200.356,118.457,200.356z"/>
					</g>
				</g>
			</g>
			<g>
				<g>
					<path fill="#5E9CF7" d="M117.782,195.47H79.606c-0.936,0-1.728-0.691-1.855-1.617l-1.58-11.494
						c-0.367-2.671,1.708-5.051,4.404-5.051h36.239c2.696,0,4.771,2.38,4.404,5.051l-1.58,11.494
						C119.51,194.78,118.718,195.47,117.782,195.47z"/>
				</g>
			</g>
			<g>
				<g>
					<path fill="#377DE2" d="M76.88,187.521l0.87,6.332c0.127,0.927,0.919,1.617,1.855,1.617h38.176
						c0.936,0,1.728-0.691,1.855-1.617l0.87-6.332H76.88z"/>
				</g>
			</g>
			<g>
				<g>
					<path fill="#5E9CF7" d="M110.194,166.632H87.194c-1.39,0-2.633,0.868-3.111,2.173l-3.12,8.503h35.462l-3.12-8.503
						C112.827,167.5,111.584,166.632,110.194,166.632z"/>
				</g>
			</g>
			<g>
				<g>
					<path fill="#D1D3D4" d="M88.594,185.191H80.17c-0.403,0-0.744-0.298-0.798-0.698l-0.17-1.26
						c-0.065-0.483,0.311-0.913,0.798-0.913h8.423c0.403,0,0.744,0.298,0.798,0.698l0.17,1.26
						C89.457,184.761,89.081,185.191,88.594,185.191z"/>
				</g>
			</g>
			<g>
				<g>
					<path fill="#D1D3D4" d="M108.795,185.191h8.423c0.403,0,0.744-0.298,0.798-0.698l0.17-1.26
						c0.065-0.483-0.311-0.913-0.798-0.913h-8.423c-0.403,0-0.744,0.298-0.798,0.698l-0.17,1.26
						C107.931,184.761,108.307,185.191,108.795,185.191z"/>
				</g>
			</g>
			<g>
				<g>
					<path fill="#E6E7E8" d="M113.049,177.308h-28.71l2.411-7.1c0.257-0.757,0.852-1.248,1.51-1.248h20.866
						c0.659,0,1.253,0.491,1.51,1.248L113.049,177.308z"/>
				</g>
			</g>
		</g>
	</g>
</g>
</svg>
