<?xml version="1.0" encoding="utf-8"?>
<!-- Generator: Adobe Illustrator 24.0.0, SVG Export Plug-In . SVG Version: 6.00 Build 0)  -->
<svg version="1.1" id="Layer_1" xmlns="http://www.w3.org/2000/svg" xmlns:xlink="http://www.w3.org/1999/xlink" x="0px" y="0px"
	 viewBox="0 0 256 256" enable-background="new 0 0 256 256" xml:space="preserve">
<g>
	<g>
		<path fill="#F79219" d="M214.196,218.195h-48.239c-2.209,0-4-1.791-4-4s1.791-4,4-4h44.239V69.268H45.804v44.559
			c0,2.209-1.791,4-4,4s-4-1.791-4-4V65.268c0-2.209,1.791-4,4-4h172.392c2.209,0,4,1.791,4,4v148.928
			C218.196,216.404,216.405,218.195,214.196,218.195z"/>
	</g>
	<g>
		<path fill="#F79219" d="M41.804,119.514c-1.024,0-2.047-0.391-2.829-1.172L26.114,105.48c-1.562-1.562-1.562-4.095,0-5.656
			c1.563-1.563,4.095-1.563,5.657,0l10.033,10.032l10.033-10.032c1.563-1.563,4.095-1.563,5.657,0c1.562,1.562,1.562,4.095,0,5.656
			l-12.861,12.861C43.852,119.123,42.828,119.514,41.804,119.514z"/>
	</g>
	<g>
		<path fill="#F79219" d="M176.915,231.058c-1.024,0-2.047-0.391-2.829-1.172l-12.861-12.862c-1.562-1.562-1.562-4.095,0-5.656
			l12.861-12.861c1.563-1.563,4.096-1.562,5.657,0c1.562,1.562,1.562,4.095,0,5.656l-10.034,10.033l10.033,10.034
			c1.562,1.562,1.562,4.095,0,5.656C178.962,230.667,177.938,231.058,176.915,231.058z"/>
	</g>
	<g>
		<g>
			<g>
				<g>
					<g>
						<g>
							<path fill="#478CF7" d="M130.885,154.526l0.003,0.011c0.234-0.626,0.75-1.13,1.432-1.314l12.344-3.33
								c1.255-0.338,2.517,0.517,2.667,1.808l0.834,7.151c0.122,1.047-0.541,2.026-1.559,2.3l-15.391,4.142
								c-1.173,0.316-2.406-0.235-2.954-1.32l0,0c-0.321-0.636-0.363-1.377-0.116-2.045L130.885,154.526z"/>
						</g>
					</g>
				</g>
				<g>
					<g>
						<g>
							<path fill="#478CF7" d="M37.038,154.526l-0.003,0.011c-0.234-0.626-0.75-1.13-1.432-1.314l-12.344-3.33
								c-1.254-0.338-2.517,0.517-2.667,1.808l-0.834,7.151c-0.122,1.047,0.541,2.026,1.559,2.3l15.391,4.142
								c1.173,0.316,2.406-0.235,2.954-1.32l0,0c0.321-0.636,0.363-1.377,0.116-2.045L37.038,154.526z"/>
						</g>
					</g>
				</g>
			</g>
			<g>
				<g>
					<g>
						<path fill="#414042" d="M45.433,227.419H29.166c-3.171,0-5.741-2.571-5.741-5.742v-27.536c0-3.171,2.571-5.742,5.741-5.742
							h16.268c3.171,0,5.742,2.571,5.742,5.742v27.536C51.175,224.849,48.604,227.419,45.433,227.419z"/>
					</g>
				</g>
				<g>
					<g>
						<path fill="#414042" d="M138.758,227.419H122.49c-3.171,0-5.742-2.571-5.742-5.742v-27.536c0-3.171,2.571-5.742,5.742-5.742
							h16.268c3.171,0,5.741,2.571,5.741,5.742v27.536C144.499,224.849,141.928,227.419,138.758,227.419z"/>
					</g>
				</g>
			</g>
			<g>
				<g>
					<path fill="#5E9CF7" d="M136.887,213.873H31.036c-2.594,0-4.79-1.915-5.143-4.485l-4.381-31.869
						c-1.018-7.405,4.736-14.004,12.21-14.004h100.479c7.474,0,13.228,6.599,12.21,14.004l-4.381,31.869
						C141.677,211.958,139.481,213.873,136.887,213.873z"/>
				</g>
			</g>
			<g>
				<path fill="#478CF7" d="M140.05,164.986c1.198,2.212,1.735,4.818,1.362,7.532l-4.381,31.87c-0.353,2.57-2.549,4.485-5.143,4.485
					H26.036c-0.072,0-0.144-0.002-0.215-0.005l0.071,0.52c0.353,2.57,2.549,4.485,5.143,4.485h105.85
					c2.594,0,4.79-1.915,5.143-4.485l4.381-31.87C147.14,172.222,144.403,167.338,140.05,164.986z"/>
			</g>
			<g>
				<g>
					<path fill="#377DE2" d="M23.479,191.833l2.414,17.556c0.353,2.57,2.549,4.485,5.143,4.485h105.85
						c2.594,0,4.79-1.915,5.143-4.485l2.413-17.556H23.479z"/>
				</g>
			</g>
			<g>
				<g>
					<path fill="#5E9CF7" d="M115.847,133.915h-63.77c-3.855,0-7.299,2.405-8.627,6.024l-8.65,23.576h98.325l-8.65-23.576
						C123.146,136.321,119.701,133.915,115.847,133.915z"/>
				</g>
			</g>
			<g>
				<g>
					<path fill="#D1D3D4" d="M55.956,185.372H32.601c-1.118,0-2.064-0.826-2.213-1.934l-0.472-3.494
						c-0.181-1.34,0.861-2.533,2.213-2.533h23.355c1.118,0,2.064,0.827,2.213,1.934l0.472,3.494
						C58.35,184.179,57.308,185.372,55.956,185.372z"/>
				</g>
			</g>
			<g>
				<g>
					<path fill="#D1D3D4" d="M111.967,185.372h23.355c1.118,0,2.064-0.826,2.213-1.934l0.472-3.494
						c0.181-1.34-0.861-2.533-2.213-2.533h-23.355c-1.118,0-2.064,0.827-2.213,1.934l-0.472,3.494
						C109.573,184.179,110.615,185.372,111.967,185.372z"/>
				</g>
			</g>
			<g>
				<g>
					<path fill="#F1F2F2" d="M124.198,163.514H43.726l6.759-19.9c0.721-2.122,2.387-3.499,4.234-3.499h58.486
						c1.846,0,3.512,1.377,4.234,3.499L124.198,163.514z"/>
				</g>
			</g>
			<g>
				<path fill="#E6E7E8" d="M117.438,143.614c-0.721-2.122-2.387-3.499-4.234-3.499h-3.558l4.551,13.399H47.122l-3.397,10h80.472
					L117.438,143.614z"/>
			</g>
			<g>
				<path fill="#D1D3D4" d="M117.438,143.614c-0.721-2.122-2.387-3.499-4.234-3.499h-0.256l6.249,18.399H45.424l-1.698,5h80.472
					L117.438,143.614z"/>
			</g>
		</g>
	</g>
	<g>
		<g>
			<path fill="#808285" d="M240.148,37.542c0-4.511-3.657-8.168-8.168-8.168h-44.742c-4.512,0-8.168,3.657-8.168,8.168v55.45
				c0,4.511,3.657,8.168,8.168,8.168h44.742c4.511,0,8.168-3.657,8.168-8.168L240.148,37.542z M230.848,73.277
				c0,1.895-1.536,3.431-3.431,3.431c-1.895,0-3.431-1.536-3.431-3.431v-16.02c0-1.895,1.536-3.431,3.431-3.431
				c1.895,0,3.431,1.536,3.431,3.431V73.277z"/>
		</g>
		<g>
			<g>
				<path fill="#58595B" d="M240.148,37.542c0-3.562-2.28-6.591-5.46-7.708c0.298,0.848,0.46,1.759,0.46,2.708l0,55.45
					c0,4.511-3.657,8.168-8.169,8.168h-44.742c-0.949,0-1.861-0.163-2.708-0.46c1.117,3.18,4.146,5.46,7.708,5.46h44.742
					c4.511,0,8.169-3.657,8.169-8.168L240.148,37.542z"/>
			</g>
		</g>
		<g>
			<g>
				<path fill="#E6E7E8" d="M93.935,78.604l85.134,0V51.93l-85.134,0c-2.056,0-4.022,0.839-5.444,2.324l-8.051,8.406
					c-1.396,1.458-1.396,3.756,0,5.214l8.051,8.406C89.913,77.764,91.88,78.604,93.935,78.604z"/>
			</g>
			<g>
				<path fill="#D1D3D4" d="M95.601,78.604l11.517-11.517c1.472-1.472,3.858-1.472,5.33,0l3.768,3.768
					c0.707,0.707,1.665,1.104,2.665,1.104h9.721c1,0,1.958-0.397,2.665-1.104l3.005-3.005c1.472-1.472,3.858-1.472,5.33,0l3.71,3.71
					c0.707,0.707,1.665,1.104,2.665,1.104h20.569c1,0,1.958,0.397,2.665,1.104l4.837,4.837L95.601,78.604z"/>
			</g>
			<g>
				<g>
					<polygon fill="#D1D3D4" points="83.124,59.687 179.069,59.687 179.069,55.615 87.024,55.615 					"/>
				</g>
			</g>
		</g>
	</g>
	<g>
		<path fill="#939598" d="M185.07,90.18c-1.1,0-2-0.9-2-2V37.54c0-2.29,1.87-4.16,4.17-4.17h25.96c1.1,0,2,0.899,2,2
			c0,1.1-0.9,2-2,2h-25.96c-0.09,0-0.17,0.08-0.17,0.17v50.64C187.07,89.279,186.17,90.18,185.07,90.18z M221.2,37.37
			c-1.11,0-2-0.9-2-2c0-1.101,0.89-2,2-2c1.1,0,2,0.899,2,2C223.2,36.47,222.3,37.37,221.2,37.37z"/>
	</g>
</g>
</svg>
